%TF.GenerationSoftware,KiCad,Pcbnew,5.1.10-88a1d61d58~88~ubuntu20.04.1*%
%TF.CreationDate,2021-06-20T22:38:15+02:00*%
%TF.ProjectId,motor_driver_v1,6d6f746f-725f-4647-9269-7665725f7631,rev?*%
%TF.SameCoordinates,Original*%
%TF.FileFunction,Paste,Top*%
%TF.FilePolarity,Positive*%
%FSLAX46Y46*%
G04 Gerber Fmt 4.6, Leading zero omitted, Abs format (unit mm)*
G04 Created by KiCad (PCBNEW 5.1.10-88a1d61d58~88~ubuntu20.04.1) date 2021-06-20 22:38:15*
%MOMM*%
%LPD*%
G01*
G04 APERTURE LIST*
%ADD10R,0.650000X1.500000*%
G04 APERTURE END LIST*
D10*
%TO.C,IC3*%
X148345000Y-62050000D03*
X149615000Y-62050000D03*
X150885000Y-62050000D03*
X152155000Y-62050000D03*
X152155000Y-67450000D03*
X150885000Y-67450000D03*
X149615000Y-67450000D03*
X148345000Y-67450000D03*
%TD*%
%TO.C,C2*%
G36*
G01*
X149575000Y-51300000D02*
X149575000Y-52250000D01*
G75*
G02*
X149325000Y-52500000I-250000J0D01*
G01*
X148825000Y-52500000D01*
G75*
G02*
X148575000Y-52250000I0J250000D01*
G01*
X148575000Y-51300000D01*
G75*
G02*
X148825000Y-51050000I250000J0D01*
G01*
X149325000Y-51050000D01*
G75*
G02*
X149575000Y-51300000I0J-250000D01*
G01*
G37*
G36*
G01*
X151475000Y-51300000D02*
X151475000Y-52250000D01*
G75*
G02*
X151225000Y-52500000I-250000J0D01*
G01*
X150725000Y-52500000D01*
G75*
G02*
X150475000Y-52250000I0J250000D01*
G01*
X150475000Y-51300000D01*
G75*
G02*
X150725000Y-51050000I250000J0D01*
G01*
X151225000Y-51050000D01*
G75*
G02*
X151475000Y-51300000I0J-250000D01*
G01*
G37*
%TD*%
%TO.C,IC1*%
X99710000Y-62100000D03*
X100980000Y-62100000D03*
X102250000Y-62100000D03*
X103520000Y-62100000D03*
X103520000Y-67500000D03*
X102250000Y-67500000D03*
X100980000Y-67500000D03*
X99710000Y-67500000D03*
%TD*%
%TO.C,C1*%
G36*
G01*
X100800000Y-51275000D02*
X100800000Y-52225000D01*
G75*
G02*
X100550000Y-52475000I-250000J0D01*
G01*
X100050000Y-52475000D01*
G75*
G02*
X99800000Y-52225000I0J250000D01*
G01*
X99800000Y-51275000D01*
G75*
G02*
X100050000Y-51025000I250000J0D01*
G01*
X100550000Y-51025000D01*
G75*
G02*
X100800000Y-51275000I0J-250000D01*
G01*
G37*
G36*
G01*
X102700000Y-51275000D02*
X102700000Y-52225000D01*
G75*
G02*
X102450000Y-52475000I-250000J0D01*
G01*
X101950000Y-52475000D01*
G75*
G02*
X101700000Y-52225000I0J250000D01*
G01*
X101700000Y-51275000D01*
G75*
G02*
X101950000Y-51025000I250000J0D01*
G01*
X102450000Y-51025000D01*
G75*
G02*
X102700000Y-51275000I0J-250000D01*
G01*
G37*
%TD*%
M02*
