M48
; DRILL file {KiCad 5.1.10-88a1d61d58~88~ubuntu20.04.1} date Sun Jun 20 22:38:18 2021
; FORMAT={-:-/ absolute / inch / decimal}
; #@! TF.CreationDate,2021-06-20T22:38:18+02:00
; #@! TF.GenerationSoftware,Kicad,Pcbnew,5.1.10-88a1d61d58~88~ubuntu20.04.1
; #@! TF.FileFunction,Plated,1,2,PTH
FMAT,2
INCH
T1C0.0157
T2C0.0394
T3C0.0433
T4C0.0472
T5C0.0598
T6C0.0709
T7C0.1181
%
G90
G05
T1
X3.5335Y-2.3524
X3.7303Y-2.5492
X3.8583Y-2.7854
X3.878Y-2.4902
X3.8856Y-2.4486
X3.9665Y-2.9035
X4.0256Y-2.5984
X4.0256Y-2.7067
X4.0846Y-2.5886
X4.252Y-2.3622
X5.4823Y-2.9035
X5.8169Y-2.8051
X5.876Y-2.5886
X5.9449Y-2.7165
X5.9904Y-2.5181
T2
X3.1201Y-2.9134
X3.3209Y-2.9134
X3.3563Y-3.1004
X3.4563Y-3.1004
X3.5563Y-3.1004
X5.0079Y-2.9567
X5.2087Y-2.9567
X5.7874Y-3.061
X5.8874Y-3.061
X5.9874Y-3.061
T3
X3.8051Y-2.5195
X3.8051Y-2.6195
X3.8051Y-2.7195
X3.8055Y-2.1047
X3.8055Y-2.2047
X3.8055Y-2.3047
X4.1732Y-2.1063
X4.1732Y-2.2063
X4.1732Y-2.3063
X4.1732Y-2.5197
X4.1732Y-2.6197
X4.1732Y-2.7197
X5.7248Y-2.1047
X5.7248Y-2.2047
X5.7248Y-2.3047
X5.7248Y-2.5181
X5.7248Y-2.6181
X5.7248Y-2.7181
X6.111Y-2.106
X6.111Y-2.206
X6.111Y-2.306
X6.1112Y-2.5197
X6.1112Y-2.6197
X6.1112Y-2.7197
T4
X3.8878Y-3.061
X4.0846Y-3.061
T5
X3.8878Y-1.8406
X4.0878Y-1.8406
X4.4949Y-3.0807
X4.6949Y-3.0807
X5.8071Y-1.8406
X6.0071Y-1.8406
T6
X4.8819Y-3.0807
T7
X3.1102Y-3.2677
X3.1496Y-1.811
X4.9606Y-1.811
X4.9606Y-3.2677
X6.773Y-1.8091
X6.8124Y-3.2657
T0
M30
