G04 #@! TF.GenerationSoftware,KiCad,Pcbnew,5.1.5+dfsg1-2build2*
G04 #@! TF.CreationDate,2021-10-19T23:30:31+01:00*
G04 #@! TF.ProjectId,radiation_sensor,72616469-6174-4696-9f6e-5f73656e736f,rev?*
G04 #@! TF.SameCoordinates,Original*
G04 #@! TF.FileFunction,Soldermask,Bot*
G04 #@! TF.FilePolarity,Negative*
%FSLAX46Y46*%
G04 Gerber Fmt 4.6, Leading zero omitted, Abs format (unit mm)*
G04 Created by KiCad (PCBNEW 5.1.5+dfsg1-2build2) date 2021-10-19 23:30:31*
%MOMM*%
%LPD*%
G04 APERTURE LIST*
%ADD10C,0.100000*%
G04 APERTURE END LIST*
D10*
G36*
X151175589Y-72988876D02*
G01*
X151274893Y-73008629D01*
X151415206Y-73066748D01*
X151541484Y-73151125D01*
X151648875Y-73258516D01*
X151733252Y-73384794D01*
X151791371Y-73525107D01*
X151821000Y-73674063D01*
X151821000Y-73825937D01*
X151791371Y-73974893D01*
X151733252Y-74115206D01*
X151648875Y-74241484D01*
X151541484Y-74348875D01*
X151415206Y-74433252D01*
X151274893Y-74491371D01*
X151175589Y-74511124D01*
X151125938Y-74521000D01*
X150974062Y-74521000D01*
X150924411Y-74511124D01*
X150825107Y-74491371D01*
X150684794Y-74433252D01*
X150558516Y-74348875D01*
X150451125Y-74241484D01*
X150366748Y-74115206D01*
X150308629Y-73974893D01*
X150279000Y-73825937D01*
X150279000Y-73674063D01*
X150308629Y-73525107D01*
X150366748Y-73384794D01*
X150451125Y-73258516D01*
X150558516Y-73151125D01*
X150684794Y-73066748D01*
X150825107Y-73008629D01*
X150924411Y-72988876D01*
X150974062Y-72979000D01*
X151125938Y-72979000D01*
X151175589Y-72988876D01*
G37*
G36*
X146095589Y-72988876D02*
G01*
X146194893Y-73008629D01*
X146335206Y-73066748D01*
X146461484Y-73151125D01*
X146568875Y-73258516D01*
X146653252Y-73384794D01*
X146711371Y-73525107D01*
X146741000Y-73674063D01*
X146741000Y-73825937D01*
X146711371Y-73974893D01*
X146653252Y-74115206D01*
X146568875Y-74241484D01*
X146461484Y-74348875D01*
X146335206Y-74433252D01*
X146194893Y-74491371D01*
X146095589Y-74511124D01*
X146045938Y-74521000D01*
X145894062Y-74521000D01*
X145844411Y-74511124D01*
X145745107Y-74491371D01*
X145604794Y-74433252D01*
X145478516Y-74348875D01*
X145371125Y-74241484D01*
X145286748Y-74115206D01*
X145228629Y-73974893D01*
X145199000Y-73825937D01*
X145199000Y-73674063D01*
X145228629Y-73525107D01*
X145286748Y-73384794D01*
X145371125Y-73258516D01*
X145478516Y-73151125D01*
X145604794Y-73066748D01*
X145745107Y-73008629D01*
X145844411Y-72988876D01*
X145894062Y-72979000D01*
X146045938Y-72979000D01*
X146095589Y-72988876D01*
G37*
G36*
X148635589Y-72988876D02*
G01*
X148734893Y-73008629D01*
X148875206Y-73066748D01*
X149001484Y-73151125D01*
X149108875Y-73258516D01*
X149193252Y-73384794D01*
X149251371Y-73525107D01*
X149281000Y-73674063D01*
X149281000Y-73825937D01*
X149251371Y-73974893D01*
X149193252Y-74115206D01*
X149108875Y-74241484D01*
X149001484Y-74348875D01*
X148875206Y-74433252D01*
X148734893Y-74491371D01*
X148635589Y-74511124D01*
X148585938Y-74521000D01*
X148434062Y-74521000D01*
X148384411Y-74511124D01*
X148285107Y-74491371D01*
X148144794Y-74433252D01*
X148018516Y-74348875D01*
X147911125Y-74241484D01*
X147826748Y-74115206D01*
X147768629Y-73974893D01*
X147739000Y-73825937D01*
X147739000Y-73674063D01*
X147768629Y-73525107D01*
X147826748Y-73384794D01*
X147911125Y-73258516D01*
X148018516Y-73151125D01*
X148144794Y-73066748D01*
X148285107Y-73008629D01*
X148384411Y-72988876D01*
X148434062Y-72979000D01*
X148585938Y-72979000D01*
X148635589Y-72988876D01*
G37*
G36*
X123801000Y-73651000D02*
G01*
X121999000Y-73651000D01*
X121999000Y-71849000D01*
X123801000Y-71849000D01*
X123801000Y-73651000D01*
G37*
G36*
X123013512Y-69313927D02*
G01*
X123162812Y-69343624D01*
X123326784Y-69411544D01*
X123474354Y-69510147D01*
X123599853Y-69635646D01*
X123698456Y-69783216D01*
X123766376Y-69947188D01*
X123787223Y-70051995D01*
X123800123Y-70116847D01*
X123801000Y-70121259D01*
X123801000Y-70298741D01*
X123766376Y-70472812D01*
X123698456Y-70636784D01*
X123599853Y-70784354D01*
X123474354Y-70909853D01*
X123326784Y-71008456D01*
X123162812Y-71076376D01*
X123013512Y-71106073D01*
X122988742Y-71111000D01*
X122811258Y-71111000D01*
X122786488Y-71106073D01*
X122637188Y-71076376D01*
X122473216Y-71008456D01*
X122325646Y-70909853D01*
X122200147Y-70784354D01*
X122101544Y-70636784D01*
X122033624Y-70472812D01*
X121999000Y-70298741D01*
X121999000Y-70121259D01*
X121999878Y-70116847D01*
X122012777Y-70051995D01*
X122033624Y-69947188D01*
X122101544Y-69783216D01*
X122200147Y-69635646D01*
X122325646Y-69510147D01*
X122473216Y-69411544D01*
X122637188Y-69343624D01*
X122786488Y-69313927D01*
X122811258Y-69309000D01*
X122988742Y-69309000D01*
X123013512Y-69313927D01*
G37*
G36*
X135739499Y-69128445D02*
G01*
X135776995Y-69139820D01*
X135811554Y-69158292D01*
X135841847Y-69183153D01*
X135866708Y-69213446D01*
X135885180Y-69248005D01*
X135896555Y-69285501D01*
X135901000Y-69330638D01*
X135901000Y-69969362D01*
X135896555Y-70014499D01*
X135885180Y-70051995D01*
X135866708Y-70086554D01*
X135841847Y-70116847D01*
X135811554Y-70141708D01*
X135776995Y-70160180D01*
X135739499Y-70171555D01*
X135694362Y-70176000D01*
X134955638Y-70176000D01*
X134910501Y-70171555D01*
X134873005Y-70160180D01*
X134838446Y-70141708D01*
X134808153Y-70116847D01*
X134783292Y-70086554D01*
X134764820Y-70051995D01*
X134753445Y-70014499D01*
X134749000Y-69969362D01*
X134749000Y-69330638D01*
X134753445Y-69285501D01*
X134764820Y-69248005D01*
X134783292Y-69213446D01*
X134808153Y-69183153D01*
X134838446Y-69158292D01*
X134873005Y-69139820D01*
X134910501Y-69128445D01*
X134955638Y-69124000D01*
X135694362Y-69124000D01*
X135739499Y-69128445D01*
G37*
G36*
X133989499Y-69128445D02*
G01*
X134026995Y-69139820D01*
X134061554Y-69158292D01*
X134091847Y-69183153D01*
X134116708Y-69213446D01*
X134135180Y-69248005D01*
X134146555Y-69285501D01*
X134151000Y-69330638D01*
X134151000Y-69969362D01*
X134146555Y-70014499D01*
X134135180Y-70051995D01*
X134116708Y-70086554D01*
X134091847Y-70116847D01*
X134061554Y-70141708D01*
X134026995Y-70160180D01*
X133989499Y-70171555D01*
X133944362Y-70176000D01*
X133205638Y-70176000D01*
X133160501Y-70171555D01*
X133123005Y-70160180D01*
X133088446Y-70141708D01*
X133058153Y-70116847D01*
X133033292Y-70086554D01*
X133014820Y-70051995D01*
X133003445Y-70014499D01*
X132999000Y-69969362D01*
X132999000Y-69330638D01*
X133003445Y-69285501D01*
X133014820Y-69248005D01*
X133033292Y-69213446D01*
X133058153Y-69183153D01*
X133088446Y-69158292D01*
X133123005Y-69139820D01*
X133160501Y-69128445D01*
X133205638Y-69124000D01*
X133944362Y-69124000D01*
X133989499Y-69128445D01*
G37*
G36*
X135739499Y-67628445D02*
G01*
X135776995Y-67639820D01*
X135811554Y-67658292D01*
X135841847Y-67683153D01*
X135866708Y-67713446D01*
X135885180Y-67748005D01*
X135896555Y-67785501D01*
X135901000Y-67830638D01*
X135901000Y-68469362D01*
X135896555Y-68514499D01*
X135885180Y-68551995D01*
X135866708Y-68586554D01*
X135841847Y-68616847D01*
X135811554Y-68641708D01*
X135776995Y-68660180D01*
X135739499Y-68671555D01*
X135694362Y-68676000D01*
X134955638Y-68676000D01*
X134910501Y-68671555D01*
X134873005Y-68660180D01*
X134838446Y-68641708D01*
X134808153Y-68616847D01*
X134783292Y-68586554D01*
X134764820Y-68551995D01*
X134753445Y-68514499D01*
X134749000Y-68469362D01*
X134749000Y-67830638D01*
X134753445Y-67785501D01*
X134764820Y-67748005D01*
X134783292Y-67713446D01*
X134808153Y-67683153D01*
X134838446Y-67658292D01*
X134873005Y-67639820D01*
X134910501Y-67628445D01*
X134955638Y-67624000D01*
X135694362Y-67624000D01*
X135739499Y-67628445D01*
G37*
G36*
X133989499Y-67628445D02*
G01*
X134026995Y-67639820D01*
X134061554Y-67658292D01*
X134091847Y-67683153D01*
X134116708Y-67713446D01*
X134135180Y-67748005D01*
X134146555Y-67785501D01*
X134151000Y-67830638D01*
X134151000Y-68469362D01*
X134146555Y-68514499D01*
X134135180Y-68551995D01*
X134116708Y-68586554D01*
X134091847Y-68616847D01*
X134061554Y-68641708D01*
X134026995Y-68660180D01*
X133989499Y-68671555D01*
X133944362Y-68676000D01*
X133205638Y-68676000D01*
X133160501Y-68671555D01*
X133123005Y-68660180D01*
X133088446Y-68641708D01*
X133058153Y-68616847D01*
X133033292Y-68586554D01*
X133014820Y-68551995D01*
X133003445Y-68514499D01*
X132999000Y-68469362D01*
X132999000Y-67830638D01*
X133003445Y-67785501D01*
X133014820Y-67748005D01*
X133033292Y-67713446D01*
X133058153Y-67683153D01*
X133088446Y-67658292D01*
X133123005Y-67639820D01*
X133160501Y-67628445D01*
X133205638Y-67624000D01*
X133944362Y-67624000D01*
X133989499Y-67628445D01*
G37*
G36*
X123013512Y-66773927D02*
G01*
X123162812Y-66803624D01*
X123326784Y-66871544D01*
X123474354Y-66970147D01*
X123599853Y-67095646D01*
X123698456Y-67243216D01*
X123766376Y-67407188D01*
X123801000Y-67581259D01*
X123801000Y-67758741D01*
X123766376Y-67932812D01*
X123698456Y-68096784D01*
X123599853Y-68244354D01*
X123474354Y-68369853D01*
X123326784Y-68468456D01*
X123162812Y-68536376D01*
X123013512Y-68566073D01*
X122988742Y-68571000D01*
X122811258Y-68571000D01*
X122786488Y-68566073D01*
X122637188Y-68536376D01*
X122473216Y-68468456D01*
X122325646Y-68369853D01*
X122200147Y-68244354D01*
X122101544Y-68096784D01*
X122033624Y-67932812D01*
X121999000Y-67758741D01*
X121999000Y-67581259D01*
X122033624Y-67407188D01*
X122101544Y-67243216D01*
X122200147Y-67095646D01*
X122325646Y-66970147D01*
X122473216Y-66871544D01*
X122637188Y-66803624D01*
X122786488Y-66773927D01*
X122811258Y-66769000D01*
X122988742Y-66769000D01*
X123013512Y-66773927D01*
G37*
G36*
X123013512Y-64233927D02*
G01*
X123162812Y-64263624D01*
X123326784Y-64331544D01*
X123474354Y-64430147D01*
X123599853Y-64555646D01*
X123698456Y-64703216D01*
X123766376Y-64867188D01*
X123801000Y-65041259D01*
X123801000Y-65218741D01*
X123766376Y-65392812D01*
X123698456Y-65556784D01*
X123599853Y-65704354D01*
X123474354Y-65829853D01*
X123326784Y-65928456D01*
X123162812Y-65996376D01*
X123013512Y-66026073D01*
X122988742Y-66031000D01*
X122811258Y-66031000D01*
X122786488Y-66026073D01*
X122637188Y-65996376D01*
X122473216Y-65928456D01*
X122325646Y-65829853D01*
X122200147Y-65704354D01*
X122101544Y-65556784D01*
X122033624Y-65392812D01*
X121999000Y-65218741D01*
X121999000Y-65041259D01*
X122033624Y-64867188D01*
X122101544Y-64703216D01*
X122200147Y-64555646D01*
X122325646Y-64430147D01*
X122473216Y-64331544D01*
X122637188Y-64263624D01*
X122786488Y-64233927D01*
X122811258Y-64229000D01*
X122988742Y-64229000D01*
X123013512Y-64233927D01*
G37*
G36*
X132763674Y-63203465D02*
G01*
X132801367Y-63214899D01*
X132836103Y-63233466D01*
X132866548Y-63258452D01*
X132891534Y-63288897D01*
X132910101Y-63323633D01*
X132921535Y-63361326D01*
X132926000Y-63406661D01*
X132926000Y-64493339D01*
X132921535Y-64538674D01*
X132910101Y-64576367D01*
X132891534Y-64611103D01*
X132866548Y-64641548D01*
X132836103Y-64666534D01*
X132801367Y-64685101D01*
X132763674Y-64696535D01*
X132718339Y-64701000D01*
X131881661Y-64701000D01*
X131836326Y-64696535D01*
X131798633Y-64685101D01*
X131763897Y-64666534D01*
X131733452Y-64641548D01*
X131708466Y-64611103D01*
X131689899Y-64576367D01*
X131678465Y-64538674D01*
X131674000Y-64493339D01*
X131674000Y-63406661D01*
X131678465Y-63361326D01*
X131689899Y-63323633D01*
X131708466Y-63288897D01*
X131733452Y-63258452D01*
X131763897Y-63233466D01*
X131798633Y-63214899D01*
X131836326Y-63203465D01*
X131881661Y-63199000D01*
X132718339Y-63199000D01*
X132763674Y-63203465D01*
G37*
G36*
X130713674Y-63203465D02*
G01*
X130751367Y-63214899D01*
X130786103Y-63233466D01*
X130816548Y-63258452D01*
X130841534Y-63288897D01*
X130860101Y-63323633D01*
X130871535Y-63361326D01*
X130876000Y-63406661D01*
X130876000Y-64493339D01*
X130871535Y-64538674D01*
X130860101Y-64576367D01*
X130841534Y-64611103D01*
X130816548Y-64641548D01*
X130786103Y-64666534D01*
X130751367Y-64685101D01*
X130713674Y-64696535D01*
X130668339Y-64701000D01*
X129831661Y-64701000D01*
X129786326Y-64696535D01*
X129748633Y-64685101D01*
X129713897Y-64666534D01*
X129683452Y-64641548D01*
X129658466Y-64611103D01*
X129639899Y-64576367D01*
X129628465Y-64538674D01*
X129624000Y-64493339D01*
X129624000Y-63406661D01*
X129628465Y-63361326D01*
X129639899Y-63323633D01*
X129658466Y-63288897D01*
X129683452Y-63258452D01*
X129713897Y-63233466D01*
X129748633Y-63214899D01*
X129786326Y-63203465D01*
X129831661Y-63199000D01*
X130668339Y-63199000D01*
X130713674Y-63203465D01*
G37*
G36*
X139070781Y-60453295D02*
G01*
X139106816Y-60464227D01*
X139140024Y-60481977D01*
X139169134Y-60505866D01*
X139193023Y-60534976D01*
X139210773Y-60568184D01*
X139221705Y-60604219D01*
X139226000Y-60647831D01*
X139226000Y-63752169D01*
X139221705Y-63795781D01*
X139210773Y-63831816D01*
X139193023Y-63865024D01*
X139169134Y-63894134D01*
X139140024Y-63918023D01*
X139106816Y-63935773D01*
X139070781Y-63946705D01*
X139027169Y-63951000D01*
X138022831Y-63951000D01*
X137979219Y-63946705D01*
X137943184Y-63935773D01*
X137909976Y-63918023D01*
X137880866Y-63894134D01*
X137856977Y-63865024D01*
X137839227Y-63831816D01*
X137828295Y-63795781D01*
X137824000Y-63752169D01*
X137824000Y-60647831D01*
X137828295Y-60604219D01*
X137839227Y-60568184D01*
X137856977Y-60534976D01*
X137880866Y-60505866D01*
X137909976Y-60481977D01*
X137943184Y-60464227D01*
X137979219Y-60453295D01*
X138022831Y-60449000D01*
X139027169Y-60449000D01*
X139070781Y-60453295D01*
G37*
G36*
X134620781Y-60453295D02*
G01*
X134656816Y-60464227D01*
X134690024Y-60481977D01*
X134719134Y-60505866D01*
X134743023Y-60534976D01*
X134760773Y-60568184D01*
X134771705Y-60604219D01*
X134776000Y-60647831D01*
X134776000Y-63752169D01*
X134771705Y-63795781D01*
X134760773Y-63831816D01*
X134743023Y-63865024D01*
X134719134Y-63894134D01*
X134690024Y-63918023D01*
X134656816Y-63935773D01*
X134620781Y-63946705D01*
X134577169Y-63951000D01*
X133572831Y-63951000D01*
X133529219Y-63946705D01*
X133493184Y-63935773D01*
X133459976Y-63918023D01*
X133430866Y-63894134D01*
X133406977Y-63865024D01*
X133389227Y-63831816D01*
X133378295Y-63795781D01*
X133374000Y-63752169D01*
X133374000Y-60647831D01*
X133378295Y-60604219D01*
X133389227Y-60568184D01*
X133406977Y-60534976D01*
X133430866Y-60505866D01*
X133459976Y-60481977D01*
X133493184Y-60464227D01*
X133529219Y-60453295D01*
X133572831Y-60449000D01*
X134577169Y-60449000D01*
X134620781Y-60453295D01*
G37*
G36*
X132664499Y-61603445D02*
G01*
X132701995Y-61614820D01*
X132736554Y-61633292D01*
X132766847Y-61658153D01*
X132791708Y-61688446D01*
X132810180Y-61723005D01*
X132821555Y-61760501D01*
X132826000Y-61805638D01*
X132826000Y-62544362D01*
X132821555Y-62589499D01*
X132810180Y-62626995D01*
X132791708Y-62661554D01*
X132766847Y-62691847D01*
X132736554Y-62716708D01*
X132701995Y-62735180D01*
X132664499Y-62746555D01*
X132619362Y-62751000D01*
X131980638Y-62751000D01*
X131935501Y-62746555D01*
X131898005Y-62735180D01*
X131863446Y-62716708D01*
X131833153Y-62691847D01*
X131808292Y-62661554D01*
X131789820Y-62626995D01*
X131778445Y-62589499D01*
X131774000Y-62544362D01*
X131774000Y-61805638D01*
X131778445Y-61760501D01*
X131789820Y-61723005D01*
X131808292Y-61688446D01*
X131833153Y-61658153D01*
X131863446Y-61633292D01*
X131898005Y-61614820D01*
X131935501Y-61603445D01*
X131980638Y-61599000D01*
X132619362Y-61599000D01*
X132664499Y-61603445D01*
G37*
G36*
X130364499Y-60503445D02*
G01*
X130401995Y-60514820D01*
X130436554Y-60533292D01*
X130466847Y-60558153D01*
X130491708Y-60588446D01*
X130510180Y-60623005D01*
X130521555Y-60660501D01*
X130526000Y-60705638D01*
X130526000Y-61444362D01*
X130521555Y-61489499D01*
X130510180Y-61526995D01*
X130491708Y-61561554D01*
X130466847Y-61591847D01*
X130436554Y-61616708D01*
X130401995Y-61635180D01*
X130364499Y-61646555D01*
X130319362Y-61651000D01*
X129680638Y-61651000D01*
X129635501Y-61646555D01*
X129598005Y-61635180D01*
X129563446Y-61616708D01*
X129533153Y-61591847D01*
X129508292Y-61561554D01*
X129489820Y-61526995D01*
X129478445Y-61489499D01*
X129474000Y-61444362D01*
X129474000Y-60705638D01*
X129478445Y-60660501D01*
X129489820Y-60623005D01*
X129508292Y-60588446D01*
X129533153Y-60558153D01*
X129563446Y-60533292D01*
X129598005Y-60514820D01*
X129635501Y-60503445D01*
X129680638Y-60499000D01*
X130319362Y-60499000D01*
X130364499Y-60503445D01*
G37*
G36*
X132664499Y-59853445D02*
G01*
X132701995Y-59864820D01*
X132736554Y-59883292D01*
X132766847Y-59908153D01*
X132791708Y-59938446D01*
X132810180Y-59973005D01*
X132821555Y-60010501D01*
X132826000Y-60055638D01*
X132826000Y-60794362D01*
X132821555Y-60839499D01*
X132810180Y-60876995D01*
X132791708Y-60911554D01*
X132766847Y-60941847D01*
X132736554Y-60966708D01*
X132701995Y-60985180D01*
X132664499Y-60996555D01*
X132619362Y-61001000D01*
X131980638Y-61001000D01*
X131935501Y-60996555D01*
X131898005Y-60985180D01*
X131863446Y-60966708D01*
X131833153Y-60941847D01*
X131808292Y-60911554D01*
X131789820Y-60876995D01*
X131778445Y-60839499D01*
X131774000Y-60794362D01*
X131774000Y-60055638D01*
X131778445Y-60010501D01*
X131789820Y-59973005D01*
X131808292Y-59938446D01*
X131833153Y-59908153D01*
X131863446Y-59883292D01*
X131898005Y-59864820D01*
X131935501Y-59853445D01*
X131980638Y-59849000D01*
X132619362Y-59849000D01*
X132664499Y-59853445D01*
G37*
G36*
X130364499Y-58753445D02*
G01*
X130401995Y-58764820D01*
X130436554Y-58783292D01*
X130466847Y-58808153D01*
X130491708Y-58838446D01*
X130510180Y-58873005D01*
X130521555Y-58910501D01*
X130526000Y-58955638D01*
X130526000Y-59694362D01*
X130521555Y-59739499D01*
X130510180Y-59776995D01*
X130491708Y-59811554D01*
X130466847Y-59841847D01*
X130436554Y-59866708D01*
X130401995Y-59885180D01*
X130364499Y-59896555D01*
X130319362Y-59901000D01*
X129680638Y-59901000D01*
X129635501Y-59896555D01*
X129598005Y-59885180D01*
X129563446Y-59866708D01*
X129533153Y-59841847D01*
X129508292Y-59811554D01*
X129489820Y-59776995D01*
X129478445Y-59739499D01*
X129474000Y-59694362D01*
X129474000Y-58955638D01*
X129478445Y-58910501D01*
X129489820Y-58873005D01*
X129508292Y-58838446D01*
X129533153Y-58808153D01*
X129563446Y-58783292D01*
X129598005Y-58764820D01*
X129635501Y-58753445D01*
X129680638Y-58749000D01*
X130319362Y-58749000D01*
X130364499Y-58753445D01*
G37*
M02*
