%TF.GenerationSoftware,KiCad,Pcbnew,6.0.1-79c1e3a40b~116~ubuntu20.04.1*%
%TF.CreationDate,2022-02-15T14:13:16+00:00*%
%TF.ProjectId,LED,4c45442e-6b69-4636-9164-5f7063625858,rev?*%
%TF.SameCoordinates,Original*%
%TF.FileFunction,Copper,L1,Top*%
%TF.FilePolarity,Positive*%
%FSLAX46Y46*%
G04 Gerber Fmt 4.6, Leading zero omitted, Abs format (unit mm)*
G04 Created by KiCad (PCBNEW 6.0.1-79c1e3a40b~116~ubuntu20.04.1) date 2022-02-15 14:13:16*
%MOMM*%
%LPD*%
G01*
G04 APERTURE LIST*
G04 Aperture macros list*
%AMRoundRect*
0 Rectangle with rounded corners*
0 $1 Rounding radius*
0 $2 $3 $4 $5 $6 $7 $8 $9 X,Y pos of 4 corners*
0 Add a 4 corners polygon primitive as box body*
4,1,4,$2,$3,$4,$5,$6,$7,$8,$9,$2,$3,0*
0 Add four circle primitives for the rounded corners*
1,1,$1+$1,$2,$3*
1,1,$1+$1,$4,$5*
1,1,$1+$1,$6,$7*
1,1,$1+$1,$8,$9*
0 Add four rect primitives between the rounded corners*
20,1,$1+$1,$2,$3,$4,$5,0*
20,1,$1+$1,$4,$5,$6,$7,0*
20,1,$1+$1,$6,$7,$8,$9,0*
20,1,$1+$1,$8,$9,$2,$3,0*%
G04 Aperture macros list end*
%TA.AperFunction,SMDPad,CuDef*%
%ADD10RoundRect,0.237500X-0.300000X-0.237500X0.300000X-0.237500X0.300000X0.237500X-0.300000X0.237500X0*%
%TD*%
%TA.AperFunction,SMDPad,CuDef*%
%ADD11RoundRect,0.600000X-0.600000X-1.300000X0.600000X-1.300000X0.600000X1.300000X-0.600000X1.300000X0*%
%TD*%
%TA.AperFunction,SMDPad,CuDef*%
%ADD12RoundRect,0.237500X0.300000X0.237500X-0.300000X0.237500X-0.300000X-0.237500X0.300000X-0.237500X0*%
%TD*%
%TA.AperFunction,SMDPad,CuDef*%
%ADD13RoundRect,0.262500X0.487500X-0.262500X0.487500X0.262500X-0.487500X0.262500X-0.487500X-0.262500X0*%
%TD*%
%TA.AperFunction,ComponentPad*%
%ADD14R,1.700000X1.700000*%
%TD*%
%TA.AperFunction,ComponentPad*%
%ADD15O,1.700000X1.700000*%
%TD*%
%TA.AperFunction,SMDPad,CuDef*%
%ADD16RoundRect,0.150000X-0.650000X0.150000X-0.650000X-0.150000X0.650000X-0.150000X0.650000X0.150000X0*%
%TD*%
%TA.AperFunction,Conductor*%
%ADD17C,1.000000*%
%TD*%
%TA.AperFunction,Conductor*%
%ADD18C,0.300000*%
%TD*%
G04 APERTURE END LIST*
D10*
%TO.P,C2,1*%
%TO.N,+12V*%
X136959000Y-80772000D03*
%TO.P,C2,2*%
%TO.N,Earth*%
X138684000Y-80772000D03*
%TD*%
D11*
%TO.P,D1,1,K*%
%TO.N,Net-(U1-Pad1)*%
X149500000Y-74500000D03*
%TO.P,D1,2,A*%
%TO.N,+12V*%
X137500000Y-74500000D03*
%TD*%
D12*
%TO.P,C1,1*%
%TO.N,Earth*%
X138684000Y-82245200D03*
%TO.P,C1,2*%
%TO.N,+12V*%
X136959000Y-82245200D03*
%TD*%
D13*
%TO.P,U2,1,IN*%
%TO.N,Net-(U1-Pad1)*%
X149500000Y-79559600D03*
%TO.P,U2,2,OUT*%
%TO.N,Net-(U1-Pad2)*%
X149500000Y-82609600D03*
%TD*%
D14*
%TO.P,J1,1,Pin_1*%
%TO.N,+12V*%
X140475000Y-86500000D03*
D15*
%TO.P,J1,2,Pin_2*%
%TO.N,Earth*%
X143015000Y-86500000D03*
%TO.P,J1,3,Pin_3*%
%TO.N,/PWM*%
X145555000Y-86500000D03*
%TD*%
D13*
%TO.P,U3,1,IN*%
%TO.N,Net-(U1-Pad1)*%
X147500000Y-79559600D03*
%TO.P,U3,2,OUT*%
%TO.N,Net-(U1-Pad2)*%
X147500000Y-82609600D03*
%TD*%
D16*
%TO.P,Q1,1,G*%
%TO.N,/PWM*%
X143100000Y-81550000D03*
%TO.P,Q1,2,S*%
%TO.N,Earth*%
X143100000Y-83450000D03*
%TO.P,Q1,3,D*%
%TO.N,Net-(U1-Pad2)*%
X145500000Y-82500000D03*
%TD*%
D13*
%TO.P,U1,1,IN*%
%TO.N,Net-(U1-Pad1)*%
X151500000Y-79500000D03*
%TO.P,U1,2,OUT*%
%TO.N,Net-(U1-Pad2)*%
X151500000Y-82550000D03*
%TD*%
D17*
%TO.N,Earth*%
X143100000Y-86415000D02*
X143015000Y-86500000D01*
%TO.N,+12V*%
X136959000Y-85459000D02*
X136959000Y-82245200D01*
X138000000Y-86500000D02*
X136959000Y-85459000D01*
X136959000Y-82245200D02*
X136959000Y-80772000D01*
X136959000Y-80772000D02*
X136959000Y-75541000D01*
X136959000Y-75541000D02*
X137500000Y-75000000D01*
X140475000Y-86500000D02*
X138000000Y-86500000D01*
%TO.N,Net-(U1-Pad1)*%
X151500000Y-79500000D02*
X147559600Y-79500000D01*
X147559600Y-79500000D02*
X147500000Y-79559600D01*
X149500000Y-75000000D02*
X149500000Y-79559600D01*
D18*
%TO.N,/PWM*%
X143100000Y-81700000D02*
X143100000Y-81550000D01*
X144600000Y-85545000D02*
X144600000Y-83200000D01*
X145555000Y-86500000D02*
X144600000Y-85545000D01*
X144997573Y-86500000D02*
X145555000Y-86500000D01*
X144600000Y-83200000D02*
X143100000Y-81700000D01*
D17*
%TO.N,Net-(U1-Pad2)*%
X145500000Y-82500000D02*
X151450000Y-82500000D01*
X151450000Y-82500000D02*
X151500000Y-82550000D01*
%TD*%
%TA.AperFunction,Conductor*%
%TO.N,Earth*%
G36*
X151934121Y-70528002D02*
G01*
X151980614Y-70581658D01*
X151992000Y-70634000D01*
X151992000Y-78340500D01*
X151971998Y-78408621D01*
X151918342Y-78455114D01*
X151866000Y-78466500D01*
X150927884Y-78466500D01*
X150923323Y-78466763D01*
X150918127Y-78467963D01*
X150918124Y-78467963D01*
X150865493Y-78480114D01*
X150834744Y-78487213D01*
X150830161Y-78488271D01*
X150801817Y-78491500D01*
X150634500Y-78491500D01*
X150566379Y-78471498D01*
X150519886Y-78417842D01*
X150508500Y-78365500D01*
X150508500Y-76913983D01*
X150528502Y-76845862D01*
X150584762Y-76798215D01*
X150629242Y-76779105D01*
X150634749Y-76776739D01*
X150639710Y-76773374D01*
X150804839Y-76661363D01*
X150804840Y-76661362D01*
X150809798Y-76657999D01*
X150959236Y-76508300D01*
X151049382Y-76374905D01*
X151074311Y-76338016D01*
X151074314Y-76338011D01*
X151077671Y-76333043D01*
X151160829Y-76138554D01*
X151205709Y-75931848D01*
X151206157Y-75924301D01*
X151208390Y-75886727D01*
X151208390Y-75886714D01*
X151208500Y-75884869D01*
X151208499Y-73115132D01*
X151205477Y-73066223D01*
X151160236Y-72859595D01*
X151076739Y-72665251D01*
X151073374Y-72660290D01*
X150961363Y-72495161D01*
X150961362Y-72495160D01*
X150957999Y-72490202D01*
X150808300Y-72340764D01*
X150803333Y-72337407D01*
X150803330Y-72337405D01*
X150638016Y-72225689D01*
X150638011Y-72225686D01*
X150633043Y-72222329D01*
X150438554Y-72139171D01*
X150231848Y-72094291D01*
X150224301Y-72093843D01*
X150186727Y-72091610D01*
X150186714Y-72091610D01*
X150184869Y-72091500D01*
X149516380Y-72091500D01*
X148815132Y-72091501D01*
X148813195Y-72091621D01*
X148813185Y-72091621D01*
X148782818Y-72093498D01*
X148766223Y-72094523D01*
X148761490Y-72095559D01*
X148761485Y-72095560D01*
X148568113Y-72137899D01*
X148559595Y-72139764D01*
X148365251Y-72223261D01*
X148360291Y-72226625D01*
X148360290Y-72226626D01*
X148196978Y-72337405D01*
X148190202Y-72342001D01*
X148040764Y-72491700D01*
X148037407Y-72496667D01*
X148037405Y-72496670D01*
X147925689Y-72661984D01*
X147925686Y-72661989D01*
X147922329Y-72666957D01*
X147839171Y-72861446D01*
X147794291Y-73068152D01*
X147794002Y-73073017D01*
X147791616Y-73113185D01*
X147791500Y-73115131D01*
X147791501Y-75884868D01*
X147794523Y-75933777D01*
X147839764Y-76140405D01*
X147923261Y-76334749D01*
X147926625Y-76339709D01*
X147926626Y-76339710D01*
X148037614Y-76503330D01*
X148042001Y-76509798D01*
X148191700Y-76659236D01*
X148196667Y-76662593D01*
X148196670Y-76662595D01*
X148361984Y-76774311D01*
X148361989Y-76774314D01*
X148366957Y-76777671D01*
X148415006Y-76798215D01*
X148415036Y-76798228D01*
X148469808Y-76843400D01*
X148491500Y-76914082D01*
X148491500Y-78365500D01*
X148471498Y-78433621D01*
X148417842Y-78480114D01*
X148365500Y-78491500D01*
X147621442Y-78491500D01*
X147607835Y-78490763D01*
X147576337Y-78487341D01*
X147576332Y-78487341D01*
X147570211Y-78486676D01*
X147552211Y-78488251D01*
X147520209Y-78491050D01*
X147515384Y-78491379D01*
X147512913Y-78491500D01*
X147509831Y-78491500D01*
X147487363Y-78493703D01*
X147467089Y-78495691D01*
X147465774Y-78495813D01*
X147433513Y-78498636D01*
X147373187Y-78503913D01*
X147368068Y-78505400D01*
X147362767Y-78505920D01*
X147356862Y-78507703D01*
X147356861Y-78507703D01*
X147313741Y-78520722D01*
X147277323Y-78526100D01*
X146927884Y-78526100D01*
X146923323Y-78526363D01*
X146918129Y-78527562D01*
X146918123Y-78527563D01*
X146761648Y-78563688D01*
X146754783Y-78565273D01*
X146748440Y-78568339D01*
X146748438Y-78568340D01*
X146605396Y-78637489D01*
X146599052Y-78640556D01*
X146463871Y-78748471D01*
X146355956Y-78883652D01*
X146280673Y-79039383D01*
X146241763Y-79207923D01*
X146241500Y-79212484D01*
X146241500Y-79906716D01*
X146241763Y-79911277D01*
X146242962Y-79916471D01*
X146242963Y-79916477D01*
X146276816Y-80063110D01*
X146280673Y-80079817D01*
X146355956Y-80235548D01*
X146463871Y-80370729D01*
X146599052Y-80478644D01*
X146605395Y-80481710D01*
X146605396Y-80481711D01*
X146748438Y-80550860D01*
X146748440Y-80550861D01*
X146754783Y-80553927D01*
X146761647Y-80555512D01*
X146761648Y-80555512D01*
X146918123Y-80591637D01*
X146918129Y-80591638D01*
X146923323Y-80592837D01*
X146927884Y-80593100D01*
X148072116Y-80593100D01*
X148076677Y-80592837D01*
X148081871Y-80591638D01*
X148081877Y-80591637D01*
X148238352Y-80555512D01*
X148238353Y-80555512D01*
X148245217Y-80553927D01*
X148251560Y-80550861D01*
X148251562Y-80550860D01*
X148313206Y-80521060D01*
X148368045Y-80508500D01*
X148631955Y-80508500D01*
X148686794Y-80521060D01*
X148748438Y-80550860D01*
X148748440Y-80550861D01*
X148754783Y-80553927D01*
X148761647Y-80555512D01*
X148761648Y-80555512D01*
X148918123Y-80591637D01*
X148918129Y-80591638D01*
X148923323Y-80592837D01*
X148927884Y-80593100D01*
X150072116Y-80593100D01*
X150076677Y-80592837D01*
X150081871Y-80591638D01*
X150081877Y-80591637D01*
X150238352Y-80555512D01*
X150238353Y-80555512D01*
X150245217Y-80553927D01*
X150251560Y-80550861D01*
X150251562Y-80550860D01*
X150313206Y-80521060D01*
X150368045Y-80508500D01*
X150801817Y-80508500D01*
X150830160Y-80511729D01*
X150837940Y-80513525D01*
X150918124Y-80532037D01*
X150918127Y-80532037D01*
X150923323Y-80533237D01*
X150927884Y-80533500D01*
X151866000Y-80533500D01*
X151934121Y-80553502D01*
X151980614Y-80607158D01*
X151992000Y-80659500D01*
X151992000Y-81390500D01*
X151971998Y-81458621D01*
X151918342Y-81505114D01*
X151866000Y-81516500D01*
X151704583Y-81516500D01*
X151672665Y-81511559D01*
X151672591Y-81511909D01*
X151666570Y-81510629D01*
X151660694Y-81508765D01*
X151655398Y-81508171D01*
X151650302Y-81506613D01*
X151557743Y-81497210D01*
X151556607Y-81497089D01*
X151522992Y-81493319D01*
X151510270Y-81491892D01*
X151510266Y-81491892D01*
X151506773Y-81491500D01*
X151503246Y-81491500D01*
X151502261Y-81491445D01*
X151496581Y-81490998D01*
X151467175Y-81488011D01*
X151459663Y-81487248D01*
X151459661Y-81487248D01*
X151453538Y-81486626D01*
X151411259Y-81490623D01*
X151407891Y-81490941D01*
X151396033Y-81491500D01*
X145450231Y-81491500D01*
X145447175Y-81491800D01*
X145447168Y-81491800D01*
X145391915Y-81497218D01*
X145303167Y-81505920D01*
X145297266Y-81507702D01*
X145297264Y-81507702D01*
X145268124Y-81516500D01*
X145113831Y-81563084D01*
X144939204Y-81655934D01*
X144934430Y-81659828D01*
X144934428Y-81659829D01*
X144930365Y-81663143D01*
X144864934Y-81690697D01*
X144850729Y-81691500D01*
X144783498Y-81691500D01*
X144781050Y-81691693D01*
X144781042Y-81691693D01*
X144752579Y-81693933D01*
X144752574Y-81693934D01*
X144746169Y-81694438D01*
X144646231Y-81723472D01*
X144594012Y-81738643D01*
X144594010Y-81738644D01*
X144586399Y-81740855D01*
X144582858Y-81742949D01*
X144514081Y-81751439D01*
X144450102Y-81720662D01*
X144412919Y-81660182D01*
X144408500Y-81627105D01*
X144408500Y-81333498D01*
X144405562Y-81296169D01*
X144359145Y-81136399D01*
X144315336Y-81062322D01*
X144278491Y-81000020D01*
X144278489Y-81000017D01*
X144274453Y-80993193D01*
X144156807Y-80875547D01*
X144149983Y-80871511D01*
X144149980Y-80871509D01*
X144020427Y-80794892D01*
X144020428Y-80794892D01*
X144013601Y-80790855D01*
X144005990Y-80788644D01*
X144005988Y-80788643D01*
X143953769Y-80773472D01*
X143853831Y-80744438D01*
X143847426Y-80743934D01*
X143847421Y-80743933D01*
X143818958Y-80741693D01*
X143818950Y-80741693D01*
X143816502Y-80741500D01*
X142383498Y-80741500D01*
X142381050Y-80741693D01*
X142381042Y-80741693D01*
X142352579Y-80743933D01*
X142352574Y-80743934D01*
X142346169Y-80744438D01*
X142246231Y-80773472D01*
X142194012Y-80788643D01*
X142194010Y-80788644D01*
X142186399Y-80790855D01*
X142179572Y-80794892D01*
X142179573Y-80794892D01*
X142050020Y-80871509D01*
X142050017Y-80871511D01*
X142043193Y-80875547D01*
X141925547Y-80993193D01*
X141921511Y-81000017D01*
X141921509Y-81000020D01*
X141884664Y-81062322D01*
X141840855Y-81136399D01*
X141794438Y-81296169D01*
X141791500Y-81333498D01*
X141791500Y-81766502D01*
X141791693Y-81768950D01*
X141791693Y-81768958D01*
X141793616Y-81793383D01*
X141794438Y-81803831D01*
X141811067Y-81861068D01*
X141838336Y-81954929D01*
X141840855Y-81963601D01*
X141854531Y-81986725D01*
X141921509Y-82099980D01*
X141921511Y-82099983D01*
X141925547Y-82106807D01*
X142043193Y-82224453D01*
X142050017Y-82228489D01*
X142050020Y-82228491D01*
X142157589Y-82292107D01*
X142186399Y-82309145D01*
X142194010Y-82311356D01*
X142194012Y-82311357D01*
X142246231Y-82326528D01*
X142346169Y-82355562D01*
X142352574Y-82356066D01*
X142352579Y-82356067D01*
X142381042Y-82358307D01*
X142381050Y-82358307D01*
X142383498Y-82358500D01*
X142775049Y-82358500D01*
X142843170Y-82378502D01*
X142864143Y-82395403D01*
X142895645Y-82426905D01*
X142929670Y-82489215D01*
X142924606Y-82560031D01*
X142882061Y-82616867D01*
X142815541Y-82641679D01*
X142806550Y-82642000D01*
X142386017Y-82642001D01*
X142381080Y-82642195D01*
X142352664Y-82644430D01*
X142340069Y-82646730D01*
X142194210Y-82689107D01*
X142179779Y-82695352D01*
X142050322Y-82771911D01*
X142037896Y-82781551D01*
X141931551Y-82887896D01*
X141921911Y-82900322D01*
X141845352Y-83029779D01*
X141839107Y-83044210D01*
X141800061Y-83178605D01*
X141800101Y-83192706D01*
X141807370Y-83196000D01*
X143228000Y-83196000D01*
X143296121Y-83216002D01*
X143342614Y-83269658D01*
X143354000Y-83322000D01*
X143354000Y-84239884D01*
X143358475Y-84255123D01*
X143359865Y-84256328D01*
X143367548Y-84257999D01*
X143815500Y-84257999D01*
X143883621Y-84278001D01*
X143930114Y-84331657D01*
X143941500Y-84383999D01*
X143941500Y-85246718D01*
X143921498Y-85314839D01*
X143867842Y-85361332D01*
X143797568Y-85371436D01*
X143754606Y-85357027D01*
X143578107Y-85259594D01*
X143568705Y-85255369D01*
X143367959Y-85184280D01*
X143357988Y-85181646D01*
X143286837Y-85168972D01*
X143273540Y-85170432D01*
X143269000Y-85184989D01*
X143269000Y-86628000D01*
X143248998Y-86696121D01*
X143195342Y-86742614D01*
X143143000Y-86754000D01*
X142887000Y-86754000D01*
X142818879Y-86733998D01*
X142772386Y-86680342D01*
X142761000Y-86628000D01*
X142761000Y-85183102D01*
X142757082Y-85169758D01*
X142742806Y-85167771D01*
X142704324Y-85173660D01*
X142694288Y-85176051D01*
X142491868Y-85242212D01*
X142482359Y-85246209D01*
X142293463Y-85344542D01*
X142284738Y-85350036D01*
X142114433Y-85477905D01*
X142106726Y-85484748D01*
X142029478Y-85565584D01*
X141967954Y-85601014D01*
X141897042Y-85597557D01*
X141839255Y-85556311D01*
X141820402Y-85522763D01*
X141778767Y-85411703D01*
X141775615Y-85403295D01*
X141688261Y-85286739D01*
X141571705Y-85199385D01*
X141435316Y-85148255D01*
X141373134Y-85141500D01*
X139576866Y-85141500D01*
X139514684Y-85148255D01*
X139378295Y-85199385D01*
X139261739Y-85286739D01*
X139174385Y-85403295D01*
X139171233Y-85411703D01*
X139166923Y-85419575D01*
X139165259Y-85418664D01*
X139129337Y-85466490D01*
X139062776Y-85491193D01*
X139053991Y-85491500D01*
X138469926Y-85491500D01*
X138401805Y-85471498D01*
X138380831Y-85454596D01*
X138004405Y-85078171D01*
X137970380Y-85015858D01*
X137967500Y-84989075D01*
X137967500Y-83715871D01*
X141798456Y-83715871D01*
X141839107Y-83855790D01*
X141845352Y-83870221D01*
X141921911Y-83999678D01*
X141931551Y-84012104D01*
X142037896Y-84118449D01*
X142050322Y-84128089D01*
X142179779Y-84204648D01*
X142194210Y-84210893D01*
X142340065Y-84253269D01*
X142352667Y-84255570D01*
X142381084Y-84257807D01*
X142386014Y-84258000D01*
X142827885Y-84258000D01*
X142843124Y-84253525D01*
X142844329Y-84252135D01*
X142846000Y-84244452D01*
X142846000Y-83722115D01*
X142841525Y-83706876D01*
X142840135Y-83705671D01*
X142832452Y-83704000D01*
X141813122Y-83704000D01*
X141799591Y-83707973D01*
X141798456Y-83715871D01*
X137967500Y-83715871D01*
X137967500Y-83304560D01*
X137987502Y-83236439D01*
X138041158Y-83189946D01*
X138111432Y-83179842D01*
X138133167Y-83184967D01*
X138225266Y-83215515D01*
X138238632Y-83218381D01*
X138331270Y-83227872D01*
X138337685Y-83228200D01*
X138411885Y-83228200D01*
X138427124Y-83223725D01*
X138428329Y-83222335D01*
X138430000Y-83214652D01*
X138430000Y-83210085D01*
X138938000Y-83210085D01*
X138942475Y-83225324D01*
X138943865Y-83226529D01*
X138951548Y-83228200D01*
X139030266Y-83228200D01*
X139036782Y-83227863D01*
X139130632Y-83218125D01*
X139144028Y-83215232D01*
X139295453Y-83164712D01*
X139308615Y-83158547D01*
X139443992Y-83074774D01*
X139455390Y-83065740D01*
X139567863Y-82953071D01*
X139576875Y-82941660D01*
X139660412Y-82806137D01*
X139666556Y-82792959D01*
X139716815Y-82641434D01*
X139719681Y-82628068D01*
X139729172Y-82535430D01*
X139729500Y-82529015D01*
X139729500Y-82517315D01*
X139725025Y-82502076D01*
X139723635Y-82500871D01*
X139715952Y-82499200D01*
X138956115Y-82499200D01*
X138940876Y-82503675D01*
X138939671Y-82505065D01*
X138938000Y-82512748D01*
X138938000Y-83210085D01*
X138430000Y-83210085D01*
X138430000Y-81973085D01*
X138938000Y-81973085D01*
X138942475Y-81988324D01*
X138943865Y-81989529D01*
X138951548Y-81991200D01*
X139711385Y-81991200D01*
X139726624Y-81986725D01*
X139727829Y-81985335D01*
X139729500Y-81977652D01*
X139729500Y-81961434D01*
X139729163Y-81954918D01*
X139719425Y-81861068D01*
X139716532Y-81847672D01*
X139666012Y-81696247D01*
X139659847Y-81683085D01*
X139592952Y-81574983D01*
X139574115Y-81506531D01*
X139592837Y-81442566D01*
X139660410Y-81332941D01*
X139666556Y-81319759D01*
X139716815Y-81168234D01*
X139719681Y-81154868D01*
X139729172Y-81062230D01*
X139729500Y-81055815D01*
X139729500Y-81044115D01*
X139725025Y-81028876D01*
X139723635Y-81027671D01*
X139715952Y-81026000D01*
X138956115Y-81026000D01*
X138940876Y-81030475D01*
X138939671Y-81031865D01*
X138938000Y-81039548D01*
X138938000Y-81973085D01*
X138430000Y-81973085D01*
X138430000Y-80499885D01*
X138938000Y-80499885D01*
X138942475Y-80515124D01*
X138943865Y-80516329D01*
X138951548Y-80518000D01*
X139711385Y-80518000D01*
X139726624Y-80513525D01*
X139727829Y-80512135D01*
X139729500Y-80504452D01*
X139729500Y-80488234D01*
X139729163Y-80481718D01*
X139719425Y-80387868D01*
X139716532Y-80374472D01*
X139666012Y-80223047D01*
X139659847Y-80209885D01*
X139576074Y-80074508D01*
X139567040Y-80063110D01*
X139454371Y-79950637D01*
X139442960Y-79941625D01*
X139307437Y-79858088D01*
X139294259Y-79851944D01*
X139142734Y-79801685D01*
X139129368Y-79798819D01*
X139036730Y-79789328D01*
X139030315Y-79789000D01*
X138956115Y-79789000D01*
X138940876Y-79793475D01*
X138939671Y-79794865D01*
X138938000Y-79802548D01*
X138938000Y-80499885D01*
X138430000Y-80499885D01*
X138430000Y-79807115D01*
X138425525Y-79791876D01*
X138424135Y-79790671D01*
X138416452Y-79789000D01*
X138337734Y-79789000D01*
X138331218Y-79789337D01*
X138237368Y-79799075D01*
X138223971Y-79801968D01*
X138133376Y-79832193D01*
X138062426Y-79834777D01*
X138001342Y-79798593D01*
X137969518Y-79735129D01*
X137967500Y-79712669D01*
X137967500Y-77034499D01*
X137987502Y-76966378D01*
X138041158Y-76919885D01*
X138093500Y-76908499D01*
X138184868Y-76908499D01*
X138186805Y-76908379D01*
X138186815Y-76908379D01*
X138217182Y-76906502D01*
X138233777Y-76905477D01*
X138238510Y-76904441D01*
X138238515Y-76904440D01*
X138434550Y-76861518D01*
X138434551Y-76861518D01*
X138440405Y-76860236D01*
X138634749Y-76776739D01*
X138639710Y-76773374D01*
X138804839Y-76661363D01*
X138804840Y-76661362D01*
X138809798Y-76657999D01*
X138959236Y-76508300D01*
X139049382Y-76374905D01*
X139074311Y-76338016D01*
X139074314Y-76338011D01*
X139077671Y-76333043D01*
X139160829Y-76138554D01*
X139205709Y-75931848D01*
X139206157Y-75924301D01*
X139208390Y-75886727D01*
X139208390Y-75886714D01*
X139208500Y-75884869D01*
X139208499Y-73115132D01*
X139205477Y-73066223D01*
X139160236Y-72859595D01*
X139076739Y-72665251D01*
X139073374Y-72660290D01*
X138961363Y-72495161D01*
X138961362Y-72495160D01*
X138957999Y-72490202D01*
X138808300Y-72340764D01*
X138803333Y-72337407D01*
X138803330Y-72337405D01*
X138638016Y-72225689D01*
X138638011Y-72225686D01*
X138633043Y-72222329D01*
X138438554Y-72139171D01*
X138231848Y-72094291D01*
X138224301Y-72093843D01*
X138186727Y-72091610D01*
X138186714Y-72091610D01*
X138184869Y-72091500D01*
X137516380Y-72091500D01*
X136815132Y-72091501D01*
X136813195Y-72091621D01*
X136813185Y-72091621D01*
X136782818Y-72093498D01*
X136766223Y-72094523D01*
X136761490Y-72095559D01*
X136761485Y-72095560D01*
X136568113Y-72137899D01*
X136559595Y-72139764D01*
X136365251Y-72223261D01*
X136360291Y-72226625D01*
X136360290Y-72226626D01*
X136196978Y-72337405D01*
X136190202Y-72342001D01*
X136040764Y-72491700D01*
X136037407Y-72496667D01*
X136037405Y-72496670D01*
X135925689Y-72661984D01*
X135925686Y-72661989D01*
X135922329Y-72666957D01*
X135839171Y-72861446D01*
X135794291Y-73068152D01*
X135794002Y-73073017D01*
X135791616Y-73113185D01*
X135791500Y-73115131D01*
X135791501Y-75884868D01*
X135794523Y-75933777D01*
X135839764Y-76140405D01*
X135923261Y-76334749D01*
X135926626Y-76339710D01*
X135926628Y-76339713D01*
X135928772Y-76342874D01*
X135929301Y-76344595D01*
X135929507Y-76344972D01*
X135929429Y-76345014D01*
X135950500Y-76413608D01*
X135950500Y-80280516D01*
X135944093Y-80320183D01*
X135923526Y-80382191D01*
X135913000Y-80484928D01*
X135913000Y-81059072D01*
X135913337Y-81062318D01*
X135913337Y-81062322D01*
X135922940Y-81154868D01*
X135923793Y-81163093D01*
X135925974Y-81169629D01*
X135925974Y-81169631D01*
X135944024Y-81223733D01*
X135950500Y-81263609D01*
X135950500Y-81753716D01*
X135944093Y-81793383D01*
X135923526Y-81855391D01*
X135913000Y-81958128D01*
X135913000Y-82532272D01*
X135913337Y-82535518D01*
X135913337Y-82535522D01*
X135922940Y-82628068D01*
X135923793Y-82636293D01*
X135925974Y-82642829D01*
X135925974Y-82642831D01*
X135944024Y-82696933D01*
X135950500Y-82736809D01*
X135950500Y-85397157D01*
X135949763Y-85410764D01*
X135945676Y-85448388D01*
X135946213Y-85454523D01*
X135950050Y-85498388D01*
X135950379Y-85503214D01*
X135950500Y-85505686D01*
X135950500Y-85508769D01*
X135950801Y-85511837D01*
X135954690Y-85551506D01*
X135954812Y-85552819D01*
X135962913Y-85645413D01*
X135964400Y-85650532D01*
X135964920Y-85655833D01*
X135991791Y-85744834D01*
X135992126Y-85745967D01*
X135995780Y-85758542D01*
X136018091Y-85835336D01*
X136020544Y-85840068D01*
X136022084Y-85845169D01*
X136024978Y-85850612D01*
X136065731Y-85927260D01*
X136066343Y-85928426D01*
X136109108Y-86010926D01*
X136112431Y-86015089D01*
X136114934Y-86019796D01*
X136173755Y-86091918D01*
X136174446Y-86092774D01*
X136205738Y-86131973D01*
X136208242Y-86134477D01*
X136208884Y-86135195D01*
X136212585Y-86139528D01*
X136239935Y-86173062D01*
X136275267Y-86202291D01*
X136284037Y-86210272D01*
X137243149Y-87169383D01*
X137252251Y-87179527D01*
X137275968Y-87209025D01*
X137314456Y-87241320D01*
X137318075Y-87244478D01*
X137319890Y-87246124D01*
X137322075Y-87248309D01*
X137324454Y-87250263D01*
X137324455Y-87250264D01*
X137346821Y-87268636D01*
X137386764Y-87327331D01*
X137388633Y-87398303D01*
X137351835Y-87459019D01*
X137288053Y-87490202D01*
X137266844Y-87492000D01*
X134134000Y-87492000D01*
X134065879Y-87471998D01*
X134019386Y-87418342D01*
X134008000Y-87366000D01*
X134008000Y-70634000D01*
X134028002Y-70565879D01*
X134081658Y-70519386D01*
X134134000Y-70508000D01*
X151866000Y-70508000D01*
X151934121Y-70528002D01*
G37*
%TD.AperFunction*%
%TD*%
M02*
