%TF.GenerationSoftware,KiCad,Pcbnew,6.0.1-79c1e3a40b~116~ubuntu20.04.1*%
%TF.CreationDate,2022-02-15T14:13:17+00:00*%
%TF.ProjectId,LED,4c45442e-6b69-4636-9164-5f7063625858,rev?*%
%TF.SameCoordinates,Original*%
%TF.FileFunction,Paste,Top*%
%TF.FilePolarity,Positive*%
%FSLAX46Y46*%
G04 Gerber Fmt 4.6, Leading zero omitted, Abs format (unit mm)*
G04 Created by KiCad (PCBNEW 6.0.1-79c1e3a40b~116~ubuntu20.04.1) date 2022-02-15 14:13:17*
%MOMM*%
%LPD*%
G01*
G04 APERTURE LIST*
G04 Aperture macros list*
%AMRoundRect*
0 Rectangle with rounded corners*
0 $1 Rounding radius*
0 $2 $3 $4 $5 $6 $7 $8 $9 X,Y pos of 4 corners*
0 Add a 4 corners polygon primitive as box body*
4,1,4,$2,$3,$4,$5,$6,$7,$8,$9,$2,$3,0*
0 Add four circle primitives for the rounded corners*
1,1,$1+$1,$2,$3*
1,1,$1+$1,$4,$5*
1,1,$1+$1,$6,$7*
1,1,$1+$1,$8,$9*
0 Add four rect primitives between the rounded corners*
20,1,$1+$1,$2,$3,$4,$5,0*
20,1,$1+$1,$4,$5,$6,$7,0*
20,1,$1+$1,$6,$7,$8,$9,0*
20,1,$1+$1,$8,$9,$2,$3,0*%
G04 Aperture macros list end*
%ADD10C,0.150000*%
%ADD11RoundRect,0.237500X-0.300000X-0.237500X0.300000X-0.237500X0.300000X0.237500X-0.300000X0.237500X0*%
%ADD12RoundRect,0.600000X-0.600000X-1.300000X0.600000X-1.300000X0.600000X1.300000X-0.600000X1.300000X0*%
%ADD13RoundRect,0.237500X0.300000X0.237500X-0.300000X0.237500X-0.300000X-0.237500X0.300000X-0.237500X0*%
%ADD14RoundRect,0.262500X0.487500X-0.262500X0.487500X0.262500X-0.487500X0.262500X-0.487500X-0.262500X0*%
%ADD15RoundRect,0.150000X-0.650000X0.150000X-0.650000X-0.150000X0.650000X-0.150000X0.650000X0.150000X0*%
G04 APERTURE END LIST*
D10*
X129302380Y-83547619D02*
X129302380Y-84119047D01*
X129302380Y-83833333D02*
X128302380Y-83833333D01*
X128445238Y-83928571D01*
X128540476Y-84023809D01*
X128588095Y-84119047D01*
X128730952Y-82976190D02*
X128683333Y-83071428D01*
X128635714Y-83119047D01*
X128540476Y-83166666D01*
X128492857Y-83166666D01*
X128397619Y-83119047D01*
X128350000Y-83071428D01*
X128302380Y-82976190D01*
X128302380Y-82785714D01*
X128350000Y-82690476D01*
X128397619Y-82642857D01*
X128492857Y-82595238D01*
X128540476Y-82595238D01*
X128635714Y-82642857D01*
X128683333Y-82690476D01*
X128730952Y-82785714D01*
X128730952Y-82976190D01*
X128778571Y-83071428D01*
X128826190Y-83119047D01*
X128921428Y-83166666D01*
X129111904Y-83166666D01*
X129207142Y-83119047D01*
X129254761Y-83071428D01*
X129302380Y-82976190D01*
X129302380Y-82785714D01*
X129254761Y-82690476D01*
X129207142Y-82642857D01*
X129111904Y-82595238D01*
X128921428Y-82595238D01*
X128826190Y-82642857D01*
X128778571Y-82690476D01*
X128730952Y-82785714D01*
X129254761Y-82119047D02*
X129302380Y-82119047D01*
X129397619Y-82166666D01*
X129445238Y-82214285D01*
X128302380Y-81500000D02*
X128302380Y-81404761D01*
X128350000Y-81309523D01*
X128397619Y-81261904D01*
X128492857Y-81214285D01*
X128683333Y-81166666D01*
X128921428Y-81166666D01*
X129111904Y-81214285D01*
X129207142Y-81261904D01*
X129254761Y-81309523D01*
X129302380Y-81404761D01*
X129302380Y-81500000D01*
X129254761Y-81595238D01*
X129207142Y-81642857D01*
X129111904Y-81690476D01*
X128921428Y-81738095D01*
X128683333Y-81738095D01*
X128492857Y-81690476D01*
X128397619Y-81642857D01*
X128350000Y-81595238D01*
X128302380Y-81500000D01*
X128302380Y-80547619D02*
X128302380Y-80452380D01*
X128350000Y-80357142D01*
X128397619Y-80309523D01*
X128492857Y-80261904D01*
X128683333Y-80214285D01*
X128921428Y-80214285D01*
X129111904Y-80261904D01*
X129207142Y-80309523D01*
X129254761Y-80357142D01*
X129302380Y-80452380D01*
X129302380Y-80547619D01*
X129254761Y-80642857D01*
X129207142Y-80690476D01*
X129111904Y-80738095D01*
X128921428Y-80785714D01*
X128683333Y-80785714D01*
X128492857Y-80738095D01*
X128397619Y-80690476D01*
X128350000Y-80642857D01*
X128302380Y-80547619D01*
X128302380Y-79595238D02*
X128302380Y-79500000D01*
X128350000Y-79404761D01*
X128397619Y-79357142D01*
X128492857Y-79309523D01*
X128683333Y-79261904D01*
X128921428Y-79261904D01*
X129111904Y-79309523D01*
X129207142Y-79357142D01*
X129254761Y-79404761D01*
X129302380Y-79500000D01*
X129302380Y-79595238D01*
X129254761Y-79690476D01*
X129207142Y-79738095D01*
X129111904Y-79785714D01*
X128921428Y-79833333D01*
X128683333Y-79833333D01*
X128492857Y-79785714D01*
X128397619Y-79738095D01*
X128350000Y-79690476D01*
X128302380Y-79595238D01*
X128302380Y-78642857D02*
X128302380Y-78547619D01*
X128350000Y-78452380D01*
X128397619Y-78404761D01*
X128492857Y-78357142D01*
X128683333Y-78309523D01*
X128921428Y-78309523D01*
X129111904Y-78357142D01*
X129207142Y-78404761D01*
X129254761Y-78452380D01*
X129302380Y-78547619D01*
X129302380Y-78642857D01*
X129254761Y-78738095D01*
X129207142Y-78785714D01*
X129111904Y-78833333D01*
X128921428Y-78880952D01*
X128683333Y-78880952D01*
X128492857Y-78833333D01*
X128397619Y-78785714D01*
X128350000Y-78738095D01*
X128302380Y-78642857D01*
X129302380Y-77119047D02*
X128635714Y-77119047D01*
X128730952Y-77119047D02*
X128683333Y-77071428D01*
X128635714Y-76976190D01*
X128635714Y-76833333D01*
X128683333Y-76738095D01*
X128778571Y-76690476D01*
X129302380Y-76690476D01*
X128778571Y-76690476D02*
X128683333Y-76642857D01*
X128635714Y-76547619D01*
X128635714Y-76404761D01*
X128683333Y-76309523D01*
X128778571Y-76261904D01*
X129302380Y-76261904D01*
X129302380Y-75785714D02*
X128635714Y-75785714D01*
X128730952Y-75785714D02*
X128683333Y-75738095D01*
X128635714Y-75642857D01*
X128635714Y-75500000D01*
X128683333Y-75404761D01*
X128778571Y-75357142D01*
X129302380Y-75357142D01*
X128778571Y-75357142D02*
X128683333Y-75309523D01*
X128635714Y-75214285D01*
X128635714Y-75071428D01*
X128683333Y-74976190D01*
X128778571Y-74928571D01*
X129302380Y-74928571D01*
X133500000Y-70500000D02*
X129413580Y-70500000D01*
X133500000Y-88500000D02*
X129413580Y-88500000D01*
X130000000Y-70500000D02*
X130000000Y-88500000D01*
X130000000Y-70500000D02*
X130000000Y-88500000D01*
X130000000Y-70500000D02*
X129413579Y-71626504D01*
X130000000Y-70500000D02*
X130586421Y-71626504D01*
X130000000Y-88500000D02*
X130586421Y-87373496D01*
X130000000Y-88500000D02*
X129413579Y-87373496D01*
X138952380Y-65302380D02*
X138380952Y-65302380D01*
X138666666Y-65302380D02*
X138666666Y-64302380D01*
X138571428Y-64445238D01*
X138476190Y-64540476D01*
X138380952Y-64588095D01*
X139428571Y-65302380D02*
X139619047Y-65302380D01*
X139714285Y-65254761D01*
X139761904Y-65207142D01*
X139857142Y-65064285D01*
X139904761Y-64873809D01*
X139904761Y-64492857D01*
X139857142Y-64397619D01*
X139809523Y-64350000D01*
X139714285Y-64302380D01*
X139523809Y-64302380D01*
X139428571Y-64350000D01*
X139380952Y-64397619D01*
X139333333Y-64492857D01*
X139333333Y-64730952D01*
X139380952Y-64826190D01*
X139428571Y-64873809D01*
X139523809Y-64921428D01*
X139714285Y-64921428D01*
X139809523Y-64873809D01*
X139857142Y-64826190D01*
X139904761Y-64730952D01*
X140380952Y-65254761D02*
X140380952Y-65302380D01*
X140333333Y-65397619D01*
X140285714Y-65445238D01*
X141000000Y-64302380D02*
X141095238Y-64302380D01*
X141190476Y-64350000D01*
X141238095Y-64397619D01*
X141285714Y-64492857D01*
X141333333Y-64683333D01*
X141333333Y-64921428D01*
X141285714Y-65111904D01*
X141238095Y-65207142D01*
X141190476Y-65254761D01*
X141095238Y-65302380D01*
X141000000Y-65302380D01*
X140904761Y-65254761D01*
X140857142Y-65207142D01*
X140809523Y-65111904D01*
X140761904Y-64921428D01*
X140761904Y-64683333D01*
X140809523Y-64492857D01*
X140857142Y-64397619D01*
X140904761Y-64350000D01*
X141000000Y-64302380D01*
X141952380Y-64302380D02*
X142047619Y-64302380D01*
X142142857Y-64350000D01*
X142190476Y-64397619D01*
X142238095Y-64492857D01*
X142285714Y-64683333D01*
X142285714Y-64921428D01*
X142238095Y-65111904D01*
X142190476Y-65207142D01*
X142142857Y-65254761D01*
X142047619Y-65302380D01*
X141952380Y-65302380D01*
X141857142Y-65254761D01*
X141809523Y-65207142D01*
X141761904Y-65111904D01*
X141714285Y-64921428D01*
X141714285Y-64683333D01*
X141761904Y-64492857D01*
X141809523Y-64397619D01*
X141857142Y-64350000D01*
X141952380Y-64302380D01*
X142904761Y-64302380D02*
X143000000Y-64302380D01*
X143095238Y-64350000D01*
X143142857Y-64397619D01*
X143190476Y-64492857D01*
X143238095Y-64683333D01*
X143238095Y-64921428D01*
X143190476Y-65111904D01*
X143142857Y-65207142D01*
X143095238Y-65254761D01*
X143000000Y-65302380D01*
X142904761Y-65302380D01*
X142809523Y-65254761D01*
X142761904Y-65207142D01*
X142714285Y-65111904D01*
X142666666Y-64921428D01*
X142666666Y-64683333D01*
X142714285Y-64492857D01*
X142761904Y-64397619D01*
X142809523Y-64350000D01*
X142904761Y-64302380D01*
X143857142Y-64302380D02*
X143952380Y-64302380D01*
X144047619Y-64350000D01*
X144095238Y-64397619D01*
X144142857Y-64492857D01*
X144190476Y-64683333D01*
X144190476Y-64921428D01*
X144142857Y-65111904D01*
X144095238Y-65207142D01*
X144047619Y-65254761D01*
X143952380Y-65302380D01*
X143857142Y-65302380D01*
X143761904Y-65254761D01*
X143714285Y-65207142D01*
X143666666Y-65111904D01*
X143619047Y-64921428D01*
X143619047Y-64683333D01*
X143666666Y-64492857D01*
X143714285Y-64397619D01*
X143761904Y-64350000D01*
X143857142Y-64302380D01*
X145380952Y-65302380D02*
X145380952Y-64635714D01*
X145380952Y-64730952D02*
X145428571Y-64683333D01*
X145523809Y-64635714D01*
X145666666Y-64635714D01*
X145761904Y-64683333D01*
X145809523Y-64778571D01*
X145809523Y-65302380D01*
X145809523Y-64778571D02*
X145857142Y-64683333D01*
X145952380Y-64635714D01*
X146095238Y-64635714D01*
X146190476Y-64683333D01*
X146238095Y-64778571D01*
X146238095Y-65302380D01*
X146714285Y-65302380D02*
X146714285Y-64635714D01*
X146714285Y-64730952D02*
X146761904Y-64683333D01*
X146857142Y-64635714D01*
X147000000Y-64635714D01*
X147095238Y-64683333D01*
X147142857Y-64778571D01*
X147142857Y-65302380D01*
X147142857Y-64778571D02*
X147190476Y-64683333D01*
X147285714Y-64635714D01*
X147428571Y-64635714D01*
X147523809Y-64683333D01*
X147571428Y-64778571D01*
X147571428Y-65302380D01*
X133500000Y-70500000D02*
X133500000Y-65413580D01*
X152500000Y-70500000D02*
X152500000Y-65413580D01*
X133500000Y-66000000D02*
X152500000Y-66000000D01*
X133500000Y-66000000D02*
X152500000Y-66000000D01*
X133500000Y-66000000D02*
X134626504Y-66586421D01*
X133500000Y-66000000D02*
X134626504Y-65413579D01*
X152500000Y-66000000D02*
X151373496Y-65413579D01*
X152500000Y-66000000D02*
X151373496Y-66586421D01*
D11*
%TO.C,C2*%
X136959000Y-80772000D03*
X138684000Y-80772000D03*
%TD*%
D12*
%TO.C,D1*%
X149500000Y-74500000D03*
X137500000Y-74500000D03*
%TD*%
D13*
%TO.C,C1*%
X138684000Y-82245200D03*
X136959000Y-82245200D03*
%TD*%
D14*
%TO.C,U2*%
X149500000Y-79559600D03*
X149500000Y-82609600D03*
%TD*%
%TO.C,U3*%
X147500000Y-79559600D03*
X147500000Y-82609600D03*
%TD*%
D15*
%TO.C,Q1*%
X143100000Y-81550000D03*
X143100000Y-83450000D03*
X145500000Y-82500000D03*
%TD*%
D14*
%TO.C,U1*%
X151500000Y-79500000D03*
X151500000Y-82550000D03*
%TD*%
M02*
