%TF.GenerationSoftware,KiCad,Pcbnew,(6.0.0)*%
%TF.CreationDate,2022-02-02T19:47:16+00:00*%
%TF.ProjectId,LED,4c45442e-6b69-4636-9164-5f7063625858,rev?*%
%TF.SameCoordinates,Original*%
%TF.FileFunction,Legend,Top*%
%TF.FilePolarity,Positive*%
%FSLAX46Y46*%
G04 Gerber Fmt 4.6, Leading zero omitted, Abs format (unit mm)*
G04 Created by KiCad (PCBNEW (6.0.0)) date 2022-02-02 19:47:16*
%MOMM*%
%LPD*%
G01*
G04 APERTURE LIST*
%ADD10C,0.150000*%
%ADD11C,0.100000*%
%ADD12C,0.120000*%
G04 APERTURE END LIST*
D10*
%TO.C,D1*%
X142761904Y-65052380D02*
X142761904Y-64052380D01*
X143000000Y-64052380D01*
X143142857Y-64100000D01*
X143238095Y-64195238D01*
X143285714Y-64290476D01*
X143333333Y-64480952D01*
X143333333Y-64623809D01*
X143285714Y-64814285D01*
X143238095Y-64909523D01*
X143142857Y-65004761D01*
X143000000Y-65052380D01*
X142761904Y-65052380D01*
X144285714Y-65052380D02*
X143714285Y-65052380D01*
X144000000Y-65052380D02*
X144000000Y-64052380D01*
X143904761Y-64195238D01*
X143809523Y-64290476D01*
X143714285Y-64338095D01*
D11*
%TO.C,C2*%
X135066666Y-81085714D02*
X135028571Y-81123809D01*
X134914285Y-81161904D01*
X134838095Y-81161904D01*
X134723809Y-81123809D01*
X134647619Y-81047619D01*
X134609523Y-80971428D01*
X134571428Y-80819047D01*
X134571428Y-80704761D01*
X134609523Y-80552380D01*
X134647619Y-80476190D01*
X134723809Y-80400000D01*
X134838095Y-80361904D01*
X134914285Y-80361904D01*
X135028571Y-80400000D01*
X135066666Y-80438095D01*
X135371428Y-80438095D02*
X135409523Y-80400000D01*
X135485714Y-80361904D01*
X135676190Y-80361904D01*
X135752380Y-80400000D01*
X135790476Y-80438095D01*
X135828571Y-80514285D01*
X135828571Y-80590476D01*
X135790476Y-80704761D01*
X135333333Y-81161904D01*
X135828571Y-81161904D01*
%TO.C,C1*%
X135066666Y-82485714D02*
X135028571Y-82523809D01*
X134914285Y-82561904D01*
X134838095Y-82561904D01*
X134723809Y-82523809D01*
X134647619Y-82447619D01*
X134609523Y-82371428D01*
X134571428Y-82219047D01*
X134571428Y-82104761D01*
X134609523Y-81952380D01*
X134647619Y-81876190D01*
X134723809Y-81800000D01*
X134838095Y-81761904D01*
X134914285Y-81761904D01*
X135028571Y-81800000D01*
X135066666Y-81838095D01*
X135828571Y-82561904D02*
X135371428Y-82561904D01*
X135600000Y-82561904D02*
X135600000Y-81761904D01*
X135523809Y-81876190D01*
X135447619Y-81952380D01*
X135371428Y-81990476D01*
%TO.C,U2*%
X149179904Y-81609523D02*
X149827523Y-81609523D01*
X149903714Y-81571428D01*
X149941809Y-81533333D01*
X149979904Y-81457142D01*
X149979904Y-81304761D01*
X149941809Y-81228571D01*
X149903714Y-81190476D01*
X149827523Y-81152380D01*
X149179904Y-81152380D01*
X149256095Y-80809523D02*
X149218000Y-80771428D01*
X149179904Y-80695238D01*
X149179904Y-80504761D01*
X149218000Y-80428571D01*
X149256095Y-80390476D01*
X149332285Y-80352380D01*
X149408476Y-80352380D01*
X149522761Y-80390476D01*
X149979904Y-80847619D01*
X149979904Y-80352380D01*
%TO.C,J1*%
X147733333Y-86061904D02*
X147733333Y-86633333D01*
X147695238Y-86747619D01*
X147619047Y-86823809D01*
X147504761Y-86861904D01*
X147428571Y-86861904D01*
X148533333Y-86861904D02*
X148076190Y-86861904D01*
X148304761Y-86861904D02*
X148304761Y-86061904D01*
X148228571Y-86176190D01*
X148152380Y-86252380D01*
X148076190Y-86290476D01*
%TO.C,U3*%
X147110304Y-81609523D02*
X147757923Y-81609523D01*
X147834114Y-81571428D01*
X147872209Y-81533333D01*
X147910304Y-81457142D01*
X147910304Y-81304761D01*
X147872209Y-81228571D01*
X147834114Y-81190476D01*
X147757923Y-81152380D01*
X147110304Y-81152380D01*
X147110304Y-80847619D02*
X147110304Y-80352380D01*
X147415066Y-80619047D01*
X147415066Y-80504761D01*
X147453161Y-80428571D01*
X147491257Y-80390476D01*
X147567447Y-80352380D01*
X147757923Y-80352380D01*
X147834114Y-80390476D01*
X147872209Y-80428571D01*
X147910304Y-80504761D01*
X147910304Y-80733333D01*
X147872209Y-80809523D01*
X147834114Y-80847619D01*
%TO.C,Q1*%
X141638095Y-82676190D02*
X141600000Y-82752380D01*
X141523809Y-82828571D01*
X141409523Y-82942857D01*
X141371428Y-83019047D01*
X141371428Y-83095238D01*
X141561904Y-83057142D02*
X141523809Y-83133333D01*
X141447619Y-83209523D01*
X141295238Y-83247619D01*
X141028571Y-83247619D01*
X140876190Y-83209523D01*
X140800000Y-83133333D01*
X140761904Y-83057142D01*
X140761904Y-82904761D01*
X140800000Y-82828571D01*
X140876190Y-82752380D01*
X141028571Y-82714285D01*
X141295238Y-82714285D01*
X141447619Y-82752380D01*
X141523809Y-82828571D01*
X141561904Y-82904761D01*
X141561904Y-83057142D01*
X141561904Y-81952380D02*
X141561904Y-82409523D01*
X141561904Y-82180952D02*
X140761904Y-82180952D01*
X140876190Y-82257142D01*
X140952380Y-82333333D01*
X140990476Y-82409523D01*
%TO.C,U1*%
X151161904Y-81609523D02*
X151809523Y-81609523D01*
X151885714Y-81571428D01*
X151923809Y-81533333D01*
X151961904Y-81457142D01*
X151961904Y-81304761D01*
X151923809Y-81228571D01*
X151885714Y-81190476D01*
X151809523Y-81152380D01*
X151161904Y-81152380D01*
X151961904Y-80352380D02*
X151961904Y-80809523D01*
X151961904Y-80580952D02*
X151161904Y-80580952D01*
X151276190Y-80657142D01*
X151352380Y-80733333D01*
X151390476Y-80809523D01*
D12*
%TO.C,D1*%
X147500000Y-74500000D02*
G75*
G03*
X147500000Y-74500000I-4000000J0D01*
G01*
%TO.C,C2*%
X137675233Y-80262000D02*
X137967767Y-80262000D01*
X137675233Y-81282000D02*
X137967767Y-81282000D01*
%TO.C,C1*%
X137967767Y-81735200D02*
X137675233Y-81735200D01*
X137967767Y-82755200D02*
X137675233Y-82755200D01*
%TO.C,J1*%
X141745000Y-87830000D02*
X146885000Y-87830000D01*
X146885000Y-87830000D02*
X146885000Y-85170000D01*
X141745000Y-87830000D02*
X141745000Y-85170000D01*
X139145000Y-85170000D02*
X140475000Y-85170000D01*
X141745000Y-85170000D02*
X146885000Y-85170000D01*
X139145000Y-86500000D02*
X139145000Y-85170000D01*
%TD*%
M02*
