%TF.GenerationSoftware,KiCad,Pcbnew,5.1.10-88a1d61d58~88~ubuntu20.04.1*%
%TF.CreationDate,2021-06-20T20:02:36+02:00*%
%TF.ProjectId,bluePillG,626c7565-5069-46c6-9c47-2e6b69636164,rev?*%
%TF.SameCoordinates,Original*%
%TF.FileFunction,Copper,L2,Inr*%
%TF.FilePolarity,Positive*%
%FSLAX46Y46*%
G04 Gerber Fmt 4.6, Leading zero omitted, Abs format (unit mm)*
G04 Created by KiCad (PCBNEW 5.1.10-88a1d61d58~88~ubuntu20.04.1) date 2021-06-20 20:02:36*
%MOMM*%
%LPD*%
G01*
G04 APERTURE LIST*
%TA.AperFunction,ComponentPad*%
%ADD10C,0.800000*%
%TD*%
%TA.AperFunction,ComponentPad*%
%ADD11C,6.400000*%
%TD*%
%TA.AperFunction,ComponentPad*%
%ADD12C,1.320800*%
%TD*%
%TA.AperFunction,ComponentPad*%
%ADD13C,1.676400*%
%TD*%
%TA.AperFunction,ComponentPad*%
%ADD14C,2.000000*%
%TD*%
%TA.AperFunction,ComponentPad*%
%ADD15O,1.700000X1.700000*%
%TD*%
%TA.AperFunction,ComponentPad*%
%ADD16R,1.700000X1.700000*%
%TD*%
%TA.AperFunction,ViaPad*%
%ADD17C,0.800000*%
%TD*%
%TA.AperFunction,Conductor*%
%ADD18C,0.254000*%
%TD*%
%TA.AperFunction,Conductor*%
%ADD19C,0.100000*%
%TD*%
G04 APERTURE END LIST*
D10*
%TO.N,GND*%
%TO.C,H4*%
X75697056Y-85302944D03*
X74000000Y-84600000D03*
X72302944Y-85302944D03*
X71600000Y-87000000D03*
X72302944Y-88697056D03*
X74000000Y-89400000D03*
X75697056Y-88697056D03*
X76400000Y-87000000D03*
D11*
X74000000Y-87000000D03*
%TD*%
D10*
%TO.N,VCC*%
%TO.C,H3*%
X75697056Y-45302944D03*
X74000000Y-44600000D03*
X72302944Y-45302944D03*
X71600000Y-47000000D03*
X72302944Y-48697056D03*
X74000000Y-49400000D03*
X75697056Y-48697056D03*
X76400000Y-47000000D03*
D11*
X74000000Y-47000000D03*
%TD*%
D12*
%TO.N,Net-(C19-Pad1)*%
%TO.C,Y2*%
X43700000Y-68626000D03*
%TO.N,OSC_IN*%
X43700000Y-63800000D03*
%TD*%
D13*
%TO.N,OSC32_OUT*%
%TO.C,Y1*%
X45800000Y-60200000D03*
%TO.N,OSC32_IN*%
X48340000Y-60200000D03*
%TD*%
D14*
%TO.N,NRST*%
%TO.C,SW1*%
X69600000Y-68600000D03*
%TO.N,GND*%
X69600000Y-73100000D03*
%TO.N,NRST*%
X63100000Y-68600000D03*
%TO.N,GND*%
X63100000Y-73100000D03*
%TD*%
D15*
%TO.N,+3V3*%
%TO.C,J10*%
X38460000Y-81940000D03*
X41000000Y-81940000D03*
X38460000Y-79400000D03*
D16*
X41000000Y-79400000D03*
%TD*%
D15*
%TO.N,GND*%
%TO.C,J9*%
X68200000Y-81940000D03*
X70740000Y-81940000D03*
X68200000Y-79400000D03*
D16*
X70740000Y-79400000D03*
%TD*%
D15*
%TO.N,PB9*%
%TO.C,J8*%
X75400000Y-55740000D03*
%TO.N,PB7*%
X75400000Y-58280000D03*
%TO.N,PB6*%
X75400000Y-60820000D03*
%TO.N,PB5*%
X75400000Y-63360000D03*
%TO.N,PB4*%
X75400000Y-65900000D03*
%TO.N,PB3*%
X75400000Y-68440000D03*
%TO.N,PA15*%
X75400000Y-70980000D03*
%TO.N,PA12*%
X75400000Y-73520000D03*
%TO.N,PA11*%
X75400000Y-76060000D03*
D16*
%TO.N,PA10*%
X75400000Y-78600000D03*
%TD*%
D15*
%TO.N,PA9*%
%TO.C,J7*%
X65260000Y-87400000D03*
%TO.N,PA8*%
X62720000Y-87400000D03*
%TO.N,PB15*%
X60180000Y-87400000D03*
%TO.N,PB14*%
X57640000Y-87400000D03*
%TO.N,PB13*%
X55100000Y-87400000D03*
%TO.N,PB12*%
X52560000Y-87400000D03*
%TO.N,PB11*%
X50020000Y-87400000D03*
%TO.N,PB10*%
X47480000Y-87400000D03*
%TO.N,PB2*%
X44940000Y-87400000D03*
D16*
%TO.N,PB1*%
X42400000Y-87400000D03*
%TD*%
D15*
%TO.N,PB0*%
%TO.C,J6*%
X32400000Y-78540000D03*
%TO.N,PA7*%
X32400000Y-76000000D03*
%TO.N,PA6*%
X32400000Y-73460000D03*
%TO.N,PA5*%
X32400000Y-70920000D03*
%TO.N,PA4*%
X32400000Y-68380000D03*
%TO.N,PA3*%
X32400000Y-65840000D03*
%TO.N,PA2*%
X32400000Y-63300000D03*
%TO.N,PA1*%
X32400000Y-60760000D03*
%TO.N,PA0*%
X32400000Y-58220000D03*
D16*
%TO.N,PC13*%
X32400000Y-55680000D03*
%TD*%
D15*
%TO.N,+5V*%
%TO.C,J5*%
X68600000Y-48140000D03*
D16*
%TO.N,VCC*%
X68600000Y-45600000D03*
%TD*%
D15*
%TO.N,GND*%
%TO.C,J4*%
X40200000Y-47600000D03*
D16*
%TO.N,VCC*%
X40200000Y-45060000D03*
%TD*%
D15*
%TO.N,+3V3S*%
%TO.C,J3*%
X61980000Y-48100000D03*
%TO.N,+3V3*%
X59440000Y-48100000D03*
D16*
%TO.N,+3.3VP*%
X56900000Y-48100000D03*
%TD*%
D15*
%TO.N,GND*%
%TO.C,J2*%
X42880000Y-52200000D03*
%TO.N,Net-(J2-Pad2)*%
X40340000Y-52200000D03*
D16*
%TO.N,+3V3*%
X37800000Y-52200000D03*
%TD*%
D15*
%TO.N,+5V*%
%TO.C,J1*%
X68760000Y-55340000D03*
X68760000Y-52800000D03*
%TO.N,+3V3S*%
X66220000Y-55340000D03*
X66220000Y-52800000D03*
%TO.N,GND*%
X63680000Y-55340000D03*
X63680000Y-52800000D03*
%TO.N,SWDIO*%
X61140000Y-55340000D03*
%TO.N,SWIW*%
X61140000Y-52800000D03*
%TO.N,SWCLK*%
X58600000Y-55340000D03*
D16*
%TO.N,NRST*%
X58600000Y-52800000D03*
%TD*%
D10*
%TO.N,GND*%
%TO.C,H2*%
X35697056Y-85302944D03*
X34000000Y-84600000D03*
X32302944Y-85302944D03*
X31600000Y-87000000D03*
X32302944Y-88697056D03*
X34000000Y-89400000D03*
X35697056Y-88697056D03*
X36400000Y-87000000D03*
D11*
X34000000Y-87000000D03*
%TD*%
D10*
%TO.N,VCC*%
%TO.C,H1*%
X35697056Y-45302944D03*
X34000000Y-44600000D03*
X32302944Y-45302944D03*
X31600000Y-47000000D03*
X32302944Y-48697056D03*
X34000000Y-49400000D03*
X35697056Y-48697056D03*
X36400000Y-47000000D03*
D11*
X34000000Y-47000000D03*
%TD*%
D17*
%TO.N,+3V3*%
X48400000Y-63200000D03*
X50200000Y-60000000D03*
X51200000Y-60000000D03*
X66400000Y-66000000D03*
X59000000Y-73800000D03*
X57400000Y-71600000D03*
X57400000Y-74200000D03*
X59400000Y-50000000D03*
X58200000Y-50000000D03*
X57000000Y-50000000D03*
X55600000Y-50000000D03*
X60800000Y-50000000D03*
X60800000Y-50800000D03*
X59400000Y-50800000D03*
X58200000Y-50800000D03*
X57000000Y-50800000D03*
X55600000Y-50800000D03*
X54600000Y-50800000D03*
X54600000Y-50000000D03*
X54600000Y-52000000D03*
X55600000Y-52000000D03*
X43600000Y-55800000D03*
X51812500Y-63600000D03*
X61500000Y-62400000D03*
X58300000Y-62400000D03*
%TO.N,GND*%
X50200000Y-61400000D03*
X48200000Y-56000000D03*
X45800000Y-56000000D03*
X50200000Y-56600000D03*
X51600000Y-56600000D03*
X52600000Y-57800000D03*
X56200000Y-68800000D03*
X54400000Y-68800000D03*
X61200000Y-71400000D03*
X61200000Y-72600000D03*
X56800000Y-76200000D03*
X54400000Y-77400000D03*
X51800000Y-76200000D03*
X58300000Y-60800000D03*
X61500000Y-60800000D03*
X56200000Y-43400000D03*
X63400000Y-45000000D03*
X50000000Y-50600000D03*
X49200000Y-50600000D03*
X48200000Y-52200000D03*
X51600000Y-52600000D03*
X51600000Y-53600000D03*
X50600000Y-53600000D03*
X49400000Y-53600000D03*
X48200000Y-53600000D03*
X46800000Y-53600000D03*
X45400000Y-53600000D03*
X48000000Y-50800000D03*
X45800000Y-51000000D03*
X52600000Y-52600000D03*
X52600000Y-53600000D03*
X47000000Y-50800000D03*
X48000000Y-49800000D03*
X47000000Y-49800000D03*
X60400000Y-63775000D03*
X41500000Y-66200000D03*
X39550000Y-66200000D03*
%TO.N,NRST*%
X52800000Y-66600000D03*
%TO.N,PC13*%
X51800000Y-64800000D03*
X43200000Y-59400000D03*
%TO.N,PB9*%
X55650000Y-63575000D03*
%TO.N,SWCLK*%
X57000000Y-59775000D03*
%TO.N,SWDIO*%
X58450000Y-59675000D03*
%TO.N,PA11*%
X57000000Y-65000000D03*
%TO.N,PB13*%
X60655185Y-67801488D03*
%TO.N,PB10*%
X56213000Y-72000000D03*
%TO.N,PA3*%
X52200000Y-68600000D03*
%TO.N,PA2*%
X51400000Y-67800000D03*
%TD*%
D18*
%TO.N,GND*%
X44383414Y-60629717D02*
X44494467Y-60897822D01*
X44655691Y-61139110D01*
X44860890Y-61344309D01*
X45073000Y-61486037D01*
X45073000Y-62400000D01*
X45075440Y-62424776D01*
X45082667Y-62448601D01*
X45094403Y-62470557D01*
X45110197Y-62489803D01*
X45129443Y-62505597D01*
X45151399Y-62517333D01*
X45175224Y-62524560D01*
X45200000Y-62527000D01*
X46173000Y-62527000D01*
X46173000Y-65300000D01*
X46175440Y-65324776D01*
X46182667Y-65348601D01*
X46194403Y-65370557D01*
X46210197Y-65389803D01*
X46229443Y-65405597D01*
X46251399Y-65417333D01*
X46275224Y-65424560D01*
X46300000Y-65427000D01*
X50773000Y-65427000D01*
X50773000Y-66073000D01*
X48100000Y-66073000D01*
X48075224Y-66075440D01*
X48051399Y-66082667D01*
X48029443Y-66094403D01*
X48010197Y-66110197D01*
X47994403Y-66129443D01*
X47982667Y-66151399D01*
X47975440Y-66175224D01*
X47973000Y-66200000D01*
X47973000Y-71473000D01*
X41127000Y-71473000D01*
X41127000Y-68498414D01*
X42404600Y-68498414D01*
X42404600Y-68753586D01*
X42454381Y-69003854D01*
X42552031Y-69239602D01*
X42693797Y-69451769D01*
X42874231Y-69632203D01*
X43086398Y-69773969D01*
X43322146Y-69871619D01*
X43572414Y-69921400D01*
X43827586Y-69921400D01*
X44077854Y-69871619D01*
X44313602Y-69773969D01*
X44525769Y-69632203D01*
X44706203Y-69451769D01*
X44847969Y-69239602D01*
X44945619Y-69003854D01*
X44995400Y-68753586D01*
X44995400Y-68498414D01*
X44945619Y-68248146D01*
X44847969Y-68012398D01*
X44706203Y-67800231D01*
X44525769Y-67619797D01*
X44313602Y-67478031D01*
X44077854Y-67380381D01*
X43827586Y-67330600D01*
X43572414Y-67330600D01*
X43322146Y-67380381D01*
X43086398Y-67478031D01*
X42874231Y-67619797D01*
X42693797Y-67800231D01*
X42552031Y-68012398D01*
X42454381Y-68248146D01*
X42404600Y-68498414D01*
X41127000Y-68498414D01*
X41127000Y-63672414D01*
X42404600Y-63672414D01*
X42404600Y-63927586D01*
X42454381Y-64177854D01*
X42552031Y-64413602D01*
X42693797Y-64625769D01*
X42874231Y-64806203D01*
X43086398Y-64947969D01*
X43322146Y-65045619D01*
X43572414Y-65095400D01*
X43827586Y-65095400D01*
X44077854Y-65045619D01*
X44313602Y-64947969D01*
X44525769Y-64806203D01*
X44706203Y-64625769D01*
X44847969Y-64413602D01*
X44945619Y-64177854D01*
X44995400Y-63927586D01*
X44995400Y-63672414D01*
X44945619Y-63422146D01*
X44847969Y-63186398D01*
X44706203Y-62974231D01*
X44525769Y-62793797D01*
X44313602Y-62652031D01*
X44077854Y-62554381D01*
X43827586Y-62504600D01*
X43572414Y-62504600D01*
X43322146Y-62554381D01*
X43086398Y-62652031D01*
X42874231Y-62793797D01*
X42693797Y-62974231D01*
X42552031Y-63186398D01*
X42454381Y-63422146D01*
X42404600Y-63672414D01*
X41127000Y-63672414D01*
X41127000Y-60627000D01*
X44382874Y-60627000D01*
X44383414Y-60629717D01*
%TA.AperFunction,Conductor*%
D19*
G36*
X44383414Y-60629717D02*
G01*
X44494467Y-60897822D01*
X44655691Y-61139110D01*
X44860890Y-61344309D01*
X45073000Y-61486037D01*
X45073000Y-62400000D01*
X45075440Y-62424776D01*
X45082667Y-62448601D01*
X45094403Y-62470557D01*
X45110197Y-62489803D01*
X45129443Y-62505597D01*
X45151399Y-62517333D01*
X45175224Y-62524560D01*
X45200000Y-62527000D01*
X46173000Y-62527000D01*
X46173000Y-65300000D01*
X46175440Y-65324776D01*
X46182667Y-65348601D01*
X46194403Y-65370557D01*
X46210197Y-65389803D01*
X46229443Y-65405597D01*
X46251399Y-65417333D01*
X46275224Y-65424560D01*
X46300000Y-65427000D01*
X50773000Y-65427000D01*
X50773000Y-66073000D01*
X48100000Y-66073000D01*
X48075224Y-66075440D01*
X48051399Y-66082667D01*
X48029443Y-66094403D01*
X48010197Y-66110197D01*
X47994403Y-66129443D01*
X47982667Y-66151399D01*
X47975440Y-66175224D01*
X47973000Y-66200000D01*
X47973000Y-71473000D01*
X41127000Y-71473000D01*
X41127000Y-68498414D01*
X42404600Y-68498414D01*
X42404600Y-68753586D01*
X42454381Y-69003854D01*
X42552031Y-69239602D01*
X42693797Y-69451769D01*
X42874231Y-69632203D01*
X43086398Y-69773969D01*
X43322146Y-69871619D01*
X43572414Y-69921400D01*
X43827586Y-69921400D01*
X44077854Y-69871619D01*
X44313602Y-69773969D01*
X44525769Y-69632203D01*
X44706203Y-69451769D01*
X44847969Y-69239602D01*
X44945619Y-69003854D01*
X44995400Y-68753586D01*
X44995400Y-68498414D01*
X44945619Y-68248146D01*
X44847969Y-68012398D01*
X44706203Y-67800231D01*
X44525769Y-67619797D01*
X44313602Y-67478031D01*
X44077854Y-67380381D01*
X43827586Y-67330600D01*
X43572414Y-67330600D01*
X43322146Y-67380381D01*
X43086398Y-67478031D01*
X42874231Y-67619797D01*
X42693797Y-67800231D01*
X42552031Y-68012398D01*
X42454381Y-68248146D01*
X42404600Y-68498414D01*
X41127000Y-68498414D01*
X41127000Y-63672414D01*
X42404600Y-63672414D01*
X42404600Y-63927586D01*
X42454381Y-64177854D01*
X42552031Y-64413602D01*
X42693797Y-64625769D01*
X42874231Y-64806203D01*
X43086398Y-64947969D01*
X43322146Y-65045619D01*
X43572414Y-65095400D01*
X43827586Y-65095400D01*
X44077854Y-65045619D01*
X44313602Y-64947969D01*
X44525769Y-64806203D01*
X44706203Y-64625769D01*
X44847969Y-64413602D01*
X44945619Y-64177854D01*
X44995400Y-63927586D01*
X44995400Y-63672414D01*
X44945619Y-63422146D01*
X44847969Y-63186398D01*
X44706203Y-62974231D01*
X44525769Y-62793797D01*
X44313602Y-62652031D01*
X44077854Y-62554381D01*
X43827586Y-62504600D01*
X43572414Y-62504600D01*
X43322146Y-62554381D01*
X43086398Y-62652031D01*
X42874231Y-62793797D01*
X42693797Y-62974231D01*
X42552031Y-63186398D01*
X42454381Y-63422146D01*
X42404600Y-63672414D01*
X41127000Y-63672414D01*
X41127000Y-60627000D01*
X44382874Y-60627000D01*
X44383414Y-60629717D01*
G37*
%TD.AperFunction*%
%TD*%
D18*
%TO.N,GND*%
X74768083Y-42731173D02*
X75511891Y-42934656D01*
X76207905Y-43266638D01*
X76834130Y-43716626D01*
X77370777Y-44270403D01*
X77800871Y-44910451D01*
X78110829Y-45616553D01*
X78292065Y-46371457D01*
X78340000Y-47024207D01*
X78340001Y-85972899D01*
X78266098Y-86871802D01*
X78052999Y-87720180D01*
X77704197Y-88522371D01*
X77229062Y-89256818D01*
X76640354Y-89903799D01*
X75953875Y-90445946D01*
X75188076Y-90868691D01*
X74363514Y-91160683D01*
X73490925Y-91316116D01*
X72984453Y-91340000D01*
X35027089Y-91340000D01*
X34128198Y-91266098D01*
X33279820Y-91052999D01*
X32477629Y-90704197D01*
X31743182Y-90229062D01*
X31162720Y-89700881D01*
X31478724Y-89700881D01*
X31838912Y-90190548D01*
X32502882Y-90550849D01*
X33224385Y-90774694D01*
X33975695Y-90853480D01*
X34727938Y-90784178D01*
X35452208Y-90569452D01*
X36120670Y-90217555D01*
X36161088Y-90190548D01*
X36521276Y-89700881D01*
X71478724Y-89700881D01*
X71838912Y-90190548D01*
X72502882Y-90550849D01*
X73224385Y-90774694D01*
X73975695Y-90853480D01*
X74727938Y-90784178D01*
X75452208Y-90569452D01*
X76120670Y-90217555D01*
X76161088Y-90190548D01*
X76521276Y-89700881D01*
X74000000Y-87179605D01*
X71478724Y-89700881D01*
X36521276Y-89700881D01*
X34000000Y-87179605D01*
X31478724Y-89700881D01*
X31162720Y-89700881D01*
X31096201Y-89640354D01*
X30554054Y-88953875D01*
X30131309Y-88188076D01*
X29839317Y-87363514D01*
X29770236Y-86975695D01*
X30146520Y-86975695D01*
X30215822Y-87727938D01*
X30430548Y-88452208D01*
X30782445Y-89120670D01*
X30809452Y-89161088D01*
X31299119Y-89521276D01*
X33820395Y-87000000D01*
X34179605Y-87000000D01*
X36700881Y-89521276D01*
X37190548Y-89161088D01*
X37550849Y-88497118D01*
X37774694Y-87775615D01*
X37853480Y-87024305D01*
X37809784Y-86550000D01*
X40911928Y-86550000D01*
X40911928Y-88250000D01*
X40924188Y-88374482D01*
X40960498Y-88494180D01*
X41019463Y-88604494D01*
X41098815Y-88701185D01*
X41195506Y-88780537D01*
X41305820Y-88839502D01*
X41425518Y-88875812D01*
X41550000Y-88888072D01*
X43250000Y-88888072D01*
X43374482Y-88875812D01*
X43494180Y-88839502D01*
X43604494Y-88780537D01*
X43701185Y-88701185D01*
X43780537Y-88604494D01*
X43839502Y-88494180D01*
X43861513Y-88421620D01*
X43993368Y-88553475D01*
X44236589Y-88715990D01*
X44506842Y-88827932D01*
X44793740Y-88885000D01*
X45086260Y-88885000D01*
X45373158Y-88827932D01*
X45643411Y-88715990D01*
X45886632Y-88553475D01*
X46093475Y-88346632D01*
X46210000Y-88172240D01*
X46326525Y-88346632D01*
X46533368Y-88553475D01*
X46776589Y-88715990D01*
X47046842Y-88827932D01*
X47333740Y-88885000D01*
X47626260Y-88885000D01*
X47913158Y-88827932D01*
X48183411Y-88715990D01*
X48426632Y-88553475D01*
X48633475Y-88346632D01*
X48750000Y-88172240D01*
X48866525Y-88346632D01*
X49073368Y-88553475D01*
X49316589Y-88715990D01*
X49586842Y-88827932D01*
X49873740Y-88885000D01*
X50166260Y-88885000D01*
X50453158Y-88827932D01*
X50723411Y-88715990D01*
X50966632Y-88553475D01*
X51173475Y-88346632D01*
X51290000Y-88172240D01*
X51406525Y-88346632D01*
X51613368Y-88553475D01*
X51856589Y-88715990D01*
X52126842Y-88827932D01*
X52413740Y-88885000D01*
X52706260Y-88885000D01*
X52993158Y-88827932D01*
X53263411Y-88715990D01*
X53506632Y-88553475D01*
X53713475Y-88346632D01*
X53830000Y-88172240D01*
X53946525Y-88346632D01*
X54153368Y-88553475D01*
X54396589Y-88715990D01*
X54666842Y-88827932D01*
X54953740Y-88885000D01*
X55246260Y-88885000D01*
X55533158Y-88827932D01*
X55803411Y-88715990D01*
X56046632Y-88553475D01*
X56253475Y-88346632D01*
X56370000Y-88172240D01*
X56486525Y-88346632D01*
X56693368Y-88553475D01*
X56936589Y-88715990D01*
X57206842Y-88827932D01*
X57493740Y-88885000D01*
X57786260Y-88885000D01*
X58073158Y-88827932D01*
X58343411Y-88715990D01*
X58586632Y-88553475D01*
X58793475Y-88346632D01*
X58910000Y-88172240D01*
X59026525Y-88346632D01*
X59233368Y-88553475D01*
X59476589Y-88715990D01*
X59746842Y-88827932D01*
X60033740Y-88885000D01*
X60326260Y-88885000D01*
X60613158Y-88827932D01*
X60883411Y-88715990D01*
X61126632Y-88553475D01*
X61333475Y-88346632D01*
X61450000Y-88172240D01*
X61566525Y-88346632D01*
X61773368Y-88553475D01*
X62016589Y-88715990D01*
X62286842Y-88827932D01*
X62573740Y-88885000D01*
X62866260Y-88885000D01*
X63153158Y-88827932D01*
X63423411Y-88715990D01*
X63666632Y-88553475D01*
X63873475Y-88346632D01*
X63990000Y-88172240D01*
X64106525Y-88346632D01*
X64313368Y-88553475D01*
X64556589Y-88715990D01*
X64826842Y-88827932D01*
X65113740Y-88885000D01*
X65406260Y-88885000D01*
X65693158Y-88827932D01*
X65963411Y-88715990D01*
X66206632Y-88553475D01*
X66413475Y-88346632D01*
X66575990Y-88103411D01*
X66687932Y-87833158D01*
X66745000Y-87546260D01*
X66745000Y-87253740D01*
X66689693Y-86975695D01*
X70146520Y-86975695D01*
X70215822Y-87727938D01*
X70430548Y-88452208D01*
X70782445Y-89120670D01*
X70809452Y-89161088D01*
X71299119Y-89521276D01*
X73820395Y-87000000D01*
X74179605Y-87000000D01*
X76700881Y-89521276D01*
X77190548Y-89161088D01*
X77550849Y-88497118D01*
X77774694Y-87775615D01*
X77853480Y-87024305D01*
X77784178Y-86272062D01*
X77569452Y-85547792D01*
X77217555Y-84879330D01*
X77190548Y-84838912D01*
X76700881Y-84478724D01*
X74179605Y-87000000D01*
X73820395Y-87000000D01*
X71299119Y-84478724D01*
X70809452Y-84838912D01*
X70449151Y-85502882D01*
X70225306Y-86224385D01*
X70146520Y-86975695D01*
X66689693Y-86975695D01*
X66687932Y-86966842D01*
X66575990Y-86696589D01*
X66413475Y-86453368D01*
X66206632Y-86246525D01*
X65963411Y-86084010D01*
X65693158Y-85972068D01*
X65406260Y-85915000D01*
X65113740Y-85915000D01*
X64826842Y-85972068D01*
X64556589Y-86084010D01*
X64313368Y-86246525D01*
X64106525Y-86453368D01*
X63990000Y-86627760D01*
X63873475Y-86453368D01*
X63666632Y-86246525D01*
X63423411Y-86084010D01*
X63153158Y-85972068D01*
X62866260Y-85915000D01*
X62573740Y-85915000D01*
X62286842Y-85972068D01*
X62016589Y-86084010D01*
X61773368Y-86246525D01*
X61566525Y-86453368D01*
X61450000Y-86627760D01*
X61333475Y-86453368D01*
X61126632Y-86246525D01*
X60883411Y-86084010D01*
X60613158Y-85972068D01*
X60326260Y-85915000D01*
X60033740Y-85915000D01*
X59746842Y-85972068D01*
X59476589Y-86084010D01*
X59233368Y-86246525D01*
X59026525Y-86453368D01*
X58910000Y-86627760D01*
X58793475Y-86453368D01*
X58586632Y-86246525D01*
X58343411Y-86084010D01*
X58073158Y-85972068D01*
X57786260Y-85915000D01*
X57493740Y-85915000D01*
X57206842Y-85972068D01*
X56936589Y-86084010D01*
X56693368Y-86246525D01*
X56486525Y-86453368D01*
X56370000Y-86627760D01*
X56253475Y-86453368D01*
X56046632Y-86246525D01*
X55803411Y-86084010D01*
X55533158Y-85972068D01*
X55246260Y-85915000D01*
X54953740Y-85915000D01*
X54666842Y-85972068D01*
X54396589Y-86084010D01*
X54153368Y-86246525D01*
X53946525Y-86453368D01*
X53830000Y-86627760D01*
X53713475Y-86453368D01*
X53506632Y-86246525D01*
X53263411Y-86084010D01*
X52993158Y-85972068D01*
X52706260Y-85915000D01*
X52413740Y-85915000D01*
X52126842Y-85972068D01*
X51856589Y-86084010D01*
X51613368Y-86246525D01*
X51406525Y-86453368D01*
X51290000Y-86627760D01*
X51173475Y-86453368D01*
X50966632Y-86246525D01*
X50723411Y-86084010D01*
X50453158Y-85972068D01*
X50166260Y-85915000D01*
X49873740Y-85915000D01*
X49586842Y-85972068D01*
X49316589Y-86084010D01*
X49073368Y-86246525D01*
X48866525Y-86453368D01*
X48750000Y-86627760D01*
X48633475Y-86453368D01*
X48426632Y-86246525D01*
X48183411Y-86084010D01*
X47913158Y-85972068D01*
X47626260Y-85915000D01*
X47333740Y-85915000D01*
X47046842Y-85972068D01*
X46776589Y-86084010D01*
X46533368Y-86246525D01*
X46326525Y-86453368D01*
X46210000Y-86627760D01*
X46093475Y-86453368D01*
X45886632Y-86246525D01*
X45643411Y-86084010D01*
X45373158Y-85972068D01*
X45086260Y-85915000D01*
X44793740Y-85915000D01*
X44506842Y-85972068D01*
X44236589Y-86084010D01*
X43993368Y-86246525D01*
X43861513Y-86378380D01*
X43839502Y-86305820D01*
X43780537Y-86195506D01*
X43701185Y-86098815D01*
X43604494Y-86019463D01*
X43494180Y-85960498D01*
X43374482Y-85924188D01*
X43250000Y-85911928D01*
X41550000Y-85911928D01*
X41425518Y-85924188D01*
X41305820Y-85960498D01*
X41195506Y-86019463D01*
X41098815Y-86098815D01*
X41019463Y-86195506D01*
X40960498Y-86305820D01*
X40924188Y-86425518D01*
X40911928Y-86550000D01*
X37809784Y-86550000D01*
X37784178Y-86272062D01*
X37569452Y-85547792D01*
X37217555Y-84879330D01*
X37190548Y-84838912D01*
X36700881Y-84478724D01*
X34179605Y-87000000D01*
X33820395Y-87000000D01*
X31299119Y-84478724D01*
X30809452Y-84838912D01*
X30449151Y-85502882D01*
X30225306Y-86224385D01*
X30146520Y-86975695D01*
X29770236Y-86975695D01*
X29683884Y-86490925D01*
X29660000Y-85984453D01*
X29660000Y-84299119D01*
X31478724Y-84299119D01*
X34000000Y-86820395D01*
X36521276Y-84299119D01*
X71478724Y-84299119D01*
X74000000Y-86820395D01*
X76521276Y-84299119D01*
X76161088Y-83809452D01*
X75497118Y-83449151D01*
X74775615Y-83225306D01*
X74024305Y-83146520D01*
X73272062Y-83215822D01*
X72547792Y-83430548D01*
X71879330Y-83782445D01*
X71838912Y-83809452D01*
X71478724Y-84299119D01*
X36521276Y-84299119D01*
X36161088Y-83809452D01*
X35497118Y-83449151D01*
X34775615Y-83225306D01*
X34024305Y-83146520D01*
X33272062Y-83215822D01*
X32547792Y-83430548D01*
X31879330Y-83782445D01*
X31838912Y-83809452D01*
X31478724Y-84299119D01*
X29660000Y-84299119D01*
X29660000Y-73127000D01*
X30952145Y-73127000D01*
X30915000Y-73313740D01*
X30915000Y-73606260D01*
X30972068Y-73893158D01*
X31084010Y-74163411D01*
X31246525Y-74406632D01*
X31453368Y-74613475D01*
X31627760Y-74730000D01*
X31453368Y-74846525D01*
X31246525Y-75053368D01*
X31084010Y-75296589D01*
X30972068Y-75566842D01*
X30915000Y-75853740D01*
X30915000Y-76146260D01*
X30972068Y-76433158D01*
X31084010Y-76703411D01*
X31246525Y-76946632D01*
X31453368Y-77153475D01*
X31627760Y-77270000D01*
X31453368Y-77386525D01*
X31246525Y-77593368D01*
X31084010Y-77836589D01*
X30972068Y-78106842D01*
X30915000Y-78393740D01*
X30915000Y-78686260D01*
X30972068Y-78973158D01*
X31084010Y-79243411D01*
X31246525Y-79486632D01*
X31453368Y-79693475D01*
X31696589Y-79855990D01*
X31966842Y-79967932D01*
X32253740Y-80025000D01*
X32546260Y-80025000D01*
X32833158Y-79967932D01*
X33103411Y-79855990D01*
X33346632Y-79693475D01*
X33553475Y-79486632D01*
X33709088Y-79253740D01*
X36975000Y-79253740D01*
X36975000Y-79546260D01*
X37032068Y-79833158D01*
X37144010Y-80103411D01*
X37306525Y-80346632D01*
X37513368Y-80553475D01*
X37687760Y-80670000D01*
X37513368Y-80786525D01*
X37306525Y-80993368D01*
X37144010Y-81236589D01*
X37032068Y-81506842D01*
X36975000Y-81793740D01*
X36975000Y-82086260D01*
X37032068Y-82373158D01*
X37144010Y-82643411D01*
X37306525Y-82886632D01*
X37513368Y-83093475D01*
X37756589Y-83255990D01*
X38026842Y-83367932D01*
X38313740Y-83425000D01*
X38606260Y-83425000D01*
X38893158Y-83367932D01*
X39163411Y-83255990D01*
X39406632Y-83093475D01*
X39613475Y-82886632D01*
X39730000Y-82712240D01*
X39846525Y-82886632D01*
X40053368Y-83093475D01*
X40296589Y-83255990D01*
X40566842Y-83367932D01*
X40853740Y-83425000D01*
X41146260Y-83425000D01*
X41433158Y-83367932D01*
X41703411Y-83255990D01*
X41946632Y-83093475D01*
X42153475Y-82886632D01*
X42315990Y-82643411D01*
X42427932Y-82373158D01*
X42443102Y-82296890D01*
X66758524Y-82296890D01*
X66803175Y-82444099D01*
X66928359Y-82706920D01*
X67102412Y-82940269D01*
X67318645Y-83135178D01*
X67568748Y-83284157D01*
X67843109Y-83381481D01*
X68073000Y-83260814D01*
X68073000Y-82067000D01*
X68327000Y-82067000D01*
X68327000Y-83260814D01*
X68556891Y-83381481D01*
X68831252Y-83284157D01*
X69081355Y-83135178D01*
X69297588Y-82940269D01*
X69470000Y-82709120D01*
X69642412Y-82940269D01*
X69858645Y-83135178D01*
X70108748Y-83284157D01*
X70383109Y-83381481D01*
X70613000Y-83260814D01*
X70613000Y-82067000D01*
X70867000Y-82067000D01*
X70867000Y-83260814D01*
X71096891Y-83381481D01*
X71371252Y-83284157D01*
X71621355Y-83135178D01*
X71837588Y-82940269D01*
X72011641Y-82706920D01*
X72136825Y-82444099D01*
X72181476Y-82296890D01*
X72060155Y-82067000D01*
X70867000Y-82067000D01*
X70613000Y-82067000D01*
X68327000Y-82067000D01*
X68073000Y-82067000D01*
X66879845Y-82067000D01*
X66758524Y-82296890D01*
X42443102Y-82296890D01*
X42485000Y-82086260D01*
X42485000Y-81793740D01*
X42427932Y-81506842D01*
X42315990Y-81236589D01*
X42153475Y-80993368D01*
X42021620Y-80861513D01*
X42094180Y-80839502D01*
X42204494Y-80780537D01*
X42301185Y-80701185D01*
X42380537Y-80604494D01*
X42439502Y-80494180D01*
X42475812Y-80374482D01*
X42488072Y-80250000D01*
X42488072Y-79756890D01*
X66758524Y-79756890D01*
X66803175Y-79904099D01*
X66928359Y-80166920D01*
X67102412Y-80400269D01*
X67318645Y-80595178D01*
X67444255Y-80670000D01*
X67318645Y-80744822D01*
X67102412Y-80939731D01*
X66928359Y-81173080D01*
X66803175Y-81435901D01*
X66758524Y-81583110D01*
X66879845Y-81813000D01*
X68073000Y-81813000D01*
X68073000Y-79527000D01*
X68327000Y-79527000D01*
X68327000Y-81813000D01*
X70613000Y-81813000D01*
X70613000Y-79527000D01*
X70867000Y-79527000D01*
X70867000Y-81813000D01*
X72060155Y-81813000D01*
X72181476Y-81583110D01*
X72136825Y-81435901D01*
X72011641Y-81173080D01*
X71837588Y-80939731D01*
X71753534Y-80863966D01*
X71834180Y-80839502D01*
X71944494Y-80780537D01*
X72041185Y-80701185D01*
X72120537Y-80604494D01*
X72179502Y-80494180D01*
X72215812Y-80374482D01*
X72228072Y-80250000D01*
X72225000Y-79685750D01*
X72066250Y-79527000D01*
X70867000Y-79527000D01*
X70613000Y-79527000D01*
X68327000Y-79527000D01*
X68073000Y-79527000D01*
X66879845Y-79527000D01*
X66758524Y-79756890D01*
X42488072Y-79756890D01*
X42488072Y-79043110D01*
X66758524Y-79043110D01*
X66879845Y-79273000D01*
X68073000Y-79273000D01*
X68073000Y-78079186D01*
X68327000Y-78079186D01*
X68327000Y-79273000D01*
X70613000Y-79273000D01*
X70613000Y-78073750D01*
X70867000Y-78073750D01*
X70867000Y-79273000D01*
X72066250Y-79273000D01*
X72225000Y-79114250D01*
X72228072Y-78550000D01*
X72215812Y-78425518D01*
X72179502Y-78305820D01*
X72120537Y-78195506D01*
X72041185Y-78098815D01*
X71944494Y-78019463D01*
X71834180Y-77960498D01*
X71714482Y-77924188D01*
X71590000Y-77911928D01*
X71025750Y-77915000D01*
X70867000Y-78073750D01*
X70613000Y-78073750D01*
X70454250Y-77915000D01*
X69890000Y-77911928D01*
X69765518Y-77924188D01*
X69645820Y-77960498D01*
X69535506Y-78019463D01*
X69438815Y-78098815D01*
X69359463Y-78195506D01*
X69300498Y-78305820D01*
X69277502Y-78381626D01*
X69081355Y-78204822D01*
X68831252Y-78055843D01*
X68556891Y-77958519D01*
X68327000Y-78079186D01*
X68073000Y-78079186D01*
X67843109Y-77958519D01*
X67568748Y-78055843D01*
X67318645Y-78204822D01*
X67102412Y-78399731D01*
X66928359Y-78633080D01*
X66803175Y-78895901D01*
X66758524Y-79043110D01*
X42488072Y-79043110D01*
X42488072Y-78550000D01*
X42475812Y-78425518D01*
X42439502Y-78305820D01*
X42380537Y-78195506D01*
X42301185Y-78098815D01*
X42204494Y-78019463D01*
X42094180Y-77960498D01*
X41974482Y-77924188D01*
X41850000Y-77911928D01*
X40150000Y-77911928D01*
X40025518Y-77924188D01*
X39905820Y-77960498D01*
X39795506Y-78019463D01*
X39698815Y-78098815D01*
X39619463Y-78195506D01*
X39560498Y-78305820D01*
X39538487Y-78378380D01*
X39406632Y-78246525D01*
X39163411Y-78084010D01*
X38893158Y-77972068D01*
X38606260Y-77915000D01*
X38313740Y-77915000D01*
X38026842Y-77972068D01*
X37756589Y-78084010D01*
X37513368Y-78246525D01*
X37306525Y-78453368D01*
X37144010Y-78696589D01*
X37032068Y-78966842D01*
X36975000Y-79253740D01*
X33709088Y-79253740D01*
X33715990Y-79243411D01*
X33827932Y-78973158D01*
X33885000Y-78686260D01*
X33885000Y-78393740D01*
X33827932Y-78106842D01*
X33715990Y-77836589D01*
X33658134Y-77750000D01*
X73911928Y-77750000D01*
X73911928Y-79450000D01*
X73924188Y-79574482D01*
X73960498Y-79694180D01*
X74019463Y-79804494D01*
X74098815Y-79901185D01*
X74195506Y-79980537D01*
X74305820Y-80039502D01*
X74425518Y-80075812D01*
X74550000Y-80088072D01*
X76250000Y-80088072D01*
X76374482Y-80075812D01*
X76494180Y-80039502D01*
X76604494Y-79980537D01*
X76701185Y-79901185D01*
X76780537Y-79804494D01*
X76839502Y-79694180D01*
X76875812Y-79574482D01*
X76888072Y-79450000D01*
X76888072Y-77750000D01*
X76875812Y-77625518D01*
X76839502Y-77505820D01*
X76780537Y-77395506D01*
X76701185Y-77298815D01*
X76604494Y-77219463D01*
X76494180Y-77160498D01*
X76421620Y-77138487D01*
X76553475Y-77006632D01*
X76715990Y-76763411D01*
X76827932Y-76493158D01*
X76885000Y-76206260D01*
X76885000Y-75913740D01*
X76827932Y-75626842D01*
X76715990Y-75356589D01*
X76553475Y-75113368D01*
X76346632Y-74906525D01*
X76172240Y-74790000D01*
X76346632Y-74673475D01*
X76553475Y-74466632D01*
X76715990Y-74223411D01*
X76827932Y-73953158D01*
X76885000Y-73666260D01*
X76885000Y-73373740D01*
X76827932Y-73086842D01*
X76715990Y-72816589D01*
X76553475Y-72573368D01*
X76346632Y-72366525D01*
X76172240Y-72250000D01*
X76346632Y-72133475D01*
X76553475Y-71926632D01*
X76715990Y-71683411D01*
X76827932Y-71413158D01*
X76885000Y-71126260D01*
X76885000Y-70833740D01*
X76827932Y-70546842D01*
X76715990Y-70276589D01*
X76553475Y-70033368D01*
X76346632Y-69826525D01*
X76172240Y-69710000D01*
X76346632Y-69593475D01*
X76553475Y-69386632D01*
X76715990Y-69143411D01*
X76827932Y-68873158D01*
X76885000Y-68586260D01*
X76885000Y-68293740D01*
X76827932Y-68006842D01*
X76715990Y-67736589D01*
X76553475Y-67493368D01*
X76346632Y-67286525D01*
X76172240Y-67170000D01*
X76346632Y-67053475D01*
X76553475Y-66846632D01*
X76715990Y-66603411D01*
X76827932Y-66333158D01*
X76885000Y-66046260D01*
X76885000Y-65753740D01*
X76827932Y-65466842D01*
X76715990Y-65196589D01*
X76553475Y-64953368D01*
X76346632Y-64746525D01*
X76172240Y-64630000D01*
X76346632Y-64513475D01*
X76553475Y-64306632D01*
X76715990Y-64063411D01*
X76827932Y-63793158D01*
X76885000Y-63506260D01*
X76885000Y-63213740D01*
X76827932Y-62926842D01*
X76715990Y-62656589D01*
X76553475Y-62413368D01*
X76346632Y-62206525D01*
X76172240Y-62090000D01*
X76346632Y-61973475D01*
X76553475Y-61766632D01*
X76715990Y-61523411D01*
X76827932Y-61253158D01*
X76885000Y-60966260D01*
X76885000Y-60673740D01*
X76827932Y-60386842D01*
X76715990Y-60116589D01*
X76553475Y-59873368D01*
X76346632Y-59666525D01*
X76172240Y-59550000D01*
X76346632Y-59433475D01*
X76553475Y-59226632D01*
X76715990Y-58983411D01*
X76827932Y-58713158D01*
X76885000Y-58426260D01*
X76885000Y-58133740D01*
X76827932Y-57846842D01*
X76715990Y-57576589D01*
X76553475Y-57333368D01*
X76346632Y-57126525D01*
X76172240Y-57010000D01*
X76346632Y-56893475D01*
X76553475Y-56686632D01*
X76715990Y-56443411D01*
X76827932Y-56173158D01*
X76885000Y-55886260D01*
X76885000Y-55593740D01*
X76827932Y-55306842D01*
X76715990Y-55036589D01*
X76553475Y-54793368D01*
X76346632Y-54586525D01*
X76103411Y-54424010D01*
X75833158Y-54312068D01*
X75546260Y-54255000D01*
X75253740Y-54255000D01*
X74966842Y-54312068D01*
X74696589Y-54424010D01*
X74453368Y-54586525D01*
X74246525Y-54793368D01*
X74084010Y-55036589D01*
X73972068Y-55306842D01*
X73915000Y-55593740D01*
X73915000Y-55886260D01*
X73972068Y-56173158D01*
X74084010Y-56443411D01*
X74246525Y-56686632D01*
X74453368Y-56893475D01*
X74627760Y-57010000D01*
X74453368Y-57126525D01*
X74246525Y-57333368D01*
X74084010Y-57576589D01*
X73972068Y-57846842D01*
X73915000Y-58133740D01*
X73915000Y-58426260D01*
X73972068Y-58713158D01*
X74084010Y-58983411D01*
X74246525Y-59226632D01*
X74453368Y-59433475D01*
X74627760Y-59550000D01*
X74453368Y-59666525D01*
X74246525Y-59873368D01*
X74084010Y-60116589D01*
X73972068Y-60386842D01*
X73915000Y-60673740D01*
X73915000Y-60966260D01*
X73972068Y-61253158D01*
X74084010Y-61523411D01*
X74246525Y-61766632D01*
X74453368Y-61973475D01*
X74627760Y-62090000D01*
X74453368Y-62206525D01*
X74246525Y-62413368D01*
X74084010Y-62656589D01*
X73972068Y-62926842D01*
X73915000Y-63213740D01*
X73915000Y-63506260D01*
X73972068Y-63793158D01*
X74084010Y-64063411D01*
X74246525Y-64306632D01*
X74453368Y-64513475D01*
X74627760Y-64630000D01*
X74453368Y-64746525D01*
X74246525Y-64953368D01*
X74084010Y-65196589D01*
X73972068Y-65466842D01*
X73915000Y-65753740D01*
X73915000Y-66046260D01*
X73972068Y-66333158D01*
X74084010Y-66603411D01*
X74246525Y-66846632D01*
X74453368Y-67053475D01*
X74627760Y-67170000D01*
X74453368Y-67286525D01*
X74246525Y-67493368D01*
X74084010Y-67736589D01*
X73972068Y-68006842D01*
X73915000Y-68293740D01*
X73915000Y-68586260D01*
X73972068Y-68873158D01*
X74084010Y-69143411D01*
X74246525Y-69386632D01*
X74453368Y-69593475D01*
X74627760Y-69710000D01*
X74453368Y-69826525D01*
X74246525Y-70033368D01*
X74084010Y-70276589D01*
X73972068Y-70546842D01*
X73915000Y-70833740D01*
X73915000Y-71126260D01*
X73972068Y-71413158D01*
X74084010Y-71683411D01*
X74246525Y-71926632D01*
X74453368Y-72133475D01*
X74627760Y-72250000D01*
X74453368Y-72366525D01*
X74246525Y-72573368D01*
X74084010Y-72816589D01*
X73972068Y-73086842D01*
X73915000Y-73373740D01*
X73915000Y-73666260D01*
X73972068Y-73953158D01*
X74084010Y-74223411D01*
X74246525Y-74466632D01*
X74453368Y-74673475D01*
X74627760Y-74790000D01*
X74453368Y-74906525D01*
X74246525Y-75113368D01*
X74084010Y-75356589D01*
X73972068Y-75626842D01*
X73915000Y-75913740D01*
X73915000Y-76206260D01*
X73972068Y-76493158D01*
X74084010Y-76763411D01*
X74246525Y-77006632D01*
X74378380Y-77138487D01*
X74305820Y-77160498D01*
X74195506Y-77219463D01*
X74098815Y-77298815D01*
X74019463Y-77395506D01*
X73960498Y-77505820D01*
X73924188Y-77625518D01*
X73911928Y-77750000D01*
X33658134Y-77750000D01*
X33553475Y-77593368D01*
X33346632Y-77386525D01*
X33172240Y-77270000D01*
X33346632Y-77153475D01*
X33553475Y-76946632D01*
X33715990Y-76703411D01*
X33827932Y-76433158D01*
X33885000Y-76146260D01*
X33885000Y-75853740D01*
X33827932Y-75566842D01*
X33715990Y-75296589D01*
X33553475Y-75053368D01*
X33346632Y-74846525D01*
X33172240Y-74730000D01*
X33346632Y-74613475D01*
X33553475Y-74406632D01*
X33715990Y-74163411D01*
X33743058Y-74098061D01*
X56365000Y-74098061D01*
X56365000Y-74301939D01*
X56404774Y-74501898D01*
X56482795Y-74690256D01*
X56596063Y-74859774D01*
X56740226Y-75003937D01*
X56909744Y-75117205D01*
X57098102Y-75195226D01*
X57298061Y-75235000D01*
X57501939Y-75235000D01*
X57701898Y-75195226D01*
X57890256Y-75117205D01*
X58059774Y-75003937D01*
X58203937Y-74859774D01*
X58317205Y-74690256D01*
X58350199Y-74610601D01*
X58509744Y-74717205D01*
X58698102Y-74795226D01*
X58898061Y-74835000D01*
X59101939Y-74835000D01*
X59301898Y-74795226D01*
X59490256Y-74717205D01*
X59659774Y-74603937D01*
X59803937Y-74459774D01*
X59917205Y-74290256D01*
X59939921Y-74235413D01*
X62144192Y-74235413D01*
X62239956Y-74499814D01*
X62529571Y-74640704D01*
X62841108Y-74722384D01*
X63162595Y-74741718D01*
X63481675Y-74697961D01*
X63786088Y-74592795D01*
X63960044Y-74499814D01*
X64055808Y-74235413D01*
X68644192Y-74235413D01*
X68739956Y-74499814D01*
X69029571Y-74640704D01*
X69341108Y-74722384D01*
X69662595Y-74741718D01*
X69981675Y-74697961D01*
X70286088Y-74592795D01*
X70460044Y-74499814D01*
X70555808Y-74235413D01*
X69600000Y-73279605D01*
X68644192Y-74235413D01*
X64055808Y-74235413D01*
X63100000Y-73279605D01*
X62144192Y-74235413D01*
X59939921Y-74235413D01*
X59995226Y-74101898D01*
X60035000Y-73901939D01*
X60035000Y-73698061D01*
X59995226Y-73498102D01*
X59917205Y-73309744D01*
X59818884Y-73162595D01*
X61458282Y-73162595D01*
X61502039Y-73481675D01*
X61607205Y-73786088D01*
X61700186Y-73960044D01*
X61964587Y-74055808D01*
X62920395Y-73100000D01*
X63279605Y-73100000D01*
X64235413Y-74055808D01*
X64499814Y-73960044D01*
X64640704Y-73670429D01*
X64722384Y-73358892D01*
X64734189Y-73162595D01*
X67958282Y-73162595D01*
X68002039Y-73481675D01*
X68107205Y-73786088D01*
X68200186Y-73960044D01*
X68464587Y-74055808D01*
X69420395Y-73100000D01*
X69779605Y-73100000D01*
X70735413Y-74055808D01*
X70999814Y-73960044D01*
X71140704Y-73670429D01*
X71222384Y-73358892D01*
X71241718Y-73037405D01*
X71197961Y-72718325D01*
X71092795Y-72413912D01*
X70999814Y-72239956D01*
X70735413Y-72144192D01*
X69779605Y-73100000D01*
X69420395Y-73100000D01*
X68464587Y-72144192D01*
X68200186Y-72239956D01*
X68059296Y-72529571D01*
X67977616Y-72841108D01*
X67958282Y-73162595D01*
X64734189Y-73162595D01*
X64741718Y-73037405D01*
X64697961Y-72718325D01*
X64592795Y-72413912D01*
X64499814Y-72239956D01*
X64235413Y-72144192D01*
X63279605Y-73100000D01*
X62920395Y-73100000D01*
X61964587Y-72144192D01*
X61700186Y-72239956D01*
X61559296Y-72529571D01*
X61477616Y-72841108D01*
X61458282Y-73162595D01*
X59818884Y-73162595D01*
X59803937Y-73140226D01*
X59659774Y-72996063D01*
X59490256Y-72882795D01*
X59301898Y-72804774D01*
X59101939Y-72765000D01*
X58898061Y-72765000D01*
X58698102Y-72804774D01*
X58509744Y-72882795D01*
X58340226Y-72996063D01*
X58196063Y-73140226D01*
X58082795Y-73309744D01*
X58049801Y-73389399D01*
X57890256Y-73282795D01*
X57701898Y-73204774D01*
X57501939Y-73165000D01*
X57298061Y-73165000D01*
X57098102Y-73204774D01*
X56909744Y-73282795D01*
X56740226Y-73396063D01*
X56596063Y-73540226D01*
X56482795Y-73709744D01*
X56404774Y-73898102D01*
X56365000Y-74098061D01*
X33743058Y-74098061D01*
X33827932Y-73893158D01*
X33885000Y-73606260D01*
X33885000Y-73313740D01*
X33847855Y-73127000D01*
X49000000Y-73127000D01*
X49024776Y-73124560D01*
X49048601Y-73117333D01*
X49070557Y-73105597D01*
X49089803Y-73089803D01*
X49105597Y-73070557D01*
X49117333Y-73048601D01*
X49124560Y-73024776D01*
X49127000Y-73000000D01*
X49127000Y-71898061D01*
X55178000Y-71898061D01*
X55178000Y-72101939D01*
X55217774Y-72301898D01*
X55295795Y-72490256D01*
X55409063Y-72659774D01*
X55553226Y-72803937D01*
X55722744Y-72917205D01*
X55911102Y-72995226D01*
X56111061Y-73035000D01*
X56314939Y-73035000D01*
X56514898Y-72995226D01*
X56703256Y-72917205D01*
X56872774Y-72803937D01*
X57016937Y-72659774D01*
X57068312Y-72582886D01*
X57098102Y-72595226D01*
X57298061Y-72635000D01*
X57501939Y-72635000D01*
X57701898Y-72595226D01*
X57890256Y-72517205D01*
X58059774Y-72403937D01*
X58203937Y-72259774D01*
X58317205Y-72090256D01*
X58369259Y-71964587D01*
X62144192Y-71964587D01*
X63100000Y-72920395D01*
X64055808Y-71964587D01*
X68644192Y-71964587D01*
X69600000Y-72920395D01*
X70555808Y-71964587D01*
X70460044Y-71700186D01*
X70170429Y-71559296D01*
X69858892Y-71477616D01*
X69537405Y-71458282D01*
X69218325Y-71502039D01*
X68913912Y-71607205D01*
X68739956Y-71700186D01*
X68644192Y-71964587D01*
X64055808Y-71964587D01*
X63960044Y-71700186D01*
X63670429Y-71559296D01*
X63358892Y-71477616D01*
X63037405Y-71458282D01*
X62718325Y-71502039D01*
X62413912Y-71607205D01*
X62239956Y-71700186D01*
X62144192Y-71964587D01*
X58369259Y-71964587D01*
X58395226Y-71901898D01*
X58435000Y-71701939D01*
X58435000Y-71498061D01*
X58395226Y-71298102D01*
X58317205Y-71109744D01*
X58203937Y-70940226D01*
X58059774Y-70796063D01*
X57890256Y-70682795D01*
X57701898Y-70604774D01*
X57501939Y-70565000D01*
X57298061Y-70565000D01*
X57098102Y-70604774D01*
X56909744Y-70682795D01*
X56740226Y-70796063D01*
X56596063Y-70940226D01*
X56544688Y-71017114D01*
X56514898Y-71004774D01*
X56314939Y-70965000D01*
X56111061Y-70965000D01*
X55911102Y-71004774D01*
X55722744Y-71082795D01*
X55553226Y-71196063D01*
X55409063Y-71340226D01*
X55295795Y-71509744D01*
X55217774Y-71698102D01*
X55178000Y-71898061D01*
X49127000Y-71898061D01*
X49127000Y-67127000D01*
X50609289Y-67127000D01*
X50596063Y-67140226D01*
X50482795Y-67309744D01*
X50404774Y-67498102D01*
X50365000Y-67698061D01*
X50365000Y-67901939D01*
X50404774Y-68101898D01*
X50482795Y-68290256D01*
X50596063Y-68459774D01*
X50740226Y-68603937D01*
X50909744Y-68717205D01*
X51098102Y-68795226D01*
X51187076Y-68812924D01*
X51204774Y-68901898D01*
X51282795Y-69090256D01*
X51396063Y-69259774D01*
X51540226Y-69403937D01*
X51709744Y-69517205D01*
X51898102Y-69595226D01*
X52098061Y-69635000D01*
X52301939Y-69635000D01*
X52501898Y-69595226D01*
X52690256Y-69517205D01*
X52859774Y-69403937D01*
X53003937Y-69259774D01*
X53117205Y-69090256D01*
X53195226Y-68901898D01*
X53235000Y-68701939D01*
X53235000Y-68498061D01*
X53195226Y-68298102D01*
X53117205Y-68109744D01*
X53003937Y-67940226D01*
X52859774Y-67796063D01*
X52715331Y-67699549D01*
X59620185Y-67699549D01*
X59620185Y-67903427D01*
X59659959Y-68103386D01*
X59737980Y-68291744D01*
X59851248Y-68461262D01*
X59995411Y-68605425D01*
X60164929Y-68718693D01*
X60353287Y-68796714D01*
X60553246Y-68836488D01*
X60757124Y-68836488D01*
X60957083Y-68796714D01*
X61145441Y-68718693D01*
X61314959Y-68605425D01*
X61459122Y-68461262D01*
X61465000Y-68452465D01*
X61465000Y-68761033D01*
X61527832Y-69076912D01*
X61651082Y-69374463D01*
X61830013Y-69642252D01*
X62057748Y-69869987D01*
X62325537Y-70048918D01*
X62623088Y-70172168D01*
X62938967Y-70235000D01*
X63261033Y-70235000D01*
X63576912Y-70172168D01*
X63874463Y-70048918D01*
X64142252Y-69869987D01*
X64369987Y-69642252D01*
X64548918Y-69374463D01*
X64672168Y-69076912D01*
X64735000Y-68761033D01*
X64735000Y-68438967D01*
X67965000Y-68438967D01*
X67965000Y-68761033D01*
X68027832Y-69076912D01*
X68151082Y-69374463D01*
X68330013Y-69642252D01*
X68557748Y-69869987D01*
X68825537Y-70048918D01*
X69123088Y-70172168D01*
X69438967Y-70235000D01*
X69761033Y-70235000D01*
X70076912Y-70172168D01*
X70374463Y-70048918D01*
X70642252Y-69869987D01*
X70869987Y-69642252D01*
X71048918Y-69374463D01*
X71172168Y-69076912D01*
X71235000Y-68761033D01*
X71235000Y-68438967D01*
X71172168Y-68123088D01*
X71048918Y-67825537D01*
X70869987Y-67557748D01*
X70642252Y-67330013D01*
X70374463Y-67151082D01*
X70076912Y-67027832D01*
X69761033Y-66965000D01*
X69438967Y-66965000D01*
X69123088Y-67027832D01*
X68825537Y-67151082D01*
X68557748Y-67330013D01*
X68330013Y-67557748D01*
X68151082Y-67825537D01*
X68027832Y-68123088D01*
X67965000Y-68438967D01*
X64735000Y-68438967D01*
X64672168Y-68123088D01*
X64548918Y-67825537D01*
X64369987Y-67557748D01*
X64142252Y-67330013D01*
X63874463Y-67151082D01*
X63576912Y-67027832D01*
X63261033Y-66965000D01*
X62938967Y-66965000D01*
X62623088Y-67027832D01*
X62325537Y-67151082D01*
X62057748Y-67330013D01*
X61830013Y-67557748D01*
X61690185Y-67767015D01*
X61690185Y-67699549D01*
X61650411Y-67499590D01*
X61572390Y-67311232D01*
X61459122Y-67141714D01*
X61314959Y-66997551D01*
X61145441Y-66884283D01*
X60957083Y-66806262D01*
X60757124Y-66766488D01*
X60553246Y-66766488D01*
X60353287Y-66806262D01*
X60164929Y-66884283D01*
X59995411Y-66997551D01*
X59851248Y-67141714D01*
X59737980Y-67311232D01*
X59659959Y-67499590D01*
X59620185Y-67699549D01*
X52715331Y-67699549D01*
X52690256Y-67682795D01*
X52501898Y-67604774D01*
X52412924Y-67587076D01*
X52407042Y-67557508D01*
X52498102Y-67595226D01*
X52698061Y-67635000D01*
X52901939Y-67635000D01*
X53101898Y-67595226D01*
X53290256Y-67517205D01*
X53459774Y-67403937D01*
X53603937Y-67259774D01*
X53717205Y-67090256D01*
X53795226Y-66901898D01*
X53835000Y-66701939D01*
X53835000Y-66498061D01*
X53795226Y-66298102D01*
X53717205Y-66109744D01*
X53603937Y-65940226D01*
X53459774Y-65796063D01*
X53290256Y-65682795D01*
X53101898Y-65604774D01*
X52901939Y-65565000D01*
X52698061Y-65565000D01*
X52498102Y-65604774D01*
X52393964Y-65647910D01*
X52459774Y-65603937D01*
X52603937Y-65459774D01*
X52717205Y-65290256D01*
X52795226Y-65101898D01*
X52835000Y-64901939D01*
X52835000Y-64698061D01*
X52795226Y-64498102D01*
X52717205Y-64309744D01*
X52650127Y-64209354D01*
X52729705Y-64090256D01*
X52807726Y-63901898D01*
X52847500Y-63701939D01*
X52847500Y-63498061D01*
X52842528Y-63473061D01*
X54615000Y-63473061D01*
X54615000Y-63676939D01*
X54654774Y-63876898D01*
X54732795Y-64065256D01*
X54846063Y-64234774D01*
X54990226Y-64378937D01*
X55159744Y-64492205D01*
X55348102Y-64570226D01*
X55548061Y-64610000D01*
X55751939Y-64610000D01*
X55951898Y-64570226D01*
X56079664Y-64517303D01*
X56004774Y-64698102D01*
X55965000Y-64898061D01*
X55965000Y-65101939D01*
X56004774Y-65301898D01*
X56082795Y-65490256D01*
X56196063Y-65659774D01*
X56340226Y-65803937D01*
X56509744Y-65917205D01*
X56698102Y-65995226D01*
X56898061Y-66035000D01*
X57101939Y-66035000D01*
X57301898Y-65995226D01*
X57490256Y-65917205D01*
X57518907Y-65898061D01*
X65365000Y-65898061D01*
X65365000Y-66101939D01*
X65404774Y-66301898D01*
X65482795Y-66490256D01*
X65596063Y-66659774D01*
X65740226Y-66803937D01*
X65909744Y-66917205D01*
X66098102Y-66995226D01*
X66298061Y-67035000D01*
X66501939Y-67035000D01*
X66701898Y-66995226D01*
X66890256Y-66917205D01*
X67059774Y-66803937D01*
X67203937Y-66659774D01*
X67317205Y-66490256D01*
X67395226Y-66301898D01*
X67435000Y-66101939D01*
X67435000Y-65898061D01*
X67395226Y-65698102D01*
X67317205Y-65509744D01*
X67203937Y-65340226D01*
X67059774Y-65196063D01*
X66890256Y-65082795D01*
X66701898Y-65004774D01*
X66501939Y-64965000D01*
X66298061Y-64965000D01*
X66098102Y-65004774D01*
X65909744Y-65082795D01*
X65740226Y-65196063D01*
X65596063Y-65340226D01*
X65482795Y-65509744D01*
X65404774Y-65698102D01*
X65365000Y-65898061D01*
X57518907Y-65898061D01*
X57659774Y-65803937D01*
X57803937Y-65659774D01*
X57917205Y-65490256D01*
X57995226Y-65301898D01*
X58035000Y-65101939D01*
X58035000Y-64898061D01*
X57995226Y-64698102D01*
X57917205Y-64509744D01*
X57803937Y-64340226D01*
X57659774Y-64196063D01*
X57490256Y-64082795D01*
X57301898Y-64004774D01*
X57101939Y-63965000D01*
X56898061Y-63965000D01*
X56698102Y-64004774D01*
X56570336Y-64057697D01*
X56645226Y-63876898D01*
X56685000Y-63676939D01*
X56685000Y-63473061D01*
X56645226Y-63273102D01*
X56567205Y-63084744D01*
X56453937Y-62915226D01*
X56309774Y-62771063D01*
X56140256Y-62657795D01*
X55951898Y-62579774D01*
X55751939Y-62540000D01*
X55548061Y-62540000D01*
X55348102Y-62579774D01*
X55159744Y-62657795D01*
X54990226Y-62771063D01*
X54846063Y-62915226D01*
X54732795Y-63084744D01*
X54654774Y-63273102D01*
X54615000Y-63473061D01*
X52842528Y-63473061D01*
X52807726Y-63298102D01*
X52729705Y-63109744D01*
X52616437Y-62940226D01*
X52472274Y-62796063D01*
X52302756Y-62682795D01*
X52114398Y-62604774D01*
X51914439Y-62565000D01*
X51710561Y-62565000D01*
X51510602Y-62604774D01*
X51322244Y-62682795D01*
X51152726Y-62796063D01*
X51008563Y-62940226D01*
X50895295Y-63109744D01*
X50817274Y-63298102D01*
X50777500Y-63498061D01*
X50777500Y-63701939D01*
X50811526Y-63873000D01*
X49190711Y-63873000D01*
X49203937Y-63859774D01*
X49317205Y-63690256D01*
X49395226Y-63501898D01*
X49435000Y-63301939D01*
X49435000Y-63098061D01*
X49395226Y-62898102D01*
X49317205Y-62709744D01*
X49203937Y-62540226D01*
X49059774Y-62396063D01*
X48913104Y-62298061D01*
X57265000Y-62298061D01*
X57265000Y-62501939D01*
X57304774Y-62701898D01*
X57382795Y-62890256D01*
X57496063Y-63059774D01*
X57640226Y-63203937D01*
X57809744Y-63317205D01*
X57998102Y-63395226D01*
X58198061Y-63435000D01*
X58401939Y-63435000D01*
X58601898Y-63395226D01*
X58790256Y-63317205D01*
X58959774Y-63203937D01*
X59103937Y-63059774D01*
X59217205Y-62890256D01*
X59295226Y-62701898D01*
X59335000Y-62501939D01*
X59335000Y-62298061D01*
X60465000Y-62298061D01*
X60465000Y-62501939D01*
X60504774Y-62701898D01*
X60582795Y-62890256D01*
X60696063Y-63059774D01*
X60840226Y-63203937D01*
X61009744Y-63317205D01*
X61198102Y-63395226D01*
X61398061Y-63435000D01*
X61601939Y-63435000D01*
X61801898Y-63395226D01*
X61990256Y-63317205D01*
X62159774Y-63203937D01*
X62303937Y-63059774D01*
X62417205Y-62890256D01*
X62495226Y-62701898D01*
X62535000Y-62501939D01*
X62535000Y-62298061D01*
X62495226Y-62098102D01*
X62417205Y-61909744D01*
X62303937Y-61740226D01*
X62159774Y-61596063D01*
X61990256Y-61482795D01*
X61801898Y-61404774D01*
X61601939Y-61365000D01*
X61398061Y-61365000D01*
X61198102Y-61404774D01*
X61009744Y-61482795D01*
X60840226Y-61596063D01*
X60696063Y-61740226D01*
X60582795Y-61909744D01*
X60504774Y-62098102D01*
X60465000Y-62298061D01*
X59335000Y-62298061D01*
X59295226Y-62098102D01*
X59217205Y-61909744D01*
X59103937Y-61740226D01*
X58959774Y-61596063D01*
X58790256Y-61482795D01*
X58601898Y-61404774D01*
X58401939Y-61365000D01*
X58198061Y-61365000D01*
X57998102Y-61404774D01*
X57809744Y-61482795D01*
X57640226Y-61596063D01*
X57496063Y-61740226D01*
X57382795Y-61909744D01*
X57304774Y-62098102D01*
X57265000Y-62298061D01*
X48913104Y-62298061D01*
X48890256Y-62282795D01*
X48701898Y-62204774D01*
X48501939Y-62165000D01*
X48298061Y-62165000D01*
X48098102Y-62204774D01*
X47909744Y-62282795D01*
X47740226Y-62396063D01*
X47596063Y-62540226D01*
X47482795Y-62709744D01*
X47404774Y-62898102D01*
X47365000Y-63098061D01*
X47365000Y-63301939D01*
X47404774Y-63501898D01*
X47482795Y-63690256D01*
X47596063Y-63859774D01*
X47609289Y-63873000D01*
X47127000Y-63873000D01*
X47127000Y-61036307D01*
X47195691Y-61139110D01*
X47400890Y-61344309D01*
X47642178Y-61505533D01*
X47910283Y-61616586D01*
X48194902Y-61673200D01*
X48485098Y-61673200D01*
X48769717Y-61616586D01*
X49037822Y-61505533D01*
X49279110Y-61344309D01*
X49484309Y-61139110D01*
X49645533Y-60897822D01*
X49653164Y-60879399D01*
X49709744Y-60917205D01*
X49898102Y-60995226D01*
X50098061Y-61035000D01*
X50301939Y-61035000D01*
X50501898Y-60995226D01*
X50690256Y-60917205D01*
X50700000Y-60910694D01*
X50709744Y-60917205D01*
X50898102Y-60995226D01*
X51098061Y-61035000D01*
X51301939Y-61035000D01*
X51501898Y-60995226D01*
X51690256Y-60917205D01*
X51859774Y-60803937D01*
X52003937Y-60659774D01*
X52117205Y-60490256D01*
X52195226Y-60301898D01*
X52235000Y-60101939D01*
X52235000Y-59898061D01*
X52195226Y-59698102D01*
X52184854Y-59673061D01*
X55965000Y-59673061D01*
X55965000Y-59876939D01*
X56004774Y-60076898D01*
X56082795Y-60265256D01*
X56196063Y-60434774D01*
X56340226Y-60578937D01*
X56509744Y-60692205D01*
X56698102Y-60770226D01*
X56898061Y-60810000D01*
X57101939Y-60810000D01*
X57301898Y-60770226D01*
X57490256Y-60692205D01*
X57659774Y-60578937D01*
X57775000Y-60463711D01*
X57790226Y-60478937D01*
X57959744Y-60592205D01*
X58148102Y-60670226D01*
X58348061Y-60710000D01*
X58551939Y-60710000D01*
X58751898Y-60670226D01*
X58940256Y-60592205D01*
X59109774Y-60478937D01*
X59253937Y-60334774D01*
X59367205Y-60165256D01*
X59445226Y-59976898D01*
X59485000Y-59776939D01*
X59485000Y-59573061D01*
X59445226Y-59373102D01*
X59367205Y-59184744D01*
X59253937Y-59015226D01*
X59109774Y-58871063D01*
X58940256Y-58757795D01*
X58751898Y-58679774D01*
X58551939Y-58640000D01*
X58348061Y-58640000D01*
X58148102Y-58679774D01*
X57959744Y-58757795D01*
X57790226Y-58871063D01*
X57675000Y-58986289D01*
X57659774Y-58971063D01*
X57490256Y-58857795D01*
X57301898Y-58779774D01*
X57101939Y-58740000D01*
X56898061Y-58740000D01*
X56698102Y-58779774D01*
X56509744Y-58857795D01*
X56340226Y-58971063D01*
X56196063Y-59115226D01*
X56082795Y-59284744D01*
X56004774Y-59473102D01*
X55965000Y-59673061D01*
X52184854Y-59673061D01*
X52117205Y-59509744D01*
X52003937Y-59340226D01*
X51859774Y-59196063D01*
X51690256Y-59082795D01*
X51501898Y-59004774D01*
X51301939Y-58965000D01*
X51098061Y-58965000D01*
X50898102Y-59004774D01*
X50709744Y-59082795D01*
X50700000Y-59089306D01*
X50690256Y-59082795D01*
X50501898Y-59004774D01*
X50301939Y-58965000D01*
X50098061Y-58965000D01*
X49898102Y-59004774D01*
X49709744Y-59082795D01*
X49540226Y-59196063D01*
X49479854Y-59256435D01*
X49279110Y-59055691D01*
X49037822Y-58894467D01*
X48769717Y-58783414D01*
X48485098Y-58726800D01*
X48194902Y-58726800D01*
X47910283Y-58783414D01*
X47642178Y-58894467D01*
X47400890Y-59055691D01*
X47195691Y-59260890D01*
X47070000Y-59448999D01*
X46944309Y-59260890D01*
X46739110Y-59055691D01*
X46497822Y-58894467D01*
X46229717Y-58783414D01*
X45945098Y-58726800D01*
X45654902Y-58726800D01*
X45370283Y-58783414D01*
X45102178Y-58894467D01*
X44860890Y-59055691D01*
X44655691Y-59260890D01*
X44494467Y-59502178D01*
X44383414Y-59770283D01*
X44362982Y-59873000D01*
X44124353Y-59873000D01*
X44195226Y-59701898D01*
X44235000Y-59501939D01*
X44235000Y-59298061D01*
X44195226Y-59098102D01*
X44117205Y-58909744D01*
X44003937Y-58740226D01*
X43859774Y-58596063D01*
X43690256Y-58482795D01*
X43501898Y-58404774D01*
X43301939Y-58365000D01*
X43098061Y-58365000D01*
X42898102Y-58404774D01*
X42709744Y-58482795D01*
X42540226Y-58596063D01*
X42396063Y-58740226D01*
X42282795Y-58909744D01*
X42204774Y-59098102D01*
X42165000Y-59298061D01*
X42165000Y-59501939D01*
X42204774Y-59701898D01*
X42275647Y-59873000D01*
X33593320Y-59873000D01*
X33553475Y-59813368D01*
X33346632Y-59606525D01*
X33172240Y-59490000D01*
X33346632Y-59373475D01*
X33553475Y-59166632D01*
X33715990Y-58923411D01*
X33827932Y-58653158D01*
X33885000Y-58366260D01*
X33885000Y-58073740D01*
X33827932Y-57786842D01*
X33715990Y-57516589D01*
X33553475Y-57273368D01*
X33421620Y-57141513D01*
X33494180Y-57119502D01*
X33604494Y-57060537D01*
X33701185Y-56981185D01*
X33780537Y-56884494D01*
X33839502Y-56774180D01*
X33875812Y-56654482D01*
X33888072Y-56530000D01*
X33888072Y-55698061D01*
X42565000Y-55698061D01*
X42565000Y-55901939D01*
X42604774Y-56101898D01*
X42682795Y-56290256D01*
X42796063Y-56459774D01*
X42940226Y-56603937D01*
X43109744Y-56717205D01*
X43298102Y-56795226D01*
X43498061Y-56835000D01*
X43701939Y-56835000D01*
X43901898Y-56795226D01*
X44090256Y-56717205D01*
X44259774Y-56603937D01*
X44403937Y-56459774D01*
X44517205Y-56290256D01*
X44595226Y-56101898D01*
X44635000Y-55901939D01*
X44635000Y-55698061D01*
X44595226Y-55498102D01*
X44517205Y-55309744D01*
X44403937Y-55140226D01*
X44259774Y-54996063D01*
X44090256Y-54882795D01*
X43901898Y-54804774D01*
X43701939Y-54765000D01*
X43498061Y-54765000D01*
X43298102Y-54804774D01*
X43109744Y-54882795D01*
X42940226Y-54996063D01*
X42796063Y-55140226D01*
X42682795Y-55309744D01*
X42604774Y-55498102D01*
X42565000Y-55698061D01*
X33888072Y-55698061D01*
X33888072Y-54830000D01*
X33875812Y-54705518D01*
X33839502Y-54585820D01*
X33780537Y-54475506D01*
X33701185Y-54378815D01*
X33604494Y-54299463D01*
X33494180Y-54240498D01*
X33374482Y-54204188D01*
X33250000Y-54191928D01*
X31550000Y-54191928D01*
X31425518Y-54204188D01*
X31305820Y-54240498D01*
X31195506Y-54299463D01*
X31098815Y-54378815D01*
X31019463Y-54475506D01*
X30960498Y-54585820D01*
X30924188Y-54705518D01*
X30911928Y-54830000D01*
X30911928Y-56530000D01*
X30924188Y-56654482D01*
X30960498Y-56774180D01*
X31019463Y-56884494D01*
X31098815Y-56981185D01*
X31195506Y-57060537D01*
X31305820Y-57119502D01*
X31378380Y-57141513D01*
X31246525Y-57273368D01*
X31084010Y-57516589D01*
X30972068Y-57786842D01*
X30915000Y-58073740D01*
X30915000Y-58366260D01*
X30972068Y-58653158D01*
X31084010Y-58923411D01*
X31246525Y-59166632D01*
X31453368Y-59373475D01*
X31627760Y-59490000D01*
X31453368Y-59606525D01*
X31246525Y-59813368D01*
X31206680Y-59873000D01*
X29660000Y-59873000D01*
X29660000Y-51350000D01*
X36311928Y-51350000D01*
X36311928Y-53050000D01*
X36324188Y-53174482D01*
X36360498Y-53294180D01*
X36419463Y-53404494D01*
X36498815Y-53501185D01*
X36595506Y-53580537D01*
X36705820Y-53639502D01*
X36825518Y-53675812D01*
X36950000Y-53688072D01*
X38650000Y-53688072D01*
X38774482Y-53675812D01*
X38894180Y-53639502D01*
X39004494Y-53580537D01*
X39101185Y-53501185D01*
X39180537Y-53404494D01*
X39239502Y-53294180D01*
X39261513Y-53221620D01*
X39393368Y-53353475D01*
X39636589Y-53515990D01*
X39906842Y-53627932D01*
X40193740Y-53685000D01*
X40486260Y-53685000D01*
X40773158Y-53627932D01*
X41043411Y-53515990D01*
X41286632Y-53353475D01*
X41493475Y-53146632D01*
X41615195Y-52964466D01*
X41684822Y-53081355D01*
X41879731Y-53297588D01*
X42113080Y-53471641D01*
X42375901Y-53596825D01*
X42523110Y-53641476D01*
X42753000Y-53520155D01*
X42753000Y-52327000D01*
X43007000Y-52327000D01*
X43007000Y-53520155D01*
X43236890Y-53641476D01*
X43384099Y-53596825D01*
X43646920Y-53471641D01*
X43880269Y-53297588D01*
X44075178Y-53081355D01*
X44224157Y-52831252D01*
X44321481Y-52556891D01*
X44200814Y-52327000D01*
X43007000Y-52327000D01*
X42753000Y-52327000D01*
X42733000Y-52327000D01*
X42733000Y-52073000D01*
X42753000Y-52073000D01*
X42753000Y-50879845D01*
X43007000Y-50879845D01*
X43007000Y-52073000D01*
X44200814Y-52073000D01*
X44321481Y-51843109D01*
X44224157Y-51568748D01*
X44075178Y-51318645D01*
X43880269Y-51102412D01*
X43646920Y-50928359D01*
X43384099Y-50803175D01*
X43236890Y-50758524D01*
X43007000Y-50879845D01*
X42753000Y-50879845D01*
X42523110Y-50758524D01*
X42375901Y-50803175D01*
X42113080Y-50928359D01*
X41879731Y-51102412D01*
X41684822Y-51318645D01*
X41615195Y-51435534D01*
X41493475Y-51253368D01*
X41286632Y-51046525D01*
X41043411Y-50884010D01*
X40773158Y-50772068D01*
X40486260Y-50715000D01*
X40193740Y-50715000D01*
X39906842Y-50772068D01*
X39636589Y-50884010D01*
X39393368Y-51046525D01*
X39261513Y-51178380D01*
X39239502Y-51105820D01*
X39180537Y-50995506D01*
X39101185Y-50898815D01*
X39004494Y-50819463D01*
X38894180Y-50760498D01*
X38774482Y-50724188D01*
X38650000Y-50711928D01*
X36950000Y-50711928D01*
X36825518Y-50724188D01*
X36705820Y-50760498D01*
X36595506Y-50819463D01*
X36498815Y-50898815D01*
X36419463Y-50995506D01*
X36360498Y-51105820D01*
X36324188Y-51225518D01*
X36311928Y-51350000D01*
X29660000Y-51350000D01*
X29660000Y-47029392D01*
X29696333Y-46622285D01*
X30165000Y-46622285D01*
X30165000Y-47377715D01*
X30312377Y-48118628D01*
X30601467Y-48816554D01*
X31021161Y-49444670D01*
X31555330Y-49978839D01*
X32183446Y-50398533D01*
X32881372Y-50687623D01*
X33622285Y-50835000D01*
X34377715Y-50835000D01*
X35118628Y-50687623D01*
X35816554Y-50398533D01*
X36444670Y-49978839D01*
X36525448Y-49898061D01*
X53565000Y-49898061D01*
X53565000Y-50101939D01*
X53604774Y-50301898D01*
X53645409Y-50400000D01*
X53604774Y-50498102D01*
X53565000Y-50698061D01*
X53565000Y-50901939D01*
X53604774Y-51101898D01*
X53682795Y-51290256D01*
X53756123Y-51400000D01*
X53682795Y-51509744D01*
X53604774Y-51698102D01*
X53565000Y-51898061D01*
X53565000Y-52101939D01*
X53604774Y-52301898D01*
X53682795Y-52490256D01*
X53796063Y-52659774D01*
X53940226Y-52803937D01*
X54109744Y-52917205D01*
X54298102Y-52995226D01*
X54498061Y-53035000D01*
X54701939Y-53035000D01*
X54901898Y-52995226D01*
X55090256Y-52917205D01*
X55100000Y-52910694D01*
X55109744Y-52917205D01*
X55298102Y-52995226D01*
X55498061Y-53035000D01*
X55701939Y-53035000D01*
X55901898Y-52995226D01*
X56090256Y-52917205D01*
X56259774Y-52803937D01*
X56403937Y-52659774D01*
X56517205Y-52490256D01*
X56595226Y-52301898D01*
X56635000Y-52101939D01*
X56635000Y-51898061D01*
X56607042Y-51757508D01*
X56698102Y-51795226D01*
X56898061Y-51835000D01*
X57101939Y-51835000D01*
X57123680Y-51830675D01*
X57111928Y-51950000D01*
X57111928Y-53650000D01*
X57124188Y-53774482D01*
X57160498Y-53894180D01*
X57219463Y-54004494D01*
X57298815Y-54101185D01*
X57395506Y-54180537D01*
X57505820Y-54239502D01*
X57578380Y-54261513D01*
X57446525Y-54393368D01*
X57284010Y-54636589D01*
X57172068Y-54906842D01*
X57115000Y-55193740D01*
X57115000Y-55486260D01*
X57172068Y-55773158D01*
X57284010Y-56043411D01*
X57446525Y-56286632D01*
X57653368Y-56493475D01*
X57896589Y-56655990D01*
X58166842Y-56767932D01*
X58453740Y-56825000D01*
X58746260Y-56825000D01*
X59033158Y-56767932D01*
X59303411Y-56655990D01*
X59546632Y-56493475D01*
X59753475Y-56286632D01*
X59870000Y-56112240D01*
X59986525Y-56286632D01*
X60193368Y-56493475D01*
X60436589Y-56655990D01*
X60706842Y-56767932D01*
X60993740Y-56825000D01*
X61286260Y-56825000D01*
X61573158Y-56767932D01*
X61843411Y-56655990D01*
X62086632Y-56493475D01*
X62293475Y-56286632D01*
X62415195Y-56104466D01*
X62484822Y-56221355D01*
X62679731Y-56437588D01*
X62913080Y-56611641D01*
X63175901Y-56736825D01*
X63323110Y-56781476D01*
X63553000Y-56660155D01*
X63553000Y-55467000D01*
X63533000Y-55467000D01*
X63533000Y-55213000D01*
X63553000Y-55213000D01*
X63553000Y-52927000D01*
X63533000Y-52927000D01*
X63533000Y-52673000D01*
X63553000Y-52673000D01*
X63553000Y-51479845D01*
X63807000Y-51479845D01*
X63807000Y-52673000D01*
X63827000Y-52673000D01*
X63827000Y-52927000D01*
X63807000Y-52927000D01*
X63807000Y-55213000D01*
X63827000Y-55213000D01*
X63827000Y-55467000D01*
X63807000Y-55467000D01*
X63807000Y-56660155D01*
X64036890Y-56781476D01*
X64184099Y-56736825D01*
X64446920Y-56611641D01*
X64680269Y-56437588D01*
X64875178Y-56221355D01*
X64944805Y-56104466D01*
X65066525Y-56286632D01*
X65273368Y-56493475D01*
X65516589Y-56655990D01*
X65786842Y-56767932D01*
X66073740Y-56825000D01*
X66366260Y-56825000D01*
X66653158Y-56767932D01*
X66923411Y-56655990D01*
X67166632Y-56493475D01*
X67373475Y-56286632D01*
X67490000Y-56112240D01*
X67606525Y-56286632D01*
X67813368Y-56493475D01*
X68056589Y-56655990D01*
X68326842Y-56767932D01*
X68613740Y-56825000D01*
X68906260Y-56825000D01*
X69193158Y-56767932D01*
X69463411Y-56655990D01*
X69706632Y-56493475D01*
X69913475Y-56286632D01*
X70075990Y-56043411D01*
X70187932Y-55773158D01*
X70245000Y-55486260D01*
X70245000Y-55193740D01*
X70187932Y-54906842D01*
X70075990Y-54636589D01*
X69913475Y-54393368D01*
X69706632Y-54186525D01*
X69532240Y-54070000D01*
X69706632Y-53953475D01*
X69913475Y-53746632D01*
X70075990Y-53503411D01*
X70187932Y-53233158D01*
X70245000Y-52946260D01*
X70245000Y-52653740D01*
X70187932Y-52366842D01*
X70075990Y-52096589D01*
X69913475Y-51853368D01*
X69706632Y-51646525D01*
X69463411Y-51484010D01*
X69193158Y-51372068D01*
X68906260Y-51315000D01*
X68613740Y-51315000D01*
X68326842Y-51372068D01*
X68056589Y-51484010D01*
X67813368Y-51646525D01*
X67606525Y-51853368D01*
X67490000Y-52027760D01*
X67373475Y-51853368D01*
X67166632Y-51646525D01*
X66923411Y-51484010D01*
X66653158Y-51372068D01*
X66366260Y-51315000D01*
X66073740Y-51315000D01*
X65786842Y-51372068D01*
X65516589Y-51484010D01*
X65273368Y-51646525D01*
X65066525Y-51853368D01*
X64944805Y-52035534D01*
X64875178Y-51918645D01*
X64680269Y-51702412D01*
X64446920Y-51528359D01*
X64184099Y-51403175D01*
X64036890Y-51358524D01*
X63807000Y-51479845D01*
X63553000Y-51479845D01*
X63323110Y-51358524D01*
X63175901Y-51403175D01*
X62913080Y-51528359D01*
X62679731Y-51702412D01*
X62484822Y-51918645D01*
X62415195Y-52035534D01*
X62293475Y-51853368D01*
X62086632Y-51646525D01*
X61843411Y-51484010D01*
X61643165Y-51401066D01*
X61717205Y-51290256D01*
X61795226Y-51101898D01*
X61835000Y-50901939D01*
X61835000Y-50698061D01*
X61795226Y-50498102D01*
X61754591Y-50400000D01*
X61795226Y-50301898D01*
X61835000Y-50101939D01*
X61835000Y-49898061D01*
X61795226Y-49698102D01*
X61740712Y-49566496D01*
X61833740Y-49585000D01*
X62126260Y-49585000D01*
X62413158Y-49527932D01*
X62683411Y-49415990D01*
X62926632Y-49253475D01*
X63133475Y-49046632D01*
X63295990Y-48803411D01*
X63407932Y-48533158D01*
X63465000Y-48246260D01*
X63465000Y-47953740D01*
X63407932Y-47666842D01*
X63295990Y-47396589D01*
X63133475Y-47153368D01*
X62926632Y-46946525D01*
X62683411Y-46784010D01*
X62413158Y-46672068D01*
X62126260Y-46615000D01*
X61833740Y-46615000D01*
X61546842Y-46672068D01*
X61276589Y-46784010D01*
X61033368Y-46946525D01*
X60826525Y-47153368D01*
X60710000Y-47327760D01*
X60593475Y-47153368D01*
X60386632Y-46946525D01*
X60143411Y-46784010D01*
X59873158Y-46672068D01*
X59586260Y-46615000D01*
X59293740Y-46615000D01*
X59006842Y-46672068D01*
X58736589Y-46784010D01*
X58493368Y-46946525D01*
X58361513Y-47078380D01*
X58339502Y-47005820D01*
X58280537Y-46895506D01*
X58201185Y-46798815D01*
X58104494Y-46719463D01*
X57994180Y-46660498D01*
X57874482Y-46624188D01*
X57750000Y-46611928D01*
X56050000Y-46611928D01*
X55925518Y-46624188D01*
X55805820Y-46660498D01*
X55695506Y-46719463D01*
X55598815Y-46798815D01*
X55519463Y-46895506D01*
X55460498Y-47005820D01*
X55424188Y-47125518D01*
X55411928Y-47250000D01*
X55411928Y-48950000D01*
X55415032Y-48981515D01*
X55298102Y-49004774D01*
X55109744Y-49082795D01*
X55100000Y-49089306D01*
X55090256Y-49082795D01*
X54901898Y-49004774D01*
X54701939Y-48965000D01*
X54498061Y-48965000D01*
X54298102Y-49004774D01*
X54109744Y-49082795D01*
X53940226Y-49196063D01*
X53796063Y-49340226D01*
X53682795Y-49509744D01*
X53604774Y-49698102D01*
X53565000Y-49898061D01*
X36525448Y-49898061D01*
X36978839Y-49444670D01*
X37398533Y-48816554D01*
X37687623Y-48118628D01*
X37719794Y-47956890D01*
X38758524Y-47956890D01*
X38803175Y-48104099D01*
X38928359Y-48366920D01*
X39102412Y-48600269D01*
X39318645Y-48795178D01*
X39568748Y-48944157D01*
X39843109Y-49041481D01*
X40073000Y-48920814D01*
X40073000Y-47727000D01*
X40327000Y-47727000D01*
X40327000Y-48920814D01*
X40556891Y-49041481D01*
X40831252Y-48944157D01*
X41081355Y-48795178D01*
X41297588Y-48600269D01*
X41471641Y-48366920D01*
X41596825Y-48104099D01*
X41641476Y-47956890D01*
X41520155Y-47727000D01*
X40327000Y-47727000D01*
X40073000Y-47727000D01*
X38879845Y-47727000D01*
X38758524Y-47956890D01*
X37719794Y-47956890D01*
X37835000Y-47377715D01*
X37835000Y-46622285D01*
X37687623Y-45881372D01*
X37398533Y-45183446D01*
X36978839Y-44555330D01*
X36633509Y-44210000D01*
X38711928Y-44210000D01*
X38711928Y-45910000D01*
X38724188Y-46034482D01*
X38760498Y-46154180D01*
X38819463Y-46264494D01*
X38898815Y-46361185D01*
X38995506Y-46440537D01*
X39105820Y-46499502D01*
X39186466Y-46523966D01*
X39102412Y-46599731D01*
X38928359Y-46833080D01*
X38803175Y-47095901D01*
X38758524Y-47243110D01*
X38879845Y-47473000D01*
X40073000Y-47473000D01*
X40073000Y-47453000D01*
X40327000Y-47453000D01*
X40327000Y-47473000D01*
X41520155Y-47473000D01*
X41641476Y-47243110D01*
X41596825Y-47095901D01*
X41471641Y-46833080D01*
X41297588Y-46599731D01*
X41213534Y-46523966D01*
X41294180Y-46499502D01*
X41404494Y-46440537D01*
X41501185Y-46361185D01*
X41580537Y-46264494D01*
X41639502Y-46154180D01*
X41675812Y-46034482D01*
X41688072Y-45910000D01*
X41688072Y-44750000D01*
X67111928Y-44750000D01*
X67111928Y-46450000D01*
X67124188Y-46574482D01*
X67160498Y-46694180D01*
X67219463Y-46804494D01*
X67298815Y-46901185D01*
X67395506Y-46980537D01*
X67505820Y-47039502D01*
X67578380Y-47061513D01*
X67446525Y-47193368D01*
X67284010Y-47436589D01*
X67172068Y-47706842D01*
X67115000Y-47993740D01*
X67115000Y-48286260D01*
X67172068Y-48573158D01*
X67284010Y-48843411D01*
X67446525Y-49086632D01*
X67653368Y-49293475D01*
X67896589Y-49455990D01*
X68166842Y-49567932D01*
X68453740Y-49625000D01*
X68746260Y-49625000D01*
X69033158Y-49567932D01*
X69303411Y-49455990D01*
X69546632Y-49293475D01*
X69753475Y-49086632D01*
X69915990Y-48843411D01*
X70027932Y-48573158D01*
X70085000Y-48286260D01*
X70085000Y-47993740D01*
X70027932Y-47706842D01*
X69915990Y-47436589D01*
X69753475Y-47193368D01*
X69621620Y-47061513D01*
X69694180Y-47039502D01*
X69804494Y-46980537D01*
X69901185Y-46901185D01*
X69980537Y-46804494D01*
X70039502Y-46694180D01*
X70061311Y-46622285D01*
X70165000Y-46622285D01*
X70165000Y-47377715D01*
X70312377Y-48118628D01*
X70601467Y-48816554D01*
X71021161Y-49444670D01*
X71555330Y-49978839D01*
X72183446Y-50398533D01*
X72881372Y-50687623D01*
X73622285Y-50835000D01*
X74377715Y-50835000D01*
X75118628Y-50687623D01*
X75816554Y-50398533D01*
X76444670Y-49978839D01*
X76978839Y-49444670D01*
X77398533Y-48816554D01*
X77687623Y-48118628D01*
X77835000Y-47377715D01*
X77835000Y-46622285D01*
X77687623Y-45881372D01*
X77398533Y-45183446D01*
X76978839Y-44555330D01*
X76444670Y-44021161D01*
X75816554Y-43601467D01*
X75118628Y-43312377D01*
X74377715Y-43165000D01*
X73622285Y-43165000D01*
X72881372Y-43312377D01*
X72183446Y-43601467D01*
X71555330Y-44021161D01*
X71021161Y-44555330D01*
X70601467Y-45183446D01*
X70312377Y-45881372D01*
X70165000Y-46622285D01*
X70061311Y-46622285D01*
X70075812Y-46574482D01*
X70088072Y-46450000D01*
X70088072Y-44750000D01*
X70075812Y-44625518D01*
X70039502Y-44505820D01*
X69980537Y-44395506D01*
X69901185Y-44298815D01*
X69804494Y-44219463D01*
X69694180Y-44160498D01*
X69574482Y-44124188D01*
X69450000Y-44111928D01*
X67750000Y-44111928D01*
X67625518Y-44124188D01*
X67505820Y-44160498D01*
X67395506Y-44219463D01*
X67298815Y-44298815D01*
X67219463Y-44395506D01*
X67160498Y-44505820D01*
X67124188Y-44625518D01*
X67111928Y-44750000D01*
X41688072Y-44750000D01*
X41688072Y-44210000D01*
X41675812Y-44085518D01*
X41639502Y-43965820D01*
X41580537Y-43855506D01*
X41501185Y-43758815D01*
X41404494Y-43679463D01*
X41294180Y-43620498D01*
X41174482Y-43584188D01*
X41050000Y-43571928D01*
X39350000Y-43571928D01*
X39225518Y-43584188D01*
X39105820Y-43620498D01*
X38995506Y-43679463D01*
X38898815Y-43758815D01*
X38819463Y-43855506D01*
X38760498Y-43965820D01*
X38724188Y-44085518D01*
X38711928Y-44210000D01*
X36633509Y-44210000D01*
X36444670Y-44021161D01*
X35816554Y-43601467D01*
X35118628Y-43312377D01*
X34377715Y-43165000D01*
X33622285Y-43165000D01*
X32881372Y-43312377D01*
X32183446Y-43601467D01*
X31555330Y-44021161D01*
X31021161Y-44555330D01*
X30601467Y-45183446D01*
X30312377Y-45881372D01*
X30165000Y-46622285D01*
X29696333Y-46622285D01*
X29731173Y-46231917D01*
X29934656Y-45488109D01*
X30266638Y-44792095D01*
X30716626Y-44165870D01*
X31270403Y-43629223D01*
X31910451Y-43199129D01*
X32616553Y-42889171D01*
X33371457Y-42707935D01*
X34024207Y-42660000D01*
X73970608Y-42660000D01*
X74768083Y-42731173D01*
%TA.AperFunction,Conductor*%
D19*
G36*
X74768083Y-42731173D02*
G01*
X75511891Y-42934656D01*
X76207905Y-43266638D01*
X76834130Y-43716626D01*
X77370777Y-44270403D01*
X77800871Y-44910451D01*
X78110829Y-45616553D01*
X78292065Y-46371457D01*
X78340000Y-47024207D01*
X78340001Y-85972899D01*
X78266098Y-86871802D01*
X78052999Y-87720180D01*
X77704197Y-88522371D01*
X77229062Y-89256818D01*
X76640354Y-89903799D01*
X75953875Y-90445946D01*
X75188076Y-90868691D01*
X74363514Y-91160683D01*
X73490925Y-91316116D01*
X72984453Y-91340000D01*
X35027089Y-91340000D01*
X34128198Y-91266098D01*
X33279820Y-91052999D01*
X32477629Y-90704197D01*
X31743182Y-90229062D01*
X31162720Y-89700881D01*
X31478724Y-89700881D01*
X31838912Y-90190548D01*
X32502882Y-90550849D01*
X33224385Y-90774694D01*
X33975695Y-90853480D01*
X34727938Y-90784178D01*
X35452208Y-90569452D01*
X36120670Y-90217555D01*
X36161088Y-90190548D01*
X36521276Y-89700881D01*
X71478724Y-89700881D01*
X71838912Y-90190548D01*
X72502882Y-90550849D01*
X73224385Y-90774694D01*
X73975695Y-90853480D01*
X74727938Y-90784178D01*
X75452208Y-90569452D01*
X76120670Y-90217555D01*
X76161088Y-90190548D01*
X76521276Y-89700881D01*
X74000000Y-87179605D01*
X71478724Y-89700881D01*
X36521276Y-89700881D01*
X34000000Y-87179605D01*
X31478724Y-89700881D01*
X31162720Y-89700881D01*
X31096201Y-89640354D01*
X30554054Y-88953875D01*
X30131309Y-88188076D01*
X29839317Y-87363514D01*
X29770236Y-86975695D01*
X30146520Y-86975695D01*
X30215822Y-87727938D01*
X30430548Y-88452208D01*
X30782445Y-89120670D01*
X30809452Y-89161088D01*
X31299119Y-89521276D01*
X33820395Y-87000000D01*
X34179605Y-87000000D01*
X36700881Y-89521276D01*
X37190548Y-89161088D01*
X37550849Y-88497118D01*
X37774694Y-87775615D01*
X37853480Y-87024305D01*
X37809784Y-86550000D01*
X40911928Y-86550000D01*
X40911928Y-88250000D01*
X40924188Y-88374482D01*
X40960498Y-88494180D01*
X41019463Y-88604494D01*
X41098815Y-88701185D01*
X41195506Y-88780537D01*
X41305820Y-88839502D01*
X41425518Y-88875812D01*
X41550000Y-88888072D01*
X43250000Y-88888072D01*
X43374482Y-88875812D01*
X43494180Y-88839502D01*
X43604494Y-88780537D01*
X43701185Y-88701185D01*
X43780537Y-88604494D01*
X43839502Y-88494180D01*
X43861513Y-88421620D01*
X43993368Y-88553475D01*
X44236589Y-88715990D01*
X44506842Y-88827932D01*
X44793740Y-88885000D01*
X45086260Y-88885000D01*
X45373158Y-88827932D01*
X45643411Y-88715990D01*
X45886632Y-88553475D01*
X46093475Y-88346632D01*
X46210000Y-88172240D01*
X46326525Y-88346632D01*
X46533368Y-88553475D01*
X46776589Y-88715990D01*
X47046842Y-88827932D01*
X47333740Y-88885000D01*
X47626260Y-88885000D01*
X47913158Y-88827932D01*
X48183411Y-88715990D01*
X48426632Y-88553475D01*
X48633475Y-88346632D01*
X48750000Y-88172240D01*
X48866525Y-88346632D01*
X49073368Y-88553475D01*
X49316589Y-88715990D01*
X49586842Y-88827932D01*
X49873740Y-88885000D01*
X50166260Y-88885000D01*
X50453158Y-88827932D01*
X50723411Y-88715990D01*
X50966632Y-88553475D01*
X51173475Y-88346632D01*
X51290000Y-88172240D01*
X51406525Y-88346632D01*
X51613368Y-88553475D01*
X51856589Y-88715990D01*
X52126842Y-88827932D01*
X52413740Y-88885000D01*
X52706260Y-88885000D01*
X52993158Y-88827932D01*
X53263411Y-88715990D01*
X53506632Y-88553475D01*
X53713475Y-88346632D01*
X53830000Y-88172240D01*
X53946525Y-88346632D01*
X54153368Y-88553475D01*
X54396589Y-88715990D01*
X54666842Y-88827932D01*
X54953740Y-88885000D01*
X55246260Y-88885000D01*
X55533158Y-88827932D01*
X55803411Y-88715990D01*
X56046632Y-88553475D01*
X56253475Y-88346632D01*
X56370000Y-88172240D01*
X56486525Y-88346632D01*
X56693368Y-88553475D01*
X56936589Y-88715990D01*
X57206842Y-88827932D01*
X57493740Y-88885000D01*
X57786260Y-88885000D01*
X58073158Y-88827932D01*
X58343411Y-88715990D01*
X58586632Y-88553475D01*
X58793475Y-88346632D01*
X58910000Y-88172240D01*
X59026525Y-88346632D01*
X59233368Y-88553475D01*
X59476589Y-88715990D01*
X59746842Y-88827932D01*
X60033740Y-88885000D01*
X60326260Y-88885000D01*
X60613158Y-88827932D01*
X60883411Y-88715990D01*
X61126632Y-88553475D01*
X61333475Y-88346632D01*
X61450000Y-88172240D01*
X61566525Y-88346632D01*
X61773368Y-88553475D01*
X62016589Y-88715990D01*
X62286842Y-88827932D01*
X62573740Y-88885000D01*
X62866260Y-88885000D01*
X63153158Y-88827932D01*
X63423411Y-88715990D01*
X63666632Y-88553475D01*
X63873475Y-88346632D01*
X63990000Y-88172240D01*
X64106525Y-88346632D01*
X64313368Y-88553475D01*
X64556589Y-88715990D01*
X64826842Y-88827932D01*
X65113740Y-88885000D01*
X65406260Y-88885000D01*
X65693158Y-88827932D01*
X65963411Y-88715990D01*
X66206632Y-88553475D01*
X66413475Y-88346632D01*
X66575990Y-88103411D01*
X66687932Y-87833158D01*
X66745000Y-87546260D01*
X66745000Y-87253740D01*
X66689693Y-86975695D01*
X70146520Y-86975695D01*
X70215822Y-87727938D01*
X70430548Y-88452208D01*
X70782445Y-89120670D01*
X70809452Y-89161088D01*
X71299119Y-89521276D01*
X73820395Y-87000000D01*
X74179605Y-87000000D01*
X76700881Y-89521276D01*
X77190548Y-89161088D01*
X77550849Y-88497118D01*
X77774694Y-87775615D01*
X77853480Y-87024305D01*
X77784178Y-86272062D01*
X77569452Y-85547792D01*
X77217555Y-84879330D01*
X77190548Y-84838912D01*
X76700881Y-84478724D01*
X74179605Y-87000000D01*
X73820395Y-87000000D01*
X71299119Y-84478724D01*
X70809452Y-84838912D01*
X70449151Y-85502882D01*
X70225306Y-86224385D01*
X70146520Y-86975695D01*
X66689693Y-86975695D01*
X66687932Y-86966842D01*
X66575990Y-86696589D01*
X66413475Y-86453368D01*
X66206632Y-86246525D01*
X65963411Y-86084010D01*
X65693158Y-85972068D01*
X65406260Y-85915000D01*
X65113740Y-85915000D01*
X64826842Y-85972068D01*
X64556589Y-86084010D01*
X64313368Y-86246525D01*
X64106525Y-86453368D01*
X63990000Y-86627760D01*
X63873475Y-86453368D01*
X63666632Y-86246525D01*
X63423411Y-86084010D01*
X63153158Y-85972068D01*
X62866260Y-85915000D01*
X62573740Y-85915000D01*
X62286842Y-85972068D01*
X62016589Y-86084010D01*
X61773368Y-86246525D01*
X61566525Y-86453368D01*
X61450000Y-86627760D01*
X61333475Y-86453368D01*
X61126632Y-86246525D01*
X60883411Y-86084010D01*
X60613158Y-85972068D01*
X60326260Y-85915000D01*
X60033740Y-85915000D01*
X59746842Y-85972068D01*
X59476589Y-86084010D01*
X59233368Y-86246525D01*
X59026525Y-86453368D01*
X58910000Y-86627760D01*
X58793475Y-86453368D01*
X58586632Y-86246525D01*
X58343411Y-86084010D01*
X58073158Y-85972068D01*
X57786260Y-85915000D01*
X57493740Y-85915000D01*
X57206842Y-85972068D01*
X56936589Y-86084010D01*
X56693368Y-86246525D01*
X56486525Y-86453368D01*
X56370000Y-86627760D01*
X56253475Y-86453368D01*
X56046632Y-86246525D01*
X55803411Y-86084010D01*
X55533158Y-85972068D01*
X55246260Y-85915000D01*
X54953740Y-85915000D01*
X54666842Y-85972068D01*
X54396589Y-86084010D01*
X54153368Y-86246525D01*
X53946525Y-86453368D01*
X53830000Y-86627760D01*
X53713475Y-86453368D01*
X53506632Y-86246525D01*
X53263411Y-86084010D01*
X52993158Y-85972068D01*
X52706260Y-85915000D01*
X52413740Y-85915000D01*
X52126842Y-85972068D01*
X51856589Y-86084010D01*
X51613368Y-86246525D01*
X51406525Y-86453368D01*
X51290000Y-86627760D01*
X51173475Y-86453368D01*
X50966632Y-86246525D01*
X50723411Y-86084010D01*
X50453158Y-85972068D01*
X50166260Y-85915000D01*
X49873740Y-85915000D01*
X49586842Y-85972068D01*
X49316589Y-86084010D01*
X49073368Y-86246525D01*
X48866525Y-86453368D01*
X48750000Y-86627760D01*
X48633475Y-86453368D01*
X48426632Y-86246525D01*
X48183411Y-86084010D01*
X47913158Y-85972068D01*
X47626260Y-85915000D01*
X47333740Y-85915000D01*
X47046842Y-85972068D01*
X46776589Y-86084010D01*
X46533368Y-86246525D01*
X46326525Y-86453368D01*
X46210000Y-86627760D01*
X46093475Y-86453368D01*
X45886632Y-86246525D01*
X45643411Y-86084010D01*
X45373158Y-85972068D01*
X45086260Y-85915000D01*
X44793740Y-85915000D01*
X44506842Y-85972068D01*
X44236589Y-86084010D01*
X43993368Y-86246525D01*
X43861513Y-86378380D01*
X43839502Y-86305820D01*
X43780537Y-86195506D01*
X43701185Y-86098815D01*
X43604494Y-86019463D01*
X43494180Y-85960498D01*
X43374482Y-85924188D01*
X43250000Y-85911928D01*
X41550000Y-85911928D01*
X41425518Y-85924188D01*
X41305820Y-85960498D01*
X41195506Y-86019463D01*
X41098815Y-86098815D01*
X41019463Y-86195506D01*
X40960498Y-86305820D01*
X40924188Y-86425518D01*
X40911928Y-86550000D01*
X37809784Y-86550000D01*
X37784178Y-86272062D01*
X37569452Y-85547792D01*
X37217555Y-84879330D01*
X37190548Y-84838912D01*
X36700881Y-84478724D01*
X34179605Y-87000000D01*
X33820395Y-87000000D01*
X31299119Y-84478724D01*
X30809452Y-84838912D01*
X30449151Y-85502882D01*
X30225306Y-86224385D01*
X30146520Y-86975695D01*
X29770236Y-86975695D01*
X29683884Y-86490925D01*
X29660000Y-85984453D01*
X29660000Y-84299119D01*
X31478724Y-84299119D01*
X34000000Y-86820395D01*
X36521276Y-84299119D01*
X71478724Y-84299119D01*
X74000000Y-86820395D01*
X76521276Y-84299119D01*
X76161088Y-83809452D01*
X75497118Y-83449151D01*
X74775615Y-83225306D01*
X74024305Y-83146520D01*
X73272062Y-83215822D01*
X72547792Y-83430548D01*
X71879330Y-83782445D01*
X71838912Y-83809452D01*
X71478724Y-84299119D01*
X36521276Y-84299119D01*
X36161088Y-83809452D01*
X35497118Y-83449151D01*
X34775615Y-83225306D01*
X34024305Y-83146520D01*
X33272062Y-83215822D01*
X32547792Y-83430548D01*
X31879330Y-83782445D01*
X31838912Y-83809452D01*
X31478724Y-84299119D01*
X29660000Y-84299119D01*
X29660000Y-73127000D01*
X30952145Y-73127000D01*
X30915000Y-73313740D01*
X30915000Y-73606260D01*
X30972068Y-73893158D01*
X31084010Y-74163411D01*
X31246525Y-74406632D01*
X31453368Y-74613475D01*
X31627760Y-74730000D01*
X31453368Y-74846525D01*
X31246525Y-75053368D01*
X31084010Y-75296589D01*
X30972068Y-75566842D01*
X30915000Y-75853740D01*
X30915000Y-76146260D01*
X30972068Y-76433158D01*
X31084010Y-76703411D01*
X31246525Y-76946632D01*
X31453368Y-77153475D01*
X31627760Y-77270000D01*
X31453368Y-77386525D01*
X31246525Y-77593368D01*
X31084010Y-77836589D01*
X30972068Y-78106842D01*
X30915000Y-78393740D01*
X30915000Y-78686260D01*
X30972068Y-78973158D01*
X31084010Y-79243411D01*
X31246525Y-79486632D01*
X31453368Y-79693475D01*
X31696589Y-79855990D01*
X31966842Y-79967932D01*
X32253740Y-80025000D01*
X32546260Y-80025000D01*
X32833158Y-79967932D01*
X33103411Y-79855990D01*
X33346632Y-79693475D01*
X33553475Y-79486632D01*
X33709088Y-79253740D01*
X36975000Y-79253740D01*
X36975000Y-79546260D01*
X37032068Y-79833158D01*
X37144010Y-80103411D01*
X37306525Y-80346632D01*
X37513368Y-80553475D01*
X37687760Y-80670000D01*
X37513368Y-80786525D01*
X37306525Y-80993368D01*
X37144010Y-81236589D01*
X37032068Y-81506842D01*
X36975000Y-81793740D01*
X36975000Y-82086260D01*
X37032068Y-82373158D01*
X37144010Y-82643411D01*
X37306525Y-82886632D01*
X37513368Y-83093475D01*
X37756589Y-83255990D01*
X38026842Y-83367932D01*
X38313740Y-83425000D01*
X38606260Y-83425000D01*
X38893158Y-83367932D01*
X39163411Y-83255990D01*
X39406632Y-83093475D01*
X39613475Y-82886632D01*
X39730000Y-82712240D01*
X39846525Y-82886632D01*
X40053368Y-83093475D01*
X40296589Y-83255990D01*
X40566842Y-83367932D01*
X40853740Y-83425000D01*
X41146260Y-83425000D01*
X41433158Y-83367932D01*
X41703411Y-83255990D01*
X41946632Y-83093475D01*
X42153475Y-82886632D01*
X42315990Y-82643411D01*
X42427932Y-82373158D01*
X42443102Y-82296890D01*
X66758524Y-82296890D01*
X66803175Y-82444099D01*
X66928359Y-82706920D01*
X67102412Y-82940269D01*
X67318645Y-83135178D01*
X67568748Y-83284157D01*
X67843109Y-83381481D01*
X68073000Y-83260814D01*
X68073000Y-82067000D01*
X68327000Y-82067000D01*
X68327000Y-83260814D01*
X68556891Y-83381481D01*
X68831252Y-83284157D01*
X69081355Y-83135178D01*
X69297588Y-82940269D01*
X69470000Y-82709120D01*
X69642412Y-82940269D01*
X69858645Y-83135178D01*
X70108748Y-83284157D01*
X70383109Y-83381481D01*
X70613000Y-83260814D01*
X70613000Y-82067000D01*
X70867000Y-82067000D01*
X70867000Y-83260814D01*
X71096891Y-83381481D01*
X71371252Y-83284157D01*
X71621355Y-83135178D01*
X71837588Y-82940269D01*
X72011641Y-82706920D01*
X72136825Y-82444099D01*
X72181476Y-82296890D01*
X72060155Y-82067000D01*
X70867000Y-82067000D01*
X70613000Y-82067000D01*
X68327000Y-82067000D01*
X68073000Y-82067000D01*
X66879845Y-82067000D01*
X66758524Y-82296890D01*
X42443102Y-82296890D01*
X42485000Y-82086260D01*
X42485000Y-81793740D01*
X42427932Y-81506842D01*
X42315990Y-81236589D01*
X42153475Y-80993368D01*
X42021620Y-80861513D01*
X42094180Y-80839502D01*
X42204494Y-80780537D01*
X42301185Y-80701185D01*
X42380537Y-80604494D01*
X42439502Y-80494180D01*
X42475812Y-80374482D01*
X42488072Y-80250000D01*
X42488072Y-79756890D01*
X66758524Y-79756890D01*
X66803175Y-79904099D01*
X66928359Y-80166920D01*
X67102412Y-80400269D01*
X67318645Y-80595178D01*
X67444255Y-80670000D01*
X67318645Y-80744822D01*
X67102412Y-80939731D01*
X66928359Y-81173080D01*
X66803175Y-81435901D01*
X66758524Y-81583110D01*
X66879845Y-81813000D01*
X68073000Y-81813000D01*
X68073000Y-79527000D01*
X68327000Y-79527000D01*
X68327000Y-81813000D01*
X70613000Y-81813000D01*
X70613000Y-79527000D01*
X70867000Y-79527000D01*
X70867000Y-81813000D01*
X72060155Y-81813000D01*
X72181476Y-81583110D01*
X72136825Y-81435901D01*
X72011641Y-81173080D01*
X71837588Y-80939731D01*
X71753534Y-80863966D01*
X71834180Y-80839502D01*
X71944494Y-80780537D01*
X72041185Y-80701185D01*
X72120537Y-80604494D01*
X72179502Y-80494180D01*
X72215812Y-80374482D01*
X72228072Y-80250000D01*
X72225000Y-79685750D01*
X72066250Y-79527000D01*
X70867000Y-79527000D01*
X70613000Y-79527000D01*
X68327000Y-79527000D01*
X68073000Y-79527000D01*
X66879845Y-79527000D01*
X66758524Y-79756890D01*
X42488072Y-79756890D01*
X42488072Y-79043110D01*
X66758524Y-79043110D01*
X66879845Y-79273000D01*
X68073000Y-79273000D01*
X68073000Y-78079186D01*
X68327000Y-78079186D01*
X68327000Y-79273000D01*
X70613000Y-79273000D01*
X70613000Y-78073750D01*
X70867000Y-78073750D01*
X70867000Y-79273000D01*
X72066250Y-79273000D01*
X72225000Y-79114250D01*
X72228072Y-78550000D01*
X72215812Y-78425518D01*
X72179502Y-78305820D01*
X72120537Y-78195506D01*
X72041185Y-78098815D01*
X71944494Y-78019463D01*
X71834180Y-77960498D01*
X71714482Y-77924188D01*
X71590000Y-77911928D01*
X71025750Y-77915000D01*
X70867000Y-78073750D01*
X70613000Y-78073750D01*
X70454250Y-77915000D01*
X69890000Y-77911928D01*
X69765518Y-77924188D01*
X69645820Y-77960498D01*
X69535506Y-78019463D01*
X69438815Y-78098815D01*
X69359463Y-78195506D01*
X69300498Y-78305820D01*
X69277502Y-78381626D01*
X69081355Y-78204822D01*
X68831252Y-78055843D01*
X68556891Y-77958519D01*
X68327000Y-78079186D01*
X68073000Y-78079186D01*
X67843109Y-77958519D01*
X67568748Y-78055843D01*
X67318645Y-78204822D01*
X67102412Y-78399731D01*
X66928359Y-78633080D01*
X66803175Y-78895901D01*
X66758524Y-79043110D01*
X42488072Y-79043110D01*
X42488072Y-78550000D01*
X42475812Y-78425518D01*
X42439502Y-78305820D01*
X42380537Y-78195506D01*
X42301185Y-78098815D01*
X42204494Y-78019463D01*
X42094180Y-77960498D01*
X41974482Y-77924188D01*
X41850000Y-77911928D01*
X40150000Y-77911928D01*
X40025518Y-77924188D01*
X39905820Y-77960498D01*
X39795506Y-78019463D01*
X39698815Y-78098815D01*
X39619463Y-78195506D01*
X39560498Y-78305820D01*
X39538487Y-78378380D01*
X39406632Y-78246525D01*
X39163411Y-78084010D01*
X38893158Y-77972068D01*
X38606260Y-77915000D01*
X38313740Y-77915000D01*
X38026842Y-77972068D01*
X37756589Y-78084010D01*
X37513368Y-78246525D01*
X37306525Y-78453368D01*
X37144010Y-78696589D01*
X37032068Y-78966842D01*
X36975000Y-79253740D01*
X33709088Y-79253740D01*
X33715990Y-79243411D01*
X33827932Y-78973158D01*
X33885000Y-78686260D01*
X33885000Y-78393740D01*
X33827932Y-78106842D01*
X33715990Y-77836589D01*
X33658134Y-77750000D01*
X73911928Y-77750000D01*
X73911928Y-79450000D01*
X73924188Y-79574482D01*
X73960498Y-79694180D01*
X74019463Y-79804494D01*
X74098815Y-79901185D01*
X74195506Y-79980537D01*
X74305820Y-80039502D01*
X74425518Y-80075812D01*
X74550000Y-80088072D01*
X76250000Y-80088072D01*
X76374482Y-80075812D01*
X76494180Y-80039502D01*
X76604494Y-79980537D01*
X76701185Y-79901185D01*
X76780537Y-79804494D01*
X76839502Y-79694180D01*
X76875812Y-79574482D01*
X76888072Y-79450000D01*
X76888072Y-77750000D01*
X76875812Y-77625518D01*
X76839502Y-77505820D01*
X76780537Y-77395506D01*
X76701185Y-77298815D01*
X76604494Y-77219463D01*
X76494180Y-77160498D01*
X76421620Y-77138487D01*
X76553475Y-77006632D01*
X76715990Y-76763411D01*
X76827932Y-76493158D01*
X76885000Y-76206260D01*
X76885000Y-75913740D01*
X76827932Y-75626842D01*
X76715990Y-75356589D01*
X76553475Y-75113368D01*
X76346632Y-74906525D01*
X76172240Y-74790000D01*
X76346632Y-74673475D01*
X76553475Y-74466632D01*
X76715990Y-74223411D01*
X76827932Y-73953158D01*
X76885000Y-73666260D01*
X76885000Y-73373740D01*
X76827932Y-73086842D01*
X76715990Y-72816589D01*
X76553475Y-72573368D01*
X76346632Y-72366525D01*
X76172240Y-72250000D01*
X76346632Y-72133475D01*
X76553475Y-71926632D01*
X76715990Y-71683411D01*
X76827932Y-71413158D01*
X76885000Y-71126260D01*
X76885000Y-70833740D01*
X76827932Y-70546842D01*
X76715990Y-70276589D01*
X76553475Y-70033368D01*
X76346632Y-69826525D01*
X76172240Y-69710000D01*
X76346632Y-69593475D01*
X76553475Y-69386632D01*
X76715990Y-69143411D01*
X76827932Y-68873158D01*
X76885000Y-68586260D01*
X76885000Y-68293740D01*
X76827932Y-68006842D01*
X76715990Y-67736589D01*
X76553475Y-67493368D01*
X76346632Y-67286525D01*
X76172240Y-67170000D01*
X76346632Y-67053475D01*
X76553475Y-66846632D01*
X76715990Y-66603411D01*
X76827932Y-66333158D01*
X76885000Y-66046260D01*
X76885000Y-65753740D01*
X76827932Y-65466842D01*
X76715990Y-65196589D01*
X76553475Y-64953368D01*
X76346632Y-64746525D01*
X76172240Y-64630000D01*
X76346632Y-64513475D01*
X76553475Y-64306632D01*
X76715990Y-64063411D01*
X76827932Y-63793158D01*
X76885000Y-63506260D01*
X76885000Y-63213740D01*
X76827932Y-62926842D01*
X76715990Y-62656589D01*
X76553475Y-62413368D01*
X76346632Y-62206525D01*
X76172240Y-62090000D01*
X76346632Y-61973475D01*
X76553475Y-61766632D01*
X76715990Y-61523411D01*
X76827932Y-61253158D01*
X76885000Y-60966260D01*
X76885000Y-60673740D01*
X76827932Y-60386842D01*
X76715990Y-60116589D01*
X76553475Y-59873368D01*
X76346632Y-59666525D01*
X76172240Y-59550000D01*
X76346632Y-59433475D01*
X76553475Y-59226632D01*
X76715990Y-58983411D01*
X76827932Y-58713158D01*
X76885000Y-58426260D01*
X76885000Y-58133740D01*
X76827932Y-57846842D01*
X76715990Y-57576589D01*
X76553475Y-57333368D01*
X76346632Y-57126525D01*
X76172240Y-57010000D01*
X76346632Y-56893475D01*
X76553475Y-56686632D01*
X76715990Y-56443411D01*
X76827932Y-56173158D01*
X76885000Y-55886260D01*
X76885000Y-55593740D01*
X76827932Y-55306842D01*
X76715990Y-55036589D01*
X76553475Y-54793368D01*
X76346632Y-54586525D01*
X76103411Y-54424010D01*
X75833158Y-54312068D01*
X75546260Y-54255000D01*
X75253740Y-54255000D01*
X74966842Y-54312068D01*
X74696589Y-54424010D01*
X74453368Y-54586525D01*
X74246525Y-54793368D01*
X74084010Y-55036589D01*
X73972068Y-55306842D01*
X73915000Y-55593740D01*
X73915000Y-55886260D01*
X73972068Y-56173158D01*
X74084010Y-56443411D01*
X74246525Y-56686632D01*
X74453368Y-56893475D01*
X74627760Y-57010000D01*
X74453368Y-57126525D01*
X74246525Y-57333368D01*
X74084010Y-57576589D01*
X73972068Y-57846842D01*
X73915000Y-58133740D01*
X73915000Y-58426260D01*
X73972068Y-58713158D01*
X74084010Y-58983411D01*
X74246525Y-59226632D01*
X74453368Y-59433475D01*
X74627760Y-59550000D01*
X74453368Y-59666525D01*
X74246525Y-59873368D01*
X74084010Y-60116589D01*
X73972068Y-60386842D01*
X73915000Y-60673740D01*
X73915000Y-60966260D01*
X73972068Y-61253158D01*
X74084010Y-61523411D01*
X74246525Y-61766632D01*
X74453368Y-61973475D01*
X74627760Y-62090000D01*
X74453368Y-62206525D01*
X74246525Y-62413368D01*
X74084010Y-62656589D01*
X73972068Y-62926842D01*
X73915000Y-63213740D01*
X73915000Y-63506260D01*
X73972068Y-63793158D01*
X74084010Y-64063411D01*
X74246525Y-64306632D01*
X74453368Y-64513475D01*
X74627760Y-64630000D01*
X74453368Y-64746525D01*
X74246525Y-64953368D01*
X74084010Y-65196589D01*
X73972068Y-65466842D01*
X73915000Y-65753740D01*
X73915000Y-66046260D01*
X73972068Y-66333158D01*
X74084010Y-66603411D01*
X74246525Y-66846632D01*
X74453368Y-67053475D01*
X74627760Y-67170000D01*
X74453368Y-67286525D01*
X74246525Y-67493368D01*
X74084010Y-67736589D01*
X73972068Y-68006842D01*
X73915000Y-68293740D01*
X73915000Y-68586260D01*
X73972068Y-68873158D01*
X74084010Y-69143411D01*
X74246525Y-69386632D01*
X74453368Y-69593475D01*
X74627760Y-69710000D01*
X74453368Y-69826525D01*
X74246525Y-70033368D01*
X74084010Y-70276589D01*
X73972068Y-70546842D01*
X73915000Y-70833740D01*
X73915000Y-71126260D01*
X73972068Y-71413158D01*
X74084010Y-71683411D01*
X74246525Y-71926632D01*
X74453368Y-72133475D01*
X74627760Y-72250000D01*
X74453368Y-72366525D01*
X74246525Y-72573368D01*
X74084010Y-72816589D01*
X73972068Y-73086842D01*
X73915000Y-73373740D01*
X73915000Y-73666260D01*
X73972068Y-73953158D01*
X74084010Y-74223411D01*
X74246525Y-74466632D01*
X74453368Y-74673475D01*
X74627760Y-74790000D01*
X74453368Y-74906525D01*
X74246525Y-75113368D01*
X74084010Y-75356589D01*
X73972068Y-75626842D01*
X73915000Y-75913740D01*
X73915000Y-76206260D01*
X73972068Y-76493158D01*
X74084010Y-76763411D01*
X74246525Y-77006632D01*
X74378380Y-77138487D01*
X74305820Y-77160498D01*
X74195506Y-77219463D01*
X74098815Y-77298815D01*
X74019463Y-77395506D01*
X73960498Y-77505820D01*
X73924188Y-77625518D01*
X73911928Y-77750000D01*
X33658134Y-77750000D01*
X33553475Y-77593368D01*
X33346632Y-77386525D01*
X33172240Y-77270000D01*
X33346632Y-77153475D01*
X33553475Y-76946632D01*
X33715990Y-76703411D01*
X33827932Y-76433158D01*
X33885000Y-76146260D01*
X33885000Y-75853740D01*
X33827932Y-75566842D01*
X33715990Y-75296589D01*
X33553475Y-75053368D01*
X33346632Y-74846525D01*
X33172240Y-74730000D01*
X33346632Y-74613475D01*
X33553475Y-74406632D01*
X33715990Y-74163411D01*
X33743058Y-74098061D01*
X56365000Y-74098061D01*
X56365000Y-74301939D01*
X56404774Y-74501898D01*
X56482795Y-74690256D01*
X56596063Y-74859774D01*
X56740226Y-75003937D01*
X56909744Y-75117205D01*
X57098102Y-75195226D01*
X57298061Y-75235000D01*
X57501939Y-75235000D01*
X57701898Y-75195226D01*
X57890256Y-75117205D01*
X58059774Y-75003937D01*
X58203937Y-74859774D01*
X58317205Y-74690256D01*
X58350199Y-74610601D01*
X58509744Y-74717205D01*
X58698102Y-74795226D01*
X58898061Y-74835000D01*
X59101939Y-74835000D01*
X59301898Y-74795226D01*
X59490256Y-74717205D01*
X59659774Y-74603937D01*
X59803937Y-74459774D01*
X59917205Y-74290256D01*
X59939921Y-74235413D01*
X62144192Y-74235413D01*
X62239956Y-74499814D01*
X62529571Y-74640704D01*
X62841108Y-74722384D01*
X63162595Y-74741718D01*
X63481675Y-74697961D01*
X63786088Y-74592795D01*
X63960044Y-74499814D01*
X64055808Y-74235413D01*
X68644192Y-74235413D01*
X68739956Y-74499814D01*
X69029571Y-74640704D01*
X69341108Y-74722384D01*
X69662595Y-74741718D01*
X69981675Y-74697961D01*
X70286088Y-74592795D01*
X70460044Y-74499814D01*
X70555808Y-74235413D01*
X69600000Y-73279605D01*
X68644192Y-74235413D01*
X64055808Y-74235413D01*
X63100000Y-73279605D01*
X62144192Y-74235413D01*
X59939921Y-74235413D01*
X59995226Y-74101898D01*
X60035000Y-73901939D01*
X60035000Y-73698061D01*
X59995226Y-73498102D01*
X59917205Y-73309744D01*
X59818884Y-73162595D01*
X61458282Y-73162595D01*
X61502039Y-73481675D01*
X61607205Y-73786088D01*
X61700186Y-73960044D01*
X61964587Y-74055808D01*
X62920395Y-73100000D01*
X63279605Y-73100000D01*
X64235413Y-74055808D01*
X64499814Y-73960044D01*
X64640704Y-73670429D01*
X64722384Y-73358892D01*
X64734189Y-73162595D01*
X67958282Y-73162595D01*
X68002039Y-73481675D01*
X68107205Y-73786088D01*
X68200186Y-73960044D01*
X68464587Y-74055808D01*
X69420395Y-73100000D01*
X69779605Y-73100000D01*
X70735413Y-74055808D01*
X70999814Y-73960044D01*
X71140704Y-73670429D01*
X71222384Y-73358892D01*
X71241718Y-73037405D01*
X71197961Y-72718325D01*
X71092795Y-72413912D01*
X70999814Y-72239956D01*
X70735413Y-72144192D01*
X69779605Y-73100000D01*
X69420395Y-73100000D01*
X68464587Y-72144192D01*
X68200186Y-72239956D01*
X68059296Y-72529571D01*
X67977616Y-72841108D01*
X67958282Y-73162595D01*
X64734189Y-73162595D01*
X64741718Y-73037405D01*
X64697961Y-72718325D01*
X64592795Y-72413912D01*
X64499814Y-72239956D01*
X64235413Y-72144192D01*
X63279605Y-73100000D01*
X62920395Y-73100000D01*
X61964587Y-72144192D01*
X61700186Y-72239956D01*
X61559296Y-72529571D01*
X61477616Y-72841108D01*
X61458282Y-73162595D01*
X59818884Y-73162595D01*
X59803937Y-73140226D01*
X59659774Y-72996063D01*
X59490256Y-72882795D01*
X59301898Y-72804774D01*
X59101939Y-72765000D01*
X58898061Y-72765000D01*
X58698102Y-72804774D01*
X58509744Y-72882795D01*
X58340226Y-72996063D01*
X58196063Y-73140226D01*
X58082795Y-73309744D01*
X58049801Y-73389399D01*
X57890256Y-73282795D01*
X57701898Y-73204774D01*
X57501939Y-73165000D01*
X57298061Y-73165000D01*
X57098102Y-73204774D01*
X56909744Y-73282795D01*
X56740226Y-73396063D01*
X56596063Y-73540226D01*
X56482795Y-73709744D01*
X56404774Y-73898102D01*
X56365000Y-74098061D01*
X33743058Y-74098061D01*
X33827932Y-73893158D01*
X33885000Y-73606260D01*
X33885000Y-73313740D01*
X33847855Y-73127000D01*
X49000000Y-73127000D01*
X49024776Y-73124560D01*
X49048601Y-73117333D01*
X49070557Y-73105597D01*
X49089803Y-73089803D01*
X49105597Y-73070557D01*
X49117333Y-73048601D01*
X49124560Y-73024776D01*
X49127000Y-73000000D01*
X49127000Y-71898061D01*
X55178000Y-71898061D01*
X55178000Y-72101939D01*
X55217774Y-72301898D01*
X55295795Y-72490256D01*
X55409063Y-72659774D01*
X55553226Y-72803937D01*
X55722744Y-72917205D01*
X55911102Y-72995226D01*
X56111061Y-73035000D01*
X56314939Y-73035000D01*
X56514898Y-72995226D01*
X56703256Y-72917205D01*
X56872774Y-72803937D01*
X57016937Y-72659774D01*
X57068312Y-72582886D01*
X57098102Y-72595226D01*
X57298061Y-72635000D01*
X57501939Y-72635000D01*
X57701898Y-72595226D01*
X57890256Y-72517205D01*
X58059774Y-72403937D01*
X58203937Y-72259774D01*
X58317205Y-72090256D01*
X58369259Y-71964587D01*
X62144192Y-71964587D01*
X63100000Y-72920395D01*
X64055808Y-71964587D01*
X68644192Y-71964587D01*
X69600000Y-72920395D01*
X70555808Y-71964587D01*
X70460044Y-71700186D01*
X70170429Y-71559296D01*
X69858892Y-71477616D01*
X69537405Y-71458282D01*
X69218325Y-71502039D01*
X68913912Y-71607205D01*
X68739956Y-71700186D01*
X68644192Y-71964587D01*
X64055808Y-71964587D01*
X63960044Y-71700186D01*
X63670429Y-71559296D01*
X63358892Y-71477616D01*
X63037405Y-71458282D01*
X62718325Y-71502039D01*
X62413912Y-71607205D01*
X62239956Y-71700186D01*
X62144192Y-71964587D01*
X58369259Y-71964587D01*
X58395226Y-71901898D01*
X58435000Y-71701939D01*
X58435000Y-71498061D01*
X58395226Y-71298102D01*
X58317205Y-71109744D01*
X58203937Y-70940226D01*
X58059774Y-70796063D01*
X57890256Y-70682795D01*
X57701898Y-70604774D01*
X57501939Y-70565000D01*
X57298061Y-70565000D01*
X57098102Y-70604774D01*
X56909744Y-70682795D01*
X56740226Y-70796063D01*
X56596063Y-70940226D01*
X56544688Y-71017114D01*
X56514898Y-71004774D01*
X56314939Y-70965000D01*
X56111061Y-70965000D01*
X55911102Y-71004774D01*
X55722744Y-71082795D01*
X55553226Y-71196063D01*
X55409063Y-71340226D01*
X55295795Y-71509744D01*
X55217774Y-71698102D01*
X55178000Y-71898061D01*
X49127000Y-71898061D01*
X49127000Y-67127000D01*
X50609289Y-67127000D01*
X50596063Y-67140226D01*
X50482795Y-67309744D01*
X50404774Y-67498102D01*
X50365000Y-67698061D01*
X50365000Y-67901939D01*
X50404774Y-68101898D01*
X50482795Y-68290256D01*
X50596063Y-68459774D01*
X50740226Y-68603937D01*
X50909744Y-68717205D01*
X51098102Y-68795226D01*
X51187076Y-68812924D01*
X51204774Y-68901898D01*
X51282795Y-69090256D01*
X51396063Y-69259774D01*
X51540226Y-69403937D01*
X51709744Y-69517205D01*
X51898102Y-69595226D01*
X52098061Y-69635000D01*
X52301939Y-69635000D01*
X52501898Y-69595226D01*
X52690256Y-69517205D01*
X52859774Y-69403937D01*
X53003937Y-69259774D01*
X53117205Y-69090256D01*
X53195226Y-68901898D01*
X53235000Y-68701939D01*
X53235000Y-68498061D01*
X53195226Y-68298102D01*
X53117205Y-68109744D01*
X53003937Y-67940226D01*
X52859774Y-67796063D01*
X52715331Y-67699549D01*
X59620185Y-67699549D01*
X59620185Y-67903427D01*
X59659959Y-68103386D01*
X59737980Y-68291744D01*
X59851248Y-68461262D01*
X59995411Y-68605425D01*
X60164929Y-68718693D01*
X60353287Y-68796714D01*
X60553246Y-68836488D01*
X60757124Y-68836488D01*
X60957083Y-68796714D01*
X61145441Y-68718693D01*
X61314959Y-68605425D01*
X61459122Y-68461262D01*
X61465000Y-68452465D01*
X61465000Y-68761033D01*
X61527832Y-69076912D01*
X61651082Y-69374463D01*
X61830013Y-69642252D01*
X62057748Y-69869987D01*
X62325537Y-70048918D01*
X62623088Y-70172168D01*
X62938967Y-70235000D01*
X63261033Y-70235000D01*
X63576912Y-70172168D01*
X63874463Y-70048918D01*
X64142252Y-69869987D01*
X64369987Y-69642252D01*
X64548918Y-69374463D01*
X64672168Y-69076912D01*
X64735000Y-68761033D01*
X64735000Y-68438967D01*
X67965000Y-68438967D01*
X67965000Y-68761033D01*
X68027832Y-69076912D01*
X68151082Y-69374463D01*
X68330013Y-69642252D01*
X68557748Y-69869987D01*
X68825537Y-70048918D01*
X69123088Y-70172168D01*
X69438967Y-70235000D01*
X69761033Y-70235000D01*
X70076912Y-70172168D01*
X70374463Y-70048918D01*
X70642252Y-69869987D01*
X70869987Y-69642252D01*
X71048918Y-69374463D01*
X71172168Y-69076912D01*
X71235000Y-68761033D01*
X71235000Y-68438967D01*
X71172168Y-68123088D01*
X71048918Y-67825537D01*
X70869987Y-67557748D01*
X70642252Y-67330013D01*
X70374463Y-67151082D01*
X70076912Y-67027832D01*
X69761033Y-66965000D01*
X69438967Y-66965000D01*
X69123088Y-67027832D01*
X68825537Y-67151082D01*
X68557748Y-67330013D01*
X68330013Y-67557748D01*
X68151082Y-67825537D01*
X68027832Y-68123088D01*
X67965000Y-68438967D01*
X64735000Y-68438967D01*
X64672168Y-68123088D01*
X64548918Y-67825537D01*
X64369987Y-67557748D01*
X64142252Y-67330013D01*
X63874463Y-67151082D01*
X63576912Y-67027832D01*
X63261033Y-66965000D01*
X62938967Y-66965000D01*
X62623088Y-67027832D01*
X62325537Y-67151082D01*
X62057748Y-67330013D01*
X61830013Y-67557748D01*
X61690185Y-67767015D01*
X61690185Y-67699549D01*
X61650411Y-67499590D01*
X61572390Y-67311232D01*
X61459122Y-67141714D01*
X61314959Y-66997551D01*
X61145441Y-66884283D01*
X60957083Y-66806262D01*
X60757124Y-66766488D01*
X60553246Y-66766488D01*
X60353287Y-66806262D01*
X60164929Y-66884283D01*
X59995411Y-66997551D01*
X59851248Y-67141714D01*
X59737980Y-67311232D01*
X59659959Y-67499590D01*
X59620185Y-67699549D01*
X52715331Y-67699549D01*
X52690256Y-67682795D01*
X52501898Y-67604774D01*
X52412924Y-67587076D01*
X52407042Y-67557508D01*
X52498102Y-67595226D01*
X52698061Y-67635000D01*
X52901939Y-67635000D01*
X53101898Y-67595226D01*
X53290256Y-67517205D01*
X53459774Y-67403937D01*
X53603937Y-67259774D01*
X53717205Y-67090256D01*
X53795226Y-66901898D01*
X53835000Y-66701939D01*
X53835000Y-66498061D01*
X53795226Y-66298102D01*
X53717205Y-66109744D01*
X53603937Y-65940226D01*
X53459774Y-65796063D01*
X53290256Y-65682795D01*
X53101898Y-65604774D01*
X52901939Y-65565000D01*
X52698061Y-65565000D01*
X52498102Y-65604774D01*
X52393964Y-65647910D01*
X52459774Y-65603937D01*
X52603937Y-65459774D01*
X52717205Y-65290256D01*
X52795226Y-65101898D01*
X52835000Y-64901939D01*
X52835000Y-64698061D01*
X52795226Y-64498102D01*
X52717205Y-64309744D01*
X52650127Y-64209354D01*
X52729705Y-64090256D01*
X52807726Y-63901898D01*
X52847500Y-63701939D01*
X52847500Y-63498061D01*
X52842528Y-63473061D01*
X54615000Y-63473061D01*
X54615000Y-63676939D01*
X54654774Y-63876898D01*
X54732795Y-64065256D01*
X54846063Y-64234774D01*
X54990226Y-64378937D01*
X55159744Y-64492205D01*
X55348102Y-64570226D01*
X55548061Y-64610000D01*
X55751939Y-64610000D01*
X55951898Y-64570226D01*
X56079664Y-64517303D01*
X56004774Y-64698102D01*
X55965000Y-64898061D01*
X55965000Y-65101939D01*
X56004774Y-65301898D01*
X56082795Y-65490256D01*
X56196063Y-65659774D01*
X56340226Y-65803937D01*
X56509744Y-65917205D01*
X56698102Y-65995226D01*
X56898061Y-66035000D01*
X57101939Y-66035000D01*
X57301898Y-65995226D01*
X57490256Y-65917205D01*
X57518907Y-65898061D01*
X65365000Y-65898061D01*
X65365000Y-66101939D01*
X65404774Y-66301898D01*
X65482795Y-66490256D01*
X65596063Y-66659774D01*
X65740226Y-66803937D01*
X65909744Y-66917205D01*
X66098102Y-66995226D01*
X66298061Y-67035000D01*
X66501939Y-67035000D01*
X66701898Y-66995226D01*
X66890256Y-66917205D01*
X67059774Y-66803937D01*
X67203937Y-66659774D01*
X67317205Y-66490256D01*
X67395226Y-66301898D01*
X67435000Y-66101939D01*
X67435000Y-65898061D01*
X67395226Y-65698102D01*
X67317205Y-65509744D01*
X67203937Y-65340226D01*
X67059774Y-65196063D01*
X66890256Y-65082795D01*
X66701898Y-65004774D01*
X66501939Y-64965000D01*
X66298061Y-64965000D01*
X66098102Y-65004774D01*
X65909744Y-65082795D01*
X65740226Y-65196063D01*
X65596063Y-65340226D01*
X65482795Y-65509744D01*
X65404774Y-65698102D01*
X65365000Y-65898061D01*
X57518907Y-65898061D01*
X57659774Y-65803937D01*
X57803937Y-65659774D01*
X57917205Y-65490256D01*
X57995226Y-65301898D01*
X58035000Y-65101939D01*
X58035000Y-64898061D01*
X57995226Y-64698102D01*
X57917205Y-64509744D01*
X57803937Y-64340226D01*
X57659774Y-64196063D01*
X57490256Y-64082795D01*
X57301898Y-64004774D01*
X57101939Y-63965000D01*
X56898061Y-63965000D01*
X56698102Y-64004774D01*
X56570336Y-64057697D01*
X56645226Y-63876898D01*
X56685000Y-63676939D01*
X56685000Y-63473061D01*
X56645226Y-63273102D01*
X56567205Y-63084744D01*
X56453937Y-62915226D01*
X56309774Y-62771063D01*
X56140256Y-62657795D01*
X55951898Y-62579774D01*
X55751939Y-62540000D01*
X55548061Y-62540000D01*
X55348102Y-62579774D01*
X55159744Y-62657795D01*
X54990226Y-62771063D01*
X54846063Y-62915226D01*
X54732795Y-63084744D01*
X54654774Y-63273102D01*
X54615000Y-63473061D01*
X52842528Y-63473061D01*
X52807726Y-63298102D01*
X52729705Y-63109744D01*
X52616437Y-62940226D01*
X52472274Y-62796063D01*
X52302756Y-62682795D01*
X52114398Y-62604774D01*
X51914439Y-62565000D01*
X51710561Y-62565000D01*
X51510602Y-62604774D01*
X51322244Y-62682795D01*
X51152726Y-62796063D01*
X51008563Y-62940226D01*
X50895295Y-63109744D01*
X50817274Y-63298102D01*
X50777500Y-63498061D01*
X50777500Y-63701939D01*
X50811526Y-63873000D01*
X49190711Y-63873000D01*
X49203937Y-63859774D01*
X49317205Y-63690256D01*
X49395226Y-63501898D01*
X49435000Y-63301939D01*
X49435000Y-63098061D01*
X49395226Y-62898102D01*
X49317205Y-62709744D01*
X49203937Y-62540226D01*
X49059774Y-62396063D01*
X48913104Y-62298061D01*
X57265000Y-62298061D01*
X57265000Y-62501939D01*
X57304774Y-62701898D01*
X57382795Y-62890256D01*
X57496063Y-63059774D01*
X57640226Y-63203937D01*
X57809744Y-63317205D01*
X57998102Y-63395226D01*
X58198061Y-63435000D01*
X58401939Y-63435000D01*
X58601898Y-63395226D01*
X58790256Y-63317205D01*
X58959774Y-63203937D01*
X59103937Y-63059774D01*
X59217205Y-62890256D01*
X59295226Y-62701898D01*
X59335000Y-62501939D01*
X59335000Y-62298061D01*
X60465000Y-62298061D01*
X60465000Y-62501939D01*
X60504774Y-62701898D01*
X60582795Y-62890256D01*
X60696063Y-63059774D01*
X60840226Y-63203937D01*
X61009744Y-63317205D01*
X61198102Y-63395226D01*
X61398061Y-63435000D01*
X61601939Y-63435000D01*
X61801898Y-63395226D01*
X61990256Y-63317205D01*
X62159774Y-63203937D01*
X62303937Y-63059774D01*
X62417205Y-62890256D01*
X62495226Y-62701898D01*
X62535000Y-62501939D01*
X62535000Y-62298061D01*
X62495226Y-62098102D01*
X62417205Y-61909744D01*
X62303937Y-61740226D01*
X62159774Y-61596063D01*
X61990256Y-61482795D01*
X61801898Y-61404774D01*
X61601939Y-61365000D01*
X61398061Y-61365000D01*
X61198102Y-61404774D01*
X61009744Y-61482795D01*
X60840226Y-61596063D01*
X60696063Y-61740226D01*
X60582795Y-61909744D01*
X60504774Y-62098102D01*
X60465000Y-62298061D01*
X59335000Y-62298061D01*
X59295226Y-62098102D01*
X59217205Y-61909744D01*
X59103937Y-61740226D01*
X58959774Y-61596063D01*
X58790256Y-61482795D01*
X58601898Y-61404774D01*
X58401939Y-61365000D01*
X58198061Y-61365000D01*
X57998102Y-61404774D01*
X57809744Y-61482795D01*
X57640226Y-61596063D01*
X57496063Y-61740226D01*
X57382795Y-61909744D01*
X57304774Y-62098102D01*
X57265000Y-62298061D01*
X48913104Y-62298061D01*
X48890256Y-62282795D01*
X48701898Y-62204774D01*
X48501939Y-62165000D01*
X48298061Y-62165000D01*
X48098102Y-62204774D01*
X47909744Y-62282795D01*
X47740226Y-62396063D01*
X47596063Y-62540226D01*
X47482795Y-62709744D01*
X47404774Y-62898102D01*
X47365000Y-63098061D01*
X47365000Y-63301939D01*
X47404774Y-63501898D01*
X47482795Y-63690256D01*
X47596063Y-63859774D01*
X47609289Y-63873000D01*
X47127000Y-63873000D01*
X47127000Y-61036307D01*
X47195691Y-61139110D01*
X47400890Y-61344309D01*
X47642178Y-61505533D01*
X47910283Y-61616586D01*
X48194902Y-61673200D01*
X48485098Y-61673200D01*
X48769717Y-61616586D01*
X49037822Y-61505533D01*
X49279110Y-61344309D01*
X49484309Y-61139110D01*
X49645533Y-60897822D01*
X49653164Y-60879399D01*
X49709744Y-60917205D01*
X49898102Y-60995226D01*
X50098061Y-61035000D01*
X50301939Y-61035000D01*
X50501898Y-60995226D01*
X50690256Y-60917205D01*
X50700000Y-60910694D01*
X50709744Y-60917205D01*
X50898102Y-60995226D01*
X51098061Y-61035000D01*
X51301939Y-61035000D01*
X51501898Y-60995226D01*
X51690256Y-60917205D01*
X51859774Y-60803937D01*
X52003937Y-60659774D01*
X52117205Y-60490256D01*
X52195226Y-60301898D01*
X52235000Y-60101939D01*
X52235000Y-59898061D01*
X52195226Y-59698102D01*
X52184854Y-59673061D01*
X55965000Y-59673061D01*
X55965000Y-59876939D01*
X56004774Y-60076898D01*
X56082795Y-60265256D01*
X56196063Y-60434774D01*
X56340226Y-60578937D01*
X56509744Y-60692205D01*
X56698102Y-60770226D01*
X56898061Y-60810000D01*
X57101939Y-60810000D01*
X57301898Y-60770226D01*
X57490256Y-60692205D01*
X57659774Y-60578937D01*
X57775000Y-60463711D01*
X57790226Y-60478937D01*
X57959744Y-60592205D01*
X58148102Y-60670226D01*
X58348061Y-60710000D01*
X58551939Y-60710000D01*
X58751898Y-60670226D01*
X58940256Y-60592205D01*
X59109774Y-60478937D01*
X59253937Y-60334774D01*
X59367205Y-60165256D01*
X59445226Y-59976898D01*
X59485000Y-59776939D01*
X59485000Y-59573061D01*
X59445226Y-59373102D01*
X59367205Y-59184744D01*
X59253937Y-59015226D01*
X59109774Y-58871063D01*
X58940256Y-58757795D01*
X58751898Y-58679774D01*
X58551939Y-58640000D01*
X58348061Y-58640000D01*
X58148102Y-58679774D01*
X57959744Y-58757795D01*
X57790226Y-58871063D01*
X57675000Y-58986289D01*
X57659774Y-58971063D01*
X57490256Y-58857795D01*
X57301898Y-58779774D01*
X57101939Y-58740000D01*
X56898061Y-58740000D01*
X56698102Y-58779774D01*
X56509744Y-58857795D01*
X56340226Y-58971063D01*
X56196063Y-59115226D01*
X56082795Y-59284744D01*
X56004774Y-59473102D01*
X55965000Y-59673061D01*
X52184854Y-59673061D01*
X52117205Y-59509744D01*
X52003937Y-59340226D01*
X51859774Y-59196063D01*
X51690256Y-59082795D01*
X51501898Y-59004774D01*
X51301939Y-58965000D01*
X51098061Y-58965000D01*
X50898102Y-59004774D01*
X50709744Y-59082795D01*
X50700000Y-59089306D01*
X50690256Y-59082795D01*
X50501898Y-59004774D01*
X50301939Y-58965000D01*
X50098061Y-58965000D01*
X49898102Y-59004774D01*
X49709744Y-59082795D01*
X49540226Y-59196063D01*
X49479854Y-59256435D01*
X49279110Y-59055691D01*
X49037822Y-58894467D01*
X48769717Y-58783414D01*
X48485098Y-58726800D01*
X48194902Y-58726800D01*
X47910283Y-58783414D01*
X47642178Y-58894467D01*
X47400890Y-59055691D01*
X47195691Y-59260890D01*
X47070000Y-59448999D01*
X46944309Y-59260890D01*
X46739110Y-59055691D01*
X46497822Y-58894467D01*
X46229717Y-58783414D01*
X45945098Y-58726800D01*
X45654902Y-58726800D01*
X45370283Y-58783414D01*
X45102178Y-58894467D01*
X44860890Y-59055691D01*
X44655691Y-59260890D01*
X44494467Y-59502178D01*
X44383414Y-59770283D01*
X44362982Y-59873000D01*
X44124353Y-59873000D01*
X44195226Y-59701898D01*
X44235000Y-59501939D01*
X44235000Y-59298061D01*
X44195226Y-59098102D01*
X44117205Y-58909744D01*
X44003937Y-58740226D01*
X43859774Y-58596063D01*
X43690256Y-58482795D01*
X43501898Y-58404774D01*
X43301939Y-58365000D01*
X43098061Y-58365000D01*
X42898102Y-58404774D01*
X42709744Y-58482795D01*
X42540226Y-58596063D01*
X42396063Y-58740226D01*
X42282795Y-58909744D01*
X42204774Y-59098102D01*
X42165000Y-59298061D01*
X42165000Y-59501939D01*
X42204774Y-59701898D01*
X42275647Y-59873000D01*
X33593320Y-59873000D01*
X33553475Y-59813368D01*
X33346632Y-59606525D01*
X33172240Y-59490000D01*
X33346632Y-59373475D01*
X33553475Y-59166632D01*
X33715990Y-58923411D01*
X33827932Y-58653158D01*
X33885000Y-58366260D01*
X33885000Y-58073740D01*
X33827932Y-57786842D01*
X33715990Y-57516589D01*
X33553475Y-57273368D01*
X33421620Y-57141513D01*
X33494180Y-57119502D01*
X33604494Y-57060537D01*
X33701185Y-56981185D01*
X33780537Y-56884494D01*
X33839502Y-56774180D01*
X33875812Y-56654482D01*
X33888072Y-56530000D01*
X33888072Y-55698061D01*
X42565000Y-55698061D01*
X42565000Y-55901939D01*
X42604774Y-56101898D01*
X42682795Y-56290256D01*
X42796063Y-56459774D01*
X42940226Y-56603937D01*
X43109744Y-56717205D01*
X43298102Y-56795226D01*
X43498061Y-56835000D01*
X43701939Y-56835000D01*
X43901898Y-56795226D01*
X44090256Y-56717205D01*
X44259774Y-56603937D01*
X44403937Y-56459774D01*
X44517205Y-56290256D01*
X44595226Y-56101898D01*
X44635000Y-55901939D01*
X44635000Y-55698061D01*
X44595226Y-55498102D01*
X44517205Y-55309744D01*
X44403937Y-55140226D01*
X44259774Y-54996063D01*
X44090256Y-54882795D01*
X43901898Y-54804774D01*
X43701939Y-54765000D01*
X43498061Y-54765000D01*
X43298102Y-54804774D01*
X43109744Y-54882795D01*
X42940226Y-54996063D01*
X42796063Y-55140226D01*
X42682795Y-55309744D01*
X42604774Y-55498102D01*
X42565000Y-55698061D01*
X33888072Y-55698061D01*
X33888072Y-54830000D01*
X33875812Y-54705518D01*
X33839502Y-54585820D01*
X33780537Y-54475506D01*
X33701185Y-54378815D01*
X33604494Y-54299463D01*
X33494180Y-54240498D01*
X33374482Y-54204188D01*
X33250000Y-54191928D01*
X31550000Y-54191928D01*
X31425518Y-54204188D01*
X31305820Y-54240498D01*
X31195506Y-54299463D01*
X31098815Y-54378815D01*
X31019463Y-54475506D01*
X30960498Y-54585820D01*
X30924188Y-54705518D01*
X30911928Y-54830000D01*
X30911928Y-56530000D01*
X30924188Y-56654482D01*
X30960498Y-56774180D01*
X31019463Y-56884494D01*
X31098815Y-56981185D01*
X31195506Y-57060537D01*
X31305820Y-57119502D01*
X31378380Y-57141513D01*
X31246525Y-57273368D01*
X31084010Y-57516589D01*
X30972068Y-57786842D01*
X30915000Y-58073740D01*
X30915000Y-58366260D01*
X30972068Y-58653158D01*
X31084010Y-58923411D01*
X31246525Y-59166632D01*
X31453368Y-59373475D01*
X31627760Y-59490000D01*
X31453368Y-59606525D01*
X31246525Y-59813368D01*
X31206680Y-59873000D01*
X29660000Y-59873000D01*
X29660000Y-51350000D01*
X36311928Y-51350000D01*
X36311928Y-53050000D01*
X36324188Y-53174482D01*
X36360498Y-53294180D01*
X36419463Y-53404494D01*
X36498815Y-53501185D01*
X36595506Y-53580537D01*
X36705820Y-53639502D01*
X36825518Y-53675812D01*
X36950000Y-53688072D01*
X38650000Y-53688072D01*
X38774482Y-53675812D01*
X38894180Y-53639502D01*
X39004494Y-53580537D01*
X39101185Y-53501185D01*
X39180537Y-53404494D01*
X39239502Y-53294180D01*
X39261513Y-53221620D01*
X39393368Y-53353475D01*
X39636589Y-53515990D01*
X39906842Y-53627932D01*
X40193740Y-53685000D01*
X40486260Y-53685000D01*
X40773158Y-53627932D01*
X41043411Y-53515990D01*
X41286632Y-53353475D01*
X41493475Y-53146632D01*
X41615195Y-52964466D01*
X41684822Y-53081355D01*
X41879731Y-53297588D01*
X42113080Y-53471641D01*
X42375901Y-53596825D01*
X42523110Y-53641476D01*
X42753000Y-53520155D01*
X42753000Y-52327000D01*
X43007000Y-52327000D01*
X43007000Y-53520155D01*
X43236890Y-53641476D01*
X43384099Y-53596825D01*
X43646920Y-53471641D01*
X43880269Y-53297588D01*
X44075178Y-53081355D01*
X44224157Y-52831252D01*
X44321481Y-52556891D01*
X44200814Y-52327000D01*
X43007000Y-52327000D01*
X42753000Y-52327000D01*
X42733000Y-52327000D01*
X42733000Y-52073000D01*
X42753000Y-52073000D01*
X42753000Y-50879845D01*
X43007000Y-50879845D01*
X43007000Y-52073000D01*
X44200814Y-52073000D01*
X44321481Y-51843109D01*
X44224157Y-51568748D01*
X44075178Y-51318645D01*
X43880269Y-51102412D01*
X43646920Y-50928359D01*
X43384099Y-50803175D01*
X43236890Y-50758524D01*
X43007000Y-50879845D01*
X42753000Y-50879845D01*
X42523110Y-50758524D01*
X42375901Y-50803175D01*
X42113080Y-50928359D01*
X41879731Y-51102412D01*
X41684822Y-51318645D01*
X41615195Y-51435534D01*
X41493475Y-51253368D01*
X41286632Y-51046525D01*
X41043411Y-50884010D01*
X40773158Y-50772068D01*
X40486260Y-50715000D01*
X40193740Y-50715000D01*
X39906842Y-50772068D01*
X39636589Y-50884010D01*
X39393368Y-51046525D01*
X39261513Y-51178380D01*
X39239502Y-51105820D01*
X39180537Y-50995506D01*
X39101185Y-50898815D01*
X39004494Y-50819463D01*
X38894180Y-50760498D01*
X38774482Y-50724188D01*
X38650000Y-50711928D01*
X36950000Y-50711928D01*
X36825518Y-50724188D01*
X36705820Y-50760498D01*
X36595506Y-50819463D01*
X36498815Y-50898815D01*
X36419463Y-50995506D01*
X36360498Y-51105820D01*
X36324188Y-51225518D01*
X36311928Y-51350000D01*
X29660000Y-51350000D01*
X29660000Y-47029392D01*
X29696333Y-46622285D01*
X30165000Y-46622285D01*
X30165000Y-47377715D01*
X30312377Y-48118628D01*
X30601467Y-48816554D01*
X31021161Y-49444670D01*
X31555330Y-49978839D01*
X32183446Y-50398533D01*
X32881372Y-50687623D01*
X33622285Y-50835000D01*
X34377715Y-50835000D01*
X35118628Y-50687623D01*
X35816554Y-50398533D01*
X36444670Y-49978839D01*
X36525448Y-49898061D01*
X53565000Y-49898061D01*
X53565000Y-50101939D01*
X53604774Y-50301898D01*
X53645409Y-50400000D01*
X53604774Y-50498102D01*
X53565000Y-50698061D01*
X53565000Y-50901939D01*
X53604774Y-51101898D01*
X53682795Y-51290256D01*
X53756123Y-51400000D01*
X53682795Y-51509744D01*
X53604774Y-51698102D01*
X53565000Y-51898061D01*
X53565000Y-52101939D01*
X53604774Y-52301898D01*
X53682795Y-52490256D01*
X53796063Y-52659774D01*
X53940226Y-52803937D01*
X54109744Y-52917205D01*
X54298102Y-52995226D01*
X54498061Y-53035000D01*
X54701939Y-53035000D01*
X54901898Y-52995226D01*
X55090256Y-52917205D01*
X55100000Y-52910694D01*
X55109744Y-52917205D01*
X55298102Y-52995226D01*
X55498061Y-53035000D01*
X55701939Y-53035000D01*
X55901898Y-52995226D01*
X56090256Y-52917205D01*
X56259774Y-52803937D01*
X56403937Y-52659774D01*
X56517205Y-52490256D01*
X56595226Y-52301898D01*
X56635000Y-52101939D01*
X56635000Y-51898061D01*
X56607042Y-51757508D01*
X56698102Y-51795226D01*
X56898061Y-51835000D01*
X57101939Y-51835000D01*
X57123680Y-51830675D01*
X57111928Y-51950000D01*
X57111928Y-53650000D01*
X57124188Y-53774482D01*
X57160498Y-53894180D01*
X57219463Y-54004494D01*
X57298815Y-54101185D01*
X57395506Y-54180537D01*
X57505820Y-54239502D01*
X57578380Y-54261513D01*
X57446525Y-54393368D01*
X57284010Y-54636589D01*
X57172068Y-54906842D01*
X57115000Y-55193740D01*
X57115000Y-55486260D01*
X57172068Y-55773158D01*
X57284010Y-56043411D01*
X57446525Y-56286632D01*
X57653368Y-56493475D01*
X57896589Y-56655990D01*
X58166842Y-56767932D01*
X58453740Y-56825000D01*
X58746260Y-56825000D01*
X59033158Y-56767932D01*
X59303411Y-56655990D01*
X59546632Y-56493475D01*
X59753475Y-56286632D01*
X59870000Y-56112240D01*
X59986525Y-56286632D01*
X60193368Y-56493475D01*
X60436589Y-56655990D01*
X60706842Y-56767932D01*
X60993740Y-56825000D01*
X61286260Y-56825000D01*
X61573158Y-56767932D01*
X61843411Y-56655990D01*
X62086632Y-56493475D01*
X62293475Y-56286632D01*
X62415195Y-56104466D01*
X62484822Y-56221355D01*
X62679731Y-56437588D01*
X62913080Y-56611641D01*
X63175901Y-56736825D01*
X63323110Y-56781476D01*
X63553000Y-56660155D01*
X63553000Y-55467000D01*
X63533000Y-55467000D01*
X63533000Y-55213000D01*
X63553000Y-55213000D01*
X63553000Y-52927000D01*
X63533000Y-52927000D01*
X63533000Y-52673000D01*
X63553000Y-52673000D01*
X63553000Y-51479845D01*
X63807000Y-51479845D01*
X63807000Y-52673000D01*
X63827000Y-52673000D01*
X63827000Y-52927000D01*
X63807000Y-52927000D01*
X63807000Y-55213000D01*
X63827000Y-55213000D01*
X63827000Y-55467000D01*
X63807000Y-55467000D01*
X63807000Y-56660155D01*
X64036890Y-56781476D01*
X64184099Y-56736825D01*
X64446920Y-56611641D01*
X64680269Y-56437588D01*
X64875178Y-56221355D01*
X64944805Y-56104466D01*
X65066525Y-56286632D01*
X65273368Y-56493475D01*
X65516589Y-56655990D01*
X65786842Y-56767932D01*
X66073740Y-56825000D01*
X66366260Y-56825000D01*
X66653158Y-56767932D01*
X66923411Y-56655990D01*
X67166632Y-56493475D01*
X67373475Y-56286632D01*
X67490000Y-56112240D01*
X67606525Y-56286632D01*
X67813368Y-56493475D01*
X68056589Y-56655990D01*
X68326842Y-56767932D01*
X68613740Y-56825000D01*
X68906260Y-56825000D01*
X69193158Y-56767932D01*
X69463411Y-56655990D01*
X69706632Y-56493475D01*
X69913475Y-56286632D01*
X70075990Y-56043411D01*
X70187932Y-55773158D01*
X70245000Y-55486260D01*
X70245000Y-55193740D01*
X70187932Y-54906842D01*
X70075990Y-54636589D01*
X69913475Y-54393368D01*
X69706632Y-54186525D01*
X69532240Y-54070000D01*
X69706632Y-53953475D01*
X69913475Y-53746632D01*
X70075990Y-53503411D01*
X70187932Y-53233158D01*
X70245000Y-52946260D01*
X70245000Y-52653740D01*
X70187932Y-52366842D01*
X70075990Y-52096589D01*
X69913475Y-51853368D01*
X69706632Y-51646525D01*
X69463411Y-51484010D01*
X69193158Y-51372068D01*
X68906260Y-51315000D01*
X68613740Y-51315000D01*
X68326842Y-51372068D01*
X68056589Y-51484010D01*
X67813368Y-51646525D01*
X67606525Y-51853368D01*
X67490000Y-52027760D01*
X67373475Y-51853368D01*
X67166632Y-51646525D01*
X66923411Y-51484010D01*
X66653158Y-51372068D01*
X66366260Y-51315000D01*
X66073740Y-51315000D01*
X65786842Y-51372068D01*
X65516589Y-51484010D01*
X65273368Y-51646525D01*
X65066525Y-51853368D01*
X64944805Y-52035534D01*
X64875178Y-51918645D01*
X64680269Y-51702412D01*
X64446920Y-51528359D01*
X64184099Y-51403175D01*
X64036890Y-51358524D01*
X63807000Y-51479845D01*
X63553000Y-51479845D01*
X63323110Y-51358524D01*
X63175901Y-51403175D01*
X62913080Y-51528359D01*
X62679731Y-51702412D01*
X62484822Y-51918645D01*
X62415195Y-52035534D01*
X62293475Y-51853368D01*
X62086632Y-51646525D01*
X61843411Y-51484010D01*
X61643165Y-51401066D01*
X61717205Y-51290256D01*
X61795226Y-51101898D01*
X61835000Y-50901939D01*
X61835000Y-50698061D01*
X61795226Y-50498102D01*
X61754591Y-50400000D01*
X61795226Y-50301898D01*
X61835000Y-50101939D01*
X61835000Y-49898061D01*
X61795226Y-49698102D01*
X61740712Y-49566496D01*
X61833740Y-49585000D01*
X62126260Y-49585000D01*
X62413158Y-49527932D01*
X62683411Y-49415990D01*
X62926632Y-49253475D01*
X63133475Y-49046632D01*
X63295990Y-48803411D01*
X63407932Y-48533158D01*
X63465000Y-48246260D01*
X63465000Y-47953740D01*
X63407932Y-47666842D01*
X63295990Y-47396589D01*
X63133475Y-47153368D01*
X62926632Y-46946525D01*
X62683411Y-46784010D01*
X62413158Y-46672068D01*
X62126260Y-46615000D01*
X61833740Y-46615000D01*
X61546842Y-46672068D01*
X61276589Y-46784010D01*
X61033368Y-46946525D01*
X60826525Y-47153368D01*
X60710000Y-47327760D01*
X60593475Y-47153368D01*
X60386632Y-46946525D01*
X60143411Y-46784010D01*
X59873158Y-46672068D01*
X59586260Y-46615000D01*
X59293740Y-46615000D01*
X59006842Y-46672068D01*
X58736589Y-46784010D01*
X58493368Y-46946525D01*
X58361513Y-47078380D01*
X58339502Y-47005820D01*
X58280537Y-46895506D01*
X58201185Y-46798815D01*
X58104494Y-46719463D01*
X57994180Y-46660498D01*
X57874482Y-46624188D01*
X57750000Y-46611928D01*
X56050000Y-46611928D01*
X55925518Y-46624188D01*
X55805820Y-46660498D01*
X55695506Y-46719463D01*
X55598815Y-46798815D01*
X55519463Y-46895506D01*
X55460498Y-47005820D01*
X55424188Y-47125518D01*
X55411928Y-47250000D01*
X55411928Y-48950000D01*
X55415032Y-48981515D01*
X55298102Y-49004774D01*
X55109744Y-49082795D01*
X55100000Y-49089306D01*
X55090256Y-49082795D01*
X54901898Y-49004774D01*
X54701939Y-48965000D01*
X54498061Y-48965000D01*
X54298102Y-49004774D01*
X54109744Y-49082795D01*
X53940226Y-49196063D01*
X53796063Y-49340226D01*
X53682795Y-49509744D01*
X53604774Y-49698102D01*
X53565000Y-49898061D01*
X36525448Y-49898061D01*
X36978839Y-49444670D01*
X37398533Y-48816554D01*
X37687623Y-48118628D01*
X37719794Y-47956890D01*
X38758524Y-47956890D01*
X38803175Y-48104099D01*
X38928359Y-48366920D01*
X39102412Y-48600269D01*
X39318645Y-48795178D01*
X39568748Y-48944157D01*
X39843109Y-49041481D01*
X40073000Y-48920814D01*
X40073000Y-47727000D01*
X40327000Y-47727000D01*
X40327000Y-48920814D01*
X40556891Y-49041481D01*
X40831252Y-48944157D01*
X41081355Y-48795178D01*
X41297588Y-48600269D01*
X41471641Y-48366920D01*
X41596825Y-48104099D01*
X41641476Y-47956890D01*
X41520155Y-47727000D01*
X40327000Y-47727000D01*
X40073000Y-47727000D01*
X38879845Y-47727000D01*
X38758524Y-47956890D01*
X37719794Y-47956890D01*
X37835000Y-47377715D01*
X37835000Y-46622285D01*
X37687623Y-45881372D01*
X37398533Y-45183446D01*
X36978839Y-44555330D01*
X36633509Y-44210000D01*
X38711928Y-44210000D01*
X38711928Y-45910000D01*
X38724188Y-46034482D01*
X38760498Y-46154180D01*
X38819463Y-46264494D01*
X38898815Y-46361185D01*
X38995506Y-46440537D01*
X39105820Y-46499502D01*
X39186466Y-46523966D01*
X39102412Y-46599731D01*
X38928359Y-46833080D01*
X38803175Y-47095901D01*
X38758524Y-47243110D01*
X38879845Y-47473000D01*
X40073000Y-47473000D01*
X40073000Y-47453000D01*
X40327000Y-47453000D01*
X40327000Y-47473000D01*
X41520155Y-47473000D01*
X41641476Y-47243110D01*
X41596825Y-47095901D01*
X41471641Y-46833080D01*
X41297588Y-46599731D01*
X41213534Y-46523966D01*
X41294180Y-46499502D01*
X41404494Y-46440537D01*
X41501185Y-46361185D01*
X41580537Y-46264494D01*
X41639502Y-46154180D01*
X41675812Y-46034482D01*
X41688072Y-45910000D01*
X41688072Y-44750000D01*
X67111928Y-44750000D01*
X67111928Y-46450000D01*
X67124188Y-46574482D01*
X67160498Y-46694180D01*
X67219463Y-46804494D01*
X67298815Y-46901185D01*
X67395506Y-46980537D01*
X67505820Y-47039502D01*
X67578380Y-47061513D01*
X67446525Y-47193368D01*
X67284010Y-47436589D01*
X67172068Y-47706842D01*
X67115000Y-47993740D01*
X67115000Y-48286260D01*
X67172068Y-48573158D01*
X67284010Y-48843411D01*
X67446525Y-49086632D01*
X67653368Y-49293475D01*
X67896589Y-49455990D01*
X68166842Y-49567932D01*
X68453740Y-49625000D01*
X68746260Y-49625000D01*
X69033158Y-49567932D01*
X69303411Y-49455990D01*
X69546632Y-49293475D01*
X69753475Y-49086632D01*
X69915990Y-48843411D01*
X70027932Y-48573158D01*
X70085000Y-48286260D01*
X70085000Y-47993740D01*
X70027932Y-47706842D01*
X69915990Y-47436589D01*
X69753475Y-47193368D01*
X69621620Y-47061513D01*
X69694180Y-47039502D01*
X69804494Y-46980537D01*
X69901185Y-46901185D01*
X69980537Y-46804494D01*
X70039502Y-46694180D01*
X70061311Y-46622285D01*
X70165000Y-46622285D01*
X70165000Y-47377715D01*
X70312377Y-48118628D01*
X70601467Y-48816554D01*
X71021161Y-49444670D01*
X71555330Y-49978839D01*
X72183446Y-50398533D01*
X72881372Y-50687623D01*
X73622285Y-50835000D01*
X74377715Y-50835000D01*
X75118628Y-50687623D01*
X75816554Y-50398533D01*
X76444670Y-49978839D01*
X76978839Y-49444670D01*
X77398533Y-48816554D01*
X77687623Y-48118628D01*
X77835000Y-47377715D01*
X77835000Y-46622285D01*
X77687623Y-45881372D01*
X77398533Y-45183446D01*
X76978839Y-44555330D01*
X76444670Y-44021161D01*
X75816554Y-43601467D01*
X75118628Y-43312377D01*
X74377715Y-43165000D01*
X73622285Y-43165000D01*
X72881372Y-43312377D01*
X72183446Y-43601467D01*
X71555330Y-44021161D01*
X71021161Y-44555330D01*
X70601467Y-45183446D01*
X70312377Y-45881372D01*
X70165000Y-46622285D01*
X70061311Y-46622285D01*
X70075812Y-46574482D01*
X70088072Y-46450000D01*
X70088072Y-44750000D01*
X70075812Y-44625518D01*
X70039502Y-44505820D01*
X69980537Y-44395506D01*
X69901185Y-44298815D01*
X69804494Y-44219463D01*
X69694180Y-44160498D01*
X69574482Y-44124188D01*
X69450000Y-44111928D01*
X67750000Y-44111928D01*
X67625518Y-44124188D01*
X67505820Y-44160498D01*
X67395506Y-44219463D01*
X67298815Y-44298815D01*
X67219463Y-44395506D01*
X67160498Y-44505820D01*
X67124188Y-44625518D01*
X67111928Y-44750000D01*
X41688072Y-44750000D01*
X41688072Y-44210000D01*
X41675812Y-44085518D01*
X41639502Y-43965820D01*
X41580537Y-43855506D01*
X41501185Y-43758815D01*
X41404494Y-43679463D01*
X41294180Y-43620498D01*
X41174482Y-43584188D01*
X41050000Y-43571928D01*
X39350000Y-43571928D01*
X39225518Y-43584188D01*
X39105820Y-43620498D01*
X38995506Y-43679463D01*
X38898815Y-43758815D01*
X38819463Y-43855506D01*
X38760498Y-43965820D01*
X38724188Y-44085518D01*
X38711928Y-44210000D01*
X36633509Y-44210000D01*
X36444670Y-44021161D01*
X35816554Y-43601467D01*
X35118628Y-43312377D01*
X34377715Y-43165000D01*
X33622285Y-43165000D01*
X32881372Y-43312377D01*
X32183446Y-43601467D01*
X31555330Y-44021161D01*
X31021161Y-44555330D01*
X30601467Y-45183446D01*
X30312377Y-45881372D01*
X30165000Y-46622285D01*
X29696333Y-46622285D01*
X29731173Y-46231917D01*
X29934656Y-45488109D01*
X30266638Y-44792095D01*
X30716626Y-44165870D01*
X31270403Y-43629223D01*
X31910451Y-43199129D01*
X32616553Y-42889171D01*
X33371457Y-42707935D01*
X34024207Y-42660000D01*
X73970608Y-42660000D01*
X74768083Y-42731173D01*
G37*
%TD.AperFunction*%
%TD*%
D18*
%TO.N,GND*%
X31246525Y-59166632D02*
X31453368Y-59373475D01*
X31627760Y-59490000D01*
X31453368Y-59606525D01*
X31246525Y-59813368D01*
X31084010Y-60056589D01*
X30972068Y-60326842D01*
X30915000Y-60613740D01*
X30915000Y-60906260D01*
X30972068Y-61193158D01*
X31084010Y-61463411D01*
X31246525Y-61706632D01*
X31453368Y-61913475D01*
X31627760Y-62030000D01*
X31453368Y-62146525D01*
X31246525Y-62353368D01*
X31084010Y-62596589D01*
X30972068Y-62866842D01*
X30915000Y-63153740D01*
X30915000Y-63446260D01*
X30972068Y-63733158D01*
X31084010Y-64003411D01*
X31246525Y-64246632D01*
X31453368Y-64453475D01*
X31627760Y-64570000D01*
X31453368Y-64686525D01*
X31246525Y-64893368D01*
X31084010Y-65136589D01*
X30972068Y-65406842D01*
X30915000Y-65693740D01*
X30915000Y-65986260D01*
X30972068Y-66273158D01*
X31084010Y-66543411D01*
X31246525Y-66786632D01*
X31453368Y-66993475D01*
X31627760Y-67110000D01*
X31453368Y-67226525D01*
X31246525Y-67433368D01*
X31084010Y-67676589D01*
X30972068Y-67946842D01*
X30915000Y-68233740D01*
X30915000Y-68526260D01*
X30972068Y-68813158D01*
X31084010Y-69083411D01*
X31246525Y-69326632D01*
X31453368Y-69533475D01*
X31627760Y-69650000D01*
X31453368Y-69766525D01*
X31246525Y-69973368D01*
X31084010Y-70216589D01*
X30972068Y-70486842D01*
X30915000Y-70773740D01*
X30915000Y-71066260D01*
X30972068Y-71353158D01*
X31084010Y-71623411D01*
X31246525Y-71866632D01*
X31453368Y-72073475D01*
X31627760Y-72190000D01*
X31453368Y-72306525D01*
X31246525Y-72513368D01*
X31084010Y-72756589D01*
X31035791Y-72873000D01*
X29660000Y-72873000D01*
X29660000Y-59127000D01*
X31220044Y-59127000D01*
X31246525Y-59166632D01*
%TA.AperFunction,Conductor*%
D19*
G36*
X31246525Y-59166632D02*
G01*
X31453368Y-59373475D01*
X31627760Y-59490000D01*
X31453368Y-59606525D01*
X31246525Y-59813368D01*
X31084010Y-60056589D01*
X30972068Y-60326842D01*
X30915000Y-60613740D01*
X30915000Y-60906260D01*
X30972068Y-61193158D01*
X31084010Y-61463411D01*
X31246525Y-61706632D01*
X31453368Y-61913475D01*
X31627760Y-62030000D01*
X31453368Y-62146525D01*
X31246525Y-62353368D01*
X31084010Y-62596589D01*
X30972068Y-62866842D01*
X30915000Y-63153740D01*
X30915000Y-63446260D01*
X30972068Y-63733158D01*
X31084010Y-64003411D01*
X31246525Y-64246632D01*
X31453368Y-64453475D01*
X31627760Y-64570000D01*
X31453368Y-64686525D01*
X31246525Y-64893368D01*
X31084010Y-65136589D01*
X30972068Y-65406842D01*
X30915000Y-65693740D01*
X30915000Y-65986260D01*
X30972068Y-66273158D01*
X31084010Y-66543411D01*
X31246525Y-66786632D01*
X31453368Y-66993475D01*
X31627760Y-67110000D01*
X31453368Y-67226525D01*
X31246525Y-67433368D01*
X31084010Y-67676589D01*
X30972068Y-67946842D01*
X30915000Y-68233740D01*
X30915000Y-68526260D01*
X30972068Y-68813158D01*
X31084010Y-69083411D01*
X31246525Y-69326632D01*
X31453368Y-69533475D01*
X31627760Y-69650000D01*
X31453368Y-69766525D01*
X31246525Y-69973368D01*
X31084010Y-70216589D01*
X30972068Y-70486842D01*
X30915000Y-70773740D01*
X30915000Y-71066260D01*
X30972068Y-71353158D01*
X31084010Y-71623411D01*
X31246525Y-71866632D01*
X31453368Y-72073475D01*
X31627760Y-72190000D01*
X31453368Y-72306525D01*
X31246525Y-72513368D01*
X31084010Y-72756589D01*
X31035791Y-72873000D01*
X29660000Y-72873000D01*
X29660000Y-59127000D01*
X31220044Y-59127000D01*
X31246525Y-59166632D01*
G37*
%TD.AperFunction*%
D18*
X39873000Y-72873000D02*
X33764209Y-72873000D01*
X33715990Y-72756589D01*
X33553475Y-72513368D01*
X33346632Y-72306525D01*
X33172240Y-72190000D01*
X33346632Y-72073475D01*
X33553475Y-71866632D01*
X33715990Y-71623411D01*
X33827932Y-71353158D01*
X33885000Y-71066260D01*
X33885000Y-70773740D01*
X33827932Y-70486842D01*
X33715990Y-70216589D01*
X33553475Y-69973368D01*
X33346632Y-69766525D01*
X33172240Y-69650000D01*
X33346632Y-69533475D01*
X33553475Y-69326632D01*
X33715990Y-69083411D01*
X33827932Y-68813158D01*
X33885000Y-68526260D01*
X33885000Y-68233740D01*
X33827932Y-67946842D01*
X33715990Y-67676589D01*
X33553475Y-67433368D01*
X33346632Y-67226525D01*
X33172240Y-67110000D01*
X33346632Y-66993475D01*
X33553475Y-66786632D01*
X33715990Y-66543411D01*
X33827932Y-66273158D01*
X33885000Y-65986260D01*
X33885000Y-65693740D01*
X33827932Y-65406842D01*
X33715990Y-65136589D01*
X33553475Y-64893368D01*
X33346632Y-64686525D01*
X33172240Y-64570000D01*
X33346632Y-64453475D01*
X33553475Y-64246632D01*
X33715990Y-64003411D01*
X33827932Y-63733158D01*
X33885000Y-63446260D01*
X33885000Y-63153740D01*
X33827932Y-62866842D01*
X33715990Y-62596589D01*
X33553475Y-62353368D01*
X33346632Y-62146525D01*
X33172240Y-62030000D01*
X33346632Y-61913475D01*
X33553475Y-61706632D01*
X33715990Y-61463411D01*
X33827932Y-61193158D01*
X33885000Y-60906260D01*
X33885000Y-60613740D01*
X33827932Y-60326842D01*
X33715990Y-60056589D01*
X33553475Y-59813368D01*
X33346632Y-59606525D01*
X33172240Y-59490000D01*
X33346632Y-59373475D01*
X33553475Y-59166632D01*
X33579956Y-59127000D01*
X39873000Y-59127000D01*
X39873000Y-72873000D01*
%TA.AperFunction,Conductor*%
D19*
G36*
X39873000Y-72873000D02*
G01*
X33764209Y-72873000D01*
X33715990Y-72756589D01*
X33553475Y-72513368D01*
X33346632Y-72306525D01*
X33172240Y-72190000D01*
X33346632Y-72073475D01*
X33553475Y-71866632D01*
X33715990Y-71623411D01*
X33827932Y-71353158D01*
X33885000Y-71066260D01*
X33885000Y-70773740D01*
X33827932Y-70486842D01*
X33715990Y-70216589D01*
X33553475Y-69973368D01*
X33346632Y-69766525D01*
X33172240Y-69650000D01*
X33346632Y-69533475D01*
X33553475Y-69326632D01*
X33715990Y-69083411D01*
X33827932Y-68813158D01*
X33885000Y-68526260D01*
X33885000Y-68233740D01*
X33827932Y-67946842D01*
X33715990Y-67676589D01*
X33553475Y-67433368D01*
X33346632Y-67226525D01*
X33172240Y-67110000D01*
X33346632Y-66993475D01*
X33553475Y-66786632D01*
X33715990Y-66543411D01*
X33827932Y-66273158D01*
X33885000Y-65986260D01*
X33885000Y-65693740D01*
X33827932Y-65406842D01*
X33715990Y-65136589D01*
X33553475Y-64893368D01*
X33346632Y-64686525D01*
X33172240Y-64570000D01*
X33346632Y-64453475D01*
X33553475Y-64246632D01*
X33715990Y-64003411D01*
X33827932Y-63733158D01*
X33885000Y-63446260D01*
X33885000Y-63153740D01*
X33827932Y-62866842D01*
X33715990Y-62596589D01*
X33553475Y-62353368D01*
X33346632Y-62146525D01*
X33172240Y-62030000D01*
X33346632Y-61913475D01*
X33553475Y-61706632D01*
X33715990Y-61463411D01*
X33827932Y-61193158D01*
X33885000Y-60906260D01*
X33885000Y-60613740D01*
X33827932Y-60326842D01*
X33715990Y-60056589D01*
X33553475Y-59813368D01*
X33346632Y-59606525D01*
X33172240Y-59490000D01*
X33346632Y-59373475D01*
X33553475Y-59166632D01*
X33579956Y-59127000D01*
X39873000Y-59127000D01*
X39873000Y-72873000D01*
G37*
%TD.AperFunction*%
%TD*%
M02*
