M48
; DRILL file {KiCad 5.1.10-88a1d61d58~88~ubuntu20.04.1} date Sun Jun 20 20:02:40 2021
; FORMAT={-:-/ absolute / inch / decimal}
; #@! TF.CreationDate,2021-06-20T20:02:40+02:00
; #@! TF.GenerationSoftware,Kicad,Pcbnew,5.1.10-88a1d61d58~88~ubuntu20.04.1
; #@! TF.FileFunction,Plated,1,4,PTH
FMAT,2
INCH
T1C0.0157
T2C0.0197
T3C0.0320
T4C0.0394
T5C0.0433
T6C0.1260
%
G90
G05
T1
X1.5571Y-2.6063
X1.6339Y-2.6063
X1.7008Y-2.3386
X1.7165Y-2.1969
X1.7874Y-2.1102
X1.8031Y-2.0079
X1.8031Y-2.2047
X1.8425Y-2.1102
X1.8504Y-1.9606
X1.8504Y-2.0
X1.8898Y-1.9606
X1.8898Y-2.0
X1.8976Y-2.0551
X1.8976Y-2.1102
X1.8976Y-2.2047
X1.9055Y-2.4882
X1.937Y-1.9921
X1.9449Y-2.1102
X1.9685Y-1.9921
X1.9764Y-2.2283
X1.9764Y-2.3622
X1.9764Y-2.4173
X1.9921Y-2.1102
X2.0157Y-2.3622
X2.0236Y-2.6693
X2.0315Y-2.0709
X2.0315Y-2.1102
X2.0315Y-2.2283
X2.0394Y-2.5512
X2.0394Y-3.0
X2.0399Y-2.5039
X2.0551Y-2.7008
X2.0709Y-2.0709
X2.0709Y-2.1102
X2.0709Y-2.2756
X2.0787Y-2.622
X2.1417Y-2.7087
X2.1417Y-3.0472
X2.1496Y-1.9685
X2.1496Y-2.0
X2.1496Y-2.0472
X2.189Y-1.9685
X2.189Y-2.0
X2.189Y-2.0472
X2.1909Y-2.503
X2.2126Y-1.7087
X2.2126Y-2.7087
X2.2131Y-2.8346
X2.2362Y-3.0
X2.2441Y-1.9685
X2.2441Y-2.0
X2.2441Y-2.3533
X2.2441Y-2.5591
X2.2598Y-2.8189
X2.2598Y-2.9213
X2.2913Y-1.9685
X2.2913Y-2.0
X2.2953Y-2.3937
X2.2953Y-2.4567
X2.3012Y-2.3494
X2.3228Y-2.9055
X2.3386Y-1.9685
X2.3386Y-2.0
X2.378Y-2.5108
X2.388Y-2.6693
X2.3937Y-1.9685
X2.3937Y-2.0
X2.4094Y-2.811
X2.4094Y-2.8583
X2.4213Y-2.3937
X2.4213Y-2.4567
X2.4961Y-1.7717
X2.6142Y-2.5984
T2
X1.2441Y-1.8504
X1.2441Y-3.4252
X1.2718Y-1.7836
X1.2718Y-1.9172
X1.2718Y-3.3584
X1.2718Y-3.492
X1.3386Y-1.7559
X1.3386Y-1.9449
X1.3386Y-3.3307
X1.3386Y-3.5197
X1.4054Y-1.7836
X1.4054Y-1.9172
X1.4054Y-3.3584
X1.4054Y-3.492
X1.4331Y-1.8504
X1.4331Y-3.4252
X2.8189Y-1.8504
X2.8189Y-3.4252
X2.8466Y-1.7836
X2.8466Y-1.9172
X2.8466Y-3.3584
X2.8466Y-3.492
X2.9134Y-1.7559
X2.9134Y-1.9449
X2.9134Y-3.3307
X2.9134Y-3.5197
X2.9802Y-1.7836
X2.9802Y-1.9172
X2.9802Y-3.3584
X2.9802Y-3.492
X3.0079Y-1.8504
X3.0079Y-3.4252
T3
X1.7205Y-2.5118
X1.7205Y-2.7018
X1.8031Y-2.3701
X1.9031Y-2.3701
T4
X1.2756Y-2.1921
X1.2756Y-2.2921
X1.2756Y-2.3921
X1.2756Y-2.4921
X1.2756Y-2.5921
X1.2756Y-2.6921
X1.2756Y-2.7921
X1.2756Y-2.8921
X1.2756Y-2.9921
X1.2756Y-3.0921
X1.4882Y-2.0551
X1.5142Y-3.126
X1.5142Y-3.226
X1.5827Y-1.774
X1.5827Y-1.874
X1.5882Y-2.0551
X1.6142Y-3.126
X1.6142Y-3.226
X1.6693Y-3.4409
X1.6882Y-2.0551
X1.7693Y-3.4409
X1.8693Y-3.4409
X1.9693Y-3.4409
X2.0693Y-3.4409
X2.1693Y-3.4409
X2.2402Y-1.8937
X2.2693Y-3.4409
X2.3071Y-2.0787
X2.3071Y-2.1787
X2.3402Y-1.8937
X2.3693Y-3.4409
X2.4071Y-2.0787
X2.4071Y-2.1787
X2.4402Y-1.8937
X2.4693Y-3.4409
X2.5071Y-2.0787
X2.5071Y-2.1787
X2.5693Y-3.4409
X2.6071Y-2.0787
X2.6071Y-2.1787
X2.685Y-3.126
X2.685Y-3.226
X2.7008Y-1.7953
X2.7008Y-1.8953
X2.7071Y-2.0787
X2.7071Y-2.1787
X2.785Y-3.126
X2.785Y-3.226
X2.9685Y-2.1945
X2.9685Y-2.2945
X2.9685Y-2.3945
X2.9685Y-2.4945
X2.9685Y-2.5945
X2.9685Y-2.6945
X2.9685Y-2.7945
X2.9685Y-2.8945
X2.9685Y-2.9945
X2.9685Y-3.0945
T5
X2.4843Y-2.7008
X2.4843Y-2.878
X2.7402Y-2.7008
X2.7402Y-2.878
T6
X1.3386Y-1.8504
X1.3386Y-3.4252
X2.9134Y-1.8504
X2.9134Y-3.4252
T0
M30
