%TF.GenerationSoftware,KiCad,Pcbnew,5.1.10-88a1d61d58~88~ubuntu20.04.1*%
%TF.CreationDate,2021-06-20T20:02:36+02:00*%
%TF.ProjectId,bluePillG,626c7565-5069-46c6-9c47-2e6b69636164,rev?*%
%TF.SameCoordinates,Original*%
%TF.FileFunction,Copper,L4,Bot*%
%TF.FilePolarity,Positive*%
%FSLAX46Y46*%
G04 Gerber Fmt 4.6, Leading zero omitted, Abs format (unit mm)*
G04 Created by KiCad (PCBNEW 5.1.10-88a1d61d58~88~ubuntu20.04.1) date 2021-06-20 20:02:36*
%MOMM*%
%LPD*%
G01*
G04 APERTURE LIST*
%TA.AperFunction,ComponentPad*%
%ADD10C,0.800000*%
%TD*%
%TA.AperFunction,ComponentPad*%
%ADD11C,6.400000*%
%TD*%
%TA.AperFunction,ComponentPad*%
%ADD12C,1.320800*%
%TD*%
%TA.AperFunction,ComponentPad*%
%ADD13C,1.676400*%
%TD*%
%TA.AperFunction,ComponentPad*%
%ADD14C,2.000000*%
%TD*%
%TA.AperFunction,ComponentPad*%
%ADD15O,1.700000X1.700000*%
%TD*%
%TA.AperFunction,ComponentPad*%
%ADD16R,1.700000X1.700000*%
%TD*%
%TA.AperFunction,ViaPad*%
%ADD17C,0.800000*%
%TD*%
%TA.AperFunction,Conductor*%
%ADD18C,0.250000*%
%TD*%
%TA.AperFunction,Conductor*%
%ADD19C,0.762000*%
%TD*%
%TA.AperFunction,Conductor*%
%ADD20C,0.254000*%
%TD*%
%TA.AperFunction,Conductor*%
%ADD21C,0.100000*%
%TD*%
G04 APERTURE END LIST*
D10*
%TO.P,H4,1*%
%TO.N,GND*%
X75697056Y-85302944D03*
X74000000Y-84600000D03*
X72302944Y-85302944D03*
X71600000Y-87000000D03*
X72302944Y-88697056D03*
X74000000Y-89400000D03*
X75697056Y-88697056D03*
X76400000Y-87000000D03*
D11*
X74000000Y-87000000D03*
%TD*%
D10*
%TO.P,H3,1*%
%TO.N,VCC*%
X75697056Y-45302944D03*
X74000000Y-44600000D03*
X72302944Y-45302944D03*
X71600000Y-47000000D03*
X72302944Y-48697056D03*
X74000000Y-49400000D03*
X75697056Y-48697056D03*
X76400000Y-47000000D03*
D11*
X74000000Y-47000000D03*
%TD*%
D12*
%TO.P,Y2,2*%
%TO.N,Net-(C19-Pad1)*%
X43700000Y-68626000D03*
%TO.P,Y2,1*%
%TO.N,OSC_IN*%
X43700000Y-63800000D03*
%TD*%
D13*
%TO.P,Y1,2*%
%TO.N,OSC32_OUT*%
X45800000Y-60200000D03*
%TO.P,Y1,1*%
%TO.N,OSC32_IN*%
X48340000Y-60200000D03*
%TD*%
D14*
%TO.P,SW1,1*%
%TO.N,NRST*%
X69600000Y-68600000D03*
%TO.P,SW1,2*%
%TO.N,GND*%
X69600000Y-73100000D03*
%TO.P,SW1,1*%
%TO.N,NRST*%
X63100000Y-68600000D03*
%TO.P,SW1,2*%
%TO.N,GND*%
X63100000Y-73100000D03*
%TD*%
%TO.P,R2,2*%
%TO.N,NRST*%
%TA.AperFunction,SMDPad,CuDef*%
G36*
G01*
X66143750Y-68350000D02*
X66656250Y-68350000D01*
G75*
G02*
X66875000Y-68568750I0J-218750D01*
G01*
X66875000Y-69006250D01*
G75*
G02*
X66656250Y-69225000I-218750J0D01*
G01*
X66143750Y-69225000D01*
G75*
G02*
X65925000Y-69006250I0J218750D01*
G01*
X65925000Y-68568750D01*
G75*
G02*
X66143750Y-68350000I218750J0D01*
G01*
G37*
%TD.AperFunction*%
%TO.P,R2,1*%
%TO.N,+3V3*%
%TA.AperFunction,SMDPad,CuDef*%
G36*
G01*
X66143750Y-66775000D02*
X66656250Y-66775000D01*
G75*
G02*
X66875000Y-66993750I0J-218750D01*
G01*
X66875000Y-67431250D01*
G75*
G02*
X66656250Y-67650000I-218750J0D01*
G01*
X66143750Y-67650000D01*
G75*
G02*
X65925000Y-67431250I0J218750D01*
G01*
X65925000Y-66993750D01*
G75*
G02*
X66143750Y-66775000I218750J0D01*
G01*
G37*
%TD.AperFunction*%
%TD*%
D15*
%TO.P,J10,4*%
%TO.N,+3V3*%
X38460000Y-81940000D03*
%TO.P,J10,3*%
X41000000Y-81940000D03*
%TO.P,J10,2*%
X38460000Y-79400000D03*
D16*
%TO.P,J10,1*%
X41000000Y-79400000D03*
%TD*%
D15*
%TO.P,J9,4*%
%TO.N,GND*%
X68200000Y-81940000D03*
%TO.P,J9,3*%
X70740000Y-81940000D03*
%TO.P,J9,2*%
X68200000Y-79400000D03*
D16*
%TO.P,J9,1*%
X70740000Y-79400000D03*
%TD*%
D15*
%TO.P,J8,10*%
%TO.N,PB9*%
X75400000Y-55740000D03*
%TO.P,J8,9*%
%TO.N,PB7*%
X75400000Y-58280000D03*
%TO.P,J8,8*%
%TO.N,PB6*%
X75400000Y-60820000D03*
%TO.P,J8,7*%
%TO.N,PB5*%
X75400000Y-63360000D03*
%TO.P,J8,6*%
%TO.N,PB4*%
X75400000Y-65900000D03*
%TO.P,J8,5*%
%TO.N,PB3*%
X75400000Y-68440000D03*
%TO.P,J8,4*%
%TO.N,PA15*%
X75400000Y-70980000D03*
%TO.P,J8,3*%
%TO.N,PA12*%
X75400000Y-73520000D03*
%TO.P,J8,2*%
%TO.N,PA11*%
X75400000Y-76060000D03*
D16*
%TO.P,J8,1*%
%TO.N,PA10*%
X75400000Y-78600000D03*
%TD*%
D15*
%TO.P,J7,10*%
%TO.N,PA9*%
X65260000Y-87400000D03*
%TO.P,J7,9*%
%TO.N,PA8*%
X62720000Y-87400000D03*
%TO.P,J7,8*%
%TO.N,PB15*%
X60180000Y-87400000D03*
%TO.P,J7,7*%
%TO.N,PB14*%
X57640000Y-87400000D03*
%TO.P,J7,6*%
%TO.N,PB13*%
X55100000Y-87400000D03*
%TO.P,J7,5*%
%TO.N,PB12*%
X52560000Y-87400000D03*
%TO.P,J7,4*%
%TO.N,PB11*%
X50020000Y-87400000D03*
%TO.P,J7,3*%
%TO.N,PB10*%
X47480000Y-87400000D03*
%TO.P,J7,2*%
%TO.N,PB2*%
X44940000Y-87400000D03*
D16*
%TO.P,J7,1*%
%TO.N,PB1*%
X42400000Y-87400000D03*
%TD*%
D15*
%TO.P,J6,10*%
%TO.N,PB0*%
X32400000Y-78540000D03*
%TO.P,J6,9*%
%TO.N,PA7*%
X32400000Y-76000000D03*
%TO.P,J6,8*%
%TO.N,PA6*%
X32400000Y-73460000D03*
%TO.P,J6,7*%
%TO.N,PA5*%
X32400000Y-70920000D03*
%TO.P,J6,6*%
%TO.N,PA4*%
X32400000Y-68380000D03*
%TO.P,J6,5*%
%TO.N,PA3*%
X32400000Y-65840000D03*
%TO.P,J6,4*%
%TO.N,PA2*%
X32400000Y-63300000D03*
%TO.P,J6,3*%
%TO.N,PA1*%
X32400000Y-60760000D03*
%TO.P,J6,2*%
%TO.N,PA0*%
X32400000Y-58220000D03*
D16*
%TO.P,J6,1*%
%TO.N,PC13*%
X32400000Y-55680000D03*
%TD*%
D15*
%TO.P,J5,2*%
%TO.N,+5V*%
X68600000Y-48140000D03*
D16*
%TO.P,J5,1*%
%TO.N,VCC*%
X68600000Y-45600000D03*
%TD*%
D15*
%TO.P,J4,2*%
%TO.N,GND*%
X40200000Y-47600000D03*
D16*
%TO.P,J4,1*%
%TO.N,VCC*%
X40200000Y-45060000D03*
%TD*%
D15*
%TO.P,J3,3*%
%TO.N,+3V3S*%
X61980000Y-48100000D03*
%TO.P,J3,2*%
%TO.N,+3V3*%
X59440000Y-48100000D03*
D16*
%TO.P,J3,1*%
%TO.N,+3.3VP*%
X56900000Y-48100000D03*
%TD*%
D15*
%TO.P,J2,3*%
%TO.N,GND*%
X42880000Y-52200000D03*
%TO.P,J2,2*%
%TO.N,Net-(J2-Pad2)*%
X40340000Y-52200000D03*
D16*
%TO.P,J2,1*%
%TO.N,+3V3*%
X37800000Y-52200000D03*
%TD*%
D15*
%TO.P,J1,10*%
%TO.N,+5V*%
X68760000Y-55340000D03*
%TO.P,J1,9*%
X68760000Y-52800000D03*
%TO.P,J1,8*%
%TO.N,+3V3S*%
X66220000Y-55340000D03*
%TO.P,J1,7*%
X66220000Y-52800000D03*
%TO.P,J1,6*%
%TO.N,GND*%
X63680000Y-55340000D03*
%TO.P,J1,5*%
X63680000Y-52800000D03*
%TO.P,J1,4*%
%TO.N,SWDIO*%
X61140000Y-55340000D03*
%TO.P,J1,3*%
%TO.N,SWIW*%
X61140000Y-52800000D03*
%TO.P,J1,2*%
%TO.N,SWCLK*%
X58600000Y-55340000D03*
D16*
%TO.P,J1,1*%
%TO.N,NRST*%
X58600000Y-52800000D03*
%TD*%
D10*
%TO.P,H2,1*%
%TO.N,GND*%
X35697056Y-85302944D03*
X34000000Y-84600000D03*
X32302944Y-85302944D03*
X31600000Y-87000000D03*
X32302944Y-88697056D03*
X34000000Y-89400000D03*
X35697056Y-88697056D03*
X36400000Y-87000000D03*
D11*
X34000000Y-87000000D03*
%TD*%
D10*
%TO.P,H1,1*%
%TO.N,VCC*%
X35697056Y-45302944D03*
X34000000Y-44600000D03*
X32302944Y-45302944D03*
X31600000Y-47000000D03*
X32302944Y-48697056D03*
X34000000Y-49400000D03*
X35697056Y-48697056D03*
X36400000Y-47000000D03*
D11*
X34000000Y-47000000D03*
%TD*%
%TO.P,C19,2*%
%TO.N,GND*%
%TA.AperFunction,SMDPad,CuDef*%
G36*
G01*
X41643750Y-69737500D02*
X42156250Y-69737500D01*
G75*
G02*
X42375000Y-69956250I0J-218750D01*
G01*
X42375000Y-70393750D01*
G75*
G02*
X42156250Y-70612500I-218750J0D01*
G01*
X41643750Y-70612500D01*
G75*
G02*
X41425000Y-70393750I0J218750D01*
G01*
X41425000Y-69956250D01*
G75*
G02*
X41643750Y-69737500I218750J0D01*
G01*
G37*
%TD.AperFunction*%
%TO.P,C19,1*%
%TO.N,Net-(C19-Pad1)*%
%TA.AperFunction,SMDPad,CuDef*%
G36*
G01*
X41643750Y-68162500D02*
X42156250Y-68162500D01*
G75*
G02*
X42375000Y-68381250I0J-218750D01*
G01*
X42375000Y-68818750D01*
G75*
G02*
X42156250Y-69037500I-218750J0D01*
G01*
X41643750Y-69037500D01*
G75*
G02*
X41425000Y-68818750I0J218750D01*
G01*
X41425000Y-68381250D01*
G75*
G02*
X41643750Y-68162500I218750J0D01*
G01*
G37*
%TD.AperFunction*%
%TD*%
%TO.P,C18,2*%
%TO.N,GND*%
%TA.AperFunction,SMDPad,CuDef*%
G36*
G01*
X42056250Y-62650000D02*
X41543750Y-62650000D01*
G75*
G02*
X41325000Y-62431250I0J218750D01*
G01*
X41325000Y-61993750D01*
G75*
G02*
X41543750Y-61775000I218750J0D01*
G01*
X42056250Y-61775000D01*
G75*
G02*
X42275000Y-61993750I0J-218750D01*
G01*
X42275000Y-62431250D01*
G75*
G02*
X42056250Y-62650000I-218750J0D01*
G01*
G37*
%TD.AperFunction*%
%TO.P,C18,1*%
%TO.N,OSC_IN*%
%TA.AperFunction,SMDPad,CuDef*%
G36*
G01*
X42056250Y-64225000D02*
X41543750Y-64225000D01*
G75*
G02*
X41325000Y-64006250I0J218750D01*
G01*
X41325000Y-63568750D01*
G75*
G02*
X41543750Y-63350000I218750J0D01*
G01*
X42056250Y-63350000D01*
G75*
G02*
X42275000Y-63568750I0J-218750D01*
G01*
X42275000Y-64006250D01*
G75*
G02*
X42056250Y-64225000I-218750J0D01*
G01*
G37*
%TD.AperFunction*%
%TD*%
%TO.P,C15,2*%
%TO.N,GND*%
%TA.AperFunction,SMDPad,CuDef*%
G36*
G01*
X66143750Y-71150000D02*
X66656250Y-71150000D01*
G75*
G02*
X66875000Y-71368750I0J-218750D01*
G01*
X66875000Y-71806250D01*
G75*
G02*
X66656250Y-72025000I-218750J0D01*
G01*
X66143750Y-72025000D01*
G75*
G02*
X65925000Y-71806250I0J218750D01*
G01*
X65925000Y-71368750D01*
G75*
G02*
X66143750Y-71150000I218750J0D01*
G01*
G37*
%TD.AperFunction*%
%TO.P,C15,1*%
%TO.N,NRST*%
%TA.AperFunction,SMDPad,CuDef*%
G36*
G01*
X66143750Y-69575000D02*
X66656250Y-69575000D01*
G75*
G02*
X66875000Y-69793750I0J-218750D01*
G01*
X66875000Y-70231250D01*
G75*
G02*
X66656250Y-70450000I-218750J0D01*
G01*
X66143750Y-70450000D01*
G75*
G02*
X65925000Y-70231250I0J218750D01*
G01*
X65925000Y-69793750D01*
G75*
G02*
X66143750Y-69575000I218750J0D01*
G01*
G37*
%TD.AperFunction*%
%TD*%
%TO.P,C5,2*%
%TO.N,GND*%
%TA.AperFunction,SMDPad,CuDef*%
G36*
G01*
X52950000Y-63856250D02*
X52950000Y-63343750D01*
G75*
G02*
X53168750Y-63125000I218750J0D01*
G01*
X53606250Y-63125000D01*
G75*
G02*
X53825000Y-63343750I0J-218750D01*
G01*
X53825000Y-63856250D01*
G75*
G02*
X53606250Y-64075000I-218750J0D01*
G01*
X53168750Y-64075000D01*
G75*
G02*
X52950000Y-63856250I0J218750D01*
G01*
G37*
%TD.AperFunction*%
%TO.P,C5,1*%
%TO.N,+3V3*%
%TA.AperFunction,SMDPad,CuDef*%
G36*
G01*
X51375000Y-63856250D02*
X51375000Y-63343750D01*
G75*
G02*
X51593750Y-63125000I218750J0D01*
G01*
X52031250Y-63125000D01*
G75*
G02*
X52250000Y-63343750I0J-218750D01*
G01*
X52250000Y-63856250D01*
G75*
G02*
X52031250Y-64075000I-218750J0D01*
G01*
X51593750Y-64075000D01*
G75*
G02*
X51375000Y-63856250I0J218750D01*
G01*
G37*
%TD.AperFunction*%
%TD*%
D17*
%TO.N,+3V3*%
X48400000Y-63200000D03*
X50200000Y-60000000D03*
X51200000Y-60000000D03*
X66400000Y-66000000D03*
X59000000Y-73800000D03*
X57400000Y-71600000D03*
X57400000Y-74200000D03*
X59400000Y-50000000D03*
X58200000Y-50000000D03*
X57000000Y-50000000D03*
X55600000Y-50000000D03*
X60800000Y-50000000D03*
X60800000Y-50800000D03*
X59400000Y-50800000D03*
X58200000Y-50800000D03*
X57000000Y-50800000D03*
X55600000Y-50800000D03*
X54600000Y-50800000D03*
X54600000Y-50000000D03*
X54600000Y-52000000D03*
X55600000Y-52000000D03*
X43600000Y-55800000D03*
X51812500Y-63600000D03*
X61500000Y-62400000D03*
X58300000Y-62400000D03*
%TO.N,GND*%
X50200000Y-61400000D03*
X48200000Y-56000000D03*
X45800000Y-56000000D03*
X50200000Y-56600000D03*
X51600000Y-56600000D03*
X52600000Y-57800000D03*
X56200000Y-68800000D03*
X54400000Y-68800000D03*
X61200000Y-71400000D03*
X61200000Y-72600000D03*
X56800000Y-76200000D03*
X54400000Y-77400000D03*
X51800000Y-76200000D03*
X58300000Y-60800000D03*
X61500000Y-60800000D03*
X56200000Y-43400000D03*
X63400000Y-45000000D03*
X50000000Y-50600000D03*
X49200000Y-50600000D03*
X48200000Y-52200000D03*
X51600000Y-52600000D03*
X51600000Y-53600000D03*
X50600000Y-53600000D03*
X49400000Y-53600000D03*
X48200000Y-53600000D03*
X46800000Y-53600000D03*
X45400000Y-53600000D03*
X48000000Y-50800000D03*
X45800000Y-51000000D03*
X52600000Y-52600000D03*
X52600000Y-53600000D03*
X47000000Y-50800000D03*
X48000000Y-49800000D03*
X47000000Y-49800000D03*
X60400000Y-63775000D03*
X41500000Y-66200000D03*
X39550000Y-66200000D03*
%TO.N,NRST*%
X52800000Y-66600000D03*
%TO.N,PC13*%
X51800000Y-64800000D03*
X43200000Y-59400000D03*
%TO.N,PB9*%
X55650000Y-63575000D03*
%TO.N,SWCLK*%
X57000000Y-59775000D03*
%TO.N,SWDIO*%
X58450000Y-59675000D03*
%TO.N,PA11*%
X57000000Y-65000000D03*
%TO.N,PB13*%
X60655185Y-67801488D03*
%TO.N,PB10*%
X56213000Y-72000000D03*
%TO.N,PA3*%
X52200000Y-68600000D03*
%TO.N,PA2*%
X51400000Y-67800000D03*
%TD*%
D18*
%TO.N,+3V3*%
X66400000Y-66000000D02*
X66400000Y-67400000D01*
D19*
X60800000Y-50000000D02*
X60800000Y-50800000D01*
X54600000Y-50800000D02*
X54600000Y-50000000D01*
D18*
%TO.N,NRST*%
X68187500Y-70012500D02*
X67200000Y-70012500D01*
X69600000Y-68600000D02*
X68187500Y-70012500D01*
X67187500Y-70025000D02*
X67200000Y-70012500D01*
X65600000Y-70025000D02*
X67187500Y-70025000D01*
X64525000Y-70025000D02*
X63100000Y-68600000D01*
X65600000Y-70025000D02*
X64525000Y-70025000D01*
X66400000Y-70012500D02*
X66400000Y-68787500D01*
X53276487Y-67076487D02*
X52800000Y-66600000D01*
X61576487Y-67076487D02*
X53276487Y-67076487D01*
X63100000Y-68600000D02*
X61576487Y-67076487D01*
X52800000Y-66600000D02*
X52800000Y-65875000D01*
X54924999Y-56475001D02*
X58600000Y-52800000D01*
X54924999Y-63750001D02*
X54924999Y-56475001D01*
X52800000Y-65875000D02*
X54924999Y-63750001D01*
%TO.N,OSC_IN*%
X43687500Y-63787500D02*
X43700000Y-63800000D01*
X41800000Y-63787500D02*
X43687500Y-63787500D01*
%TO.N,Net-(C19-Pad1)*%
X43674000Y-68600000D02*
X43700000Y-68626000D01*
X41900000Y-68600000D02*
X43674000Y-68600000D01*
%TO.N,PC13*%
X43200000Y-59400000D02*
X44400000Y-58200000D01*
X44400000Y-58200000D02*
X51200000Y-58200000D01*
X51234315Y-64800000D02*
X51800000Y-64800000D01*
X51049990Y-64615675D02*
X51234315Y-64800000D01*
X51049990Y-63118516D02*
X51049990Y-64615675D01*
X51925001Y-62243505D02*
X51049990Y-63118516D01*
X51925001Y-58925001D02*
X51925001Y-62243505D01*
X51200000Y-58200000D02*
X51925001Y-58925001D01*
%TO.N,PB9*%
X58198002Y-63575000D02*
X59900000Y-61873002D01*
X55650000Y-63575000D02*
X58198002Y-63575000D01*
X59900000Y-61326998D02*
X63076998Y-58150000D01*
X59900000Y-61873002D02*
X59900000Y-61326998D01*
X72990000Y-58150000D02*
X75400000Y-55740000D01*
X63076998Y-58150000D02*
X72990000Y-58150000D01*
%TO.N,SWCLK*%
X58600000Y-58175000D02*
X58600000Y-55340000D01*
X57000000Y-59775000D02*
X58600000Y-58175000D01*
%TO.N,SWDIO*%
X61140000Y-56985000D02*
X61140000Y-55340000D01*
X58450000Y-59675000D02*
X61140000Y-56985000D01*
%TO.N,PA11*%
X67961002Y-65000000D02*
X71200000Y-68238998D01*
X57000000Y-65000000D02*
X67961002Y-65000000D01*
X71200000Y-71860000D02*
X75400000Y-76060000D01*
X71200000Y-68238998D02*
X71200000Y-71860000D01*
%TO.N,PB13*%
X60255186Y-68201487D02*
X60255186Y-75944814D01*
X60655185Y-67801488D02*
X60255186Y-68201487D01*
X55100000Y-81100000D02*
X55100000Y-87400000D01*
X60255186Y-75944814D02*
X55100000Y-81100000D01*
%TO.N,PB10*%
X47480000Y-81593002D02*
X47480000Y-87400000D01*
X56213000Y-72860002D02*
X47480000Y-81593002D01*
X56213000Y-72000000D02*
X56213000Y-72860002D01*
%TO.N,PA3*%
X39010009Y-72450009D02*
X32400000Y-65840000D01*
X48915676Y-72450009D02*
X39010009Y-72450009D01*
X52200000Y-69165685D02*
X48915676Y-72450009D01*
X52200000Y-68600000D02*
X52200000Y-69165685D01*
%TO.N,PA2*%
X48600000Y-72000000D02*
X42481006Y-72000000D01*
X33781006Y-63300000D02*
X32400000Y-63300000D01*
X51400000Y-69200000D02*
X48600000Y-72000000D01*
X42481006Y-72000000D02*
X33781006Y-63300000D01*
X51400000Y-67800000D02*
X51400000Y-69200000D01*
%TD*%
D20*
%TO.N,GND*%
X44383414Y-60629717D02*
X44494467Y-60897822D01*
X44655691Y-61139110D01*
X44860890Y-61344309D01*
X45073000Y-61486037D01*
X45073000Y-62400000D01*
X45075440Y-62424776D01*
X45082667Y-62448601D01*
X45094403Y-62470557D01*
X45110197Y-62489803D01*
X45129443Y-62505597D01*
X45151399Y-62517333D01*
X45175224Y-62524560D01*
X45200000Y-62527000D01*
X46173000Y-62527000D01*
X46173000Y-65300000D01*
X46175440Y-65324776D01*
X46182667Y-65348601D01*
X46194403Y-65370557D01*
X46210197Y-65389803D01*
X46229443Y-65405597D01*
X46251399Y-65417333D01*
X46275224Y-65424560D01*
X46300000Y-65427000D01*
X50773000Y-65427000D01*
X50773000Y-66073000D01*
X48100000Y-66073000D01*
X48075224Y-66075440D01*
X48051399Y-66082667D01*
X48029443Y-66094403D01*
X48010197Y-66110197D01*
X47994403Y-66129443D01*
X47982667Y-66151399D01*
X47975440Y-66175224D01*
X47973001Y-66199412D01*
X47949665Y-71240000D01*
X42795808Y-71240000D01*
X42709521Y-71153713D01*
X42729494Y-71143037D01*
X42826185Y-71063685D01*
X42905537Y-70966994D01*
X42964502Y-70856680D01*
X43000812Y-70736982D01*
X43013072Y-70612500D01*
X43010000Y-70460750D01*
X42851250Y-70302000D01*
X42027000Y-70302000D01*
X42027000Y-70322000D01*
X41877808Y-70322000D01*
X41753000Y-70197192D01*
X41753000Y-70048000D01*
X41773000Y-70048000D01*
X41773000Y-70028000D01*
X42027000Y-70028000D01*
X42027000Y-70048000D01*
X42851250Y-70048000D01*
X43010000Y-69889250D01*
X43013072Y-69737500D01*
X43011751Y-69724092D01*
X43086398Y-69773969D01*
X43322146Y-69871619D01*
X43572414Y-69921400D01*
X43827586Y-69921400D01*
X44077854Y-69871619D01*
X44313602Y-69773969D01*
X44525769Y-69632203D01*
X44706203Y-69451769D01*
X44847969Y-69239602D01*
X44945619Y-69003854D01*
X44995400Y-68753586D01*
X44995400Y-68498414D01*
X44945619Y-68248146D01*
X44847969Y-68012398D01*
X44706203Y-67800231D01*
X44525769Y-67619797D01*
X44313602Y-67478031D01*
X44077854Y-67380381D01*
X43827586Y-67330600D01*
X43572414Y-67330600D01*
X43322146Y-67380381D01*
X43086398Y-67478031D01*
X42874231Y-67619797D01*
X42738238Y-67755790D01*
X42632275Y-67668829D01*
X42484142Y-67589650D01*
X42323408Y-67540892D01*
X42156250Y-67524428D01*
X41643750Y-67524428D01*
X41476592Y-67540892D01*
X41315858Y-67589650D01*
X41207499Y-67647569D01*
X41175162Y-64776098D01*
X41215858Y-64797850D01*
X41376592Y-64846608D01*
X41543750Y-64863072D01*
X42056250Y-64863072D01*
X42223408Y-64846608D01*
X42384142Y-64797850D01*
X42532275Y-64718671D01*
X42662115Y-64612115D01*
X42674550Y-64596963D01*
X42693797Y-64625769D01*
X42874231Y-64806203D01*
X43086398Y-64947969D01*
X43322146Y-65045619D01*
X43572414Y-65095400D01*
X43827586Y-65095400D01*
X44077854Y-65045619D01*
X44313602Y-64947969D01*
X44525769Y-64806203D01*
X44706203Y-64625769D01*
X44847969Y-64413602D01*
X44945619Y-64177854D01*
X44995400Y-63927586D01*
X44995400Y-63672414D01*
X44945619Y-63422146D01*
X44847969Y-63186398D01*
X44706203Y-62974231D01*
X44525769Y-62793797D01*
X44313602Y-62652031D01*
X44077854Y-62554381D01*
X43827586Y-62504600D01*
X43572414Y-62504600D01*
X43322146Y-62554381D01*
X43086398Y-62652031D01*
X42900221Y-62776431D01*
X42900812Y-62774482D01*
X42913072Y-62650000D01*
X42910000Y-62498250D01*
X42751250Y-62339500D01*
X41927000Y-62339500D01*
X41927000Y-62359500D01*
X41673000Y-62359500D01*
X41673000Y-62339500D01*
X41653000Y-62339500D01*
X41653000Y-62085500D01*
X41673000Y-62085500D01*
X41673000Y-61298750D01*
X41927000Y-61298750D01*
X41927000Y-62085500D01*
X42751250Y-62085500D01*
X42910000Y-61926750D01*
X42913072Y-61775000D01*
X42900812Y-61650518D01*
X42864502Y-61530820D01*
X42805537Y-61420506D01*
X42726185Y-61323815D01*
X42629494Y-61244463D01*
X42519180Y-61185498D01*
X42399482Y-61149188D01*
X42275000Y-61136928D01*
X42085750Y-61140000D01*
X41927000Y-61298750D01*
X41673000Y-61298750D01*
X41514250Y-61140000D01*
X41325000Y-61136928D01*
X41200518Y-61149188D01*
X41134544Y-61169201D01*
X41128438Y-60627000D01*
X44382874Y-60627000D01*
X44383414Y-60629717D01*
%TA.AperFunction,Conductor*%
D21*
G36*
X44383414Y-60629717D02*
G01*
X44494467Y-60897822D01*
X44655691Y-61139110D01*
X44860890Y-61344309D01*
X45073000Y-61486037D01*
X45073000Y-62400000D01*
X45075440Y-62424776D01*
X45082667Y-62448601D01*
X45094403Y-62470557D01*
X45110197Y-62489803D01*
X45129443Y-62505597D01*
X45151399Y-62517333D01*
X45175224Y-62524560D01*
X45200000Y-62527000D01*
X46173000Y-62527000D01*
X46173000Y-65300000D01*
X46175440Y-65324776D01*
X46182667Y-65348601D01*
X46194403Y-65370557D01*
X46210197Y-65389803D01*
X46229443Y-65405597D01*
X46251399Y-65417333D01*
X46275224Y-65424560D01*
X46300000Y-65427000D01*
X50773000Y-65427000D01*
X50773000Y-66073000D01*
X48100000Y-66073000D01*
X48075224Y-66075440D01*
X48051399Y-66082667D01*
X48029443Y-66094403D01*
X48010197Y-66110197D01*
X47994403Y-66129443D01*
X47982667Y-66151399D01*
X47975440Y-66175224D01*
X47973001Y-66199412D01*
X47949665Y-71240000D01*
X42795808Y-71240000D01*
X42709521Y-71153713D01*
X42729494Y-71143037D01*
X42826185Y-71063685D01*
X42905537Y-70966994D01*
X42964502Y-70856680D01*
X43000812Y-70736982D01*
X43013072Y-70612500D01*
X43010000Y-70460750D01*
X42851250Y-70302000D01*
X42027000Y-70302000D01*
X42027000Y-70322000D01*
X41877808Y-70322000D01*
X41753000Y-70197192D01*
X41753000Y-70048000D01*
X41773000Y-70048000D01*
X41773000Y-70028000D01*
X42027000Y-70028000D01*
X42027000Y-70048000D01*
X42851250Y-70048000D01*
X43010000Y-69889250D01*
X43013072Y-69737500D01*
X43011751Y-69724092D01*
X43086398Y-69773969D01*
X43322146Y-69871619D01*
X43572414Y-69921400D01*
X43827586Y-69921400D01*
X44077854Y-69871619D01*
X44313602Y-69773969D01*
X44525769Y-69632203D01*
X44706203Y-69451769D01*
X44847969Y-69239602D01*
X44945619Y-69003854D01*
X44995400Y-68753586D01*
X44995400Y-68498414D01*
X44945619Y-68248146D01*
X44847969Y-68012398D01*
X44706203Y-67800231D01*
X44525769Y-67619797D01*
X44313602Y-67478031D01*
X44077854Y-67380381D01*
X43827586Y-67330600D01*
X43572414Y-67330600D01*
X43322146Y-67380381D01*
X43086398Y-67478031D01*
X42874231Y-67619797D01*
X42738238Y-67755790D01*
X42632275Y-67668829D01*
X42484142Y-67589650D01*
X42323408Y-67540892D01*
X42156250Y-67524428D01*
X41643750Y-67524428D01*
X41476592Y-67540892D01*
X41315858Y-67589650D01*
X41207499Y-67647569D01*
X41175162Y-64776098D01*
X41215858Y-64797850D01*
X41376592Y-64846608D01*
X41543750Y-64863072D01*
X42056250Y-64863072D01*
X42223408Y-64846608D01*
X42384142Y-64797850D01*
X42532275Y-64718671D01*
X42662115Y-64612115D01*
X42674550Y-64596963D01*
X42693797Y-64625769D01*
X42874231Y-64806203D01*
X43086398Y-64947969D01*
X43322146Y-65045619D01*
X43572414Y-65095400D01*
X43827586Y-65095400D01*
X44077854Y-65045619D01*
X44313602Y-64947969D01*
X44525769Y-64806203D01*
X44706203Y-64625769D01*
X44847969Y-64413602D01*
X44945619Y-64177854D01*
X44995400Y-63927586D01*
X44995400Y-63672414D01*
X44945619Y-63422146D01*
X44847969Y-63186398D01*
X44706203Y-62974231D01*
X44525769Y-62793797D01*
X44313602Y-62652031D01*
X44077854Y-62554381D01*
X43827586Y-62504600D01*
X43572414Y-62504600D01*
X43322146Y-62554381D01*
X43086398Y-62652031D01*
X42900221Y-62776431D01*
X42900812Y-62774482D01*
X42913072Y-62650000D01*
X42910000Y-62498250D01*
X42751250Y-62339500D01*
X41927000Y-62339500D01*
X41927000Y-62359500D01*
X41673000Y-62359500D01*
X41673000Y-62339500D01*
X41653000Y-62339500D01*
X41653000Y-62085500D01*
X41673000Y-62085500D01*
X41673000Y-61298750D01*
X41927000Y-61298750D01*
X41927000Y-62085500D01*
X42751250Y-62085500D01*
X42910000Y-61926750D01*
X42913072Y-61775000D01*
X42900812Y-61650518D01*
X42864502Y-61530820D01*
X42805537Y-61420506D01*
X42726185Y-61323815D01*
X42629494Y-61244463D01*
X42519180Y-61185498D01*
X42399482Y-61149188D01*
X42275000Y-61136928D01*
X42085750Y-61140000D01*
X41927000Y-61298750D01*
X41673000Y-61298750D01*
X41514250Y-61140000D01*
X41325000Y-61136928D01*
X41200518Y-61149188D01*
X41134544Y-61169201D01*
X41128438Y-60627000D01*
X44382874Y-60627000D01*
X44383414Y-60629717D01*
G37*
%TD.AperFunction*%
%TD*%
D20*
%TO.N,GND*%
X74768083Y-42731173D02*
X75511891Y-42934656D01*
X76207905Y-43266638D01*
X76834130Y-43716626D01*
X77370777Y-44270403D01*
X77800871Y-44910451D01*
X78110829Y-45616553D01*
X78292065Y-46371457D01*
X78340000Y-47024207D01*
X78340001Y-85972899D01*
X78266098Y-86871802D01*
X78052999Y-87720180D01*
X77704197Y-88522371D01*
X77229062Y-89256818D01*
X76640354Y-89903799D01*
X75953875Y-90445946D01*
X75188076Y-90868691D01*
X74363514Y-91160683D01*
X73490925Y-91316116D01*
X72984453Y-91340000D01*
X35027089Y-91340000D01*
X34128198Y-91266098D01*
X33279820Y-91052999D01*
X32477629Y-90704197D01*
X31743182Y-90229062D01*
X31162720Y-89700881D01*
X31478724Y-89700881D01*
X31838912Y-90190548D01*
X32502882Y-90550849D01*
X33224385Y-90774694D01*
X33975695Y-90853480D01*
X34727938Y-90784178D01*
X35452208Y-90569452D01*
X36120670Y-90217555D01*
X36161088Y-90190548D01*
X36521276Y-89700881D01*
X71478724Y-89700881D01*
X71838912Y-90190548D01*
X72502882Y-90550849D01*
X73224385Y-90774694D01*
X73975695Y-90853480D01*
X74727938Y-90784178D01*
X75452208Y-90569452D01*
X76120670Y-90217555D01*
X76161088Y-90190548D01*
X76521276Y-89700881D01*
X74000000Y-87179605D01*
X71478724Y-89700881D01*
X36521276Y-89700881D01*
X34000000Y-87179605D01*
X31478724Y-89700881D01*
X31162720Y-89700881D01*
X31096201Y-89640354D01*
X30554054Y-88953875D01*
X30131309Y-88188076D01*
X29839317Y-87363514D01*
X29770236Y-86975695D01*
X30146520Y-86975695D01*
X30215822Y-87727938D01*
X30430548Y-88452208D01*
X30782445Y-89120670D01*
X30809452Y-89161088D01*
X31299119Y-89521276D01*
X33820395Y-87000000D01*
X34179605Y-87000000D01*
X36700881Y-89521276D01*
X37190548Y-89161088D01*
X37550849Y-88497118D01*
X37774694Y-87775615D01*
X37853480Y-87024305D01*
X37784178Y-86272062D01*
X37569452Y-85547792D01*
X37217555Y-84879330D01*
X37190548Y-84838912D01*
X36700881Y-84478724D01*
X34179605Y-87000000D01*
X33820395Y-87000000D01*
X31299119Y-84478724D01*
X30809452Y-84838912D01*
X30449151Y-85502882D01*
X30225306Y-86224385D01*
X30146520Y-86975695D01*
X29770236Y-86975695D01*
X29683884Y-86490925D01*
X29660000Y-85984453D01*
X29660000Y-84299119D01*
X31478724Y-84299119D01*
X34000000Y-86820395D01*
X36521276Y-84299119D01*
X36161088Y-83809452D01*
X35497118Y-83449151D01*
X34775615Y-83225306D01*
X34024305Y-83146520D01*
X33272062Y-83215822D01*
X32547792Y-83430548D01*
X31879330Y-83782445D01*
X31838912Y-83809452D01*
X31478724Y-84299119D01*
X29660000Y-84299119D01*
X29660000Y-54830000D01*
X30911928Y-54830000D01*
X30911928Y-56530000D01*
X30924188Y-56654482D01*
X30960498Y-56774180D01*
X31019463Y-56884494D01*
X31098815Y-56981185D01*
X31195506Y-57060537D01*
X31305820Y-57119502D01*
X31378380Y-57141513D01*
X31246525Y-57273368D01*
X31084010Y-57516589D01*
X30972068Y-57786842D01*
X30915000Y-58073740D01*
X30915000Y-58366260D01*
X30972068Y-58653158D01*
X31084010Y-58923411D01*
X31246525Y-59166632D01*
X31453368Y-59373475D01*
X31627760Y-59490000D01*
X31453368Y-59606525D01*
X31246525Y-59813368D01*
X31084010Y-60056589D01*
X30972068Y-60326842D01*
X30915000Y-60613740D01*
X30915000Y-60906260D01*
X30972068Y-61193158D01*
X31084010Y-61463411D01*
X31246525Y-61706632D01*
X31453368Y-61913475D01*
X31627760Y-62030000D01*
X31453368Y-62146525D01*
X31246525Y-62353368D01*
X31084010Y-62596589D01*
X30972068Y-62866842D01*
X30915000Y-63153740D01*
X30915000Y-63446260D01*
X30972068Y-63733158D01*
X31084010Y-64003411D01*
X31246525Y-64246632D01*
X31453368Y-64453475D01*
X31627760Y-64570000D01*
X31453368Y-64686525D01*
X31246525Y-64893368D01*
X31084010Y-65136589D01*
X30972068Y-65406842D01*
X30915000Y-65693740D01*
X30915000Y-65986260D01*
X30972068Y-66273158D01*
X31084010Y-66543411D01*
X31246525Y-66786632D01*
X31453368Y-66993475D01*
X31627760Y-67110000D01*
X31453368Y-67226525D01*
X31246525Y-67433368D01*
X31084010Y-67676589D01*
X30972068Y-67946842D01*
X30915000Y-68233740D01*
X30915000Y-68526260D01*
X30972068Y-68813158D01*
X31084010Y-69083411D01*
X31246525Y-69326632D01*
X31453368Y-69533475D01*
X31627760Y-69650000D01*
X31453368Y-69766525D01*
X31246525Y-69973368D01*
X31084010Y-70216589D01*
X30972068Y-70486842D01*
X30915000Y-70773740D01*
X30915000Y-71066260D01*
X30972068Y-71353158D01*
X31084010Y-71623411D01*
X31246525Y-71866632D01*
X31453368Y-72073475D01*
X31627760Y-72190000D01*
X31453368Y-72306525D01*
X31246525Y-72513368D01*
X31084010Y-72756589D01*
X30972068Y-73026842D01*
X30915000Y-73313740D01*
X30915000Y-73606260D01*
X30972068Y-73893158D01*
X31084010Y-74163411D01*
X31246525Y-74406632D01*
X31453368Y-74613475D01*
X31627760Y-74730000D01*
X31453368Y-74846525D01*
X31246525Y-75053368D01*
X31084010Y-75296589D01*
X30972068Y-75566842D01*
X30915000Y-75853740D01*
X30915000Y-76146260D01*
X30972068Y-76433158D01*
X31084010Y-76703411D01*
X31246525Y-76946632D01*
X31453368Y-77153475D01*
X31627760Y-77270000D01*
X31453368Y-77386525D01*
X31246525Y-77593368D01*
X31084010Y-77836589D01*
X30972068Y-78106842D01*
X30915000Y-78393740D01*
X30915000Y-78686260D01*
X30972068Y-78973158D01*
X31084010Y-79243411D01*
X31246525Y-79486632D01*
X31453368Y-79693475D01*
X31696589Y-79855990D01*
X31966842Y-79967932D01*
X32253740Y-80025000D01*
X32546260Y-80025000D01*
X32833158Y-79967932D01*
X33103411Y-79855990D01*
X33346632Y-79693475D01*
X33553475Y-79486632D01*
X33709088Y-79253740D01*
X36975000Y-79253740D01*
X36975000Y-79546260D01*
X37032068Y-79833158D01*
X37144010Y-80103411D01*
X37306525Y-80346632D01*
X37513368Y-80553475D01*
X37687760Y-80670000D01*
X37513368Y-80786525D01*
X37306525Y-80993368D01*
X37144010Y-81236589D01*
X37032068Y-81506842D01*
X36975000Y-81793740D01*
X36975000Y-82086260D01*
X37032068Y-82373158D01*
X37144010Y-82643411D01*
X37306525Y-82886632D01*
X37513368Y-83093475D01*
X37756589Y-83255990D01*
X38026842Y-83367932D01*
X38313740Y-83425000D01*
X38606260Y-83425000D01*
X38893158Y-83367932D01*
X39163411Y-83255990D01*
X39406632Y-83093475D01*
X39613475Y-82886632D01*
X39730000Y-82712240D01*
X39846525Y-82886632D01*
X40053368Y-83093475D01*
X40296589Y-83255990D01*
X40566842Y-83367932D01*
X40853740Y-83425000D01*
X41146260Y-83425000D01*
X41433158Y-83367932D01*
X41703411Y-83255990D01*
X41946632Y-83093475D01*
X42153475Y-82886632D01*
X42315990Y-82643411D01*
X42427932Y-82373158D01*
X42485000Y-82086260D01*
X42485000Y-81793740D01*
X42427932Y-81506842D01*
X42315990Y-81236589D01*
X42153475Y-80993368D01*
X42021620Y-80861513D01*
X42094180Y-80839502D01*
X42204494Y-80780537D01*
X42301185Y-80701185D01*
X42380537Y-80604494D01*
X42439502Y-80494180D01*
X42475812Y-80374482D01*
X42488072Y-80250000D01*
X42488072Y-78550000D01*
X42475812Y-78425518D01*
X42439502Y-78305820D01*
X42380537Y-78195506D01*
X42301185Y-78098815D01*
X42204494Y-78019463D01*
X42094180Y-77960498D01*
X41974482Y-77924188D01*
X41850000Y-77911928D01*
X40150000Y-77911928D01*
X40025518Y-77924188D01*
X39905820Y-77960498D01*
X39795506Y-78019463D01*
X39698815Y-78098815D01*
X39619463Y-78195506D01*
X39560498Y-78305820D01*
X39538487Y-78378380D01*
X39406632Y-78246525D01*
X39163411Y-78084010D01*
X38893158Y-77972068D01*
X38606260Y-77915000D01*
X38313740Y-77915000D01*
X38026842Y-77972068D01*
X37756589Y-78084010D01*
X37513368Y-78246525D01*
X37306525Y-78453368D01*
X37144010Y-78696589D01*
X37032068Y-78966842D01*
X36975000Y-79253740D01*
X33709088Y-79253740D01*
X33715990Y-79243411D01*
X33827932Y-78973158D01*
X33885000Y-78686260D01*
X33885000Y-78393740D01*
X33827932Y-78106842D01*
X33715990Y-77836589D01*
X33553475Y-77593368D01*
X33346632Y-77386525D01*
X33172240Y-77270000D01*
X33346632Y-77153475D01*
X33553475Y-76946632D01*
X33715990Y-76703411D01*
X33827932Y-76433158D01*
X33885000Y-76146260D01*
X33885000Y-75853740D01*
X33827932Y-75566842D01*
X33715990Y-75296589D01*
X33553475Y-75053368D01*
X33346632Y-74846525D01*
X33172240Y-74730000D01*
X33346632Y-74613475D01*
X33553475Y-74406632D01*
X33715990Y-74163411D01*
X33827932Y-73893158D01*
X33885000Y-73606260D01*
X33885000Y-73313740D01*
X33827932Y-73026842D01*
X33715990Y-72756589D01*
X33553475Y-72513368D01*
X33346632Y-72306525D01*
X33172240Y-72190000D01*
X33346632Y-72073475D01*
X33553475Y-71866632D01*
X33715990Y-71623411D01*
X33827932Y-71353158D01*
X33885000Y-71066260D01*
X33885000Y-70773740D01*
X33827932Y-70486842D01*
X33715990Y-70216589D01*
X33553475Y-69973368D01*
X33346632Y-69766525D01*
X33172240Y-69650000D01*
X33346632Y-69533475D01*
X33553475Y-69326632D01*
X33715990Y-69083411D01*
X33827932Y-68813158D01*
X33885000Y-68526260D01*
X33885000Y-68399802D01*
X38446214Y-72961017D01*
X38470008Y-72990010D01*
X38499001Y-73013804D01*
X38499005Y-73013808D01*
X38569694Y-73071820D01*
X38585733Y-73084983D01*
X38717762Y-73155555D01*
X38861023Y-73199012D01*
X38972676Y-73210009D01*
X38972685Y-73210009D01*
X39010008Y-73213685D01*
X39047331Y-73210009D01*
X48878354Y-73210009D01*
X48915676Y-73213685D01*
X48952998Y-73210009D01*
X48953009Y-73210009D01*
X49064662Y-73199012D01*
X49207923Y-73155555D01*
X49339952Y-73084983D01*
X49455677Y-72990010D01*
X49479480Y-72961006D01*
X52711003Y-69729484D01*
X52740001Y-69705686D01*
X52834974Y-69589961D01*
X52905546Y-69457932D01*
X52948987Y-69314724D01*
X53003937Y-69259774D01*
X53117205Y-69090256D01*
X53195226Y-68901898D01*
X53235000Y-68701939D01*
X53235000Y-68498061D01*
X53195226Y-68298102D01*
X53117205Y-68109744D01*
X53003937Y-67940226D01*
X52859774Y-67796063D01*
X52690256Y-67682795D01*
X52501898Y-67604774D01*
X52412924Y-67587076D01*
X52407042Y-67557508D01*
X52498102Y-67595226D01*
X52698061Y-67635000D01*
X52759043Y-67635000D01*
X52852211Y-67711461D01*
X52984240Y-67782033D01*
X53127501Y-67825490D01*
X53239154Y-67836487D01*
X53239163Y-67836487D01*
X53276486Y-67840163D01*
X53313809Y-67836487D01*
X59588528Y-67836487D01*
X59580772Y-67850998D01*
X59549640Y-67909241D01*
X59506183Y-68052502D01*
X59495186Y-68164155D01*
X59495186Y-68164165D01*
X59491510Y-68201487D01*
X59495186Y-68238809D01*
X59495187Y-72886090D01*
X59490256Y-72882795D01*
X59301898Y-72804774D01*
X59101939Y-72765000D01*
X58898061Y-72765000D01*
X58698102Y-72804774D01*
X58509744Y-72882795D01*
X58340226Y-72996063D01*
X58196063Y-73140226D01*
X58082795Y-73309744D01*
X58049801Y-73389399D01*
X57890256Y-73282795D01*
X57701898Y-73204774D01*
X57501939Y-73165000D01*
X57298061Y-73165000D01*
X57098102Y-73204774D01*
X56909744Y-73282795D01*
X56775671Y-73372379D01*
X56786740Y-73358892D01*
X56847974Y-73284279D01*
X56918546Y-73152249D01*
X56934395Y-73100000D01*
X56962003Y-73008988D01*
X56973000Y-72897335D01*
X56973000Y-72897326D01*
X56976676Y-72860003D01*
X56973000Y-72822680D01*
X56973000Y-72703711D01*
X57016937Y-72659774D01*
X57068312Y-72582886D01*
X57098102Y-72595226D01*
X57298061Y-72635000D01*
X57501939Y-72635000D01*
X57701898Y-72595226D01*
X57890256Y-72517205D01*
X58059774Y-72403937D01*
X58203937Y-72259774D01*
X58317205Y-72090256D01*
X58395226Y-71901898D01*
X58435000Y-71701939D01*
X58435000Y-71498061D01*
X58395226Y-71298102D01*
X58317205Y-71109744D01*
X58203937Y-70940226D01*
X58059774Y-70796063D01*
X57890256Y-70682795D01*
X57701898Y-70604774D01*
X57501939Y-70565000D01*
X57298061Y-70565000D01*
X57098102Y-70604774D01*
X56909744Y-70682795D01*
X56740226Y-70796063D01*
X56596063Y-70940226D01*
X56544688Y-71017114D01*
X56514898Y-71004774D01*
X56314939Y-70965000D01*
X56111061Y-70965000D01*
X55911102Y-71004774D01*
X55722744Y-71082795D01*
X55553226Y-71196063D01*
X55409063Y-71340226D01*
X55295795Y-71509744D01*
X55217774Y-71698102D01*
X55178000Y-71898061D01*
X55178000Y-72101939D01*
X55217774Y-72301898D01*
X55295795Y-72490256D01*
X55380770Y-72617430D01*
X46969003Y-81029198D01*
X46939999Y-81053001D01*
X46884871Y-81120176D01*
X46845026Y-81168726D01*
X46774455Y-81300755D01*
X46774454Y-81300756D01*
X46730997Y-81444017D01*
X46720000Y-81555670D01*
X46720000Y-81555680D01*
X46716324Y-81593002D01*
X46720000Y-81630325D01*
X46720001Y-86121821D01*
X46533368Y-86246525D01*
X46326525Y-86453368D01*
X46210000Y-86627760D01*
X46093475Y-86453368D01*
X45886632Y-86246525D01*
X45643411Y-86084010D01*
X45373158Y-85972068D01*
X45086260Y-85915000D01*
X44793740Y-85915000D01*
X44506842Y-85972068D01*
X44236589Y-86084010D01*
X43993368Y-86246525D01*
X43861513Y-86378380D01*
X43839502Y-86305820D01*
X43780537Y-86195506D01*
X43701185Y-86098815D01*
X43604494Y-86019463D01*
X43494180Y-85960498D01*
X43374482Y-85924188D01*
X43250000Y-85911928D01*
X41550000Y-85911928D01*
X41425518Y-85924188D01*
X41305820Y-85960498D01*
X41195506Y-86019463D01*
X41098815Y-86098815D01*
X41019463Y-86195506D01*
X40960498Y-86305820D01*
X40924188Y-86425518D01*
X40911928Y-86550000D01*
X40911928Y-88250000D01*
X40924188Y-88374482D01*
X40960498Y-88494180D01*
X41019463Y-88604494D01*
X41098815Y-88701185D01*
X41195506Y-88780537D01*
X41305820Y-88839502D01*
X41425518Y-88875812D01*
X41550000Y-88888072D01*
X43250000Y-88888072D01*
X43374482Y-88875812D01*
X43494180Y-88839502D01*
X43604494Y-88780537D01*
X43701185Y-88701185D01*
X43780537Y-88604494D01*
X43839502Y-88494180D01*
X43861513Y-88421620D01*
X43993368Y-88553475D01*
X44236589Y-88715990D01*
X44506842Y-88827932D01*
X44793740Y-88885000D01*
X45086260Y-88885000D01*
X45373158Y-88827932D01*
X45643411Y-88715990D01*
X45886632Y-88553475D01*
X46093475Y-88346632D01*
X46210000Y-88172240D01*
X46326525Y-88346632D01*
X46533368Y-88553475D01*
X46776589Y-88715990D01*
X47046842Y-88827932D01*
X47333740Y-88885000D01*
X47626260Y-88885000D01*
X47913158Y-88827932D01*
X48183411Y-88715990D01*
X48426632Y-88553475D01*
X48633475Y-88346632D01*
X48750000Y-88172240D01*
X48866525Y-88346632D01*
X49073368Y-88553475D01*
X49316589Y-88715990D01*
X49586842Y-88827932D01*
X49873740Y-88885000D01*
X50166260Y-88885000D01*
X50453158Y-88827932D01*
X50723411Y-88715990D01*
X50966632Y-88553475D01*
X51173475Y-88346632D01*
X51290000Y-88172240D01*
X51406525Y-88346632D01*
X51613368Y-88553475D01*
X51856589Y-88715990D01*
X52126842Y-88827932D01*
X52413740Y-88885000D01*
X52706260Y-88885000D01*
X52993158Y-88827932D01*
X53263411Y-88715990D01*
X53506632Y-88553475D01*
X53713475Y-88346632D01*
X53830000Y-88172240D01*
X53946525Y-88346632D01*
X54153368Y-88553475D01*
X54396589Y-88715990D01*
X54666842Y-88827932D01*
X54953740Y-88885000D01*
X55246260Y-88885000D01*
X55533158Y-88827932D01*
X55803411Y-88715990D01*
X56046632Y-88553475D01*
X56253475Y-88346632D01*
X56370000Y-88172240D01*
X56486525Y-88346632D01*
X56693368Y-88553475D01*
X56936589Y-88715990D01*
X57206842Y-88827932D01*
X57493740Y-88885000D01*
X57786260Y-88885000D01*
X58073158Y-88827932D01*
X58343411Y-88715990D01*
X58586632Y-88553475D01*
X58793475Y-88346632D01*
X58910000Y-88172240D01*
X59026525Y-88346632D01*
X59233368Y-88553475D01*
X59476589Y-88715990D01*
X59746842Y-88827932D01*
X60033740Y-88885000D01*
X60326260Y-88885000D01*
X60613158Y-88827932D01*
X60883411Y-88715990D01*
X61126632Y-88553475D01*
X61333475Y-88346632D01*
X61450000Y-88172240D01*
X61566525Y-88346632D01*
X61773368Y-88553475D01*
X62016589Y-88715990D01*
X62286842Y-88827932D01*
X62573740Y-88885000D01*
X62866260Y-88885000D01*
X63153158Y-88827932D01*
X63423411Y-88715990D01*
X63666632Y-88553475D01*
X63873475Y-88346632D01*
X63990000Y-88172240D01*
X64106525Y-88346632D01*
X64313368Y-88553475D01*
X64556589Y-88715990D01*
X64826842Y-88827932D01*
X65113740Y-88885000D01*
X65406260Y-88885000D01*
X65693158Y-88827932D01*
X65963411Y-88715990D01*
X66206632Y-88553475D01*
X66413475Y-88346632D01*
X66575990Y-88103411D01*
X66687932Y-87833158D01*
X66745000Y-87546260D01*
X66745000Y-87253740D01*
X66689693Y-86975695D01*
X70146520Y-86975695D01*
X70215822Y-87727938D01*
X70430548Y-88452208D01*
X70782445Y-89120670D01*
X70809452Y-89161088D01*
X71299119Y-89521276D01*
X73820395Y-87000000D01*
X74179605Y-87000000D01*
X76700881Y-89521276D01*
X77190548Y-89161088D01*
X77550849Y-88497118D01*
X77774694Y-87775615D01*
X77853480Y-87024305D01*
X77784178Y-86272062D01*
X77569452Y-85547792D01*
X77217555Y-84879330D01*
X77190548Y-84838912D01*
X76700881Y-84478724D01*
X74179605Y-87000000D01*
X73820395Y-87000000D01*
X71299119Y-84478724D01*
X70809452Y-84838912D01*
X70449151Y-85502882D01*
X70225306Y-86224385D01*
X70146520Y-86975695D01*
X66689693Y-86975695D01*
X66687932Y-86966842D01*
X66575990Y-86696589D01*
X66413475Y-86453368D01*
X66206632Y-86246525D01*
X65963411Y-86084010D01*
X65693158Y-85972068D01*
X65406260Y-85915000D01*
X65113740Y-85915000D01*
X64826842Y-85972068D01*
X64556589Y-86084010D01*
X64313368Y-86246525D01*
X64106525Y-86453368D01*
X63990000Y-86627760D01*
X63873475Y-86453368D01*
X63666632Y-86246525D01*
X63423411Y-86084010D01*
X63153158Y-85972068D01*
X62866260Y-85915000D01*
X62573740Y-85915000D01*
X62286842Y-85972068D01*
X62016589Y-86084010D01*
X61773368Y-86246525D01*
X61566525Y-86453368D01*
X61450000Y-86627760D01*
X61333475Y-86453368D01*
X61126632Y-86246525D01*
X60883411Y-86084010D01*
X60613158Y-85972068D01*
X60326260Y-85915000D01*
X60033740Y-85915000D01*
X59746842Y-85972068D01*
X59476589Y-86084010D01*
X59233368Y-86246525D01*
X59026525Y-86453368D01*
X58910000Y-86627760D01*
X58793475Y-86453368D01*
X58586632Y-86246525D01*
X58343411Y-86084010D01*
X58073158Y-85972068D01*
X57786260Y-85915000D01*
X57493740Y-85915000D01*
X57206842Y-85972068D01*
X56936589Y-86084010D01*
X56693368Y-86246525D01*
X56486525Y-86453368D01*
X56370000Y-86627760D01*
X56253475Y-86453368D01*
X56046632Y-86246525D01*
X55860000Y-86121822D01*
X55860000Y-84299119D01*
X71478724Y-84299119D01*
X74000000Y-86820395D01*
X76521276Y-84299119D01*
X76161088Y-83809452D01*
X75497118Y-83449151D01*
X74775615Y-83225306D01*
X74024305Y-83146520D01*
X73272062Y-83215822D01*
X72547792Y-83430548D01*
X71879330Y-83782445D01*
X71838912Y-83809452D01*
X71478724Y-84299119D01*
X55860000Y-84299119D01*
X55860000Y-82296890D01*
X66758524Y-82296890D01*
X66803175Y-82444099D01*
X66928359Y-82706920D01*
X67102412Y-82940269D01*
X67318645Y-83135178D01*
X67568748Y-83284157D01*
X67843109Y-83381481D01*
X68073000Y-83260814D01*
X68073000Y-82067000D01*
X68327000Y-82067000D01*
X68327000Y-83260814D01*
X68556891Y-83381481D01*
X68831252Y-83284157D01*
X69081355Y-83135178D01*
X69297588Y-82940269D01*
X69470000Y-82709120D01*
X69642412Y-82940269D01*
X69858645Y-83135178D01*
X70108748Y-83284157D01*
X70383109Y-83381481D01*
X70613000Y-83260814D01*
X70613000Y-82067000D01*
X70867000Y-82067000D01*
X70867000Y-83260814D01*
X71096891Y-83381481D01*
X71371252Y-83284157D01*
X71621355Y-83135178D01*
X71837588Y-82940269D01*
X72011641Y-82706920D01*
X72136825Y-82444099D01*
X72181476Y-82296890D01*
X72060155Y-82067000D01*
X70867000Y-82067000D01*
X70613000Y-82067000D01*
X68327000Y-82067000D01*
X68073000Y-82067000D01*
X66879845Y-82067000D01*
X66758524Y-82296890D01*
X55860000Y-82296890D01*
X55860000Y-81414801D01*
X57517911Y-79756890D01*
X66758524Y-79756890D01*
X66803175Y-79904099D01*
X66928359Y-80166920D01*
X67102412Y-80400269D01*
X67318645Y-80595178D01*
X67444255Y-80670000D01*
X67318645Y-80744822D01*
X67102412Y-80939731D01*
X66928359Y-81173080D01*
X66803175Y-81435901D01*
X66758524Y-81583110D01*
X66879845Y-81813000D01*
X68073000Y-81813000D01*
X68073000Y-79527000D01*
X68327000Y-79527000D01*
X68327000Y-81813000D01*
X70613000Y-81813000D01*
X70613000Y-79527000D01*
X70867000Y-79527000D01*
X70867000Y-81813000D01*
X72060155Y-81813000D01*
X72181476Y-81583110D01*
X72136825Y-81435901D01*
X72011641Y-81173080D01*
X71837588Y-80939731D01*
X71753534Y-80863966D01*
X71834180Y-80839502D01*
X71944494Y-80780537D01*
X72041185Y-80701185D01*
X72120537Y-80604494D01*
X72179502Y-80494180D01*
X72215812Y-80374482D01*
X72228072Y-80250000D01*
X72225000Y-79685750D01*
X72066250Y-79527000D01*
X70867000Y-79527000D01*
X70613000Y-79527000D01*
X68327000Y-79527000D01*
X68073000Y-79527000D01*
X66879845Y-79527000D01*
X66758524Y-79756890D01*
X57517911Y-79756890D01*
X58231691Y-79043110D01*
X66758524Y-79043110D01*
X66879845Y-79273000D01*
X68073000Y-79273000D01*
X68073000Y-78079186D01*
X68327000Y-78079186D01*
X68327000Y-79273000D01*
X70613000Y-79273000D01*
X70613000Y-78073750D01*
X70867000Y-78073750D01*
X70867000Y-79273000D01*
X72066250Y-79273000D01*
X72225000Y-79114250D01*
X72228072Y-78550000D01*
X72215812Y-78425518D01*
X72179502Y-78305820D01*
X72120537Y-78195506D01*
X72041185Y-78098815D01*
X71944494Y-78019463D01*
X71834180Y-77960498D01*
X71714482Y-77924188D01*
X71590000Y-77911928D01*
X71025750Y-77915000D01*
X70867000Y-78073750D01*
X70613000Y-78073750D01*
X70454250Y-77915000D01*
X69890000Y-77911928D01*
X69765518Y-77924188D01*
X69645820Y-77960498D01*
X69535506Y-78019463D01*
X69438815Y-78098815D01*
X69359463Y-78195506D01*
X69300498Y-78305820D01*
X69277502Y-78381626D01*
X69081355Y-78204822D01*
X68831252Y-78055843D01*
X68556891Y-77958519D01*
X68327000Y-78079186D01*
X68073000Y-78079186D01*
X67843109Y-77958519D01*
X67568748Y-78055843D01*
X67318645Y-78204822D01*
X67102412Y-78399731D01*
X66928359Y-78633080D01*
X66803175Y-78895901D01*
X66758524Y-79043110D01*
X58231691Y-79043110D01*
X60766189Y-76508613D01*
X60795187Y-76484815D01*
X60837581Y-76433158D01*
X60890160Y-76369091D01*
X60960732Y-76237061D01*
X60970075Y-76206260D01*
X61004189Y-76093800D01*
X61015186Y-75982147D01*
X61015186Y-75982137D01*
X61018862Y-75944814D01*
X61015186Y-75907491D01*
X61015186Y-74235413D01*
X62144192Y-74235413D01*
X62239956Y-74499814D01*
X62529571Y-74640704D01*
X62841108Y-74722384D01*
X63162595Y-74741718D01*
X63481675Y-74697961D01*
X63786088Y-74592795D01*
X63960044Y-74499814D01*
X64055808Y-74235413D01*
X68644192Y-74235413D01*
X68739956Y-74499814D01*
X69029571Y-74640704D01*
X69341108Y-74722384D01*
X69662595Y-74741718D01*
X69981675Y-74697961D01*
X70286088Y-74592795D01*
X70460044Y-74499814D01*
X70555808Y-74235413D01*
X69600000Y-73279605D01*
X68644192Y-74235413D01*
X64055808Y-74235413D01*
X63100000Y-73279605D01*
X62144192Y-74235413D01*
X61015186Y-74235413D01*
X61015186Y-73162595D01*
X61458282Y-73162595D01*
X61502039Y-73481675D01*
X61607205Y-73786088D01*
X61700186Y-73960044D01*
X61964587Y-74055808D01*
X62920395Y-73100000D01*
X63279605Y-73100000D01*
X64235413Y-74055808D01*
X64499814Y-73960044D01*
X64640704Y-73670429D01*
X64722384Y-73358892D01*
X64734189Y-73162595D01*
X67958282Y-73162595D01*
X68002039Y-73481675D01*
X68107205Y-73786088D01*
X68200186Y-73960044D01*
X68464587Y-74055808D01*
X69420395Y-73100000D01*
X68464587Y-72144192D01*
X68200186Y-72239956D01*
X68059296Y-72529571D01*
X67977616Y-72841108D01*
X67958282Y-73162595D01*
X64734189Y-73162595D01*
X64741718Y-73037405D01*
X64697961Y-72718325D01*
X64592795Y-72413912D01*
X64499814Y-72239956D01*
X64235413Y-72144192D01*
X63279605Y-73100000D01*
X62920395Y-73100000D01*
X61964587Y-72144192D01*
X61700186Y-72239956D01*
X61559296Y-72529571D01*
X61477616Y-72841108D01*
X61458282Y-73162595D01*
X61015186Y-73162595D01*
X61015186Y-71964587D01*
X62144192Y-71964587D01*
X63100000Y-72920395D01*
X63995395Y-72025000D01*
X65286928Y-72025000D01*
X65299188Y-72149482D01*
X65335498Y-72269180D01*
X65394463Y-72379494D01*
X65473815Y-72476185D01*
X65570506Y-72555537D01*
X65680820Y-72614502D01*
X65800518Y-72650812D01*
X65925000Y-72663072D01*
X66114250Y-72660000D01*
X66273000Y-72501250D01*
X66273000Y-71714500D01*
X66527000Y-71714500D01*
X66527000Y-72501250D01*
X66685750Y-72660000D01*
X66875000Y-72663072D01*
X66999482Y-72650812D01*
X67119180Y-72614502D01*
X67229494Y-72555537D01*
X67326185Y-72476185D01*
X67405537Y-72379494D01*
X67464502Y-72269180D01*
X67500812Y-72149482D01*
X67513072Y-72025000D01*
X67510000Y-71873250D01*
X67351250Y-71714500D01*
X66527000Y-71714500D01*
X66273000Y-71714500D01*
X65448750Y-71714500D01*
X65290000Y-71873250D01*
X65286928Y-72025000D01*
X63995395Y-72025000D01*
X64055808Y-71964587D01*
X63960044Y-71700186D01*
X63670429Y-71559296D01*
X63358892Y-71477616D01*
X63037405Y-71458282D01*
X62718325Y-71502039D01*
X62413912Y-71607205D01*
X62239956Y-71700186D01*
X62144192Y-71964587D01*
X61015186Y-71964587D01*
X61015186Y-68772647D01*
X61145441Y-68718693D01*
X61314959Y-68605425D01*
X61459122Y-68461262D01*
X61465000Y-68452465D01*
X61465000Y-68761033D01*
X61527832Y-69076912D01*
X61651082Y-69374463D01*
X61830013Y-69642252D01*
X62057748Y-69869987D01*
X62325537Y-70048918D01*
X62623088Y-70172168D01*
X62938967Y-70235000D01*
X63261033Y-70235000D01*
X63576912Y-70172168D01*
X63591375Y-70166177D01*
X63961201Y-70536003D01*
X63984999Y-70565001D01*
X64100724Y-70659974D01*
X64232753Y-70730546D01*
X64376014Y-70774003D01*
X64487667Y-70785000D01*
X64487676Y-70785000D01*
X64524999Y-70788676D01*
X64562322Y-70785000D01*
X65403085Y-70785000D01*
X65394463Y-70795506D01*
X65335498Y-70905820D01*
X65299188Y-71025518D01*
X65286928Y-71150000D01*
X65290000Y-71301750D01*
X65448750Y-71460500D01*
X66273000Y-71460500D01*
X66273000Y-71440500D01*
X66527000Y-71440500D01*
X66527000Y-71460500D01*
X67351250Y-71460500D01*
X67510000Y-71301750D01*
X67513072Y-71150000D01*
X67500812Y-71025518D01*
X67464502Y-70905820D01*
X67405537Y-70795506D01*
X67386657Y-70772500D01*
X68150178Y-70772500D01*
X68187500Y-70776176D01*
X68224822Y-70772500D01*
X68224833Y-70772500D01*
X68336486Y-70761503D01*
X68479747Y-70718046D01*
X68611776Y-70647474D01*
X68727501Y-70552501D01*
X68751304Y-70523497D01*
X69108624Y-70166177D01*
X69123088Y-70172168D01*
X69438967Y-70235000D01*
X69761033Y-70235000D01*
X70076912Y-70172168D01*
X70374463Y-70048918D01*
X70440000Y-70005127D01*
X70440001Y-71690436D01*
X70170429Y-71559296D01*
X69858892Y-71477616D01*
X69537405Y-71458282D01*
X69218325Y-71502039D01*
X68913912Y-71607205D01*
X68739956Y-71700186D01*
X68644192Y-71964587D01*
X69600000Y-72920395D01*
X69614143Y-72906253D01*
X69793748Y-73085858D01*
X69779605Y-73100000D01*
X70735413Y-74055808D01*
X70999814Y-73960044D01*
X71140704Y-73670429D01*
X71222384Y-73358892D01*
X71241718Y-73037405D01*
X71232041Y-72966843D01*
X73958790Y-75693592D01*
X73915000Y-75913740D01*
X73915000Y-76206260D01*
X73972068Y-76493158D01*
X74084010Y-76763411D01*
X74246525Y-77006632D01*
X74378380Y-77138487D01*
X74305820Y-77160498D01*
X74195506Y-77219463D01*
X74098815Y-77298815D01*
X74019463Y-77395506D01*
X73960498Y-77505820D01*
X73924188Y-77625518D01*
X73911928Y-77750000D01*
X73911928Y-79450000D01*
X73924188Y-79574482D01*
X73960498Y-79694180D01*
X74019463Y-79804494D01*
X74098815Y-79901185D01*
X74195506Y-79980537D01*
X74305820Y-80039502D01*
X74425518Y-80075812D01*
X74550000Y-80088072D01*
X76250000Y-80088072D01*
X76374482Y-80075812D01*
X76494180Y-80039502D01*
X76604494Y-79980537D01*
X76701185Y-79901185D01*
X76780537Y-79804494D01*
X76839502Y-79694180D01*
X76875812Y-79574482D01*
X76888072Y-79450000D01*
X76888072Y-77750000D01*
X76875812Y-77625518D01*
X76839502Y-77505820D01*
X76780537Y-77395506D01*
X76701185Y-77298815D01*
X76604494Y-77219463D01*
X76494180Y-77160498D01*
X76421620Y-77138487D01*
X76553475Y-77006632D01*
X76715990Y-76763411D01*
X76827932Y-76493158D01*
X76885000Y-76206260D01*
X76885000Y-75913740D01*
X76827932Y-75626842D01*
X76715990Y-75356589D01*
X76553475Y-75113368D01*
X76346632Y-74906525D01*
X76172240Y-74790000D01*
X76346632Y-74673475D01*
X76553475Y-74466632D01*
X76715990Y-74223411D01*
X76827932Y-73953158D01*
X76885000Y-73666260D01*
X76885000Y-73373740D01*
X76827932Y-73086842D01*
X76715990Y-72816589D01*
X76553475Y-72573368D01*
X76346632Y-72366525D01*
X76172240Y-72250000D01*
X76346632Y-72133475D01*
X76553475Y-71926632D01*
X76715990Y-71683411D01*
X76827932Y-71413158D01*
X76885000Y-71126260D01*
X76885000Y-70833740D01*
X76827932Y-70546842D01*
X76715990Y-70276589D01*
X76553475Y-70033368D01*
X76346632Y-69826525D01*
X76172240Y-69710000D01*
X76346632Y-69593475D01*
X76553475Y-69386632D01*
X76715990Y-69143411D01*
X76827932Y-68873158D01*
X76885000Y-68586260D01*
X76885000Y-68293740D01*
X76827932Y-68006842D01*
X76715990Y-67736589D01*
X76553475Y-67493368D01*
X76346632Y-67286525D01*
X76172240Y-67170000D01*
X76346632Y-67053475D01*
X76553475Y-66846632D01*
X76715990Y-66603411D01*
X76827932Y-66333158D01*
X76885000Y-66046260D01*
X76885000Y-65753740D01*
X76827932Y-65466842D01*
X76715990Y-65196589D01*
X76553475Y-64953368D01*
X76346632Y-64746525D01*
X76172240Y-64630000D01*
X76346632Y-64513475D01*
X76553475Y-64306632D01*
X76715990Y-64063411D01*
X76827932Y-63793158D01*
X76885000Y-63506260D01*
X76885000Y-63213740D01*
X76827932Y-62926842D01*
X76715990Y-62656589D01*
X76553475Y-62413368D01*
X76346632Y-62206525D01*
X76172240Y-62090000D01*
X76346632Y-61973475D01*
X76553475Y-61766632D01*
X76715990Y-61523411D01*
X76827932Y-61253158D01*
X76885000Y-60966260D01*
X76885000Y-60673740D01*
X76827932Y-60386842D01*
X76715990Y-60116589D01*
X76553475Y-59873368D01*
X76346632Y-59666525D01*
X76172240Y-59550000D01*
X76346632Y-59433475D01*
X76553475Y-59226632D01*
X76715990Y-58983411D01*
X76827932Y-58713158D01*
X76885000Y-58426260D01*
X76885000Y-58133740D01*
X76827932Y-57846842D01*
X76715990Y-57576589D01*
X76553475Y-57333368D01*
X76346632Y-57126525D01*
X76172240Y-57010000D01*
X76346632Y-56893475D01*
X76553475Y-56686632D01*
X76715990Y-56443411D01*
X76827932Y-56173158D01*
X76885000Y-55886260D01*
X76885000Y-55593740D01*
X76827932Y-55306842D01*
X76715990Y-55036589D01*
X76553475Y-54793368D01*
X76346632Y-54586525D01*
X76103411Y-54424010D01*
X75833158Y-54312068D01*
X75546260Y-54255000D01*
X75253740Y-54255000D01*
X74966842Y-54312068D01*
X74696589Y-54424010D01*
X74453368Y-54586525D01*
X74246525Y-54793368D01*
X74084010Y-55036589D01*
X73972068Y-55306842D01*
X73915000Y-55593740D01*
X73915000Y-55886260D01*
X73958790Y-56106408D01*
X72675199Y-57390000D01*
X63114323Y-57390000D01*
X63076998Y-57386324D01*
X63039673Y-57390000D01*
X63039665Y-57390000D01*
X62928012Y-57400997D01*
X62784751Y-57444454D01*
X62652722Y-57515026D01*
X62536997Y-57609999D01*
X62513199Y-57638997D01*
X59388998Y-60763199D01*
X59360000Y-60786997D01*
X59336202Y-60815995D01*
X59336201Y-60815996D01*
X59265026Y-60902722D01*
X59257285Y-60917205D01*
X59194454Y-61034751D01*
X59150997Y-61178012D01*
X59140000Y-61289665D01*
X59140000Y-61289676D01*
X59136324Y-61326998D01*
X59140000Y-61364320D01*
X59140000Y-61558200D01*
X59030956Y-61667245D01*
X58959774Y-61596063D01*
X58790256Y-61482795D01*
X58601898Y-61404774D01*
X58401939Y-61365000D01*
X58198061Y-61365000D01*
X57998102Y-61404774D01*
X57809744Y-61482795D01*
X57640226Y-61596063D01*
X57496063Y-61740226D01*
X57382795Y-61909744D01*
X57304774Y-62098102D01*
X57265000Y-62298061D01*
X57265000Y-62501939D01*
X57304774Y-62701898D01*
X57351623Y-62815000D01*
X56353711Y-62815000D01*
X56309774Y-62771063D01*
X56140256Y-62657795D01*
X55951898Y-62579774D01*
X55751939Y-62540000D01*
X55684999Y-62540000D01*
X55684999Y-56789802D01*
X57115000Y-55359801D01*
X57115000Y-55486260D01*
X57172068Y-55773158D01*
X57284010Y-56043411D01*
X57446525Y-56286632D01*
X57653368Y-56493475D01*
X57840001Y-56618179D01*
X57840000Y-57860198D01*
X56960199Y-58740000D01*
X56898061Y-58740000D01*
X56698102Y-58779774D01*
X56509744Y-58857795D01*
X56340226Y-58971063D01*
X56196063Y-59115226D01*
X56082795Y-59284744D01*
X56004774Y-59473102D01*
X55965000Y-59673061D01*
X55965000Y-59876939D01*
X56004774Y-60076898D01*
X56082795Y-60265256D01*
X56196063Y-60434774D01*
X56340226Y-60578937D01*
X56509744Y-60692205D01*
X56698102Y-60770226D01*
X56898061Y-60810000D01*
X57101939Y-60810000D01*
X57301898Y-60770226D01*
X57490256Y-60692205D01*
X57659774Y-60578937D01*
X57775000Y-60463711D01*
X57790226Y-60478937D01*
X57959744Y-60592205D01*
X58148102Y-60670226D01*
X58348061Y-60710000D01*
X58551939Y-60710000D01*
X58751898Y-60670226D01*
X58940256Y-60592205D01*
X59109774Y-60478937D01*
X59253937Y-60334774D01*
X59367205Y-60165256D01*
X59445226Y-59976898D01*
X59485000Y-59776939D01*
X59485000Y-59714801D01*
X61651009Y-57548794D01*
X61680001Y-57525001D01*
X61703795Y-57496008D01*
X61703799Y-57496004D01*
X61774973Y-57409277D01*
X61774974Y-57409276D01*
X61845546Y-57277247D01*
X61889003Y-57133986D01*
X61900000Y-57022333D01*
X61900000Y-57022324D01*
X61903676Y-56985001D01*
X61900000Y-56947678D01*
X61900000Y-56618178D01*
X62086632Y-56493475D01*
X62293475Y-56286632D01*
X62415195Y-56104466D01*
X62484822Y-56221355D01*
X62679731Y-56437588D01*
X62913080Y-56611641D01*
X63175901Y-56736825D01*
X63323110Y-56781476D01*
X63553000Y-56660155D01*
X63553000Y-55467000D01*
X63533000Y-55467000D01*
X63533000Y-55213000D01*
X63553000Y-55213000D01*
X63553000Y-52927000D01*
X63533000Y-52927000D01*
X63533000Y-52673000D01*
X63553000Y-52673000D01*
X63553000Y-51479845D01*
X63807000Y-51479845D01*
X63807000Y-52673000D01*
X63827000Y-52673000D01*
X63827000Y-52927000D01*
X63807000Y-52927000D01*
X63807000Y-55213000D01*
X63827000Y-55213000D01*
X63827000Y-55467000D01*
X63807000Y-55467000D01*
X63807000Y-56660155D01*
X64036890Y-56781476D01*
X64184099Y-56736825D01*
X64446920Y-56611641D01*
X64680269Y-56437588D01*
X64875178Y-56221355D01*
X64944805Y-56104466D01*
X65066525Y-56286632D01*
X65273368Y-56493475D01*
X65516589Y-56655990D01*
X65786842Y-56767932D01*
X66073740Y-56825000D01*
X66366260Y-56825000D01*
X66653158Y-56767932D01*
X66923411Y-56655990D01*
X67166632Y-56493475D01*
X67373475Y-56286632D01*
X67490000Y-56112240D01*
X67606525Y-56286632D01*
X67813368Y-56493475D01*
X68056589Y-56655990D01*
X68326842Y-56767932D01*
X68613740Y-56825000D01*
X68906260Y-56825000D01*
X69193158Y-56767932D01*
X69463411Y-56655990D01*
X69706632Y-56493475D01*
X69913475Y-56286632D01*
X70075990Y-56043411D01*
X70187932Y-55773158D01*
X70245000Y-55486260D01*
X70245000Y-55193740D01*
X70187932Y-54906842D01*
X70075990Y-54636589D01*
X69913475Y-54393368D01*
X69706632Y-54186525D01*
X69532240Y-54070000D01*
X69706632Y-53953475D01*
X69913475Y-53746632D01*
X70075990Y-53503411D01*
X70187932Y-53233158D01*
X70245000Y-52946260D01*
X70245000Y-52653740D01*
X70187932Y-52366842D01*
X70075990Y-52096589D01*
X69913475Y-51853368D01*
X69706632Y-51646525D01*
X69463411Y-51484010D01*
X69193158Y-51372068D01*
X68906260Y-51315000D01*
X68613740Y-51315000D01*
X68326842Y-51372068D01*
X68056589Y-51484010D01*
X67813368Y-51646525D01*
X67606525Y-51853368D01*
X67490000Y-52027760D01*
X67373475Y-51853368D01*
X67166632Y-51646525D01*
X66923411Y-51484010D01*
X66653158Y-51372068D01*
X66366260Y-51315000D01*
X66073740Y-51315000D01*
X65786842Y-51372068D01*
X65516589Y-51484010D01*
X65273368Y-51646525D01*
X65066525Y-51853368D01*
X64944805Y-52035534D01*
X64875178Y-51918645D01*
X64680269Y-51702412D01*
X64446920Y-51528359D01*
X64184099Y-51403175D01*
X64036890Y-51358524D01*
X63807000Y-51479845D01*
X63553000Y-51479845D01*
X63323110Y-51358524D01*
X63175901Y-51403175D01*
X62913080Y-51528359D01*
X62679731Y-51702412D01*
X62484822Y-51918645D01*
X62415195Y-52035534D01*
X62293475Y-51853368D01*
X62086632Y-51646525D01*
X61843411Y-51484010D01*
X61643165Y-51401066D01*
X61717205Y-51290256D01*
X61795226Y-51101898D01*
X61835000Y-50901939D01*
X61835000Y-50698061D01*
X61816000Y-50602541D01*
X61816000Y-50197459D01*
X61835000Y-50101939D01*
X61835000Y-49898061D01*
X61795226Y-49698102D01*
X61740712Y-49566496D01*
X61833740Y-49585000D01*
X62126260Y-49585000D01*
X62413158Y-49527932D01*
X62683411Y-49415990D01*
X62926632Y-49253475D01*
X63133475Y-49046632D01*
X63295990Y-48803411D01*
X63407932Y-48533158D01*
X63465000Y-48246260D01*
X63465000Y-47953740D01*
X63407932Y-47666842D01*
X63295990Y-47396589D01*
X63133475Y-47153368D01*
X62926632Y-46946525D01*
X62683411Y-46784010D01*
X62413158Y-46672068D01*
X62126260Y-46615000D01*
X61833740Y-46615000D01*
X61546842Y-46672068D01*
X61276589Y-46784010D01*
X61033368Y-46946525D01*
X60826525Y-47153368D01*
X60710000Y-47327760D01*
X60593475Y-47153368D01*
X60386632Y-46946525D01*
X60143411Y-46784010D01*
X59873158Y-46672068D01*
X59586260Y-46615000D01*
X59293740Y-46615000D01*
X59006842Y-46672068D01*
X58736589Y-46784010D01*
X58493368Y-46946525D01*
X58361513Y-47078380D01*
X58339502Y-47005820D01*
X58280537Y-46895506D01*
X58201185Y-46798815D01*
X58104494Y-46719463D01*
X57994180Y-46660498D01*
X57874482Y-46624188D01*
X57750000Y-46611928D01*
X56050000Y-46611928D01*
X55925518Y-46624188D01*
X55805820Y-46660498D01*
X55695506Y-46719463D01*
X55598815Y-46798815D01*
X55519463Y-46895506D01*
X55460498Y-47005820D01*
X55424188Y-47125518D01*
X55411928Y-47250000D01*
X55411928Y-48950000D01*
X55415032Y-48981515D01*
X55298102Y-49004774D01*
X55109744Y-49082795D01*
X55100000Y-49089306D01*
X55090256Y-49082795D01*
X54901898Y-49004774D01*
X54701939Y-48965000D01*
X54498061Y-48965000D01*
X54298102Y-49004774D01*
X54109744Y-49082795D01*
X53940226Y-49196063D01*
X53796063Y-49340226D01*
X53682795Y-49509744D01*
X53604774Y-49698102D01*
X53565000Y-49898061D01*
X53565000Y-50101939D01*
X53584000Y-50197459D01*
X53584000Y-50602541D01*
X53565000Y-50698061D01*
X53565000Y-50901939D01*
X53604774Y-51101898D01*
X53682795Y-51290256D01*
X53756123Y-51400000D01*
X53682795Y-51509744D01*
X53604774Y-51698102D01*
X53565000Y-51898061D01*
X53565000Y-52101939D01*
X53604774Y-52301898D01*
X53682795Y-52490256D01*
X53796063Y-52659774D01*
X53940226Y-52803937D01*
X54109744Y-52917205D01*
X54298102Y-52995226D01*
X54498061Y-53035000D01*
X54701939Y-53035000D01*
X54901898Y-52995226D01*
X55090256Y-52917205D01*
X55100000Y-52910694D01*
X55109744Y-52917205D01*
X55298102Y-52995226D01*
X55498061Y-53035000D01*
X55701939Y-53035000D01*
X55901898Y-52995226D01*
X56090256Y-52917205D01*
X56259774Y-52803937D01*
X56403937Y-52659774D01*
X56517205Y-52490256D01*
X56595226Y-52301898D01*
X56635000Y-52101939D01*
X56635000Y-51898061D01*
X56607042Y-51757508D01*
X56698102Y-51795226D01*
X56898061Y-51835000D01*
X57101939Y-51835000D01*
X57123680Y-51830675D01*
X57111928Y-51950000D01*
X57111928Y-53213270D01*
X54413997Y-55911202D01*
X54384999Y-55935000D01*
X54361201Y-55963998D01*
X54361200Y-55963999D01*
X54290025Y-56050725D01*
X54219453Y-56182755D01*
X54203303Y-56235998D01*
X54187944Y-56286632D01*
X54175997Y-56326016D01*
X54161323Y-56475001D01*
X54165000Y-56512333D01*
X54164999Y-62586715D01*
X54069180Y-62535498D01*
X53949482Y-62499188D01*
X53825000Y-62486928D01*
X53673250Y-62490000D01*
X53514500Y-62648750D01*
X53514500Y-63473000D01*
X53534500Y-63473000D01*
X53534500Y-63727000D01*
X53514500Y-63727000D01*
X53514500Y-63747000D01*
X53260500Y-63747000D01*
X53260500Y-63727000D01*
X53240500Y-63727000D01*
X53240500Y-63473000D01*
X53260500Y-63473000D01*
X53260500Y-62648750D01*
X53101750Y-62490000D01*
X52950000Y-62486928D01*
X52825518Y-62499188D01*
X52705820Y-62535498D01*
X52600628Y-62591725D01*
X52630547Y-62535752D01*
X52674004Y-62392491D01*
X52685001Y-62280838D01*
X52685001Y-62280829D01*
X52688677Y-62243506D01*
X52685001Y-62206183D01*
X52685001Y-58962323D01*
X52688677Y-58925000D01*
X52685001Y-58887677D01*
X52685001Y-58887668D01*
X52674004Y-58776015D01*
X52630547Y-58632754D01*
X52559975Y-58500725D01*
X52465002Y-58385000D01*
X52436005Y-58361203D01*
X51763803Y-57689002D01*
X51740001Y-57659999D01*
X51624276Y-57565026D01*
X51492247Y-57494454D01*
X51348986Y-57450997D01*
X51237333Y-57440000D01*
X51237322Y-57440000D01*
X51200000Y-57436324D01*
X51162678Y-57440000D01*
X44437322Y-57440000D01*
X44399999Y-57436324D01*
X44362676Y-57440000D01*
X44362667Y-57440000D01*
X44251014Y-57450997D01*
X44107753Y-57494454D01*
X43975724Y-57565026D01*
X43859999Y-57659999D01*
X43836201Y-57688997D01*
X43160199Y-58365000D01*
X43098061Y-58365000D01*
X42898102Y-58404774D01*
X42709744Y-58482795D01*
X42540226Y-58596063D01*
X42396063Y-58740226D01*
X42282795Y-58909744D01*
X42204774Y-59098102D01*
X42165000Y-59298061D01*
X42165000Y-59501939D01*
X42204774Y-59701898D01*
X42275647Y-59873000D01*
X40000000Y-59873000D01*
X39975224Y-59875440D01*
X39951399Y-59882667D01*
X39929443Y-59894403D01*
X39910197Y-59910197D01*
X39894403Y-59929443D01*
X39882667Y-59951399D01*
X39875440Y-59975224D01*
X39873000Y-60000000D01*
X39873000Y-68317193D01*
X34344810Y-62789003D01*
X34321007Y-62759999D01*
X34205282Y-62665026D01*
X34073253Y-62594454D01*
X33929992Y-62550997D01*
X33818339Y-62540000D01*
X33818328Y-62540000D01*
X33781006Y-62536324D01*
X33743684Y-62540000D01*
X33678178Y-62540000D01*
X33553475Y-62353368D01*
X33346632Y-62146525D01*
X33172240Y-62030000D01*
X33346632Y-61913475D01*
X33553475Y-61706632D01*
X33715990Y-61463411D01*
X33827932Y-61193158D01*
X33885000Y-60906260D01*
X33885000Y-60613740D01*
X33827932Y-60326842D01*
X33715990Y-60056589D01*
X33553475Y-59813368D01*
X33346632Y-59606525D01*
X33172240Y-59490000D01*
X33346632Y-59373475D01*
X33553475Y-59166632D01*
X33715990Y-58923411D01*
X33827932Y-58653158D01*
X33885000Y-58366260D01*
X33885000Y-58073740D01*
X33827932Y-57786842D01*
X33715990Y-57516589D01*
X33553475Y-57273368D01*
X33421620Y-57141513D01*
X33494180Y-57119502D01*
X33604494Y-57060537D01*
X33701185Y-56981185D01*
X33780537Y-56884494D01*
X33839502Y-56774180D01*
X33875812Y-56654482D01*
X33888072Y-56530000D01*
X33888072Y-55698061D01*
X42565000Y-55698061D01*
X42565000Y-55901939D01*
X42604774Y-56101898D01*
X42682795Y-56290256D01*
X42796063Y-56459774D01*
X42940226Y-56603937D01*
X43109744Y-56717205D01*
X43298102Y-56795226D01*
X43498061Y-56835000D01*
X43701939Y-56835000D01*
X43901898Y-56795226D01*
X44090256Y-56717205D01*
X44259774Y-56603937D01*
X44403937Y-56459774D01*
X44517205Y-56290256D01*
X44595226Y-56101898D01*
X44635000Y-55901939D01*
X44635000Y-55698061D01*
X44595226Y-55498102D01*
X44517205Y-55309744D01*
X44403937Y-55140226D01*
X44259774Y-54996063D01*
X44090256Y-54882795D01*
X43901898Y-54804774D01*
X43701939Y-54765000D01*
X43498061Y-54765000D01*
X43298102Y-54804774D01*
X43109744Y-54882795D01*
X42940226Y-54996063D01*
X42796063Y-55140226D01*
X42682795Y-55309744D01*
X42604774Y-55498102D01*
X42565000Y-55698061D01*
X33888072Y-55698061D01*
X33888072Y-54830000D01*
X33875812Y-54705518D01*
X33839502Y-54585820D01*
X33780537Y-54475506D01*
X33701185Y-54378815D01*
X33604494Y-54299463D01*
X33494180Y-54240498D01*
X33374482Y-54204188D01*
X33250000Y-54191928D01*
X31550000Y-54191928D01*
X31425518Y-54204188D01*
X31305820Y-54240498D01*
X31195506Y-54299463D01*
X31098815Y-54378815D01*
X31019463Y-54475506D01*
X30960498Y-54585820D01*
X30924188Y-54705518D01*
X30911928Y-54830000D01*
X29660000Y-54830000D01*
X29660000Y-51350000D01*
X36311928Y-51350000D01*
X36311928Y-53050000D01*
X36324188Y-53174482D01*
X36360498Y-53294180D01*
X36419463Y-53404494D01*
X36498815Y-53501185D01*
X36595506Y-53580537D01*
X36705820Y-53639502D01*
X36825518Y-53675812D01*
X36950000Y-53688072D01*
X38650000Y-53688072D01*
X38774482Y-53675812D01*
X38894180Y-53639502D01*
X39004494Y-53580537D01*
X39101185Y-53501185D01*
X39180537Y-53404494D01*
X39239502Y-53294180D01*
X39261513Y-53221620D01*
X39393368Y-53353475D01*
X39636589Y-53515990D01*
X39906842Y-53627932D01*
X40193740Y-53685000D01*
X40486260Y-53685000D01*
X40773158Y-53627932D01*
X41043411Y-53515990D01*
X41286632Y-53353475D01*
X41493475Y-53146632D01*
X41615195Y-52964466D01*
X41684822Y-53081355D01*
X41879731Y-53297588D01*
X42113080Y-53471641D01*
X42375901Y-53596825D01*
X42523110Y-53641476D01*
X42753000Y-53520155D01*
X42753000Y-52327000D01*
X43007000Y-52327000D01*
X43007000Y-53520155D01*
X43236890Y-53641476D01*
X43384099Y-53596825D01*
X43646920Y-53471641D01*
X43880269Y-53297588D01*
X44075178Y-53081355D01*
X44224157Y-52831252D01*
X44321481Y-52556891D01*
X44200814Y-52327000D01*
X43007000Y-52327000D01*
X42753000Y-52327000D01*
X42733000Y-52327000D01*
X42733000Y-52073000D01*
X42753000Y-52073000D01*
X42753000Y-50879845D01*
X43007000Y-50879845D01*
X43007000Y-52073000D01*
X44200814Y-52073000D01*
X44321481Y-51843109D01*
X44224157Y-51568748D01*
X44075178Y-51318645D01*
X43880269Y-51102412D01*
X43646920Y-50928359D01*
X43384099Y-50803175D01*
X43236890Y-50758524D01*
X43007000Y-50879845D01*
X42753000Y-50879845D01*
X42523110Y-50758524D01*
X42375901Y-50803175D01*
X42113080Y-50928359D01*
X41879731Y-51102412D01*
X41684822Y-51318645D01*
X41615195Y-51435534D01*
X41493475Y-51253368D01*
X41286632Y-51046525D01*
X41043411Y-50884010D01*
X40773158Y-50772068D01*
X40486260Y-50715000D01*
X40193740Y-50715000D01*
X39906842Y-50772068D01*
X39636589Y-50884010D01*
X39393368Y-51046525D01*
X39261513Y-51178380D01*
X39239502Y-51105820D01*
X39180537Y-50995506D01*
X39101185Y-50898815D01*
X39004494Y-50819463D01*
X38894180Y-50760498D01*
X38774482Y-50724188D01*
X38650000Y-50711928D01*
X36950000Y-50711928D01*
X36825518Y-50724188D01*
X36705820Y-50760498D01*
X36595506Y-50819463D01*
X36498815Y-50898815D01*
X36419463Y-50995506D01*
X36360498Y-51105820D01*
X36324188Y-51225518D01*
X36311928Y-51350000D01*
X29660000Y-51350000D01*
X29660000Y-47029392D01*
X29696333Y-46622285D01*
X30165000Y-46622285D01*
X30165000Y-47377715D01*
X30312377Y-48118628D01*
X30601467Y-48816554D01*
X31021161Y-49444670D01*
X31555330Y-49978839D01*
X32183446Y-50398533D01*
X32881372Y-50687623D01*
X33622285Y-50835000D01*
X34377715Y-50835000D01*
X35118628Y-50687623D01*
X35816554Y-50398533D01*
X36444670Y-49978839D01*
X36978839Y-49444670D01*
X37398533Y-48816554D01*
X37687623Y-48118628D01*
X37719794Y-47956890D01*
X38758524Y-47956890D01*
X38803175Y-48104099D01*
X38928359Y-48366920D01*
X39102412Y-48600269D01*
X39318645Y-48795178D01*
X39568748Y-48944157D01*
X39843109Y-49041481D01*
X40073000Y-48920814D01*
X40073000Y-47727000D01*
X40327000Y-47727000D01*
X40327000Y-48920814D01*
X40556891Y-49041481D01*
X40831252Y-48944157D01*
X41081355Y-48795178D01*
X41297588Y-48600269D01*
X41471641Y-48366920D01*
X41596825Y-48104099D01*
X41641476Y-47956890D01*
X41520155Y-47727000D01*
X40327000Y-47727000D01*
X40073000Y-47727000D01*
X38879845Y-47727000D01*
X38758524Y-47956890D01*
X37719794Y-47956890D01*
X37835000Y-47377715D01*
X37835000Y-46622285D01*
X37687623Y-45881372D01*
X37398533Y-45183446D01*
X36978839Y-44555330D01*
X36633509Y-44210000D01*
X38711928Y-44210000D01*
X38711928Y-45910000D01*
X38724188Y-46034482D01*
X38760498Y-46154180D01*
X38819463Y-46264494D01*
X38898815Y-46361185D01*
X38995506Y-46440537D01*
X39105820Y-46499502D01*
X39186466Y-46523966D01*
X39102412Y-46599731D01*
X38928359Y-46833080D01*
X38803175Y-47095901D01*
X38758524Y-47243110D01*
X38879845Y-47473000D01*
X40073000Y-47473000D01*
X40073000Y-47453000D01*
X40327000Y-47453000D01*
X40327000Y-47473000D01*
X41520155Y-47473000D01*
X41641476Y-47243110D01*
X41596825Y-47095901D01*
X41471641Y-46833080D01*
X41297588Y-46599731D01*
X41213534Y-46523966D01*
X41294180Y-46499502D01*
X41404494Y-46440537D01*
X41501185Y-46361185D01*
X41580537Y-46264494D01*
X41639502Y-46154180D01*
X41675812Y-46034482D01*
X41688072Y-45910000D01*
X41688072Y-44750000D01*
X67111928Y-44750000D01*
X67111928Y-46450000D01*
X67124188Y-46574482D01*
X67160498Y-46694180D01*
X67219463Y-46804494D01*
X67298815Y-46901185D01*
X67395506Y-46980537D01*
X67505820Y-47039502D01*
X67578380Y-47061513D01*
X67446525Y-47193368D01*
X67284010Y-47436589D01*
X67172068Y-47706842D01*
X67115000Y-47993740D01*
X67115000Y-48286260D01*
X67172068Y-48573158D01*
X67284010Y-48843411D01*
X67446525Y-49086632D01*
X67653368Y-49293475D01*
X67896589Y-49455990D01*
X68166842Y-49567932D01*
X68453740Y-49625000D01*
X68746260Y-49625000D01*
X69033158Y-49567932D01*
X69303411Y-49455990D01*
X69546632Y-49293475D01*
X69753475Y-49086632D01*
X69915990Y-48843411D01*
X70027932Y-48573158D01*
X70085000Y-48286260D01*
X70085000Y-47993740D01*
X70027932Y-47706842D01*
X69915990Y-47436589D01*
X69753475Y-47193368D01*
X69621620Y-47061513D01*
X69694180Y-47039502D01*
X69804494Y-46980537D01*
X69901185Y-46901185D01*
X69980537Y-46804494D01*
X70039502Y-46694180D01*
X70061311Y-46622285D01*
X70165000Y-46622285D01*
X70165000Y-47377715D01*
X70312377Y-48118628D01*
X70601467Y-48816554D01*
X71021161Y-49444670D01*
X71555330Y-49978839D01*
X72183446Y-50398533D01*
X72881372Y-50687623D01*
X73622285Y-50835000D01*
X74377715Y-50835000D01*
X75118628Y-50687623D01*
X75816554Y-50398533D01*
X76444670Y-49978839D01*
X76978839Y-49444670D01*
X77398533Y-48816554D01*
X77687623Y-48118628D01*
X77835000Y-47377715D01*
X77835000Y-46622285D01*
X77687623Y-45881372D01*
X77398533Y-45183446D01*
X76978839Y-44555330D01*
X76444670Y-44021161D01*
X75816554Y-43601467D01*
X75118628Y-43312377D01*
X74377715Y-43165000D01*
X73622285Y-43165000D01*
X72881372Y-43312377D01*
X72183446Y-43601467D01*
X71555330Y-44021161D01*
X71021161Y-44555330D01*
X70601467Y-45183446D01*
X70312377Y-45881372D01*
X70165000Y-46622285D01*
X70061311Y-46622285D01*
X70075812Y-46574482D01*
X70088072Y-46450000D01*
X70088072Y-44750000D01*
X70075812Y-44625518D01*
X70039502Y-44505820D01*
X69980537Y-44395506D01*
X69901185Y-44298815D01*
X69804494Y-44219463D01*
X69694180Y-44160498D01*
X69574482Y-44124188D01*
X69450000Y-44111928D01*
X67750000Y-44111928D01*
X67625518Y-44124188D01*
X67505820Y-44160498D01*
X67395506Y-44219463D01*
X67298815Y-44298815D01*
X67219463Y-44395506D01*
X67160498Y-44505820D01*
X67124188Y-44625518D01*
X67111928Y-44750000D01*
X41688072Y-44750000D01*
X41688072Y-44210000D01*
X41675812Y-44085518D01*
X41639502Y-43965820D01*
X41580537Y-43855506D01*
X41501185Y-43758815D01*
X41404494Y-43679463D01*
X41294180Y-43620498D01*
X41174482Y-43584188D01*
X41050000Y-43571928D01*
X39350000Y-43571928D01*
X39225518Y-43584188D01*
X39105820Y-43620498D01*
X38995506Y-43679463D01*
X38898815Y-43758815D01*
X38819463Y-43855506D01*
X38760498Y-43965820D01*
X38724188Y-44085518D01*
X38711928Y-44210000D01*
X36633509Y-44210000D01*
X36444670Y-44021161D01*
X35816554Y-43601467D01*
X35118628Y-43312377D01*
X34377715Y-43165000D01*
X33622285Y-43165000D01*
X32881372Y-43312377D01*
X32183446Y-43601467D01*
X31555330Y-44021161D01*
X31021161Y-44555330D01*
X30601467Y-45183446D01*
X30312377Y-45881372D01*
X30165000Y-46622285D01*
X29696333Y-46622285D01*
X29731173Y-46231917D01*
X29934656Y-45488109D01*
X30266638Y-44792095D01*
X30716626Y-44165870D01*
X31270403Y-43629223D01*
X31910451Y-43199129D01*
X32616553Y-42889171D01*
X33371457Y-42707935D01*
X34024207Y-42660000D01*
X73970608Y-42660000D01*
X74768083Y-42731173D01*
%TA.AperFunction,Conductor*%
D21*
G36*
X74768083Y-42731173D02*
G01*
X75511891Y-42934656D01*
X76207905Y-43266638D01*
X76834130Y-43716626D01*
X77370777Y-44270403D01*
X77800871Y-44910451D01*
X78110829Y-45616553D01*
X78292065Y-46371457D01*
X78340000Y-47024207D01*
X78340001Y-85972899D01*
X78266098Y-86871802D01*
X78052999Y-87720180D01*
X77704197Y-88522371D01*
X77229062Y-89256818D01*
X76640354Y-89903799D01*
X75953875Y-90445946D01*
X75188076Y-90868691D01*
X74363514Y-91160683D01*
X73490925Y-91316116D01*
X72984453Y-91340000D01*
X35027089Y-91340000D01*
X34128198Y-91266098D01*
X33279820Y-91052999D01*
X32477629Y-90704197D01*
X31743182Y-90229062D01*
X31162720Y-89700881D01*
X31478724Y-89700881D01*
X31838912Y-90190548D01*
X32502882Y-90550849D01*
X33224385Y-90774694D01*
X33975695Y-90853480D01*
X34727938Y-90784178D01*
X35452208Y-90569452D01*
X36120670Y-90217555D01*
X36161088Y-90190548D01*
X36521276Y-89700881D01*
X71478724Y-89700881D01*
X71838912Y-90190548D01*
X72502882Y-90550849D01*
X73224385Y-90774694D01*
X73975695Y-90853480D01*
X74727938Y-90784178D01*
X75452208Y-90569452D01*
X76120670Y-90217555D01*
X76161088Y-90190548D01*
X76521276Y-89700881D01*
X74000000Y-87179605D01*
X71478724Y-89700881D01*
X36521276Y-89700881D01*
X34000000Y-87179605D01*
X31478724Y-89700881D01*
X31162720Y-89700881D01*
X31096201Y-89640354D01*
X30554054Y-88953875D01*
X30131309Y-88188076D01*
X29839317Y-87363514D01*
X29770236Y-86975695D01*
X30146520Y-86975695D01*
X30215822Y-87727938D01*
X30430548Y-88452208D01*
X30782445Y-89120670D01*
X30809452Y-89161088D01*
X31299119Y-89521276D01*
X33820395Y-87000000D01*
X34179605Y-87000000D01*
X36700881Y-89521276D01*
X37190548Y-89161088D01*
X37550849Y-88497118D01*
X37774694Y-87775615D01*
X37853480Y-87024305D01*
X37784178Y-86272062D01*
X37569452Y-85547792D01*
X37217555Y-84879330D01*
X37190548Y-84838912D01*
X36700881Y-84478724D01*
X34179605Y-87000000D01*
X33820395Y-87000000D01*
X31299119Y-84478724D01*
X30809452Y-84838912D01*
X30449151Y-85502882D01*
X30225306Y-86224385D01*
X30146520Y-86975695D01*
X29770236Y-86975695D01*
X29683884Y-86490925D01*
X29660000Y-85984453D01*
X29660000Y-84299119D01*
X31478724Y-84299119D01*
X34000000Y-86820395D01*
X36521276Y-84299119D01*
X36161088Y-83809452D01*
X35497118Y-83449151D01*
X34775615Y-83225306D01*
X34024305Y-83146520D01*
X33272062Y-83215822D01*
X32547792Y-83430548D01*
X31879330Y-83782445D01*
X31838912Y-83809452D01*
X31478724Y-84299119D01*
X29660000Y-84299119D01*
X29660000Y-54830000D01*
X30911928Y-54830000D01*
X30911928Y-56530000D01*
X30924188Y-56654482D01*
X30960498Y-56774180D01*
X31019463Y-56884494D01*
X31098815Y-56981185D01*
X31195506Y-57060537D01*
X31305820Y-57119502D01*
X31378380Y-57141513D01*
X31246525Y-57273368D01*
X31084010Y-57516589D01*
X30972068Y-57786842D01*
X30915000Y-58073740D01*
X30915000Y-58366260D01*
X30972068Y-58653158D01*
X31084010Y-58923411D01*
X31246525Y-59166632D01*
X31453368Y-59373475D01*
X31627760Y-59490000D01*
X31453368Y-59606525D01*
X31246525Y-59813368D01*
X31084010Y-60056589D01*
X30972068Y-60326842D01*
X30915000Y-60613740D01*
X30915000Y-60906260D01*
X30972068Y-61193158D01*
X31084010Y-61463411D01*
X31246525Y-61706632D01*
X31453368Y-61913475D01*
X31627760Y-62030000D01*
X31453368Y-62146525D01*
X31246525Y-62353368D01*
X31084010Y-62596589D01*
X30972068Y-62866842D01*
X30915000Y-63153740D01*
X30915000Y-63446260D01*
X30972068Y-63733158D01*
X31084010Y-64003411D01*
X31246525Y-64246632D01*
X31453368Y-64453475D01*
X31627760Y-64570000D01*
X31453368Y-64686525D01*
X31246525Y-64893368D01*
X31084010Y-65136589D01*
X30972068Y-65406842D01*
X30915000Y-65693740D01*
X30915000Y-65986260D01*
X30972068Y-66273158D01*
X31084010Y-66543411D01*
X31246525Y-66786632D01*
X31453368Y-66993475D01*
X31627760Y-67110000D01*
X31453368Y-67226525D01*
X31246525Y-67433368D01*
X31084010Y-67676589D01*
X30972068Y-67946842D01*
X30915000Y-68233740D01*
X30915000Y-68526260D01*
X30972068Y-68813158D01*
X31084010Y-69083411D01*
X31246525Y-69326632D01*
X31453368Y-69533475D01*
X31627760Y-69650000D01*
X31453368Y-69766525D01*
X31246525Y-69973368D01*
X31084010Y-70216589D01*
X30972068Y-70486842D01*
X30915000Y-70773740D01*
X30915000Y-71066260D01*
X30972068Y-71353158D01*
X31084010Y-71623411D01*
X31246525Y-71866632D01*
X31453368Y-72073475D01*
X31627760Y-72190000D01*
X31453368Y-72306525D01*
X31246525Y-72513368D01*
X31084010Y-72756589D01*
X30972068Y-73026842D01*
X30915000Y-73313740D01*
X30915000Y-73606260D01*
X30972068Y-73893158D01*
X31084010Y-74163411D01*
X31246525Y-74406632D01*
X31453368Y-74613475D01*
X31627760Y-74730000D01*
X31453368Y-74846525D01*
X31246525Y-75053368D01*
X31084010Y-75296589D01*
X30972068Y-75566842D01*
X30915000Y-75853740D01*
X30915000Y-76146260D01*
X30972068Y-76433158D01*
X31084010Y-76703411D01*
X31246525Y-76946632D01*
X31453368Y-77153475D01*
X31627760Y-77270000D01*
X31453368Y-77386525D01*
X31246525Y-77593368D01*
X31084010Y-77836589D01*
X30972068Y-78106842D01*
X30915000Y-78393740D01*
X30915000Y-78686260D01*
X30972068Y-78973158D01*
X31084010Y-79243411D01*
X31246525Y-79486632D01*
X31453368Y-79693475D01*
X31696589Y-79855990D01*
X31966842Y-79967932D01*
X32253740Y-80025000D01*
X32546260Y-80025000D01*
X32833158Y-79967932D01*
X33103411Y-79855990D01*
X33346632Y-79693475D01*
X33553475Y-79486632D01*
X33709088Y-79253740D01*
X36975000Y-79253740D01*
X36975000Y-79546260D01*
X37032068Y-79833158D01*
X37144010Y-80103411D01*
X37306525Y-80346632D01*
X37513368Y-80553475D01*
X37687760Y-80670000D01*
X37513368Y-80786525D01*
X37306525Y-80993368D01*
X37144010Y-81236589D01*
X37032068Y-81506842D01*
X36975000Y-81793740D01*
X36975000Y-82086260D01*
X37032068Y-82373158D01*
X37144010Y-82643411D01*
X37306525Y-82886632D01*
X37513368Y-83093475D01*
X37756589Y-83255990D01*
X38026842Y-83367932D01*
X38313740Y-83425000D01*
X38606260Y-83425000D01*
X38893158Y-83367932D01*
X39163411Y-83255990D01*
X39406632Y-83093475D01*
X39613475Y-82886632D01*
X39730000Y-82712240D01*
X39846525Y-82886632D01*
X40053368Y-83093475D01*
X40296589Y-83255990D01*
X40566842Y-83367932D01*
X40853740Y-83425000D01*
X41146260Y-83425000D01*
X41433158Y-83367932D01*
X41703411Y-83255990D01*
X41946632Y-83093475D01*
X42153475Y-82886632D01*
X42315990Y-82643411D01*
X42427932Y-82373158D01*
X42485000Y-82086260D01*
X42485000Y-81793740D01*
X42427932Y-81506842D01*
X42315990Y-81236589D01*
X42153475Y-80993368D01*
X42021620Y-80861513D01*
X42094180Y-80839502D01*
X42204494Y-80780537D01*
X42301185Y-80701185D01*
X42380537Y-80604494D01*
X42439502Y-80494180D01*
X42475812Y-80374482D01*
X42488072Y-80250000D01*
X42488072Y-78550000D01*
X42475812Y-78425518D01*
X42439502Y-78305820D01*
X42380537Y-78195506D01*
X42301185Y-78098815D01*
X42204494Y-78019463D01*
X42094180Y-77960498D01*
X41974482Y-77924188D01*
X41850000Y-77911928D01*
X40150000Y-77911928D01*
X40025518Y-77924188D01*
X39905820Y-77960498D01*
X39795506Y-78019463D01*
X39698815Y-78098815D01*
X39619463Y-78195506D01*
X39560498Y-78305820D01*
X39538487Y-78378380D01*
X39406632Y-78246525D01*
X39163411Y-78084010D01*
X38893158Y-77972068D01*
X38606260Y-77915000D01*
X38313740Y-77915000D01*
X38026842Y-77972068D01*
X37756589Y-78084010D01*
X37513368Y-78246525D01*
X37306525Y-78453368D01*
X37144010Y-78696589D01*
X37032068Y-78966842D01*
X36975000Y-79253740D01*
X33709088Y-79253740D01*
X33715990Y-79243411D01*
X33827932Y-78973158D01*
X33885000Y-78686260D01*
X33885000Y-78393740D01*
X33827932Y-78106842D01*
X33715990Y-77836589D01*
X33553475Y-77593368D01*
X33346632Y-77386525D01*
X33172240Y-77270000D01*
X33346632Y-77153475D01*
X33553475Y-76946632D01*
X33715990Y-76703411D01*
X33827932Y-76433158D01*
X33885000Y-76146260D01*
X33885000Y-75853740D01*
X33827932Y-75566842D01*
X33715990Y-75296589D01*
X33553475Y-75053368D01*
X33346632Y-74846525D01*
X33172240Y-74730000D01*
X33346632Y-74613475D01*
X33553475Y-74406632D01*
X33715990Y-74163411D01*
X33827932Y-73893158D01*
X33885000Y-73606260D01*
X33885000Y-73313740D01*
X33827932Y-73026842D01*
X33715990Y-72756589D01*
X33553475Y-72513368D01*
X33346632Y-72306525D01*
X33172240Y-72190000D01*
X33346632Y-72073475D01*
X33553475Y-71866632D01*
X33715990Y-71623411D01*
X33827932Y-71353158D01*
X33885000Y-71066260D01*
X33885000Y-70773740D01*
X33827932Y-70486842D01*
X33715990Y-70216589D01*
X33553475Y-69973368D01*
X33346632Y-69766525D01*
X33172240Y-69650000D01*
X33346632Y-69533475D01*
X33553475Y-69326632D01*
X33715990Y-69083411D01*
X33827932Y-68813158D01*
X33885000Y-68526260D01*
X33885000Y-68399802D01*
X38446214Y-72961017D01*
X38470008Y-72990010D01*
X38499001Y-73013804D01*
X38499005Y-73013808D01*
X38569694Y-73071820D01*
X38585733Y-73084983D01*
X38717762Y-73155555D01*
X38861023Y-73199012D01*
X38972676Y-73210009D01*
X38972685Y-73210009D01*
X39010008Y-73213685D01*
X39047331Y-73210009D01*
X48878354Y-73210009D01*
X48915676Y-73213685D01*
X48952998Y-73210009D01*
X48953009Y-73210009D01*
X49064662Y-73199012D01*
X49207923Y-73155555D01*
X49339952Y-73084983D01*
X49455677Y-72990010D01*
X49479480Y-72961006D01*
X52711003Y-69729484D01*
X52740001Y-69705686D01*
X52834974Y-69589961D01*
X52905546Y-69457932D01*
X52948987Y-69314724D01*
X53003937Y-69259774D01*
X53117205Y-69090256D01*
X53195226Y-68901898D01*
X53235000Y-68701939D01*
X53235000Y-68498061D01*
X53195226Y-68298102D01*
X53117205Y-68109744D01*
X53003937Y-67940226D01*
X52859774Y-67796063D01*
X52690256Y-67682795D01*
X52501898Y-67604774D01*
X52412924Y-67587076D01*
X52407042Y-67557508D01*
X52498102Y-67595226D01*
X52698061Y-67635000D01*
X52759043Y-67635000D01*
X52852211Y-67711461D01*
X52984240Y-67782033D01*
X53127501Y-67825490D01*
X53239154Y-67836487D01*
X53239163Y-67836487D01*
X53276486Y-67840163D01*
X53313809Y-67836487D01*
X59588528Y-67836487D01*
X59580772Y-67850998D01*
X59549640Y-67909241D01*
X59506183Y-68052502D01*
X59495186Y-68164155D01*
X59495186Y-68164165D01*
X59491510Y-68201487D01*
X59495186Y-68238809D01*
X59495187Y-72886090D01*
X59490256Y-72882795D01*
X59301898Y-72804774D01*
X59101939Y-72765000D01*
X58898061Y-72765000D01*
X58698102Y-72804774D01*
X58509744Y-72882795D01*
X58340226Y-72996063D01*
X58196063Y-73140226D01*
X58082795Y-73309744D01*
X58049801Y-73389399D01*
X57890256Y-73282795D01*
X57701898Y-73204774D01*
X57501939Y-73165000D01*
X57298061Y-73165000D01*
X57098102Y-73204774D01*
X56909744Y-73282795D01*
X56775671Y-73372379D01*
X56786740Y-73358892D01*
X56847974Y-73284279D01*
X56918546Y-73152249D01*
X56934395Y-73100000D01*
X56962003Y-73008988D01*
X56973000Y-72897335D01*
X56973000Y-72897326D01*
X56976676Y-72860003D01*
X56973000Y-72822680D01*
X56973000Y-72703711D01*
X57016937Y-72659774D01*
X57068312Y-72582886D01*
X57098102Y-72595226D01*
X57298061Y-72635000D01*
X57501939Y-72635000D01*
X57701898Y-72595226D01*
X57890256Y-72517205D01*
X58059774Y-72403937D01*
X58203937Y-72259774D01*
X58317205Y-72090256D01*
X58395226Y-71901898D01*
X58435000Y-71701939D01*
X58435000Y-71498061D01*
X58395226Y-71298102D01*
X58317205Y-71109744D01*
X58203937Y-70940226D01*
X58059774Y-70796063D01*
X57890256Y-70682795D01*
X57701898Y-70604774D01*
X57501939Y-70565000D01*
X57298061Y-70565000D01*
X57098102Y-70604774D01*
X56909744Y-70682795D01*
X56740226Y-70796063D01*
X56596063Y-70940226D01*
X56544688Y-71017114D01*
X56514898Y-71004774D01*
X56314939Y-70965000D01*
X56111061Y-70965000D01*
X55911102Y-71004774D01*
X55722744Y-71082795D01*
X55553226Y-71196063D01*
X55409063Y-71340226D01*
X55295795Y-71509744D01*
X55217774Y-71698102D01*
X55178000Y-71898061D01*
X55178000Y-72101939D01*
X55217774Y-72301898D01*
X55295795Y-72490256D01*
X55380770Y-72617430D01*
X46969003Y-81029198D01*
X46939999Y-81053001D01*
X46884871Y-81120176D01*
X46845026Y-81168726D01*
X46774455Y-81300755D01*
X46774454Y-81300756D01*
X46730997Y-81444017D01*
X46720000Y-81555670D01*
X46720000Y-81555680D01*
X46716324Y-81593002D01*
X46720000Y-81630325D01*
X46720001Y-86121821D01*
X46533368Y-86246525D01*
X46326525Y-86453368D01*
X46210000Y-86627760D01*
X46093475Y-86453368D01*
X45886632Y-86246525D01*
X45643411Y-86084010D01*
X45373158Y-85972068D01*
X45086260Y-85915000D01*
X44793740Y-85915000D01*
X44506842Y-85972068D01*
X44236589Y-86084010D01*
X43993368Y-86246525D01*
X43861513Y-86378380D01*
X43839502Y-86305820D01*
X43780537Y-86195506D01*
X43701185Y-86098815D01*
X43604494Y-86019463D01*
X43494180Y-85960498D01*
X43374482Y-85924188D01*
X43250000Y-85911928D01*
X41550000Y-85911928D01*
X41425518Y-85924188D01*
X41305820Y-85960498D01*
X41195506Y-86019463D01*
X41098815Y-86098815D01*
X41019463Y-86195506D01*
X40960498Y-86305820D01*
X40924188Y-86425518D01*
X40911928Y-86550000D01*
X40911928Y-88250000D01*
X40924188Y-88374482D01*
X40960498Y-88494180D01*
X41019463Y-88604494D01*
X41098815Y-88701185D01*
X41195506Y-88780537D01*
X41305820Y-88839502D01*
X41425518Y-88875812D01*
X41550000Y-88888072D01*
X43250000Y-88888072D01*
X43374482Y-88875812D01*
X43494180Y-88839502D01*
X43604494Y-88780537D01*
X43701185Y-88701185D01*
X43780537Y-88604494D01*
X43839502Y-88494180D01*
X43861513Y-88421620D01*
X43993368Y-88553475D01*
X44236589Y-88715990D01*
X44506842Y-88827932D01*
X44793740Y-88885000D01*
X45086260Y-88885000D01*
X45373158Y-88827932D01*
X45643411Y-88715990D01*
X45886632Y-88553475D01*
X46093475Y-88346632D01*
X46210000Y-88172240D01*
X46326525Y-88346632D01*
X46533368Y-88553475D01*
X46776589Y-88715990D01*
X47046842Y-88827932D01*
X47333740Y-88885000D01*
X47626260Y-88885000D01*
X47913158Y-88827932D01*
X48183411Y-88715990D01*
X48426632Y-88553475D01*
X48633475Y-88346632D01*
X48750000Y-88172240D01*
X48866525Y-88346632D01*
X49073368Y-88553475D01*
X49316589Y-88715990D01*
X49586842Y-88827932D01*
X49873740Y-88885000D01*
X50166260Y-88885000D01*
X50453158Y-88827932D01*
X50723411Y-88715990D01*
X50966632Y-88553475D01*
X51173475Y-88346632D01*
X51290000Y-88172240D01*
X51406525Y-88346632D01*
X51613368Y-88553475D01*
X51856589Y-88715990D01*
X52126842Y-88827932D01*
X52413740Y-88885000D01*
X52706260Y-88885000D01*
X52993158Y-88827932D01*
X53263411Y-88715990D01*
X53506632Y-88553475D01*
X53713475Y-88346632D01*
X53830000Y-88172240D01*
X53946525Y-88346632D01*
X54153368Y-88553475D01*
X54396589Y-88715990D01*
X54666842Y-88827932D01*
X54953740Y-88885000D01*
X55246260Y-88885000D01*
X55533158Y-88827932D01*
X55803411Y-88715990D01*
X56046632Y-88553475D01*
X56253475Y-88346632D01*
X56370000Y-88172240D01*
X56486525Y-88346632D01*
X56693368Y-88553475D01*
X56936589Y-88715990D01*
X57206842Y-88827932D01*
X57493740Y-88885000D01*
X57786260Y-88885000D01*
X58073158Y-88827932D01*
X58343411Y-88715990D01*
X58586632Y-88553475D01*
X58793475Y-88346632D01*
X58910000Y-88172240D01*
X59026525Y-88346632D01*
X59233368Y-88553475D01*
X59476589Y-88715990D01*
X59746842Y-88827932D01*
X60033740Y-88885000D01*
X60326260Y-88885000D01*
X60613158Y-88827932D01*
X60883411Y-88715990D01*
X61126632Y-88553475D01*
X61333475Y-88346632D01*
X61450000Y-88172240D01*
X61566525Y-88346632D01*
X61773368Y-88553475D01*
X62016589Y-88715990D01*
X62286842Y-88827932D01*
X62573740Y-88885000D01*
X62866260Y-88885000D01*
X63153158Y-88827932D01*
X63423411Y-88715990D01*
X63666632Y-88553475D01*
X63873475Y-88346632D01*
X63990000Y-88172240D01*
X64106525Y-88346632D01*
X64313368Y-88553475D01*
X64556589Y-88715990D01*
X64826842Y-88827932D01*
X65113740Y-88885000D01*
X65406260Y-88885000D01*
X65693158Y-88827932D01*
X65963411Y-88715990D01*
X66206632Y-88553475D01*
X66413475Y-88346632D01*
X66575990Y-88103411D01*
X66687932Y-87833158D01*
X66745000Y-87546260D01*
X66745000Y-87253740D01*
X66689693Y-86975695D01*
X70146520Y-86975695D01*
X70215822Y-87727938D01*
X70430548Y-88452208D01*
X70782445Y-89120670D01*
X70809452Y-89161088D01*
X71299119Y-89521276D01*
X73820395Y-87000000D01*
X74179605Y-87000000D01*
X76700881Y-89521276D01*
X77190548Y-89161088D01*
X77550849Y-88497118D01*
X77774694Y-87775615D01*
X77853480Y-87024305D01*
X77784178Y-86272062D01*
X77569452Y-85547792D01*
X77217555Y-84879330D01*
X77190548Y-84838912D01*
X76700881Y-84478724D01*
X74179605Y-87000000D01*
X73820395Y-87000000D01*
X71299119Y-84478724D01*
X70809452Y-84838912D01*
X70449151Y-85502882D01*
X70225306Y-86224385D01*
X70146520Y-86975695D01*
X66689693Y-86975695D01*
X66687932Y-86966842D01*
X66575990Y-86696589D01*
X66413475Y-86453368D01*
X66206632Y-86246525D01*
X65963411Y-86084010D01*
X65693158Y-85972068D01*
X65406260Y-85915000D01*
X65113740Y-85915000D01*
X64826842Y-85972068D01*
X64556589Y-86084010D01*
X64313368Y-86246525D01*
X64106525Y-86453368D01*
X63990000Y-86627760D01*
X63873475Y-86453368D01*
X63666632Y-86246525D01*
X63423411Y-86084010D01*
X63153158Y-85972068D01*
X62866260Y-85915000D01*
X62573740Y-85915000D01*
X62286842Y-85972068D01*
X62016589Y-86084010D01*
X61773368Y-86246525D01*
X61566525Y-86453368D01*
X61450000Y-86627760D01*
X61333475Y-86453368D01*
X61126632Y-86246525D01*
X60883411Y-86084010D01*
X60613158Y-85972068D01*
X60326260Y-85915000D01*
X60033740Y-85915000D01*
X59746842Y-85972068D01*
X59476589Y-86084010D01*
X59233368Y-86246525D01*
X59026525Y-86453368D01*
X58910000Y-86627760D01*
X58793475Y-86453368D01*
X58586632Y-86246525D01*
X58343411Y-86084010D01*
X58073158Y-85972068D01*
X57786260Y-85915000D01*
X57493740Y-85915000D01*
X57206842Y-85972068D01*
X56936589Y-86084010D01*
X56693368Y-86246525D01*
X56486525Y-86453368D01*
X56370000Y-86627760D01*
X56253475Y-86453368D01*
X56046632Y-86246525D01*
X55860000Y-86121822D01*
X55860000Y-84299119D01*
X71478724Y-84299119D01*
X74000000Y-86820395D01*
X76521276Y-84299119D01*
X76161088Y-83809452D01*
X75497118Y-83449151D01*
X74775615Y-83225306D01*
X74024305Y-83146520D01*
X73272062Y-83215822D01*
X72547792Y-83430548D01*
X71879330Y-83782445D01*
X71838912Y-83809452D01*
X71478724Y-84299119D01*
X55860000Y-84299119D01*
X55860000Y-82296890D01*
X66758524Y-82296890D01*
X66803175Y-82444099D01*
X66928359Y-82706920D01*
X67102412Y-82940269D01*
X67318645Y-83135178D01*
X67568748Y-83284157D01*
X67843109Y-83381481D01*
X68073000Y-83260814D01*
X68073000Y-82067000D01*
X68327000Y-82067000D01*
X68327000Y-83260814D01*
X68556891Y-83381481D01*
X68831252Y-83284157D01*
X69081355Y-83135178D01*
X69297588Y-82940269D01*
X69470000Y-82709120D01*
X69642412Y-82940269D01*
X69858645Y-83135178D01*
X70108748Y-83284157D01*
X70383109Y-83381481D01*
X70613000Y-83260814D01*
X70613000Y-82067000D01*
X70867000Y-82067000D01*
X70867000Y-83260814D01*
X71096891Y-83381481D01*
X71371252Y-83284157D01*
X71621355Y-83135178D01*
X71837588Y-82940269D01*
X72011641Y-82706920D01*
X72136825Y-82444099D01*
X72181476Y-82296890D01*
X72060155Y-82067000D01*
X70867000Y-82067000D01*
X70613000Y-82067000D01*
X68327000Y-82067000D01*
X68073000Y-82067000D01*
X66879845Y-82067000D01*
X66758524Y-82296890D01*
X55860000Y-82296890D01*
X55860000Y-81414801D01*
X57517911Y-79756890D01*
X66758524Y-79756890D01*
X66803175Y-79904099D01*
X66928359Y-80166920D01*
X67102412Y-80400269D01*
X67318645Y-80595178D01*
X67444255Y-80670000D01*
X67318645Y-80744822D01*
X67102412Y-80939731D01*
X66928359Y-81173080D01*
X66803175Y-81435901D01*
X66758524Y-81583110D01*
X66879845Y-81813000D01*
X68073000Y-81813000D01*
X68073000Y-79527000D01*
X68327000Y-79527000D01*
X68327000Y-81813000D01*
X70613000Y-81813000D01*
X70613000Y-79527000D01*
X70867000Y-79527000D01*
X70867000Y-81813000D01*
X72060155Y-81813000D01*
X72181476Y-81583110D01*
X72136825Y-81435901D01*
X72011641Y-81173080D01*
X71837588Y-80939731D01*
X71753534Y-80863966D01*
X71834180Y-80839502D01*
X71944494Y-80780537D01*
X72041185Y-80701185D01*
X72120537Y-80604494D01*
X72179502Y-80494180D01*
X72215812Y-80374482D01*
X72228072Y-80250000D01*
X72225000Y-79685750D01*
X72066250Y-79527000D01*
X70867000Y-79527000D01*
X70613000Y-79527000D01*
X68327000Y-79527000D01*
X68073000Y-79527000D01*
X66879845Y-79527000D01*
X66758524Y-79756890D01*
X57517911Y-79756890D01*
X58231691Y-79043110D01*
X66758524Y-79043110D01*
X66879845Y-79273000D01*
X68073000Y-79273000D01*
X68073000Y-78079186D01*
X68327000Y-78079186D01*
X68327000Y-79273000D01*
X70613000Y-79273000D01*
X70613000Y-78073750D01*
X70867000Y-78073750D01*
X70867000Y-79273000D01*
X72066250Y-79273000D01*
X72225000Y-79114250D01*
X72228072Y-78550000D01*
X72215812Y-78425518D01*
X72179502Y-78305820D01*
X72120537Y-78195506D01*
X72041185Y-78098815D01*
X71944494Y-78019463D01*
X71834180Y-77960498D01*
X71714482Y-77924188D01*
X71590000Y-77911928D01*
X71025750Y-77915000D01*
X70867000Y-78073750D01*
X70613000Y-78073750D01*
X70454250Y-77915000D01*
X69890000Y-77911928D01*
X69765518Y-77924188D01*
X69645820Y-77960498D01*
X69535506Y-78019463D01*
X69438815Y-78098815D01*
X69359463Y-78195506D01*
X69300498Y-78305820D01*
X69277502Y-78381626D01*
X69081355Y-78204822D01*
X68831252Y-78055843D01*
X68556891Y-77958519D01*
X68327000Y-78079186D01*
X68073000Y-78079186D01*
X67843109Y-77958519D01*
X67568748Y-78055843D01*
X67318645Y-78204822D01*
X67102412Y-78399731D01*
X66928359Y-78633080D01*
X66803175Y-78895901D01*
X66758524Y-79043110D01*
X58231691Y-79043110D01*
X60766189Y-76508613D01*
X60795187Y-76484815D01*
X60837581Y-76433158D01*
X60890160Y-76369091D01*
X60960732Y-76237061D01*
X60970075Y-76206260D01*
X61004189Y-76093800D01*
X61015186Y-75982147D01*
X61015186Y-75982137D01*
X61018862Y-75944814D01*
X61015186Y-75907491D01*
X61015186Y-74235413D01*
X62144192Y-74235413D01*
X62239956Y-74499814D01*
X62529571Y-74640704D01*
X62841108Y-74722384D01*
X63162595Y-74741718D01*
X63481675Y-74697961D01*
X63786088Y-74592795D01*
X63960044Y-74499814D01*
X64055808Y-74235413D01*
X68644192Y-74235413D01*
X68739956Y-74499814D01*
X69029571Y-74640704D01*
X69341108Y-74722384D01*
X69662595Y-74741718D01*
X69981675Y-74697961D01*
X70286088Y-74592795D01*
X70460044Y-74499814D01*
X70555808Y-74235413D01*
X69600000Y-73279605D01*
X68644192Y-74235413D01*
X64055808Y-74235413D01*
X63100000Y-73279605D01*
X62144192Y-74235413D01*
X61015186Y-74235413D01*
X61015186Y-73162595D01*
X61458282Y-73162595D01*
X61502039Y-73481675D01*
X61607205Y-73786088D01*
X61700186Y-73960044D01*
X61964587Y-74055808D01*
X62920395Y-73100000D01*
X63279605Y-73100000D01*
X64235413Y-74055808D01*
X64499814Y-73960044D01*
X64640704Y-73670429D01*
X64722384Y-73358892D01*
X64734189Y-73162595D01*
X67958282Y-73162595D01*
X68002039Y-73481675D01*
X68107205Y-73786088D01*
X68200186Y-73960044D01*
X68464587Y-74055808D01*
X69420395Y-73100000D01*
X68464587Y-72144192D01*
X68200186Y-72239956D01*
X68059296Y-72529571D01*
X67977616Y-72841108D01*
X67958282Y-73162595D01*
X64734189Y-73162595D01*
X64741718Y-73037405D01*
X64697961Y-72718325D01*
X64592795Y-72413912D01*
X64499814Y-72239956D01*
X64235413Y-72144192D01*
X63279605Y-73100000D01*
X62920395Y-73100000D01*
X61964587Y-72144192D01*
X61700186Y-72239956D01*
X61559296Y-72529571D01*
X61477616Y-72841108D01*
X61458282Y-73162595D01*
X61015186Y-73162595D01*
X61015186Y-71964587D01*
X62144192Y-71964587D01*
X63100000Y-72920395D01*
X63995395Y-72025000D01*
X65286928Y-72025000D01*
X65299188Y-72149482D01*
X65335498Y-72269180D01*
X65394463Y-72379494D01*
X65473815Y-72476185D01*
X65570506Y-72555537D01*
X65680820Y-72614502D01*
X65800518Y-72650812D01*
X65925000Y-72663072D01*
X66114250Y-72660000D01*
X66273000Y-72501250D01*
X66273000Y-71714500D01*
X66527000Y-71714500D01*
X66527000Y-72501250D01*
X66685750Y-72660000D01*
X66875000Y-72663072D01*
X66999482Y-72650812D01*
X67119180Y-72614502D01*
X67229494Y-72555537D01*
X67326185Y-72476185D01*
X67405537Y-72379494D01*
X67464502Y-72269180D01*
X67500812Y-72149482D01*
X67513072Y-72025000D01*
X67510000Y-71873250D01*
X67351250Y-71714500D01*
X66527000Y-71714500D01*
X66273000Y-71714500D01*
X65448750Y-71714500D01*
X65290000Y-71873250D01*
X65286928Y-72025000D01*
X63995395Y-72025000D01*
X64055808Y-71964587D01*
X63960044Y-71700186D01*
X63670429Y-71559296D01*
X63358892Y-71477616D01*
X63037405Y-71458282D01*
X62718325Y-71502039D01*
X62413912Y-71607205D01*
X62239956Y-71700186D01*
X62144192Y-71964587D01*
X61015186Y-71964587D01*
X61015186Y-68772647D01*
X61145441Y-68718693D01*
X61314959Y-68605425D01*
X61459122Y-68461262D01*
X61465000Y-68452465D01*
X61465000Y-68761033D01*
X61527832Y-69076912D01*
X61651082Y-69374463D01*
X61830013Y-69642252D01*
X62057748Y-69869987D01*
X62325537Y-70048918D01*
X62623088Y-70172168D01*
X62938967Y-70235000D01*
X63261033Y-70235000D01*
X63576912Y-70172168D01*
X63591375Y-70166177D01*
X63961201Y-70536003D01*
X63984999Y-70565001D01*
X64100724Y-70659974D01*
X64232753Y-70730546D01*
X64376014Y-70774003D01*
X64487667Y-70785000D01*
X64487676Y-70785000D01*
X64524999Y-70788676D01*
X64562322Y-70785000D01*
X65403085Y-70785000D01*
X65394463Y-70795506D01*
X65335498Y-70905820D01*
X65299188Y-71025518D01*
X65286928Y-71150000D01*
X65290000Y-71301750D01*
X65448750Y-71460500D01*
X66273000Y-71460500D01*
X66273000Y-71440500D01*
X66527000Y-71440500D01*
X66527000Y-71460500D01*
X67351250Y-71460500D01*
X67510000Y-71301750D01*
X67513072Y-71150000D01*
X67500812Y-71025518D01*
X67464502Y-70905820D01*
X67405537Y-70795506D01*
X67386657Y-70772500D01*
X68150178Y-70772500D01*
X68187500Y-70776176D01*
X68224822Y-70772500D01*
X68224833Y-70772500D01*
X68336486Y-70761503D01*
X68479747Y-70718046D01*
X68611776Y-70647474D01*
X68727501Y-70552501D01*
X68751304Y-70523497D01*
X69108624Y-70166177D01*
X69123088Y-70172168D01*
X69438967Y-70235000D01*
X69761033Y-70235000D01*
X70076912Y-70172168D01*
X70374463Y-70048918D01*
X70440000Y-70005127D01*
X70440001Y-71690436D01*
X70170429Y-71559296D01*
X69858892Y-71477616D01*
X69537405Y-71458282D01*
X69218325Y-71502039D01*
X68913912Y-71607205D01*
X68739956Y-71700186D01*
X68644192Y-71964587D01*
X69600000Y-72920395D01*
X69614143Y-72906253D01*
X69793748Y-73085858D01*
X69779605Y-73100000D01*
X70735413Y-74055808D01*
X70999814Y-73960044D01*
X71140704Y-73670429D01*
X71222384Y-73358892D01*
X71241718Y-73037405D01*
X71232041Y-72966843D01*
X73958790Y-75693592D01*
X73915000Y-75913740D01*
X73915000Y-76206260D01*
X73972068Y-76493158D01*
X74084010Y-76763411D01*
X74246525Y-77006632D01*
X74378380Y-77138487D01*
X74305820Y-77160498D01*
X74195506Y-77219463D01*
X74098815Y-77298815D01*
X74019463Y-77395506D01*
X73960498Y-77505820D01*
X73924188Y-77625518D01*
X73911928Y-77750000D01*
X73911928Y-79450000D01*
X73924188Y-79574482D01*
X73960498Y-79694180D01*
X74019463Y-79804494D01*
X74098815Y-79901185D01*
X74195506Y-79980537D01*
X74305820Y-80039502D01*
X74425518Y-80075812D01*
X74550000Y-80088072D01*
X76250000Y-80088072D01*
X76374482Y-80075812D01*
X76494180Y-80039502D01*
X76604494Y-79980537D01*
X76701185Y-79901185D01*
X76780537Y-79804494D01*
X76839502Y-79694180D01*
X76875812Y-79574482D01*
X76888072Y-79450000D01*
X76888072Y-77750000D01*
X76875812Y-77625518D01*
X76839502Y-77505820D01*
X76780537Y-77395506D01*
X76701185Y-77298815D01*
X76604494Y-77219463D01*
X76494180Y-77160498D01*
X76421620Y-77138487D01*
X76553475Y-77006632D01*
X76715990Y-76763411D01*
X76827932Y-76493158D01*
X76885000Y-76206260D01*
X76885000Y-75913740D01*
X76827932Y-75626842D01*
X76715990Y-75356589D01*
X76553475Y-75113368D01*
X76346632Y-74906525D01*
X76172240Y-74790000D01*
X76346632Y-74673475D01*
X76553475Y-74466632D01*
X76715990Y-74223411D01*
X76827932Y-73953158D01*
X76885000Y-73666260D01*
X76885000Y-73373740D01*
X76827932Y-73086842D01*
X76715990Y-72816589D01*
X76553475Y-72573368D01*
X76346632Y-72366525D01*
X76172240Y-72250000D01*
X76346632Y-72133475D01*
X76553475Y-71926632D01*
X76715990Y-71683411D01*
X76827932Y-71413158D01*
X76885000Y-71126260D01*
X76885000Y-70833740D01*
X76827932Y-70546842D01*
X76715990Y-70276589D01*
X76553475Y-70033368D01*
X76346632Y-69826525D01*
X76172240Y-69710000D01*
X76346632Y-69593475D01*
X76553475Y-69386632D01*
X76715990Y-69143411D01*
X76827932Y-68873158D01*
X76885000Y-68586260D01*
X76885000Y-68293740D01*
X76827932Y-68006842D01*
X76715990Y-67736589D01*
X76553475Y-67493368D01*
X76346632Y-67286525D01*
X76172240Y-67170000D01*
X76346632Y-67053475D01*
X76553475Y-66846632D01*
X76715990Y-66603411D01*
X76827932Y-66333158D01*
X76885000Y-66046260D01*
X76885000Y-65753740D01*
X76827932Y-65466842D01*
X76715990Y-65196589D01*
X76553475Y-64953368D01*
X76346632Y-64746525D01*
X76172240Y-64630000D01*
X76346632Y-64513475D01*
X76553475Y-64306632D01*
X76715990Y-64063411D01*
X76827932Y-63793158D01*
X76885000Y-63506260D01*
X76885000Y-63213740D01*
X76827932Y-62926842D01*
X76715990Y-62656589D01*
X76553475Y-62413368D01*
X76346632Y-62206525D01*
X76172240Y-62090000D01*
X76346632Y-61973475D01*
X76553475Y-61766632D01*
X76715990Y-61523411D01*
X76827932Y-61253158D01*
X76885000Y-60966260D01*
X76885000Y-60673740D01*
X76827932Y-60386842D01*
X76715990Y-60116589D01*
X76553475Y-59873368D01*
X76346632Y-59666525D01*
X76172240Y-59550000D01*
X76346632Y-59433475D01*
X76553475Y-59226632D01*
X76715990Y-58983411D01*
X76827932Y-58713158D01*
X76885000Y-58426260D01*
X76885000Y-58133740D01*
X76827932Y-57846842D01*
X76715990Y-57576589D01*
X76553475Y-57333368D01*
X76346632Y-57126525D01*
X76172240Y-57010000D01*
X76346632Y-56893475D01*
X76553475Y-56686632D01*
X76715990Y-56443411D01*
X76827932Y-56173158D01*
X76885000Y-55886260D01*
X76885000Y-55593740D01*
X76827932Y-55306842D01*
X76715990Y-55036589D01*
X76553475Y-54793368D01*
X76346632Y-54586525D01*
X76103411Y-54424010D01*
X75833158Y-54312068D01*
X75546260Y-54255000D01*
X75253740Y-54255000D01*
X74966842Y-54312068D01*
X74696589Y-54424010D01*
X74453368Y-54586525D01*
X74246525Y-54793368D01*
X74084010Y-55036589D01*
X73972068Y-55306842D01*
X73915000Y-55593740D01*
X73915000Y-55886260D01*
X73958790Y-56106408D01*
X72675199Y-57390000D01*
X63114323Y-57390000D01*
X63076998Y-57386324D01*
X63039673Y-57390000D01*
X63039665Y-57390000D01*
X62928012Y-57400997D01*
X62784751Y-57444454D01*
X62652722Y-57515026D01*
X62536997Y-57609999D01*
X62513199Y-57638997D01*
X59388998Y-60763199D01*
X59360000Y-60786997D01*
X59336202Y-60815995D01*
X59336201Y-60815996D01*
X59265026Y-60902722D01*
X59257285Y-60917205D01*
X59194454Y-61034751D01*
X59150997Y-61178012D01*
X59140000Y-61289665D01*
X59140000Y-61289676D01*
X59136324Y-61326998D01*
X59140000Y-61364320D01*
X59140000Y-61558200D01*
X59030956Y-61667245D01*
X58959774Y-61596063D01*
X58790256Y-61482795D01*
X58601898Y-61404774D01*
X58401939Y-61365000D01*
X58198061Y-61365000D01*
X57998102Y-61404774D01*
X57809744Y-61482795D01*
X57640226Y-61596063D01*
X57496063Y-61740226D01*
X57382795Y-61909744D01*
X57304774Y-62098102D01*
X57265000Y-62298061D01*
X57265000Y-62501939D01*
X57304774Y-62701898D01*
X57351623Y-62815000D01*
X56353711Y-62815000D01*
X56309774Y-62771063D01*
X56140256Y-62657795D01*
X55951898Y-62579774D01*
X55751939Y-62540000D01*
X55684999Y-62540000D01*
X55684999Y-56789802D01*
X57115000Y-55359801D01*
X57115000Y-55486260D01*
X57172068Y-55773158D01*
X57284010Y-56043411D01*
X57446525Y-56286632D01*
X57653368Y-56493475D01*
X57840001Y-56618179D01*
X57840000Y-57860198D01*
X56960199Y-58740000D01*
X56898061Y-58740000D01*
X56698102Y-58779774D01*
X56509744Y-58857795D01*
X56340226Y-58971063D01*
X56196063Y-59115226D01*
X56082795Y-59284744D01*
X56004774Y-59473102D01*
X55965000Y-59673061D01*
X55965000Y-59876939D01*
X56004774Y-60076898D01*
X56082795Y-60265256D01*
X56196063Y-60434774D01*
X56340226Y-60578937D01*
X56509744Y-60692205D01*
X56698102Y-60770226D01*
X56898061Y-60810000D01*
X57101939Y-60810000D01*
X57301898Y-60770226D01*
X57490256Y-60692205D01*
X57659774Y-60578937D01*
X57775000Y-60463711D01*
X57790226Y-60478937D01*
X57959744Y-60592205D01*
X58148102Y-60670226D01*
X58348061Y-60710000D01*
X58551939Y-60710000D01*
X58751898Y-60670226D01*
X58940256Y-60592205D01*
X59109774Y-60478937D01*
X59253937Y-60334774D01*
X59367205Y-60165256D01*
X59445226Y-59976898D01*
X59485000Y-59776939D01*
X59485000Y-59714801D01*
X61651009Y-57548794D01*
X61680001Y-57525001D01*
X61703795Y-57496008D01*
X61703799Y-57496004D01*
X61774973Y-57409277D01*
X61774974Y-57409276D01*
X61845546Y-57277247D01*
X61889003Y-57133986D01*
X61900000Y-57022333D01*
X61900000Y-57022324D01*
X61903676Y-56985001D01*
X61900000Y-56947678D01*
X61900000Y-56618178D01*
X62086632Y-56493475D01*
X62293475Y-56286632D01*
X62415195Y-56104466D01*
X62484822Y-56221355D01*
X62679731Y-56437588D01*
X62913080Y-56611641D01*
X63175901Y-56736825D01*
X63323110Y-56781476D01*
X63553000Y-56660155D01*
X63553000Y-55467000D01*
X63533000Y-55467000D01*
X63533000Y-55213000D01*
X63553000Y-55213000D01*
X63553000Y-52927000D01*
X63533000Y-52927000D01*
X63533000Y-52673000D01*
X63553000Y-52673000D01*
X63553000Y-51479845D01*
X63807000Y-51479845D01*
X63807000Y-52673000D01*
X63827000Y-52673000D01*
X63827000Y-52927000D01*
X63807000Y-52927000D01*
X63807000Y-55213000D01*
X63827000Y-55213000D01*
X63827000Y-55467000D01*
X63807000Y-55467000D01*
X63807000Y-56660155D01*
X64036890Y-56781476D01*
X64184099Y-56736825D01*
X64446920Y-56611641D01*
X64680269Y-56437588D01*
X64875178Y-56221355D01*
X64944805Y-56104466D01*
X65066525Y-56286632D01*
X65273368Y-56493475D01*
X65516589Y-56655990D01*
X65786842Y-56767932D01*
X66073740Y-56825000D01*
X66366260Y-56825000D01*
X66653158Y-56767932D01*
X66923411Y-56655990D01*
X67166632Y-56493475D01*
X67373475Y-56286632D01*
X67490000Y-56112240D01*
X67606525Y-56286632D01*
X67813368Y-56493475D01*
X68056589Y-56655990D01*
X68326842Y-56767932D01*
X68613740Y-56825000D01*
X68906260Y-56825000D01*
X69193158Y-56767932D01*
X69463411Y-56655990D01*
X69706632Y-56493475D01*
X69913475Y-56286632D01*
X70075990Y-56043411D01*
X70187932Y-55773158D01*
X70245000Y-55486260D01*
X70245000Y-55193740D01*
X70187932Y-54906842D01*
X70075990Y-54636589D01*
X69913475Y-54393368D01*
X69706632Y-54186525D01*
X69532240Y-54070000D01*
X69706632Y-53953475D01*
X69913475Y-53746632D01*
X70075990Y-53503411D01*
X70187932Y-53233158D01*
X70245000Y-52946260D01*
X70245000Y-52653740D01*
X70187932Y-52366842D01*
X70075990Y-52096589D01*
X69913475Y-51853368D01*
X69706632Y-51646525D01*
X69463411Y-51484010D01*
X69193158Y-51372068D01*
X68906260Y-51315000D01*
X68613740Y-51315000D01*
X68326842Y-51372068D01*
X68056589Y-51484010D01*
X67813368Y-51646525D01*
X67606525Y-51853368D01*
X67490000Y-52027760D01*
X67373475Y-51853368D01*
X67166632Y-51646525D01*
X66923411Y-51484010D01*
X66653158Y-51372068D01*
X66366260Y-51315000D01*
X66073740Y-51315000D01*
X65786842Y-51372068D01*
X65516589Y-51484010D01*
X65273368Y-51646525D01*
X65066525Y-51853368D01*
X64944805Y-52035534D01*
X64875178Y-51918645D01*
X64680269Y-51702412D01*
X64446920Y-51528359D01*
X64184099Y-51403175D01*
X64036890Y-51358524D01*
X63807000Y-51479845D01*
X63553000Y-51479845D01*
X63323110Y-51358524D01*
X63175901Y-51403175D01*
X62913080Y-51528359D01*
X62679731Y-51702412D01*
X62484822Y-51918645D01*
X62415195Y-52035534D01*
X62293475Y-51853368D01*
X62086632Y-51646525D01*
X61843411Y-51484010D01*
X61643165Y-51401066D01*
X61717205Y-51290256D01*
X61795226Y-51101898D01*
X61835000Y-50901939D01*
X61835000Y-50698061D01*
X61816000Y-50602541D01*
X61816000Y-50197459D01*
X61835000Y-50101939D01*
X61835000Y-49898061D01*
X61795226Y-49698102D01*
X61740712Y-49566496D01*
X61833740Y-49585000D01*
X62126260Y-49585000D01*
X62413158Y-49527932D01*
X62683411Y-49415990D01*
X62926632Y-49253475D01*
X63133475Y-49046632D01*
X63295990Y-48803411D01*
X63407932Y-48533158D01*
X63465000Y-48246260D01*
X63465000Y-47953740D01*
X63407932Y-47666842D01*
X63295990Y-47396589D01*
X63133475Y-47153368D01*
X62926632Y-46946525D01*
X62683411Y-46784010D01*
X62413158Y-46672068D01*
X62126260Y-46615000D01*
X61833740Y-46615000D01*
X61546842Y-46672068D01*
X61276589Y-46784010D01*
X61033368Y-46946525D01*
X60826525Y-47153368D01*
X60710000Y-47327760D01*
X60593475Y-47153368D01*
X60386632Y-46946525D01*
X60143411Y-46784010D01*
X59873158Y-46672068D01*
X59586260Y-46615000D01*
X59293740Y-46615000D01*
X59006842Y-46672068D01*
X58736589Y-46784010D01*
X58493368Y-46946525D01*
X58361513Y-47078380D01*
X58339502Y-47005820D01*
X58280537Y-46895506D01*
X58201185Y-46798815D01*
X58104494Y-46719463D01*
X57994180Y-46660498D01*
X57874482Y-46624188D01*
X57750000Y-46611928D01*
X56050000Y-46611928D01*
X55925518Y-46624188D01*
X55805820Y-46660498D01*
X55695506Y-46719463D01*
X55598815Y-46798815D01*
X55519463Y-46895506D01*
X55460498Y-47005820D01*
X55424188Y-47125518D01*
X55411928Y-47250000D01*
X55411928Y-48950000D01*
X55415032Y-48981515D01*
X55298102Y-49004774D01*
X55109744Y-49082795D01*
X55100000Y-49089306D01*
X55090256Y-49082795D01*
X54901898Y-49004774D01*
X54701939Y-48965000D01*
X54498061Y-48965000D01*
X54298102Y-49004774D01*
X54109744Y-49082795D01*
X53940226Y-49196063D01*
X53796063Y-49340226D01*
X53682795Y-49509744D01*
X53604774Y-49698102D01*
X53565000Y-49898061D01*
X53565000Y-50101939D01*
X53584000Y-50197459D01*
X53584000Y-50602541D01*
X53565000Y-50698061D01*
X53565000Y-50901939D01*
X53604774Y-51101898D01*
X53682795Y-51290256D01*
X53756123Y-51400000D01*
X53682795Y-51509744D01*
X53604774Y-51698102D01*
X53565000Y-51898061D01*
X53565000Y-52101939D01*
X53604774Y-52301898D01*
X53682795Y-52490256D01*
X53796063Y-52659774D01*
X53940226Y-52803937D01*
X54109744Y-52917205D01*
X54298102Y-52995226D01*
X54498061Y-53035000D01*
X54701939Y-53035000D01*
X54901898Y-52995226D01*
X55090256Y-52917205D01*
X55100000Y-52910694D01*
X55109744Y-52917205D01*
X55298102Y-52995226D01*
X55498061Y-53035000D01*
X55701939Y-53035000D01*
X55901898Y-52995226D01*
X56090256Y-52917205D01*
X56259774Y-52803937D01*
X56403937Y-52659774D01*
X56517205Y-52490256D01*
X56595226Y-52301898D01*
X56635000Y-52101939D01*
X56635000Y-51898061D01*
X56607042Y-51757508D01*
X56698102Y-51795226D01*
X56898061Y-51835000D01*
X57101939Y-51835000D01*
X57123680Y-51830675D01*
X57111928Y-51950000D01*
X57111928Y-53213270D01*
X54413997Y-55911202D01*
X54384999Y-55935000D01*
X54361201Y-55963998D01*
X54361200Y-55963999D01*
X54290025Y-56050725D01*
X54219453Y-56182755D01*
X54203303Y-56235998D01*
X54187944Y-56286632D01*
X54175997Y-56326016D01*
X54161323Y-56475001D01*
X54165000Y-56512333D01*
X54164999Y-62586715D01*
X54069180Y-62535498D01*
X53949482Y-62499188D01*
X53825000Y-62486928D01*
X53673250Y-62490000D01*
X53514500Y-62648750D01*
X53514500Y-63473000D01*
X53534500Y-63473000D01*
X53534500Y-63727000D01*
X53514500Y-63727000D01*
X53514500Y-63747000D01*
X53260500Y-63747000D01*
X53260500Y-63727000D01*
X53240500Y-63727000D01*
X53240500Y-63473000D01*
X53260500Y-63473000D01*
X53260500Y-62648750D01*
X53101750Y-62490000D01*
X52950000Y-62486928D01*
X52825518Y-62499188D01*
X52705820Y-62535498D01*
X52600628Y-62591725D01*
X52630547Y-62535752D01*
X52674004Y-62392491D01*
X52685001Y-62280838D01*
X52685001Y-62280829D01*
X52688677Y-62243506D01*
X52685001Y-62206183D01*
X52685001Y-58962323D01*
X52688677Y-58925000D01*
X52685001Y-58887677D01*
X52685001Y-58887668D01*
X52674004Y-58776015D01*
X52630547Y-58632754D01*
X52559975Y-58500725D01*
X52465002Y-58385000D01*
X52436005Y-58361203D01*
X51763803Y-57689002D01*
X51740001Y-57659999D01*
X51624276Y-57565026D01*
X51492247Y-57494454D01*
X51348986Y-57450997D01*
X51237333Y-57440000D01*
X51237322Y-57440000D01*
X51200000Y-57436324D01*
X51162678Y-57440000D01*
X44437322Y-57440000D01*
X44399999Y-57436324D01*
X44362676Y-57440000D01*
X44362667Y-57440000D01*
X44251014Y-57450997D01*
X44107753Y-57494454D01*
X43975724Y-57565026D01*
X43859999Y-57659999D01*
X43836201Y-57688997D01*
X43160199Y-58365000D01*
X43098061Y-58365000D01*
X42898102Y-58404774D01*
X42709744Y-58482795D01*
X42540226Y-58596063D01*
X42396063Y-58740226D01*
X42282795Y-58909744D01*
X42204774Y-59098102D01*
X42165000Y-59298061D01*
X42165000Y-59501939D01*
X42204774Y-59701898D01*
X42275647Y-59873000D01*
X40000000Y-59873000D01*
X39975224Y-59875440D01*
X39951399Y-59882667D01*
X39929443Y-59894403D01*
X39910197Y-59910197D01*
X39894403Y-59929443D01*
X39882667Y-59951399D01*
X39875440Y-59975224D01*
X39873000Y-60000000D01*
X39873000Y-68317193D01*
X34344810Y-62789003D01*
X34321007Y-62759999D01*
X34205282Y-62665026D01*
X34073253Y-62594454D01*
X33929992Y-62550997D01*
X33818339Y-62540000D01*
X33818328Y-62540000D01*
X33781006Y-62536324D01*
X33743684Y-62540000D01*
X33678178Y-62540000D01*
X33553475Y-62353368D01*
X33346632Y-62146525D01*
X33172240Y-62030000D01*
X33346632Y-61913475D01*
X33553475Y-61706632D01*
X33715990Y-61463411D01*
X33827932Y-61193158D01*
X33885000Y-60906260D01*
X33885000Y-60613740D01*
X33827932Y-60326842D01*
X33715990Y-60056589D01*
X33553475Y-59813368D01*
X33346632Y-59606525D01*
X33172240Y-59490000D01*
X33346632Y-59373475D01*
X33553475Y-59166632D01*
X33715990Y-58923411D01*
X33827932Y-58653158D01*
X33885000Y-58366260D01*
X33885000Y-58073740D01*
X33827932Y-57786842D01*
X33715990Y-57516589D01*
X33553475Y-57273368D01*
X33421620Y-57141513D01*
X33494180Y-57119502D01*
X33604494Y-57060537D01*
X33701185Y-56981185D01*
X33780537Y-56884494D01*
X33839502Y-56774180D01*
X33875812Y-56654482D01*
X33888072Y-56530000D01*
X33888072Y-55698061D01*
X42565000Y-55698061D01*
X42565000Y-55901939D01*
X42604774Y-56101898D01*
X42682795Y-56290256D01*
X42796063Y-56459774D01*
X42940226Y-56603937D01*
X43109744Y-56717205D01*
X43298102Y-56795226D01*
X43498061Y-56835000D01*
X43701939Y-56835000D01*
X43901898Y-56795226D01*
X44090256Y-56717205D01*
X44259774Y-56603937D01*
X44403937Y-56459774D01*
X44517205Y-56290256D01*
X44595226Y-56101898D01*
X44635000Y-55901939D01*
X44635000Y-55698061D01*
X44595226Y-55498102D01*
X44517205Y-55309744D01*
X44403937Y-55140226D01*
X44259774Y-54996063D01*
X44090256Y-54882795D01*
X43901898Y-54804774D01*
X43701939Y-54765000D01*
X43498061Y-54765000D01*
X43298102Y-54804774D01*
X43109744Y-54882795D01*
X42940226Y-54996063D01*
X42796063Y-55140226D01*
X42682795Y-55309744D01*
X42604774Y-55498102D01*
X42565000Y-55698061D01*
X33888072Y-55698061D01*
X33888072Y-54830000D01*
X33875812Y-54705518D01*
X33839502Y-54585820D01*
X33780537Y-54475506D01*
X33701185Y-54378815D01*
X33604494Y-54299463D01*
X33494180Y-54240498D01*
X33374482Y-54204188D01*
X33250000Y-54191928D01*
X31550000Y-54191928D01*
X31425518Y-54204188D01*
X31305820Y-54240498D01*
X31195506Y-54299463D01*
X31098815Y-54378815D01*
X31019463Y-54475506D01*
X30960498Y-54585820D01*
X30924188Y-54705518D01*
X30911928Y-54830000D01*
X29660000Y-54830000D01*
X29660000Y-51350000D01*
X36311928Y-51350000D01*
X36311928Y-53050000D01*
X36324188Y-53174482D01*
X36360498Y-53294180D01*
X36419463Y-53404494D01*
X36498815Y-53501185D01*
X36595506Y-53580537D01*
X36705820Y-53639502D01*
X36825518Y-53675812D01*
X36950000Y-53688072D01*
X38650000Y-53688072D01*
X38774482Y-53675812D01*
X38894180Y-53639502D01*
X39004494Y-53580537D01*
X39101185Y-53501185D01*
X39180537Y-53404494D01*
X39239502Y-53294180D01*
X39261513Y-53221620D01*
X39393368Y-53353475D01*
X39636589Y-53515990D01*
X39906842Y-53627932D01*
X40193740Y-53685000D01*
X40486260Y-53685000D01*
X40773158Y-53627932D01*
X41043411Y-53515990D01*
X41286632Y-53353475D01*
X41493475Y-53146632D01*
X41615195Y-52964466D01*
X41684822Y-53081355D01*
X41879731Y-53297588D01*
X42113080Y-53471641D01*
X42375901Y-53596825D01*
X42523110Y-53641476D01*
X42753000Y-53520155D01*
X42753000Y-52327000D01*
X43007000Y-52327000D01*
X43007000Y-53520155D01*
X43236890Y-53641476D01*
X43384099Y-53596825D01*
X43646920Y-53471641D01*
X43880269Y-53297588D01*
X44075178Y-53081355D01*
X44224157Y-52831252D01*
X44321481Y-52556891D01*
X44200814Y-52327000D01*
X43007000Y-52327000D01*
X42753000Y-52327000D01*
X42733000Y-52327000D01*
X42733000Y-52073000D01*
X42753000Y-52073000D01*
X42753000Y-50879845D01*
X43007000Y-50879845D01*
X43007000Y-52073000D01*
X44200814Y-52073000D01*
X44321481Y-51843109D01*
X44224157Y-51568748D01*
X44075178Y-51318645D01*
X43880269Y-51102412D01*
X43646920Y-50928359D01*
X43384099Y-50803175D01*
X43236890Y-50758524D01*
X43007000Y-50879845D01*
X42753000Y-50879845D01*
X42523110Y-50758524D01*
X42375901Y-50803175D01*
X42113080Y-50928359D01*
X41879731Y-51102412D01*
X41684822Y-51318645D01*
X41615195Y-51435534D01*
X41493475Y-51253368D01*
X41286632Y-51046525D01*
X41043411Y-50884010D01*
X40773158Y-50772068D01*
X40486260Y-50715000D01*
X40193740Y-50715000D01*
X39906842Y-50772068D01*
X39636589Y-50884010D01*
X39393368Y-51046525D01*
X39261513Y-51178380D01*
X39239502Y-51105820D01*
X39180537Y-50995506D01*
X39101185Y-50898815D01*
X39004494Y-50819463D01*
X38894180Y-50760498D01*
X38774482Y-50724188D01*
X38650000Y-50711928D01*
X36950000Y-50711928D01*
X36825518Y-50724188D01*
X36705820Y-50760498D01*
X36595506Y-50819463D01*
X36498815Y-50898815D01*
X36419463Y-50995506D01*
X36360498Y-51105820D01*
X36324188Y-51225518D01*
X36311928Y-51350000D01*
X29660000Y-51350000D01*
X29660000Y-47029392D01*
X29696333Y-46622285D01*
X30165000Y-46622285D01*
X30165000Y-47377715D01*
X30312377Y-48118628D01*
X30601467Y-48816554D01*
X31021161Y-49444670D01*
X31555330Y-49978839D01*
X32183446Y-50398533D01*
X32881372Y-50687623D01*
X33622285Y-50835000D01*
X34377715Y-50835000D01*
X35118628Y-50687623D01*
X35816554Y-50398533D01*
X36444670Y-49978839D01*
X36978839Y-49444670D01*
X37398533Y-48816554D01*
X37687623Y-48118628D01*
X37719794Y-47956890D01*
X38758524Y-47956890D01*
X38803175Y-48104099D01*
X38928359Y-48366920D01*
X39102412Y-48600269D01*
X39318645Y-48795178D01*
X39568748Y-48944157D01*
X39843109Y-49041481D01*
X40073000Y-48920814D01*
X40073000Y-47727000D01*
X40327000Y-47727000D01*
X40327000Y-48920814D01*
X40556891Y-49041481D01*
X40831252Y-48944157D01*
X41081355Y-48795178D01*
X41297588Y-48600269D01*
X41471641Y-48366920D01*
X41596825Y-48104099D01*
X41641476Y-47956890D01*
X41520155Y-47727000D01*
X40327000Y-47727000D01*
X40073000Y-47727000D01*
X38879845Y-47727000D01*
X38758524Y-47956890D01*
X37719794Y-47956890D01*
X37835000Y-47377715D01*
X37835000Y-46622285D01*
X37687623Y-45881372D01*
X37398533Y-45183446D01*
X36978839Y-44555330D01*
X36633509Y-44210000D01*
X38711928Y-44210000D01*
X38711928Y-45910000D01*
X38724188Y-46034482D01*
X38760498Y-46154180D01*
X38819463Y-46264494D01*
X38898815Y-46361185D01*
X38995506Y-46440537D01*
X39105820Y-46499502D01*
X39186466Y-46523966D01*
X39102412Y-46599731D01*
X38928359Y-46833080D01*
X38803175Y-47095901D01*
X38758524Y-47243110D01*
X38879845Y-47473000D01*
X40073000Y-47473000D01*
X40073000Y-47453000D01*
X40327000Y-47453000D01*
X40327000Y-47473000D01*
X41520155Y-47473000D01*
X41641476Y-47243110D01*
X41596825Y-47095901D01*
X41471641Y-46833080D01*
X41297588Y-46599731D01*
X41213534Y-46523966D01*
X41294180Y-46499502D01*
X41404494Y-46440537D01*
X41501185Y-46361185D01*
X41580537Y-46264494D01*
X41639502Y-46154180D01*
X41675812Y-46034482D01*
X41688072Y-45910000D01*
X41688072Y-44750000D01*
X67111928Y-44750000D01*
X67111928Y-46450000D01*
X67124188Y-46574482D01*
X67160498Y-46694180D01*
X67219463Y-46804494D01*
X67298815Y-46901185D01*
X67395506Y-46980537D01*
X67505820Y-47039502D01*
X67578380Y-47061513D01*
X67446525Y-47193368D01*
X67284010Y-47436589D01*
X67172068Y-47706842D01*
X67115000Y-47993740D01*
X67115000Y-48286260D01*
X67172068Y-48573158D01*
X67284010Y-48843411D01*
X67446525Y-49086632D01*
X67653368Y-49293475D01*
X67896589Y-49455990D01*
X68166842Y-49567932D01*
X68453740Y-49625000D01*
X68746260Y-49625000D01*
X69033158Y-49567932D01*
X69303411Y-49455990D01*
X69546632Y-49293475D01*
X69753475Y-49086632D01*
X69915990Y-48843411D01*
X70027932Y-48573158D01*
X70085000Y-48286260D01*
X70085000Y-47993740D01*
X70027932Y-47706842D01*
X69915990Y-47436589D01*
X69753475Y-47193368D01*
X69621620Y-47061513D01*
X69694180Y-47039502D01*
X69804494Y-46980537D01*
X69901185Y-46901185D01*
X69980537Y-46804494D01*
X70039502Y-46694180D01*
X70061311Y-46622285D01*
X70165000Y-46622285D01*
X70165000Y-47377715D01*
X70312377Y-48118628D01*
X70601467Y-48816554D01*
X71021161Y-49444670D01*
X71555330Y-49978839D01*
X72183446Y-50398533D01*
X72881372Y-50687623D01*
X73622285Y-50835000D01*
X74377715Y-50835000D01*
X75118628Y-50687623D01*
X75816554Y-50398533D01*
X76444670Y-49978839D01*
X76978839Y-49444670D01*
X77398533Y-48816554D01*
X77687623Y-48118628D01*
X77835000Y-47377715D01*
X77835000Y-46622285D01*
X77687623Y-45881372D01*
X77398533Y-45183446D01*
X76978839Y-44555330D01*
X76444670Y-44021161D01*
X75816554Y-43601467D01*
X75118628Y-43312377D01*
X74377715Y-43165000D01*
X73622285Y-43165000D01*
X72881372Y-43312377D01*
X72183446Y-43601467D01*
X71555330Y-44021161D01*
X71021161Y-44555330D01*
X70601467Y-45183446D01*
X70312377Y-45881372D01*
X70165000Y-46622285D01*
X70061311Y-46622285D01*
X70075812Y-46574482D01*
X70088072Y-46450000D01*
X70088072Y-44750000D01*
X70075812Y-44625518D01*
X70039502Y-44505820D01*
X69980537Y-44395506D01*
X69901185Y-44298815D01*
X69804494Y-44219463D01*
X69694180Y-44160498D01*
X69574482Y-44124188D01*
X69450000Y-44111928D01*
X67750000Y-44111928D01*
X67625518Y-44124188D01*
X67505820Y-44160498D01*
X67395506Y-44219463D01*
X67298815Y-44298815D01*
X67219463Y-44395506D01*
X67160498Y-44505820D01*
X67124188Y-44625518D01*
X67111928Y-44750000D01*
X41688072Y-44750000D01*
X41688072Y-44210000D01*
X41675812Y-44085518D01*
X41639502Y-43965820D01*
X41580537Y-43855506D01*
X41501185Y-43758815D01*
X41404494Y-43679463D01*
X41294180Y-43620498D01*
X41174482Y-43584188D01*
X41050000Y-43571928D01*
X39350000Y-43571928D01*
X39225518Y-43584188D01*
X39105820Y-43620498D01*
X38995506Y-43679463D01*
X38898815Y-43758815D01*
X38819463Y-43855506D01*
X38760498Y-43965820D01*
X38724188Y-44085518D01*
X38711928Y-44210000D01*
X36633509Y-44210000D01*
X36444670Y-44021161D01*
X35816554Y-43601467D01*
X35118628Y-43312377D01*
X34377715Y-43165000D01*
X33622285Y-43165000D01*
X32881372Y-43312377D01*
X32183446Y-43601467D01*
X31555330Y-44021161D01*
X31021161Y-44555330D01*
X30601467Y-45183446D01*
X30312377Y-45881372D01*
X30165000Y-46622285D01*
X29696333Y-46622285D01*
X29731173Y-46231917D01*
X29934656Y-45488109D01*
X30266638Y-44792095D01*
X30716626Y-44165870D01*
X31270403Y-43629223D01*
X31910451Y-43199129D01*
X32616553Y-42889171D01*
X33371457Y-42707935D01*
X34024207Y-42660000D01*
X73970608Y-42660000D01*
X74768083Y-42731173D01*
G37*
%TD.AperFunction*%
D20*
X56482795Y-73709744D02*
X56404774Y-73898102D01*
X56365000Y-74098061D01*
X56365000Y-74301939D01*
X56404774Y-74501898D01*
X56482795Y-74690256D01*
X56596063Y-74859774D01*
X56740226Y-75003937D01*
X56909744Y-75117205D01*
X57098102Y-75195226D01*
X57298061Y-75235000D01*
X57501939Y-75235000D01*
X57701898Y-75195226D01*
X57890256Y-75117205D01*
X58059774Y-75003937D01*
X58203937Y-74859774D01*
X58317205Y-74690256D01*
X58350199Y-74610601D01*
X58509744Y-74717205D01*
X58698102Y-74795226D01*
X58898061Y-74835000D01*
X59101939Y-74835000D01*
X59301898Y-74795226D01*
X59490256Y-74717205D01*
X59495187Y-74713910D01*
X59495187Y-75630011D01*
X54589003Y-80536196D01*
X54559999Y-80559999D01*
X54511426Y-80619186D01*
X54465026Y-80675724D01*
X54440925Y-80720814D01*
X54394454Y-80807754D01*
X54350997Y-80951015D01*
X54340000Y-81062668D01*
X54340000Y-81062678D01*
X54336324Y-81100000D01*
X54340000Y-81137323D01*
X54340001Y-86121821D01*
X54153368Y-86246525D01*
X53946525Y-86453368D01*
X53830000Y-86627760D01*
X53713475Y-86453368D01*
X53506632Y-86246525D01*
X53263411Y-86084010D01*
X52993158Y-85972068D01*
X52706260Y-85915000D01*
X52413740Y-85915000D01*
X52126842Y-85972068D01*
X51856589Y-86084010D01*
X51613368Y-86246525D01*
X51406525Y-86453368D01*
X51290000Y-86627760D01*
X51173475Y-86453368D01*
X50966632Y-86246525D01*
X50723411Y-86084010D01*
X50453158Y-85972068D01*
X50166260Y-85915000D01*
X49873740Y-85915000D01*
X49586842Y-85972068D01*
X49316589Y-86084010D01*
X49073368Y-86246525D01*
X48866525Y-86453368D01*
X48750000Y-86627760D01*
X48633475Y-86453368D01*
X48426632Y-86246525D01*
X48240000Y-86121822D01*
X48240000Y-81907803D01*
X56572876Y-73574928D01*
X56482795Y-73709744D01*
%TA.AperFunction,Conductor*%
D21*
G36*
X56482795Y-73709744D02*
G01*
X56404774Y-73898102D01*
X56365000Y-74098061D01*
X56365000Y-74301939D01*
X56404774Y-74501898D01*
X56482795Y-74690256D01*
X56596063Y-74859774D01*
X56740226Y-75003937D01*
X56909744Y-75117205D01*
X57098102Y-75195226D01*
X57298061Y-75235000D01*
X57501939Y-75235000D01*
X57701898Y-75195226D01*
X57890256Y-75117205D01*
X58059774Y-75003937D01*
X58203937Y-74859774D01*
X58317205Y-74690256D01*
X58350199Y-74610601D01*
X58509744Y-74717205D01*
X58698102Y-74795226D01*
X58898061Y-74835000D01*
X59101939Y-74835000D01*
X59301898Y-74795226D01*
X59490256Y-74717205D01*
X59495187Y-74713910D01*
X59495187Y-75630011D01*
X54589003Y-80536196D01*
X54559999Y-80559999D01*
X54511426Y-80619186D01*
X54465026Y-80675724D01*
X54440925Y-80720814D01*
X54394454Y-80807754D01*
X54350997Y-80951015D01*
X54340000Y-81062668D01*
X54340000Y-81062678D01*
X54336324Y-81100000D01*
X54340000Y-81137323D01*
X54340001Y-86121821D01*
X54153368Y-86246525D01*
X53946525Y-86453368D01*
X53830000Y-86627760D01*
X53713475Y-86453368D01*
X53506632Y-86246525D01*
X53263411Y-86084010D01*
X52993158Y-85972068D01*
X52706260Y-85915000D01*
X52413740Y-85915000D01*
X52126842Y-85972068D01*
X51856589Y-86084010D01*
X51613368Y-86246525D01*
X51406525Y-86453368D01*
X51290000Y-86627760D01*
X51173475Y-86453368D01*
X50966632Y-86246525D01*
X50723411Y-86084010D01*
X50453158Y-85972068D01*
X50166260Y-85915000D01*
X49873740Y-85915000D01*
X49586842Y-85972068D01*
X49316589Y-86084010D01*
X49073368Y-86246525D01*
X48866525Y-86453368D01*
X48750000Y-86627760D01*
X48633475Y-86453368D01*
X48426632Y-86246525D01*
X48240000Y-86121822D01*
X48240000Y-81907803D01*
X56572876Y-73574928D01*
X56482795Y-73709744D01*
G37*
%TD.AperFunction*%
D20*
X73915000Y-58426260D02*
X73972068Y-58713158D01*
X74084010Y-58983411D01*
X74246525Y-59226632D01*
X74453368Y-59433475D01*
X74627760Y-59550000D01*
X74453368Y-59666525D01*
X74246525Y-59873368D01*
X74084010Y-60116589D01*
X73972068Y-60386842D01*
X73915000Y-60673740D01*
X73915000Y-60966260D01*
X73972068Y-61253158D01*
X74084010Y-61523411D01*
X74246525Y-61766632D01*
X74453368Y-61973475D01*
X74627760Y-62090000D01*
X74453368Y-62206525D01*
X74246525Y-62413368D01*
X74084010Y-62656589D01*
X73972068Y-62926842D01*
X73915000Y-63213740D01*
X73915000Y-63506260D01*
X73972068Y-63793158D01*
X74084010Y-64063411D01*
X74246525Y-64306632D01*
X74453368Y-64513475D01*
X74627760Y-64630000D01*
X74453368Y-64746525D01*
X74246525Y-64953368D01*
X74084010Y-65196589D01*
X73972068Y-65466842D01*
X73915000Y-65753740D01*
X73915000Y-66046260D01*
X73972068Y-66333158D01*
X74084010Y-66603411D01*
X74246525Y-66846632D01*
X74453368Y-67053475D01*
X74627760Y-67170000D01*
X74453368Y-67286525D01*
X74246525Y-67493368D01*
X74084010Y-67736589D01*
X73972068Y-68006842D01*
X73915000Y-68293740D01*
X73915000Y-68586260D01*
X73972068Y-68873158D01*
X74084010Y-69143411D01*
X74246525Y-69386632D01*
X74453368Y-69593475D01*
X74627760Y-69710000D01*
X74453368Y-69826525D01*
X74246525Y-70033368D01*
X74084010Y-70276589D01*
X73972068Y-70546842D01*
X73915000Y-70833740D01*
X73915000Y-71126260D01*
X73972068Y-71413158D01*
X74084010Y-71683411D01*
X74246525Y-71926632D01*
X74453368Y-72133475D01*
X74627760Y-72250000D01*
X74453368Y-72366525D01*
X74246525Y-72573368D01*
X74084010Y-72816589D01*
X73972068Y-73086842D01*
X73915000Y-73373740D01*
X73915000Y-73500198D01*
X71960000Y-71545199D01*
X71960000Y-68276321D01*
X71963676Y-68238998D01*
X71960000Y-68201675D01*
X71960000Y-68201665D01*
X71949003Y-68090012D01*
X71905546Y-67946751D01*
X71857214Y-67856329D01*
X71834974Y-67814721D01*
X71763799Y-67727995D01*
X71740001Y-67698997D01*
X71711004Y-67675200D01*
X68524806Y-64489003D01*
X68501003Y-64459999D01*
X68385278Y-64365026D01*
X68253249Y-64294454D01*
X68109988Y-64250997D01*
X67998335Y-64240000D01*
X67998324Y-64240000D01*
X67961002Y-64236324D01*
X67923680Y-64240000D01*
X58566104Y-64240000D01*
X58622278Y-64209974D01*
X58738003Y-64115001D01*
X58761806Y-64085997D01*
X60411004Y-62436800D01*
X60440001Y-62413003D01*
X60465000Y-62382542D01*
X60465000Y-62501939D01*
X60504774Y-62701898D01*
X60582795Y-62890256D01*
X60696063Y-63059774D01*
X60840226Y-63203937D01*
X61009744Y-63317205D01*
X61198102Y-63395226D01*
X61398061Y-63435000D01*
X61601939Y-63435000D01*
X61801898Y-63395226D01*
X61990256Y-63317205D01*
X62159774Y-63203937D01*
X62303937Y-63059774D01*
X62417205Y-62890256D01*
X62495226Y-62701898D01*
X62535000Y-62501939D01*
X62535000Y-62298061D01*
X62495226Y-62098102D01*
X62417205Y-61909744D01*
X62303937Y-61740226D01*
X62159774Y-61596063D01*
X61990256Y-61482795D01*
X61801898Y-61404774D01*
X61601939Y-61365000D01*
X61398061Y-61365000D01*
X61198102Y-61404774D01*
X61009744Y-61482795D01*
X60840226Y-61596063D01*
X60696063Y-61740226D01*
X60660000Y-61794198D01*
X60660000Y-61641799D01*
X63391800Y-58910000D01*
X72952678Y-58910000D01*
X72990000Y-58913676D01*
X73027322Y-58910000D01*
X73027333Y-58910000D01*
X73138986Y-58899003D01*
X73282247Y-58855546D01*
X73414276Y-58784974D01*
X73530001Y-58690001D01*
X73553804Y-58660997D01*
X73915000Y-58299801D01*
X73915000Y-58426260D01*
%TA.AperFunction,Conductor*%
D21*
G36*
X73915000Y-58426260D02*
G01*
X73972068Y-58713158D01*
X74084010Y-58983411D01*
X74246525Y-59226632D01*
X74453368Y-59433475D01*
X74627760Y-59550000D01*
X74453368Y-59666525D01*
X74246525Y-59873368D01*
X74084010Y-60116589D01*
X73972068Y-60386842D01*
X73915000Y-60673740D01*
X73915000Y-60966260D01*
X73972068Y-61253158D01*
X74084010Y-61523411D01*
X74246525Y-61766632D01*
X74453368Y-61973475D01*
X74627760Y-62090000D01*
X74453368Y-62206525D01*
X74246525Y-62413368D01*
X74084010Y-62656589D01*
X73972068Y-62926842D01*
X73915000Y-63213740D01*
X73915000Y-63506260D01*
X73972068Y-63793158D01*
X74084010Y-64063411D01*
X74246525Y-64306632D01*
X74453368Y-64513475D01*
X74627760Y-64630000D01*
X74453368Y-64746525D01*
X74246525Y-64953368D01*
X74084010Y-65196589D01*
X73972068Y-65466842D01*
X73915000Y-65753740D01*
X73915000Y-66046260D01*
X73972068Y-66333158D01*
X74084010Y-66603411D01*
X74246525Y-66846632D01*
X74453368Y-67053475D01*
X74627760Y-67170000D01*
X74453368Y-67286525D01*
X74246525Y-67493368D01*
X74084010Y-67736589D01*
X73972068Y-68006842D01*
X73915000Y-68293740D01*
X73915000Y-68586260D01*
X73972068Y-68873158D01*
X74084010Y-69143411D01*
X74246525Y-69386632D01*
X74453368Y-69593475D01*
X74627760Y-69710000D01*
X74453368Y-69826525D01*
X74246525Y-70033368D01*
X74084010Y-70276589D01*
X73972068Y-70546842D01*
X73915000Y-70833740D01*
X73915000Y-71126260D01*
X73972068Y-71413158D01*
X74084010Y-71683411D01*
X74246525Y-71926632D01*
X74453368Y-72133475D01*
X74627760Y-72250000D01*
X74453368Y-72366525D01*
X74246525Y-72573368D01*
X74084010Y-72816589D01*
X73972068Y-73086842D01*
X73915000Y-73373740D01*
X73915000Y-73500198D01*
X71960000Y-71545199D01*
X71960000Y-68276321D01*
X71963676Y-68238998D01*
X71960000Y-68201675D01*
X71960000Y-68201665D01*
X71949003Y-68090012D01*
X71905546Y-67946751D01*
X71857214Y-67856329D01*
X71834974Y-67814721D01*
X71763799Y-67727995D01*
X71740001Y-67698997D01*
X71711004Y-67675200D01*
X68524806Y-64489003D01*
X68501003Y-64459999D01*
X68385278Y-64365026D01*
X68253249Y-64294454D01*
X68109988Y-64250997D01*
X67998335Y-64240000D01*
X67998324Y-64240000D01*
X67961002Y-64236324D01*
X67923680Y-64240000D01*
X58566104Y-64240000D01*
X58622278Y-64209974D01*
X58738003Y-64115001D01*
X58761806Y-64085997D01*
X60411004Y-62436800D01*
X60440001Y-62413003D01*
X60465000Y-62382542D01*
X60465000Y-62501939D01*
X60504774Y-62701898D01*
X60582795Y-62890256D01*
X60696063Y-63059774D01*
X60840226Y-63203937D01*
X61009744Y-63317205D01*
X61198102Y-63395226D01*
X61398061Y-63435000D01*
X61601939Y-63435000D01*
X61801898Y-63395226D01*
X61990256Y-63317205D01*
X62159774Y-63203937D01*
X62303937Y-63059774D01*
X62417205Y-62890256D01*
X62495226Y-62701898D01*
X62535000Y-62501939D01*
X62535000Y-62298061D01*
X62495226Y-62098102D01*
X62417205Y-61909744D01*
X62303937Y-61740226D01*
X62159774Y-61596063D01*
X61990256Y-61482795D01*
X61801898Y-61404774D01*
X61601939Y-61365000D01*
X61398061Y-61365000D01*
X61198102Y-61404774D01*
X61009744Y-61482795D01*
X60840226Y-61596063D01*
X60696063Y-61740226D01*
X60660000Y-61794198D01*
X60660000Y-61641799D01*
X63391800Y-58910000D01*
X72952678Y-58910000D01*
X72990000Y-58913676D01*
X73027322Y-58910000D01*
X73027333Y-58910000D01*
X73138986Y-58899003D01*
X73282247Y-58855546D01*
X73414276Y-58784974D01*
X73530001Y-58690001D01*
X73553804Y-58660997D01*
X73915000Y-58299801D01*
X73915000Y-58426260D01*
G37*
%TD.AperFunction*%
D20*
X49709744Y-60917205D02*
X49898102Y-60995226D01*
X50098061Y-61035000D01*
X50301939Y-61035000D01*
X50501898Y-60995226D01*
X50690256Y-60917205D01*
X50700000Y-60910694D01*
X50709744Y-60917205D01*
X50898102Y-60995226D01*
X51098061Y-61035000D01*
X51165002Y-61035000D01*
X51165002Y-61928702D01*
X50538992Y-62554713D01*
X50509989Y-62578515D01*
X50454861Y-62645690D01*
X50415016Y-62694240D01*
X50367302Y-62783506D01*
X50344444Y-62826270D01*
X50300987Y-62969531D01*
X50289990Y-63081184D01*
X50289990Y-63081194D01*
X50286314Y-63118516D01*
X50289990Y-63155839D01*
X50289991Y-63873000D01*
X49190711Y-63873000D01*
X49203937Y-63859774D01*
X49317205Y-63690256D01*
X49395226Y-63501898D01*
X49435000Y-63301939D01*
X49435000Y-63098061D01*
X49395226Y-62898102D01*
X49317205Y-62709744D01*
X49203937Y-62540226D01*
X49059774Y-62396063D01*
X48890256Y-62282795D01*
X48701898Y-62204774D01*
X48501939Y-62165000D01*
X48298061Y-62165000D01*
X48098102Y-62204774D01*
X47909744Y-62282795D01*
X47740226Y-62396063D01*
X47596063Y-62540226D01*
X47482795Y-62709744D01*
X47404774Y-62898102D01*
X47365000Y-63098061D01*
X47365000Y-63301939D01*
X47404774Y-63501898D01*
X47482795Y-63690256D01*
X47596063Y-63859774D01*
X47609289Y-63873000D01*
X47127000Y-63873000D01*
X47127000Y-61036307D01*
X47195691Y-61139110D01*
X47400890Y-61344309D01*
X47642178Y-61505533D01*
X47910283Y-61616586D01*
X48194902Y-61673200D01*
X48485098Y-61673200D01*
X48769717Y-61616586D01*
X49037822Y-61505533D01*
X49279110Y-61344309D01*
X49484309Y-61139110D01*
X49645533Y-60897822D01*
X49653164Y-60879399D01*
X49709744Y-60917205D01*
%TA.AperFunction,Conductor*%
D21*
G36*
X49709744Y-60917205D02*
G01*
X49898102Y-60995226D01*
X50098061Y-61035000D01*
X50301939Y-61035000D01*
X50501898Y-60995226D01*
X50690256Y-60917205D01*
X50700000Y-60910694D01*
X50709744Y-60917205D01*
X50898102Y-60995226D01*
X51098061Y-61035000D01*
X51165002Y-61035000D01*
X51165002Y-61928702D01*
X50538992Y-62554713D01*
X50509989Y-62578515D01*
X50454861Y-62645690D01*
X50415016Y-62694240D01*
X50367302Y-62783506D01*
X50344444Y-62826270D01*
X50300987Y-62969531D01*
X50289990Y-63081184D01*
X50289990Y-63081194D01*
X50286314Y-63118516D01*
X50289990Y-63155839D01*
X50289991Y-63873000D01*
X49190711Y-63873000D01*
X49203937Y-63859774D01*
X49317205Y-63690256D01*
X49395226Y-63501898D01*
X49435000Y-63301939D01*
X49435000Y-63098061D01*
X49395226Y-62898102D01*
X49317205Y-62709744D01*
X49203937Y-62540226D01*
X49059774Y-62396063D01*
X48890256Y-62282795D01*
X48701898Y-62204774D01*
X48501939Y-62165000D01*
X48298061Y-62165000D01*
X48098102Y-62204774D01*
X47909744Y-62282795D01*
X47740226Y-62396063D01*
X47596063Y-62540226D01*
X47482795Y-62709744D01*
X47404774Y-62898102D01*
X47365000Y-63098061D01*
X47365000Y-63301939D01*
X47404774Y-63501898D01*
X47482795Y-63690256D01*
X47596063Y-63859774D01*
X47609289Y-63873000D01*
X47127000Y-63873000D01*
X47127000Y-61036307D01*
X47195691Y-61139110D01*
X47400890Y-61344309D01*
X47642178Y-61505533D01*
X47910283Y-61616586D01*
X48194902Y-61673200D01*
X48485098Y-61673200D01*
X48769717Y-61616586D01*
X49037822Y-61505533D01*
X49279110Y-61344309D01*
X49484309Y-61139110D01*
X49645533Y-60897822D01*
X49653164Y-60879399D01*
X49709744Y-60917205D01*
G37*
%TD.AperFunction*%
%TD*%
M02*
