%TF.GenerationSoftware,KiCad,Pcbnew,5.1.10-88a1d61d58~88~ubuntu20.04.1*%
%TF.CreationDate,2021-06-20T20:02:36+02:00*%
%TF.ProjectId,bluePillG,626c7565-5069-46c6-9c47-2e6b69636164,rev?*%
%TF.SameCoordinates,Original*%
%TF.FileFunction,Paste,Bot*%
%TF.FilePolarity,Positive*%
%FSLAX46Y46*%
G04 Gerber Fmt 4.6, Leading zero omitted, Abs format (unit mm)*
G04 Created by KiCad (PCBNEW 5.1.10-88a1d61d58~88~ubuntu20.04.1) date 2021-06-20 20:02:36*
%MOMM*%
%LPD*%
G01*
G04 APERTURE LIST*
G04 APERTURE END LIST*
%TO.C,R2*%
G36*
G01*
X66143750Y-68350000D02*
X66656250Y-68350000D01*
G75*
G02*
X66875000Y-68568750I0J-218750D01*
G01*
X66875000Y-69006250D01*
G75*
G02*
X66656250Y-69225000I-218750J0D01*
G01*
X66143750Y-69225000D01*
G75*
G02*
X65925000Y-69006250I0J218750D01*
G01*
X65925000Y-68568750D01*
G75*
G02*
X66143750Y-68350000I218750J0D01*
G01*
G37*
G36*
G01*
X66143750Y-66775000D02*
X66656250Y-66775000D01*
G75*
G02*
X66875000Y-66993750I0J-218750D01*
G01*
X66875000Y-67431250D01*
G75*
G02*
X66656250Y-67650000I-218750J0D01*
G01*
X66143750Y-67650000D01*
G75*
G02*
X65925000Y-67431250I0J218750D01*
G01*
X65925000Y-66993750D01*
G75*
G02*
X66143750Y-66775000I218750J0D01*
G01*
G37*
%TD*%
%TO.C,C19*%
G36*
G01*
X41643750Y-69737500D02*
X42156250Y-69737500D01*
G75*
G02*
X42375000Y-69956250I0J-218750D01*
G01*
X42375000Y-70393750D01*
G75*
G02*
X42156250Y-70612500I-218750J0D01*
G01*
X41643750Y-70612500D01*
G75*
G02*
X41425000Y-70393750I0J218750D01*
G01*
X41425000Y-69956250D01*
G75*
G02*
X41643750Y-69737500I218750J0D01*
G01*
G37*
G36*
G01*
X41643750Y-68162500D02*
X42156250Y-68162500D01*
G75*
G02*
X42375000Y-68381250I0J-218750D01*
G01*
X42375000Y-68818750D01*
G75*
G02*
X42156250Y-69037500I-218750J0D01*
G01*
X41643750Y-69037500D01*
G75*
G02*
X41425000Y-68818750I0J218750D01*
G01*
X41425000Y-68381250D01*
G75*
G02*
X41643750Y-68162500I218750J0D01*
G01*
G37*
%TD*%
%TO.C,C18*%
G36*
G01*
X42056250Y-62650000D02*
X41543750Y-62650000D01*
G75*
G02*
X41325000Y-62431250I0J218750D01*
G01*
X41325000Y-61993750D01*
G75*
G02*
X41543750Y-61775000I218750J0D01*
G01*
X42056250Y-61775000D01*
G75*
G02*
X42275000Y-61993750I0J-218750D01*
G01*
X42275000Y-62431250D01*
G75*
G02*
X42056250Y-62650000I-218750J0D01*
G01*
G37*
G36*
G01*
X42056250Y-64225000D02*
X41543750Y-64225000D01*
G75*
G02*
X41325000Y-64006250I0J218750D01*
G01*
X41325000Y-63568750D01*
G75*
G02*
X41543750Y-63350000I218750J0D01*
G01*
X42056250Y-63350000D01*
G75*
G02*
X42275000Y-63568750I0J-218750D01*
G01*
X42275000Y-64006250D01*
G75*
G02*
X42056250Y-64225000I-218750J0D01*
G01*
G37*
%TD*%
%TO.C,C15*%
G36*
G01*
X66143750Y-71150000D02*
X66656250Y-71150000D01*
G75*
G02*
X66875000Y-71368750I0J-218750D01*
G01*
X66875000Y-71806250D01*
G75*
G02*
X66656250Y-72025000I-218750J0D01*
G01*
X66143750Y-72025000D01*
G75*
G02*
X65925000Y-71806250I0J218750D01*
G01*
X65925000Y-71368750D01*
G75*
G02*
X66143750Y-71150000I218750J0D01*
G01*
G37*
G36*
G01*
X66143750Y-69575000D02*
X66656250Y-69575000D01*
G75*
G02*
X66875000Y-69793750I0J-218750D01*
G01*
X66875000Y-70231250D01*
G75*
G02*
X66656250Y-70450000I-218750J0D01*
G01*
X66143750Y-70450000D01*
G75*
G02*
X65925000Y-70231250I0J218750D01*
G01*
X65925000Y-69793750D01*
G75*
G02*
X66143750Y-69575000I218750J0D01*
G01*
G37*
%TD*%
%TO.C,C5*%
G36*
G01*
X52950000Y-63856250D02*
X52950000Y-63343750D01*
G75*
G02*
X53168750Y-63125000I218750J0D01*
G01*
X53606250Y-63125000D01*
G75*
G02*
X53825000Y-63343750I0J-218750D01*
G01*
X53825000Y-63856250D01*
G75*
G02*
X53606250Y-64075000I-218750J0D01*
G01*
X53168750Y-64075000D01*
G75*
G02*
X52950000Y-63856250I0J218750D01*
G01*
G37*
G36*
G01*
X51375000Y-63856250D02*
X51375000Y-63343750D01*
G75*
G02*
X51593750Y-63125000I218750J0D01*
G01*
X52031250Y-63125000D01*
G75*
G02*
X52250000Y-63343750I0J-218750D01*
G01*
X52250000Y-63856250D01*
G75*
G02*
X52031250Y-64075000I-218750J0D01*
G01*
X51593750Y-64075000D01*
G75*
G02*
X51375000Y-63856250I0J218750D01*
G01*
G37*
%TD*%
M02*
