%TF.GenerationSoftware,KiCad,Pcbnew,5.1.10-88a1d61d58~88~ubuntu20.04.1*%
%TF.CreationDate,2021-06-20T20:02:36+02:00*%
%TF.ProjectId,bluePillG,626c7565-5069-46c6-9c47-2e6b69636164,rev?*%
%TF.SameCoordinates,Original*%
%TF.FileFunction,Copper,L1,Top*%
%TF.FilePolarity,Positive*%
%FSLAX46Y46*%
G04 Gerber Fmt 4.6, Leading zero omitted, Abs format (unit mm)*
G04 Created by KiCad (PCBNEW 5.1.10-88a1d61d58~88~ubuntu20.04.1) date 2021-06-20 20:02:36*
%MOMM*%
%LPD*%
G01*
G04 APERTURE LIST*
%TA.AperFunction,SMDPad,CuDef*%
%ADD10R,0.900000X1.200000*%
%TD*%
%TA.AperFunction,ComponentPad*%
%ADD11C,0.800000*%
%TD*%
%TA.AperFunction,ComponentPad*%
%ADD12C,6.400000*%
%TD*%
%TA.AperFunction,ComponentPad*%
%ADD13C,1.320800*%
%TD*%
%TA.AperFunction,ComponentPad*%
%ADD14C,1.676400*%
%TD*%
%TA.AperFunction,SMDPad,CuDef*%
%ADD15R,2.000000X1.500000*%
%TD*%
%TA.AperFunction,SMDPad,CuDef*%
%ADD16R,2.000000X3.800000*%
%TD*%
%TA.AperFunction,ComponentPad*%
%ADD17C,2.000000*%
%TD*%
%TA.AperFunction,ComponentPad*%
%ADD18O,1.700000X1.700000*%
%TD*%
%TA.AperFunction,ComponentPad*%
%ADD19R,1.700000X1.700000*%
%TD*%
%TA.AperFunction,SMDPad,CuDef*%
%ADD20R,0.300000X1.475000*%
%TD*%
%TA.AperFunction,SMDPad,CuDef*%
%ADD21R,1.475000X0.300000*%
%TD*%
%TA.AperFunction,SMDPad,CuDef*%
%ADD22R,1.099820X0.998220*%
%TD*%
%TA.AperFunction,SMDPad,CuDef*%
%ADD23R,0.998220X1.099820*%
%TD*%
%TA.AperFunction,SMDPad,CuDef*%
%ADD24R,1.597660X1.798320*%
%TD*%
%TA.AperFunction,ViaPad*%
%ADD25C,0.800000*%
%TD*%
%TA.AperFunction,Conductor*%
%ADD26C,1.000000*%
%TD*%
%TA.AperFunction,Conductor*%
%ADD27C,0.250000*%
%TD*%
%TA.AperFunction,Conductor*%
%ADD28C,0.762000*%
%TD*%
G04 APERTURE END LIST*
D10*
%TO.P,D1,2*%
%TO.N,VCC*%
X43950000Y-43600000D03*
%TO.P,D1,1*%
%TO.N,Net-(D1-Pad1)*%
X47250000Y-43600000D03*
%TD*%
%TO.P,C7,2*%
%TO.N,GND*%
%TA.AperFunction,SMDPad,CuDef*%
G36*
G01*
X51856250Y-58050000D02*
X51343750Y-58050000D01*
G75*
G02*
X51125000Y-57831250I0J218750D01*
G01*
X51125000Y-57393750D01*
G75*
G02*
X51343750Y-57175000I218750J0D01*
G01*
X51856250Y-57175000D01*
G75*
G02*
X52075000Y-57393750I0J-218750D01*
G01*
X52075000Y-57831250D01*
G75*
G02*
X51856250Y-58050000I-218750J0D01*
G01*
G37*
%TD.AperFunction*%
%TO.P,C7,1*%
%TO.N,+3V3*%
%TA.AperFunction,SMDPad,CuDef*%
G36*
G01*
X51856250Y-59625000D02*
X51343750Y-59625000D01*
G75*
G02*
X51125000Y-59406250I0J218750D01*
G01*
X51125000Y-58968750D01*
G75*
G02*
X51343750Y-58750000I218750J0D01*
G01*
X51856250Y-58750000D01*
G75*
G02*
X52075000Y-58968750I0J-218750D01*
G01*
X52075000Y-59406250D01*
G75*
G02*
X51856250Y-59625000I-218750J0D01*
G01*
G37*
%TD.AperFunction*%
%TD*%
D11*
%TO.P,H4,1*%
%TO.N,GND*%
X75697056Y-85302944D03*
X74000000Y-84600000D03*
X72302944Y-85302944D03*
X71600000Y-87000000D03*
X72302944Y-88697056D03*
X74000000Y-89400000D03*
X75697056Y-88697056D03*
X76400000Y-87000000D03*
D12*
X74000000Y-87000000D03*
%TD*%
D11*
%TO.P,H3,1*%
%TO.N,VCC*%
X75697056Y-45302944D03*
X74000000Y-44600000D03*
X72302944Y-45302944D03*
X71600000Y-47000000D03*
X72302944Y-48697056D03*
X74000000Y-49400000D03*
X75697056Y-48697056D03*
X76400000Y-47000000D03*
D12*
X74000000Y-47000000D03*
%TD*%
D13*
%TO.P,Y2,2*%
%TO.N,Net-(C19-Pad1)*%
X43700000Y-68626000D03*
%TO.P,Y2,1*%
%TO.N,OSC_IN*%
X43700000Y-63800000D03*
%TD*%
D14*
%TO.P,Y1,2*%
%TO.N,OSC32_OUT*%
X45800000Y-60200000D03*
%TO.P,Y1,1*%
%TO.N,OSC32_IN*%
X48340000Y-60200000D03*
%TD*%
D15*
%TO.P,U1,1*%
%TO.N,GND*%
X51600000Y-50600000D03*
%TO.P,U1,3*%
%TO.N,Net-(C13-Pad1)*%
X51600000Y-46000000D03*
%TO.P,U1,2*%
%TO.N,+3.3VP*%
X51600000Y-48300000D03*
D16*
X45300000Y-48300000D03*
%TD*%
D17*
%TO.P,SW1,1*%
%TO.N,NRST*%
X69600000Y-68600000D03*
%TO.P,SW1,2*%
%TO.N,GND*%
X69600000Y-73100000D03*
%TO.P,SW1,1*%
%TO.N,NRST*%
X63100000Y-68600000D03*
%TO.P,SW1,2*%
%TO.N,GND*%
X63100000Y-73100000D03*
%TD*%
%TO.P,R5,2*%
%TO.N,Net-(D3-Pad2)*%
%TA.AperFunction,SMDPad,CuDef*%
G36*
G01*
X43543750Y-57550000D02*
X44056250Y-57550000D01*
G75*
G02*
X44275000Y-57768750I0J-218750D01*
G01*
X44275000Y-58206250D01*
G75*
G02*
X44056250Y-58425000I-218750J0D01*
G01*
X43543750Y-58425000D01*
G75*
G02*
X43325000Y-58206250I0J218750D01*
G01*
X43325000Y-57768750D01*
G75*
G02*
X43543750Y-57550000I218750J0D01*
G01*
G37*
%TD.AperFunction*%
%TO.P,R5,1*%
%TO.N,+3V3*%
%TA.AperFunction,SMDPad,CuDef*%
G36*
G01*
X43543750Y-55975000D02*
X44056250Y-55975000D01*
G75*
G02*
X44275000Y-56193750I0J-218750D01*
G01*
X44275000Y-56631250D01*
G75*
G02*
X44056250Y-56850000I-218750J0D01*
G01*
X43543750Y-56850000D01*
G75*
G02*
X43325000Y-56631250I0J218750D01*
G01*
X43325000Y-56193750D01*
G75*
G02*
X43543750Y-55975000I218750J0D01*
G01*
G37*
%TD.AperFunction*%
%TD*%
%TO.P,R4,2*%
%TO.N,Net-(J2-Pad2)*%
%TA.AperFunction,SMDPad,CuDef*%
G36*
G01*
X40650000Y-54343750D02*
X40650000Y-54856250D01*
G75*
G02*
X40431250Y-55075000I-218750J0D01*
G01*
X39993750Y-55075000D01*
G75*
G02*
X39775000Y-54856250I0J218750D01*
G01*
X39775000Y-54343750D01*
G75*
G02*
X39993750Y-54125000I218750J0D01*
G01*
X40431250Y-54125000D01*
G75*
G02*
X40650000Y-54343750I0J-218750D01*
G01*
G37*
%TD.AperFunction*%
%TO.P,R4,1*%
%TO.N,BOOT0*%
%TA.AperFunction,SMDPad,CuDef*%
G36*
G01*
X42225000Y-54343750D02*
X42225000Y-54856250D01*
G75*
G02*
X42006250Y-55075000I-218750J0D01*
G01*
X41568750Y-55075000D01*
G75*
G02*
X41350000Y-54856250I0J218750D01*
G01*
X41350000Y-54343750D01*
G75*
G02*
X41568750Y-54125000I218750J0D01*
G01*
X42006250Y-54125000D01*
G75*
G02*
X42225000Y-54343750I0J-218750D01*
G01*
G37*
%TD.AperFunction*%
%TD*%
%TO.P,R3,2*%
%TO.N,Net-(C19-Pad1)*%
%TA.AperFunction,SMDPad,CuDef*%
G36*
G01*
X47043750Y-67562500D02*
X47556250Y-67562500D01*
G75*
G02*
X47775000Y-67781250I0J-218750D01*
G01*
X47775000Y-68218750D01*
G75*
G02*
X47556250Y-68437500I-218750J0D01*
G01*
X47043750Y-68437500D01*
G75*
G02*
X46825000Y-68218750I0J218750D01*
G01*
X46825000Y-67781250D01*
G75*
G02*
X47043750Y-67562500I218750J0D01*
G01*
G37*
%TD.AperFunction*%
%TO.P,R3,1*%
%TO.N,OSC_OUT*%
%TA.AperFunction,SMDPad,CuDef*%
G36*
G01*
X47043750Y-65987500D02*
X47556250Y-65987500D01*
G75*
G02*
X47775000Y-66206250I0J-218750D01*
G01*
X47775000Y-66643750D01*
G75*
G02*
X47556250Y-66862500I-218750J0D01*
G01*
X47043750Y-66862500D01*
G75*
G02*
X46825000Y-66643750I0J218750D01*
G01*
X46825000Y-66206250D01*
G75*
G02*
X47043750Y-65987500I218750J0D01*
G01*
G37*
%TD.AperFunction*%
%TD*%
%TO.P,R1,2*%
%TO.N,GND*%
%TA.AperFunction,SMDPad,CuDef*%
G36*
G01*
X61937500Y-45256250D02*
X61937500Y-44743750D01*
G75*
G02*
X62156250Y-44525000I218750J0D01*
G01*
X62593750Y-44525000D01*
G75*
G02*
X62812500Y-44743750I0J-218750D01*
G01*
X62812500Y-45256250D01*
G75*
G02*
X62593750Y-45475000I-218750J0D01*
G01*
X62156250Y-45475000D01*
G75*
G02*
X61937500Y-45256250I0J218750D01*
G01*
G37*
%TD.AperFunction*%
%TO.P,R1,1*%
%TO.N,Net-(D2-Pad1)*%
%TA.AperFunction,SMDPad,CuDef*%
G36*
G01*
X60362500Y-45256250D02*
X60362500Y-44743750D01*
G75*
G02*
X60581250Y-44525000I218750J0D01*
G01*
X61018750Y-44525000D01*
G75*
G02*
X61237500Y-44743750I0J-218750D01*
G01*
X61237500Y-45256250D01*
G75*
G02*
X61018750Y-45475000I-218750J0D01*
G01*
X60581250Y-45475000D01*
G75*
G02*
X60362500Y-45256250I0J218750D01*
G01*
G37*
%TD.AperFunction*%
%TD*%
D18*
%TO.P,J10,4*%
%TO.N,+3V3*%
X38460000Y-81940000D03*
%TO.P,J10,3*%
X41000000Y-81940000D03*
%TO.P,J10,2*%
X38460000Y-79400000D03*
D19*
%TO.P,J10,1*%
X41000000Y-79400000D03*
%TD*%
D18*
%TO.P,J9,4*%
%TO.N,GND*%
X68200000Y-81940000D03*
%TO.P,J9,3*%
X70740000Y-81940000D03*
%TO.P,J9,2*%
X68200000Y-79400000D03*
D19*
%TO.P,J9,1*%
X70740000Y-79400000D03*
%TD*%
D18*
%TO.P,J8,10*%
%TO.N,PB9*%
X75400000Y-55740000D03*
%TO.P,J8,9*%
%TO.N,PB7*%
X75400000Y-58280000D03*
%TO.P,J8,8*%
%TO.N,PB6*%
X75400000Y-60820000D03*
%TO.P,J8,7*%
%TO.N,PB5*%
X75400000Y-63360000D03*
%TO.P,J8,6*%
%TO.N,PB4*%
X75400000Y-65900000D03*
%TO.P,J8,5*%
%TO.N,PB3*%
X75400000Y-68440000D03*
%TO.P,J8,4*%
%TO.N,PA15*%
X75400000Y-70980000D03*
%TO.P,J8,3*%
%TO.N,PA12*%
X75400000Y-73520000D03*
%TO.P,J8,2*%
%TO.N,PA11*%
X75400000Y-76060000D03*
D19*
%TO.P,J8,1*%
%TO.N,PA10*%
X75400000Y-78600000D03*
%TD*%
D18*
%TO.P,J7,10*%
%TO.N,PA9*%
X65260000Y-87400000D03*
%TO.P,J7,9*%
%TO.N,PA8*%
X62720000Y-87400000D03*
%TO.P,J7,8*%
%TO.N,PB15*%
X60180000Y-87400000D03*
%TO.P,J7,7*%
%TO.N,PB14*%
X57640000Y-87400000D03*
%TO.P,J7,6*%
%TO.N,PB13*%
X55100000Y-87400000D03*
%TO.P,J7,5*%
%TO.N,PB12*%
X52560000Y-87400000D03*
%TO.P,J7,4*%
%TO.N,PB11*%
X50020000Y-87400000D03*
%TO.P,J7,3*%
%TO.N,PB10*%
X47480000Y-87400000D03*
%TO.P,J7,2*%
%TO.N,PB2*%
X44940000Y-87400000D03*
D19*
%TO.P,J7,1*%
%TO.N,PB1*%
X42400000Y-87400000D03*
%TD*%
D18*
%TO.P,J6,10*%
%TO.N,PB0*%
X32400000Y-78540000D03*
%TO.P,J6,9*%
%TO.N,PA7*%
X32400000Y-76000000D03*
%TO.P,J6,8*%
%TO.N,PA6*%
X32400000Y-73460000D03*
%TO.P,J6,7*%
%TO.N,PA5*%
X32400000Y-70920000D03*
%TO.P,J6,6*%
%TO.N,PA4*%
X32400000Y-68380000D03*
%TO.P,J6,5*%
%TO.N,PA3*%
X32400000Y-65840000D03*
%TO.P,J6,4*%
%TO.N,PA2*%
X32400000Y-63300000D03*
%TO.P,J6,3*%
%TO.N,PA1*%
X32400000Y-60760000D03*
%TO.P,J6,2*%
%TO.N,PA0*%
X32400000Y-58220000D03*
D19*
%TO.P,J6,1*%
%TO.N,PC13*%
X32400000Y-55680000D03*
%TD*%
D18*
%TO.P,J5,2*%
%TO.N,+5V*%
X68600000Y-48140000D03*
D19*
%TO.P,J5,1*%
%TO.N,VCC*%
X68600000Y-45600000D03*
%TD*%
D18*
%TO.P,J4,2*%
%TO.N,GND*%
X40200000Y-47600000D03*
D19*
%TO.P,J4,1*%
%TO.N,VCC*%
X40200000Y-45060000D03*
%TD*%
D18*
%TO.P,J3,3*%
%TO.N,+3V3S*%
X61980000Y-48100000D03*
%TO.P,J3,2*%
%TO.N,+3V3*%
X59440000Y-48100000D03*
D19*
%TO.P,J3,1*%
%TO.N,+3.3VP*%
X56900000Y-48100000D03*
%TD*%
D18*
%TO.P,J2,3*%
%TO.N,GND*%
X42880000Y-52200000D03*
%TO.P,J2,2*%
%TO.N,Net-(J2-Pad2)*%
X40340000Y-52200000D03*
D19*
%TO.P,J2,1*%
%TO.N,+3V3*%
X37800000Y-52200000D03*
%TD*%
D18*
%TO.P,J1,10*%
%TO.N,+5V*%
X68760000Y-55340000D03*
%TO.P,J1,9*%
X68760000Y-52800000D03*
%TO.P,J1,8*%
%TO.N,+3V3S*%
X66220000Y-55340000D03*
%TO.P,J1,7*%
X66220000Y-52800000D03*
%TO.P,J1,6*%
%TO.N,GND*%
X63680000Y-55340000D03*
%TO.P,J1,5*%
X63680000Y-52800000D03*
%TO.P,J1,4*%
%TO.N,SWDIO*%
X61140000Y-55340000D03*
%TO.P,J1,3*%
%TO.N,SWIW*%
X61140000Y-52800000D03*
%TO.P,J1,2*%
%TO.N,SWCLK*%
X58600000Y-55340000D03*
D19*
%TO.P,J1,1*%
%TO.N,NRST*%
X58600000Y-52800000D03*
%TD*%
D20*
%TO.P,IC1,48*%
%TO.N,+3V3*%
X51488000Y-62012000D03*
%TO.P,IC1,47*%
%TO.N,GND*%
X51988000Y-62012000D03*
%TO.P,IC1,46*%
%TO.N,PB9*%
X52488000Y-62012000D03*
%TO.P,IC1,45*%
%TO.N,BOOT0*%
X52988000Y-62012000D03*
%TO.P,IC1,44*%
%TO.N,PB7*%
X53488000Y-62012000D03*
%TO.P,IC1,43*%
%TO.N,PB6*%
X53988000Y-62012000D03*
%TO.P,IC1,42*%
%TO.N,PB5*%
X54488000Y-62012000D03*
%TO.P,IC1,41*%
%TO.N,PB4*%
X54988000Y-62012000D03*
%TO.P,IC1,40*%
%TO.N,PB3*%
X55488000Y-62012000D03*
%TO.P,IC1,39*%
%TO.N,PA15*%
X55988000Y-62012000D03*
%TO.P,IC1,38*%
%TO.N,SWCLK*%
X56488000Y-62012000D03*
%TO.P,IC1,37*%
%TO.N,SWDIO*%
X56988000Y-62012000D03*
D21*
%TO.P,IC1,36*%
%TO.N,+3V3*%
X58476000Y-63500000D03*
%TO.P,IC1,35*%
%TO.N,GND*%
X58476000Y-64000000D03*
%TO.P,IC1,34*%
%TO.N,PA12*%
X58476000Y-64500000D03*
%TO.P,IC1,33*%
%TO.N,PA11*%
X58476000Y-65000000D03*
%TO.P,IC1,32*%
%TO.N,PA10*%
X58476000Y-65500000D03*
%TO.P,IC1,31*%
%TO.N,PA9*%
X58476000Y-66000000D03*
%TO.P,IC1,30*%
%TO.N,PA8*%
X58476000Y-66500000D03*
%TO.P,IC1,29*%
%TO.N,PB15*%
X58476000Y-67000000D03*
%TO.P,IC1,28*%
%TO.N,PB14*%
X58476000Y-67500000D03*
%TO.P,IC1,27*%
%TO.N,PB13*%
X58476000Y-68000000D03*
%TO.P,IC1,26*%
%TO.N,PB12*%
X58476000Y-68500000D03*
%TO.P,IC1,25*%
%TO.N,PB11*%
X58476000Y-69000000D03*
D20*
%TO.P,IC1,24*%
%TO.N,+3V3*%
X56988000Y-70488000D03*
%TO.P,IC1,23*%
%TO.N,GND*%
X56488000Y-70488000D03*
%TO.P,IC1,22*%
%TO.N,PB10*%
X55988000Y-70488000D03*
%TO.P,IC1,21*%
%TO.N,+3.3VA*%
X55488000Y-70488000D03*
%TO.P,IC1,20*%
X54988000Y-70488000D03*
%TO.P,IC1,19*%
%TO.N,GND*%
X54488000Y-70488000D03*
%TO.P,IC1,18*%
%TO.N,PB2*%
X53988000Y-70488000D03*
%TO.P,IC1,17*%
%TO.N,PB1*%
X53488000Y-70488000D03*
%TO.P,IC1,16*%
%TO.N,PB0*%
X52988000Y-70488000D03*
%TO.P,IC1,15*%
%TO.N,PA7*%
X52488000Y-70488000D03*
%TO.P,IC1,14*%
%TO.N,PA6*%
X51988000Y-70488000D03*
%TO.P,IC1,13*%
%TO.N,PA5*%
X51488000Y-70488000D03*
D21*
%TO.P,IC1,12*%
%TO.N,PA4*%
X50000000Y-69000000D03*
%TO.P,IC1,11*%
%TO.N,PA3*%
X50000000Y-68500000D03*
%TO.P,IC1,10*%
%TO.N,PA2*%
X50000000Y-68000000D03*
%TO.P,IC1,9*%
%TO.N,PA1*%
X50000000Y-67500000D03*
%TO.P,IC1,8*%
%TO.N,PA0*%
X50000000Y-67000000D03*
%TO.P,IC1,7*%
%TO.N,NRST*%
X50000000Y-66500000D03*
%TO.P,IC1,6*%
%TO.N,OSC_OUT*%
X50000000Y-66000000D03*
%TO.P,IC1,5*%
%TO.N,OSC_IN*%
X50000000Y-65500000D03*
%TO.P,IC1,4*%
%TO.N,OSC32_OUT*%
X50000000Y-65000000D03*
%TO.P,IC1,3*%
%TO.N,OSC32_IN*%
X50000000Y-64500000D03*
%TO.P,IC1,2*%
%TO.N,PC13*%
X50000000Y-64000000D03*
%TO.P,IC1,1*%
%TO.N,+3V3*%
X50000000Y-63500000D03*
%TD*%
D11*
%TO.P,H2,1*%
%TO.N,GND*%
X35697056Y-85302944D03*
X34000000Y-84600000D03*
X32302944Y-85302944D03*
X31600000Y-87000000D03*
X32302944Y-88697056D03*
X34000000Y-89400000D03*
X35697056Y-88697056D03*
X36400000Y-87000000D03*
D12*
X34000000Y-87000000D03*
%TD*%
D11*
%TO.P,H1,1*%
%TO.N,VCC*%
X35697056Y-45302944D03*
X34000000Y-44600000D03*
X32302944Y-45302944D03*
X31600000Y-47000000D03*
X32302944Y-48697056D03*
X34000000Y-49400000D03*
X35697056Y-48697056D03*
X36400000Y-47000000D03*
D12*
X34000000Y-47000000D03*
%TD*%
D22*
%TO.P,FB2,2*%
%TO.N,+3V3*%
X57496720Y-73200000D03*
%TO.P,FB2,1*%
%TO.N,+3.3VA*%
X55800000Y-73200000D03*
%TD*%
D23*
%TO.P,FB1,2*%
%TO.N,Net-(F1-Pad1)*%
X53600000Y-43551640D03*
%TO.P,FB1,1*%
%TO.N,Net-(C13-Pad1)*%
X53600000Y-45248360D03*
%TD*%
D24*
%TO.P,F1,2*%
%TO.N,Net-(D1-Pad1)*%
X49000000Y-43600000D03*
%TO.P,F1,1*%
%TO.N,Net-(F1-Pad1)*%
X51799080Y-43600000D03*
%TD*%
%TO.P,D3,2*%
%TO.N,Net-(D3-Pad2)*%
%TA.AperFunction,SMDPad,CuDef*%
G36*
G01*
X41712500Y-58456250D02*
X41712500Y-57543750D01*
G75*
G02*
X41956250Y-57300000I243750J0D01*
G01*
X42443750Y-57300000D01*
G75*
G02*
X42687500Y-57543750I0J-243750D01*
G01*
X42687500Y-58456250D01*
G75*
G02*
X42443750Y-58700000I-243750J0D01*
G01*
X41956250Y-58700000D01*
G75*
G02*
X41712500Y-58456250I0J243750D01*
G01*
G37*
%TD.AperFunction*%
%TO.P,D3,1*%
%TO.N,PC13*%
%TA.AperFunction,SMDPad,CuDef*%
G36*
G01*
X39837500Y-58456250D02*
X39837500Y-57543750D01*
G75*
G02*
X40081250Y-57300000I243750J0D01*
G01*
X40568750Y-57300000D01*
G75*
G02*
X40812500Y-57543750I0J-243750D01*
G01*
X40812500Y-58456250D01*
G75*
G02*
X40568750Y-58700000I-243750J0D01*
G01*
X40081250Y-58700000D01*
G75*
G02*
X39837500Y-58456250I0J243750D01*
G01*
G37*
%TD.AperFunction*%
%TD*%
%TO.P,D2,2*%
%TO.N,+3.3VP*%
%TA.AperFunction,SMDPad,CuDef*%
G36*
G01*
X57412500Y-44543750D02*
X57412500Y-45456250D01*
G75*
G02*
X57168750Y-45700000I-243750J0D01*
G01*
X56681250Y-45700000D01*
G75*
G02*
X56437500Y-45456250I0J243750D01*
G01*
X56437500Y-44543750D01*
G75*
G02*
X56681250Y-44300000I243750J0D01*
G01*
X57168750Y-44300000D01*
G75*
G02*
X57412500Y-44543750I0J-243750D01*
G01*
G37*
%TD.AperFunction*%
%TO.P,D2,1*%
%TO.N,Net-(D2-Pad1)*%
%TA.AperFunction,SMDPad,CuDef*%
G36*
G01*
X59287500Y-44543750D02*
X59287500Y-45456250D01*
G75*
G02*
X59043750Y-45700000I-243750J0D01*
G01*
X58556250Y-45700000D01*
G75*
G02*
X58312500Y-45456250I0J243750D01*
G01*
X58312500Y-44543750D01*
G75*
G02*
X58556250Y-44300000I243750J0D01*
G01*
X59043750Y-44300000D01*
G75*
G02*
X59287500Y-44543750I0J-243750D01*
G01*
G37*
%TD.AperFunction*%
%TD*%
%TO.P,C17,2*%
%TO.N,GND*%
%TA.AperFunction,SMDPad,CuDef*%
G36*
G01*
X46056250Y-57237500D02*
X45543750Y-57237500D01*
G75*
G02*
X45325000Y-57018750I0J218750D01*
G01*
X45325000Y-56581250D01*
G75*
G02*
X45543750Y-56362500I218750J0D01*
G01*
X46056250Y-56362500D01*
G75*
G02*
X46275000Y-56581250I0J-218750D01*
G01*
X46275000Y-57018750D01*
G75*
G02*
X46056250Y-57237500I-218750J0D01*
G01*
G37*
%TD.AperFunction*%
%TO.P,C17,1*%
%TO.N,OSC32_OUT*%
%TA.AperFunction,SMDPad,CuDef*%
G36*
G01*
X46056250Y-58812500D02*
X45543750Y-58812500D01*
G75*
G02*
X45325000Y-58593750I0J218750D01*
G01*
X45325000Y-58156250D01*
G75*
G02*
X45543750Y-57937500I218750J0D01*
G01*
X46056250Y-57937500D01*
G75*
G02*
X46275000Y-58156250I0J-218750D01*
G01*
X46275000Y-58593750D01*
G75*
G02*
X46056250Y-58812500I-218750J0D01*
G01*
G37*
%TD.AperFunction*%
%TD*%
%TO.P,C16,2*%
%TO.N,GND*%
%TA.AperFunction,SMDPad,CuDef*%
G36*
G01*
X48456250Y-57237500D02*
X47943750Y-57237500D01*
G75*
G02*
X47725000Y-57018750I0J218750D01*
G01*
X47725000Y-56581250D01*
G75*
G02*
X47943750Y-56362500I218750J0D01*
G01*
X48456250Y-56362500D01*
G75*
G02*
X48675000Y-56581250I0J-218750D01*
G01*
X48675000Y-57018750D01*
G75*
G02*
X48456250Y-57237500I-218750J0D01*
G01*
G37*
%TD.AperFunction*%
%TO.P,C16,1*%
%TO.N,OSC32_IN*%
%TA.AperFunction,SMDPad,CuDef*%
G36*
G01*
X48456250Y-58812500D02*
X47943750Y-58812500D01*
G75*
G02*
X47725000Y-58593750I0J218750D01*
G01*
X47725000Y-58156250D01*
G75*
G02*
X47943750Y-57937500I218750J0D01*
G01*
X48456250Y-57937500D01*
G75*
G02*
X48675000Y-58156250I0J-218750D01*
G01*
X48675000Y-58593750D01*
G75*
G02*
X48456250Y-58812500I-218750J0D01*
G01*
G37*
%TD.AperFunction*%
%TD*%
%TO.P,C14,2*%
%TO.N,GND*%
%TA.AperFunction,SMDPad,CuDef*%
G36*
G01*
X42743750Y-49437500D02*
X43256250Y-49437500D01*
G75*
G02*
X43475000Y-49656250I0J-218750D01*
G01*
X43475000Y-50093750D01*
G75*
G02*
X43256250Y-50312500I-218750J0D01*
G01*
X42743750Y-50312500D01*
G75*
G02*
X42525000Y-50093750I0J218750D01*
G01*
X42525000Y-49656250D01*
G75*
G02*
X42743750Y-49437500I218750J0D01*
G01*
G37*
%TD.AperFunction*%
%TO.P,C14,1*%
%TO.N,+3.3VP*%
%TA.AperFunction,SMDPad,CuDef*%
G36*
G01*
X42743750Y-47862500D02*
X43256250Y-47862500D01*
G75*
G02*
X43475000Y-48081250I0J-218750D01*
G01*
X43475000Y-48518750D01*
G75*
G02*
X43256250Y-48737500I-218750J0D01*
G01*
X42743750Y-48737500D01*
G75*
G02*
X42525000Y-48518750I0J218750D01*
G01*
X42525000Y-48081250D01*
G75*
G02*
X42743750Y-47862500I218750J0D01*
G01*
G37*
%TD.AperFunction*%
%TD*%
%TO.P,C13,2*%
%TO.N,GND*%
%TA.AperFunction,SMDPad,CuDef*%
G36*
G01*
X55456250Y-44262500D02*
X54943750Y-44262500D01*
G75*
G02*
X54725000Y-44043750I0J218750D01*
G01*
X54725000Y-43606250D01*
G75*
G02*
X54943750Y-43387500I218750J0D01*
G01*
X55456250Y-43387500D01*
G75*
G02*
X55675000Y-43606250I0J-218750D01*
G01*
X55675000Y-44043750D01*
G75*
G02*
X55456250Y-44262500I-218750J0D01*
G01*
G37*
%TD.AperFunction*%
%TO.P,C13,1*%
%TO.N,Net-(C13-Pad1)*%
%TA.AperFunction,SMDPad,CuDef*%
G36*
G01*
X55456250Y-45837500D02*
X54943750Y-45837500D01*
G75*
G02*
X54725000Y-45618750I0J218750D01*
G01*
X54725000Y-45181250D01*
G75*
G02*
X54943750Y-44962500I218750J0D01*
G01*
X55456250Y-44962500D01*
G75*
G02*
X55675000Y-45181250I0J-218750D01*
G01*
X55675000Y-45618750D01*
G75*
G02*
X55456250Y-45837500I-218750J0D01*
G01*
G37*
%TD.AperFunction*%
%TD*%
%TO.P,C12,2*%
%TO.N,GND*%
%TA.AperFunction,SMDPad,CuDef*%
G36*
G01*
X59456250Y-61250000D02*
X58943750Y-61250000D01*
G75*
G02*
X58725000Y-61031250I0J218750D01*
G01*
X58725000Y-60593750D01*
G75*
G02*
X58943750Y-60375000I218750J0D01*
G01*
X59456250Y-60375000D01*
G75*
G02*
X59675000Y-60593750I0J-218750D01*
G01*
X59675000Y-61031250D01*
G75*
G02*
X59456250Y-61250000I-218750J0D01*
G01*
G37*
%TD.AperFunction*%
%TO.P,C12,1*%
%TO.N,+3V3*%
%TA.AperFunction,SMDPad,CuDef*%
G36*
G01*
X59456250Y-62825000D02*
X58943750Y-62825000D01*
G75*
G02*
X58725000Y-62606250I0J218750D01*
G01*
X58725000Y-62168750D01*
G75*
G02*
X58943750Y-61950000I218750J0D01*
G01*
X59456250Y-61950000D01*
G75*
G02*
X59675000Y-62168750I0J-218750D01*
G01*
X59675000Y-62606250D01*
G75*
G02*
X59456250Y-62825000I-218750J0D01*
G01*
G37*
%TD.AperFunction*%
%TD*%
%TO.P,C11,2*%
%TO.N,GND*%
%TA.AperFunction,SMDPad,CuDef*%
G36*
G01*
X60856250Y-61262500D02*
X60343750Y-61262500D01*
G75*
G02*
X60125000Y-61043750I0J218750D01*
G01*
X60125000Y-60606250D01*
G75*
G02*
X60343750Y-60387500I218750J0D01*
G01*
X60856250Y-60387500D01*
G75*
G02*
X61075000Y-60606250I0J-218750D01*
G01*
X61075000Y-61043750D01*
G75*
G02*
X60856250Y-61262500I-218750J0D01*
G01*
G37*
%TD.AperFunction*%
%TO.P,C11,1*%
%TO.N,+3V3*%
%TA.AperFunction,SMDPad,CuDef*%
G36*
G01*
X60856250Y-62837500D02*
X60343750Y-62837500D01*
G75*
G02*
X60125000Y-62618750I0J218750D01*
G01*
X60125000Y-62181250D01*
G75*
G02*
X60343750Y-61962500I218750J0D01*
G01*
X60856250Y-61962500D01*
G75*
G02*
X61075000Y-62181250I0J-218750D01*
G01*
X61075000Y-62618750D01*
G75*
G02*
X60856250Y-62837500I-218750J0D01*
G01*
G37*
%TD.AperFunction*%
%TD*%
%TO.P,C10,2*%
%TO.N,GND*%
%TA.AperFunction,SMDPad,CuDef*%
G36*
G01*
X59850000Y-71456250D02*
X59850000Y-70943750D01*
G75*
G02*
X60068750Y-70725000I218750J0D01*
G01*
X60506250Y-70725000D01*
G75*
G02*
X60725000Y-70943750I0J-218750D01*
G01*
X60725000Y-71456250D01*
G75*
G02*
X60506250Y-71675000I-218750J0D01*
G01*
X60068750Y-71675000D01*
G75*
G02*
X59850000Y-71456250I0J218750D01*
G01*
G37*
%TD.AperFunction*%
%TO.P,C10,1*%
%TO.N,+3V3*%
%TA.AperFunction,SMDPad,CuDef*%
G36*
G01*
X58275000Y-71456250D02*
X58275000Y-70943750D01*
G75*
G02*
X58493750Y-70725000I218750J0D01*
G01*
X58931250Y-70725000D01*
G75*
G02*
X59150000Y-70943750I0J-218750D01*
G01*
X59150000Y-71456250D01*
G75*
G02*
X58931250Y-71675000I-218750J0D01*
G01*
X58493750Y-71675000D01*
G75*
G02*
X58275000Y-71456250I0J218750D01*
G01*
G37*
%TD.AperFunction*%
%TD*%
%TO.P,C9,2*%
%TO.N,GND*%
%TA.AperFunction,SMDPad,CuDef*%
G36*
G01*
X59962500Y-72856250D02*
X59962500Y-72343750D01*
G75*
G02*
X60181250Y-72125000I218750J0D01*
G01*
X60618750Y-72125000D01*
G75*
G02*
X60837500Y-72343750I0J-218750D01*
G01*
X60837500Y-72856250D01*
G75*
G02*
X60618750Y-73075000I-218750J0D01*
G01*
X60181250Y-73075000D01*
G75*
G02*
X59962500Y-72856250I0J218750D01*
G01*
G37*
%TD.AperFunction*%
%TO.P,C9,1*%
%TO.N,+3V3*%
%TA.AperFunction,SMDPad,CuDef*%
G36*
G01*
X58387500Y-72856250D02*
X58387500Y-72343750D01*
G75*
G02*
X58606250Y-72125000I218750J0D01*
G01*
X59043750Y-72125000D01*
G75*
G02*
X59262500Y-72343750I0J-218750D01*
G01*
X59262500Y-72856250D01*
G75*
G02*
X59043750Y-73075000I-218750J0D01*
G01*
X58606250Y-73075000D01*
G75*
G02*
X58387500Y-72856250I0J218750D01*
G01*
G37*
%TD.AperFunction*%
%TD*%
%TO.P,C8,2*%
%TO.N,GND*%
%TA.AperFunction,SMDPad,CuDef*%
G36*
G01*
X50456250Y-58037500D02*
X49943750Y-58037500D01*
G75*
G02*
X49725000Y-57818750I0J218750D01*
G01*
X49725000Y-57381250D01*
G75*
G02*
X49943750Y-57162500I218750J0D01*
G01*
X50456250Y-57162500D01*
G75*
G02*
X50675000Y-57381250I0J-218750D01*
G01*
X50675000Y-57818750D01*
G75*
G02*
X50456250Y-58037500I-218750J0D01*
G01*
G37*
%TD.AperFunction*%
%TO.P,C8,1*%
%TO.N,+3V3*%
%TA.AperFunction,SMDPad,CuDef*%
G36*
G01*
X50456250Y-59612500D02*
X49943750Y-59612500D01*
G75*
G02*
X49725000Y-59393750I0J218750D01*
G01*
X49725000Y-58956250D01*
G75*
G02*
X49943750Y-58737500I218750J0D01*
G01*
X50456250Y-58737500D01*
G75*
G02*
X50675000Y-58956250I0J-218750D01*
G01*
X50675000Y-59393750D01*
G75*
G02*
X50456250Y-59612500I-218750J0D01*
G01*
G37*
%TD.AperFunction*%
%TD*%
%TO.P,C6,2*%
%TO.N,GND*%
%TA.AperFunction,SMDPad,CuDef*%
G36*
G01*
X49737500Y-62456250D02*
X49737500Y-61943750D01*
G75*
G02*
X49956250Y-61725000I218750J0D01*
G01*
X50393750Y-61725000D01*
G75*
G02*
X50612500Y-61943750I0J-218750D01*
G01*
X50612500Y-62456250D01*
G75*
G02*
X50393750Y-62675000I-218750J0D01*
G01*
X49956250Y-62675000D01*
G75*
G02*
X49737500Y-62456250I0J218750D01*
G01*
G37*
%TD.AperFunction*%
%TO.P,C6,1*%
%TO.N,+3V3*%
%TA.AperFunction,SMDPad,CuDef*%
G36*
G01*
X48162500Y-62456250D02*
X48162500Y-61943750D01*
G75*
G02*
X48381250Y-61725000I218750J0D01*
G01*
X48818750Y-61725000D01*
G75*
G02*
X49037500Y-61943750I0J-218750D01*
G01*
X49037500Y-62456250D01*
G75*
G02*
X48818750Y-62675000I-218750J0D01*
G01*
X48381250Y-62675000D01*
G75*
G02*
X48162500Y-62456250I0J218750D01*
G01*
G37*
%TD.AperFunction*%
%TD*%
%TO.P,C4,2*%
%TO.N,GND*%
%TA.AperFunction,SMDPad,CuDef*%
G36*
G01*
X55543750Y-75750000D02*
X56056250Y-75750000D01*
G75*
G02*
X56275000Y-75968750I0J-218750D01*
G01*
X56275000Y-76406250D01*
G75*
G02*
X56056250Y-76625000I-218750J0D01*
G01*
X55543750Y-76625000D01*
G75*
G02*
X55325000Y-76406250I0J218750D01*
G01*
X55325000Y-75968750D01*
G75*
G02*
X55543750Y-75750000I218750J0D01*
G01*
G37*
%TD.AperFunction*%
%TO.P,C4,1*%
%TO.N,+3.3VA*%
%TA.AperFunction,SMDPad,CuDef*%
G36*
G01*
X55543750Y-74175000D02*
X56056250Y-74175000D01*
G75*
G02*
X56275000Y-74393750I0J-218750D01*
G01*
X56275000Y-74831250D01*
G75*
G02*
X56056250Y-75050000I-218750J0D01*
G01*
X55543750Y-75050000D01*
G75*
G02*
X55325000Y-74831250I0J218750D01*
G01*
X55325000Y-74393750D01*
G75*
G02*
X55543750Y-74175000I218750J0D01*
G01*
G37*
%TD.AperFunction*%
%TD*%
%TO.P,C3,2*%
%TO.N,GND*%
%TA.AperFunction,SMDPad,CuDef*%
G36*
G01*
X54143750Y-75750000D02*
X54656250Y-75750000D01*
G75*
G02*
X54875000Y-75968750I0J-218750D01*
G01*
X54875000Y-76406250D01*
G75*
G02*
X54656250Y-76625000I-218750J0D01*
G01*
X54143750Y-76625000D01*
G75*
G02*
X53925000Y-76406250I0J218750D01*
G01*
X53925000Y-75968750D01*
G75*
G02*
X54143750Y-75750000I218750J0D01*
G01*
G37*
%TD.AperFunction*%
%TO.P,C3,1*%
%TO.N,+3.3VA*%
%TA.AperFunction,SMDPad,CuDef*%
G36*
G01*
X54143750Y-74175000D02*
X54656250Y-74175000D01*
G75*
G02*
X54875000Y-74393750I0J-218750D01*
G01*
X54875000Y-74831250D01*
G75*
G02*
X54656250Y-75050000I-218750J0D01*
G01*
X54143750Y-75050000D01*
G75*
G02*
X53925000Y-74831250I0J218750D01*
G01*
X53925000Y-74393750D01*
G75*
G02*
X54143750Y-74175000I218750J0D01*
G01*
G37*
%TD.AperFunction*%
%TD*%
%TO.P,C1,2*%
%TO.N,GND*%
%TA.AperFunction,SMDPad,CuDef*%
G36*
G01*
X52743750Y-75750000D02*
X53256250Y-75750000D01*
G75*
G02*
X53475000Y-75968750I0J-218750D01*
G01*
X53475000Y-76406250D01*
G75*
G02*
X53256250Y-76625000I-218750J0D01*
G01*
X52743750Y-76625000D01*
G75*
G02*
X52525000Y-76406250I0J218750D01*
G01*
X52525000Y-75968750D01*
G75*
G02*
X52743750Y-75750000I218750J0D01*
G01*
G37*
%TD.AperFunction*%
%TO.P,C1,1*%
%TO.N,+3.3VA*%
%TA.AperFunction,SMDPad,CuDef*%
G36*
G01*
X52743750Y-74175000D02*
X53256250Y-74175000D01*
G75*
G02*
X53475000Y-74393750I0J-218750D01*
G01*
X53475000Y-74831250D01*
G75*
G02*
X53256250Y-75050000I-218750J0D01*
G01*
X52743750Y-75050000D01*
G75*
G02*
X52525000Y-74831250I0J218750D01*
G01*
X52525000Y-74393750D01*
G75*
G02*
X52743750Y-74175000I218750J0D01*
G01*
G37*
%TD.AperFunction*%
%TD*%
D25*
%TO.N,+3V3*%
X48400000Y-63200000D03*
X50200000Y-60000000D03*
X51200000Y-60000000D03*
X66400000Y-66000000D03*
X59000000Y-73800000D03*
X57400000Y-71600000D03*
X57400000Y-74200000D03*
X59400000Y-50000000D03*
X58200000Y-50000000D03*
X57000000Y-50000000D03*
X55600000Y-50000000D03*
X60800000Y-50000000D03*
X60800000Y-50800000D03*
X59400000Y-50800000D03*
X58200000Y-50800000D03*
X57000000Y-50800000D03*
X55600000Y-50800000D03*
X54600000Y-50800000D03*
X54600000Y-50000000D03*
X54600000Y-52000000D03*
X55600000Y-52000000D03*
X43600000Y-55800000D03*
X51812500Y-63600000D03*
X61500000Y-62400000D03*
X58300000Y-62400000D03*
%TO.N,GND*%
X50200000Y-61400000D03*
X48200000Y-56000000D03*
X45800000Y-56000000D03*
X50200000Y-56600000D03*
X51600000Y-56600000D03*
X52600000Y-57800000D03*
X56200000Y-68800000D03*
X54400000Y-68800000D03*
X61200000Y-71400000D03*
X61200000Y-72600000D03*
X56800000Y-76200000D03*
X54400000Y-77400000D03*
X51800000Y-76200000D03*
X58300000Y-60800000D03*
X61500000Y-60800000D03*
X56200000Y-43400000D03*
X63400000Y-45000000D03*
X50000000Y-50600000D03*
X49200000Y-50600000D03*
X48200000Y-52200000D03*
X51600000Y-52600000D03*
X51600000Y-53600000D03*
X50600000Y-53600000D03*
X49400000Y-53600000D03*
X48200000Y-53600000D03*
X46800000Y-53600000D03*
X45400000Y-53600000D03*
X48000000Y-50800000D03*
X45800000Y-51000000D03*
X52600000Y-52600000D03*
X52600000Y-53600000D03*
X47000000Y-50800000D03*
X48000000Y-49800000D03*
X47000000Y-49800000D03*
X60400000Y-63775000D03*
X41500000Y-66200000D03*
X39550000Y-66200000D03*
%TO.N,NRST*%
X52800000Y-66600000D03*
%TO.N,PC13*%
X51800000Y-64800000D03*
X43200000Y-59400000D03*
%TO.N,PB9*%
X55650000Y-63575000D03*
%TO.N,SWCLK*%
X57000000Y-59775000D03*
%TO.N,SWDIO*%
X58450000Y-59675000D03*
%TO.N,PA11*%
X57000000Y-65000000D03*
%TO.N,PB13*%
X60655185Y-67801488D03*
%TO.N,PB10*%
X56213000Y-72000000D03*
%TO.N,PA3*%
X52200000Y-68600000D03*
%TO.N,PA2*%
X51400000Y-67800000D03*
%TD*%
D26*
%TO.N,+5V*%
X68760000Y-55340000D02*
X68760000Y-52800000D01*
X68760000Y-48300000D02*
X68600000Y-48140000D01*
X68760000Y-52800000D02*
X68760000Y-48300000D01*
D27*
%TO.N,+3V3*%
X50000000Y-63500000D02*
X49100000Y-63500000D01*
X48600000Y-63000000D02*
X48600000Y-62200000D01*
X49100000Y-63500000D02*
X48600000Y-63000000D01*
X48600000Y-63000000D02*
X48400000Y-63200000D01*
X51488000Y-59299500D02*
X51600000Y-59187500D01*
X50212500Y-59187500D02*
X50200000Y-59175000D01*
X51600000Y-59187500D02*
X50212500Y-59187500D01*
X50200000Y-59175000D02*
X50200000Y-60000000D01*
X51288000Y-60088000D02*
X51200000Y-60000000D01*
X51488000Y-60088000D02*
X51288000Y-60088000D01*
X51488000Y-62012000D02*
X51488000Y-60088000D01*
X51488000Y-60088000D02*
X51488000Y-59299500D01*
X58712500Y-72487500D02*
X58825000Y-72600000D01*
X58712500Y-71200000D02*
X58712500Y-72487500D01*
X57700000Y-71200000D02*
X56988000Y-70488000D01*
X58712500Y-71200000D02*
X57700000Y-71200000D01*
X58096720Y-72600000D02*
X57496720Y-73200000D01*
X58825000Y-72600000D02*
X58096720Y-72600000D01*
X60587500Y-62387500D02*
X60600000Y-62400000D01*
X59200000Y-62387500D02*
X60587500Y-62387500D01*
X58476000Y-63500000D02*
X59300000Y-63500000D01*
X59300000Y-63500000D02*
X59500000Y-63300000D01*
X59500000Y-62687500D02*
X59200000Y-62387500D01*
X59500000Y-63300000D02*
X59500000Y-62687500D01*
X58825000Y-73625000D02*
X59000000Y-73800000D01*
X58825000Y-72600000D02*
X58825000Y-73625000D01*
X57800000Y-71200000D02*
X57400000Y-71600000D01*
X58712500Y-71200000D02*
X57800000Y-71200000D01*
X57496720Y-74103280D02*
X57400000Y-74200000D01*
X57496720Y-73200000D02*
X57496720Y-74103280D01*
D28*
X59400000Y-50000000D02*
X58200000Y-50000000D01*
X58200000Y-50000000D02*
X57000000Y-50000000D01*
X57000000Y-50000000D02*
X55600000Y-50000000D01*
X59400000Y-50000000D02*
X60800000Y-50000000D01*
X60800000Y-50800000D02*
X59400000Y-50800000D01*
X58200000Y-50800000D02*
X57000000Y-50800000D01*
X55600000Y-50800000D02*
X54600000Y-50800000D01*
X54600000Y-50000000D02*
X55600000Y-50000000D01*
X57000000Y-50800000D02*
X55600000Y-50800000D01*
X59400000Y-50800000D02*
X58800000Y-50800000D01*
X58800000Y-50800000D02*
X58200000Y-50800000D01*
D26*
X54600000Y-50800000D02*
X60800000Y-50800000D01*
X60800000Y-50000000D02*
X54600000Y-50000000D01*
X59440000Y-49960000D02*
X59400000Y-50000000D01*
X59440000Y-48100000D02*
X59440000Y-49960000D01*
X54600000Y-50800000D02*
X54600000Y-52000000D01*
X55600000Y-50800000D02*
X55600000Y-52000000D01*
D27*
X43800000Y-56000000D02*
X43600000Y-55800000D01*
X43800000Y-56412500D02*
X43800000Y-56000000D01*
X51712500Y-63500000D02*
X51812500Y-63600000D01*
X50000000Y-63500000D02*
X51712500Y-63500000D01*
X60600000Y-62400000D02*
X61500000Y-62400000D01*
X58312500Y-62387500D02*
X58300000Y-62400000D01*
X59200000Y-62387500D02*
X58312500Y-62387500D01*
%TO.N,+3.3VA*%
X54988000Y-70488000D02*
X55488000Y-70488000D01*
X55488000Y-72888000D02*
X55800000Y-73200000D01*
X55488000Y-70488000D02*
X55488000Y-72888000D01*
X55800000Y-74612500D02*
X53000000Y-74612500D01*
X55800000Y-74612500D02*
X55800000Y-73200000D01*
D28*
%TO.N,Net-(D1-Pad1)*%
X49000000Y-43600000D02*
X47250000Y-43600000D01*
%TO.N,Net-(D2-Pad1)*%
X60800000Y-45000000D02*
X58800000Y-45000000D01*
D27*
%TO.N,GND*%
X48200000Y-56800000D02*
X45800000Y-56800000D01*
X50175000Y-61425000D02*
X50200000Y-61400000D01*
X50175000Y-62200000D02*
X50175000Y-61425000D01*
X48200000Y-56800000D02*
X48200000Y-56000000D01*
X45800000Y-56800000D02*
X45800000Y-56000000D01*
X50212500Y-57612500D02*
X50200000Y-57600000D01*
X51600000Y-57612500D02*
X50212500Y-57612500D01*
X49000000Y-57600000D02*
X48200000Y-56800000D01*
X50200000Y-57600000D02*
X49000000Y-57600000D01*
X50200000Y-57600000D02*
X50200000Y-56600000D01*
X51600000Y-57612500D02*
X51600000Y-56600000D01*
X51988000Y-60043494D02*
X52400000Y-59631494D01*
X51988000Y-62012000D02*
X51988000Y-60043494D01*
X52400000Y-59631494D02*
X52400000Y-57800000D01*
X51787500Y-57800000D02*
X51600000Y-57612500D01*
X52400000Y-57800000D02*
X51787500Y-57800000D01*
X52400000Y-57800000D02*
X52600000Y-57800000D01*
X56488000Y-69088000D02*
X56200000Y-68800000D01*
X56488000Y-70488000D02*
X56488000Y-69088000D01*
X54488000Y-68888000D02*
X54400000Y-68800000D01*
X54488000Y-70488000D02*
X54488000Y-68888000D01*
X60287500Y-72487500D02*
X60400000Y-72600000D01*
X60287500Y-71200000D02*
X60287500Y-72487500D01*
X61000000Y-71200000D02*
X61200000Y-71400000D01*
X60287500Y-71200000D02*
X61000000Y-71200000D01*
X60400000Y-72600000D02*
X61200000Y-72600000D01*
X55800000Y-76187500D02*
X54400000Y-76187500D01*
X54400000Y-76187500D02*
X53000000Y-76187500D01*
X56787500Y-76187500D02*
X56800000Y-76200000D01*
X55800000Y-76187500D02*
X56787500Y-76187500D01*
X54400000Y-76187500D02*
X54400000Y-77400000D01*
X51812500Y-76187500D02*
X51800000Y-76200000D01*
X53000000Y-76187500D02*
X51812500Y-76187500D01*
X59212500Y-60825000D02*
X59200000Y-60812500D01*
X60600000Y-60825000D02*
X59212500Y-60825000D01*
X58312500Y-60812500D02*
X58300000Y-60800000D01*
X59200000Y-60812500D02*
X58312500Y-60812500D01*
D28*
X42475000Y-49875000D02*
X43000000Y-49875000D01*
X40200000Y-47600000D02*
X42475000Y-49875000D01*
X52187500Y-50600000D02*
X51600000Y-50600000D01*
X55775000Y-43825000D02*
X56200000Y-43400000D01*
X55200000Y-43825000D02*
X55775000Y-43825000D01*
X62375000Y-45000000D02*
X63400000Y-45000000D01*
D26*
X50000000Y-52200000D02*
X48200000Y-52200000D01*
X51600000Y-50600000D02*
X50000000Y-52200000D01*
X43000000Y-52080000D02*
X42880000Y-52200000D01*
X43000000Y-49875000D02*
X43000000Y-52080000D01*
X51600000Y-50600000D02*
X50000000Y-50600000D01*
X48200000Y-52200000D02*
X42880000Y-52200000D01*
X50000000Y-50600000D02*
X49200000Y-50600000D01*
X48200000Y-50600000D02*
X48000000Y-50800000D01*
X49200000Y-50600000D02*
X48200000Y-50600000D01*
X48000000Y-50800000D02*
X48000000Y-49800000D01*
X48000000Y-49800000D02*
X47000000Y-49800000D01*
X47000000Y-49800000D02*
X47000000Y-50800000D01*
X46800000Y-51000000D02*
X45800000Y-51000000D01*
X47000000Y-50800000D02*
X46800000Y-51000000D01*
X52600000Y-52600000D02*
X51200000Y-52600000D01*
X51600000Y-52200000D02*
X51600000Y-50600000D01*
X51200000Y-52600000D02*
X51600000Y-52200000D01*
X52600000Y-52600000D02*
X52600000Y-53600000D01*
X52600000Y-53600000D02*
X45400000Y-53600000D01*
D27*
X60625000Y-60800000D02*
X60600000Y-60825000D01*
X61500000Y-60800000D02*
X60625000Y-60800000D01*
X60175000Y-64000000D02*
X60400000Y-63775000D01*
X58476000Y-64000000D02*
X60175000Y-64000000D01*
X41500000Y-66200000D02*
X39550000Y-66200000D01*
D28*
%TO.N,Net-(C13-Pad1)*%
X52848360Y-46000000D02*
X53600000Y-45248360D01*
X51600000Y-46000000D02*
X52848360Y-46000000D01*
X55048360Y-45248360D02*
X55200000Y-45400000D01*
X53600000Y-45248360D02*
X55048360Y-45248360D01*
%TO.N,+3.3VP*%
X45300000Y-48300000D02*
X43000000Y-48300000D01*
X51600000Y-48300000D02*
X45300000Y-48300000D01*
X51800000Y-48100000D02*
X51600000Y-48300000D01*
X56900000Y-48100000D02*
X51800000Y-48100000D01*
X56925000Y-48075000D02*
X56900000Y-48100000D01*
X56925000Y-45000000D02*
X56925000Y-48075000D01*
D27*
%TO.N,NRST*%
X52700000Y-66500000D02*
X50000000Y-66500000D01*
X52800000Y-66600000D02*
X52700000Y-66500000D01*
X63100000Y-68600000D02*
X63000000Y-68500000D01*
%TO.N,OSC32_IN*%
X48340000Y-58515000D02*
X48200000Y-58375000D01*
X48340000Y-60200000D02*
X48340000Y-58515000D01*
X47210010Y-64210010D02*
X47210010Y-61329990D01*
X47210010Y-61329990D02*
X48340000Y-60200000D01*
X47500000Y-64500000D02*
X47210010Y-64210010D01*
X50000000Y-64500000D02*
X47500000Y-64500000D01*
%TO.N,OSC32_OUT*%
X45800000Y-60200000D02*
X45800000Y-58375000D01*
X46760000Y-61160000D02*
X45800000Y-60200000D01*
X46760000Y-64760000D02*
X46760000Y-61160000D01*
X47000000Y-65000000D02*
X46760000Y-64760000D01*
X50000000Y-65000000D02*
X47000000Y-65000000D01*
%TO.N,OSC_IN*%
X50000000Y-65500000D02*
X44200000Y-65500000D01*
X43700000Y-65000000D02*
X43700000Y-63800000D01*
X44200000Y-65500000D02*
X43700000Y-65000000D01*
%TO.N,Net-(C19-Pad1)*%
X44326000Y-68000000D02*
X43700000Y-68626000D01*
X47300000Y-68000000D02*
X44326000Y-68000000D01*
D28*
%TO.N,VCC*%
X41660000Y-43600000D02*
X40200000Y-45060000D01*
X43950000Y-43600000D02*
X41660000Y-43600000D01*
D26*
X72600000Y-45600000D02*
X74000000Y-47000000D01*
X68600000Y-45600000D02*
X72600000Y-45600000D01*
X34000000Y-47000000D02*
X35000000Y-47000000D01*
X36940000Y-45060000D02*
X40200000Y-45060000D01*
X35000000Y-47000000D02*
X36940000Y-45060000D01*
D27*
%TO.N,Net-(D3-Pad2)*%
X42212500Y-57987500D02*
X42200000Y-58000000D01*
X43800000Y-57987500D02*
X42212500Y-57987500D01*
%TO.N,PC13*%
X34720000Y-58000000D02*
X32400000Y-55680000D01*
X40325000Y-58000000D02*
X34720000Y-58000000D01*
X51000000Y-64000000D02*
X51800000Y-64800000D01*
X50000000Y-64000000D02*
X51000000Y-64000000D01*
X40325000Y-58000000D02*
X41725000Y-59400000D01*
X41725000Y-59400000D02*
X43200000Y-59400000D01*
D28*
%TO.N,Net-(F1-Pad1)*%
X51847440Y-43551640D02*
X51799080Y-43600000D01*
X53600000Y-43551640D02*
X51847440Y-43551640D01*
D27*
%TO.N,PB9*%
X55563279Y-63488279D02*
X55650000Y-63575000D01*
X52773781Y-63488279D02*
X55563279Y-63488279D01*
X52488000Y-63202498D02*
X52773781Y-63488279D01*
X52488000Y-62012000D02*
X52488000Y-63202498D01*
%TO.N,BOOT0*%
X53325001Y-58558542D02*
X53325001Y-56800001D01*
X52988000Y-58895543D02*
X53325001Y-58558542D01*
X52988000Y-62012000D02*
X52988000Y-58895543D01*
X51125000Y-54600000D02*
X41787500Y-54600000D01*
X53325001Y-56800001D02*
X51125000Y-54600000D01*
%TO.N,PB7*%
X73819953Y-56699953D02*
X75400000Y-58280000D01*
X55820000Y-56699953D02*
X73819953Y-56699953D01*
X53488000Y-59031952D02*
X55820000Y-56699953D01*
X53488000Y-62012000D02*
X53488000Y-59031952D01*
%TO.N,PB6*%
X56006400Y-57149963D02*
X63774963Y-57149963D01*
X53988000Y-59168361D02*
X56006400Y-57149963D01*
X53988000Y-62012000D02*
X53988000Y-59168361D01*
X67445000Y-60820000D02*
X75400000Y-60820000D01*
X63774963Y-57149963D02*
X67445000Y-60820000D01*
%TO.N,PB5*%
X75400000Y-63360000D02*
X68866642Y-63360000D01*
X54488000Y-59304771D02*
X54488000Y-62012000D01*
X56192799Y-57599972D02*
X54488000Y-59304771D01*
X63106611Y-57599971D02*
X56192799Y-57599972D01*
X68866642Y-63360000D02*
X63106611Y-57599971D01*
%TO.N,PB4*%
X54988000Y-62012000D02*
X54988000Y-59441178D01*
X54988000Y-59441178D02*
X56379199Y-58049981D01*
X56379199Y-58049981D02*
X62920212Y-58049980D01*
X70770232Y-65900000D02*
X75400000Y-65900000D01*
X62920212Y-58049980D02*
X70770232Y-65900000D01*
%TO.N,PB3*%
X75400000Y-68440000D02*
X72673822Y-68440000D01*
X55488000Y-59577588D02*
X55488000Y-62012000D01*
X56565598Y-58499990D02*
X55488000Y-59577588D01*
X62733811Y-58499989D02*
X56565598Y-58499990D01*
X72673822Y-68440000D02*
X62733811Y-58499989D01*
%TO.N,PA15*%
X73805000Y-70980000D02*
X75400000Y-70980000D01*
X72850000Y-70025000D02*
X73805000Y-70980000D01*
X72850000Y-69252588D02*
X72850000Y-70025000D01*
X62547411Y-58949999D02*
X72850000Y-69252588D01*
X56751999Y-58949999D02*
X62547411Y-58949999D01*
X55988000Y-59713998D02*
X56751999Y-58949999D01*
X55988000Y-62012000D02*
X55988000Y-59713998D01*
%TO.N,SWCLK*%
X56488000Y-60287000D02*
X57000000Y-59775000D01*
X56488000Y-62012000D02*
X56488000Y-60287000D01*
%TO.N,SWDIO*%
X58337500Y-59675000D02*
X58450000Y-59675000D01*
X56988000Y-61024500D02*
X58337500Y-59675000D01*
X56988000Y-62012000D02*
X56988000Y-61024500D01*
%TO.N,PA12*%
X67461002Y-64500000D02*
X72000000Y-69038998D01*
X58476000Y-64500000D02*
X67461002Y-64500000D01*
X72000000Y-70120000D02*
X75400000Y-73520000D01*
X72000000Y-69038998D02*
X72000000Y-70120000D01*
%TO.N,PA11*%
X58476000Y-65000000D02*
X57000000Y-65000000D01*
%TO.N,PA10*%
X59563034Y-65274999D02*
X66748001Y-65274999D01*
X59338031Y-65500000D02*
X59563034Y-65274999D01*
X66748001Y-65274999D02*
X67600000Y-66126998D01*
X58476000Y-65500000D02*
X59338031Y-65500000D01*
X73138998Y-78600000D02*
X75400000Y-78600000D01*
X67600000Y-73061002D02*
X73138998Y-78600000D01*
X67600000Y-66126998D02*
X67600000Y-73061002D01*
%TO.N,PA9*%
X66225040Y-86434960D02*
X65260000Y-87400000D01*
X66225040Y-67854808D02*
X66225040Y-86434960D01*
X64096692Y-65726460D02*
X66225040Y-67854808D01*
X59747981Y-65726459D02*
X64096692Y-65726460D01*
X59474441Y-66000000D02*
X59747981Y-65726459D01*
X58476000Y-66000000D02*
X59474441Y-66000000D01*
%TO.N,PA8*%
X65775030Y-68041208D02*
X65775030Y-75824970D01*
X63910291Y-66176469D02*
X65775030Y-68041208D01*
X59934383Y-66176468D02*
X63910291Y-66176469D01*
X59610853Y-66500000D02*
X59934383Y-66176468D01*
X58476000Y-66500000D02*
X59610853Y-66500000D01*
X62720000Y-78880000D02*
X62720000Y-87400000D01*
X65775030Y-75824970D02*
X62720000Y-78880000D01*
%TO.N,PB15*%
X65325020Y-68227608D02*
X65325020Y-74474980D01*
X63723890Y-66626478D02*
X65325020Y-68227608D01*
X60120784Y-66626477D02*
X63723890Y-66626478D01*
X59747261Y-67000000D02*
X60120784Y-66626477D01*
X58476000Y-67000000D02*
X59747261Y-67000000D01*
X60180000Y-79620000D02*
X60180000Y-87400000D01*
X65325020Y-74474980D02*
X60180000Y-79620000D01*
%TO.N,PB14*%
X64875010Y-73922402D02*
X58197412Y-80600000D01*
X64875010Y-68414008D02*
X64875010Y-73922402D01*
X63537489Y-67076487D02*
X64875010Y-68414008D01*
X60307184Y-67076487D02*
X63537489Y-67076487D01*
X59883671Y-67500000D02*
X60307184Y-67076487D01*
X58476000Y-67500000D02*
X59883671Y-67500000D01*
X58197412Y-80600000D02*
X58197412Y-80802588D01*
X57640000Y-81360000D02*
X57640000Y-87400000D01*
X58197412Y-80802588D02*
X57640000Y-81360000D01*
%TO.N,PB13*%
X60456673Y-68000000D02*
X60655185Y-67801488D01*
X58476000Y-68000000D02*
X60456673Y-68000000D01*
%TO.N,PB12*%
X64425001Y-72463999D02*
X64425001Y-73736001D01*
X60461002Y-68500000D02*
X64425001Y-72463999D01*
X64425001Y-73736001D02*
X61561002Y-76600000D01*
X58476000Y-68500000D02*
X60461002Y-68500000D01*
X61561002Y-76600000D02*
X59800000Y-76600000D01*
X52560000Y-83840000D02*
X52560000Y-87400000D01*
X59800000Y-76600000D02*
X52560000Y-83840000D01*
%TO.N,PB11*%
X59725001Y-73168995D02*
X59725001Y-74874999D01*
X59637490Y-72168496D02*
X59637490Y-73081484D01*
X59637490Y-73081484D02*
X59725001Y-73168995D01*
X59524990Y-72055996D02*
X59637490Y-72168496D01*
X59524990Y-70048990D02*
X59524990Y-72055996D01*
X58476000Y-69000000D02*
X59524990Y-70048990D01*
X50020000Y-84580000D02*
X50020000Y-87400000D01*
X59725001Y-74874999D02*
X50020000Y-84580000D01*
%TO.N,PB10*%
X55988000Y-71775000D02*
X56213000Y-72000000D01*
X55988000Y-70488000D02*
X55988000Y-71775000D01*
%TO.N,PB2*%
X53988000Y-72380506D02*
X44940000Y-81428506D01*
X44940000Y-81428506D02*
X44940000Y-87400000D01*
X53988000Y-70488000D02*
X53988000Y-72380506D01*
%TO.N,PB1*%
X42400000Y-82957732D02*
X42400000Y-87400000D01*
X53488000Y-71869732D02*
X42400000Y-82957732D01*
X53488000Y-70488000D02*
X53488000Y-71869732D01*
%TO.N,PB0*%
X33249999Y-77690001D02*
X32400000Y-78540000D01*
X47031321Y-77690001D02*
X33249999Y-77690001D01*
X52988000Y-71733322D02*
X47031321Y-77690001D01*
X52988000Y-70488000D02*
X52988000Y-71733322D01*
%TO.N,PA7*%
X48084912Y-76000000D02*
X32400000Y-76000000D01*
X52488000Y-71596912D02*
X48084912Y-76000000D01*
X52488000Y-70488000D02*
X52488000Y-71596912D01*
%TO.N,PA6*%
X51988000Y-71460502D02*
X51988000Y-70488000D01*
X49448458Y-74000044D02*
X51988000Y-71460502D01*
X32940045Y-74000044D02*
X49448458Y-74000044D01*
X32400000Y-73460000D02*
X32940045Y-74000044D01*
%TO.N,PA5*%
X35030028Y-73550028D02*
X32400000Y-70920000D01*
X48425972Y-73550028D02*
X35030028Y-73550028D01*
X51488000Y-70488000D02*
X48425972Y-73550028D01*
%TO.N,PA4*%
X50000000Y-69000000D02*
X49400000Y-69000000D01*
X47972799Y-73100019D02*
X37120019Y-73100019D01*
X49400000Y-71672820D02*
X47972799Y-73100019D01*
X37120019Y-73100019D02*
X32400000Y-68380000D01*
X49400000Y-69000000D02*
X49400000Y-71672820D01*
%TO.N,PA3*%
X51126998Y-68600000D02*
X52200000Y-68600000D01*
X51026998Y-68500000D02*
X51126998Y-68600000D01*
X50000000Y-68500000D02*
X51026998Y-68500000D01*
%TO.N,PA2*%
X51200000Y-68000000D02*
X51400000Y-67800000D01*
X50000000Y-68000000D02*
X51200000Y-68000000D01*
%TO.N,PA1*%
X37200000Y-69636410D02*
X37200000Y-63600000D01*
X40213599Y-72650009D02*
X37200000Y-69636410D01*
X47786400Y-72650010D02*
X40213599Y-72650009D01*
X48550019Y-71886391D02*
X47786400Y-72650010D01*
X37200000Y-63600000D02*
X34360000Y-60760000D01*
X48550021Y-67849979D02*
X48550019Y-71886391D01*
X34360000Y-60760000D02*
X32400000Y-60760000D01*
X48900000Y-67500000D02*
X48550021Y-67849979D01*
X50000000Y-67500000D02*
X48900000Y-67500000D01*
%TO.N,PA0*%
X37800000Y-60800000D02*
X36200000Y-59200000D01*
X36200000Y-59200000D02*
X33380000Y-59200000D01*
X37800000Y-69600000D02*
X37800000Y-60800000D01*
X40400000Y-72200000D02*
X37800000Y-69600000D01*
X47600000Y-72200000D02*
X40400000Y-72200000D01*
X48100010Y-71699990D02*
X47600000Y-72200000D01*
X48100010Y-67556016D02*
X48100010Y-71699990D01*
X48656026Y-67000000D02*
X48100010Y-67556016D01*
X33380000Y-59200000D02*
X32400000Y-58220000D01*
X50000000Y-67000000D02*
X48656026Y-67000000D01*
%TO.N,OSC_OUT*%
X47725000Y-66000000D02*
X47300000Y-66425000D01*
X50000000Y-66000000D02*
X47725000Y-66000000D01*
D26*
%TO.N,+3V3S*%
X66220000Y-55340000D02*
X66220000Y-52800000D01*
X66220000Y-52800000D02*
X66220000Y-51220000D01*
X63100000Y-48100000D02*
X61980000Y-48100000D01*
X66220000Y-51220000D02*
X63100000Y-48100000D01*
D27*
%TO.N,Net-(J2-Pad2)*%
X40340000Y-54472500D02*
X40212500Y-54600000D01*
X40340000Y-52200000D02*
X40340000Y-54472500D01*
%TD*%
M02*
