%TF.GenerationSoftware,KiCad,Pcbnew,5.1.10-88a1d61d58~88~ubuntu20.04.1*%
%TF.CreationDate,2021-06-20T20:02:36+02:00*%
%TF.ProjectId,bluePillG,626c7565-5069-46c6-9c47-2e6b69636164,rev?*%
%TF.SameCoordinates,Original*%
%TF.FileFunction,Soldermask,Bot*%
%TF.FilePolarity,Negative*%
%FSLAX46Y46*%
G04 Gerber Fmt 4.6, Leading zero omitted, Abs format (unit mm)*
G04 Created by KiCad (PCBNEW 5.1.10-88a1d61d58~88~ubuntu20.04.1) date 2021-06-20 20:02:36*
%MOMM*%
%LPD*%
G01*
G04 APERTURE LIST*
%ADD10C,0.800000*%
%ADD11C,6.400000*%
%ADD12C,1.524000*%
%ADD13C,1.879600*%
%ADD14C,2.000000*%
%ADD15O,1.700000X1.700000*%
%ADD16R,1.700000X1.700000*%
G04 APERTURE END LIST*
D10*
%TO.C,H4*%
X75697056Y-85302944D03*
X74000000Y-84600000D03*
X72302944Y-85302944D03*
X71600000Y-87000000D03*
X72302944Y-88697056D03*
X74000000Y-89400000D03*
X75697056Y-88697056D03*
X76400000Y-87000000D03*
D11*
X74000000Y-87000000D03*
%TD*%
D10*
%TO.C,H3*%
X75697056Y-45302944D03*
X74000000Y-44600000D03*
X72302944Y-45302944D03*
X71600000Y-47000000D03*
X72302944Y-48697056D03*
X74000000Y-49400000D03*
X75697056Y-48697056D03*
X76400000Y-47000000D03*
D11*
X74000000Y-47000000D03*
%TD*%
D12*
%TO.C,Y2*%
X43700000Y-68626000D03*
X43700000Y-63800000D03*
%TD*%
D13*
%TO.C,Y1*%
X45800000Y-60200000D03*
X48340000Y-60200000D03*
%TD*%
D14*
%TO.C,SW1*%
X69600000Y-68600000D03*
X69600000Y-73100000D03*
X63100000Y-68600000D03*
X63100000Y-73100000D03*
%TD*%
%TO.C,R2*%
G36*
G01*
X66143750Y-68350000D02*
X66656250Y-68350000D01*
G75*
G02*
X66875000Y-68568750I0J-218750D01*
G01*
X66875000Y-69006250D01*
G75*
G02*
X66656250Y-69225000I-218750J0D01*
G01*
X66143750Y-69225000D01*
G75*
G02*
X65925000Y-69006250I0J218750D01*
G01*
X65925000Y-68568750D01*
G75*
G02*
X66143750Y-68350000I218750J0D01*
G01*
G37*
G36*
G01*
X66143750Y-66775000D02*
X66656250Y-66775000D01*
G75*
G02*
X66875000Y-66993750I0J-218750D01*
G01*
X66875000Y-67431250D01*
G75*
G02*
X66656250Y-67650000I-218750J0D01*
G01*
X66143750Y-67650000D01*
G75*
G02*
X65925000Y-67431250I0J218750D01*
G01*
X65925000Y-66993750D01*
G75*
G02*
X66143750Y-66775000I218750J0D01*
G01*
G37*
%TD*%
D15*
%TO.C,J10*%
X38460000Y-81940000D03*
X41000000Y-81940000D03*
X38460000Y-79400000D03*
D16*
X41000000Y-79400000D03*
%TD*%
D15*
%TO.C,J9*%
X68200000Y-81940000D03*
X70740000Y-81940000D03*
X68200000Y-79400000D03*
D16*
X70740000Y-79400000D03*
%TD*%
D15*
%TO.C,J8*%
X75400000Y-55740000D03*
X75400000Y-58280000D03*
X75400000Y-60820000D03*
X75400000Y-63360000D03*
X75400000Y-65900000D03*
X75400000Y-68440000D03*
X75400000Y-70980000D03*
X75400000Y-73520000D03*
X75400000Y-76060000D03*
D16*
X75400000Y-78600000D03*
%TD*%
D15*
%TO.C,J7*%
X65260000Y-87400000D03*
X62720000Y-87400000D03*
X60180000Y-87400000D03*
X57640000Y-87400000D03*
X55100000Y-87400000D03*
X52560000Y-87400000D03*
X50020000Y-87400000D03*
X47480000Y-87400000D03*
X44940000Y-87400000D03*
D16*
X42400000Y-87400000D03*
%TD*%
D15*
%TO.C,J6*%
X32400000Y-78540000D03*
X32400000Y-76000000D03*
X32400000Y-73460000D03*
X32400000Y-70920000D03*
X32400000Y-68380000D03*
X32400000Y-65840000D03*
X32400000Y-63300000D03*
X32400000Y-60760000D03*
X32400000Y-58220000D03*
D16*
X32400000Y-55680000D03*
%TD*%
D15*
%TO.C,J5*%
X68600000Y-48140000D03*
D16*
X68600000Y-45600000D03*
%TD*%
D15*
%TO.C,J4*%
X40200000Y-47600000D03*
D16*
X40200000Y-45060000D03*
%TD*%
D15*
%TO.C,J3*%
X61980000Y-48100000D03*
X59440000Y-48100000D03*
D16*
X56900000Y-48100000D03*
%TD*%
D15*
%TO.C,J2*%
X42880000Y-52200000D03*
X40340000Y-52200000D03*
D16*
X37800000Y-52200000D03*
%TD*%
D15*
%TO.C,J1*%
X68760000Y-55340000D03*
X68760000Y-52800000D03*
X66220000Y-55340000D03*
X66220000Y-52800000D03*
X63680000Y-55340000D03*
X63680000Y-52800000D03*
X61140000Y-55340000D03*
X61140000Y-52800000D03*
X58600000Y-55340000D03*
D16*
X58600000Y-52800000D03*
%TD*%
D10*
%TO.C,H2*%
X35697056Y-85302944D03*
X34000000Y-84600000D03*
X32302944Y-85302944D03*
X31600000Y-87000000D03*
X32302944Y-88697056D03*
X34000000Y-89400000D03*
X35697056Y-88697056D03*
X36400000Y-87000000D03*
D11*
X34000000Y-87000000D03*
%TD*%
D10*
%TO.C,H1*%
X35697056Y-45302944D03*
X34000000Y-44600000D03*
X32302944Y-45302944D03*
X31600000Y-47000000D03*
X32302944Y-48697056D03*
X34000000Y-49400000D03*
X35697056Y-48697056D03*
X36400000Y-47000000D03*
D11*
X34000000Y-47000000D03*
%TD*%
%TO.C,C19*%
G36*
G01*
X41643750Y-69737500D02*
X42156250Y-69737500D01*
G75*
G02*
X42375000Y-69956250I0J-218750D01*
G01*
X42375000Y-70393750D01*
G75*
G02*
X42156250Y-70612500I-218750J0D01*
G01*
X41643750Y-70612500D01*
G75*
G02*
X41425000Y-70393750I0J218750D01*
G01*
X41425000Y-69956250D01*
G75*
G02*
X41643750Y-69737500I218750J0D01*
G01*
G37*
G36*
G01*
X41643750Y-68162500D02*
X42156250Y-68162500D01*
G75*
G02*
X42375000Y-68381250I0J-218750D01*
G01*
X42375000Y-68818750D01*
G75*
G02*
X42156250Y-69037500I-218750J0D01*
G01*
X41643750Y-69037500D01*
G75*
G02*
X41425000Y-68818750I0J218750D01*
G01*
X41425000Y-68381250D01*
G75*
G02*
X41643750Y-68162500I218750J0D01*
G01*
G37*
%TD*%
%TO.C,C18*%
G36*
G01*
X42056250Y-62650000D02*
X41543750Y-62650000D01*
G75*
G02*
X41325000Y-62431250I0J218750D01*
G01*
X41325000Y-61993750D01*
G75*
G02*
X41543750Y-61775000I218750J0D01*
G01*
X42056250Y-61775000D01*
G75*
G02*
X42275000Y-61993750I0J-218750D01*
G01*
X42275000Y-62431250D01*
G75*
G02*
X42056250Y-62650000I-218750J0D01*
G01*
G37*
G36*
G01*
X42056250Y-64225000D02*
X41543750Y-64225000D01*
G75*
G02*
X41325000Y-64006250I0J218750D01*
G01*
X41325000Y-63568750D01*
G75*
G02*
X41543750Y-63350000I218750J0D01*
G01*
X42056250Y-63350000D01*
G75*
G02*
X42275000Y-63568750I0J-218750D01*
G01*
X42275000Y-64006250D01*
G75*
G02*
X42056250Y-64225000I-218750J0D01*
G01*
G37*
%TD*%
%TO.C,C15*%
G36*
G01*
X66143750Y-71150000D02*
X66656250Y-71150000D01*
G75*
G02*
X66875000Y-71368750I0J-218750D01*
G01*
X66875000Y-71806250D01*
G75*
G02*
X66656250Y-72025000I-218750J0D01*
G01*
X66143750Y-72025000D01*
G75*
G02*
X65925000Y-71806250I0J218750D01*
G01*
X65925000Y-71368750D01*
G75*
G02*
X66143750Y-71150000I218750J0D01*
G01*
G37*
G36*
G01*
X66143750Y-69575000D02*
X66656250Y-69575000D01*
G75*
G02*
X66875000Y-69793750I0J-218750D01*
G01*
X66875000Y-70231250D01*
G75*
G02*
X66656250Y-70450000I-218750J0D01*
G01*
X66143750Y-70450000D01*
G75*
G02*
X65925000Y-70231250I0J218750D01*
G01*
X65925000Y-69793750D01*
G75*
G02*
X66143750Y-69575000I218750J0D01*
G01*
G37*
%TD*%
%TO.C,C5*%
G36*
G01*
X52950000Y-63856250D02*
X52950000Y-63343750D01*
G75*
G02*
X53168750Y-63125000I218750J0D01*
G01*
X53606250Y-63125000D01*
G75*
G02*
X53825000Y-63343750I0J-218750D01*
G01*
X53825000Y-63856250D01*
G75*
G02*
X53606250Y-64075000I-218750J0D01*
G01*
X53168750Y-64075000D01*
G75*
G02*
X52950000Y-63856250I0J218750D01*
G01*
G37*
G36*
G01*
X51375000Y-63856250D02*
X51375000Y-63343750D01*
G75*
G02*
X51593750Y-63125000I218750J0D01*
G01*
X52031250Y-63125000D01*
G75*
G02*
X52250000Y-63343750I0J-218750D01*
G01*
X52250000Y-63856250D01*
G75*
G02*
X52031250Y-64075000I-218750J0D01*
G01*
X51593750Y-64075000D01*
G75*
G02*
X51375000Y-63856250I0J218750D01*
G01*
G37*
%TD*%
M02*
