%TF.GenerationSoftware,KiCad,Pcbnew,5.1.10-88a1d61d58~88~ubuntu20.04.1*%
%TF.CreationDate,2021-06-20T20:02:36+02:00*%
%TF.ProjectId,bluePillG,626c7565-5069-46c6-9c47-2e6b69636164,rev?*%
%TF.SameCoordinates,Original*%
%TF.FileFunction,Legend,Bot*%
%TF.FilePolarity,Positive*%
%FSLAX46Y46*%
G04 Gerber Fmt 4.6, Leading zero omitted, Abs format (unit mm)*
G04 Created by KiCad (PCBNEW 5.1.10-88a1d61d58~88~ubuntu20.04.1) date 2021-06-20 20:02:36*
%MOMM*%
%LPD*%
G01*
G04 APERTURE LIST*
%ADD10C,0.152400*%
%ADD11C,0.406400*%
%ADD12C,0.120000*%
%ADD13C,0.127000*%
%ADD14C,0.150000*%
G04 APERTURE END LIST*
D10*
%TO.C,Y1*%
X46181000Y-58168000D02*
X47959000Y-58168000D01*
X46054000Y-58168000D02*
X46181000Y-58168000D01*
X47070000Y-54866000D02*
X46562000Y-54866000D01*
X47070000Y-54866000D02*
X47070000Y-54358000D01*
X47070000Y-56009000D02*
X46562000Y-56009000D01*
X47070000Y-56009000D02*
X47070000Y-56517000D01*
X47578000Y-56009000D02*
X47070000Y-56009000D01*
X47578000Y-54866000D02*
X47070000Y-54866000D01*
X47578000Y-55247000D02*
X46562000Y-55247000D01*
X46562000Y-55628000D02*
X46562000Y-55247000D01*
X46562000Y-55628000D02*
X47578000Y-55628000D01*
X47578000Y-55247000D02*
X47578000Y-55628000D01*
D11*
X47578000Y-59438000D02*
X47578000Y-58676000D01*
X46562000Y-59438000D02*
X46562000Y-58676000D01*
D10*
X48086000Y-58168000D02*
X48086000Y-52707000D01*
X48086000Y-58168000D02*
X47959000Y-58168000D01*
X47959000Y-58549000D02*
X47959000Y-58168000D01*
X46054000Y-58168000D02*
X46054000Y-52707000D01*
X46181000Y-58549000D02*
X46181000Y-58168000D01*
X47832000Y-52453000D02*
X46308000Y-52453000D01*
X47959000Y-58549000D02*
X46181000Y-58549000D01*
X47832000Y-52453000D02*
G75*
G02*
X48086000Y-52707000I0J-254000D01*
G01*
X46054000Y-52707000D02*
G75*
G02*
X46308000Y-52453000I254000J0D01*
G01*
D12*
%TO.C,R2*%
X66910000Y-67837221D02*
X66910000Y-68162779D01*
X65890000Y-67837221D02*
X65890000Y-68162779D01*
%TO.C,C19*%
X42410000Y-69224721D02*
X42410000Y-69550279D01*
X41390000Y-69224721D02*
X41390000Y-69550279D01*
%TO.C,C18*%
X41290000Y-63162779D02*
X41290000Y-62837221D01*
X42310000Y-63162779D02*
X42310000Y-62837221D01*
%TO.C,C15*%
X66910000Y-70637221D02*
X66910000Y-70962779D01*
X65890000Y-70637221D02*
X65890000Y-70962779D01*
%TO.C,C5*%
X52437221Y-63090000D02*
X52762779Y-63090000D01*
X52437221Y-64110000D02*
X52762779Y-64110000D01*
%TO.C,Y1*%
D13*
X49341485Y-57369714D02*
X49631771Y-57369714D01*
X49022171Y-57166514D02*
X49341485Y-57369714D01*
X49022171Y-57572914D01*
X49631771Y-58095428D02*
X49631771Y-57747085D01*
X49631771Y-57921257D02*
X49022171Y-57921257D01*
X49109257Y-57863200D01*
X49167314Y-57805142D01*
X49196342Y-57747085D01*
X44450171Y-55337714D02*
X44450171Y-55715085D01*
X44682400Y-55511885D01*
X44682400Y-55598971D01*
X44711428Y-55657028D01*
X44740457Y-55686057D01*
X44798514Y-55715085D01*
X44943657Y-55715085D01*
X45001714Y-55686057D01*
X45030742Y-55657028D01*
X45059771Y-55598971D01*
X45059771Y-55424800D01*
X45030742Y-55366742D01*
X45001714Y-55337714D01*
X44508228Y-55947314D02*
X44479200Y-55976342D01*
X44450171Y-56034400D01*
X44450171Y-56179542D01*
X44479200Y-56237600D01*
X44508228Y-56266628D01*
X44566285Y-56295657D01*
X44624342Y-56295657D01*
X44711428Y-56266628D01*
X45059771Y-55918285D01*
X45059771Y-56295657D01*
X45001714Y-56556914D02*
X45030742Y-56585942D01*
X45059771Y-56556914D01*
X45030742Y-56527885D01*
X45001714Y-56556914D01*
X45059771Y-56556914D01*
X44450171Y-56789142D02*
X44450171Y-57195542D01*
X45059771Y-56934285D01*
X44450171Y-57689028D02*
X44450171Y-57572914D01*
X44479200Y-57514857D01*
X44508228Y-57485828D01*
X44595314Y-57427771D01*
X44711428Y-57398742D01*
X44943657Y-57398742D01*
X45001714Y-57427771D01*
X45030742Y-57456800D01*
X45059771Y-57514857D01*
X45059771Y-57630971D01*
X45030742Y-57689028D01*
X45001714Y-57718057D01*
X44943657Y-57747085D01*
X44798514Y-57747085D01*
X44740457Y-57718057D01*
X44711428Y-57689028D01*
X44682400Y-57630971D01*
X44682400Y-57514857D01*
X44711428Y-57456800D01*
X44740457Y-57427771D01*
X44798514Y-57398742D01*
X44711428Y-58095428D02*
X44682400Y-58037371D01*
X44653371Y-58008342D01*
X44595314Y-57979314D01*
X44566285Y-57979314D01*
X44508228Y-58008342D01*
X44479200Y-58037371D01*
X44450171Y-58095428D01*
X44450171Y-58211542D01*
X44479200Y-58269600D01*
X44508228Y-58298628D01*
X44566285Y-58327657D01*
X44595314Y-58327657D01*
X44653371Y-58298628D01*
X44682400Y-58269600D01*
X44711428Y-58211542D01*
X44711428Y-58095428D01*
X44740457Y-58037371D01*
X44769485Y-58008342D01*
X44827542Y-57979314D01*
X44943657Y-57979314D01*
X45001714Y-58008342D01*
X45030742Y-58037371D01*
X45059771Y-58095428D01*
X45059771Y-58211542D01*
X45030742Y-58269600D01*
X45001714Y-58298628D01*
X44943657Y-58327657D01*
X44827542Y-58327657D01*
X44769485Y-58298628D01*
X44740457Y-58269600D01*
X44711428Y-58211542D01*
X45059771Y-58588914D02*
X44450171Y-58588914D01*
X44827542Y-58646971D02*
X45059771Y-58821142D01*
X44653371Y-58821142D02*
X44885600Y-58588914D01*
X45059771Y-59082400D02*
X44450171Y-59082400D01*
X44740457Y-59082400D02*
X44740457Y-59430742D01*
X45059771Y-59430742D02*
X44450171Y-59430742D01*
X44653371Y-59662971D02*
X44653371Y-59982285D01*
X45059771Y-59662971D01*
X45059771Y-59982285D01*
%TO.C,R2*%
D14*
X65422380Y-67833333D02*
X64946190Y-67500000D01*
X65422380Y-67261904D02*
X64422380Y-67261904D01*
X64422380Y-67642857D01*
X64470000Y-67738095D01*
X64517619Y-67785714D01*
X64612857Y-67833333D01*
X64755714Y-67833333D01*
X64850952Y-67785714D01*
X64898571Y-67738095D01*
X64946190Y-67642857D01*
X64946190Y-67261904D01*
X64517619Y-68214285D02*
X64470000Y-68261904D01*
X64422380Y-68357142D01*
X64422380Y-68595238D01*
X64470000Y-68690476D01*
X64517619Y-68738095D01*
X64612857Y-68785714D01*
X64708095Y-68785714D01*
X64850952Y-68738095D01*
X65422380Y-68166666D01*
X65422380Y-68785714D01*
%TO.C,C19*%
X40827142Y-68744642D02*
X40874761Y-68697023D01*
X40922380Y-68554166D01*
X40922380Y-68458928D01*
X40874761Y-68316071D01*
X40779523Y-68220833D01*
X40684285Y-68173214D01*
X40493809Y-68125595D01*
X40350952Y-68125595D01*
X40160476Y-68173214D01*
X40065238Y-68220833D01*
X39970000Y-68316071D01*
X39922380Y-68458928D01*
X39922380Y-68554166D01*
X39970000Y-68697023D01*
X40017619Y-68744642D01*
X40922380Y-69697023D02*
X40922380Y-69125595D01*
X40922380Y-69411309D02*
X39922380Y-69411309D01*
X40065238Y-69316071D01*
X40160476Y-69220833D01*
X40208095Y-69125595D01*
X40922380Y-70173214D02*
X40922380Y-70363690D01*
X40874761Y-70458928D01*
X40827142Y-70506547D01*
X40684285Y-70601785D01*
X40493809Y-70649404D01*
X40112857Y-70649404D01*
X40017619Y-70601785D01*
X39970000Y-70554166D01*
X39922380Y-70458928D01*
X39922380Y-70268452D01*
X39970000Y-70173214D01*
X40017619Y-70125595D01*
X40112857Y-70077976D01*
X40350952Y-70077976D01*
X40446190Y-70125595D01*
X40493809Y-70173214D01*
X40541428Y-70268452D01*
X40541428Y-70458928D01*
X40493809Y-70554166D01*
X40446190Y-70601785D01*
X40350952Y-70649404D01*
%TO.C,C18*%
X43587142Y-62357142D02*
X43634761Y-62309523D01*
X43682380Y-62166666D01*
X43682380Y-62071428D01*
X43634761Y-61928571D01*
X43539523Y-61833333D01*
X43444285Y-61785714D01*
X43253809Y-61738095D01*
X43110952Y-61738095D01*
X42920476Y-61785714D01*
X42825238Y-61833333D01*
X42730000Y-61928571D01*
X42682380Y-62071428D01*
X42682380Y-62166666D01*
X42730000Y-62309523D01*
X42777619Y-62357142D01*
X43682380Y-63309523D02*
X43682380Y-62738095D01*
X43682380Y-63023809D02*
X42682380Y-63023809D01*
X42825238Y-62928571D01*
X42920476Y-62833333D01*
X42968095Y-62738095D01*
X43110952Y-63880952D02*
X43063333Y-63785714D01*
X43015714Y-63738095D01*
X42920476Y-63690476D01*
X42872857Y-63690476D01*
X42777619Y-63738095D01*
X42730000Y-63785714D01*
X42682380Y-63880952D01*
X42682380Y-64071428D01*
X42730000Y-64166666D01*
X42777619Y-64214285D01*
X42872857Y-64261904D01*
X42920476Y-64261904D01*
X43015714Y-64214285D01*
X43063333Y-64166666D01*
X43110952Y-64071428D01*
X43110952Y-63880952D01*
X43158571Y-63785714D01*
X43206190Y-63738095D01*
X43301428Y-63690476D01*
X43491904Y-63690476D01*
X43587142Y-63738095D01*
X43634761Y-63785714D01*
X43682380Y-63880952D01*
X43682380Y-64071428D01*
X43634761Y-64166666D01*
X43587142Y-64214285D01*
X43491904Y-64261904D01*
X43301428Y-64261904D01*
X43206190Y-64214285D01*
X43158571Y-64166666D01*
X43110952Y-64071428D01*
%TO.C,C15*%
X66757142Y-67169642D02*
X66804761Y-67122023D01*
X66852380Y-66979166D01*
X66852380Y-66883928D01*
X66804761Y-66741071D01*
X66709523Y-66645833D01*
X66614285Y-66598214D01*
X66423809Y-66550595D01*
X66280952Y-66550595D01*
X66090476Y-66598214D01*
X65995238Y-66645833D01*
X65900000Y-66741071D01*
X65852380Y-66883928D01*
X65852380Y-66979166D01*
X65900000Y-67122023D01*
X65947619Y-67169642D01*
X66852380Y-68122023D02*
X66852380Y-67550595D01*
X66852380Y-67836309D02*
X65852380Y-67836309D01*
X65995238Y-67741071D01*
X66090476Y-67645833D01*
X66138095Y-67550595D01*
X65852380Y-69026785D02*
X65852380Y-68550595D01*
X66328571Y-68502976D01*
X66280952Y-68550595D01*
X66233333Y-68645833D01*
X66233333Y-68883928D01*
X66280952Y-68979166D01*
X66328571Y-69026785D01*
X66423809Y-69074404D01*
X66661904Y-69074404D01*
X66757142Y-69026785D01*
X66804761Y-68979166D01*
X66852380Y-68883928D01*
X66852380Y-68645833D01*
X66804761Y-68550595D01*
X66757142Y-68502976D01*
%TO.C,C5*%
X52766666Y-65387142D02*
X52814285Y-65434761D01*
X52957142Y-65482380D01*
X53052380Y-65482380D01*
X53195238Y-65434761D01*
X53290476Y-65339523D01*
X53338095Y-65244285D01*
X53385714Y-65053809D01*
X53385714Y-64910952D01*
X53338095Y-64720476D01*
X53290476Y-64625238D01*
X53195238Y-64530000D01*
X53052380Y-64482380D01*
X52957142Y-64482380D01*
X52814285Y-64530000D01*
X52766666Y-64577619D01*
X51861904Y-64482380D02*
X52338095Y-64482380D01*
X52385714Y-64958571D01*
X52338095Y-64910952D01*
X52242857Y-64863333D01*
X52004761Y-64863333D01*
X51909523Y-64910952D01*
X51861904Y-64958571D01*
X51814285Y-65053809D01*
X51814285Y-65291904D01*
X51861904Y-65387142D01*
X51909523Y-65434761D01*
X52004761Y-65482380D01*
X52242857Y-65482380D01*
X52338095Y-65434761D01*
X52385714Y-65387142D01*
%TD*%
M02*
