%TF.GenerationSoftware,KiCad,Pcbnew,5.1.10-88a1d61d58~88~ubuntu20.04.1*%
%TF.CreationDate,2021-06-20T20:02:36+02:00*%
%TF.ProjectId,bluePillG,626c7565-5069-46c6-9c47-2e6b69636164,rev?*%
%TF.SameCoordinates,Original*%
%TF.FileFunction,Copper,L3,Inr*%
%TF.FilePolarity,Positive*%
%FSLAX46Y46*%
G04 Gerber Fmt 4.6, Leading zero omitted, Abs format (unit mm)*
G04 Created by KiCad (PCBNEW 5.1.10-88a1d61d58~88~ubuntu20.04.1) date 2021-06-20 20:02:36*
%MOMM*%
%LPD*%
G01*
G04 APERTURE LIST*
%TA.AperFunction,ComponentPad*%
%ADD10C,0.800000*%
%TD*%
%TA.AperFunction,ComponentPad*%
%ADD11C,6.400000*%
%TD*%
%TA.AperFunction,ComponentPad*%
%ADD12C,1.320800*%
%TD*%
%TA.AperFunction,ComponentPad*%
%ADD13C,1.676400*%
%TD*%
%TA.AperFunction,ComponentPad*%
%ADD14C,2.000000*%
%TD*%
%TA.AperFunction,ComponentPad*%
%ADD15O,1.700000X1.700000*%
%TD*%
%TA.AperFunction,ComponentPad*%
%ADD16R,1.700000X1.700000*%
%TD*%
%TA.AperFunction,ViaPad*%
%ADD17C,0.800000*%
%TD*%
%TA.AperFunction,Conductor*%
%ADD18C,1.000000*%
%TD*%
%TA.AperFunction,Conductor*%
%ADD19C,0.254000*%
%TD*%
%TA.AperFunction,Conductor*%
%ADD20C,0.100000*%
%TD*%
G04 APERTURE END LIST*
D10*
%TO.N,GND*%
%TO.C,H4*%
X75697056Y-85302944D03*
X74000000Y-84600000D03*
X72302944Y-85302944D03*
X71600000Y-87000000D03*
X72302944Y-88697056D03*
X74000000Y-89400000D03*
X75697056Y-88697056D03*
X76400000Y-87000000D03*
D11*
X74000000Y-87000000D03*
%TD*%
D10*
%TO.N,VCC*%
%TO.C,H3*%
X75697056Y-45302944D03*
X74000000Y-44600000D03*
X72302944Y-45302944D03*
X71600000Y-47000000D03*
X72302944Y-48697056D03*
X74000000Y-49400000D03*
X75697056Y-48697056D03*
X76400000Y-47000000D03*
D11*
X74000000Y-47000000D03*
%TD*%
D12*
%TO.N,Net-(C19-Pad1)*%
%TO.C,Y2*%
X43700000Y-68626000D03*
%TO.N,OSC_IN*%
X43700000Y-63800000D03*
%TD*%
D13*
%TO.N,OSC32_OUT*%
%TO.C,Y1*%
X45800000Y-60200000D03*
%TO.N,OSC32_IN*%
X48340000Y-60200000D03*
%TD*%
D14*
%TO.N,NRST*%
%TO.C,SW1*%
X69600000Y-68600000D03*
%TO.N,GND*%
X69600000Y-73100000D03*
%TO.N,NRST*%
X63100000Y-68600000D03*
%TO.N,GND*%
X63100000Y-73100000D03*
%TD*%
D15*
%TO.N,+3V3*%
%TO.C,J10*%
X38460000Y-81940000D03*
X41000000Y-81940000D03*
X38460000Y-79400000D03*
D16*
X41000000Y-79400000D03*
%TD*%
D15*
%TO.N,GND*%
%TO.C,J9*%
X68200000Y-81940000D03*
X70740000Y-81940000D03*
X68200000Y-79400000D03*
D16*
X70740000Y-79400000D03*
%TD*%
D15*
%TO.N,PB9*%
%TO.C,J8*%
X75400000Y-55740000D03*
%TO.N,PB7*%
X75400000Y-58280000D03*
%TO.N,PB6*%
X75400000Y-60820000D03*
%TO.N,PB5*%
X75400000Y-63360000D03*
%TO.N,PB4*%
X75400000Y-65900000D03*
%TO.N,PB3*%
X75400000Y-68440000D03*
%TO.N,PA15*%
X75400000Y-70980000D03*
%TO.N,PA12*%
X75400000Y-73520000D03*
%TO.N,PA11*%
X75400000Y-76060000D03*
D16*
%TO.N,PA10*%
X75400000Y-78600000D03*
%TD*%
D15*
%TO.N,PA9*%
%TO.C,J7*%
X65260000Y-87400000D03*
%TO.N,PA8*%
X62720000Y-87400000D03*
%TO.N,PB15*%
X60180000Y-87400000D03*
%TO.N,PB14*%
X57640000Y-87400000D03*
%TO.N,PB13*%
X55100000Y-87400000D03*
%TO.N,PB12*%
X52560000Y-87400000D03*
%TO.N,PB11*%
X50020000Y-87400000D03*
%TO.N,PB10*%
X47480000Y-87400000D03*
%TO.N,PB2*%
X44940000Y-87400000D03*
D16*
%TO.N,PB1*%
X42400000Y-87400000D03*
%TD*%
D15*
%TO.N,PB0*%
%TO.C,J6*%
X32400000Y-78540000D03*
%TO.N,PA7*%
X32400000Y-76000000D03*
%TO.N,PA6*%
X32400000Y-73460000D03*
%TO.N,PA5*%
X32400000Y-70920000D03*
%TO.N,PA4*%
X32400000Y-68380000D03*
%TO.N,PA3*%
X32400000Y-65840000D03*
%TO.N,PA2*%
X32400000Y-63300000D03*
%TO.N,PA1*%
X32400000Y-60760000D03*
%TO.N,PA0*%
X32400000Y-58220000D03*
D16*
%TO.N,PC13*%
X32400000Y-55680000D03*
%TD*%
D15*
%TO.N,+5V*%
%TO.C,J5*%
X68600000Y-48140000D03*
D16*
%TO.N,VCC*%
X68600000Y-45600000D03*
%TD*%
D15*
%TO.N,GND*%
%TO.C,J4*%
X40200000Y-47600000D03*
D16*
%TO.N,VCC*%
X40200000Y-45060000D03*
%TD*%
D15*
%TO.N,+3V3S*%
%TO.C,J3*%
X61980000Y-48100000D03*
%TO.N,+3V3*%
X59440000Y-48100000D03*
D16*
%TO.N,+3.3VP*%
X56900000Y-48100000D03*
%TD*%
D15*
%TO.N,GND*%
%TO.C,J2*%
X42880000Y-52200000D03*
%TO.N,Net-(J2-Pad2)*%
X40340000Y-52200000D03*
D16*
%TO.N,+3V3*%
X37800000Y-52200000D03*
%TD*%
D15*
%TO.N,+5V*%
%TO.C,J1*%
X68760000Y-55340000D03*
X68760000Y-52800000D03*
%TO.N,+3V3S*%
X66220000Y-55340000D03*
X66220000Y-52800000D03*
%TO.N,GND*%
X63680000Y-55340000D03*
X63680000Y-52800000D03*
%TO.N,SWDIO*%
X61140000Y-55340000D03*
%TO.N,SWIW*%
X61140000Y-52800000D03*
%TO.N,SWCLK*%
X58600000Y-55340000D03*
D16*
%TO.N,NRST*%
X58600000Y-52800000D03*
%TD*%
D10*
%TO.N,GND*%
%TO.C,H2*%
X35697056Y-85302944D03*
X34000000Y-84600000D03*
X32302944Y-85302944D03*
X31600000Y-87000000D03*
X32302944Y-88697056D03*
X34000000Y-89400000D03*
X35697056Y-88697056D03*
X36400000Y-87000000D03*
D11*
X34000000Y-87000000D03*
%TD*%
D10*
%TO.N,VCC*%
%TO.C,H1*%
X35697056Y-45302944D03*
X34000000Y-44600000D03*
X32302944Y-45302944D03*
X31600000Y-47000000D03*
X32302944Y-48697056D03*
X34000000Y-49400000D03*
X35697056Y-48697056D03*
X36400000Y-47000000D03*
D11*
X34000000Y-47000000D03*
%TD*%
D17*
%TO.N,+3V3*%
X48400000Y-63200000D03*
X50200000Y-60000000D03*
X51200000Y-60000000D03*
X66400000Y-66000000D03*
X59000000Y-73800000D03*
X57400000Y-71600000D03*
X57400000Y-74200000D03*
X59400000Y-50000000D03*
X58200000Y-50000000D03*
X57000000Y-50000000D03*
X55600000Y-50000000D03*
X60800000Y-50000000D03*
X60800000Y-50800000D03*
X59400000Y-50800000D03*
X58200000Y-50800000D03*
X57000000Y-50800000D03*
X55600000Y-50800000D03*
X54600000Y-50800000D03*
X54600000Y-50000000D03*
X54600000Y-52000000D03*
X55600000Y-52000000D03*
X43600000Y-55800000D03*
X51812500Y-63600000D03*
X61500000Y-62400000D03*
X58300000Y-62400000D03*
%TO.N,GND*%
X50200000Y-61400000D03*
X48200000Y-56000000D03*
X45800000Y-56000000D03*
X50200000Y-56600000D03*
X51600000Y-56600000D03*
X52600000Y-57800000D03*
X56200000Y-68800000D03*
X54400000Y-68800000D03*
X61200000Y-71400000D03*
X61200000Y-72600000D03*
X56800000Y-76200000D03*
X54400000Y-77400000D03*
X51800000Y-76200000D03*
X58300000Y-60800000D03*
X61500000Y-60800000D03*
X56200000Y-43400000D03*
X63400000Y-45000000D03*
X50000000Y-50600000D03*
X49200000Y-50600000D03*
X48200000Y-52200000D03*
X51600000Y-52600000D03*
X51600000Y-53600000D03*
X50600000Y-53600000D03*
X49400000Y-53600000D03*
X48200000Y-53600000D03*
X46800000Y-53600000D03*
X45400000Y-53600000D03*
X48000000Y-50800000D03*
X45800000Y-51000000D03*
X52600000Y-52600000D03*
X52600000Y-53600000D03*
X47000000Y-50800000D03*
X48000000Y-49800000D03*
X47000000Y-49800000D03*
X60400000Y-63775000D03*
X41500000Y-66200000D03*
X39550000Y-66200000D03*
%TO.N,NRST*%
X52800000Y-66600000D03*
%TO.N,PC13*%
X51800000Y-64800000D03*
X43200000Y-59400000D03*
%TO.N,PB9*%
X55650000Y-63575000D03*
%TO.N,SWCLK*%
X57000000Y-59775000D03*
%TO.N,SWDIO*%
X58450000Y-59675000D03*
%TO.N,PA11*%
X57000000Y-65000000D03*
%TO.N,PB13*%
X60655185Y-67801488D03*
%TO.N,PB10*%
X56213000Y-72000000D03*
%TO.N,PA3*%
X52200000Y-68600000D03*
%TO.N,PA2*%
X51400000Y-67800000D03*
%TD*%
D18*
%TO.N,VCC*%
X68600000Y-45600000D02*
X66600000Y-45600000D01*
X64899999Y-43899999D02*
X59100001Y-43899999D01*
X66600000Y-45600000D02*
X64899999Y-43899999D01*
X57940000Y-45060000D02*
X40200000Y-45060000D01*
X59100001Y-43899999D02*
X57940000Y-45060000D01*
%TD*%
D19*
%TO.N,+3V3*%
X55396063Y-42740226D02*
X55282795Y-42909744D01*
X55204774Y-43098102D01*
X55165000Y-43298061D01*
X55165000Y-43501939D01*
X55204774Y-43701898D01*
X55282795Y-43890256D01*
X55306010Y-43925000D01*
X41617683Y-43925000D01*
X41580537Y-43855506D01*
X41501185Y-43758815D01*
X41404494Y-43679463D01*
X41294180Y-43620498D01*
X41174482Y-43584188D01*
X41050000Y-43571928D01*
X39350000Y-43571928D01*
X39225518Y-43584188D01*
X39105820Y-43620498D01*
X38995506Y-43679463D01*
X38898815Y-43758815D01*
X38819463Y-43855506D01*
X38760498Y-43965820D01*
X38724188Y-44085518D01*
X38711928Y-44210000D01*
X38711928Y-45910000D01*
X38724188Y-46034482D01*
X38760498Y-46154180D01*
X38819463Y-46264494D01*
X38898815Y-46361185D01*
X38995506Y-46440537D01*
X39105820Y-46499502D01*
X39178380Y-46521513D01*
X39046525Y-46653368D01*
X38884010Y-46896589D01*
X38772068Y-47166842D01*
X38715000Y-47453740D01*
X38715000Y-47746260D01*
X38772068Y-48033158D01*
X38884010Y-48303411D01*
X39046525Y-48546632D01*
X39253368Y-48753475D01*
X39496589Y-48915990D01*
X39766842Y-49027932D01*
X40053740Y-49085000D01*
X40346260Y-49085000D01*
X40633158Y-49027932D01*
X40903411Y-48915990D01*
X41146632Y-48753475D01*
X41353475Y-48546632D01*
X41515990Y-48303411D01*
X41627932Y-48033158D01*
X41685000Y-47746260D01*
X41685000Y-47453740D01*
X41644474Y-47250000D01*
X55411928Y-47250000D01*
X55411928Y-48950000D01*
X55424188Y-49074482D01*
X55460498Y-49194180D01*
X55519463Y-49304494D01*
X55598815Y-49401185D01*
X55695506Y-49480537D01*
X55805820Y-49539502D01*
X55925518Y-49575812D01*
X56050000Y-49588072D01*
X57750000Y-49588072D01*
X57874482Y-49575812D01*
X57994180Y-49539502D01*
X58104494Y-49480537D01*
X58201185Y-49401185D01*
X58280537Y-49304494D01*
X58339502Y-49194180D01*
X58363966Y-49113534D01*
X58439731Y-49197588D01*
X58673080Y-49371641D01*
X58935901Y-49496825D01*
X59083110Y-49541476D01*
X59313000Y-49420155D01*
X59313000Y-48227000D01*
X59293000Y-48227000D01*
X59293000Y-47973000D01*
X59313000Y-47973000D01*
X59313000Y-46779845D01*
X59567000Y-46779845D01*
X59567000Y-47973000D01*
X59587000Y-47973000D01*
X59587000Y-48227000D01*
X59567000Y-48227000D01*
X59567000Y-49420155D01*
X59796890Y-49541476D01*
X59944099Y-49496825D01*
X60206920Y-49371641D01*
X60440269Y-49197588D01*
X60635178Y-48981355D01*
X60704805Y-48864466D01*
X60826525Y-49046632D01*
X61033368Y-49253475D01*
X61276589Y-49415990D01*
X61546842Y-49527932D01*
X61833740Y-49585000D01*
X62126260Y-49585000D01*
X62413158Y-49527932D01*
X62683411Y-49415990D01*
X62926632Y-49253475D01*
X63133475Y-49046632D01*
X63295990Y-48803411D01*
X63407932Y-48533158D01*
X63465000Y-48246260D01*
X63465000Y-47953740D01*
X63407932Y-47666842D01*
X63295990Y-47396589D01*
X63133475Y-47153368D01*
X62926632Y-46946525D01*
X62683411Y-46784010D01*
X62413158Y-46672068D01*
X62126260Y-46615000D01*
X61833740Y-46615000D01*
X61546842Y-46672068D01*
X61276589Y-46784010D01*
X61033368Y-46946525D01*
X60826525Y-47153368D01*
X60704805Y-47335534D01*
X60635178Y-47218645D01*
X60440269Y-47002412D01*
X60206920Y-46828359D01*
X59944099Y-46703175D01*
X59796890Y-46658524D01*
X59567000Y-46779845D01*
X59313000Y-46779845D01*
X59083110Y-46658524D01*
X58935901Y-46703175D01*
X58673080Y-46828359D01*
X58439731Y-47002412D01*
X58363966Y-47086466D01*
X58339502Y-47005820D01*
X58280537Y-46895506D01*
X58201185Y-46798815D01*
X58104494Y-46719463D01*
X57994180Y-46660498D01*
X57874482Y-46624188D01*
X57750000Y-46611928D01*
X56050000Y-46611928D01*
X55925518Y-46624188D01*
X55805820Y-46660498D01*
X55695506Y-46719463D01*
X55598815Y-46798815D01*
X55519463Y-46895506D01*
X55460498Y-47005820D01*
X55424188Y-47125518D01*
X55411928Y-47250000D01*
X41644474Y-47250000D01*
X41627932Y-47166842D01*
X41515990Y-46896589D01*
X41353475Y-46653368D01*
X41221620Y-46521513D01*
X41294180Y-46499502D01*
X41404494Y-46440537D01*
X41501185Y-46361185D01*
X41580537Y-46264494D01*
X41617683Y-46195000D01*
X57884249Y-46195000D01*
X57940000Y-46200491D01*
X57995751Y-46195000D01*
X57995752Y-46195000D01*
X58162499Y-46178577D01*
X58376447Y-46113676D01*
X58573623Y-46008284D01*
X58746449Y-45866449D01*
X58781996Y-45823136D01*
X59570133Y-45034999D01*
X62365000Y-45034999D01*
X62365000Y-45101939D01*
X62404774Y-45301898D01*
X62482795Y-45490256D01*
X62596063Y-45659774D01*
X62740226Y-45803937D01*
X62909744Y-45917205D01*
X63098102Y-45995226D01*
X63298061Y-46035000D01*
X63501939Y-46035000D01*
X63701898Y-45995226D01*
X63890256Y-45917205D01*
X64059774Y-45803937D01*
X64203937Y-45659774D01*
X64317205Y-45490256D01*
X64395226Y-45301898D01*
X64435000Y-45101939D01*
X64435000Y-45040131D01*
X65758009Y-46363140D01*
X65793551Y-46406449D01*
X65966377Y-46548284D01*
X66163553Y-46653676D01*
X66377501Y-46718577D01*
X66544248Y-46735000D01*
X66544257Y-46735000D01*
X66599999Y-46740490D01*
X66655741Y-46735000D01*
X67182317Y-46735000D01*
X67219463Y-46804494D01*
X67298815Y-46901185D01*
X67395506Y-46980537D01*
X67505820Y-47039502D01*
X67578380Y-47061513D01*
X67446525Y-47193368D01*
X67284010Y-47436589D01*
X67172068Y-47706842D01*
X67115000Y-47993740D01*
X67115000Y-48286260D01*
X67172068Y-48573158D01*
X67284010Y-48843411D01*
X67446525Y-49086632D01*
X67653368Y-49293475D01*
X67896589Y-49455990D01*
X68166842Y-49567932D01*
X68453740Y-49625000D01*
X68746260Y-49625000D01*
X69033158Y-49567932D01*
X69303411Y-49455990D01*
X69546632Y-49293475D01*
X69753475Y-49086632D01*
X69915990Y-48843411D01*
X70027932Y-48573158D01*
X70085000Y-48286260D01*
X70085000Y-47993740D01*
X70027932Y-47706842D01*
X69915990Y-47436589D01*
X69753475Y-47193368D01*
X69621620Y-47061513D01*
X69694180Y-47039502D01*
X69804494Y-46980537D01*
X69901185Y-46901185D01*
X69980537Y-46804494D01*
X70039502Y-46694180D01*
X70061311Y-46622285D01*
X70165000Y-46622285D01*
X70165000Y-47377715D01*
X70312377Y-48118628D01*
X70601467Y-48816554D01*
X71021161Y-49444670D01*
X71555330Y-49978839D01*
X72183446Y-50398533D01*
X72881372Y-50687623D01*
X73622285Y-50835000D01*
X74377715Y-50835000D01*
X75118628Y-50687623D01*
X75816554Y-50398533D01*
X76444670Y-49978839D01*
X76978839Y-49444670D01*
X77398533Y-48816554D01*
X77687623Y-48118628D01*
X77835000Y-47377715D01*
X77835000Y-46622285D01*
X77687623Y-45881372D01*
X77398533Y-45183446D01*
X76978839Y-44555330D01*
X76444670Y-44021161D01*
X75816554Y-43601467D01*
X75118628Y-43312377D01*
X74377715Y-43165000D01*
X73622285Y-43165000D01*
X72881372Y-43312377D01*
X72183446Y-43601467D01*
X71555330Y-44021161D01*
X71021161Y-44555330D01*
X70601467Y-45183446D01*
X70312377Y-45881372D01*
X70165000Y-46622285D01*
X70061311Y-46622285D01*
X70075812Y-46574482D01*
X70088072Y-46450000D01*
X70088072Y-44750000D01*
X70075812Y-44625518D01*
X70039502Y-44505820D01*
X69980537Y-44395506D01*
X69901185Y-44298815D01*
X69804494Y-44219463D01*
X69694180Y-44160498D01*
X69574482Y-44124188D01*
X69450000Y-44111928D01*
X67750000Y-44111928D01*
X67625518Y-44124188D01*
X67505820Y-44160498D01*
X67395506Y-44219463D01*
X67298815Y-44298815D01*
X67219463Y-44395506D01*
X67182317Y-44465000D01*
X67070132Y-44465000D01*
X65741995Y-43136864D01*
X65706448Y-43093550D01*
X65533622Y-42951715D01*
X65336446Y-42846323D01*
X65122498Y-42781422D01*
X64955751Y-42764999D01*
X64955750Y-42764999D01*
X64899999Y-42759508D01*
X64844248Y-42764999D01*
X59155752Y-42764999D01*
X59100000Y-42759508D01*
X58877501Y-42781422D01*
X58840574Y-42792624D01*
X58663554Y-42846323D01*
X58466378Y-42951715D01*
X58293552Y-43093550D01*
X58258009Y-43136859D01*
X57469869Y-43925000D01*
X57093990Y-43925000D01*
X57117205Y-43890256D01*
X57195226Y-43701898D01*
X57235000Y-43501939D01*
X57235000Y-43298061D01*
X57195226Y-43098102D01*
X57117205Y-42909744D01*
X57003937Y-42740226D01*
X56923711Y-42660000D01*
X73970608Y-42660000D01*
X74768083Y-42731173D01*
X75511891Y-42934656D01*
X76207905Y-43266638D01*
X76834130Y-43716626D01*
X77370777Y-44270403D01*
X77800871Y-44910451D01*
X78110829Y-45616553D01*
X78292065Y-46371457D01*
X78340000Y-47024207D01*
X78340001Y-85972899D01*
X78266098Y-86871802D01*
X78052999Y-87720180D01*
X77704197Y-88522371D01*
X77229062Y-89256818D01*
X76640354Y-89903799D01*
X75953875Y-90445946D01*
X75188076Y-90868691D01*
X74363514Y-91160683D01*
X73490925Y-91316116D01*
X72984453Y-91340000D01*
X35027089Y-91340000D01*
X34128198Y-91266098D01*
X33279820Y-91052999D01*
X32477629Y-90704197D01*
X31743182Y-90229062D01*
X31096201Y-89640354D01*
X30554054Y-88953875D01*
X30131309Y-88188076D01*
X29839317Y-87363514D01*
X29707283Y-86622285D01*
X30165000Y-86622285D01*
X30165000Y-87377715D01*
X30312377Y-88118628D01*
X30601467Y-88816554D01*
X31021161Y-89444670D01*
X31555330Y-89978839D01*
X32183446Y-90398533D01*
X32881372Y-90687623D01*
X33622285Y-90835000D01*
X34377715Y-90835000D01*
X35118628Y-90687623D01*
X35816554Y-90398533D01*
X36444670Y-89978839D01*
X36978839Y-89444670D01*
X37398533Y-88816554D01*
X37687623Y-88118628D01*
X37835000Y-87377715D01*
X37835000Y-86622285D01*
X37820622Y-86550000D01*
X40911928Y-86550000D01*
X40911928Y-88250000D01*
X40924188Y-88374482D01*
X40960498Y-88494180D01*
X41019463Y-88604494D01*
X41098815Y-88701185D01*
X41195506Y-88780537D01*
X41305820Y-88839502D01*
X41425518Y-88875812D01*
X41550000Y-88888072D01*
X43250000Y-88888072D01*
X43374482Y-88875812D01*
X43494180Y-88839502D01*
X43604494Y-88780537D01*
X43701185Y-88701185D01*
X43780537Y-88604494D01*
X43839502Y-88494180D01*
X43861513Y-88421620D01*
X43993368Y-88553475D01*
X44236589Y-88715990D01*
X44506842Y-88827932D01*
X44793740Y-88885000D01*
X45086260Y-88885000D01*
X45373158Y-88827932D01*
X45643411Y-88715990D01*
X45886632Y-88553475D01*
X46093475Y-88346632D01*
X46210000Y-88172240D01*
X46326525Y-88346632D01*
X46533368Y-88553475D01*
X46776589Y-88715990D01*
X47046842Y-88827932D01*
X47333740Y-88885000D01*
X47626260Y-88885000D01*
X47913158Y-88827932D01*
X48183411Y-88715990D01*
X48426632Y-88553475D01*
X48633475Y-88346632D01*
X48750000Y-88172240D01*
X48866525Y-88346632D01*
X49073368Y-88553475D01*
X49316589Y-88715990D01*
X49586842Y-88827932D01*
X49873740Y-88885000D01*
X50166260Y-88885000D01*
X50453158Y-88827932D01*
X50723411Y-88715990D01*
X50966632Y-88553475D01*
X51173475Y-88346632D01*
X51290000Y-88172240D01*
X51406525Y-88346632D01*
X51613368Y-88553475D01*
X51856589Y-88715990D01*
X52126842Y-88827932D01*
X52413740Y-88885000D01*
X52706260Y-88885000D01*
X52993158Y-88827932D01*
X53263411Y-88715990D01*
X53506632Y-88553475D01*
X53713475Y-88346632D01*
X53830000Y-88172240D01*
X53946525Y-88346632D01*
X54153368Y-88553475D01*
X54396589Y-88715990D01*
X54666842Y-88827932D01*
X54953740Y-88885000D01*
X55246260Y-88885000D01*
X55533158Y-88827932D01*
X55803411Y-88715990D01*
X56046632Y-88553475D01*
X56253475Y-88346632D01*
X56370000Y-88172240D01*
X56486525Y-88346632D01*
X56693368Y-88553475D01*
X56936589Y-88715990D01*
X57206842Y-88827932D01*
X57493740Y-88885000D01*
X57786260Y-88885000D01*
X58073158Y-88827932D01*
X58343411Y-88715990D01*
X58586632Y-88553475D01*
X58793475Y-88346632D01*
X58910000Y-88172240D01*
X59026525Y-88346632D01*
X59233368Y-88553475D01*
X59476589Y-88715990D01*
X59746842Y-88827932D01*
X60033740Y-88885000D01*
X60326260Y-88885000D01*
X60613158Y-88827932D01*
X60883411Y-88715990D01*
X61126632Y-88553475D01*
X61333475Y-88346632D01*
X61450000Y-88172240D01*
X61566525Y-88346632D01*
X61773368Y-88553475D01*
X62016589Y-88715990D01*
X62286842Y-88827932D01*
X62573740Y-88885000D01*
X62866260Y-88885000D01*
X63153158Y-88827932D01*
X63423411Y-88715990D01*
X63666632Y-88553475D01*
X63873475Y-88346632D01*
X63990000Y-88172240D01*
X64106525Y-88346632D01*
X64313368Y-88553475D01*
X64556589Y-88715990D01*
X64826842Y-88827932D01*
X65113740Y-88885000D01*
X65406260Y-88885000D01*
X65693158Y-88827932D01*
X65963411Y-88715990D01*
X66206632Y-88553475D01*
X66413475Y-88346632D01*
X66575990Y-88103411D01*
X66687932Y-87833158D01*
X66745000Y-87546260D01*
X66745000Y-87253740D01*
X66687932Y-86966842D01*
X66575990Y-86696589D01*
X66526342Y-86622285D01*
X70165000Y-86622285D01*
X70165000Y-87377715D01*
X70312377Y-88118628D01*
X70601467Y-88816554D01*
X71021161Y-89444670D01*
X71555330Y-89978839D01*
X72183446Y-90398533D01*
X72881372Y-90687623D01*
X73622285Y-90835000D01*
X74377715Y-90835000D01*
X75118628Y-90687623D01*
X75816554Y-90398533D01*
X76444670Y-89978839D01*
X76978839Y-89444670D01*
X77398533Y-88816554D01*
X77687623Y-88118628D01*
X77835000Y-87377715D01*
X77835000Y-86622285D01*
X77687623Y-85881372D01*
X77398533Y-85183446D01*
X76978839Y-84555330D01*
X76444670Y-84021161D01*
X75816554Y-83601467D01*
X75118628Y-83312377D01*
X74377715Y-83165000D01*
X73622285Y-83165000D01*
X72881372Y-83312377D01*
X72183446Y-83601467D01*
X71555330Y-84021161D01*
X71021161Y-84555330D01*
X70601467Y-85183446D01*
X70312377Y-85881372D01*
X70165000Y-86622285D01*
X66526342Y-86622285D01*
X66413475Y-86453368D01*
X66206632Y-86246525D01*
X65963411Y-86084010D01*
X65693158Y-85972068D01*
X65406260Y-85915000D01*
X65113740Y-85915000D01*
X64826842Y-85972068D01*
X64556589Y-86084010D01*
X64313368Y-86246525D01*
X64106525Y-86453368D01*
X63990000Y-86627760D01*
X63873475Y-86453368D01*
X63666632Y-86246525D01*
X63423411Y-86084010D01*
X63153158Y-85972068D01*
X62866260Y-85915000D01*
X62573740Y-85915000D01*
X62286842Y-85972068D01*
X62016589Y-86084010D01*
X61773368Y-86246525D01*
X61566525Y-86453368D01*
X61450000Y-86627760D01*
X61333475Y-86453368D01*
X61126632Y-86246525D01*
X60883411Y-86084010D01*
X60613158Y-85972068D01*
X60326260Y-85915000D01*
X60033740Y-85915000D01*
X59746842Y-85972068D01*
X59476589Y-86084010D01*
X59233368Y-86246525D01*
X59026525Y-86453368D01*
X58910000Y-86627760D01*
X58793475Y-86453368D01*
X58586632Y-86246525D01*
X58343411Y-86084010D01*
X58073158Y-85972068D01*
X57786260Y-85915000D01*
X57493740Y-85915000D01*
X57206842Y-85972068D01*
X56936589Y-86084010D01*
X56693368Y-86246525D01*
X56486525Y-86453368D01*
X56370000Y-86627760D01*
X56253475Y-86453368D01*
X56046632Y-86246525D01*
X55803411Y-86084010D01*
X55533158Y-85972068D01*
X55246260Y-85915000D01*
X54953740Y-85915000D01*
X54666842Y-85972068D01*
X54396589Y-86084010D01*
X54153368Y-86246525D01*
X53946525Y-86453368D01*
X53830000Y-86627760D01*
X53713475Y-86453368D01*
X53506632Y-86246525D01*
X53263411Y-86084010D01*
X52993158Y-85972068D01*
X52706260Y-85915000D01*
X52413740Y-85915000D01*
X52126842Y-85972068D01*
X51856589Y-86084010D01*
X51613368Y-86246525D01*
X51406525Y-86453368D01*
X51290000Y-86627760D01*
X51173475Y-86453368D01*
X50966632Y-86246525D01*
X50723411Y-86084010D01*
X50453158Y-85972068D01*
X50166260Y-85915000D01*
X49873740Y-85915000D01*
X49586842Y-85972068D01*
X49316589Y-86084010D01*
X49073368Y-86246525D01*
X48866525Y-86453368D01*
X48750000Y-86627760D01*
X48633475Y-86453368D01*
X48426632Y-86246525D01*
X48183411Y-86084010D01*
X47913158Y-85972068D01*
X47626260Y-85915000D01*
X47333740Y-85915000D01*
X47046842Y-85972068D01*
X46776589Y-86084010D01*
X46533368Y-86246525D01*
X46326525Y-86453368D01*
X46210000Y-86627760D01*
X46093475Y-86453368D01*
X45886632Y-86246525D01*
X45643411Y-86084010D01*
X45373158Y-85972068D01*
X45086260Y-85915000D01*
X44793740Y-85915000D01*
X44506842Y-85972068D01*
X44236589Y-86084010D01*
X43993368Y-86246525D01*
X43861513Y-86378380D01*
X43839502Y-86305820D01*
X43780537Y-86195506D01*
X43701185Y-86098815D01*
X43604494Y-86019463D01*
X43494180Y-85960498D01*
X43374482Y-85924188D01*
X43250000Y-85911928D01*
X41550000Y-85911928D01*
X41425518Y-85924188D01*
X41305820Y-85960498D01*
X41195506Y-86019463D01*
X41098815Y-86098815D01*
X41019463Y-86195506D01*
X40960498Y-86305820D01*
X40924188Y-86425518D01*
X40911928Y-86550000D01*
X37820622Y-86550000D01*
X37687623Y-85881372D01*
X37398533Y-85183446D01*
X36978839Y-84555330D01*
X36444670Y-84021161D01*
X35816554Y-83601467D01*
X35118628Y-83312377D01*
X34377715Y-83165000D01*
X33622285Y-83165000D01*
X32881372Y-83312377D01*
X32183446Y-83601467D01*
X31555330Y-84021161D01*
X31021161Y-84555330D01*
X30601467Y-85183446D01*
X30312377Y-85881372D01*
X30165000Y-86622285D01*
X29707283Y-86622285D01*
X29683884Y-86490925D01*
X29660000Y-85984453D01*
X29660000Y-82296890D01*
X37018524Y-82296890D01*
X37063175Y-82444099D01*
X37188359Y-82706920D01*
X37362412Y-82940269D01*
X37578645Y-83135178D01*
X37828748Y-83284157D01*
X38103109Y-83381481D01*
X38333000Y-83260814D01*
X38333000Y-82067000D01*
X38587000Y-82067000D01*
X38587000Y-83260814D01*
X38816891Y-83381481D01*
X39091252Y-83284157D01*
X39341355Y-83135178D01*
X39557588Y-82940269D01*
X39730000Y-82709120D01*
X39902412Y-82940269D01*
X40118645Y-83135178D01*
X40368748Y-83284157D01*
X40643109Y-83381481D01*
X40873000Y-83260814D01*
X40873000Y-82067000D01*
X41127000Y-82067000D01*
X41127000Y-83260814D01*
X41356891Y-83381481D01*
X41631252Y-83284157D01*
X41881355Y-83135178D01*
X42097588Y-82940269D01*
X42271641Y-82706920D01*
X42396825Y-82444099D01*
X42441476Y-82296890D01*
X42320155Y-82067000D01*
X41127000Y-82067000D01*
X40873000Y-82067000D01*
X38587000Y-82067000D01*
X38333000Y-82067000D01*
X37139845Y-82067000D01*
X37018524Y-82296890D01*
X29660000Y-82296890D01*
X29660000Y-54830000D01*
X30911928Y-54830000D01*
X30911928Y-56530000D01*
X30924188Y-56654482D01*
X30960498Y-56774180D01*
X31019463Y-56884494D01*
X31098815Y-56981185D01*
X31195506Y-57060537D01*
X31305820Y-57119502D01*
X31378380Y-57141513D01*
X31246525Y-57273368D01*
X31084010Y-57516589D01*
X30972068Y-57786842D01*
X30915000Y-58073740D01*
X30915000Y-58366260D01*
X30972068Y-58653158D01*
X31084010Y-58923411D01*
X31246525Y-59166632D01*
X31453368Y-59373475D01*
X31627760Y-59490000D01*
X31453368Y-59606525D01*
X31246525Y-59813368D01*
X31084010Y-60056589D01*
X30972068Y-60326842D01*
X30915000Y-60613740D01*
X30915000Y-60906260D01*
X30972068Y-61193158D01*
X31084010Y-61463411D01*
X31246525Y-61706632D01*
X31453368Y-61913475D01*
X31627760Y-62030000D01*
X31453368Y-62146525D01*
X31246525Y-62353368D01*
X31084010Y-62596589D01*
X30972068Y-62866842D01*
X30915000Y-63153740D01*
X30915000Y-63446260D01*
X30972068Y-63733158D01*
X31084010Y-64003411D01*
X31246525Y-64246632D01*
X31453368Y-64453475D01*
X31627760Y-64570000D01*
X31453368Y-64686525D01*
X31246525Y-64893368D01*
X31084010Y-65136589D01*
X30972068Y-65406842D01*
X30915000Y-65693740D01*
X30915000Y-65986260D01*
X30972068Y-66273158D01*
X31084010Y-66543411D01*
X31246525Y-66786632D01*
X31453368Y-66993475D01*
X31627760Y-67110000D01*
X31453368Y-67226525D01*
X31246525Y-67433368D01*
X31084010Y-67676589D01*
X30972068Y-67946842D01*
X30915000Y-68233740D01*
X30915000Y-68526260D01*
X30972068Y-68813158D01*
X31084010Y-69083411D01*
X31246525Y-69326632D01*
X31453368Y-69533475D01*
X31627760Y-69650000D01*
X31453368Y-69766525D01*
X31246525Y-69973368D01*
X31084010Y-70216589D01*
X30972068Y-70486842D01*
X30915000Y-70773740D01*
X30915000Y-71066260D01*
X30972068Y-71353158D01*
X31084010Y-71623411D01*
X31246525Y-71866632D01*
X31453368Y-72073475D01*
X31627760Y-72190000D01*
X31453368Y-72306525D01*
X31246525Y-72513368D01*
X31084010Y-72756589D01*
X30972068Y-73026842D01*
X30915000Y-73313740D01*
X30915000Y-73606260D01*
X30972068Y-73893158D01*
X31084010Y-74163411D01*
X31246525Y-74406632D01*
X31453368Y-74613475D01*
X31627760Y-74730000D01*
X31453368Y-74846525D01*
X31246525Y-75053368D01*
X31084010Y-75296589D01*
X30972068Y-75566842D01*
X30915000Y-75853740D01*
X30915000Y-76146260D01*
X30972068Y-76433158D01*
X31084010Y-76703411D01*
X31246525Y-76946632D01*
X31453368Y-77153475D01*
X31627760Y-77270000D01*
X31453368Y-77386525D01*
X31246525Y-77593368D01*
X31084010Y-77836589D01*
X30972068Y-78106842D01*
X30915000Y-78393740D01*
X30915000Y-78686260D01*
X30972068Y-78973158D01*
X31084010Y-79243411D01*
X31246525Y-79486632D01*
X31453368Y-79693475D01*
X31696589Y-79855990D01*
X31966842Y-79967932D01*
X32253740Y-80025000D01*
X32546260Y-80025000D01*
X32833158Y-79967932D01*
X33103411Y-79855990D01*
X33251724Y-79756890D01*
X37018524Y-79756890D01*
X37063175Y-79904099D01*
X37188359Y-80166920D01*
X37362412Y-80400269D01*
X37578645Y-80595178D01*
X37704255Y-80670000D01*
X37578645Y-80744822D01*
X37362412Y-80939731D01*
X37188359Y-81173080D01*
X37063175Y-81435901D01*
X37018524Y-81583110D01*
X37139845Y-81813000D01*
X38333000Y-81813000D01*
X38333000Y-79527000D01*
X38587000Y-79527000D01*
X38587000Y-81813000D01*
X40873000Y-81813000D01*
X40873000Y-79527000D01*
X41127000Y-79527000D01*
X41127000Y-81813000D01*
X42320155Y-81813000D01*
X42441476Y-81583110D01*
X42396825Y-81435901D01*
X42271641Y-81173080D01*
X42097588Y-80939731D01*
X42013534Y-80863966D01*
X42094180Y-80839502D01*
X42204494Y-80780537D01*
X42301185Y-80701185D01*
X42380537Y-80604494D01*
X42439502Y-80494180D01*
X42475812Y-80374482D01*
X42488072Y-80250000D01*
X42485000Y-79685750D01*
X42326250Y-79527000D01*
X41127000Y-79527000D01*
X40873000Y-79527000D01*
X38587000Y-79527000D01*
X38333000Y-79527000D01*
X37139845Y-79527000D01*
X37018524Y-79756890D01*
X33251724Y-79756890D01*
X33346632Y-79693475D01*
X33553475Y-79486632D01*
X33715990Y-79243411D01*
X33798957Y-79043110D01*
X37018524Y-79043110D01*
X37139845Y-79273000D01*
X38333000Y-79273000D01*
X38333000Y-78079186D01*
X38587000Y-78079186D01*
X38587000Y-79273000D01*
X40873000Y-79273000D01*
X40873000Y-78073750D01*
X41127000Y-78073750D01*
X41127000Y-79273000D01*
X42326250Y-79273000D01*
X42345510Y-79253740D01*
X66715000Y-79253740D01*
X66715000Y-79546260D01*
X66772068Y-79833158D01*
X66884010Y-80103411D01*
X67046525Y-80346632D01*
X67253368Y-80553475D01*
X67427760Y-80670000D01*
X67253368Y-80786525D01*
X67046525Y-80993368D01*
X66884010Y-81236589D01*
X66772068Y-81506842D01*
X66715000Y-81793740D01*
X66715000Y-82086260D01*
X66772068Y-82373158D01*
X66884010Y-82643411D01*
X67046525Y-82886632D01*
X67253368Y-83093475D01*
X67496589Y-83255990D01*
X67766842Y-83367932D01*
X68053740Y-83425000D01*
X68346260Y-83425000D01*
X68633158Y-83367932D01*
X68903411Y-83255990D01*
X69146632Y-83093475D01*
X69353475Y-82886632D01*
X69470000Y-82712240D01*
X69586525Y-82886632D01*
X69793368Y-83093475D01*
X70036589Y-83255990D01*
X70306842Y-83367932D01*
X70593740Y-83425000D01*
X70886260Y-83425000D01*
X71173158Y-83367932D01*
X71443411Y-83255990D01*
X71686632Y-83093475D01*
X71893475Y-82886632D01*
X72055990Y-82643411D01*
X72167932Y-82373158D01*
X72225000Y-82086260D01*
X72225000Y-81793740D01*
X72167932Y-81506842D01*
X72055990Y-81236589D01*
X71893475Y-80993368D01*
X71761620Y-80861513D01*
X71834180Y-80839502D01*
X71944494Y-80780537D01*
X72041185Y-80701185D01*
X72120537Y-80604494D01*
X72179502Y-80494180D01*
X72215812Y-80374482D01*
X72228072Y-80250000D01*
X72228072Y-78550000D01*
X72215812Y-78425518D01*
X72179502Y-78305820D01*
X72120537Y-78195506D01*
X72041185Y-78098815D01*
X71944494Y-78019463D01*
X71834180Y-77960498D01*
X71714482Y-77924188D01*
X71590000Y-77911928D01*
X69890000Y-77911928D01*
X69765518Y-77924188D01*
X69645820Y-77960498D01*
X69535506Y-78019463D01*
X69438815Y-78098815D01*
X69359463Y-78195506D01*
X69300498Y-78305820D01*
X69278487Y-78378380D01*
X69146632Y-78246525D01*
X68903411Y-78084010D01*
X68633158Y-77972068D01*
X68346260Y-77915000D01*
X68053740Y-77915000D01*
X67766842Y-77972068D01*
X67496589Y-78084010D01*
X67253368Y-78246525D01*
X67046525Y-78453368D01*
X66884010Y-78696589D01*
X66772068Y-78966842D01*
X66715000Y-79253740D01*
X42345510Y-79253740D01*
X42485000Y-79114250D01*
X42488072Y-78550000D01*
X42475812Y-78425518D01*
X42439502Y-78305820D01*
X42380537Y-78195506D01*
X42301185Y-78098815D01*
X42204494Y-78019463D01*
X42094180Y-77960498D01*
X41974482Y-77924188D01*
X41850000Y-77911928D01*
X41285750Y-77915000D01*
X41127000Y-78073750D01*
X40873000Y-78073750D01*
X40714250Y-77915000D01*
X40150000Y-77911928D01*
X40025518Y-77924188D01*
X39905820Y-77960498D01*
X39795506Y-78019463D01*
X39698815Y-78098815D01*
X39619463Y-78195506D01*
X39560498Y-78305820D01*
X39537502Y-78381626D01*
X39341355Y-78204822D01*
X39091252Y-78055843D01*
X38816891Y-77958519D01*
X38587000Y-78079186D01*
X38333000Y-78079186D01*
X38103109Y-77958519D01*
X37828748Y-78055843D01*
X37578645Y-78204822D01*
X37362412Y-78399731D01*
X37188359Y-78633080D01*
X37063175Y-78895901D01*
X37018524Y-79043110D01*
X33798957Y-79043110D01*
X33827932Y-78973158D01*
X33885000Y-78686260D01*
X33885000Y-78393740D01*
X33827932Y-78106842D01*
X33715990Y-77836589D01*
X33553475Y-77593368D01*
X33346632Y-77386525D01*
X33214237Y-77298061D01*
X53365000Y-77298061D01*
X53365000Y-77501939D01*
X53404774Y-77701898D01*
X53482795Y-77890256D01*
X53596063Y-78059774D01*
X53740226Y-78203937D01*
X53909744Y-78317205D01*
X54098102Y-78395226D01*
X54298061Y-78435000D01*
X54501939Y-78435000D01*
X54701898Y-78395226D01*
X54890256Y-78317205D01*
X55059774Y-78203937D01*
X55203937Y-78059774D01*
X55317205Y-77890256D01*
X55375301Y-77750000D01*
X73911928Y-77750000D01*
X73911928Y-79450000D01*
X73924188Y-79574482D01*
X73960498Y-79694180D01*
X74019463Y-79804494D01*
X74098815Y-79901185D01*
X74195506Y-79980537D01*
X74305820Y-80039502D01*
X74425518Y-80075812D01*
X74550000Y-80088072D01*
X76250000Y-80088072D01*
X76374482Y-80075812D01*
X76494180Y-80039502D01*
X76604494Y-79980537D01*
X76701185Y-79901185D01*
X76780537Y-79804494D01*
X76839502Y-79694180D01*
X76875812Y-79574482D01*
X76888072Y-79450000D01*
X76888072Y-77750000D01*
X76875812Y-77625518D01*
X76839502Y-77505820D01*
X76780537Y-77395506D01*
X76701185Y-77298815D01*
X76604494Y-77219463D01*
X76494180Y-77160498D01*
X76421620Y-77138487D01*
X76553475Y-77006632D01*
X76715990Y-76763411D01*
X76827932Y-76493158D01*
X76885000Y-76206260D01*
X76885000Y-75913740D01*
X76827932Y-75626842D01*
X76715990Y-75356589D01*
X76553475Y-75113368D01*
X76346632Y-74906525D01*
X76172240Y-74790000D01*
X76346632Y-74673475D01*
X76553475Y-74466632D01*
X76715990Y-74223411D01*
X76827932Y-73953158D01*
X76885000Y-73666260D01*
X76885000Y-73373740D01*
X76827932Y-73086842D01*
X76715990Y-72816589D01*
X76553475Y-72573368D01*
X76346632Y-72366525D01*
X76172240Y-72250000D01*
X76346632Y-72133475D01*
X76553475Y-71926632D01*
X76715990Y-71683411D01*
X76827932Y-71413158D01*
X76885000Y-71126260D01*
X76885000Y-70833740D01*
X76827932Y-70546842D01*
X76715990Y-70276589D01*
X76553475Y-70033368D01*
X76346632Y-69826525D01*
X76172240Y-69710000D01*
X76346632Y-69593475D01*
X76553475Y-69386632D01*
X76715990Y-69143411D01*
X76827932Y-68873158D01*
X76885000Y-68586260D01*
X76885000Y-68293740D01*
X76827932Y-68006842D01*
X76715990Y-67736589D01*
X76553475Y-67493368D01*
X76346632Y-67286525D01*
X76172240Y-67170000D01*
X76346632Y-67053475D01*
X76553475Y-66846632D01*
X76715990Y-66603411D01*
X76827932Y-66333158D01*
X76885000Y-66046260D01*
X76885000Y-65753740D01*
X76827932Y-65466842D01*
X76715990Y-65196589D01*
X76553475Y-64953368D01*
X76346632Y-64746525D01*
X76172240Y-64630000D01*
X76346632Y-64513475D01*
X76553475Y-64306632D01*
X76715990Y-64063411D01*
X76827932Y-63793158D01*
X76885000Y-63506260D01*
X76885000Y-63213740D01*
X76827932Y-62926842D01*
X76715990Y-62656589D01*
X76553475Y-62413368D01*
X76346632Y-62206525D01*
X76172240Y-62090000D01*
X76346632Y-61973475D01*
X76553475Y-61766632D01*
X76715990Y-61523411D01*
X76827932Y-61253158D01*
X76885000Y-60966260D01*
X76885000Y-60673740D01*
X76827932Y-60386842D01*
X76715990Y-60116589D01*
X76553475Y-59873368D01*
X76346632Y-59666525D01*
X76172240Y-59550000D01*
X76346632Y-59433475D01*
X76553475Y-59226632D01*
X76715990Y-58983411D01*
X76827932Y-58713158D01*
X76885000Y-58426260D01*
X76885000Y-58133740D01*
X76827932Y-57846842D01*
X76715990Y-57576589D01*
X76553475Y-57333368D01*
X76346632Y-57126525D01*
X76172240Y-57010000D01*
X76346632Y-56893475D01*
X76553475Y-56686632D01*
X76715990Y-56443411D01*
X76827932Y-56173158D01*
X76885000Y-55886260D01*
X76885000Y-55593740D01*
X76827932Y-55306842D01*
X76715990Y-55036589D01*
X76553475Y-54793368D01*
X76346632Y-54586525D01*
X76103411Y-54424010D01*
X75833158Y-54312068D01*
X75546260Y-54255000D01*
X75253740Y-54255000D01*
X74966842Y-54312068D01*
X74696589Y-54424010D01*
X74453368Y-54586525D01*
X74246525Y-54793368D01*
X74084010Y-55036589D01*
X73972068Y-55306842D01*
X73915000Y-55593740D01*
X73915000Y-55886260D01*
X73972068Y-56173158D01*
X74084010Y-56443411D01*
X74246525Y-56686632D01*
X74453368Y-56893475D01*
X74627760Y-57010000D01*
X74453368Y-57126525D01*
X74246525Y-57333368D01*
X74084010Y-57576589D01*
X73972068Y-57846842D01*
X73915000Y-58133740D01*
X73915000Y-58426260D01*
X73972068Y-58713158D01*
X74084010Y-58983411D01*
X74246525Y-59226632D01*
X74453368Y-59433475D01*
X74627760Y-59550000D01*
X74453368Y-59666525D01*
X74246525Y-59873368D01*
X74084010Y-60116589D01*
X73972068Y-60386842D01*
X73915000Y-60673740D01*
X73915000Y-60966260D01*
X73972068Y-61253158D01*
X74084010Y-61523411D01*
X74246525Y-61766632D01*
X74453368Y-61973475D01*
X74627760Y-62090000D01*
X74453368Y-62206525D01*
X74246525Y-62413368D01*
X74084010Y-62656589D01*
X73972068Y-62926842D01*
X73915000Y-63213740D01*
X73915000Y-63506260D01*
X73972068Y-63793158D01*
X74084010Y-64063411D01*
X74246525Y-64306632D01*
X74453368Y-64513475D01*
X74627760Y-64630000D01*
X74453368Y-64746525D01*
X74246525Y-64953368D01*
X74084010Y-65196589D01*
X73972068Y-65466842D01*
X73915000Y-65753740D01*
X73915000Y-66046260D01*
X73972068Y-66333158D01*
X74084010Y-66603411D01*
X74246525Y-66846632D01*
X74453368Y-67053475D01*
X74627760Y-67170000D01*
X74453368Y-67286525D01*
X74246525Y-67493368D01*
X74084010Y-67736589D01*
X73972068Y-68006842D01*
X73915000Y-68293740D01*
X73915000Y-68586260D01*
X73972068Y-68873158D01*
X74084010Y-69143411D01*
X74246525Y-69386632D01*
X74453368Y-69593475D01*
X74627760Y-69710000D01*
X74453368Y-69826525D01*
X74246525Y-70033368D01*
X74084010Y-70276589D01*
X73972068Y-70546842D01*
X73915000Y-70833740D01*
X73915000Y-71126260D01*
X73972068Y-71413158D01*
X74084010Y-71683411D01*
X74246525Y-71926632D01*
X74453368Y-72133475D01*
X74627760Y-72250000D01*
X74453368Y-72366525D01*
X74246525Y-72573368D01*
X74084010Y-72816589D01*
X73972068Y-73086842D01*
X73915000Y-73373740D01*
X73915000Y-73666260D01*
X73972068Y-73953158D01*
X74084010Y-74223411D01*
X74246525Y-74466632D01*
X74453368Y-74673475D01*
X74627760Y-74790000D01*
X74453368Y-74906525D01*
X74246525Y-75113368D01*
X74084010Y-75356589D01*
X73972068Y-75626842D01*
X73915000Y-75913740D01*
X73915000Y-76206260D01*
X73972068Y-76493158D01*
X74084010Y-76763411D01*
X74246525Y-77006632D01*
X74378380Y-77138487D01*
X74305820Y-77160498D01*
X74195506Y-77219463D01*
X74098815Y-77298815D01*
X74019463Y-77395506D01*
X73960498Y-77505820D01*
X73924188Y-77625518D01*
X73911928Y-77750000D01*
X55375301Y-77750000D01*
X55395226Y-77701898D01*
X55435000Y-77501939D01*
X55435000Y-77298061D01*
X55395226Y-77098102D01*
X55317205Y-76909744D01*
X55203937Y-76740226D01*
X55059774Y-76596063D01*
X54890256Y-76482795D01*
X54701898Y-76404774D01*
X54501939Y-76365000D01*
X54298061Y-76365000D01*
X54098102Y-76404774D01*
X53909744Y-76482795D01*
X53740226Y-76596063D01*
X53596063Y-76740226D01*
X53482795Y-76909744D01*
X53404774Y-77098102D01*
X53365000Y-77298061D01*
X33214237Y-77298061D01*
X33172240Y-77270000D01*
X33346632Y-77153475D01*
X33553475Y-76946632D01*
X33715990Y-76703411D01*
X33827932Y-76433158D01*
X33885000Y-76146260D01*
X33885000Y-76098061D01*
X50765000Y-76098061D01*
X50765000Y-76301939D01*
X50804774Y-76501898D01*
X50882795Y-76690256D01*
X50996063Y-76859774D01*
X51140226Y-77003937D01*
X51309744Y-77117205D01*
X51498102Y-77195226D01*
X51698061Y-77235000D01*
X51901939Y-77235000D01*
X52101898Y-77195226D01*
X52290256Y-77117205D01*
X52459774Y-77003937D01*
X52603937Y-76859774D01*
X52717205Y-76690256D01*
X52795226Y-76501898D01*
X52835000Y-76301939D01*
X52835000Y-76098061D01*
X55765000Y-76098061D01*
X55765000Y-76301939D01*
X55804774Y-76501898D01*
X55882795Y-76690256D01*
X55996063Y-76859774D01*
X56140226Y-77003937D01*
X56309744Y-77117205D01*
X56498102Y-77195226D01*
X56698061Y-77235000D01*
X56901939Y-77235000D01*
X57101898Y-77195226D01*
X57290256Y-77117205D01*
X57459774Y-77003937D01*
X57603937Y-76859774D01*
X57717205Y-76690256D01*
X57795226Y-76501898D01*
X57835000Y-76301939D01*
X57835000Y-76098061D01*
X57795226Y-75898102D01*
X57717205Y-75709744D01*
X57603937Y-75540226D01*
X57459774Y-75396063D01*
X57290256Y-75282795D01*
X57101898Y-75204774D01*
X56901939Y-75165000D01*
X56698061Y-75165000D01*
X56498102Y-75204774D01*
X56309744Y-75282795D01*
X56140226Y-75396063D01*
X55996063Y-75540226D01*
X55882795Y-75709744D01*
X55804774Y-75898102D01*
X55765000Y-76098061D01*
X52835000Y-76098061D01*
X52795226Y-75898102D01*
X52717205Y-75709744D01*
X52603937Y-75540226D01*
X52459774Y-75396063D01*
X52290256Y-75282795D01*
X52101898Y-75204774D01*
X51901939Y-75165000D01*
X51698061Y-75165000D01*
X51498102Y-75204774D01*
X51309744Y-75282795D01*
X51140226Y-75396063D01*
X50996063Y-75540226D01*
X50882795Y-75709744D01*
X50804774Y-75898102D01*
X50765000Y-76098061D01*
X33885000Y-76098061D01*
X33885000Y-75853740D01*
X33827932Y-75566842D01*
X33715990Y-75296589D01*
X33553475Y-75053368D01*
X33346632Y-74846525D01*
X33172240Y-74730000D01*
X33346632Y-74613475D01*
X33553475Y-74406632D01*
X33715990Y-74163411D01*
X33827932Y-73893158D01*
X33885000Y-73606260D01*
X33885000Y-73313740D01*
X33827932Y-73026842D01*
X33715990Y-72756589D01*
X33553475Y-72513368D01*
X33346632Y-72306525D01*
X33172240Y-72190000D01*
X33346632Y-72073475D01*
X33553475Y-71866632D01*
X33715990Y-71623411D01*
X33827932Y-71353158D01*
X33885000Y-71066260D01*
X33885000Y-70773740D01*
X33827932Y-70486842D01*
X33715990Y-70216589D01*
X33553475Y-69973368D01*
X33346632Y-69766525D01*
X33172240Y-69650000D01*
X33346632Y-69533475D01*
X33553475Y-69326632D01*
X33715990Y-69083411D01*
X33827932Y-68813158D01*
X33885000Y-68526260D01*
X33885000Y-68233740D01*
X33827932Y-67946842D01*
X33715990Y-67676589D01*
X33553475Y-67433368D01*
X33346632Y-67226525D01*
X33172240Y-67110000D01*
X33346632Y-66993475D01*
X33553475Y-66786632D01*
X33715990Y-66543411D01*
X33827932Y-66273158D01*
X33862761Y-66098061D01*
X38515000Y-66098061D01*
X38515000Y-66301939D01*
X38554774Y-66501898D01*
X38632795Y-66690256D01*
X38746063Y-66859774D01*
X38890226Y-67003937D01*
X39059744Y-67117205D01*
X39248102Y-67195226D01*
X39448061Y-67235000D01*
X39651939Y-67235000D01*
X39851898Y-67195226D01*
X39873000Y-67186485D01*
X39873000Y-73000000D01*
X39875440Y-73024776D01*
X39882667Y-73048601D01*
X39894403Y-73070557D01*
X39910197Y-73089803D01*
X39929443Y-73105597D01*
X39951399Y-73117333D01*
X39975224Y-73124560D01*
X40000000Y-73127000D01*
X49000000Y-73127000D01*
X49024776Y-73124560D01*
X49048601Y-73117333D01*
X49070557Y-73105597D01*
X49089803Y-73089803D01*
X49105597Y-73070557D01*
X49117333Y-73048601D01*
X49124560Y-73024776D01*
X49127000Y-73000000D01*
X49127000Y-71898061D01*
X55178000Y-71898061D01*
X55178000Y-72101939D01*
X55217774Y-72301898D01*
X55295795Y-72490256D01*
X55409063Y-72659774D01*
X55553226Y-72803937D01*
X55722744Y-72917205D01*
X55911102Y-72995226D01*
X56111061Y-73035000D01*
X56314939Y-73035000D01*
X56514898Y-72995226D01*
X56703256Y-72917205D01*
X56872774Y-72803937D01*
X57016937Y-72659774D01*
X57130205Y-72490256D01*
X57208226Y-72301898D01*
X57248000Y-72101939D01*
X57248000Y-71898061D01*
X57208226Y-71698102D01*
X57130205Y-71509744D01*
X57016937Y-71340226D01*
X56974772Y-71298061D01*
X60165000Y-71298061D01*
X60165000Y-71501939D01*
X60204774Y-71701898D01*
X60282795Y-71890256D01*
X60356123Y-72000000D01*
X60282795Y-72109744D01*
X60204774Y-72298102D01*
X60165000Y-72498061D01*
X60165000Y-72701939D01*
X60204774Y-72901898D01*
X60282795Y-73090256D01*
X60396063Y-73259774D01*
X60540226Y-73403937D01*
X60709744Y-73517205D01*
X60898102Y-73595226D01*
X61098061Y-73635000D01*
X61301939Y-73635000D01*
X61501898Y-73595226D01*
X61530509Y-73583375D01*
X61651082Y-73874463D01*
X61830013Y-74142252D01*
X62057748Y-74369987D01*
X62325537Y-74548918D01*
X62623088Y-74672168D01*
X62938967Y-74735000D01*
X63261033Y-74735000D01*
X63576912Y-74672168D01*
X63874463Y-74548918D01*
X64142252Y-74369987D01*
X64369987Y-74142252D01*
X64548918Y-73874463D01*
X64672168Y-73576912D01*
X64735000Y-73261033D01*
X64735000Y-72938967D01*
X67965000Y-72938967D01*
X67965000Y-73261033D01*
X68027832Y-73576912D01*
X68151082Y-73874463D01*
X68330013Y-74142252D01*
X68557748Y-74369987D01*
X68825537Y-74548918D01*
X69123088Y-74672168D01*
X69438967Y-74735000D01*
X69761033Y-74735000D01*
X70076912Y-74672168D01*
X70374463Y-74548918D01*
X70642252Y-74369987D01*
X70869987Y-74142252D01*
X71048918Y-73874463D01*
X71172168Y-73576912D01*
X71235000Y-73261033D01*
X71235000Y-72938967D01*
X71172168Y-72623088D01*
X71048918Y-72325537D01*
X70869987Y-72057748D01*
X70642252Y-71830013D01*
X70374463Y-71651082D01*
X70076912Y-71527832D01*
X69761033Y-71465000D01*
X69438967Y-71465000D01*
X69123088Y-71527832D01*
X68825537Y-71651082D01*
X68557748Y-71830013D01*
X68330013Y-72057748D01*
X68151082Y-72325537D01*
X68027832Y-72623088D01*
X67965000Y-72938967D01*
X64735000Y-72938967D01*
X64672168Y-72623088D01*
X64548918Y-72325537D01*
X64369987Y-72057748D01*
X64142252Y-71830013D01*
X63874463Y-71651082D01*
X63576912Y-71527832D01*
X63261033Y-71465000D01*
X62938967Y-71465000D01*
X62623088Y-71527832D01*
X62325537Y-71651082D01*
X62174462Y-71752027D01*
X62195226Y-71701898D01*
X62235000Y-71501939D01*
X62235000Y-71298061D01*
X62195226Y-71098102D01*
X62117205Y-70909744D01*
X62003937Y-70740226D01*
X61859774Y-70596063D01*
X61690256Y-70482795D01*
X61501898Y-70404774D01*
X61301939Y-70365000D01*
X61098061Y-70365000D01*
X60898102Y-70404774D01*
X60709744Y-70482795D01*
X60540226Y-70596063D01*
X60396063Y-70740226D01*
X60282795Y-70909744D01*
X60204774Y-71098102D01*
X60165000Y-71298061D01*
X56974772Y-71298061D01*
X56872774Y-71196063D01*
X56703256Y-71082795D01*
X56514898Y-71004774D01*
X56314939Y-70965000D01*
X56111061Y-70965000D01*
X55911102Y-71004774D01*
X55722744Y-71082795D01*
X55553226Y-71196063D01*
X55409063Y-71340226D01*
X55295795Y-71509744D01*
X55217774Y-71698102D01*
X55178000Y-71898061D01*
X49127000Y-71898061D01*
X49127000Y-67127000D01*
X50609289Y-67127000D01*
X50596063Y-67140226D01*
X50482795Y-67309744D01*
X50404774Y-67498102D01*
X50365000Y-67698061D01*
X50365000Y-67901939D01*
X50404774Y-68101898D01*
X50482795Y-68290256D01*
X50596063Y-68459774D01*
X50740226Y-68603937D01*
X50909744Y-68717205D01*
X51098102Y-68795226D01*
X51187076Y-68812924D01*
X51204774Y-68901898D01*
X51282795Y-69090256D01*
X51396063Y-69259774D01*
X51540226Y-69403937D01*
X51709744Y-69517205D01*
X51898102Y-69595226D01*
X52098061Y-69635000D01*
X52301939Y-69635000D01*
X52501898Y-69595226D01*
X52690256Y-69517205D01*
X52859774Y-69403937D01*
X53003937Y-69259774D01*
X53117205Y-69090256D01*
X53195226Y-68901898D01*
X53235000Y-68701939D01*
X53235000Y-68698061D01*
X53365000Y-68698061D01*
X53365000Y-68901939D01*
X53404774Y-69101898D01*
X53482795Y-69290256D01*
X53596063Y-69459774D01*
X53740226Y-69603937D01*
X53909744Y-69717205D01*
X54098102Y-69795226D01*
X54298061Y-69835000D01*
X54501939Y-69835000D01*
X54701898Y-69795226D01*
X54890256Y-69717205D01*
X55059774Y-69603937D01*
X55203937Y-69459774D01*
X55300000Y-69316005D01*
X55396063Y-69459774D01*
X55540226Y-69603937D01*
X55709744Y-69717205D01*
X55898102Y-69795226D01*
X56098061Y-69835000D01*
X56301939Y-69835000D01*
X56501898Y-69795226D01*
X56690256Y-69717205D01*
X56859774Y-69603937D01*
X57003937Y-69459774D01*
X57117205Y-69290256D01*
X57195226Y-69101898D01*
X57235000Y-68901939D01*
X57235000Y-68698061D01*
X57195226Y-68498102D01*
X57117205Y-68309744D01*
X57003937Y-68140226D01*
X56859774Y-67996063D01*
X56690256Y-67882795D01*
X56501898Y-67804774D01*
X56301939Y-67765000D01*
X56098061Y-67765000D01*
X55898102Y-67804774D01*
X55709744Y-67882795D01*
X55540226Y-67996063D01*
X55396063Y-68140226D01*
X55300000Y-68283995D01*
X55203937Y-68140226D01*
X55059774Y-67996063D01*
X54890256Y-67882795D01*
X54701898Y-67804774D01*
X54501939Y-67765000D01*
X54298061Y-67765000D01*
X54098102Y-67804774D01*
X53909744Y-67882795D01*
X53740226Y-67996063D01*
X53596063Y-68140226D01*
X53482795Y-68309744D01*
X53404774Y-68498102D01*
X53365000Y-68698061D01*
X53235000Y-68698061D01*
X53235000Y-68498061D01*
X53195226Y-68298102D01*
X53117205Y-68109744D01*
X53003937Y-67940226D01*
X52859774Y-67796063D01*
X52715331Y-67699549D01*
X59620185Y-67699549D01*
X59620185Y-67903427D01*
X59659959Y-68103386D01*
X59737980Y-68291744D01*
X59851248Y-68461262D01*
X59995411Y-68605425D01*
X60164929Y-68718693D01*
X60353287Y-68796714D01*
X60553246Y-68836488D01*
X60757124Y-68836488D01*
X60957083Y-68796714D01*
X61145441Y-68718693D01*
X61314959Y-68605425D01*
X61459122Y-68461262D01*
X61465000Y-68452465D01*
X61465000Y-68761033D01*
X61527832Y-69076912D01*
X61651082Y-69374463D01*
X61830013Y-69642252D01*
X62057748Y-69869987D01*
X62325537Y-70048918D01*
X62623088Y-70172168D01*
X62938967Y-70235000D01*
X63261033Y-70235000D01*
X63576912Y-70172168D01*
X63874463Y-70048918D01*
X64142252Y-69869987D01*
X64369987Y-69642252D01*
X64548918Y-69374463D01*
X64672168Y-69076912D01*
X64735000Y-68761033D01*
X64735000Y-68438967D01*
X67965000Y-68438967D01*
X67965000Y-68761033D01*
X68027832Y-69076912D01*
X68151082Y-69374463D01*
X68330013Y-69642252D01*
X68557748Y-69869987D01*
X68825537Y-70048918D01*
X69123088Y-70172168D01*
X69438967Y-70235000D01*
X69761033Y-70235000D01*
X70076912Y-70172168D01*
X70374463Y-70048918D01*
X70642252Y-69869987D01*
X70869987Y-69642252D01*
X71048918Y-69374463D01*
X71172168Y-69076912D01*
X71235000Y-68761033D01*
X71235000Y-68438967D01*
X71172168Y-68123088D01*
X71048918Y-67825537D01*
X70869987Y-67557748D01*
X70642252Y-67330013D01*
X70374463Y-67151082D01*
X70076912Y-67027832D01*
X69761033Y-66965000D01*
X69438967Y-66965000D01*
X69123088Y-67027832D01*
X68825537Y-67151082D01*
X68557748Y-67330013D01*
X68330013Y-67557748D01*
X68151082Y-67825537D01*
X68027832Y-68123088D01*
X67965000Y-68438967D01*
X64735000Y-68438967D01*
X64672168Y-68123088D01*
X64548918Y-67825537D01*
X64369987Y-67557748D01*
X64142252Y-67330013D01*
X63874463Y-67151082D01*
X63576912Y-67027832D01*
X63261033Y-66965000D01*
X62938967Y-66965000D01*
X62623088Y-67027832D01*
X62325537Y-67151082D01*
X62057748Y-67330013D01*
X61830013Y-67557748D01*
X61690185Y-67767015D01*
X61690185Y-67699549D01*
X61650411Y-67499590D01*
X61572390Y-67311232D01*
X61459122Y-67141714D01*
X61314959Y-66997551D01*
X61145441Y-66884283D01*
X60957083Y-66806262D01*
X60757124Y-66766488D01*
X60553246Y-66766488D01*
X60353287Y-66806262D01*
X60164929Y-66884283D01*
X59995411Y-66997551D01*
X59851248Y-67141714D01*
X59737980Y-67311232D01*
X59659959Y-67499590D01*
X59620185Y-67699549D01*
X52715331Y-67699549D01*
X52690256Y-67682795D01*
X52501898Y-67604774D01*
X52412924Y-67587076D01*
X52407042Y-67557508D01*
X52498102Y-67595226D01*
X52698061Y-67635000D01*
X52901939Y-67635000D01*
X53101898Y-67595226D01*
X53290256Y-67517205D01*
X53459774Y-67403937D01*
X53603937Y-67259774D01*
X53717205Y-67090256D01*
X53795226Y-66901898D01*
X53835000Y-66701939D01*
X53835000Y-66498061D01*
X53795226Y-66298102D01*
X53717205Y-66109744D01*
X53603937Y-65940226D01*
X53459774Y-65796063D01*
X53290256Y-65682795D01*
X53101898Y-65604774D01*
X52901939Y-65565000D01*
X52698061Y-65565000D01*
X52498102Y-65604774D01*
X52393964Y-65647910D01*
X52459774Y-65603937D01*
X52603937Y-65459774D01*
X52717205Y-65290256D01*
X52795226Y-65101898D01*
X52835000Y-64901939D01*
X52835000Y-64698061D01*
X52795226Y-64498102D01*
X52717205Y-64309744D01*
X52603937Y-64140226D01*
X52459774Y-63996063D01*
X52290256Y-63882795D01*
X52101898Y-63804774D01*
X51901939Y-63765000D01*
X51698061Y-63765000D01*
X51498102Y-63804774D01*
X51333391Y-63873000D01*
X47127000Y-63873000D01*
X47127000Y-63473061D01*
X54615000Y-63473061D01*
X54615000Y-63676939D01*
X54654774Y-63876898D01*
X54732795Y-64065256D01*
X54846063Y-64234774D01*
X54990226Y-64378937D01*
X55159744Y-64492205D01*
X55348102Y-64570226D01*
X55548061Y-64610000D01*
X55751939Y-64610000D01*
X55951898Y-64570226D01*
X56079664Y-64517303D01*
X56004774Y-64698102D01*
X55965000Y-64898061D01*
X55965000Y-65101939D01*
X56004774Y-65301898D01*
X56082795Y-65490256D01*
X56196063Y-65659774D01*
X56340226Y-65803937D01*
X56509744Y-65917205D01*
X56698102Y-65995226D01*
X56898061Y-66035000D01*
X57101939Y-66035000D01*
X57301898Y-65995226D01*
X57490256Y-65917205D01*
X57659774Y-65803937D01*
X57803937Y-65659774D01*
X57917205Y-65490256D01*
X57995226Y-65301898D01*
X58035000Y-65101939D01*
X58035000Y-64898061D01*
X57995226Y-64698102D01*
X57917205Y-64509744D01*
X57803937Y-64340226D01*
X57659774Y-64196063D01*
X57490256Y-64082795D01*
X57301898Y-64004774D01*
X57101939Y-63965000D01*
X56898061Y-63965000D01*
X56698102Y-64004774D01*
X56570336Y-64057697D01*
X56645226Y-63876898D01*
X56685000Y-63676939D01*
X56685000Y-63673061D01*
X59365000Y-63673061D01*
X59365000Y-63876939D01*
X59404774Y-64076898D01*
X59482795Y-64265256D01*
X59596063Y-64434774D01*
X59740226Y-64578937D01*
X59909744Y-64692205D01*
X60098102Y-64770226D01*
X60298061Y-64810000D01*
X60501939Y-64810000D01*
X60701898Y-64770226D01*
X60890256Y-64692205D01*
X61059774Y-64578937D01*
X61203937Y-64434774D01*
X61317205Y-64265256D01*
X61395226Y-64076898D01*
X61435000Y-63876939D01*
X61435000Y-63673061D01*
X61395226Y-63473102D01*
X61317205Y-63284744D01*
X61203937Y-63115226D01*
X61059774Y-62971063D01*
X60890256Y-62857795D01*
X60701898Y-62779774D01*
X60501939Y-62740000D01*
X60298061Y-62740000D01*
X60098102Y-62779774D01*
X59909744Y-62857795D01*
X59740226Y-62971063D01*
X59596063Y-63115226D01*
X59482795Y-63284744D01*
X59404774Y-63473102D01*
X59365000Y-63673061D01*
X56685000Y-63673061D01*
X56685000Y-63473061D01*
X56645226Y-63273102D01*
X56567205Y-63084744D01*
X56453937Y-62915226D01*
X56309774Y-62771063D01*
X56140256Y-62657795D01*
X55951898Y-62579774D01*
X55751939Y-62540000D01*
X55548061Y-62540000D01*
X55348102Y-62579774D01*
X55159744Y-62657795D01*
X54990226Y-62771063D01*
X54846063Y-62915226D01*
X54732795Y-63084744D01*
X54654774Y-63273102D01*
X54615000Y-63473061D01*
X47127000Y-63473061D01*
X47127000Y-61036307D01*
X47195691Y-61139110D01*
X47400890Y-61344309D01*
X47642178Y-61505533D01*
X47910283Y-61616586D01*
X48194902Y-61673200D01*
X48485098Y-61673200D01*
X48769717Y-61616586D01*
X49037822Y-61505533D01*
X49165000Y-61420555D01*
X49165000Y-61501939D01*
X49204774Y-61701898D01*
X49282795Y-61890256D01*
X49396063Y-62059774D01*
X49540226Y-62203937D01*
X49709744Y-62317205D01*
X49898102Y-62395226D01*
X50098061Y-62435000D01*
X50301939Y-62435000D01*
X50501898Y-62395226D01*
X50690256Y-62317205D01*
X50859774Y-62203937D01*
X51003937Y-62059774D01*
X51117205Y-61890256D01*
X51195226Y-61701898D01*
X51235000Y-61501939D01*
X51235000Y-61298061D01*
X51195226Y-61098102D01*
X51117205Y-60909744D01*
X51003937Y-60740226D01*
X50859774Y-60596063D01*
X50690256Y-60482795D01*
X50501898Y-60404774D01*
X50301939Y-60365000D01*
X50098061Y-60365000D01*
X49898102Y-60404774D01*
X49792641Y-60448458D01*
X49813200Y-60345098D01*
X49813200Y-60054902D01*
X49756586Y-59770283D01*
X49716316Y-59673061D01*
X55965000Y-59673061D01*
X55965000Y-59876939D01*
X56004774Y-60076898D01*
X56082795Y-60265256D01*
X56196063Y-60434774D01*
X56340226Y-60578937D01*
X56509744Y-60692205D01*
X56698102Y-60770226D01*
X56898061Y-60810000D01*
X57101939Y-60810000D01*
X57265000Y-60777565D01*
X57265000Y-60901939D01*
X57304774Y-61101898D01*
X57382795Y-61290256D01*
X57496063Y-61459774D01*
X57640226Y-61603937D01*
X57809744Y-61717205D01*
X57998102Y-61795226D01*
X58198061Y-61835000D01*
X58401939Y-61835000D01*
X58601898Y-61795226D01*
X58790256Y-61717205D01*
X58959774Y-61603937D01*
X59103937Y-61459774D01*
X59217205Y-61290256D01*
X59295226Y-61101898D01*
X59335000Y-60901939D01*
X59335000Y-60698061D01*
X60465000Y-60698061D01*
X60465000Y-60901939D01*
X60504774Y-61101898D01*
X60582795Y-61290256D01*
X60696063Y-61459774D01*
X60840226Y-61603937D01*
X61009744Y-61717205D01*
X61198102Y-61795226D01*
X61398061Y-61835000D01*
X61601939Y-61835000D01*
X61801898Y-61795226D01*
X61990256Y-61717205D01*
X62159774Y-61603937D01*
X62303937Y-61459774D01*
X62417205Y-61290256D01*
X62495226Y-61101898D01*
X62535000Y-60901939D01*
X62535000Y-60698061D01*
X62495226Y-60498102D01*
X62417205Y-60309744D01*
X62303937Y-60140226D01*
X62159774Y-59996063D01*
X61990256Y-59882795D01*
X61801898Y-59804774D01*
X61601939Y-59765000D01*
X61398061Y-59765000D01*
X61198102Y-59804774D01*
X61009744Y-59882795D01*
X60840226Y-59996063D01*
X60696063Y-60140226D01*
X60582795Y-60309744D01*
X60504774Y-60498102D01*
X60465000Y-60698061D01*
X59335000Y-60698061D01*
X59295226Y-60498102D01*
X59235295Y-60353416D01*
X59253937Y-60334774D01*
X59367205Y-60165256D01*
X59445226Y-59976898D01*
X59485000Y-59776939D01*
X59485000Y-59573061D01*
X59445226Y-59373102D01*
X59367205Y-59184744D01*
X59253937Y-59015226D01*
X59109774Y-58871063D01*
X58940256Y-58757795D01*
X58751898Y-58679774D01*
X58551939Y-58640000D01*
X58348061Y-58640000D01*
X58148102Y-58679774D01*
X57959744Y-58757795D01*
X57790226Y-58871063D01*
X57675000Y-58986289D01*
X57659774Y-58971063D01*
X57490256Y-58857795D01*
X57301898Y-58779774D01*
X57101939Y-58740000D01*
X56898061Y-58740000D01*
X56698102Y-58779774D01*
X56509744Y-58857795D01*
X56340226Y-58971063D01*
X56196063Y-59115226D01*
X56082795Y-59284744D01*
X56004774Y-59473102D01*
X55965000Y-59673061D01*
X49716316Y-59673061D01*
X49645533Y-59502178D01*
X49484309Y-59260890D01*
X49279110Y-59055691D01*
X49037822Y-58894467D01*
X48769717Y-58783414D01*
X48485098Y-58726800D01*
X48194902Y-58726800D01*
X47910283Y-58783414D01*
X47642178Y-58894467D01*
X47400890Y-59055691D01*
X47195691Y-59260890D01*
X47070000Y-59448999D01*
X46944309Y-59260890D01*
X46739110Y-59055691D01*
X46497822Y-58894467D01*
X46229717Y-58783414D01*
X45945098Y-58726800D01*
X45654902Y-58726800D01*
X45370283Y-58783414D01*
X45102178Y-58894467D01*
X44860890Y-59055691D01*
X44655691Y-59260890D01*
X44494467Y-59502178D01*
X44383414Y-59770283D01*
X44362982Y-59873000D01*
X44124353Y-59873000D01*
X44195226Y-59701898D01*
X44235000Y-59501939D01*
X44235000Y-59298061D01*
X44195226Y-59098102D01*
X44117205Y-58909744D01*
X44003937Y-58740226D01*
X43859774Y-58596063D01*
X43690256Y-58482795D01*
X43501898Y-58404774D01*
X43301939Y-58365000D01*
X43098061Y-58365000D01*
X42898102Y-58404774D01*
X42709744Y-58482795D01*
X42540226Y-58596063D01*
X42396063Y-58740226D01*
X42282795Y-58909744D01*
X42204774Y-59098102D01*
X42165000Y-59298061D01*
X42165000Y-59501939D01*
X42204774Y-59701898D01*
X42275647Y-59873000D01*
X40000000Y-59873000D01*
X39975224Y-59875440D01*
X39951399Y-59882667D01*
X39929443Y-59894403D01*
X39910197Y-59910197D01*
X39894403Y-59929443D01*
X39882667Y-59951399D01*
X39875440Y-59975224D01*
X39873000Y-60000000D01*
X39873000Y-65213515D01*
X39851898Y-65204774D01*
X39651939Y-65165000D01*
X39448061Y-65165000D01*
X39248102Y-65204774D01*
X39059744Y-65282795D01*
X38890226Y-65396063D01*
X38746063Y-65540226D01*
X38632795Y-65709744D01*
X38554774Y-65898102D01*
X38515000Y-66098061D01*
X33862761Y-66098061D01*
X33885000Y-65986260D01*
X33885000Y-65693740D01*
X33827932Y-65406842D01*
X33715990Y-65136589D01*
X33553475Y-64893368D01*
X33346632Y-64686525D01*
X33172240Y-64570000D01*
X33346632Y-64453475D01*
X33553475Y-64246632D01*
X33715990Y-64003411D01*
X33827932Y-63733158D01*
X33885000Y-63446260D01*
X33885000Y-63153740D01*
X33827932Y-62866842D01*
X33715990Y-62596589D01*
X33553475Y-62353368D01*
X33346632Y-62146525D01*
X33172240Y-62030000D01*
X33346632Y-61913475D01*
X33553475Y-61706632D01*
X33715990Y-61463411D01*
X33827932Y-61193158D01*
X33885000Y-60906260D01*
X33885000Y-60613740D01*
X33827932Y-60326842D01*
X33715990Y-60056589D01*
X33553475Y-59813368D01*
X33346632Y-59606525D01*
X33172240Y-59490000D01*
X33346632Y-59373475D01*
X33553475Y-59166632D01*
X33715990Y-58923411D01*
X33827932Y-58653158D01*
X33885000Y-58366260D01*
X33885000Y-58073740D01*
X33827932Y-57786842D01*
X33715990Y-57516589D01*
X33553475Y-57273368D01*
X33421620Y-57141513D01*
X33494180Y-57119502D01*
X33604494Y-57060537D01*
X33701185Y-56981185D01*
X33780537Y-56884494D01*
X33839502Y-56774180D01*
X33875812Y-56654482D01*
X33888072Y-56530000D01*
X33888072Y-55898061D01*
X44765000Y-55898061D01*
X44765000Y-56101939D01*
X44804774Y-56301898D01*
X44882795Y-56490256D01*
X44996063Y-56659774D01*
X45140226Y-56803937D01*
X45309744Y-56917205D01*
X45498102Y-56995226D01*
X45698061Y-57035000D01*
X45901939Y-57035000D01*
X46101898Y-56995226D01*
X46290256Y-56917205D01*
X46459774Y-56803937D01*
X46603937Y-56659774D01*
X46717205Y-56490256D01*
X46795226Y-56301898D01*
X46835000Y-56101939D01*
X46835000Y-55898061D01*
X47165000Y-55898061D01*
X47165000Y-56101939D01*
X47204774Y-56301898D01*
X47282795Y-56490256D01*
X47396063Y-56659774D01*
X47540226Y-56803937D01*
X47709744Y-56917205D01*
X47898102Y-56995226D01*
X48098061Y-57035000D01*
X48301939Y-57035000D01*
X48501898Y-56995226D01*
X48690256Y-56917205D01*
X48859774Y-56803937D01*
X49003937Y-56659774D01*
X49111989Y-56498061D01*
X49165000Y-56498061D01*
X49165000Y-56701939D01*
X49204774Y-56901898D01*
X49282795Y-57090256D01*
X49396063Y-57259774D01*
X49540226Y-57403937D01*
X49709744Y-57517205D01*
X49898102Y-57595226D01*
X50098061Y-57635000D01*
X50301939Y-57635000D01*
X50501898Y-57595226D01*
X50690256Y-57517205D01*
X50859774Y-57403937D01*
X50900000Y-57363711D01*
X50940226Y-57403937D01*
X51109744Y-57517205D01*
X51298102Y-57595226D01*
X51498061Y-57635000D01*
X51577544Y-57635000D01*
X51565000Y-57698061D01*
X51565000Y-57901939D01*
X51604774Y-58101898D01*
X51682795Y-58290256D01*
X51796063Y-58459774D01*
X51940226Y-58603937D01*
X52109744Y-58717205D01*
X52298102Y-58795226D01*
X52498061Y-58835000D01*
X52701939Y-58835000D01*
X52901898Y-58795226D01*
X53090256Y-58717205D01*
X53259774Y-58603937D01*
X53403937Y-58459774D01*
X53517205Y-58290256D01*
X53595226Y-58101898D01*
X53635000Y-57901939D01*
X53635000Y-57698061D01*
X53595226Y-57498102D01*
X53517205Y-57309744D01*
X53403937Y-57140226D01*
X53259774Y-56996063D01*
X53090256Y-56882795D01*
X52901898Y-56804774D01*
X52701939Y-56765000D01*
X52622456Y-56765000D01*
X52635000Y-56701939D01*
X52635000Y-56498061D01*
X52595226Y-56298102D01*
X52517205Y-56109744D01*
X52403937Y-55940226D01*
X52259774Y-55796063D01*
X52090256Y-55682795D01*
X51901898Y-55604774D01*
X51701939Y-55565000D01*
X51498061Y-55565000D01*
X51298102Y-55604774D01*
X51109744Y-55682795D01*
X50940226Y-55796063D01*
X50900000Y-55836289D01*
X50859774Y-55796063D01*
X50690256Y-55682795D01*
X50501898Y-55604774D01*
X50301939Y-55565000D01*
X50098061Y-55565000D01*
X49898102Y-55604774D01*
X49709744Y-55682795D01*
X49540226Y-55796063D01*
X49396063Y-55940226D01*
X49282795Y-56109744D01*
X49204774Y-56298102D01*
X49165000Y-56498061D01*
X49111989Y-56498061D01*
X49117205Y-56490256D01*
X49195226Y-56301898D01*
X49235000Y-56101939D01*
X49235000Y-55898061D01*
X49195226Y-55698102D01*
X49117205Y-55509744D01*
X49003937Y-55340226D01*
X48859774Y-55196063D01*
X48690256Y-55082795D01*
X48501898Y-55004774D01*
X48301939Y-54965000D01*
X48098061Y-54965000D01*
X47898102Y-55004774D01*
X47709744Y-55082795D01*
X47540226Y-55196063D01*
X47396063Y-55340226D01*
X47282795Y-55509744D01*
X47204774Y-55698102D01*
X47165000Y-55898061D01*
X46835000Y-55898061D01*
X46795226Y-55698102D01*
X46717205Y-55509744D01*
X46603937Y-55340226D01*
X46459774Y-55196063D01*
X46290256Y-55082795D01*
X46101898Y-55004774D01*
X45901939Y-54965000D01*
X45698061Y-54965000D01*
X45498102Y-55004774D01*
X45309744Y-55082795D01*
X45140226Y-55196063D01*
X44996063Y-55340226D01*
X44882795Y-55509744D01*
X44804774Y-55698102D01*
X44765000Y-55898061D01*
X33888072Y-55898061D01*
X33888072Y-54830000D01*
X33875812Y-54705518D01*
X33839502Y-54585820D01*
X33780537Y-54475506D01*
X33701185Y-54378815D01*
X33604494Y-54299463D01*
X33494180Y-54240498D01*
X33374482Y-54204188D01*
X33250000Y-54191928D01*
X31550000Y-54191928D01*
X31425518Y-54204188D01*
X31305820Y-54240498D01*
X31195506Y-54299463D01*
X31098815Y-54378815D01*
X31019463Y-54475506D01*
X30960498Y-54585820D01*
X30924188Y-54705518D01*
X30911928Y-54830000D01*
X29660000Y-54830000D01*
X29660000Y-53050000D01*
X36311928Y-53050000D01*
X36324188Y-53174482D01*
X36360498Y-53294180D01*
X36419463Y-53404494D01*
X36498815Y-53501185D01*
X36595506Y-53580537D01*
X36705820Y-53639502D01*
X36825518Y-53675812D01*
X36950000Y-53688072D01*
X37514250Y-53685000D01*
X37673000Y-53526250D01*
X37673000Y-52327000D01*
X36473750Y-52327000D01*
X36315000Y-52485750D01*
X36311928Y-53050000D01*
X29660000Y-53050000D01*
X29660000Y-51350000D01*
X36311928Y-51350000D01*
X36315000Y-51914250D01*
X36473750Y-52073000D01*
X37673000Y-52073000D01*
X37673000Y-50873750D01*
X37927000Y-50873750D01*
X37927000Y-52073000D01*
X37947000Y-52073000D01*
X37947000Y-52327000D01*
X37927000Y-52327000D01*
X37927000Y-53526250D01*
X38085750Y-53685000D01*
X38650000Y-53688072D01*
X38774482Y-53675812D01*
X38894180Y-53639502D01*
X39004494Y-53580537D01*
X39101185Y-53501185D01*
X39180537Y-53404494D01*
X39239502Y-53294180D01*
X39261513Y-53221620D01*
X39393368Y-53353475D01*
X39636589Y-53515990D01*
X39906842Y-53627932D01*
X40193740Y-53685000D01*
X40486260Y-53685000D01*
X40773158Y-53627932D01*
X41043411Y-53515990D01*
X41286632Y-53353475D01*
X41493475Y-53146632D01*
X41610000Y-52972240D01*
X41726525Y-53146632D01*
X41933368Y-53353475D01*
X42176589Y-53515990D01*
X42446842Y-53627932D01*
X42733740Y-53685000D01*
X43026260Y-53685000D01*
X43313158Y-53627932D01*
X43583411Y-53515990D01*
X43610243Y-53498061D01*
X44365000Y-53498061D01*
X44365000Y-53701939D01*
X44404774Y-53901898D01*
X44482795Y-54090256D01*
X44596063Y-54259774D01*
X44740226Y-54403937D01*
X44909744Y-54517205D01*
X45098102Y-54595226D01*
X45298061Y-54635000D01*
X45501939Y-54635000D01*
X45701898Y-54595226D01*
X45890256Y-54517205D01*
X46059774Y-54403937D01*
X46100000Y-54363711D01*
X46140226Y-54403937D01*
X46309744Y-54517205D01*
X46498102Y-54595226D01*
X46698061Y-54635000D01*
X46901939Y-54635000D01*
X47101898Y-54595226D01*
X47290256Y-54517205D01*
X47459774Y-54403937D01*
X47500000Y-54363711D01*
X47540226Y-54403937D01*
X47709744Y-54517205D01*
X47898102Y-54595226D01*
X48098061Y-54635000D01*
X48301939Y-54635000D01*
X48501898Y-54595226D01*
X48690256Y-54517205D01*
X48800000Y-54443877D01*
X48909744Y-54517205D01*
X49098102Y-54595226D01*
X49298061Y-54635000D01*
X49501939Y-54635000D01*
X49701898Y-54595226D01*
X49890256Y-54517205D01*
X50000000Y-54443877D01*
X50109744Y-54517205D01*
X50298102Y-54595226D01*
X50498061Y-54635000D01*
X50701939Y-54635000D01*
X50901898Y-54595226D01*
X51090256Y-54517205D01*
X51100000Y-54510694D01*
X51109744Y-54517205D01*
X51298102Y-54595226D01*
X51498061Y-54635000D01*
X51701939Y-54635000D01*
X51901898Y-54595226D01*
X52090256Y-54517205D01*
X52100000Y-54510694D01*
X52109744Y-54517205D01*
X52298102Y-54595226D01*
X52498061Y-54635000D01*
X52701939Y-54635000D01*
X52901898Y-54595226D01*
X53090256Y-54517205D01*
X53259774Y-54403937D01*
X53403937Y-54259774D01*
X53517205Y-54090256D01*
X53595226Y-53901898D01*
X53635000Y-53701939D01*
X53635000Y-53498061D01*
X53595226Y-53298102D01*
X53517205Y-53109744D01*
X53510694Y-53100000D01*
X53517205Y-53090256D01*
X53595226Y-52901898D01*
X53635000Y-52701939D01*
X53635000Y-52498061D01*
X53595226Y-52298102D01*
X53517205Y-52109744D01*
X53410468Y-51950000D01*
X57111928Y-51950000D01*
X57111928Y-53650000D01*
X57124188Y-53774482D01*
X57160498Y-53894180D01*
X57219463Y-54004494D01*
X57298815Y-54101185D01*
X57395506Y-54180537D01*
X57505820Y-54239502D01*
X57578380Y-54261513D01*
X57446525Y-54393368D01*
X57284010Y-54636589D01*
X57172068Y-54906842D01*
X57115000Y-55193740D01*
X57115000Y-55486260D01*
X57172068Y-55773158D01*
X57284010Y-56043411D01*
X57446525Y-56286632D01*
X57653368Y-56493475D01*
X57896589Y-56655990D01*
X58166842Y-56767932D01*
X58453740Y-56825000D01*
X58746260Y-56825000D01*
X59033158Y-56767932D01*
X59303411Y-56655990D01*
X59546632Y-56493475D01*
X59753475Y-56286632D01*
X59870000Y-56112240D01*
X59986525Y-56286632D01*
X60193368Y-56493475D01*
X60436589Y-56655990D01*
X60706842Y-56767932D01*
X60993740Y-56825000D01*
X61286260Y-56825000D01*
X61573158Y-56767932D01*
X61843411Y-56655990D01*
X62086632Y-56493475D01*
X62293475Y-56286632D01*
X62410000Y-56112240D01*
X62526525Y-56286632D01*
X62733368Y-56493475D01*
X62976589Y-56655990D01*
X63246842Y-56767932D01*
X63533740Y-56825000D01*
X63826260Y-56825000D01*
X64113158Y-56767932D01*
X64383411Y-56655990D01*
X64626632Y-56493475D01*
X64833475Y-56286632D01*
X64950000Y-56112240D01*
X65066525Y-56286632D01*
X65273368Y-56493475D01*
X65516589Y-56655990D01*
X65786842Y-56767932D01*
X66073740Y-56825000D01*
X66366260Y-56825000D01*
X66653158Y-56767932D01*
X66923411Y-56655990D01*
X67166632Y-56493475D01*
X67373475Y-56286632D01*
X67490000Y-56112240D01*
X67606525Y-56286632D01*
X67813368Y-56493475D01*
X68056589Y-56655990D01*
X68326842Y-56767932D01*
X68613740Y-56825000D01*
X68906260Y-56825000D01*
X69193158Y-56767932D01*
X69463411Y-56655990D01*
X69706632Y-56493475D01*
X69913475Y-56286632D01*
X70075990Y-56043411D01*
X70187932Y-55773158D01*
X70245000Y-55486260D01*
X70245000Y-55193740D01*
X70187932Y-54906842D01*
X70075990Y-54636589D01*
X69913475Y-54393368D01*
X69706632Y-54186525D01*
X69532240Y-54070000D01*
X69706632Y-53953475D01*
X69913475Y-53746632D01*
X70075990Y-53503411D01*
X70187932Y-53233158D01*
X70245000Y-52946260D01*
X70245000Y-52653740D01*
X70187932Y-52366842D01*
X70075990Y-52096589D01*
X69913475Y-51853368D01*
X69706632Y-51646525D01*
X69463411Y-51484010D01*
X69193158Y-51372068D01*
X68906260Y-51315000D01*
X68613740Y-51315000D01*
X68326842Y-51372068D01*
X68056589Y-51484010D01*
X67813368Y-51646525D01*
X67606525Y-51853368D01*
X67490000Y-52027760D01*
X67373475Y-51853368D01*
X67166632Y-51646525D01*
X66923411Y-51484010D01*
X66653158Y-51372068D01*
X66366260Y-51315000D01*
X66073740Y-51315000D01*
X65786842Y-51372068D01*
X65516589Y-51484010D01*
X65273368Y-51646525D01*
X65066525Y-51853368D01*
X64950000Y-52027760D01*
X64833475Y-51853368D01*
X64626632Y-51646525D01*
X64383411Y-51484010D01*
X64113158Y-51372068D01*
X63826260Y-51315000D01*
X63533740Y-51315000D01*
X63246842Y-51372068D01*
X62976589Y-51484010D01*
X62733368Y-51646525D01*
X62526525Y-51853368D01*
X62410000Y-52027760D01*
X62293475Y-51853368D01*
X62086632Y-51646525D01*
X61843411Y-51484010D01*
X61573158Y-51372068D01*
X61286260Y-51315000D01*
X60993740Y-51315000D01*
X60706842Y-51372068D01*
X60436589Y-51484010D01*
X60193368Y-51646525D01*
X60061513Y-51778380D01*
X60039502Y-51705820D01*
X59980537Y-51595506D01*
X59901185Y-51498815D01*
X59804494Y-51419463D01*
X59694180Y-51360498D01*
X59574482Y-51324188D01*
X59450000Y-51311928D01*
X57750000Y-51311928D01*
X57625518Y-51324188D01*
X57505820Y-51360498D01*
X57395506Y-51419463D01*
X57298815Y-51498815D01*
X57219463Y-51595506D01*
X57160498Y-51705820D01*
X57124188Y-51825518D01*
X57111928Y-51950000D01*
X53410468Y-51950000D01*
X53403937Y-51940226D01*
X53259774Y-51796063D01*
X53090256Y-51682795D01*
X52901898Y-51604774D01*
X52701939Y-51565000D01*
X52498061Y-51565000D01*
X52298102Y-51604774D01*
X52109744Y-51682795D01*
X52100000Y-51689306D01*
X52090256Y-51682795D01*
X51901898Y-51604774D01*
X51701939Y-51565000D01*
X51498061Y-51565000D01*
X51298102Y-51604774D01*
X51109744Y-51682795D01*
X50940226Y-51796063D01*
X50796063Y-51940226D01*
X50682795Y-52109744D01*
X50604774Y-52298102D01*
X50565000Y-52498061D01*
X50565000Y-52565000D01*
X50498061Y-52565000D01*
X50298102Y-52604774D01*
X50109744Y-52682795D01*
X50000000Y-52756123D01*
X49890256Y-52682795D01*
X49701898Y-52604774D01*
X49501939Y-52565000D01*
X49298061Y-52565000D01*
X49157508Y-52592958D01*
X49195226Y-52501898D01*
X49235000Y-52301939D01*
X49235000Y-52098061D01*
X49195226Y-51898102D01*
X49117205Y-51709744D01*
X49062542Y-51627935D01*
X49098061Y-51635000D01*
X49301939Y-51635000D01*
X49501898Y-51595226D01*
X49600000Y-51554591D01*
X49698102Y-51595226D01*
X49898061Y-51635000D01*
X50101939Y-51635000D01*
X50301898Y-51595226D01*
X50490256Y-51517205D01*
X50659774Y-51403937D01*
X50803937Y-51259774D01*
X50917205Y-51090256D01*
X50995226Y-50901898D01*
X51035000Y-50701939D01*
X51035000Y-50498061D01*
X50995226Y-50298102D01*
X50917205Y-50109744D01*
X50803937Y-49940226D01*
X50659774Y-49796063D01*
X50490256Y-49682795D01*
X50301898Y-49604774D01*
X50101939Y-49565000D01*
X49898061Y-49565000D01*
X49698102Y-49604774D01*
X49600000Y-49645409D01*
X49501898Y-49604774D01*
X49301939Y-49565000D01*
X49098061Y-49565000D01*
X49011940Y-49582130D01*
X48995226Y-49498102D01*
X48917205Y-49309744D01*
X48803937Y-49140226D01*
X48659774Y-48996063D01*
X48490256Y-48882795D01*
X48301898Y-48804774D01*
X48101939Y-48765000D01*
X47898061Y-48765000D01*
X47698102Y-48804774D01*
X47509744Y-48882795D01*
X47500000Y-48889306D01*
X47490256Y-48882795D01*
X47301898Y-48804774D01*
X47101939Y-48765000D01*
X46898061Y-48765000D01*
X46698102Y-48804774D01*
X46509744Y-48882795D01*
X46340226Y-48996063D01*
X46196063Y-49140226D01*
X46082795Y-49309744D01*
X46004774Y-49498102D01*
X45965000Y-49698061D01*
X45965000Y-49901939D01*
X45980658Y-49980658D01*
X45901939Y-49965000D01*
X45698061Y-49965000D01*
X45498102Y-50004774D01*
X45309744Y-50082795D01*
X45140226Y-50196063D01*
X44996063Y-50340226D01*
X44882795Y-50509744D01*
X44804774Y-50698102D01*
X44765000Y-50898061D01*
X44765000Y-51101939D01*
X44804774Y-51301898D01*
X44882795Y-51490256D01*
X44996063Y-51659774D01*
X45140226Y-51803937D01*
X45309744Y-51917205D01*
X45498102Y-51995226D01*
X45698061Y-52035000D01*
X45901939Y-52035000D01*
X46101898Y-51995226D01*
X46290256Y-51917205D01*
X46459774Y-51803937D01*
X46535739Y-51727972D01*
X46698102Y-51795226D01*
X46898061Y-51835000D01*
X47101939Y-51835000D01*
X47242492Y-51807042D01*
X47204774Y-51898102D01*
X47165000Y-52098061D01*
X47165000Y-52301939D01*
X47204774Y-52501898D01*
X47277519Y-52677519D01*
X47101898Y-52604774D01*
X46901939Y-52565000D01*
X46698061Y-52565000D01*
X46498102Y-52604774D01*
X46309744Y-52682795D01*
X46140226Y-52796063D01*
X46100000Y-52836289D01*
X46059774Y-52796063D01*
X45890256Y-52682795D01*
X45701898Y-52604774D01*
X45501939Y-52565000D01*
X45298061Y-52565000D01*
X45098102Y-52604774D01*
X44909744Y-52682795D01*
X44740226Y-52796063D01*
X44596063Y-52940226D01*
X44482795Y-53109744D01*
X44404774Y-53298102D01*
X44365000Y-53498061D01*
X43610243Y-53498061D01*
X43826632Y-53353475D01*
X44033475Y-53146632D01*
X44195990Y-52903411D01*
X44307932Y-52633158D01*
X44365000Y-52346260D01*
X44365000Y-52053740D01*
X44307932Y-51766842D01*
X44195990Y-51496589D01*
X44033475Y-51253368D01*
X43826632Y-51046525D01*
X43583411Y-50884010D01*
X43313158Y-50772068D01*
X43026260Y-50715000D01*
X42733740Y-50715000D01*
X42446842Y-50772068D01*
X42176589Y-50884010D01*
X41933368Y-51046525D01*
X41726525Y-51253368D01*
X41610000Y-51427760D01*
X41493475Y-51253368D01*
X41286632Y-51046525D01*
X41043411Y-50884010D01*
X40773158Y-50772068D01*
X40486260Y-50715000D01*
X40193740Y-50715000D01*
X39906842Y-50772068D01*
X39636589Y-50884010D01*
X39393368Y-51046525D01*
X39261513Y-51178380D01*
X39239502Y-51105820D01*
X39180537Y-50995506D01*
X39101185Y-50898815D01*
X39004494Y-50819463D01*
X38894180Y-50760498D01*
X38774482Y-50724188D01*
X38650000Y-50711928D01*
X38085750Y-50715000D01*
X37927000Y-50873750D01*
X37673000Y-50873750D01*
X37514250Y-50715000D01*
X36950000Y-50711928D01*
X36825518Y-50724188D01*
X36705820Y-50760498D01*
X36595506Y-50819463D01*
X36498815Y-50898815D01*
X36419463Y-50995506D01*
X36360498Y-51105820D01*
X36324188Y-51225518D01*
X36311928Y-51350000D01*
X29660000Y-51350000D01*
X29660000Y-47029392D01*
X29696333Y-46622285D01*
X30165000Y-46622285D01*
X30165000Y-47377715D01*
X30312377Y-48118628D01*
X30601467Y-48816554D01*
X31021161Y-49444670D01*
X31555330Y-49978839D01*
X32183446Y-50398533D01*
X32881372Y-50687623D01*
X33622285Y-50835000D01*
X34377715Y-50835000D01*
X35118628Y-50687623D01*
X35816554Y-50398533D01*
X36444670Y-49978839D01*
X36978839Y-49444670D01*
X37398533Y-48816554D01*
X37687623Y-48118628D01*
X37835000Y-47377715D01*
X37835000Y-46622285D01*
X37687623Y-45881372D01*
X37398533Y-45183446D01*
X36978839Y-44555330D01*
X36444670Y-44021161D01*
X35816554Y-43601467D01*
X35118628Y-43312377D01*
X34377715Y-43165000D01*
X33622285Y-43165000D01*
X32881372Y-43312377D01*
X32183446Y-43601467D01*
X31555330Y-44021161D01*
X31021161Y-44555330D01*
X30601467Y-45183446D01*
X30312377Y-45881372D01*
X30165000Y-46622285D01*
X29696333Y-46622285D01*
X29731173Y-46231917D01*
X29934656Y-45488109D01*
X30266638Y-44792095D01*
X30716626Y-44165870D01*
X31270403Y-43629223D01*
X31910451Y-43199129D01*
X32616553Y-42889171D01*
X33371457Y-42707935D01*
X34024207Y-42660000D01*
X55476289Y-42660000D01*
X55396063Y-42740226D01*
%TA.AperFunction,Conductor*%
D20*
G36*
X55396063Y-42740226D02*
G01*
X55282795Y-42909744D01*
X55204774Y-43098102D01*
X55165000Y-43298061D01*
X55165000Y-43501939D01*
X55204774Y-43701898D01*
X55282795Y-43890256D01*
X55306010Y-43925000D01*
X41617683Y-43925000D01*
X41580537Y-43855506D01*
X41501185Y-43758815D01*
X41404494Y-43679463D01*
X41294180Y-43620498D01*
X41174482Y-43584188D01*
X41050000Y-43571928D01*
X39350000Y-43571928D01*
X39225518Y-43584188D01*
X39105820Y-43620498D01*
X38995506Y-43679463D01*
X38898815Y-43758815D01*
X38819463Y-43855506D01*
X38760498Y-43965820D01*
X38724188Y-44085518D01*
X38711928Y-44210000D01*
X38711928Y-45910000D01*
X38724188Y-46034482D01*
X38760498Y-46154180D01*
X38819463Y-46264494D01*
X38898815Y-46361185D01*
X38995506Y-46440537D01*
X39105820Y-46499502D01*
X39178380Y-46521513D01*
X39046525Y-46653368D01*
X38884010Y-46896589D01*
X38772068Y-47166842D01*
X38715000Y-47453740D01*
X38715000Y-47746260D01*
X38772068Y-48033158D01*
X38884010Y-48303411D01*
X39046525Y-48546632D01*
X39253368Y-48753475D01*
X39496589Y-48915990D01*
X39766842Y-49027932D01*
X40053740Y-49085000D01*
X40346260Y-49085000D01*
X40633158Y-49027932D01*
X40903411Y-48915990D01*
X41146632Y-48753475D01*
X41353475Y-48546632D01*
X41515990Y-48303411D01*
X41627932Y-48033158D01*
X41685000Y-47746260D01*
X41685000Y-47453740D01*
X41644474Y-47250000D01*
X55411928Y-47250000D01*
X55411928Y-48950000D01*
X55424188Y-49074482D01*
X55460498Y-49194180D01*
X55519463Y-49304494D01*
X55598815Y-49401185D01*
X55695506Y-49480537D01*
X55805820Y-49539502D01*
X55925518Y-49575812D01*
X56050000Y-49588072D01*
X57750000Y-49588072D01*
X57874482Y-49575812D01*
X57994180Y-49539502D01*
X58104494Y-49480537D01*
X58201185Y-49401185D01*
X58280537Y-49304494D01*
X58339502Y-49194180D01*
X58363966Y-49113534D01*
X58439731Y-49197588D01*
X58673080Y-49371641D01*
X58935901Y-49496825D01*
X59083110Y-49541476D01*
X59313000Y-49420155D01*
X59313000Y-48227000D01*
X59293000Y-48227000D01*
X59293000Y-47973000D01*
X59313000Y-47973000D01*
X59313000Y-46779845D01*
X59567000Y-46779845D01*
X59567000Y-47973000D01*
X59587000Y-47973000D01*
X59587000Y-48227000D01*
X59567000Y-48227000D01*
X59567000Y-49420155D01*
X59796890Y-49541476D01*
X59944099Y-49496825D01*
X60206920Y-49371641D01*
X60440269Y-49197588D01*
X60635178Y-48981355D01*
X60704805Y-48864466D01*
X60826525Y-49046632D01*
X61033368Y-49253475D01*
X61276589Y-49415990D01*
X61546842Y-49527932D01*
X61833740Y-49585000D01*
X62126260Y-49585000D01*
X62413158Y-49527932D01*
X62683411Y-49415990D01*
X62926632Y-49253475D01*
X63133475Y-49046632D01*
X63295990Y-48803411D01*
X63407932Y-48533158D01*
X63465000Y-48246260D01*
X63465000Y-47953740D01*
X63407932Y-47666842D01*
X63295990Y-47396589D01*
X63133475Y-47153368D01*
X62926632Y-46946525D01*
X62683411Y-46784010D01*
X62413158Y-46672068D01*
X62126260Y-46615000D01*
X61833740Y-46615000D01*
X61546842Y-46672068D01*
X61276589Y-46784010D01*
X61033368Y-46946525D01*
X60826525Y-47153368D01*
X60704805Y-47335534D01*
X60635178Y-47218645D01*
X60440269Y-47002412D01*
X60206920Y-46828359D01*
X59944099Y-46703175D01*
X59796890Y-46658524D01*
X59567000Y-46779845D01*
X59313000Y-46779845D01*
X59083110Y-46658524D01*
X58935901Y-46703175D01*
X58673080Y-46828359D01*
X58439731Y-47002412D01*
X58363966Y-47086466D01*
X58339502Y-47005820D01*
X58280537Y-46895506D01*
X58201185Y-46798815D01*
X58104494Y-46719463D01*
X57994180Y-46660498D01*
X57874482Y-46624188D01*
X57750000Y-46611928D01*
X56050000Y-46611928D01*
X55925518Y-46624188D01*
X55805820Y-46660498D01*
X55695506Y-46719463D01*
X55598815Y-46798815D01*
X55519463Y-46895506D01*
X55460498Y-47005820D01*
X55424188Y-47125518D01*
X55411928Y-47250000D01*
X41644474Y-47250000D01*
X41627932Y-47166842D01*
X41515990Y-46896589D01*
X41353475Y-46653368D01*
X41221620Y-46521513D01*
X41294180Y-46499502D01*
X41404494Y-46440537D01*
X41501185Y-46361185D01*
X41580537Y-46264494D01*
X41617683Y-46195000D01*
X57884249Y-46195000D01*
X57940000Y-46200491D01*
X57995751Y-46195000D01*
X57995752Y-46195000D01*
X58162499Y-46178577D01*
X58376447Y-46113676D01*
X58573623Y-46008284D01*
X58746449Y-45866449D01*
X58781996Y-45823136D01*
X59570133Y-45034999D01*
X62365000Y-45034999D01*
X62365000Y-45101939D01*
X62404774Y-45301898D01*
X62482795Y-45490256D01*
X62596063Y-45659774D01*
X62740226Y-45803937D01*
X62909744Y-45917205D01*
X63098102Y-45995226D01*
X63298061Y-46035000D01*
X63501939Y-46035000D01*
X63701898Y-45995226D01*
X63890256Y-45917205D01*
X64059774Y-45803937D01*
X64203937Y-45659774D01*
X64317205Y-45490256D01*
X64395226Y-45301898D01*
X64435000Y-45101939D01*
X64435000Y-45040131D01*
X65758009Y-46363140D01*
X65793551Y-46406449D01*
X65966377Y-46548284D01*
X66163553Y-46653676D01*
X66377501Y-46718577D01*
X66544248Y-46735000D01*
X66544257Y-46735000D01*
X66599999Y-46740490D01*
X66655741Y-46735000D01*
X67182317Y-46735000D01*
X67219463Y-46804494D01*
X67298815Y-46901185D01*
X67395506Y-46980537D01*
X67505820Y-47039502D01*
X67578380Y-47061513D01*
X67446525Y-47193368D01*
X67284010Y-47436589D01*
X67172068Y-47706842D01*
X67115000Y-47993740D01*
X67115000Y-48286260D01*
X67172068Y-48573158D01*
X67284010Y-48843411D01*
X67446525Y-49086632D01*
X67653368Y-49293475D01*
X67896589Y-49455990D01*
X68166842Y-49567932D01*
X68453740Y-49625000D01*
X68746260Y-49625000D01*
X69033158Y-49567932D01*
X69303411Y-49455990D01*
X69546632Y-49293475D01*
X69753475Y-49086632D01*
X69915990Y-48843411D01*
X70027932Y-48573158D01*
X70085000Y-48286260D01*
X70085000Y-47993740D01*
X70027932Y-47706842D01*
X69915990Y-47436589D01*
X69753475Y-47193368D01*
X69621620Y-47061513D01*
X69694180Y-47039502D01*
X69804494Y-46980537D01*
X69901185Y-46901185D01*
X69980537Y-46804494D01*
X70039502Y-46694180D01*
X70061311Y-46622285D01*
X70165000Y-46622285D01*
X70165000Y-47377715D01*
X70312377Y-48118628D01*
X70601467Y-48816554D01*
X71021161Y-49444670D01*
X71555330Y-49978839D01*
X72183446Y-50398533D01*
X72881372Y-50687623D01*
X73622285Y-50835000D01*
X74377715Y-50835000D01*
X75118628Y-50687623D01*
X75816554Y-50398533D01*
X76444670Y-49978839D01*
X76978839Y-49444670D01*
X77398533Y-48816554D01*
X77687623Y-48118628D01*
X77835000Y-47377715D01*
X77835000Y-46622285D01*
X77687623Y-45881372D01*
X77398533Y-45183446D01*
X76978839Y-44555330D01*
X76444670Y-44021161D01*
X75816554Y-43601467D01*
X75118628Y-43312377D01*
X74377715Y-43165000D01*
X73622285Y-43165000D01*
X72881372Y-43312377D01*
X72183446Y-43601467D01*
X71555330Y-44021161D01*
X71021161Y-44555330D01*
X70601467Y-45183446D01*
X70312377Y-45881372D01*
X70165000Y-46622285D01*
X70061311Y-46622285D01*
X70075812Y-46574482D01*
X70088072Y-46450000D01*
X70088072Y-44750000D01*
X70075812Y-44625518D01*
X70039502Y-44505820D01*
X69980537Y-44395506D01*
X69901185Y-44298815D01*
X69804494Y-44219463D01*
X69694180Y-44160498D01*
X69574482Y-44124188D01*
X69450000Y-44111928D01*
X67750000Y-44111928D01*
X67625518Y-44124188D01*
X67505820Y-44160498D01*
X67395506Y-44219463D01*
X67298815Y-44298815D01*
X67219463Y-44395506D01*
X67182317Y-44465000D01*
X67070132Y-44465000D01*
X65741995Y-43136864D01*
X65706448Y-43093550D01*
X65533622Y-42951715D01*
X65336446Y-42846323D01*
X65122498Y-42781422D01*
X64955751Y-42764999D01*
X64955750Y-42764999D01*
X64899999Y-42759508D01*
X64844248Y-42764999D01*
X59155752Y-42764999D01*
X59100000Y-42759508D01*
X58877501Y-42781422D01*
X58840574Y-42792624D01*
X58663554Y-42846323D01*
X58466378Y-42951715D01*
X58293552Y-43093550D01*
X58258009Y-43136859D01*
X57469869Y-43925000D01*
X57093990Y-43925000D01*
X57117205Y-43890256D01*
X57195226Y-43701898D01*
X57235000Y-43501939D01*
X57235000Y-43298061D01*
X57195226Y-43098102D01*
X57117205Y-42909744D01*
X57003937Y-42740226D01*
X56923711Y-42660000D01*
X73970608Y-42660000D01*
X74768083Y-42731173D01*
X75511891Y-42934656D01*
X76207905Y-43266638D01*
X76834130Y-43716626D01*
X77370777Y-44270403D01*
X77800871Y-44910451D01*
X78110829Y-45616553D01*
X78292065Y-46371457D01*
X78340000Y-47024207D01*
X78340001Y-85972899D01*
X78266098Y-86871802D01*
X78052999Y-87720180D01*
X77704197Y-88522371D01*
X77229062Y-89256818D01*
X76640354Y-89903799D01*
X75953875Y-90445946D01*
X75188076Y-90868691D01*
X74363514Y-91160683D01*
X73490925Y-91316116D01*
X72984453Y-91340000D01*
X35027089Y-91340000D01*
X34128198Y-91266098D01*
X33279820Y-91052999D01*
X32477629Y-90704197D01*
X31743182Y-90229062D01*
X31096201Y-89640354D01*
X30554054Y-88953875D01*
X30131309Y-88188076D01*
X29839317Y-87363514D01*
X29707283Y-86622285D01*
X30165000Y-86622285D01*
X30165000Y-87377715D01*
X30312377Y-88118628D01*
X30601467Y-88816554D01*
X31021161Y-89444670D01*
X31555330Y-89978839D01*
X32183446Y-90398533D01*
X32881372Y-90687623D01*
X33622285Y-90835000D01*
X34377715Y-90835000D01*
X35118628Y-90687623D01*
X35816554Y-90398533D01*
X36444670Y-89978839D01*
X36978839Y-89444670D01*
X37398533Y-88816554D01*
X37687623Y-88118628D01*
X37835000Y-87377715D01*
X37835000Y-86622285D01*
X37820622Y-86550000D01*
X40911928Y-86550000D01*
X40911928Y-88250000D01*
X40924188Y-88374482D01*
X40960498Y-88494180D01*
X41019463Y-88604494D01*
X41098815Y-88701185D01*
X41195506Y-88780537D01*
X41305820Y-88839502D01*
X41425518Y-88875812D01*
X41550000Y-88888072D01*
X43250000Y-88888072D01*
X43374482Y-88875812D01*
X43494180Y-88839502D01*
X43604494Y-88780537D01*
X43701185Y-88701185D01*
X43780537Y-88604494D01*
X43839502Y-88494180D01*
X43861513Y-88421620D01*
X43993368Y-88553475D01*
X44236589Y-88715990D01*
X44506842Y-88827932D01*
X44793740Y-88885000D01*
X45086260Y-88885000D01*
X45373158Y-88827932D01*
X45643411Y-88715990D01*
X45886632Y-88553475D01*
X46093475Y-88346632D01*
X46210000Y-88172240D01*
X46326525Y-88346632D01*
X46533368Y-88553475D01*
X46776589Y-88715990D01*
X47046842Y-88827932D01*
X47333740Y-88885000D01*
X47626260Y-88885000D01*
X47913158Y-88827932D01*
X48183411Y-88715990D01*
X48426632Y-88553475D01*
X48633475Y-88346632D01*
X48750000Y-88172240D01*
X48866525Y-88346632D01*
X49073368Y-88553475D01*
X49316589Y-88715990D01*
X49586842Y-88827932D01*
X49873740Y-88885000D01*
X50166260Y-88885000D01*
X50453158Y-88827932D01*
X50723411Y-88715990D01*
X50966632Y-88553475D01*
X51173475Y-88346632D01*
X51290000Y-88172240D01*
X51406525Y-88346632D01*
X51613368Y-88553475D01*
X51856589Y-88715990D01*
X52126842Y-88827932D01*
X52413740Y-88885000D01*
X52706260Y-88885000D01*
X52993158Y-88827932D01*
X53263411Y-88715990D01*
X53506632Y-88553475D01*
X53713475Y-88346632D01*
X53830000Y-88172240D01*
X53946525Y-88346632D01*
X54153368Y-88553475D01*
X54396589Y-88715990D01*
X54666842Y-88827932D01*
X54953740Y-88885000D01*
X55246260Y-88885000D01*
X55533158Y-88827932D01*
X55803411Y-88715990D01*
X56046632Y-88553475D01*
X56253475Y-88346632D01*
X56370000Y-88172240D01*
X56486525Y-88346632D01*
X56693368Y-88553475D01*
X56936589Y-88715990D01*
X57206842Y-88827932D01*
X57493740Y-88885000D01*
X57786260Y-88885000D01*
X58073158Y-88827932D01*
X58343411Y-88715990D01*
X58586632Y-88553475D01*
X58793475Y-88346632D01*
X58910000Y-88172240D01*
X59026525Y-88346632D01*
X59233368Y-88553475D01*
X59476589Y-88715990D01*
X59746842Y-88827932D01*
X60033740Y-88885000D01*
X60326260Y-88885000D01*
X60613158Y-88827932D01*
X60883411Y-88715990D01*
X61126632Y-88553475D01*
X61333475Y-88346632D01*
X61450000Y-88172240D01*
X61566525Y-88346632D01*
X61773368Y-88553475D01*
X62016589Y-88715990D01*
X62286842Y-88827932D01*
X62573740Y-88885000D01*
X62866260Y-88885000D01*
X63153158Y-88827932D01*
X63423411Y-88715990D01*
X63666632Y-88553475D01*
X63873475Y-88346632D01*
X63990000Y-88172240D01*
X64106525Y-88346632D01*
X64313368Y-88553475D01*
X64556589Y-88715990D01*
X64826842Y-88827932D01*
X65113740Y-88885000D01*
X65406260Y-88885000D01*
X65693158Y-88827932D01*
X65963411Y-88715990D01*
X66206632Y-88553475D01*
X66413475Y-88346632D01*
X66575990Y-88103411D01*
X66687932Y-87833158D01*
X66745000Y-87546260D01*
X66745000Y-87253740D01*
X66687932Y-86966842D01*
X66575990Y-86696589D01*
X66526342Y-86622285D01*
X70165000Y-86622285D01*
X70165000Y-87377715D01*
X70312377Y-88118628D01*
X70601467Y-88816554D01*
X71021161Y-89444670D01*
X71555330Y-89978839D01*
X72183446Y-90398533D01*
X72881372Y-90687623D01*
X73622285Y-90835000D01*
X74377715Y-90835000D01*
X75118628Y-90687623D01*
X75816554Y-90398533D01*
X76444670Y-89978839D01*
X76978839Y-89444670D01*
X77398533Y-88816554D01*
X77687623Y-88118628D01*
X77835000Y-87377715D01*
X77835000Y-86622285D01*
X77687623Y-85881372D01*
X77398533Y-85183446D01*
X76978839Y-84555330D01*
X76444670Y-84021161D01*
X75816554Y-83601467D01*
X75118628Y-83312377D01*
X74377715Y-83165000D01*
X73622285Y-83165000D01*
X72881372Y-83312377D01*
X72183446Y-83601467D01*
X71555330Y-84021161D01*
X71021161Y-84555330D01*
X70601467Y-85183446D01*
X70312377Y-85881372D01*
X70165000Y-86622285D01*
X66526342Y-86622285D01*
X66413475Y-86453368D01*
X66206632Y-86246525D01*
X65963411Y-86084010D01*
X65693158Y-85972068D01*
X65406260Y-85915000D01*
X65113740Y-85915000D01*
X64826842Y-85972068D01*
X64556589Y-86084010D01*
X64313368Y-86246525D01*
X64106525Y-86453368D01*
X63990000Y-86627760D01*
X63873475Y-86453368D01*
X63666632Y-86246525D01*
X63423411Y-86084010D01*
X63153158Y-85972068D01*
X62866260Y-85915000D01*
X62573740Y-85915000D01*
X62286842Y-85972068D01*
X62016589Y-86084010D01*
X61773368Y-86246525D01*
X61566525Y-86453368D01*
X61450000Y-86627760D01*
X61333475Y-86453368D01*
X61126632Y-86246525D01*
X60883411Y-86084010D01*
X60613158Y-85972068D01*
X60326260Y-85915000D01*
X60033740Y-85915000D01*
X59746842Y-85972068D01*
X59476589Y-86084010D01*
X59233368Y-86246525D01*
X59026525Y-86453368D01*
X58910000Y-86627760D01*
X58793475Y-86453368D01*
X58586632Y-86246525D01*
X58343411Y-86084010D01*
X58073158Y-85972068D01*
X57786260Y-85915000D01*
X57493740Y-85915000D01*
X57206842Y-85972068D01*
X56936589Y-86084010D01*
X56693368Y-86246525D01*
X56486525Y-86453368D01*
X56370000Y-86627760D01*
X56253475Y-86453368D01*
X56046632Y-86246525D01*
X55803411Y-86084010D01*
X55533158Y-85972068D01*
X55246260Y-85915000D01*
X54953740Y-85915000D01*
X54666842Y-85972068D01*
X54396589Y-86084010D01*
X54153368Y-86246525D01*
X53946525Y-86453368D01*
X53830000Y-86627760D01*
X53713475Y-86453368D01*
X53506632Y-86246525D01*
X53263411Y-86084010D01*
X52993158Y-85972068D01*
X52706260Y-85915000D01*
X52413740Y-85915000D01*
X52126842Y-85972068D01*
X51856589Y-86084010D01*
X51613368Y-86246525D01*
X51406525Y-86453368D01*
X51290000Y-86627760D01*
X51173475Y-86453368D01*
X50966632Y-86246525D01*
X50723411Y-86084010D01*
X50453158Y-85972068D01*
X50166260Y-85915000D01*
X49873740Y-85915000D01*
X49586842Y-85972068D01*
X49316589Y-86084010D01*
X49073368Y-86246525D01*
X48866525Y-86453368D01*
X48750000Y-86627760D01*
X48633475Y-86453368D01*
X48426632Y-86246525D01*
X48183411Y-86084010D01*
X47913158Y-85972068D01*
X47626260Y-85915000D01*
X47333740Y-85915000D01*
X47046842Y-85972068D01*
X46776589Y-86084010D01*
X46533368Y-86246525D01*
X46326525Y-86453368D01*
X46210000Y-86627760D01*
X46093475Y-86453368D01*
X45886632Y-86246525D01*
X45643411Y-86084010D01*
X45373158Y-85972068D01*
X45086260Y-85915000D01*
X44793740Y-85915000D01*
X44506842Y-85972068D01*
X44236589Y-86084010D01*
X43993368Y-86246525D01*
X43861513Y-86378380D01*
X43839502Y-86305820D01*
X43780537Y-86195506D01*
X43701185Y-86098815D01*
X43604494Y-86019463D01*
X43494180Y-85960498D01*
X43374482Y-85924188D01*
X43250000Y-85911928D01*
X41550000Y-85911928D01*
X41425518Y-85924188D01*
X41305820Y-85960498D01*
X41195506Y-86019463D01*
X41098815Y-86098815D01*
X41019463Y-86195506D01*
X40960498Y-86305820D01*
X40924188Y-86425518D01*
X40911928Y-86550000D01*
X37820622Y-86550000D01*
X37687623Y-85881372D01*
X37398533Y-85183446D01*
X36978839Y-84555330D01*
X36444670Y-84021161D01*
X35816554Y-83601467D01*
X35118628Y-83312377D01*
X34377715Y-83165000D01*
X33622285Y-83165000D01*
X32881372Y-83312377D01*
X32183446Y-83601467D01*
X31555330Y-84021161D01*
X31021161Y-84555330D01*
X30601467Y-85183446D01*
X30312377Y-85881372D01*
X30165000Y-86622285D01*
X29707283Y-86622285D01*
X29683884Y-86490925D01*
X29660000Y-85984453D01*
X29660000Y-82296890D01*
X37018524Y-82296890D01*
X37063175Y-82444099D01*
X37188359Y-82706920D01*
X37362412Y-82940269D01*
X37578645Y-83135178D01*
X37828748Y-83284157D01*
X38103109Y-83381481D01*
X38333000Y-83260814D01*
X38333000Y-82067000D01*
X38587000Y-82067000D01*
X38587000Y-83260814D01*
X38816891Y-83381481D01*
X39091252Y-83284157D01*
X39341355Y-83135178D01*
X39557588Y-82940269D01*
X39730000Y-82709120D01*
X39902412Y-82940269D01*
X40118645Y-83135178D01*
X40368748Y-83284157D01*
X40643109Y-83381481D01*
X40873000Y-83260814D01*
X40873000Y-82067000D01*
X41127000Y-82067000D01*
X41127000Y-83260814D01*
X41356891Y-83381481D01*
X41631252Y-83284157D01*
X41881355Y-83135178D01*
X42097588Y-82940269D01*
X42271641Y-82706920D01*
X42396825Y-82444099D01*
X42441476Y-82296890D01*
X42320155Y-82067000D01*
X41127000Y-82067000D01*
X40873000Y-82067000D01*
X38587000Y-82067000D01*
X38333000Y-82067000D01*
X37139845Y-82067000D01*
X37018524Y-82296890D01*
X29660000Y-82296890D01*
X29660000Y-54830000D01*
X30911928Y-54830000D01*
X30911928Y-56530000D01*
X30924188Y-56654482D01*
X30960498Y-56774180D01*
X31019463Y-56884494D01*
X31098815Y-56981185D01*
X31195506Y-57060537D01*
X31305820Y-57119502D01*
X31378380Y-57141513D01*
X31246525Y-57273368D01*
X31084010Y-57516589D01*
X30972068Y-57786842D01*
X30915000Y-58073740D01*
X30915000Y-58366260D01*
X30972068Y-58653158D01*
X31084010Y-58923411D01*
X31246525Y-59166632D01*
X31453368Y-59373475D01*
X31627760Y-59490000D01*
X31453368Y-59606525D01*
X31246525Y-59813368D01*
X31084010Y-60056589D01*
X30972068Y-60326842D01*
X30915000Y-60613740D01*
X30915000Y-60906260D01*
X30972068Y-61193158D01*
X31084010Y-61463411D01*
X31246525Y-61706632D01*
X31453368Y-61913475D01*
X31627760Y-62030000D01*
X31453368Y-62146525D01*
X31246525Y-62353368D01*
X31084010Y-62596589D01*
X30972068Y-62866842D01*
X30915000Y-63153740D01*
X30915000Y-63446260D01*
X30972068Y-63733158D01*
X31084010Y-64003411D01*
X31246525Y-64246632D01*
X31453368Y-64453475D01*
X31627760Y-64570000D01*
X31453368Y-64686525D01*
X31246525Y-64893368D01*
X31084010Y-65136589D01*
X30972068Y-65406842D01*
X30915000Y-65693740D01*
X30915000Y-65986260D01*
X30972068Y-66273158D01*
X31084010Y-66543411D01*
X31246525Y-66786632D01*
X31453368Y-66993475D01*
X31627760Y-67110000D01*
X31453368Y-67226525D01*
X31246525Y-67433368D01*
X31084010Y-67676589D01*
X30972068Y-67946842D01*
X30915000Y-68233740D01*
X30915000Y-68526260D01*
X30972068Y-68813158D01*
X31084010Y-69083411D01*
X31246525Y-69326632D01*
X31453368Y-69533475D01*
X31627760Y-69650000D01*
X31453368Y-69766525D01*
X31246525Y-69973368D01*
X31084010Y-70216589D01*
X30972068Y-70486842D01*
X30915000Y-70773740D01*
X30915000Y-71066260D01*
X30972068Y-71353158D01*
X31084010Y-71623411D01*
X31246525Y-71866632D01*
X31453368Y-72073475D01*
X31627760Y-72190000D01*
X31453368Y-72306525D01*
X31246525Y-72513368D01*
X31084010Y-72756589D01*
X30972068Y-73026842D01*
X30915000Y-73313740D01*
X30915000Y-73606260D01*
X30972068Y-73893158D01*
X31084010Y-74163411D01*
X31246525Y-74406632D01*
X31453368Y-74613475D01*
X31627760Y-74730000D01*
X31453368Y-74846525D01*
X31246525Y-75053368D01*
X31084010Y-75296589D01*
X30972068Y-75566842D01*
X30915000Y-75853740D01*
X30915000Y-76146260D01*
X30972068Y-76433158D01*
X31084010Y-76703411D01*
X31246525Y-76946632D01*
X31453368Y-77153475D01*
X31627760Y-77270000D01*
X31453368Y-77386525D01*
X31246525Y-77593368D01*
X31084010Y-77836589D01*
X30972068Y-78106842D01*
X30915000Y-78393740D01*
X30915000Y-78686260D01*
X30972068Y-78973158D01*
X31084010Y-79243411D01*
X31246525Y-79486632D01*
X31453368Y-79693475D01*
X31696589Y-79855990D01*
X31966842Y-79967932D01*
X32253740Y-80025000D01*
X32546260Y-80025000D01*
X32833158Y-79967932D01*
X33103411Y-79855990D01*
X33251724Y-79756890D01*
X37018524Y-79756890D01*
X37063175Y-79904099D01*
X37188359Y-80166920D01*
X37362412Y-80400269D01*
X37578645Y-80595178D01*
X37704255Y-80670000D01*
X37578645Y-80744822D01*
X37362412Y-80939731D01*
X37188359Y-81173080D01*
X37063175Y-81435901D01*
X37018524Y-81583110D01*
X37139845Y-81813000D01*
X38333000Y-81813000D01*
X38333000Y-79527000D01*
X38587000Y-79527000D01*
X38587000Y-81813000D01*
X40873000Y-81813000D01*
X40873000Y-79527000D01*
X41127000Y-79527000D01*
X41127000Y-81813000D01*
X42320155Y-81813000D01*
X42441476Y-81583110D01*
X42396825Y-81435901D01*
X42271641Y-81173080D01*
X42097588Y-80939731D01*
X42013534Y-80863966D01*
X42094180Y-80839502D01*
X42204494Y-80780537D01*
X42301185Y-80701185D01*
X42380537Y-80604494D01*
X42439502Y-80494180D01*
X42475812Y-80374482D01*
X42488072Y-80250000D01*
X42485000Y-79685750D01*
X42326250Y-79527000D01*
X41127000Y-79527000D01*
X40873000Y-79527000D01*
X38587000Y-79527000D01*
X38333000Y-79527000D01*
X37139845Y-79527000D01*
X37018524Y-79756890D01*
X33251724Y-79756890D01*
X33346632Y-79693475D01*
X33553475Y-79486632D01*
X33715990Y-79243411D01*
X33798957Y-79043110D01*
X37018524Y-79043110D01*
X37139845Y-79273000D01*
X38333000Y-79273000D01*
X38333000Y-78079186D01*
X38587000Y-78079186D01*
X38587000Y-79273000D01*
X40873000Y-79273000D01*
X40873000Y-78073750D01*
X41127000Y-78073750D01*
X41127000Y-79273000D01*
X42326250Y-79273000D01*
X42345510Y-79253740D01*
X66715000Y-79253740D01*
X66715000Y-79546260D01*
X66772068Y-79833158D01*
X66884010Y-80103411D01*
X67046525Y-80346632D01*
X67253368Y-80553475D01*
X67427760Y-80670000D01*
X67253368Y-80786525D01*
X67046525Y-80993368D01*
X66884010Y-81236589D01*
X66772068Y-81506842D01*
X66715000Y-81793740D01*
X66715000Y-82086260D01*
X66772068Y-82373158D01*
X66884010Y-82643411D01*
X67046525Y-82886632D01*
X67253368Y-83093475D01*
X67496589Y-83255990D01*
X67766842Y-83367932D01*
X68053740Y-83425000D01*
X68346260Y-83425000D01*
X68633158Y-83367932D01*
X68903411Y-83255990D01*
X69146632Y-83093475D01*
X69353475Y-82886632D01*
X69470000Y-82712240D01*
X69586525Y-82886632D01*
X69793368Y-83093475D01*
X70036589Y-83255990D01*
X70306842Y-83367932D01*
X70593740Y-83425000D01*
X70886260Y-83425000D01*
X71173158Y-83367932D01*
X71443411Y-83255990D01*
X71686632Y-83093475D01*
X71893475Y-82886632D01*
X72055990Y-82643411D01*
X72167932Y-82373158D01*
X72225000Y-82086260D01*
X72225000Y-81793740D01*
X72167932Y-81506842D01*
X72055990Y-81236589D01*
X71893475Y-80993368D01*
X71761620Y-80861513D01*
X71834180Y-80839502D01*
X71944494Y-80780537D01*
X72041185Y-80701185D01*
X72120537Y-80604494D01*
X72179502Y-80494180D01*
X72215812Y-80374482D01*
X72228072Y-80250000D01*
X72228072Y-78550000D01*
X72215812Y-78425518D01*
X72179502Y-78305820D01*
X72120537Y-78195506D01*
X72041185Y-78098815D01*
X71944494Y-78019463D01*
X71834180Y-77960498D01*
X71714482Y-77924188D01*
X71590000Y-77911928D01*
X69890000Y-77911928D01*
X69765518Y-77924188D01*
X69645820Y-77960498D01*
X69535506Y-78019463D01*
X69438815Y-78098815D01*
X69359463Y-78195506D01*
X69300498Y-78305820D01*
X69278487Y-78378380D01*
X69146632Y-78246525D01*
X68903411Y-78084010D01*
X68633158Y-77972068D01*
X68346260Y-77915000D01*
X68053740Y-77915000D01*
X67766842Y-77972068D01*
X67496589Y-78084010D01*
X67253368Y-78246525D01*
X67046525Y-78453368D01*
X66884010Y-78696589D01*
X66772068Y-78966842D01*
X66715000Y-79253740D01*
X42345510Y-79253740D01*
X42485000Y-79114250D01*
X42488072Y-78550000D01*
X42475812Y-78425518D01*
X42439502Y-78305820D01*
X42380537Y-78195506D01*
X42301185Y-78098815D01*
X42204494Y-78019463D01*
X42094180Y-77960498D01*
X41974482Y-77924188D01*
X41850000Y-77911928D01*
X41285750Y-77915000D01*
X41127000Y-78073750D01*
X40873000Y-78073750D01*
X40714250Y-77915000D01*
X40150000Y-77911928D01*
X40025518Y-77924188D01*
X39905820Y-77960498D01*
X39795506Y-78019463D01*
X39698815Y-78098815D01*
X39619463Y-78195506D01*
X39560498Y-78305820D01*
X39537502Y-78381626D01*
X39341355Y-78204822D01*
X39091252Y-78055843D01*
X38816891Y-77958519D01*
X38587000Y-78079186D01*
X38333000Y-78079186D01*
X38103109Y-77958519D01*
X37828748Y-78055843D01*
X37578645Y-78204822D01*
X37362412Y-78399731D01*
X37188359Y-78633080D01*
X37063175Y-78895901D01*
X37018524Y-79043110D01*
X33798957Y-79043110D01*
X33827932Y-78973158D01*
X33885000Y-78686260D01*
X33885000Y-78393740D01*
X33827932Y-78106842D01*
X33715990Y-77836589D01*
X33553475Y-77593368D01*
X33346632Y-77386525D01*
X33214237Y-77298061D01*
X53365000Y-77298061D01*
X53365000Y-77501939D01*
X53404774Y-77701898D01*
X53482795Y-77890256D01*
X53596063Y-78059774D01*
X53740226Y-78203937D01*
X53909744Y-78317205D01*
X54098102Y-78395226D01*
X54298061Y-78435000D01*
X54501939Y-78435000D01*
X54701898Y-78395226D01*
X54890256Y-78317205D01*
X55059774Y-78203937D01*
X55203937Y-78059774D01*
X55317205Y-77890256D01*
X55375301Y-77750000D01*
X73911928Y-77750000D01*
X73911928Y-79450000D01*
X73924188Y-79574482D01*
X73960498Y-79694180D01*
X74019463Y-79804494D01*
X74098815Y-79901185D01*
X74195506Y-79980537D01*
X74305820Y-80039502D01*
X74425518Y-80075812D01*
X74550000Y-80088072D01*
X76250000Y-80088072D01*
X76374482Y-80075812D01*
X76494180Y-80039502D01*
X76604494Y-79980537D01*
X76701185Y-79901185D01*
X76780537Y-79804494D01*
X76839502Y-79694180D01*
X76875812Y-79574482D01*
X76888072Y-79450000D01*
X76888072Y-77750000D01*
X76875812Y-77625518D01*
X76839502Y-77505820D01*
X76780537Y-77395506D01*
X76701185Y-77298815D01*
X76604494Y-77219463D01*
X76494180Y-77160498D01*
X76421620Y-77138487D01*
X76553475Y-77006632D01*
X76715990Y-76763411D01*
X76827932Y-76493158D01*
X76885000Y-76206260D01*
X76885000Y-75913740D01*
X76827932Y-75626842D01*
X76715990Y-75356589D01*
X76553475Y-75113368D01*
X76346632Y-74906525D01*
X76172240Y-74790000D01*
X76346632Y-74673475D01*
X76553475Y-74466632D01*
X76715990Y-74223411D01*
X76827932Y-73953158D01*
X76885000Y-73666260D01*
X76885000Y-73373740D01*
X76827932Y-73086842D01*
X76715990Y-72816589D01*
X76553475Y-72573368D01*
X76346632Y-72366525D01*
X76172240Y-72250000D01*
X76346632Y-72133475D01*
X76553475Y-71926632D01*
X76715990Y-71683411D01*
X76827932Y-71413158D01*
X76885000Y-71126260D01*
X76885000Y-70833740D01*
X76827932Y-70546842D01*
X76715990Y-70276589D01*
X76553475Y-70033368D01*
X76346632Y-69826525D01*
X76172240Y-69710000D01*
X76346632Y-69593475D01*
X76553475Y-69386632D01*
X76715990Y-69143411D01*
X76827932Y-68873158D01*
X76885000Y-68586260D01*
X76885000Y-68293740D01*
X76827932Y-68006842D01*
X76715990Y-67736589D01*
X76553475Y-67493368D01*
X76346632Y-67286525D01*
X76172240Y-67170000D01*
X76346632Y-67053475D01*
X76553475Y-66846632D01*
X76715990Y-66603411D01*
X76827932Y-66333158D01*
X76885000Y-66046260D01*
X76885000Y-65753740D01*
X76827932Y-65466842D01*
X76715990Y-65196589D01*
X76553475Y-64953368D01*
X76346632Y-64746525D01*
X76172240Y-64630000D01*
X76346632Y-64513475D01*
X76553475Y-64306632D01*
X76715990Y-64063411D01*
X76827932Y-63793158D01*
X76885000Y-63506260D01*
X76885000Y-63213740D01*
X76827932Y-62926842D01*
X76715990Y-62656589D01*
X76553475Y-62413368D01*
X76346632Y-62206525D01*
X76172240Y-62090000D01*
X76346632Y-61973475D01*
X76553475Y-61766632D01*
X76715990Y-61523411D01*
X76827932Y-61253158D01*
X76885000Y-60966260D01*
X76885000Y-60673740D01*
X76827932Y-60386842D01*
X76715990Y-60116589D01*
X76553475Y-59873368D01*
X76346632Y-59666525D01*
X76172240Y-59550000D01*
X76346632Y-59433475D01*
X76553475Y-59226632D01*
X76715990Y-58983411D01*
X76827932Y-58713158D01*
X76885000Y-58426260D01*
X76885000Y-58133740D01*
X76827932Y-57846842D01*
X76715990Y-57576589D01*
X76553475Y-57333368D01*
X76346632Y-57126525D01*
X76172240Y-57010000D01*
X76346632Y-56893475D01*
X76553475Y-56686632D01*
X76715990Y-56443411D01*
X76827932Y-56173158D01*
X76885000Y-55886260D01*
X76885000Y-55593740D01*
X76827932Y-55306842D01*
X76715990Y-55036589D01*
X76553475Y-54793368D01*
X76346632Y-54586525D01*
X76103411Y-54424010D01*
X75833158Y-54312068D01*
X75546260Y-54255000D01*
X75253740Y-54255000D01*
X74966842Y-54312068D01*
X74696589Y-54424010D01*
X74453368Y-54586525D01*
X74246525Y-54793368D01*
X74084010Y-55036589D01*
X73972068Y-55306842D01*
X73915000Y-55593740D01*
X73915000Y-55886260D01*
X73972068Y-56173158D01*
X74084010Y-56443411D01*
X74246525Y-56686632D01*
X74453368Y-56893475D01*
X74627760Y-57010000D01*
X74453368Y-57126525D01*
X74246525Y-57333368D01*
X74084010Y-57576589D01*
X73972068Y-57846842D01*
X73915000Y-58133740D01*
X73915000Y-58426260D01*
X73972068Y-58713158D01*
X74084010Y-58983411D01*
X74246525Y-59226632D01*
X74453368Y-59433475D01*
X74627760Y-59550000D01*
X74453368Y-59666525D01*
X74246525Y-59873368D01*
X74084010Y-60116589D01*
X73972068Y-60386842D01*
X73915000Y-60673740D01*
X73915000Y-60966260D01*
X73972068Y-61253158D01*
X74084010Y-61523411D01*
X74246525Y-61766632D01*
X74453368Y-61973475D01*
X74627760Y-62090000D01*
X74453368Y-62206525D01*
X74246525Y-62413368D01*
X74084010Y-62656589D01*
X73972068Y-62926842D01*
X73915000Y-63213740D01*
X73915000Y-63506260D01*
X73972068Y-63793158D01*
X74084010Y-64063411D01*
X74246525Y-64306632D01*
X74453368Y-64513475D01*
X74627760Y-64630000D01*
X74453368Y-64746525D01*
X74246525Y-64953368D01*
X74084010Y-65196589D01*
X73972068Y-65466842D01*
X73915000Y-65753740D01*
X73915000Y-66046260D01*
X73972068Y-66333158D01*
X74084010Y-66603411D01*
X74246525Y-66846632D01*
X74453368Y-67053475D01*
X74627760Y-67170000D01*
X74453368Y-67286525D01*
X74246525Y-67493368D01*
X74084010Y-67736589D01*
X73972068Y-68006842D01*
X73915000Y-68293740D01*
X73915000Y-68586260D01*
X73972068Y-68873158D01*
X74084010Y-69143411D01*
X74246525Y-69386632D01*
X74453368Y-69593475D01*
X74627760Y-69710000D01*
X74453368Y-69826525D01*
X74246525Y-70033368D01*
X74084010Y-70276589D01*
X73972068Y-70546842D01*
X73915000Y-70833740D01*
X73915000Y-71126260D01*
X73972068Y-71413158D01*
X74084010Y-71683411D01*
X74246525Y-71926632D01*
X74453368Y-72133475D01*
X74627760Y-72250000D01*
X74453368Y-72366525D01*
X74246525Y-72573368D01*
X74084010Y-72816589D01*
X73972068Y-73086842D01*
X73915000Y-73373740D01*
X73915000Y-73666260D01*
X73972068Y-73953158D01*
X74084010Y-74223411D01*
X74246525Y-74466632D01*
X74453368Y-74673475D01*
X74627760Y-74790000D01*
X74453368Y-74906525D01*
X74246525Y-75113368D01*
X74084010Y-75356589D01*
X73972068Y-75626842D01*
X73915000Y-75913740D01*
X73915000Y-76206260D01*
X73972068Y-76493158D01*
X74084010Y-76763411D01*
X74246525Y-77006632D01*
X74378380Y-77138487D01*
X74305820Y-77160498D01*
X74195506Y-77219463D01*
X74098815Y-77298815D01*
X74019463Y-77395506D01*
X73960498Y-77505820D01*
X73924188Y-77625518D01*
X73911928Y-77750000D01*
X55375301Y-77750000D01*
X55395226Y-77701898D01*
X55435000Y-77501939D01*
X55435000Y-77298061D01*
X55395226Y-77098102D01*
X55317205Y-76909744D01*
X55203937Y-76740226D01*
X55059774Y-76596063D01*
X54890256Y-76482795D01*
X54701898Y-76404774D01*
X54501939Y-76365000D01*
X54298061Y-76365000D01*
X54098102Y-76404774D01*
X53909744Y-76482795D01*
X53740226Y-76596063D01*
X53596063Y-76740226D01*
X53482795Y-76909744D01*
X53404774Y-77098102D01*
X53365000Y-77298061D01*
X33214237Y-77298061D01*
X33172240Y-77270000D01*
X33346632Y-77153475D01*
X33553475Y-76946632D01*
X33715990Y-76703411D01*
X33827932Y-76433158D01*
X33885000Y-76146260D01*
X33885000Y-76098061D01*
X50765000Y-76098061D01*
X50765000Y-76301939D01*
X50804774Y-76501898D01*
X50882795Y-76690256D01*
X50996063Y-76859774D01*
X51140226Y-77003937D01*
X51309744Y-77117205D01*
X51498102Y-77195226D01*
X51698061Y-77235000D01*
X51901939Y-77235000D01*
X52101898Y-77195226D01*
X52290256Y-77117205D01*
X52459774Y-77003937D01*
X52603937Y-76859774D01*
X52717205Y-76690256D01*
X52795226Y-76501898D01*
X52835000Y-76301939D01*
X52835000Y-76098061D01*
X55765000Y-76098061D01*
X55765000Y-76301939D01*
X55804774Y-76501898D01*
X55882795Y-76690256D01*
X55996063Y-76859774D01*
X56140226Y-77003937D01*
X56309744Y-77117205D01*
X56498102Y-77195226D01*
X56698061Y-77235000D01*
X56901939Y-77235000D01*
X57101898Y-77195226D01*
X57290256Y-77117205D01*
X57459774Y-77003937D01*
X57603937Y-76859774D01*
X57717205Y-76690256D01*
X57795226Y-76501898D01*
X57835000Y-76301939D01*
X57835000Y-76098061D01*
X57795226Y-75898102D01*
X57717205Y-75709744D01*
X57603937Y-75540226D01*
X57459774Y-75396063D01*
X57290256Y-75282795D01*
X57101898Y-75204774D01*
X56901939Y-75165000D01*
X56698061Y-75165000D01*
X56498102Y-75204774D01*
X56309744Y-75282795D01*
X56140226Y-75396063D01*
X55996063Y-75540226D01*
X55882795Y-75709744D01*
X55804774Y-75898102D01*
X55765000Y-76098061D01*
X52835000Y-76098061D01*
X52795226Y-75898102D01*
X52717205Y-75709744D01*
X52603937Y-75540226D01*
X52459774Y-75396063D01*
X52290256Y-75282795D01*
X52101898Y-75204774D01*
X51901939Y-75165000D01*
X51698061Y-75165000D01*
X51498102Y-75204774D01*
X51309744Y-75282795D01*
X51140226Y-75396063D01*
X50996063Y-75540226D01*
X50882795Y-75709744D01*
X50804774Y-75898102D01*
X50765000Y-76098061D01*
X33885000Y-76098061D01*
X33885000Y-75853740D01*
X33827932Y-75566842D01*
X33715990Y-75296589D01*
X33553475Y-75053368D01*
X33346632Y-74846525D01*
X33172240Y-74730000D01*
X33346632Y-74613475D01*
X33553475Y-74406632D01*
X33715990Y-74163411D01*
X33827932Y-73893158D01*
X33885000Y-73606260D01*
X33885000Y-73313740D01*
X33827932Y-73026842D01*
X33715990Y-72756589D01*
X33553475Y-72513368D01*
X33346632Y-72306525D01*
X33172240Y-72190000D01*
X33346632Y-72073475D01*
X33553475Y-71866632D01*
X33715990Y-71623411D01*
X33827932Y-71353158D01*
X33885000Y-71066260D01*
X33885000Y-70773740D01*
X33827932Y-70486842D01*
X33715990Y-70216589D01*
X33553475Y-69973368D01*
X33346632Y-69766525D01*
X33172240Y-69650000D01*
X33346632Y-69533475D01*
X33553475Y-69326632D01*
X33715990Y-69083411D01*
X33827932Y-68813158D01*
X33885000Y-68526260D01*
X33885000Y-68233740D01*
X33827932Y-67946842D01*
X33715990Y-67676589D01*
X33553475Y-67433368D01*
X33346632Y-67226525D01*
X33172240Y-67110000D01*
X33346632Y-66993475D01*
X33553475Y-66786632D01*
X33715990Y-66543411D01*
X33827932Y-66273158D01*
X33862761Y-66098061D01*
X38515000Y-66098061D01*
X38515000Y-66301939D01*
X38554774Y-66501898D01*
X38632795Y-66690256D01*
X38746063Y-66859774D01*
X38890226Y-67003937D01*
X39059744Y-67117205D01*
X39248102Y-67195226D01*
X39448061Y-67235000D01*
X39651939Y-67235000D01*
X39851898Y-67195226D01*
X39873000Y-67186485D01*
X39873000Y-73000000D01*
X39875440Y-73024776D01*
X39882667Y-73048601D01*
X39894403Y-73070557D01*
X39910197Y-73089803D01*
X39929443Y-73105597D01*
X39951399Y-73117333D01*
X39975224Y-73124560D01*
X40000000Y-73127000D01*
X49000000Y-73127000D01*
X49024776Y-73124560D01*
X49048601Y-73117333D01*
X49070557Y-73105597D01*
X49089803Y-73089803D01*
X49105597Y-73070557D01*
X49117333Y-73048601D01*
X49124560Y-73024776D01*
X49127000Y-73000000D01*
X49127000Y-71898061D01*
X55178000Y-71898061D01*
X55178000Y-72101939D01*
X55217774Y-72301898D01*
X55295795Y-72490256D01*
X55409063Y-72659774D01*
X55553226Y-72803937D01*
X55722744Y-72917205D01*
X55911102Y-72995226D01*
X56111061Y-73035000D01*
X56314939Y-73035000D01*
X56514898Y-72995226D01*
X56703256Y-72917205D01*
X56872774Y-72803937D01*
X57016937Y-72659774D01*
X57130205Y-72490256D01*
X57208226Y-72301898D01*
X57248000Y-72101939D01*
X57248000Y-71898061D01*
X57208226Y-71698102D01*
X57130205Y-71509744D01*
X57016937Y-71340226D01*
X56974772Y-71298061D01*
X60165000Y-71298061D01*
X60165000Y-71501939D01*
X60204774Y-71701898D01*
X60282795Y-71890256D01*
X60356123Y-72000000D01*
X60282795Y-72109744D01*
X60204774Y-72298102D01*
X60165000Y-72498061D01*
X60165000Y-72701939D01*
X60204774Y-72901898D01*
X60282795Y-73090256D01*
X60396063Y-73259774D01*
X60540226Y-73403937D01*
X60709744Y-73517205D01*
X60898102Y-73595226D01*
X61098061Y-73635000D01*
X61301939Y-73635000D01*
X61501898Y-73595226D01*
X61530509Y-73583375D01*
X61651082Y-73874463D01*
X61830013Y-74142252D01*
X62057748Y-74369987D01*
X62325537Y-74548918D01*
X62623088Y-74672168D01*
X62938967Y-74735000D01*
X63261033Y-74735000D01*
X63576912Y-74672168D01*
X63874463Y-74548918D01*
X64142252Y-74369987D01*
X64369987Y-74142252D01*
X64548918Y-73874463D01*
X64672168Y-73576912D01*
X64735000Y-73261033D01*
X64735000Y-72938967D01*
X67965000Y-72938967D01*
X67965000Y-73261033D01*
X68027832Y-73576912D01*
X68151082Y-73874463D01*
X68330013Y-74142252D01*
X68557748Y-74369987D01*
X68825537Y-74548918D01*
X69123088Y-74672168D01*
X69438967Y-74735000D01*
X69761033Y-74735000D01*
X70076912Y-74672168D01*
X70374463Y-74548918D01*
X70642252Y-74369987D01*
X70869987Y-74142252D01*
X71048918Y-73874463D01*
X71172168Y-73576912D01*
X71235000Y-73261033D01*
X71235000Y-72938967D01*
X71172168Y-72623088D01*
X71048918Y-72325537D01*
X70869987Y-72057748D01*
X70642252Y-71830013D01*
X70374463Y-71651082D01*
X70076912Y-71527832D01*
X69761033Y-71465000D01*
X69438967Y-71465000D01*
X69123088Y-71527832D01*
X68825537Y-71651082D01*
X68557748Y-71830013D01*
X68330013Y-72057748D01*
X68151082Y-72325537D01*
X68027832Y-72623088D01*
X67965000Y-72938967D01*
X64735000Y-72938967D01*
X64672168Y-72623088D01*
X64548918Y-72325537D01*
X64369987Y-72057748D01*
X64142252Y-71830013D01*
X63874463Y-71651082D01*
X63576912Y-71527832D01*
X63261033Y-71465000D01*
X62938967Y-71465000D01*
X62623088Y-71527832D01*
X62325537Y-71651082D01*
X62174462Y-71752027D01*
X62195226Y-71701898D01*
X62235000Y-71501939D01*
X62235000Y-71298061D01*
X62195226Y-71098102D01*
X62117205Y-70909744D01*
X62003937Y-70740226D01*
X61859774Y-70596063D01*
X61690256Y-70482795D01*
X61501898Y-70404774D01*
X61301939Y-70365000D01*
X61098061Y-70365000D01*
X60898102Y-70404774D01*
X60709744Y-70482795D01*
X60540226Y-70596063D01*
X60396063Y-70740226D01*
X60282795Y-70909744D01*
X60204774Y-71098102D01*
X60165000Y-71298061D01*
X56974772Y-71298061D01*
X56872774Y-71196063D01*
X56703256Y-71082795D01*
X56514898Y-71004774D01*
X56314939Y-70965000D01*
X56111061Y-70965000D01*
X55911102Y-71004774D01*
X55722744Y-71082795D01*
X55553226Y-71196063D01*
X55409063Y-71340226D01*
X55295795Y-71509744D01*
X55217774Y-71698102D01*
X55178000Y-71898061D01*
X49127000Y-71898061D01*
X49127000Y-67127000D01*
X50609289Y-67127000D01*
X50596063Y-67140226D01*
X50482795Y-67309744D01*
X50404774Y-67498102D01*
X50365000Y-67698061D01*
X50365000Y-67901939D01*
X50404774Y-68101898D01*
X50482795Y-68290256D01*
X50596063Y-68459774D01*
X50740226Y-68603937D01*
X50909744Y-68717205D01*
X51098102Y-68795226D01*
X51187076Y-68812924D01*
X51204774Y-68901898D01*
X51282795Y-69090256D01*
X51396063Y-69259774D01*
X51540226Y-69403937D01*
X51709744Y-69517205D01*
X51898102Y-69595226D01*
X52098061Y-69635000D01*
X52301939Y-69635000D01*
X52501898Y-69595226D01*
X52690256Y-69517205D01*
X52859774Y-69403937D01*
X53003937Y-69259774D01*
X53117205Y-69090256D01*
X53195226Y-68901898D01*
X53235000Y-68701939D01*
X53235000Y-68698061D01*
X53365000Y-68698061D01*
X53365000Y-68901939D01*
X53404774Y-69101898D01*
X53482795Y-69290256D01*
X53596063Y-69459774D01*
X53740226Y-69603937D01*
X53909744Y-69717205D01*
X54098102Y-69795226D01*
X54298061Y-69835000D01*
X54501939Y-69835000D01*
X54701898Y-69795226D01*
X54890256Y-69717205D01*
X55059774Y-69603937D01*
X55203937Y-69459774D01*
X55300000Y-69316005D01*
X55396063Y-69459774D01*
X55540226Y-69603937D01*
X55709744Y-69717205D01*
X55898102Y-69795226D01*
X56098061Y-69835000D01*
X56301939Y-69835000D01*
X56501898Y-69795226D01*
X56690256Y-69717205D01*
X56859774Y-69603937D01*
X57003937Y-69459774D01*
X57117205Y-69290256D01*
X57195226Y-69101898D01*
X57235000Y-68901939D01*
X57235000Y-68698061D01*
X57195226Y-68498102D01*
X57117205Y-68309744D01*
X57003937Y-68140226D01*
X56859774Y-67996063D01*
X56690256Y-67882795D01*
X56501898Y-67804774D01*
X56301939Y-67765000D01*
X56098061Y-67765000D01*
X55898102Y-67804774D01*
X55709744Y-67882795D01*
X55540226Y-67996063D01*
X55396063Y-68140226D01*
X55300000Y-68283995D01*
X55203937Y-68140226D01*
X55059774Y-67996063D01*
X54890256Y-67882795D01*
X54701898Y-67804774D01*
X54501939Y-67765000D01*
X54298061Y-67765000D01*
X54098102Y-67804774D01*
X53909744Y-67882795D01*
X53740226Y-67996063D01*
X53596063Y-68140226D01*
X53482795Y-68309744D01*
X53404774Y-68498102D01*
X53365000Y-68698061D01*
X53235000Y-68698061D01*
X53235000Y-68498061D01*
X53195226Y-68298102D01*
X53117205Y-68109744D01*
X53003937Y-67940226D01*
X52859774Y-67796063D01*
X52715331Y-67699549D01*
X59620185Y-67699549D01*
X59620185Y-67903427D01*
X59659959Y-68103386D01*
X59737980Y-68291744D01*
X59851248Y-68461262D01*
X59995411Y-68605425D01*
X60164929Y-68718693D01*
X60353287Y-68796714D01*
X60553246Y-68836488D01*
X60757124Y-68836488D01*
X60957083Y-68796714D01*
X61145441Y-68718693D01*
X61314959Y-68605425D01*
X61459122Y-68461262D01*
X61465000Y-68452465D01*
X61465000Y-68761033D01*
X61527832Y-69076912D01*
X61651082Y-69374463D01*
X61830013Y-69642252D01*
X62057748Y-69869987D01*
X62325537Y-70048918D01*
X62623088Y-70172168D01*
X62938967Y-70235000D01*
X63261033Y-70235000D01*
X63576912Y-70172168D01*
X63874463Y-70048918D01*
X64142252Y-69869987D01*
X64369987Y-69642252D01*
X64548918Y-69374463D01*
X64672168Y-69076912D01*
X64735000Y-68761033D01*
X64735000Y-68438967D01*
X67965000Y-68438967D01*
X67965000Y-68761033D01*
X68027832Y-69076912D01*
X68151082Y-69374463D01*
X68330013Y-69642252D01*
X68557748Y-69869987D01*
X68825537Y-70048918D01*
X69123088Y-70172168D01*
X69438967Y-70235000D01*
X69761033Y-70235000D01*
X70076912Y-70172168D01*
X70374463Y-70048918D01*
X70642252Y-69869987D01*
X70869987Y-69642252D01*
X71048918Y-69374463D01*
X71172168Y-69076912D01*
X71235000Y-68761033D01*
X71235000Y-68438967D01*
X71172168Y-68123088D01*
X71048918Y-67825537D01*
X70869987Y-67557748D01*
X70642252Y-67330013D01*
X70374463Y-67151082D01*
X70076912Y-67027832D01*
X69761033Y-66965000D01*
X69438967Y-66965000D01*
X69123088Y-67027832D01*
X68825537Y-67151082D01*
X68557748Y-67330013D01*
X68330013Y-67557748D01*
X68151082Y-67825537D01*
X68027832Y-68123088D01*
X67965000Y-68438967D01*
X64735000Y-68438967D01*
X64672168Y-68123088D01*
X64548918Y-67825537D01*
X64369987Y-67557748D01*
X64142252Y-67330013D01*
X63874463Y-67151082D01*
X63576912Y-67027832D01*
X63261033Y-66965000D01*
X62938967Y-66965000D01*
X62623088Y-67027832D01*
X62325537Y-67151082D01*
X62057748Y-67330013D01*
X61830013Y-67557748D01*
X61690185Y-67767015D01*
X61690185Y-67699549D01*
X61650411Y-67499590D01*
X61572390Y-67311232D01*
X61459122Y-67141714D01*
X61314959Y-66997551D01*
X61145441Y-66884283D01*
X60957083Y-66806262D01*
X60757124Y-66766488D01*
X60553246Y-66766488D01*
X60353287Y-66806262D01*
X60164929Y-66884283D01*
X59995411Y-66997551D01*
X59851248Y-67141714D01*
X59737980Y-67311232D01*
X59659959Y-67499590D01*
X59620185Y-67699549D01*
X52715331Y-67699549D01*
X52690256Y-67682795D01*
X52501898Y-67604774D01*
X52412924Y-67587076D01*
X52407042Y-67557508D01*
X52498102Y-67595226D01*
X52698061Y-67635000D01*
X52901939Y-67635000D01*
X53101898Y-67595226D01*
X53290256Y-67517205D01*
X53459774Y-67403937D01*
X53603937Y-67259774D01*
X53717205Y-67090256D01*
X53795226Y-66901898D01*
X53835000Y-66701939D01*
X53835000Y-66498061D01*
X53795226Y-66298102D01*
X53717205Y-66109744D01*
X53603937Y-65940226D01*
X53459774Y-65796063D01*
X53290256Y-65682795D01*
X53101898Y-65604774D01*
X52901939Y-65565000D01*
X52698061Y-65565000D01*
X52498102Y-65604774D01*
X52393964Y-65647910D01*
X52459774Y-65603937D01*
X52603937Y-65459774D01*
X52717205Y-65290256D01*
X52795226Y-65101898D01*
X52835000Y-64901939D01*
X52835000Y-64698061D01*
X52795226Y-64498102D01*
X52717205Y-64309744D01*
X52603937Y-64140226D01*
X52459774Y-63996063D01*
X52290256Y-63882795D01*
X52101898Y-63804774D01*
X51901939Y-63765000D01*
X51698061Y-63765000D01*
X51498102Y-63804774D01*
X51333391Y-63873000D01*
X47127000Y-63873000D01*
X47127000Y-63473061D01*
X54615000Y-63473061D01*
X54615000Y-63676939D01*
X54654774Y-63876898D01*
X54732795Y-64065256D01*
X54846063Y-64234774D01*
X54990226Y-64378937D01*
X55159744Y-64492205D01*
X55348102Y-64570226D01*
X55548061Y-64610000D01*
X55751939Y-64610000D01*
X55951898Y-64570226D01*
X56079664Y-64517303D01*
X56004774Y-64698102D01*
X55965000Y-64898061D01*
X55965000Y-65101939D01*
X56004774Y-65301898D01*
X56082795Y-65490256D01*
X56196063Y-65659774D01*
X56340226Y-65803937D01*
X56509744Y-65917205D01*
X56698102Y-65995226D01*
X56898061Y-66035000D01*
X57101939Y-66035000D01*
X57301898Y-65995226D01*
X57490256Y-65917205D01*
X57659774Y-65803937D01*
X57803937Y-65659774D01*
X57917205Y-65490256D01*
X57995226Y-65301898D01*
X58035000Y-65101939D01*
X58035000Y-64898061D01*
X57995226Y-64698102D01*
X57917205Y-64509744D01*
X57803937Y-64340226D01*
X57659774Y-64196063D01*
X57490256Y-64082795D01*
X57301898Y-64004774D01*
X57101939Y-63965000D01*
X56898061Y-63965000D01*
X56698102Y-64004774D01*
X56570336Y-64057697D01*
X56645226Y-63876898D01*
X56685000Y-63676939D01*
X56685000Y-63673061D01*
X59365000Y-63673061D01*
X59365000Y-63876939D01*
X59404774Y-64076898D01*
X59482795Y-64265256D01*
X59596063Y-64434774D01*
X59740226Y-64578937D01*
X59909744Y-64692205D01*
X60098102Y-64770226D01*
X60298061Y-64810000D01*
X60501939Y-64810000D01*
X60701898Y-64770226D01*
X60890256Y-64692205D01*
X61059774Y-64578937D01*
X61203937Y-64434774D01*
X61317205Y-64265256D01*
X61395226Y-64076898D01*
X61435000Y-63876939D01*
X61435000Y-63673061D01*
X61395226Y-63473102D01*
X61317205Y-63284744D01*
X61203937Y-63115226D01*
X61059774Y-62971063D01*
X60890256Y-62857795D01*
X60701898Y-62779774D01*
X60501939Y-62740000D01*
X60298061Y-62740000D01*
X60098102Y-62779774D01*
X59909744Y-62857795D01*
X59740226Y-62971063D01*
X59596063Y-63115226D01*
X59482795Y-63284744D01*
X59404774Y-63473102D01*
X59365000Y-63673061D01*
X56685000Y-63673061D01*
X56685000Y-63473061D01*
X56645226Y-63273102D01*
X56567205Y-63084744D01*
X56453937Y-62915226D01*
X56309774Y-62771063D01*
X56140256Y-62657795D01*
X55951898Y-62579774D01*
X55751939Y-62540000D01*
X55548061Y-62540000D01*
X55348102Y-62579774D01*
X55159744Y-62657795D01*
X54990226Y-62771063D01*
X54846063Y-62915226D01*
X54732795Y-63084744D01*
X54654774Y-63273102D01*
X54615000Y-63473061D01*
X47127000Y-63473061D01*
X47127000Y-61036307D01*
X47195691Y-61139110D01*
X47400890Y-61344309D01*
X47642178Y-61505533D01*
X47910283Y-61616586D01*
X48194902Y-61673200D01*
X48485098Y-61673200D01*
X48769717Y-61616586D01*
X49037822Y-61505533D01*
X49165000Y-61420555D01*
X49165000Y-61501939D01*
X49204774Y-61701898D01*
X49282795Y-61890256D01*
X49396063Y-62059774D01*
X49540226Y-62203937D01*
X49709744Y-62317205D01*
X49898102Y-62395226D01*
X50098061Y-62435000D01*
X50301939Y-62435000D01*
X50501898Y-62395226D01*
X50690256Y-62317205D01*
X50859774Y-62203937D01*
X51003937Y-62059774D01*
X51117205Y-61890256D01*
X51195226Y-61701898D01*
X51235000Y-61501939D01*
X51235000Y-61298061D01*
X51195226Y-61098102D01*
X51117205Y-60909744D01*
X51003937Y-60740226D01*
X50859774Y-60596063D01*
X50690256Y-60482795D01*
X50501898Y-60404774D01*
X50301939Y-60365000D01*
X50098061Y-60365000D01*
X49898102Y-60404774D01*
X49792641Y-60448458D01*
X49813200Y-60345098D01*
X49813200Y-60054902D01*
X49756586Y-59770283D01*
X49716316Y-59673061D01*
X55965000Y-59673061D01*
X55965000Y-59876939D01*
X56004774Y-60076898D01*
X56082795Y-60265256D01*
X56196063Y-60434774D01*
X56340226Y-60578937D01*
X56509744Y-60692205D01*
X56698102Y-60770226D01*
X56898061Y-60810000D01*
X57101939Y-60810000D01*
X57265000Y-60777565D01*
X57265000Y-60901939D01*
X57304774Y-61101898D01*
X57382795Y-61290256D01*
X57496063Y-61459774D01*
X57640226Y-61603937D01*
X57809744Y-61717205D01*
X57998102Y-61795226D01*
X58198061Y-61835000D01*
X58401939Y-61835000D01*
X58601898Y-61795226D01*
X58790256Y-61717205D01*
X58959774Y-61603937D01*
X59103937Y-61459774D01*
X59217205Y-61290256D01*
X59295226Y-61101898D01*
X59335000Y-60901939D01*
X59335000Y-60698061D01*
X60465000Y-60698061D01*
X60465000Y-60901939D01*
X60504774Y-61101898D01*
X60582795Y-61290256D01*
X60696063Y-61459774D01*
X60840226Y-61603937D01*
X61009744Y-61717205D01*
X61198102Y-61795226D01*
X61398061Y-61835000D01*
X61601939Y-61835000D01*
X61801898Y-61795226D01*
X61990256Y-61717205D01*
X62159774Y-61603937D01*
X62303937Y-61459774D01*
X62417205Y-61290256D01*
X62495226Y-61101898D01*
X62535000Y-60901939D01*
X62535000Y-60698061D01*
X62495226Y-60498102D01*
X62417205Y-60309744D01*
X62303937Y-60140226D01*
X62159774Y-59996063D01*
X61990256Y-59882795D01*
X61801898Y-59804774D01*
X61601939Y-59765000D01*
X61398061Y-59765000D01*
X61198102Y-59804774D01*
X61009744Y-59882795D01*
X60840226Y-59996063D01*
X60696063Y-60140226D01*
X60582795Y-60309744D01*
X60504774Y-60498102D01*
X60465000Y-60698061D01*
X59335000Y-60698061D01*
X59295226Y-60498102D01*
X59235295Y-60353416D01*
X59253937Y-60334774D01*
X59367205Y-60165256D01*
X59445226Y-59976898D01*
X59485000Y-59776939D01*
X59485000Y-59573061D01*
X59445226Y-59373102D01*
X59367205Y-59184744D01*
X59253937Y-59015226D01*
X59109774Y-58871063D01*
X58940256Y-58757795D01*
X58751898Y-58679774D01*
X58551939Y-58640000D01*
X58348061Y-58640000D01*
X58148102Y-58679774D01*
X57959744Y-58757795D01*
X57790226Y-58871063D01*
X57675000Y-58986289D01*
X57659774Y-58971063D01*
X57490256Y-58857795D01*
X57301898Y-58779774D01*
X57101939Y-58740000D01*
X56898061Y-58740000D01*
X56698102Y-58779774D01*
X56509744Y-58857795D01*
X56340226Y-58971063D01*
X56196063Y-59115226D01*
X56082795Y-59284744D01*
X56004774Y-59473102D01*
X55965000Y-59673061D01*
X49716316Y-59673061D01*
X49645533Y-59502178D01*
X49484309Y-59260890D01*
X49279110Y-59055691D01*
X49037822Y-58894467D01*
X48769717Y-58783414D01*
X48485098Y-58726800D01*
X48194902Y-58726800D01*
X47910283Y-58783414D01*
X47642178Y-58894467D01*
X47400890Y-59055691D01*
X47195691Y-59260890D01*
X47070000Y-59448999D01*
X46944309Y-59260890D01*
X46739110Y-59055691D01*
X46497822Y-58894467D01*
X46229717Y-58783414D01*
X45945098Y-58726800D01*
X45654902Y-58726800D01*
X45370283Y-58783414D01*
X45102178Y-58894467D01*
X44860890Y-59055691D01*
X44655691Y-59260890D01*
X44494467Y-59502178D01*
X44383414Y-59770283D01*
X44362982Y-59873000D01*
X44124353Y-59873000D01*
X44195226Y-59701898D01*
X44235000Y-59501939D01*
X44235000Y-59298061D01*
X44195226Y-59098102D01*
X44117205Y-58909744D01*
X44003937Y-58740226D01*
X43859774Y-58596063D01*
X43690256Y-58482795D01*
X43501898Y-58404774D01*
X43301939Y-58365000D01*
X43098061Y-58365000D01*
X42898102Y-58404774D01*
X42709744Y-58482795D01*
X42540226Y-58596063D01*
X42396063Y-58740226D01*
X42282795Y-58909744D01*
X42204774Y-59098102D01*
X42165000Y-59298061D01*
X42165000Y-59501939D01*
X42204774Y-59701898D01*
X42275647Y-59873000D01*
X40000000Y-59873000D01*
X39975224Y-59875440D01*
X39951399Y-59882667D01*
X39929443Y-59894403D01*
X39910197Y-59910197D01*
X39894403Y-59929443D01*
X39882667Y-59951399D01*
X39875440Y-59975224D01*
X39873000Y-60000000D01*
X39873000Y-65213515D01*
X39851898Y-65204774D01*
X39651939Y-65165000D01*
X39448061Y-65165000D01*
X39248102Y-65204774D01*
X39059744Y-65282795D01*
X38890226Y-65396063D01*
X38746063Y-65540226D01*
X38632795Y-65709744D01*
X38554774Y-65898102D01*
X38515000Y-66098061D01*
X33862761Y-66098061D01*
X33885000Y-65986260D01*
X33885000Y-65693740D01*
X33827932Y-65406842D01*
X33715990Y-65136589D01*
X33553475Y-64893368D01*
X33346632Y-64686525D01*
X33172240Y-64570000D01*
X33346632Y-64453475D01*
X33553475Y-64246632D01*
X33715990Y-64003411D01*
X33827932Y-63733158D01*
X33885000Y-63446260D01*
X33885000Y-63153740D01*
X33827932Y-62866842D01*
X33715990Y-62596589D01*
X33553475Y-62353368D01*
X33346632Y-62146525D01*
X33172240Y-62030000D01*
X33346632Y-61913475D01*
X33553475Y-61706632D01*
X33715990Y-61463411D01*
X33827932Y-61193158D01*
X33885000Y-60906260D01*
X33885000Y-60613740D01*
X33827932Y-60326842D01*
X33715990Y-60056589D01*
X33553475Y-59813368D01*
X33346632Y-59606525D01*
X33172240Y-59490000D01*
X33346632Y-59373475D01*
X33553475Y-59166632D01*
X33715990Y-58923411D01*
X33827932Y-58653158D01*
X33885000Y-58366260D01*
X33885000Y-58073740D01*
X33827932Y-57786842D01*
X33715990Y-57516589D01*
X33553475Y-57273368D01*
X33421620Y-57141513D01*
X33494180Y-57119502D01*
X33604494Y-57060537D01*
X33701185Y-56981185D01*
X33780537Y-56884494D01*
X33839502Y-56774180D01*
X33875812Y-56654482D01*
X33888072Y-56530000D01*
X33888072Y-55898061D01*
X44765000Y-55898061D01*
X44765000Y-56101939D01*
X44804774Y-56301898D01*
X44882795Y-56490256D01*
X44996063Y-56659774D01*
X45140226Y-56803937D01*
X45309744Y-56917205D01*
X45498102Y-56995226D01*
X45698061Y-57035000D01*
X45901939Y-57035000D01*
X46101898Y-56995226D01*
X46290256Y-56917205D01*
X46459774Y-56803937D01*
X46603937Y-56659774D01*
X46717205Y-56490256D01*
X46795226Y-56301898D01*
X46835000Y-56101939D01*
X46835000Y-55898061D01*
X47165000Y-55898061D01*
X47165000Y-56101939D01*
X47204774Y-56301898D01*
X47282795Y-56490256D01*
X47396063Y-56659774D01*
X47540226Y-56803937D01*
X47709744Y-56917205D01*
X47898102Y-56995226D01*
X48098061Y-57035000D01*
X48301939Y-57035000D01*
X48501898Y-56995226D01*
X48690256Y-56917205D01*
X48859774Y-56803937D01*
X49003937Y-56659774D01*
X49111989Y-56498061D01*
X49165000Y-56498061D01*
X49165000Y-56701939D01*
X49204774Y-56901898D01*
X49282795Y-57090256D01*
X49396063Y-57259774D01*
X49540226Y-57403937D01*
X49709744Y-57517205D01*
X49898102Y-57595226D01*
X50098061Y-57635000D01*
X50301939Y-57635000D01*
X50501898Y-57595226D01*
X50690256Y-57517205D01*
X50859774Y-57403937D01*
X50900000Y-57363711D01*
X50940226Y-57403937D01*
X51109744Y-57517205D01*
X51298102Y-57595226D01*
X51498061Y-57635000D01*
X51577544Y-57635000D01*
X51565000Y-57698061D01*
X51565000Y-57901939D01*
X51604774Y-58101898D01*
X51682795Y-58290256D01*
X51796063Y-58459774D01*
X51940226Y-58603937D01*
X52109744Y-58717205D01*
X52298102Y-58795226D01*
X52498061Y-58835000D01*
X52701939Y-58835000D01*
X52901898Y-58795226D01*
X53090256Y-58717205D01*
X53259774Y-58603937D01*
X53403937Y-58459774D01*
X53517205Y-58290256D01*
X53595226Y-58101898D01*
X53635000Y-57901939D01*
X53635000Y-57698061D01*
X53595226Y-57498102D01*
X53517205Y-57309744D01*
X53403937Y-57140226D01*
X53259774Y-56996063D01*
X53090256Y-56882795D01*
X52901898Y-56804774D01*
X52701939Y-56765000D01*
X52622456Y-56765000D01*
X52635000Y-56701939D01*
X52635000Y-56498061D01*
X52595226Y-56298102D01*
X52517205Y-56109744D01*
X52403937Y-55940226D01*
X52259774Y-55796063D01*
X52090256Y-55682795D01*
X51901898Y-55604774D01*
X51701939Y-55565000D01*
X51498061Y-55565000D01*
X51298102Y-55604774D01*
X51109744Y-55682795D01*
X50940226Y-55796063D01*
X50900000Y-55836289D01*
X50859774Y-55796063D01*
X50690256Y-55682795D01*
X50501898Y-55604774D01*
X50301939Y-55565000D01*
X50098061Y-55565000D01*
X49898102Y-55604774D01*
X49709744Y-55682795D01*
X49540226Y-55796063D01*
X49396063Y-55940226D01*
X49282795Y-56109744D01*
X49204774Y-56298102D01*
X49165000Y-56498061D01*
X49111989Y-56498061D01*
X49117205Y-56490256D01*
X49195226Y-56301898D01*
X49235000Y-56101939D01*
X49235000Y-55898061D01*
X49195226Y-55698102D01*
X49117205Y-55509744D01*
X49003937Y-55340226D01*
X48859774Y-55196063D01*
X48690256Y-55082795D01*
X48501898Y-55004774D01*
X48301939Y-54965000D01*
X48098061Y-54965000D01*
X47898102Y-55004774D01*
X47709744Y-55082795D01*
X47540226Y-55196063D01*
X47396063Y-55340226D01*
X47282795Y-55509744D01*
X47204774Y-55698102D01*
X47165000Y-55898061D01*
X46835000Y-55898061D01*
X46795226Y-55698102D01*
X46717205Y-55509744D01*
X46603937Y-55340226D01*
X46459774Y-55196063D01*
X46290256Y-55082795D01*
X46101898Y-55004774D01*
X45901939Y-54965000D01*
X45698061Y-54965000D01*
X45498102Y-55004774D01*
X45309744Y-55082795D01*
X45140226Y-55196063D01*
X44996063Y-55340226D01*
X44882795Y-55509744D01*
X44804774Y-55698102D01*
X44765000Y-55898061D01*
X33888072Y-55898061D01*
X33888072Y-54830000D01*
X33875812Y-54705518D01*
X33839502Y-54585820D01*
X33780537Y-54475506D01*
X33701185Y-54378815D01*
X33604494Y-54299463D01*
X33494180Y-54240498D01*
X33374482Y-54204188D01*
X33250000Y-54191928D01*
X31550000Y-54191928D01*
X31425518Y-54204188D01*
X31305820Y-54240498D01*
X31195506Y-54299463D01*
X31098815Y-54378815D01*
X31019463Y-54475506D01*
X30960498Y-54585820D01*
X30924188Y-54705518D01*
X30911928Y-54830000D01*
X29660000Y-54830000D01*
X29660000Y-53050000D01*
X36311928Y-53050000D01*
X36324188Y-53174482D01*
X36360498Y-53294180D01*
X36419463Y-53404494D01*
X36498815Y-53501185D01*
X36595506Y-53580537D01*
X36705820Y-53639502D01*
X36825518Y-53675812D01*
X36950000Y-53688072D01*
X37514250Y-53685000D01*
X37673000Y-53526250D01*
X37673000Y-52327000D01*
X36473750Y-52327000D01*
X36315000Y-52485750D01*
X36311928Y-53050000D01*
X29660000Y-53050000D01*
X29660000Y-51350000D01*
X36311928Y-51350000D01*
X36315000Y-51914250D01*
X36473750Y-52073000D01*
X37673000Y-52073000D01*
X37673000Y-50873750D01*
X37927000Y-50873750D01*
X37927000Y-52073000D01*
X37947000Y-52073000D01*
X37947000Y-52327000D01*
X37927000Y-52327000D01*
X37927000Y-53526250D01*
X38085750Y-53685000D01*
X38650000Y-53688072D01*
X38774482Y-53675812D01*
X38894180Y-53639502D01*
X39004494Y-53580537D01*
X39101185Y-53501185D01*
X39180537Y-53404494D01*
X39239502Y-53294180D01*
X39261513Y-53221620D01*
X39393368Y-53353475D01*
X39636589Y-53515990D01*
X39906842Y-53627932D01*
X40193740Y-53685000D01*
X40486260Y-53685000D01*
X40773158Y-53627932D01*
X41043411Y-53515990D01*
X41286632Y-53353475D01*
X41493475Y-53146632D01*
X41610000Y-52972240D01*
X41726525Y-53146632D01*
X41933368Y-53353475D01*
X42176589Y-53515990D01*
X42446842Y-53627932D01*
X42733740Y-53685000D01*
X43026260Y-53685000D01*
X43313158Y-53627932D01*
X43583411Y-53515990D01*
X43610243Y-53498061D01*
X44365000Y-53498061D01*
X44365000Y-53701939D01*
X44404774Y-53901898D01*
X44482795Y-54090256D01*
X44596063Y-54259774D01*
X44740226Y-54403937D01*
X44909744Y-54517205D01*
X45098102Y-54595226D01*
X45298061Y-54635000D01*
X45501939Y-54635000D01*
X45701898Y-54595226D01*
X45890256Y-54517205D01*
X46059774Y-54403937D01*
X46100000Y-54363711D01*
X46140226Y-54403937D01*
X46309744Y-54517205D01*
X46498102Y-54595226D01*
X46698061Y-54635000D01*
X46901939Y-54635000D01*
X47101898Y-54595226D01*
X47290256Y-54517205D01*
X47459774Y-54403937D01*
X47500000Y-54363711D01*
X47540226Y-54403937D01*
X47709744Y-54517205D01*
X47898102Y-54595226D01*
X48098061Y-54635000D01*
X48301939Y-54635000D01*
X48501898Y-54595226D01*
X48690256Y-54517205D01*
X48800000Y-54443877D01*
X48909744Y-54517205D01*
X49098102Y-54595226D01*
X49298061Y-54635000D01*
X49501939Y-54635000D01*
X49701898Y-54595226D01*
X49890256Y-54517205D01*
X50000000Y-54443877D01*
X50109744Y-54517205D01*
X50298102Y-54595226D01*
X50498061Y-54635000D01*
X50701939Y-54635000D01*
X50901898Y-54595226D01*
X51090256Y-54517205D01*
X51100000Y-54510694D01*
X51109744Y-54517205D01*
X51298102Y-54595226D01*
X51498061Y-54635000D01*
X51701939Y-54635000D01*
X51901898Y-54595226D01*
X52090256Y-54517205D01*
X52100000Y-54510694D01*
X52109744Y-54517205D01*
X52298102Y-54595226D01*
X52498061Y-54635000D01*
X52701939Y-54635000D01*
X52901898Y-54595226D01*
X53090256Y-54517205D01*
X53259774Y-54403937D01*
X53403937Y-54259774D01*
X53517205Y-54090256D01*
X53595226Y-53901898D01*
X53635000Y-53701939D01*
X53635000Y-53498061D01*
X53595226Y-53298102D01*
X53517205Y-53109744D01*
X53510694Y-53100000D01*
X53517205Y-53090256D01*
X53595226Y-52901898D01*
X53635000Y-52701939D01*
X53635000Y-52498061D01*
X53595226Y-52298102D01*
X53517205Y-52109744D01*
X53410468Y-51950000D01*
X57111928Y-51950000D01*
X57111928Y-53650000D01*
X57124188Y-53774482D01*
X57160498Y-53894180D01*
X57219463Y-54004494D01*
X57298815Y-54101185D01*
X57395506Y-54180537D01*
X57505820Y-54239502D01*
X57578380Y-54261513D01*
X57446525Y-54393368D01*
X57284010Y-54636589D01*
X57172068Y-54906842D01*
X57115000Y-55193740D01*
X57115000Y-55486260D01*
X57172068Y-55773158D01*
X57284010Y-56043411D01*
X57446525Y-56286632D01*
X57653368Y-56493475D01*
X57896589Y-56655990D01*
X58166842Y-56767932D01*
X58453740Y-56825000D01*
X58746260Y-56825000D01*
X59033158Y-56767932D01*
X59303411Y-56655990D01*
X59546632Y-56493475D01*
X59753475Y-56286632D01*
X59870000Y-56112240D01*
X59986525Y-56286632D01*
X60193368Y-56493475D01*
X60436589Y-56655990D01*
X60706842Y-56767932D01*
X60993740Y-56825000D01*
X61286260Y-56825000D01*
X61573158Y-56767932D01*
X61843411Y-56655990D01*
X62086632Y-56493475D01*
X62293475Y-56286632D01*
X62410000Y-56112240D01*
X62526525Y-56286632D01*
X62733368Y-56493475D01*
X62976589Y-56655990D01*
X63246842Y-56767932D01*
X63533740Y-56825000D01*
X63826260Y-56825000D01*
X64113158Y-56767932D01*
X64383411Y-56655990D01*
X64626632Y-56493475D01*
X64833475Y-56286632D01*
X64950000Y-56112240D01*
X65066525Y-56286632D01*
X65273368Y-56493475D01*
X65516589Y-56655990D01*
X65786842Y-56767932D01*
X66073740Y-56825000D01*
X66366260Y-56825000D01*
X66653158Y-56767932D01*
X66923411Y-56655990D01*
X67166632Y-56493475D01*
X67373475Y-56286632D01*
X67490000Y-56112240D01*
X67606525Y-56286632D01*
X67813368Y-56493475D01*
X68056589Y-56655990D01*
X68326842Y-56767932D01*
X68613740Y-56825000D01*
X68906260Y-56825000D01*
X69193158Y-56767932D01*
X69463411Y-56655990D01*
X69706632Y-56493475D01*
X69913475Y-56286632D01*
X70075990Y-56043411D01*
X70187932Y-55773158D01*
X70245000Y-55486260D01*
X70245000Y-55193740D01*
X70187932Y-54906842D01*
X70075990Y-54636589D01*
X69913475Y-54393368D01*
X69706632Y-54186525D01*
X69532240Y-54070000D01*
X69706632Y-53953475D01*
X69913475Y-53746632D01*
X70075990Y-53503411D01*
X70187932Y-53233158D01*
X70245000Y-52946260D01*
X70245000Y-52653740D01*
X70187932Y-52366842D01*
X70075990Y-52096589D01*
X69913475Y-51853368D01*
X69706632Y-51646525D01*
X69463411Y-51484010D01*
X69193158Y-51372068D01*
X68906260Y-51315000D01*
X68613740Y-51315000D01*
X68326842Y-51372068D01*
X68056589Y-51484010D01*
X67813368Y-51646525D01*
X67606525Y-51853368D01*
X67490000Y-52027760D01*
X67373475Y-51853368D01*
X67166632Y-51646525D01*
X66923411Y-51484010D01*
X66653158Y-51372068D01*
X66366260Y-51315000D01*
X66073740Y-51315000D01*
X65786842Y-51372068D01*
X65516589Y-51484010D01*
X65273368Y-51646525D01*
X65066525Y-51853368D01*
X64950000Y-52027760D01*
X64833475Y-51853368D01*
X64626632Y-51646525D01*
X64383411Y-51484010D01*
X64113158Y-51372068D01*
X63826260Y-51315000D01*
X63533740Y-51315000D01*
X63246842Y-51372068D01*
X62976589Y-51484010D01*
X62733368Y-51646525D01*
X62526525Y-51853368D01*
X62410000Y-52027760D01*
X62293475Y-51853368D01*
X62086632Y-51646525D01*
X61843411Y-51484010D01*
X61573158Y-51372068D01*
X61286260Y-51315000D01*
X60993740Y-51315000D01*
X60706842Y-51372068D01*
X60436589Y-51484010D01*
X60193368Y-51646525D01*
X60061513Y-51778380D01*
X60039502Y-51705820D01*
X59980537Y-51595506D01*
X59901185Y-51498815D01*
X59804494Y-51419463D01*
X59694180Y-51360498D01*
X59574482Y-51324188D01*
X59450000Y-51311928D01*
X57750000Y-51311928D01*
X57625518Y-51324188D01*
X57505820Y-51360498D01*
X57395506Y-51419463D01*
X57298815Y-51498815D01*
X57219463Y-51595506D01*
X57160498Y-51705820D01*
X57124188Y-51825518D01*
X57111928Y-51950000D01*
X53410468Y-51950000D01*
X53403937Y-51940226D01*
X53259774Y-51796063D01*
X53090256Y-51682795D01*
X52901898Y-51604774D01*
X52701939Y-51565000D01*
X52498061Y-51565000D01*
X52298102Y-51604774D01*
X52109744Y-51682795D01*
X52100000Y-51689306D01*
X52090256Y-51682795D01*
X51901898Y-51604774D01*
X51701939Y-51565000D01*
X51498061Y-51565000D01*
X51298102Y-51604774D01*
X51109744Y-51682795D01*
X50940226Y-51796063D01*
X50796063Y-51940226D01*
X50682795Y-52109744D01*
X50604774Y-52298102D01*
X50565000Y-52498061D01*
X50565000Y-52565000D01*
X50498061Y-52565000D01*
X50298102Y-52604774D01*
X50109744Y-52682795D01*
X50000000Y-52756123D01*
X49890256Y-52682795D01*
X49701898Y-52604774D01*
X49501939Y-52565000D01*
X49298061Y-52565000D01*
X49157508Y-52592958D01*
X49195226Y-52501898D01*
X49235000Y-52301939D01*
X49235000Y-52098061D01*
X49195226Y-51898102D01*
X49117205Y-51709744D01*
X49062542Y-51627935D01*
X49098061Y-51635000D01*
X49301939Y-51635000D01*
X49501898Y-51595226D01*
X49600000Y-51554591D01*
X49698102Y-51595226D01*
X49898061Y-51635000D01*
X50101939Y-51635000D01*
X50301898Y-51595226D01*
X50490256Y-51517205D01*
X50659774Y-51403937D01*
X50803937Y-51259774D01*
X50917205Y-51090256D01*
X50995226Y-50901898D01*
X51035000Y-50701939D01*
X51035000Y-50498061D01*
X50995226Y-50298102D01*
X50917205Y-50109744D01*
X50803937Y-49940226D01*
X50659774Y-49796063D01*
X50490256Y-49682795D01*
X50301898Y-49604774D01*
X50101939Y-49565000D01*
X49898061Y-49565000D01*
X49698102Y-49604774D01*
X49600000Y-49645409D01*
X49501898Y-49604774D01*
X49301939Y-49565000D01*
X49098061Y-49565000D01*
X49011940Y-49582130D01*
X48995226Y-49498102D01*
X48917205Y-49309744D01*
X48803937Y-49140226D01*
X48659774Y-48996063D01*
X48490256Y-48882795D01*
X48301898Y-48804774D01*
X48101939Y-48765000D01*
X47898061Y-48765000D01*
X47698102Y-48804774D01*
X47509744Y-48882795D01*
X47500000Y-48889306D01*
X47490256Y-48882795D01*
X47301898Y-48804774D01*
X47101939Y-48765000D01*
X46898061Y-48765000D01*
X46698102Y-48804774D01*
X46509744Y-48882795D01*
X46340226Y-48996063D01*
X46196063Y-49140226D01*
X46082795Y-49309744D01*
X46004774Y-49498102D01*
X45965000Y-49698061D01*
X45965000Y-49901939D01*
X45980658Y-49980658D01*
X45901939Y-49965000D01*
X45698061Y-49965000D01*
X45498102Y-50004774D01*
X45309744Y-50082795D01*
X45140226Y-50196063D01*
X44996063Y-50340226D01*
X44882795Y-50509744D01*
X44804774Y-50698102D01*
X44765000Y-50898061D01*
X44765000Y-51101939D01*
X44804774Y-51301898D01*
X44882795Y-51490256D01*
X44996063Y-51659774D01*
X45140226Y-51803937D01*
X45309744Y-51917205D01*
X45498102Y-51995226D01*
X45698061Y-52035000D01*
X45901939Y-52035000D01*
X46101898Y-51995226D01*
X46290256Y-51917205D01*
X46459774Y-51803937D01*
X46535739Y-51727972D01*
X46698102Y-51795226D01*
X46898061Y-51835000D01*
X47101939Y-51835000D01*
X47242492Y-51807042D01*
X47204774Y-51898102D01*
X47165000Y-52098061D01*
X47165000Y-52301939D01*
X47204774Y-52501898D01*
X47277519Y-52677519D01*
X47101898Y-52604774D01*
X46901939Y-52565000D01*
X46698061Y-52565000D01*
X46498102Y-52604774D01*
X46309744Y-52682795D01*
X46140226Y-52796063D01*
X46100000Y-52836289D01*
X46059774Y-52796063D01*
X45890256Y-52682795D01*
X45701898Y-52604774D01*
X45501939Y-52565000D01*
X45298061Y-52565000D01*
X45098102Y-52604774D01*
X44909744Y-52682795D01*
X44740226Y-52796063D01*
X44596063Y-52940226D01*
X44482795Y-53109744D01*
X44404774Y-53298102D01*
X44365000Y-53498061D01*
X43610243Y-53498061D01*
X43826632Y-53353475D01*
X44033475Y-53146632D01*
X44195990Y-52903411D01*
X44307932Y-52633158D01*
X44365000Y-52346260D01*
X44365000Y-52053740D01*
X44307932Y-51766842D01*
X44195990Y-51496589D01*
X44033475Y-51253368D01*
X43826632Y-51046525D01*
X43583411Y-50884010D01*
X43313158Y-50772068D01*
X43026260Y-50715000D01*
X42733740Y-50715000D01*
X42446842Y-50772068D01*
X42176589Y-50884010D01*
X41933368Y-51046525D01*
X41726525Y-51253368D01*
X41610000Y-51427760D01*
X41493475Y-51253368D01*
X41286632Y-51046525D01*
X41043411Y-50884010D01*
X40773158Y-50772068D01*
X40486260Y-50715000D01*
X40193740Y-50715000D01*
X39906842Y-50772068D01*
X39636589Y-50884010D01*
X39393368Y-51046525D01*
X39261513Y-51178380D01*
X39239502Y-51105820D01*
X39180537Y-50995506D01*
X39101185Y-50898815D01*
X39004494Y-50819463D01*
X38894180Y-50760498D01*
X38774482Y-50724188D01*
X38650000Y-50711928D01*
X38085750Y-50715000D01*
X37927000Y-50873750D01*
X37673000Y-50873750D01*
X37514250Y-50715000D01*
X36950000Y-50711928D01*
X36825518Y-50724188D01*
X36705820Y-50760498D01*
X36595506Y-50819463D01*
X36498815Y-50898815D01*
X36419463Y-50995506D01*
X36360498Y-51105820D01*
X36324188Y-51225518D01*
X36311928Y-51350000D01*
X29660000Y-51350000D01*
X29660000Y-47029392D01*
X29696333Y-46622285D01*
X30165000Y-46622285D01*
X30165000Y-47377715D01*
X30312377Y-48118628D01*
X30601467Y-48816554D01*
X31021161Y-49444670D01*
X31555330Y-49978839D01*
X32183446Y-50398533D01*
X32881372Y-50687623D01*
X33622285Y-50835000D01*
X34377715Y-50835000D01*
X35118628Y-50687623D01*
X35816554Y-50398533D01*
X36444670Y-49978839D01*
X36978839Y-49444670D01*
X37398533Y-48816554D01*
X37687623Y-48118628D01*
X37835000Y-47377715D01*
X37835000Y-46622285D01*
X37687623Y-45881372D01*
X37398533Y-45183446D01*
X36978839Y-44555330D01*
X36444670Y-44021161D01*
X35816554Y-43601467D01*
X35118628Y-43312377D01*
X34377715Y-43165000D01*
X33622285Y-43165000D01*
X32881372Y-43312377D01*
X32183446Y-43601467D01*
X31555330Y-44021161D01*
X31021161Y-44555330D01*
X30601467Y-45183446D01*
X30312377Y-45881372D01*
X30165000Y-46622285D01*
X29696333Y-46622285D01*
X29731173Y-46231917D01*
X29934656Y-45488109D01*
X30266638Y-44792095D01*
X30716626Y-44165870D01*
X31270403Y-43629223D01*
X31910451Y-43199129D01*
X32616553Y-42889171D01*
X33371457Y-42707935D01*
X34024207Y-42660000D01*
X55476289Y-42660000D01*
X55396063Y-42740226D01*
G37*
%TD.AperFunction*%
%TD*%
M02*
