G04 #@! TF.GenerationSoftware,KiCad,Pcbnew,5.1.5+dfsg1-2build2*
G04 #@! TF.CreationDate,2021-10-17T19:15:36+01:00*
G04 #@! TF.ProjectId,flight-controller,666c6967-6874-42d6-936f-6e74726f6c6c,rev?*
G04 #@! TF.SameCoordinates,Original*
G04 #@! TF.FileFunction,Legend,Top*
G04 #@! TF.FilePolarity,Positive*
%FSLAX46Y46*%
G04 Gerber Fmt 4.6, Leading zero omitted, Abs format (unit mm)*
G04 Created by KiCad (PCBNEW 5.1.5+dfsg1-2build2) date 2021-10-17 19:15:36*
%MOMM*%
%LPD*%
G04 APERTURE LIST*
%ADD10C,0.150000*%
%ADD11C,0.300000*%
%ADD12C,0.010000*%
%ADD13C,0.120000*%
%ADD14C,0.100000*%
%ADD15C,0.254000*%
G04 APERTURE END LIST*
D10*
X135785714Y-105328571D02*
X136119047Y-105328571D01*
X136261904Y-105852380D02*
X135785714Y-105852380D01*
X135785714Y-104852380D01*
X136261904Y-104852380D01*
X136690476Y-105852380D02*
X136690476Y-104852380D01*
X137261904Y-105852380D01*
X137261904Y-104852380D01*
X138309523Y-105757142D02*
X138261904Y-105804761D01*
X138119047Y-105852380D01*
X138023809Y-105852380D01*
X137880952Y-105804761D01*
X137785714Y-105709523D01*
X137738095Y-105614285D01*
X137690476Y-105423809D01*
X137690476Y-105280952D01*
X137738095Y-105090476D01*
X137785714Y-104995238D01*
X137880952Y-104900000D01*
X138023809Y-104852380D01*
X138119047Y-104852380D01*
X138261904Y-104900000D01*
X138309523Y-104947619D01*
X138928571Y-104852380D02*
X139119047Y-104852380D01*
X139214285Y-104900000D01*
X139309523Y-104995238D01*
X139357142Y-105185714D01*
X139357142Y-105519047D01*
X139309523Y-105709523D01*
X139214285Y-105804761D01*
X139119047Y-105852380D01*
X138928571Y-105852380D01*
X138833333Y-105804761D01*
X138738095Y-105709523D01*
X138690476Y-105519047D01*
X138690476Y-105185714D01*
X138738095Y-104995238D01*
X138833333Y-104900000D01*
X138928571Y-104852380D01*
X139785714Y-105852380D02*
X139785714Y-104852380D01*
X140023809Y-104852380D01*
X140166666Y-104900000D01*
X140261904Y-104995238D01*
X140309523Y-105090476D01*
X140357142Y-105280952D01*
X140357142Y-105423809D01*
X140309523Y-105614285D01*
X140261904Y-105709523D01*
X140166666Y-105804761D01*
X140023809Y-105852380D01*
X139785714Y-105852380D01*
X140785714Y-105328571D02*
X141119047Y-105328571D01*
X141261904Y-105852380D02*
X140785714Y-105852380D01*
X140785714Y-104852380D01*
X141261904Y-104852380D01*
X142261904Y-105852380D02*
X141928571Y-105376190D01*
X141690476Y-105852380D02*
X141690476Y-104852380D01*
X142071428Y-104852380D01*
X142166666Y-104900000D01*
X142214285Y-104947619D01*
X142261904Y-105042857D01*
X142261904Y-105185714D01*
X142214285Y-105280952D01*
X142166666Y-105328571D01*
X142071428Y-105376190D01*
X141690476Y-105376190D01*
X129138095Y-47300000D02*
X129042857Y-47252380D01*
X128900000Y-47252380D01*
X128757142Y-47300000D01*
X128661904Y-47395238D01*
X128614285Y-47490476D01*
X128566666Y-47680952D01*
X128566666Y-47823809D01*
X128614285Y-48014285D01*
X128661904Y-48109523D01*
X128757142Y-48204761D01*
X128900000Y-48252380D01*
X128995238Y-48252380D01*
X129138095Y-48204761D01*
X129185714Y-48157142D01*
X129185714Y-47823809D01*
X128995238Y-47823809D01*
X129614285Y-48252380D02*
X129614285Y-47252380D01*
X130185714Y-48252380D01*
X130185714Y-47252380D01*
X130661904Y-48252380D02*
X130661904Y-47252380D01*
X130900000Y-47252380D01*
X131042857Y-47300000D01*
X131138095Y-47395238D01*
X131185714Y-47490476D01*
X131233333Y-47680952D01*
X131233333Y-47823809D01*
X131185714Y-48014285D01*
X131138095Y-48109523D01*
X131042857Y-48204761D01*
X130900000Y-48252380D01*
X130661904Y-48252380D01*
X133614285Y-47771428D02*
X134376190Y-47771428D01*
X133995238Y-48152380D02*
X133995238Y-47390476D01*
X135328571Y-47152380D02*
X134852380Y-47152380D01*
X134804761Y-47628571D01*
X134852380Y-47580952D01*
X134947619Y-47533333D01*
X135185714Y-47533333D01*
X135280952Y-47580952D01*
X135328571Y-47628571D01*
X135376190Y-47723809D01*
X135376190Y-47961904D01*
X135328571Y-48057142D01*
X135280952Y-48104761D01*
X135185714Y-48152380D01*
X134947619Y-48152380D01*
X134852380Y-48104761D01*
X134804761Y-48057142D01*
X135661904Y-47152380D02*
X135995238Y-48152380D01*
X136328571Y-47152380D01*
X119185714Y-46000000D02*
X119090476Y-45952380D01*
X118947619Y-45952380D01*
X118804761Y-46000000D01*
X118709523Y-46095238D01*
X118661904Y-46190476D01*
X118614285Y-46380952D01*
X118614285Y-46523809D01*
X118661904Y-46714285D01*
X118709523Y-46809523D01*
X118804761Y-46904761D01*
X118947619Y-46952380D01*
X119042857Y-46952380D01*
X119185714Y-46904761D01*
X119233333Y-46857142D01*
X119233333Y-46523809D01*
X119042857Y-46523809D01*
X119661904Y-46952380D02*
X119661904Y-45952380D01*
X120042857Y-45952380D01*
X120138095Y-46000000D01*
X120185714Y-46047619D01*
X120233333Y-46142857D01*
X120233333Y-46285714D01*
X120185714Y-46380952D01*
X120138095Y-46428571D01*
X120042857Y-46476190D01*
X119661904Y-46476190D01*
X120614285Y-46904761D02*
X120757142Y-46952380D01*
X120995238Y-46952380D01*
X121090476Y-46904761D01*
X121138095Y-46857142D01*
X121185714Y-46761904D01*
X121185714Y-46666666D01*
X121138095Y-46571428D01*
X121090476Y-46523809D01*
X120995238Y-46476190D01*
X120804761Y-46428571D01*
X120709523Y-46380952D01*
X120661904Y-46333333D01*
X120614285Y-46238095D01*
X120614285Y-46142857D01*
X120661904Y-46047619D01*
X120709523Y-46000000D01*
X120804761Y-45952380D01*
X121042857Y-45952380D01*
X121185714Y-46000000D01*
X113623809Y-48352380D02*
X113623809Y-47352380D01*
X114052380Y-47447619D02*
X114100000Y-47400000D01*
X114195238Y-47352380D01*
X114433333Y-47352380D01*
X114528571Y-47400000D01*
X114576190Y-47447619D01*
X114623809Y-47542857D01*
X114623809Y-47638095D01*
X114576190Y-47780952D01*
X114004761Y-48352380D01*
X114623809Y-48352380D01*
X115623809Y-48257142D02*
X115576190Y-48304761D01*
X115433333Y-48352380D01*
X115338095Y-48352380D01*
X115195238Y-48304761D01*
X115100000Y-48209523D01*
X115052380Y-48114285D01*
X115004761Y-47923809D01*
X115004761Y-47780952D01*
X115052380Y-47590476D01*
X115100000Y-47495238D01*
X115195238Y-47400000D01*
X115338095Y-47352380D01*
X115433333Y-47352380D01*
X115576190Y-47400000D01*
X115623809Y-47447619D01*
X101076190Y-49604761D02*
X101219047Y-49652380D01*
X101457142Y-49652380D01*
X101552380Y-49604761D01*
X101600000Y-49557142D01*
X101647619Y-49461904D01*
X101647619Y-49366666D01*
X101600000Y-49271428D01*
X101552380Y-49223809D01*
X101457142Y-49176190D01*
X101266666Y-49128571D01*
X101171428Y-49080952D01*
X101123809Y-49033333D01*
X101076190Y-48938095D01*
X101076190Y-48842857D01*
X101123809Y-48747619D01*
X101171428Y-48700000D01*
X101266666Y-48652380D01*
X101504761Y-48652380D01*
X101647619Y-48700000D01*
X102076190Y-49652380D02*
X102076190Y-48652380D01*
X102457142Y-48652380D01*
X102552380Y-48700000D01*
X102600000Y-48747619D01*
X102647619Y-48842857D01*
X102647619Y-48985714D01*
X102600000Y-49080952D01*
X102552380Y-49128571D01*
X102457142Y-49176190D01*
X102076190Y-49176190D01*
X103076190Y-49652380D02*
X103076190Y-48652380D01*
D11*
X91507142Y-55478571D02*
X91507142Y-53978571D01*
X92078571Y-53978571D01*
X92221428Y-54050000D01*
X92292857Y-54121428D01*
X92364285Y-54264285D01*
X92364285Y-54478571D01*
X92292857Y-54621428D01*
X92221428Y-54692857D01*
X92078571Y-54764285D01*
X91507142Y-54764285D01*
X92864285Y-53978571D02*
X93221428Y-55478571D01*
X93507142Y-54407142D01*
X93792857Y-55478571D01*
X94150000Y-53978571D01*
X94721428Y-55478571D02*
X94721428Y-53978571D01*
X95221428Y-55050000D01*
X95721428Y-53978571D01*
X95721428Y-55478571D01*
X96078571Y-55621428D02*
X97221428Y-55621428D01*
X97507142Y-54121428D02*
X97578571Y-54050000D01*
X97721428Y-53978571D01*
X98078571Y-53978571D01*
X98221428Y-54050000D01*
X98292857Y-54121428D01*
X98364285Y-54264285D01*
X98364285Y-54407142D01*
X98292857Y-54621428D01*
X97435714Y-55478571D01*
X98364285Y-55478571D01*
X105407142Y-101978571D02*
X105407142Y-100478571D01*
X105978571Y-100478571D01*
X106121428Y-100550000D01*
X106192857Y-100621428D01*
X106264285Y-100764285D01*
X106264285Y-100978571D01*
X106192857Y-101121428D01*
X106121428Y-101192857D01*
X105978571Y-101264285D01*
X105407142Y-101264285D01*
X106764285Y-100478571D02*
X107121428Y-101978571D01*
X107407142Y-100907142D01*
X107692857Y-101978571D01*
X108050000Y-100478571D01*
X108621428Y-101978571D02*
X108621428Y-100478571D01*
X109121428Y-101550000D01*
X109621428Y-100478571D01*
X109621428Y-101978571D01*
X109978571Y-102121428D02*
X111121428Y-102121428D01*
X112264285Y-101978571D02*
X111407142Y-101978571D01*
X111835714Y-101978571D02*
X111835714Y-100478571D01*
X111692857Y-100692857D01*
X111550000Y-100835714D01*
X111407142Y-100907142D01*
D10*
X120071428Y-106952380D02*
X119738095Y-106476190D01*
X119500000Y-106952380D02*
X119500000Y-105952380D01*
X119880952Y-105952380D01*
X119976190Y-106000000D01*
X120023809Y-106047619D01*
X120071428Y-106142857D01*
X120071428Y-106285714D01*
X120023809Y-106380952D01*
X119976190Y-106428571D01*
X119880952Y-106476190D01*
X119500000Y-106476190D01*
X120642857Y-106952380D02*
X120547619Y-106904761D01*
X120500000Y-106857142D01*
X120452380Y-106761904D01*
X120452380Y-106476190D01*
X120500000Y-106380952D01*
X120547619Y-106333333D01*
X120642857Y-106285714D01*
X120785714Y-106285714D01*
X120880952Y-106333333D01*
X120928571Y-106380952D01*
X120976190Y-106476190D01*
X120976190Y-106761904D01*
X120928571Y-106857142D01*
X120880952Y-106904761D01*
X120785714Y-106952380D01*
X120642857Y-106952380D01*
X121404761Y-106952380D02*
X121404761Y-105952380D01*
X121404761Y-106333333D02*
X121500000Y-106285714D01*
X121690476Y-106285714D01*
X121785714Y-106333333D01*
X121833333Y-106380952D01*
X121880952Y-106476190D01*
X121880952Y-106761904D01*
X121833333Y-106857142D01*
X121785714Y-106904761D01*
X121690476Y-106952380D01*
X121500000Y-106952380D01*
X121404761Y-106904761D01*
X122452380Y-106952380D02*
X122357142Y-106904761D01*
X122309523Y-106857142D01*
X122261904Y-106761904D01*
X122261904Y-106476190D01*
X122309523Y-106380952D01*
X122357142Y-106333333D01*
X122452380Y-106285714D01*
X122595238Y-106285714D01*
X122690476Y-106333333D01*
X122738095Y-106380952D01*
X122785714Y-106476190D01*
X122785714Y-106761904D01*
X122738095Y-106857142D01*
X122690476Y-106904761D01*
X122595238Y-106952380D01*
X122452380Y-106952380D01*
X123166666Y-106904761D02*
X123309523Y-106952380D01*
X123547619Y-106952380D01*
X123642857Y-106904761D01*
X123690476Y-106857142D01*
X123738095Y-106761904D01*
X123738095Y-106666666D01*
X123690476Y-106571428D01*
X123642857Y-106523809D01*
X123547619Y-106476190D01*
X123357142Y-106428571D01*
X123261904Y-106380952D01*
X123214285Y-106333333D01*
X123166666Y-106238095D01*
X123166666Y-106142857D01*
X123214285Y-106047619D01*
X123261904Y-106000000D01*
X123357142Y-105952380D01*
X123595238Y-105952380D01*
X123738095Y-106000000D01*
X124309523Y-106952380D02*
X124214285Y-106904761D01*
X124166666Y-106857142D01*
X124119047Y-106761904D01*
X124119047Y-106476190D01*
X124166666Y-106380952D01*
X124214285Y-106333333D01*
X124309523Y-106285714D01*
X124452380Y-106285714D01*
X124547619Y-106333333D01*
X124595238Y-106380952D01*
X124642857Y-106476190D01*
X124642857Y-106761904D01*
X124595238Y-106857142D01*
X124547619Y-106904761D01*
X124452380Y-106952380D01*
X124309523Y-106952380D01*
X125500000Y-106904761D02*
X125404761Y-106952380D01*
X125214285Y-106952380D01*
X125119047Y-106904761D01*
X125071428Y-106857142D01*
X125023809Y-106761904D01*
X125023809Y-106476190D01*
X125071428Y-106380952D01*
X125119047Y-106333333D01*
X125214285Y-106285714D01*
X125404761Y-106285714D01*
X125500000Y-106333333D01*
X126690476Y-106952380D02*
X126690476Y-105952380D01*
X126928571Y-105952380D01*
X127071428Y-106000000D01*
X127166666Y-106095238D01*
X127214285Y-106190476D01*
X127261904Y-106380952D01*
X127261904Y-106523809D01*
X127214285Y-106714285D01*
X127166666Y-106809523D01*
X127071428Y-106904761D01*
X126928571Y-106952380D01*
X126690476Y-106952380D01*
X127690476Y-106952380D02*
X127690476Y-106285714D01*
X127690476Y-106476190D02*
X127738095Y-106380952D01*
X127785714Y-106333333D01*
X127880952Y-106285714D01*
X127976190Y-106285714D01*
X128452380Y-106952380D02*
X128357142Y-106904761D01*
X128309523Y-106857142D01*
X128261904Y-106761904D01*
X128261904Y-106476190D01*
X128309523Y-106380952D01*
X128357142Y-106333333D01*
X128452380Y-106285714D01*
X128595238Y-106285714D01*
X128690476Y-106333333D01*
X128738095Y-106380952D01*
X128785714Y-106476190D01*
X128785714Y-106761904D01*
X128738095Y-106857142D01*
X128690476Y-106904761D01*
X128595238Y-106952380D01*
X128452380Y-106952380D01*
X129214285Y-106285714D02*
X129214285Y-106952380D01*
X129214285Y-106380952D02*
X129261904Y-106333333D01*
X129357142Y-106285714D01*
X129500000Y-106285714D01*
X129595238Y-106333333D01*
X129642857Y-106428571D01*
X129642857Y-106952380D01*
X130500000Y-106904761D02*
X130404761Y-106952380D01*
X130214285Y-106952380D01*
X130119047Y-106904761D01*
X130071428Y-106809523D01*
X130071428Y-106428571D01*
X130119047Y-106333333D01*
X130214285Y-106285714D01*
X130404761Y-106285714D01*
X130500000Y-106333333D01*
X130547619Y-106428571D01*
X130547619Y-106523809D01*
X130071428Y-106619047D01*
D12*
G36*
X127880812Y-100648505D02*
G01*
X127980343Y-100660286D01*
X127999050Y-100663856D01*
X128043610Y-100674062D01*
X128084938Y-100686329D01*
X128128793Y-100702931D01*
X128180930Y-100726143D01*
X128247106Y-100758240D01*
X128281789Y-100775579D01*
X128328304Y-100803513D01*
X128381701Y-100842508D01*
X128435494Y-100887065D01*
X128483199Y-100931683D01*
X128518330Y-100970862D01*
X128527568Y-100984034D01*
X128550958Y-101018077D01*
X128573676Y-101045485D01*
X128576850Y-101048633D01*
X128594121Y-101070762D01*
X128616903Y-101107489D01*
X128637708Y-101145950D01*
X128697916Y-101284682D01*
X128735256Y-101418645D01*
X128750583Y-101552139D01*
X128745170Y-101685789D01*
X128737976Y-101741550D01*
X128729932Y-101789695D01*
X128722288Y-101823269D01*
X128718757Y-101832908D01*
X128708287Y-101856210D01*
X128692345Y-101895534D01*
X128674104Y-101943019D01*
X128671239Y-101950701D01*
X128642122Y-102014133D01*
X128600621Y-102085282D01*
X128551922Y-102156643D01*
X128501215Y-102220710D01*
X128453686Y-102269976D01*
X128445962Y-102276617D01*
X128385683Y-102329255D01*
X128329404Y-102383463D01*
X128281547Y-102434604D01*
X128246535Y-102478042D01*
X128232591Y-102500280D01*
X128213203Y-102561113D01*
X128208284Y-102632029D01*
X128217807Y-102702252D01*
X128233169Y-102745467D01*
X128264798Y-102794610D01*
X128311403Y-102847740D01*
X128365358Y-102897257D01*
X128419037Y-102935561D01*
X128430161Y-102941786D01*
X128499863Y-102964441D01*
X128551500Y-102968399D01*
X128596931Y-102964455D01*
X128641571Y-102951138D01*
X128689369Y-102926222D01*
X128744277Y-102887481D01*
X128810243Y-102832689D01*
X128841549Y-102804937D01*
X128919672Y-102736172D01*
X128985496Y-102682280D01*
X129044390Y-102639890D01*
X129101725Y-102605627D01*
X129162870Y-102576121D01*
X129233197Y-102547998D01*
X129274450Y-102533057D01*
X129330691Y-102514707D01*
X129381551Y-102502459D01*
X129436211Y-102494734D01*
X129503848Y-102489954D01*
X129532449Y-102488678D01*
X129625649Y-102487787D01*
X129711246Y-102492437D01*
X129784182Y-102502079D01*
X129839396Y-102516160D01*
X129857670Y-102524093D01*
X129879102Y-102533589D01*
X129916859Y-102548610D01*
X129963341Y-102566149D01*
X129970456Y-102568759D01*
X130065331Y-102612701D01*
X130160374Y-102675910D01*
X130258550Y-102760482D01*
X130300666Y-102802092D01*
X130357272Y-102854820D01*
X130416350Y-102901014D01*
X130472968Y-102937465D01*
X130522198Y-102960968D01*
X130556307Y-102968400D01*
X130577132Y-102973510D01*
X130578261Y-102990625D01*
X130571160Y-103016398D01*
X130561104Y-103054320D01*
X130557413Y-103068505D01*
X130546216Y-103107338D01*
X130535400Y-103137985D01*
X130532354Y-103144705D01*
X130524170Y-103164517D01*
X130510037Y-103202717D01*
X130492022Y-103253592D01*
X130474383Y-103304950D01*
X130452371Y-103367358D01*
X130429803Y-103426995D01*
X130409689Y-103476119D01*
X130397824Y-103501800D01*
X130378428Y-103541127D01*
X130353509Y-103593601D01*
X130327836Y-103649149D01*
X130322847Y-103660147D01*
X130300104Y-103708501D01*
X130279252Y-103749385D01*
X130263783Y-103776062D01*
X130260287Y-103780797D01*
X130246504Y-103801013D01*
X130225354Y-103836798D01*
X130200982Y-103881081D01*
X130196426Y-103889688D01*
X130170555Y-103936963D01*
X130145713Y-103979123D01*
X130126777Y-104007937D01*
X130124952Y-104010338D01*
X130104828Y-104037608D01*
X130077387Y-104076737D01*
X130053847Y-104111400D01*
X129982374Y-104211851D01*
X129896280Y-104322186D01*
X129800705Y-104436333D01*
X129700790Y-104548217D01*
X129601675Y-104651764D01*
X129570193Y-104682900D01*
X129445576Y-104801234D01*
X129329335Y-104904617D01*
X129214720Y-104998503D01*
X129094981Y-105088348D01*
X128963369Y-105179605D01*
X128919300Y-105208904D01*
X128868958Y-105240885D01*
X128809066Y-105277106D01*
X128745829Y-105314004D01*
X128685456Y-105348020D01*
X128634154Y-105375591D01*
X128598164Y-105393143D01*
X128562212Y-105409220D01*
X128512110Y-105432299D01*
X128456584Y-105458343D01*
X128434795Y-105468694D01*
X128386325Y-105491324D01*
X128346342Y-105509077D01*
X128320439Y-105519514D01*
X128314145Y-105521256D01*
X128298590Y-105525468D01*
X128264377Y-105536802D01*
X128216647Y-105553502D01*
X128163650Y-105572671D01*
X128097292Y-105595544D01*
X128022081Y-105619073D01*
X127943215Y-105641883D01*
X127865893Y-105662600D01*
X127795316Y-105679850D01*
X127736682Y-105692259D01*
X127695191Y-105698453D01*
X127686004Y-105698900D01*
X127650448Y-105687280D01*
X127629439Y-105664131D01*
X127611717Y-105641404D01*
X127580591Y-105605648D01*
X127540538Y-105561872D01*
X127498517Y-105517645D01*
X127452827Y-105469319D01*
X127410622Y-105422664D01*
X127376888Y-105383312D01*
X127357913Y-105358825D01*
X127333776Y-105325350D01*
X127312641Y-105298552D01*
X127307602Y-105292881D01*
X127287887Y-105263656D01*
X127264298Y-105215684D01*
X127239297Y-105154818D01*
X127215346Y-105086906D01*
X127200577Y-105038500D01*
X127178260Y-104922163D01*
X127172225Y-104794400D01*
X127181740Y-104662641D01*
X127206075Y-104534319D01*
X127244497Y-104416866D01*
X127266486Y-104368954D01*
X127317139Y-104285874D01*
X127386791Y-104196075D01*
X127471676Y-104104098D01*
X127539676Y-104039469D01*
X127602052Y-103980788D01*
X127646383Y-103931829D01*
X127675466Y-103887799D01*
X127692099Y-103843904D01*
X127699081Y-103795349D01*
X127699821Y-103765067D01*
X127692669Y-103699831D01*
X127669990Y-103639815D01*
X127629075Y-103579712D01*
X127575997Y-103522698D01*
X127533024Y-103482956D01*
X127498181Y-103457580D01*
X127463204Y-103441532D01*
X127425889Y-103431158D01*
X127341702Y-103422056D01*
X127262303Y-103433455D01*
X127214296Y-103452714D01*
X127195803Y-103466065D01*
X127163006Y-103493078D01*
X127120190Y-103530103D01*
X127071640Y-103573493D01*
X127060330Y-103583790D01*
X126932823Y-103688861D01*
X126803900Y-103772862D01*
X126676023Y-103834312D01*
X126601550Y-103859538D01*
X126500054Y-103880234D01*
X126387340Y-103889538D01*
X126269940Y-103887940D01*
X126154386Y-103875931D01*
X126047211Y-103853999D01*
X125954947Y-103822637D01*
X125926117Y-103808856D01*
X125828123Y-103753963D01*
X125748946Y-103701829D01*
X125682910Y-103648489D01*
X125646755Y-103613770D01*
X125546908Y-103497500D01*
X125471035Y-103376263D01*
X125418218Y-103247601D01*
X125387537Y-103109052D01*
X125378074Y-102958159D01*
X125379741Y-102899207D01*
X125390910Y-102779410D01*
X125412968Y-102671803D01*
X125447939Y-102572510D01*
X125497848Y-102477654D01*
X125564718Y-102383361D01*
X125569565Y-102377850D01*
X126602463Y-102377850D01*
X126603131Y-102442858D01*
X126605138Y-102489431D01*
X126609858Y-102524531D01*
X126618669Y-102555122D01*
X126632946Y-102588167D01*
X126651365Y-102625284D01*
X126705967Y-102721994D01*
X126759391Y-102793480D01*
X126811745Y-102839885D01*
X126816619Y-102842964D01*
X126848295Y-102860680D01*
X126869862Y-102865334D01*
X126892274Y-102858062D01*
X126904009Y-102852025D01*
X126941857Y-102825472D01*
X126959612Y-102794882D01*
X126957199Y-102757374D01*
X126934541Y-102710066D01*
X126898934Y-102659513D01*
X126848550Y-102584932D01*
X126817159Y-102512840D01*
X126801594Y-102433916D01*
X126798400Y-102363607D01*
X126809323Y-102257706D01*
X126841988Y-102164918D01*
X126896233Y-102085496D01*
X126971900Y-102019688D01*
X127045419Y-101978094D01*
X127090555Y-101958566D01*
X127129273Y-101946988D01*
X127171588Y-101941377D01*
X127227516Y-101939750D01*
X127239195Y-101939727D01*
X127296801Y-101940708D01*
X127338362Y-101944925D01*
X127373202Y-101954343D01*
X127410644Y-101970923D01*
X127427050Y-101979280D01*
X127476733Y-102008641D01*
X127525668Y-102043297D01*
X127554050Y-102067313D01*
X127600414Y-102106017D01*
X127638632Y-102123511D01*
X127673178Y-102120629D01*
X127708527Y-102098204D01*
X127710564Y-102096437D01*
X127741133Y-102060404D01*
X127750741Y-102028946D01*
X127739620Y-101994269D01*
X127709378Y-101952996D01*
X127664254Y-101908511D01*
X127608484Y-101864198D01*
X127546307Y-101823442D01*
X127481958Y-101789627D01*
X127422830Y-101767059D01*
X127362941Y-101754501D01*
X127288650Y-101746917D01*
X127236550Y-101745245D01*
X127132236Y-101750360D01*
X127041094Y-101768096D01*
X126956680Y-101800911D01*
X126872550Y-101851267D01*
X126788641Y-101916225D01*
X126766691Y-101938816D01*
X126738861Y-101972924D01*
X126709652Y-102012254D01*
X126683562Y-102050513D01*
X126665093Y-102081407D01*
X126658700Y-102097978D01*
X126653682Y-102112552D01*
X126640822Y-102142213D01*
X126630125Y-102165263D01*
X126617600Y-102194773D01*
X126609391Y-102224504D01*
X126604677Y-102260745D01*
X126602641Y-102309788D01*
X126602463Y-102377850D01*
X125569565Y-102377850D01*
X125650572Y-102285754D01*
X125752277Y-102185760D01*
X125811677Y-102130121D01*
X125870536Y-102074608D01*
X125923832Y-102023987D01*
X125966538Y-101983022D01*
X125984949Y-101965100D01*
X126018754Y-101932423D01*
X126066287Y-101887235D01*
X126122583Y-101834220D01*
X126182674Y-101778063D01*
X126220599Y-101742850D01*
X126276600Y-101690869D01*
X126328258Y-101642677D01*
X126371776Y-101601834D01*
X126403355Y-101571901D01*
X126417177Y-101558499D01*
X126439392Y-101536901D01*
X126474961Y-101502988D01*
X126518637Y-101461740D01*
X126557100Y-101425676D01*
X126598162Y-101387126D01*
X126653280Y-101335117D01*
X126718140Y-101273732D01*
X126788431Y-101207056D01*
X126859840Y-101139173D01*
X126892167Y-101108387D01*
X126956354Y-101047520D01*
X127015719Y-100991780D01*
X127067397Y-100943815D01*
X127108521Y-100906272D01*
X127136225Y-100881798D01*
X127146167Y-100873813D01*
X127173074Y-100853842D01*
X127206647Y-100826694D01*
X127215513Y-100819173D01*
X127260669Y-100787649D01*
X127323218Y-100753682D01*
X127395801Y-100720525D01*
X127471057Y-100691432D01*
X127541627Y-100669656D01*
X127567415Y-100663615D01*
X127663021Y-100650163D01*
X127771262Y-100645128D01*
X127880812Y-100648505D01*
G37*
X127880812Y-100648505D02*
X127980343Y-100660286D01*
X127999050Y-100663856D01*
X128043610Y-100674062D01*
X128084938Y-100686329D01*
X128128793Y-100702931D01*
X128180930Y-100726143D01*
X128247106Y-100758240D01*
X128281789Y-100775579D01*
X128328304Y-100803513D01*
X128381701Y-100842508D01*
X128435494Y-100887065D01*
X128483199Y-100931683D01*
X128518330Y-100970862D01*
X128527568Y-100984034D01*
X128550958Y-101018077D01*
X128573676Y-101045485D01*
X128576850Y-101048633D01*
X128594121Y-101070762D01*
X128616903Y-101107489D01*
X128637708Y-101145950D01*
X128697916Y-101284682D01*
X128735256Y-101418645D01*
X128750583Y-101552139D01*
X128745170Y-101685789D01*
X128737976Y-101741550D01*
X128729932Y-101789695D01*
X128722288Y-101823269D01*
X128718757Y-101832908D01*
X128708287Y-101856210D01*
X128692345Y-101895534D01*
X128674104Y-101943019D01*
X128671239Y-101950701D01*
X128642122Y-102014133D01*
X128600621Y-102085282D01*
X128551922Y-102156643D01*
X128501215Y-102220710D01*
X128453686Y-102269976D01*
X128445962Y-102276617D01*
X128385683Y-102329255D01*
X128329404Y-102383463D01*
X128281547Y-102434604D01*
X128246535Y-102478042D01*
X128232591Y-102500280D01*
X128213203Y-102561113D01*
X128208284Y-102632029D01*
X128217807Y-102702252D01*
X128233169Y-102745467D01*
X128264798Y-102794610D01*
X128311403Y-102847740D01*
X128365358Y-102897257D01*
X128419037Y-102935561D01*
X128430161Y-102941786D01*
X128499863Y-102964441D01*
X128551500Y-102968399D01*
X128596931Y-102964455D01*
X128641571Y-102951138D01*
X128689369Y-102926222D01*
X128744277Y-102887481D01*
X128810243Y-102832689D01*
X128841549Y-102804937D01*
X128919672Y-102736172D01*
X128985496Y-102682280D01*
X129044390Y-102639890D01*
X129101725Y-102605627D01*
X129162870Y-102576121D01*
X129233197Y-102547998D01*
X129274450Y-102533057D01*
X129330691Y-102514707D01*
X129381551Y-102502459D01*
X129436211Y-102494734D01*
X129503848Y-102489954D01*
X129532449Y-102488678D01*
X129625649Y-102487787D01*
X129711246Y-102492437D01*
X129784182Y-102502079D01*
X129839396Y-102516160D01*
X129857670Y-102524093D01*
X129879102Y-102533589D01*
X129916859Y-102548610D01*
X129963341Y-102566149D01*
X129970456Y-102568759D01*
X130065331Y-102612701D01*
X130160374Y-102675910D01*
X130258550Y-102760482D01*
X130300666Y-102802092D01*
X130357272Y-102854820D01*
X130416350Y-102901014D01*
X130472968Y-102937465D01*
X130522198Y-102960968D01*
X130556307Y-102968400D01*
X130577132Y-102973510D01*
X130578261Y-102990625D01*
X130571160Y-103016398D01*
X130561104Y-103054320D01*
X130557413Y-103068505D01*
X130546216Y-103107338D01*
X130535400Y-103137985D01*
X130532354Y-103144705D01*
X130524170Y-103164517D01*
X130510037Y-103202717D01*
X130492022Y-103253592D01*
X130474383Y-103304950D01*
X130452371Y-103367358D01*
X130429803Y-103426995D01*
X130409689Y-103476119D01*
X130397824Y-103501800D01*
X130378428Y-103541127D01*
X130353509Y-103593601D01*
X130327836Y-103649149D01*
X130322847Y-103660147D01*
X130300104Y-103708501D01*
X130279252Y-103749385D01*
X130263783Y-103776062D01*
X130260287Y-103780797D01*
X130246504Y-103801013D01*
X130225354Y-103836798D01*
X130200982Y-103881081D01*
X130196426Y-103889688D01*
X130170555Y-103936963D01*
X130145713Y-103979123D01*
X130126777Y-104007937D01*
X130124952Y-104010338D01*
X130104828Y-104037608D01*
X130077387Y-104076737D01*
X130053847Y-104111400D01*
X129982374Y-104211851D01*
X129896280Y-104322186D01*
X129800705Y-104436333D01*
X129700790Y-104548217D01*
X129601675Y-104651764D01*
X129570193Y-104682900D01*
X129445576Y-104801234D01*
X129329335Y-104904617D01*
X129214720Y-104998503D01*
X129094981Y-105088348D01*
X128963369Y-105179605D01*
X128919300Y-105208904D01*
X128868958Y-105240885D01*
X128809066Y-105277106D01*
X128745829Y-105314004D01*
X128685456Y-105348020D01*
X128634154Y-105375591D01*
X128598164Y-105393143D01*
X128562212Y-105409220D01*
X128512110Y-105432299D01*
X128456584Y-105458343D01*
X128434795Y-105468694D01*
X128386325Y-105491324D01*
X128346342Y-105509077D01*
X128320439Y-105519514D01*
X128314145Y-105521256D01*
X128298590Y-105525468D01*
X128264377Y-105536802D01*
X128216647Y-105553502D01*
X128163650Y-105572671D01*
X128097292Y-105595544D01*
X128022081Y-105619073D01*
X127943215Y-105641883D01*
X127865893Y-105662600D01*
X127795316Y-105679850D01*
X127736682Y-105692259D01*
X127695191Y-105698453D01*
X127686004Y-105698900D01*
X127650448Y-105687280D01*
X127629439Y-105664131D01*
X127611717Y-105641404D01*
X127580591Y-105605648D01*
X127540538Y-105561872D01*
X127498517Y-105517645D01*
X127452827Y-105469319D01*
X127410622Y-105422664D01*
X127376888Y-105383312D01*
X127357913Y-105358825D01*
X127333776Y-105325350D01*
X127312641Y-105298552D01*
X127307602Y-105292881D01*
X127287887Y-105263656D01*
X127264298Y-105215684D01*
X127239297Y-105154818D01*
X127215346Y-105086906D01*
X127200577Y-105038500D01*
X127178260Y-104922163D01*
X127172225Y-104794400D01*
X127181740Y-104662641D01*
X127206075Y-104534319D01*
X127244497Y-104416866D01*
X127266486Y-104368954D01*
X127317139Y-104285874D01*
X127386791Y-104196075D01*
X127471676Y-104104098D01*
X127539676Y-104039469D01*
X127602052Y-103980788D01*
X127646383Y-103931829D01*
X127675466Y-103887799D01*
X127692099Y-103843904D01*
X127699081Y-103795349D01*
X127699821Y-103765067D01*
X127692669Y-103699831D01*
X127669990Y-103639815D01*
X127629075Y-103579712D01*
X127575997Y-103522698D01*
X127533024Y-103482956D01*
X127498181Y-103457580D01*
X127463204Y-103441532D01*
X127425889Y-103431158D01*
X127341702Y-103422056D01*
X127262303Y-103433455D01*
X127214296Y-103452714D01*
X127195803Y-103466065D01*
X127163006Y-103493078D01*
X127120190Y-103530103D01*
X127071640Y-103573493D01*
X127060330Y-103583790D01*
X126932823Y-103688861D01*
X126803900Y-103772862D01*
X126676023Y-103834312D01*
X126601550Y-103859538D01*
X126500054Y-103880234D01*
X126387340Y-103889538D01*
X126269940Y-103887940D01*
X126154386Y-103875931D01*
X126047211Y-103853999D01*
X125954947Y-103822637D01*
X125926117Y-103808856D01*
X125828123Y-103753963D01*
X125748946Y-103701829D01*
X125682910Y-103648489D01*
X125646755Y-103613770D01*
X125546908Y-103497500D01*
X125471035Y-103376263D01*
X125418218Y-103247601D01*
X125387537Y-103109052D01*
X125378074Y-102958159D01*
X125379741Y-102899207D01*
X125390910Y-102779410D01*
X125412968Y-102671803D01*
X125447939Y-102572510D01*
X125497848Y-102477654D01*
X125564718Y-102383361D01*
X125569565Y-102377850D01*
X126602463Y-102377850D01*
X126603131Y-102442858D01*
X126605138Y-102489431D01*
X126609858Y-102524531D01*
X126618669Y-102555122D01*
X126632946Y-102588167D01*
X126651365Y-102625284D01*
X126705967Y-102721994D01*
X126759391Y-102793480D01*
X126811745Y-102839885D01*
X126816619Y-102842964D01*
X126848295Y-102860680D01*
X126869862Y-102865334D01*
X126892274Y-102858062D01*
X126904009Y-102852025D01*
X126941857Y-102825472D01*
X126959612Y-102794882D01*
X126957199Y-102757374D01*
X126934541Y-102710066D01*
X126898934Y-102659513D01*
X126848550Y-102584932D01*
X126817159Y-102512840D01*
X126801594Y-102433916D01*
X126798400Y-102363607D01*
X126809323Y-102257706D01*
X126841988Y-102164918D01*
X126896233Y-102085496D01*
X126971900Y-102019688D01*
X127045419Y-101978094D01*
X127090555Y-101958566D01*
X127129273Y-101946988D01*
X127171588Y-101941377D01*
X127227516Y-101939750D01*
X127239195Y-101939727D01*
X127296801Y-101940708D01*
X127338362Y-101944925D01*
X127373202Y-101954343D01*
X127410644Y-101970923D01*
X127427050Y-101979280D01*
X127476733Y-102008641D01*
X127525668Y-102043297D01*
X127554050Y-102067313D01*
X127600414Y-102106017D01*
X127638632Y-102123511D01*
X127673178Y-102120629D01*
X127708527Y-102098204D01*
X127710564Y-102096437D01*
X127741133Y-102060404D01*
X127750741Y-102028946D01*
X127739620Y-101994269D01*
X127709378Y-101952996D01*
X127664254Y-101908511D01*
X127608484Y-101864198D01*
X127546307Y-101823442D01*
X127481958Y-101789627D01*
X127422830Y-101767059D01*
X127362941Y-101754501D01*
X127288650Y-101746917D01*
X127236550Y-101745245D01*
X127132236Y-101750360D01*
X127041094Y-101768096D01*
X126956680Y-101800911D01*
X126872550Y-101851267D01*
X126788641Y-101916225D01*
X126766691Y-101938816D01*
X126738861Y-101972924D01*
X126709652Y-102012254D01*
X126683562Y-102050513D01*
X126665093Y-102081407D01*
X126658700Y-102097978D01*
X126653682Y-102112552D01*
X126640822Y-102142213D01*
X126630125Y-102165263D01*
X126617600Y-102194773D01*
X126609391Y-102224504D01*
X126604677Y-102260745D01*
X126602641Y-102309788D01*
X126602463Y-102377850D01*
X125569565Y-102377850D01*
X125650572Y-102285754D01*
X125752277Y-102185760D01*
X125811677Y-102130121D01*
X125870536Y-102074608D01*
X125923832Y-102023987D01*
X125966538Y-101983022D01*
X125984949Y-101965100D01*
X126018754Y-101932423D01*
X126066287Y-101887235D01*
X126122583Y-101834220D01*
X126182674Y-101778063D01*
X126220599Y-101742850D01*
X126276600Y-101690869D01*
X126328258Y-101642677D01*
X126371776Y-101601834D01*
X126403355Y-101571901D01*
X126417177Y-101558499D01*
X126439392Y-101536901D01*
X126474961Y-101502988D01*
X126518637Y-101461740D01*
X126557100Y-101425676D01*
X126598162Y-101387126D01*
X126653280Y-101335117D01*
X126718140Y-101273732D01*
X126788431Y-101207056D01*
X126859840Y-101139173D01*
X126892167Y-101108387D01*
X126956354Y-101047520D01*
X127015719Y-100991780D01*
X127067397Y-100943815D01*
X127108521Y-100906272D01*
X127136225Y-100881798D01*
X127146167Y-100873813D01*
X127173074Y-100853842D01*
X127206647Y-100826694D01*
X127215513Y-100819173D01*
X127260669Y-100787649D01*
X127323218Y-100753682D01*
X127395801Y-100720525D01*
X127471057Y-100691432D01*
X127541627Y-100669656D01*
X127567415Y-100663615D01*
X127663021Y-100650163D01*
X127771262Y-100645128D01*
X127880812Y-100648505D01*
G36*
X127045282Y-98165294D02*
G01*
X127136327Y-98166924D01*
X127216428Y-98169410D01*
X127281067Y-98172752D01*
X127325730Y-98176949D01*
X127331800Y-98177879D01*
X127383417Y-98186577D01*
X127448436Y-98197443D01*
X127515192Y-98208530D01*
X127535000Y-98211805D01*
X127827009Y-98269665D01*
X128100512Y-98343927D01*
X128356719Y-98434980D01*
X128596844Y-98543215D01*
X128652600Y-98571995D01*
X128708279Y-98602491D01*
X128769473Y-98637650D01*
X128830686Y-98674134D01*
X128886422Y-98708606D01*
X128931185Y-98737728D01*
X128959479Y-98758160D01*
X128960460Y-98758976D01*
X128987301Y-98779211D01*
X129006663Y-98789694D01*
X129009003Y-98790099D01*
X129025511Y-98797902D01*
X129057914Y-98819524D01*
X129102794Y-98852282D01*
X129156736Y-98893497D01*
X129216324Y-98940487D01*
X129278139Y-98990572D01*
X129338766Y-99041069D01*
X129394787Y-99089300D01*
X129427300Y-99118332D01*
X129559295Y-99242138D01*
X129677609Y-99361776D01*
X129789610Y-99485156D01*
X129902666Y-99620185D01*
X129949731Y-99679100D01*
X130009378Y-99758822D01*
X130073670Y-99851978D01*
X130139047Y-99952795D01*
X130201948Y-100055501D01*
X130258814Y-100154321D01*
X130306086Y-100243483D01*
X130333476Y-100301400D01*
X130358507Y-100356878D01*
X130386040Y-100415458D01*
X130404806Y-100453800D01*
X130425795Y-100500698D01*
X130451604Y-100566308D01*
X130480277Y-100644863D01*
X130509858Y-100730596D01*
X130538390Y-100817739D01*
X130563918Y-100900525D01*
X130584485Y-100973187D01*
X130594345Y-101012600D01*
X130607693Y-101075075D01*
X130622133Y-101150106D01*
X130635284Y-101225090D01*
X130639907Y-101253900D01*
X130649759Y-101314535D01*
X130659683Y-101370456D01*
X130668264Y-101413934D01*
X130672409Y-101431700D01*
X130680603Y-101474981D01*
X130688179Y-101538378D01*
X130694947Y-101616998D01*
X130700716Y-101705951D01*
X130705295Y-101800342D01*
X130708493Y-101895281D01*
X130710119Y-101985874D01*
X130709983Y-102067231D01*
X130707895Y-102134458D01*
X130703662Y-102182664D01*
X130702062Y-102192112D01*
X130692619Y-102219479D01*
X130680546Y-102231716D01*
X130679837Y-102231761D01*
X130664547Y-102224490D01*
X130633754Y-102204762D01*
X130592047Y-102175661D01*
X130547800Y-102143118D01*
X130492256Y-102103162D01*
X130435401Y-102065344D01*
X130385032Y-102034707D01*
X130357300Y-102019990D01*
X130315793Y-101999339D01*
X130281833Y-101980749D01*
X130265500Y-101970207D01*
X130238312Y-101955419D01*
X130191786Y-101937261D01*
X130131476Y-101917393D01*
X130062941Y-101897476D01*
X129991737Y-101879174D01*
X129923422Y-101864147D01*
X129890850Y-101858174D01*
X129829920Y-101847653D01*
X129772068Y-101837137D01*
X129726028Y-101828236D01*
X129709692Y-101824788D01*
X129657416Y-101816914D01*
X129596591Y-101813366D01*
X129536174Y-101814113D01*
X129485121Y-101819123D01*
X129458331Y-101825672D01*
X129421637Y-101831198D01*
X129399405Y-101816525D01*
X129394206Y-101783899D01*
X129396242Y-101771445D01*
X129401306Y-101730616D01*
X129403763Y-101670914D01*
X129403794Y-101598713D01*
X129401583Y-101520387D01*
X129397310Y-101442309D01*
X129391160Y-101370854D01*
X129383313Y-101312394D01*
X129383078Y-101311050D01*
X129335950Y-101114065D01*
X129265776Y-100927751D01*
X129172596Y-100752192D01*
X129056452Y-100587471D01*
X128982800Y-100501525D01*
X128915776Y-100434341D01*
X128836969Y-100364974D01*
X128753907Y-100299473D01*
X128674121Y-100243890D01*
X128627200Y-100215736D01*
X128583880Y-100191134D01*
X128547616Y-100169171D01*
X128525826Y-100154351D01*
X128525039Y-100153702D01*
X128502903Y-100141179D01*
X128462290Y-100123552D01*
X128409075Y-100102941D01*
X128349131Y-100081464D01*
X128288333Y-100061243D01*
X128232554Y-100044395D01*
X128195400Y-100034750D01*
X128154627Y-100024168D01*
X128123698Y-100013965D01*
X128112677Y-100008573D01*
X128095634Y-100003559D01*
X128058677Y-99997332D01*
X128007214Y-99990678D01*
X127946653Y-99984383D01*
X127945384Y-99984266D01*
X127876916Y-99979986D01*
X127799833Y-99978465D01*
X127719260Y-99979446D01*
X127640318Y-99982671D01*
X127568131Y-99987884D01*
X127507823Y-99994828D01*
X127464515Y-100003243D01*
X127448173Y-100009236D01*
X127427433Y-100017294D01*
X127388436Y-100029828D01*
X127337495Y-100044874D01*
X127300050Y-100055322D01*
X127219182Y-100078554D01*
X127153270Y-100101023D01*
X127093513Y-100126505D01*
X127031111Y-100158782D01*
X126957263Y-100201630D01*
X126952084Y-100204735D01*
X126895625Y-100239550D01*
X126844411Y-100273574D01*
X126794809Y-100309758D01*
X126743186Y-100351055D01*
X126685909Y-100400416D01*
X126619345Y-100460793D01*
X126539860Y-100535138D01*
X126506300Y-100566919D01*
X126438011Y-100631630D01*
X126366750Y-100698973D01*
X126297866Y-100763906D01*
X126236706Y-100821386D01*
X126188800Y-100866205D01*
X126129478Y-100921751D01*
X126060975Y-100986303D01*
X125992407Y-101051250D01*
X125940818Y-101100397D01*
X125882834Y-101155510D01*
X125813992Y-101220433D01*
X125742138Y-101287792D01*
X125675120Y-101350215D01*
X125662564Y-101361850D01*
X125604425Y-101415889D01*
X125546424Y-101470191D01*
X125493994Y-101519643D01*
X125452568Y-101559133D01*
X125439879Y-101571400D01*
X125404946Y-101605394D01*
X125357113Y-101651930D01*
X125301691Y-101705843D01*
X125243991Y-101761967D01*
X125219658Y-101785632D01*
X125077387Y-101937914D01*
X124959286Y-102094928D01*
X124864315Y-102258293D01*
X124791437Y-102429631D01*
X124774787Y-102479450D01*
X124741162Y-102615004D01*
X124720427Y-102763208D01*
X124712358Y-102918464D01*
X124716729Y-103075177D01*
X124733317Y-103227750D01*
X124761898Y-103370586D01*
X124802245Y-103498088D01*
X124817073Y-103533550D01*
X124848497Y-103602804D01*
X124878473Y-103666967D01*
X124905054Y-103722043D01*
X124926290Y-103764037D01*
X124940235Y-103788955D01*
X124944041Y-103793900D01*
X124955073Y-103806853D01*
X124975940Y-103835176D01*
X125002406Y-103873094D01*
X125006166Y-103878617D01*
X125075804Y-103968620D01*
X125163772Y-104062609D01*
X125264576Y-104155761D01*
X125372725Y-104243253D01*
X125482724Y-104320259D01*
X125564618Y-104369042D01*
X125613681Y-104392659D01*
X125680018Y-104420342D01*
X125756402Y-104449476D01*
X125835602Y-104477444D01*
X125910389Y-104501632D01*
X125973532Y-104519424D01*
X125992653Y-104523896D01*
X126048906Y-104533175D01*
X126123981Y-104541424D01*
X126211305Y-104548044D01*
X126304304Y-104552432D01*
X126305139Y-104552460D01*
X126516728Y-104559346D01*
X126509840Y-104725898D01*
X126512397Y-104915020D01*
X126535014Y-105101295D01*
X126571962Y-105260750D01*
X126587761Y-105307589D01*
X126610590Y-105365636D01*
X126638122Y-105429944D01*
X126668034Y-105495562D01*
X126698001Y-105557543D01*
X126725698Y-105610940D01*
X126748800Y-105650803D01*
X126764983Y-105672184D01*
X126765441Y-105672575D01*
X126784298Y-105693865D01*
X126804453Y-105724223D01*
X126819573Y-105753275D01*
X126823800Y-105768119D01*
X126811977Y-105771918D01*
X126779870Y-105773910D01*
X126732517Y-105774248D01*
X126674956Y-105773086D01*
X126612227Y-105770579D01*
X126549369Y-105766882D01*
X126491420Y-105762149D01*
X126443421Y-105756534D01*
X126442800Y-105756443D01*
X126333022Y-105739312D01*
X126221012Y-105719886D01*
X126110720Y-105699010D01*
X126006093Y-105677525D01*
X125911080Y-105656274D01*
X125829630Y-105636102D01*
X125765691Y-105617849D01*
X125725250Y-105603270D01*
X125696713Y-105591942D01*
X125651559Y-105575315D01*
X125597269Y-105556112D01*
X125566500Y-105545530D01*
X125432935Y-105494350D01*
X125286286Y-105427810D01*
X125131482Y-105348455D01*
X124973454Y-105258831D01*
X124817133Y-105161484D01*
X124796537Y-105147960D01*
X124694562Y-105076046D01*
X124582353Y-104989076D01*
X124465489Y-104891875D01*
X124349545Y-104789266D01*
X124240098Y-104686075D01*
X124142725Y-104587125D01*
X124120377Y-104563020D01*
X124076126Y-104514620D01*
X124032767Y-104467217D01*
X123996497Y-104427584D01*
X123980254Y-104409850D01*
X123951845Y-104376717D01*
X123913280Y-104328876D01*
X123868872Y-104271993D01*
X123822937Y-104211731D01*
X123779789Y-104153757D01*
X123743743Y-104103735D01*
X123719113Y-104067330D01*
X123717890Y-104065376D01*
X123694609Y-104028793D01*
X123667243Y-103986973D01*
X123660244Y-103976476D01*
X123612900Y-103900578D01*
X123560170Y-103806793D01*
X123505344Y-103701108D01*
X123476169Y-103641500D01*
X123449273Y-103585769D01*
X123423845Y-103533750D01*
X123403502Y-103492807D01*
X123395124Y-103476400D01*
X123381636Y-103446203D01*
X123363074Y-103398826D01*
X123342098Y-103341280D01*
X123325240Y-103292250D01*
X123304954Y-103232543D01*
X123285870Y-103178177D01*
X123270356Y-103135793D01*
X123261876Y-103114450D01*
X123248089Y-103074674D01*
X123231635Y-103013593D01*
X123213282Y-102935069D01*
X123193799Y-102842963D01*
X123173952Y-102741136D01*
X123154509Y-102633450D01*
X123136240Y-102523767D01*
X123119910Y-102415948D01*
X123112875Y-102365150D01*
X123108360Y-102316003D01*
X123104842Y-102246839D01*
X123102319Y-102162632D01*
X123100790Y-102068356D01*
X123100254Y-101968985D01*
X123100710Y-101869491D01*
X123102157Y-101774850D01*
X123104593Y-101690035D01*
X123108017Y-101620019D01*
X123112429Y-101569777D01*
X123113062Y-101565050D01*
X123133802Y-101426401D01*
X123155884Y-101292833D01*
X123178560Y-101168208D01*
X123201084Y-101056387D01*
X123222707Y-100961234D01*
X123242684Y-100886610D01*
X123246921Y-100872900D01*
X123275933Y-100784712D01*
X123307206Y-100694179D01*
X123338694Y-100606882D01*
X123368348Y-100528404D01*
X123394120Y-100464325D01*
X123409989Y-100428400D01*
X123436777Y-100371829D01*
X123465822Y-100310569D01*
X123485248Y-100269650D01*
X123534541Y-100174102D01*
X123596837Y-100066088D01*
X123668059Y-99951942D01*
X123744128Y-99837994D01*
X123820966Y-99730578D01*
X123888824Y-99642977D01*
X123931125Y-99590870D01*
X123971770Y-99540752D01*
X124005706Y-99498857D01*
X124025381Y-99474517D01*
X124056169Y-99439199D01*
X124101413Y-99390945D01*
X124156848Y-99333983D01*
X124218206Y-99272539D01*
X124281219Y-99210839D01*
X124341622Y-99153110D01*
X124395145Y-99103581D01*
X124436200Y-99067582D01*
X124588960Y-98943322D01*
X124730645Y-98836103D01*
X124865771Y-98742914D01*
X124998853Y-98660741D01*
X125134407Y-98586573D01*
X125223600Y-98542367D01*
X125279351Y-98515534D01*
X125331385Y-98490139D01*
X125372329Y-98469796D01*
X125388700Y-98461418D01*
X125418858Y-98447830D01*
X125466171Y-98429053D01*
X125523646Y-98407779D01*
X125572850Y-98390562D01*
X125630801Y-98370630D01*
X125681791Y-98352705D01*
X125719871Y-98338904D01*
X125737950Y-98331860D01*
X125775756Y-98317364D01*
X125824976Y-98302385D01*
X125887557Y-98286522D01*
X125965446Y-98269369D01*
X126060590Y-98250523D01*
X126174938Y-98229581D01*
X126310436Y-98206139D01*
X126469033Y-98179793D01*
X126480900Y-98177854D01*
X126522097Y-98173490D01*
X126583965Y-98169984D01*
X126661987Y-98167333D01*
X126751645Y-98165539D01*
X126848425Y-98164601D01*
X126947810Y-98164520D01*
X127045282Y-98165294D01*
G37*
X127045282Y-98165294D02*
X127136327Y-98166924D01*
X127216428Y-98169410D01*
X127281067Y-98172752D01*
X127325730Y-98176949D01*
X127331800Y-98177879D01*
X127383417Y-98186577D01*
X127448436Y-98197443D01*
X127515192Y-98208530D01*
X127535000Y-98211805D01*
X127827009Y-98269665D01*
X128100512Y-98343927D01*
X128356719Y-98434980D01*
X128596844Y-98543215D01*
X128652600Y-98571995D01*
X128708279Y-98602491D01*
X128769473Y-98637650D01*
X128830686Y-98674134D01*
X128886422Y-98708606D01*
X128931185Y-98737728D01*
X128959479Y-98758160D01*
X128960460Y-98758976D01*
X128987301Y-98779211D01*
X129006663Y-98789694D01*
X129009003Y-98790099D01*
X129025511Y-98797902D01*
X129057914Y-98819524D01*
X129102794Y-98852282D01*
X129156736Y-98893497D01*
X129216324Y-98940487D01*
X129278139Y-98990572D01*
X129338766Y-99041069D01*
X129394787Y-99089300D01*
X129427300Y-99118332D01*
X129559295Y-99242138D01*
X129677609Y-99361776D01*
X129789610Y-99485156D01*
X129902666Y-99620185D01*
X129949731Y-99679100D01*
X130009378Y-99758822D01*
X130073670Y-99851978D01*
X130139047Y-99952795D01*
X130201948Y-100055501D01*
X130258814Y-100154321D01*
X130306086Y-100243483D01*
X130333476Y-100301400D01*
X130358507Y-100356878D01*
X130386040Y-100415458D01*
X130404806Y-100453800D01*
X130425795Y-100500698D01*
X130451604Y-100566308D01*
X130480277Y-100644863D01*
X130509858Y-100730596D01*
X130538390Y-100817739D01*
X130563918Y-100900525D01*
X130584485Y-100973187D01*
X130594345Y-101012600D01*
X130607693Y-101075075D01*
X130622133Y-101150106D01*
X130635284Y-101225090D01*
X130639907Y-101253900D01*
X130649759Y-101314535D01*
X130659683Y-101370456D01*
X130668264Y-101413934D01*
X130672409Y-101431700D01*
X130680603Y-101474981D01*
X130688179Y-101538378D01*
X130694947Y-101616998D01*
X130700716Y-101705951D01*
X130705295Y-101800342D01*
X130708493Y-101895281D01*
X130710119Y-101985874D01*
X130709983Y-102067231D01*
X130707895Y-102134458D01*
X130703662Y-102182664D01*
X130702062Y-102192112D01*
X130692619Y-102219479D01*
X130680546Y-102231716D01*
X130679837Y-102231761D01*
X130664547Y-102224490D01*
X130633754Y-102204762D01*
X130592047Y-102175661D01*
X130547800Y-102143118D01*
X130492256Y-102103162D01*
X130435401Y-102065344D01*
X130385032Y-102034707D01*
X130357300Y-102019990D01*
X130315793Y-101999339D01*
X130281833Y-101980749D01*
X130265500Y-101970207D01*
X130238312Y-101955419D01*
X130191786Y-101937261D01*
X130131476Y-101917393D01*
X130062941Y-101897476D01*
X129991737Y-101879174D01*
X129923422Y-101864147D01*
X129890850Y-101858174D01*
X129829920Y-101847653D01*
X129772068Y-101837137D01*
X129726028Y-101828236D01*
X129709692Y-101824788D01*
X129657416Y-101816914D01*
X129596591Y-101813366D01*
X129536174Y-101814113D01*
X129485121Y-101819123D01*
X129458331Y-101825672D01*
X129421637Y-101831198D01*
X129399405Y-101816525D01*
X129394206Y-101783899D01*
X129396242Y-101771445D01*
X129401306Y-101730616D01*
X129403763Y-101670914D01*
X129403794Y-101598713D01*
X129401583Y-101520387D01*
X129397310Y-101442309D01*
X129391160Y-101370854D01*
X129383313Y-101312394D01*
X129383078Y-101311050D01*
X129335950Y-101114065D01*
X129265776Y-100927751D01*
X129172596Y-100752192D01*
X129056452Y-100587471D01*
X128982800Y-100501525D01*
X128915776Y-100434341D01*
X128836969Y-100364974D01*
X128753907Y-100299473D01*
X128674121Y-100243890D01*
X128627200Y-100215736D01*
X128583880Y-100191134D01*
X128547616Y-100169171D01*
X128525826Y-100154351D01*
X128525039Y-100153702D01*
X128502903Y-100141179D01*
X128462290Y-100123552D01*
X128409075Y-100102941D01*
X128349131Y-100081464D01*
X128288333Y-100061243D01*
X128232554Y-100044395D01*
X128195400Y-100034750D01*
X128154627Y-100024168D01*
X128123698Y-100013965D01*
X128112677Y-100008573D01*
X128095634Y-100003559D01*
X128058677Y-99997332D01*
X128007214Y-99990678D01*
X127946653Y-99984383D01*
X127945384Y-99984266D01*
X127876916Y-99979986D01*
X127799833Y-99978465D01*
X127719260Y-99979446D01*
X127640318Y-99982671D01*
X127568131Y-99987884D01*
X127507823Y-99994828D01*
X127464515Y-100003243D01*
X127448173Y-100009236D01*
X127427433Y-100017294D01*
X127388436Y-100029828D01*
X127337495Y-100044874D01*
X127300050Y-100055322D01*
X127219182Y-100078554D01*
X127153270Y-100101023D01*
X127093513Y-100126505D01*
X127031111Y-100158782D01*
X126957263Y-100201630D01*
X126952084Y-100204735D01*
X126895625Y-100239550D01*
X126844411Y-100273574D01*
X126794809Y-100309758D01*
X126743186Y-100351055D01*
X126685909Y-100400416D01*
X126619345Y-100460793D01*
X126539860Y-100535138D01*
X126506300Y-100566919D01*
X126438011Y-100631630D01*
X126366750Y-100698973D01*
X126297866Y-100763906D01*
X126236706Y-100821386D01*
X126188800Y-100866205D01*
X126129478Y-100921751D01*
X126060975Y-100986303D01*
X125992407Y-101051250D01*
X125940818Y-101100397D01*
X125882834Y-101155510D01*
X125813992Y-101220433D01*
X125742138Y-101287792D01*
X125675120Y-101350215D01*
X125662564Y-101361850D01*
X125604425Y-101415889D01*
X125546424Y-101470191D01*
X125493994Y-101519643D01*
X125452568Y-101559133D01*
X125439879Y-101571400D01*
X125404946Y-101605394D01*
X125357113Y-101651930D01*
X125301691Y-101705843D01*
X125243991Y-101761967D01*
X125219658Y-101785632D01*
X125077387Y-101937914D01*
X124959286Y-102094928D01*
X124864315Y-102258293D01*
X124791437Y-102429631D01*
X124774787Y-102479450D01*
X124741162Y-102615004D01*
X124720427Y-102763208D01*
X124712358Y-102918464D01*
X124716729Y-103075177D01*
X124733317Y-103227750D01*
X124761898Y-103370586D01*
X124802245Y-103498088D01*
X124817073Y-103533550D01*
X124848497Y-103602804D01*
X124878473Y-103666967D01*
X124905054Y-103722043D01*
X124926290Y-103764037D01*
X124940235Y-103788955D01*
X124944041Y-103793900D01*
X124955073Y-103806853D01*
X124975940Y-103835176D01*
X125002406Y-103873094D01*
X125006166Y-103878617D01*
X125075804Y-103968620D01*
X125163772Y-104062609D01*
X125264576Y-104155761D01*
X125372725Y-104243253D01*
X125482724Y-104320259D01*
X125564618Y-104369042D01*
X125613681Y-104392659D01*
X125680018Y-104420342D01*
X125756402Y-104449476D01*
X125835602Y-104477444D01*
X125910389Y-104501632D01*
X125973532Y-104519424D01*
X125992653Y-104523896D01*
X126048906Y-104533175D01*
X126123981Y-104541424D01*
X126211305Y-104548044D01*
X126304304Y-104552432D01*
X126305139Y-104552460D01*
X126516728Y-104559346D01*
X126509840Y-104725898D01*
X126512397Y-104915020D01*
X126535014Y-105101295D01*
X126571962Y-105260750D01*
X126587761Y-105307589D01*
X126610590Y-105365636D01*
X126638122Y-105429944D01*
X126668034Y-105495562D01*
X126698001Y-105557543D01*
X126725698Y-105610940D01*
X126748800Y-105650803D01*
X126764983Y-105672184D01*
X126765441Y-105672575D01*
X126784298Y-105693865D01*
X126804453Y-105724223D01*
X126819573Y-105753275D01*
X126823800Y-105768119D01*
X126811977Y-105771918D01*
X126779870Y-105773910D01*
X126732517Y-105774248D01*
X126674956Y-105773086D01*
X126612227Y-105770579D01*
X126549369Y-105766882D01*
X126491420Y-105762149D01*
X126443421Y-105756534D01*
X126442800Y-105756443D01*
X126333022Y-105739312D01*
X126221012Y-105719886D01*
X126110720Y-105699010D01*
X126006093Y-105677525D01*
X125911080Y-105656274D01*
X125829630Y-105636102D01*
X125765691Y-105617849D01*
X125725250Y-105603270D01*
X125696713Y-105591942D01*
X125651559Y-105575315D01*
X125597269Y-105556112D01*
X125566500Y-105545530D01*
X125432935Y-105494350D01*
X125286286Y-105427810D01*
X125131482Y-105348455D01*
X124973454Y-105258831D01*
X124817133Y-105161484D01*
X124796537Y-105147960D01*
X124694562Y-105076046D01*
X124582353Y-104989076D01*
X124465489Y-104891875D01*
X124349545Y-104789266D01*
X124240098Y-104686075D01*
X124142725Y-104587125D01*
X124120377Y-104563020D01*
X124076126Y-104514620D01*
X124032767Y-104467217D01*
X123996497Y-104427584D01*
X123980254Y-104409850D01*
X123951845Y-104376717D01*
X123913280Y-104328876D01*
X123868872Y-104271993D01*
X123822937Y-104211731D01*
X123779789Y-104153757D01*
X123743743Y-104103735D01*
X123719113Y-104067330D01*
X123717890Y-104065376D01*
X123694609Y-104028793D01*
X123667243Y-103986973D01*
X123660244Y-103976476D01*
X123612900Y-103900578D01*
X123560170Y-103806793D01*
X123505344Y-103701108D01*
X123476169Y-103641500D01*
X123449273Y-103585769D01*
X123423845Y-103533750D01*
X123403502Y-103492807D01*
X123395124Y-103476400D01*
X123381636Y-103446203D01*
X123363074Y-103398826D01*
X123342098Y-103341280D01*
X123325240Y-103292250D01*
X123304954Y-103232543D01*
X123285870Y-103178177D01*
X123270356Y-103135793D01*
X123261876Y-103114450D01*
X123248089Y-103074674D01*
X123231635Y-103013593D01*
X123213282Y-102935069D01*
X123193799Y-102842963D01*
X123173952Y-102741136D01*
X123154509Y-102633450D01*
X123136240Y-102523767D01*
X123119910Y-102415948D01*
X123112875Y-102365150D01*
X123108360Y-102316003D01*
X123104842Y-102246839D01*
X123102319Y-102162632D01*
X123100790Y-102068356D01*
X123100254Y-101968985D01*
X123100710Y-101869491D01*
X123102157Y-101774850D01*
X123104593Y-101690035D01*
X123108017Y-101620019D01*
X123112429Y-101569777D01*
X123113062Y-101565050D01*
X123133802Y-101426401D01*
X123155884Y-101292833D01*
X123178560Y-101168208D01*
X123201084Y-101056387D01*
X123222707Y-100961234D01*
X123242684Y-100886610D01*
X123246921Y-100872900D01*
X123275933Y-100784712D01*
X123307206Y-100694179D01*
X123338694Y-100606882D01*
X123368348Y-100528404D01*
X123394120Y-100464325D01*
X123409989Y-100428400D01*
X123436777Y-100371829D01*
X123465822Y-100310569D01*
X123485248Y-100269650D01*
X123534541Y-100174102D01*
X123596837Y-100066088D01*
X123668059Y-99951942D01*
X123744128Y-99837994D01*
X123820966Y-99730578D01*
X123888824Y-99642977D01*
X123931125Y-99590870D01*
X123971770Y-99540752D01*
X124005706Y-99498857D01*
X124025381Y-99474517D01*
X124056169Y-99439199D01*
X124101413Y-99390945D01*
X124156848Y-99333983D01*
X124218206Y-99272539D01*
X124281219Y-99210839D01*
X124341622Y-99153110D01*
X124395145Y-99103581D01*
X124436200Y-99067582D01*
X124588960Y-98943322D01*
X124730645Y-98836103D01*
X124865771Y-98742914D01*
X124998853Y-98660741D01*
X125134407Y-98586573D01*
X125223600Y-98542367D01*
X125279351Y-98515534D01*
X125331385Y-98490139D01*
X125372329Y-98469796D01*
X125388700Y-98461418D01*
X125418858Y-98447830D01*
X125466171Y-98429053D01*
X125523646Y-98407779D01*
X125572850Y-98390562D01*
X125630801Y-98370630D01*
X125681791Y-98352705D01*
X125719871Y-98338904D01*
X125737950Y-98331860D01*
X125775756Y-98317364D01*
X125824976Y-98302385D01*
X125887557Y-98286522D01*
X125965446Y-98269369D01*
X126060590Y-98250523D01*
X126174938Y-98229581D01*
X126310436Y-98206139D01*
X126469033Y-98179793D01*
X126480900Y-98177854D01*
X126522097Y-98173490D01*
X126583965Y-98169984D01*
X126661987Y-98167333D01*
X126751645Y-98165539D01*
X126848425Y-98164601D01*
X126947810Y-98164520D01*
X127045282Y-98165294D01*
D13*
X95440000Y-53835000D02*
X97900000Y-53835000D01*
X95440000Y-52365000D02*
X95440000Y-53835000D01*
X97900000Y-52365000D02*
X95440000Y-52365000D01*
X95415000Y-52285000D02*
X97900000Y-52285000D01*
X95415000Y-50915000D02*
X95415000Y-52285000D01*
X97900000Y-50915000D02*
X95415000Y-50915000D01*
X138090000Y-39650000D02*
X137490000Y-39650000D01*
X138090000Y-40490000D02*
X138090000Y-39650000D01*
X128920000Y-50300000D02*
X128920000Y-49800000D01*
X131420000Y-50300000D02*
X131420000Y-49800000D01*
X131420000Y-49800000D02*
X128920000Y-49800000D01*
X131420000Y-50300000D02*
X128920000Y-50300000D01*
X131350000Y-44274000D02*
X131444000Y-44181000D01*
X129100000Y-46525000D02*
X129159000Y-46466000D01*
X131180000Y-44034000D02*
X131239000Y-43976000D01*
X128895000Y-46319000D02*
X128989000Y-46226000D01*
X134000000Y-50300000D02*
X134000000Y-49800000D01*
X136500000Y-50300000D02*
X136500000Y-49800000D01*
X136500000Y-49800000D02*
X134000000Y-49800000D01*
X136500000Y-50300000D02*
X134000000Y-50300000D01*
X127570000Y-50610000D02*
X127570000Y-39890000D01*
X137850000Y-50610000D02*
X137850000Y-39890000D01*
X137850000Y-39890000D02*
X127570000Y-39890000D01*
X137850000Y-50610000D02*
X127570000Y-50610000D01*
X137850000Y-48550000D02*
X127570000Y-48550000D01*
X137850000Y-42750000D02*
X127570000Y-42750000D01*
X137850000Y-40550000D02*
X127570000Y-40550000D01*
X131850000Y-45250000D02*
G75*
G03X131850000Y-45250000I-1680000J0D01*
G01*
X135220617Y-43569550D02*
G75*
G02X136039000Y-43766000I29383J-1680450D01*
G01*
X136733953Y-44460912D02*
G75*
G02X136734000Y-46039000I-1483953J-789088D01*
G01*
X136039088Y-46733953D02*
G75*
G02X134461000Y-46734000I-789088J1483953D01*
G01*
X133766047Y-46039088D02*
G75*
G02X133766000Y-44461000I1483953J789088D01*
G01*
X134461288Y-43766648D02*
G75*
G02X135250000Y-43570000I788712J-1483352D01*
G01*
X140034000Y-104550000D02*
X139780000Y-104550000D01*
X140034000Y-51210000D02*
X140034000Y-104550000D01*
X139780000Y-51210000D02*
X140034000Y-51210000D01*
X119206000Y-104550000D02*
X119460000Y-104550000D01*
X119206000Y-51210000D02*
X119206000Y-104550000D01*
X119460000Y-51210000D02*
X119206000Y-51210000D01*
X139780000Y-104550000D02*
X119460000Y-104550000D01*
X119460000Y-51210000D02*
X139780000Y-51210000D01*
X107510000Y-61890000D02*
X107510000Y-61140000D01*
X101290000Y-67360000D02*
X102040000Y-67360000D01*
X101290000Y-66610000D02*
X101290000Y-67360000D01*
X101290000Y-61140000D02*
X102040000Y-61140000D01*
X101290000Y-61890000D02*
X101290000Y-61140000D01*
X107510000Y-67360000D02*
X106760000Y-67360000D01*
X107510000Y-66610000D02*
X107510000Y-67360000D01*
X100450279Y-52590000D02*
X100124721Y-52590000D01*
X100450279Y-53610000D02*
X100124721Y-53610000D01*
X100462779Y-51090000D02*
X100137221Y-51090000D01*
X100462779Y-52110000D02*
X100137221Y-52110000D01*
X132810000Y-60762779D02*
X132810000Y-60437221D01*
X131790000Y-60762779D02*
X131790000Y-60437221D01*
X117662779Y-78590000D02*
X117337221Y-78590000D01*
X117662779Y-79610000D02*
X117337221Y-79610000D01*
X96630000Y-96830000D02*
X95300000Y-96830000D01*
X96630000Y-95500000D02*
X96630000Y-96830000D01*
X94030000Y-96830000D02*
X91430000Y-96830000D01*
X94030000Y-94230000D02*
X94030000Y-96830000D01*
X96630000Y-94230000D02*
X94030000Y-94230000D01*
X91430000Y-96830000D02*
X91430000Y-56070000D01*
X96630000Y-94230000D02*
X96630000Y-56070000D01*
X96630000Y-56070000D02*
X91430000Y-56070000D01*
X96920000Y-48330000D02*
X96920000Y-47000000D01*
X98250000Y-48330000D02*
X96920000Y-48330000D01*
X96920000Y-45730000D02*
X96920000Y-43130000D01*
X99520000Y-45730000D02*
X96920000Y-45730000D01*
X99520000Y-48330000D02*
X99520000Y-45730000D01*
X96920000Y-43130000D02*
X107200000Y-43130000D01*
X99520000Y-48330000D02*
X107200000Y-48330000D01*
X107200000Y-48330000D02*
X107200000Y-43130000D01*
X118530000Y-103270000D02*
X118530000Y-104600000D01*
X117200000Y-103270000D02*
X118530000Y-103270000D01*
X118530000Y-105870000D02*
X118530000Y-108470000D01*
X115930000Y-105870000D02*
X118530000Y-105870000D01*
X115930000Y-103270000D02*
X115930000Y-105870000D01*
X118530000Y-108470000D02*
X98090000Y-108470000D01*
X115930000Y-103270000D02*
X98090000Y-103270000D01*
X98090000Y-103270000D02*
X98090000Y-108470000D01*
X99470000Y-75870000D02*
X100800000Y-75870000D01*
X99470000Y-77200000D02*
X99470000Y-75870000D01*
X99470000Y-78470000D02*
X102130000Y-78470000D01*
X102130000Y-78470000D02*
X102130000Y-98850000D01*
X99470000Y-78470000D02*
X99470000Y-98850000D01*
X99470000Y-98850000D02*
X102130000Y-98850000D01*
X108170000Y-43070000D02*
X109500000Y-43070000D01*
X108170000Y-44400000D02*
X108170000Y-43070000D01*
X110770000Y-43070000D02*
X113370000Y-43070000D01*
X110770000Y-45670000D02*
X110770000Y-43070000D01*
X108170000Y-45670000D02*
X110770000Y-45670000D01*
X113370000Y-43070000D02*
X113370000Y-53350000D01*
X108170000Y-45670000D02*
X108170000Y-53350000D01*
X108170000Y-53350000D02*
X113370000Y-53350000D01*
X132570000Y-108830000D02*
X132570000Y-107500000D01*
X133900000Y-108830000D02*
X132570000Y-108830000D01*
X135170000Y-108830000D02*
X135170000Y-106170000D01*
X135170000Y-106170000D02*
X142850000Y-106170000D01*
X135170000Y-108830000D02*
X142850000Y-108830000D01*
X142850000Y-108830000D02*
X142850000Y-106170000D01*
X125230000Y-43070000D02*
X125230000Y-44400000D01*
X123900000Y-43070000D02*
X125230000Y-43070000D01*
X122630000Y-43070000D02*
X122630000Y-45730000D01*
X122630000Y-45730000D02*
X114950000Y-45730000D01*
X122630000Y-43070000D02*
X114950000Y-43070000D01*
X114950000Y-43070000D02*
X114950000Y-45730000D01*
D14*
X111750000Y-67000000D02*
G75*
G02X111750000Y-67100000I0J-50000D01*
G01*
X111750000Y-67100000D02*
G75*
G02X111750000Y-67000000I0J50000D01*
G01*
X111750000Y-67100000D02*
X111750000Y-67100000D01*
X111750000Y-67000000D02*
X111750000Y-67000000D01*
X106850000Y-87550000D02*
G75*
G03X106850000Y-87450000I0J50000D01*
G01*
X106850000Y-87450000D02*
G75*
G03X106850000Y-87550000I0J-50000D01*
G01*
X106850000Y-87450000D02*
X106850000Y-87450000D01*
X106850000Y-87550000D02*
X106850000Y-87550000D01*
X110600000Y-88150000D02*
X110600000Y-89150000D01*
X110265000Y-88150000D02*
X110600000Y-88150000D01*
X106100000Y-88150000D02*
X106435000Y-88150000D01*
X106100000Y-89150000D02*
X106100000Y-88150000D01*
X110600000Y-91150000D02*
X110600000Y-90150000D01*
X110350000Y-91150000D02*
X110600000Y-91150000D01*
X106100000Y-90150000D02*
X106100000Y-90150000D01*
X106100000Y-91150000D02*
X106100000Y-90150000D01*
X106435000Y-91150000D02*
X106100000Y-91150000D01*
D13*
X108290000Y-62853733D02*
X108290000Y-63196267D01*
X109310000Y-62853733D02*
X109310000Y-63196267D01*
X114810000Y-68946267D02*
X114810000Y-68603733D01*
X113790000Y-68946267D02*
X113790000Y-68603733D01*
X110003733Y-71610000D02*
X110346267Y-71610000D01*
X110003733Y-70590000D02*
X110346267Y-70590000D01*
X109146267Y-85640000D02*
X108803733Y-85640000D01*
X109146267Y-86660000D02*
X108803733Y-86660000D01*
X106690000Y-78228733D02*
X106690000Y-78571267D01*
X107710000Y-78228733D02*
X107710000Y-78571267D01*
X108190000Y-78203733D02*
X108190000Y-78546267D01*
X109210000Y-78203733D02*
X109210000Y-78546267D01*
X108396267Y-92140000D02*
X108053733Y-92140000D01*
X108396267Y-93160000D02*
X108053733Y-93160000D01*
X105828733Y-81410000D02*
X106171267Y-81410000D01*
X105828733Y-80390000D02*
X106171267Y-80390000D01*
X112303733Y-82710000D02*
X112646267Y-82710000D01*
X112303733Y-81690000D02*
X112646267Y-81690000D01*
D15*
X108227000Y-83118000D02*
G75*
G03X108227000Y-83118000I-25000J0D01*
G01*
D10*
X108058333Y-94437142D02*
X108010714Y-94484761D01*
X107867857Y-94532380D01*
X107772619Y-94532380D01*
X107629761Y-94484761D01*
X107534523Y-94389523D01*
X107486904Y-94294285D01*
X107439285Y-94103809D01*
X107439285Y-93960952D01*
X107486904Y-93770476D01*
X107534523Y-93675238D01*
X107629761Y-93580000D01*
X107772619Y-93532380D01*
X107867857Y-93532380D01*
X108010714Y-93580000D01*
X108058333Y-93627619D01*
X108391666Y-93532380D02*
X109010714Y-93532380D01*
X108677380Y-93913333D01*
X108820238Y-93913333D01*
X108915476Y-93960952D01*
X108963095Y-94008571D01*
X109010714Y-94103809D01*
X109010714Y-94341904D01*
X108963095Y-94437142D01*
X108915476Y-94484761D01*
X108820238Y-94532380D01*
X108534523Y-94532380D01*
X108439285Y-94484761D01*
X108391666Y-94437142D01*
M02*
