G04 #@! TF.GenerationSoftware,KiCad,Pcbnew,5.1.5+dfsg1-2build2*
G04 #@! TF.CreationDate,2021-10-17T19:15:36+01:00*
G04 #@! TF.ProjectId,flight-controller,666c6967-6874-42d6-936f-6e74726f6c6c,rev?*
G04 #@! TF.SameCoordinates,Original*
G04 #@! TF.FileFunction,Soldermask,Bot*
G04 #@! TF.FilePolarity,Negative*
%FSLAX46Y46*%
G04 Gerber Fmt 4.6, Leading zero omitted, Abs format (unit mm)*
G04 Created by KiCad (PCBNEW 5.1.5+dfsg1-2build2) date 2021-10-17 19:15:36*
%MOMM*%
%LPD*%
G04 APERTURE LIST*
%ADD10C,0.100000*%
G04 APERTURE END LIST*
D10*
G36*
X141633512Y-106603927D02*
G01*
X141782812Y-106633624D01*
X141946784Y-106701544D01*
X142094354Y-106800147D01*
X142219853Y-106925646D01*
X142318456Y-107073216D01*
X142386376Y-107237188D01*
X142421000Y-107411259D01*
X142421000Y-107588741D01*
X142386376Y-107762812D01*
X142318456Y-107926784D01*
X142219853Y-108074354D01*
X142094354Y-108199853D01*
X141946784Y-108298456D01*
X141782812Y-108366376D01*
X141633512Y-108396073D01*
X141608742Y-108401000D01*
X141431258Y-108401000D01*
X141406488Y-108396073D01*
X141257188Y-108366376D01*
X141093216Y-108298456D01*
X140945646Y-108199853D01*
X140820147Y-108074354D01*
X140721544Y-107926784D01*
X140653624Y-107762812D01*
X140619000Y-107588741D01*
X140619000Y-107411259D01*
X140653624Y-107237188D01*
X140721544Y-107073216D01*
X140820147Y-106925646D01*
X140945646Y-106800147D01*
X141093216Y-106701544D01*
X141257188Y-106633624D01*
X141406488Y-106603927D01*
X141431258Y-106599000D01*
X141608742Y-106599000D01*
X141633512Y-106603927D01*
G37*
G36*
X139093512Y-106603927D02*
G01*
X139242812Y-106633624D01*
X139406784Y-106701544D01*
X139554354Y-106800147D01*
X139679853Y-106925646D01*
X139778456Y-107073216D01*
X139846376Y-107237188D01*
X139881000Y-107411259D01*
X139881000Y-107588741D01*
X139846376Y-107762812D01*
X139778456Y-107926784D01*
X139679853Y-108074354D01*
X139554354Y-108199853D01*
X139406784Y-108298456D01*
X139242812Y-108366376D01*
X139093512Y-108396073D01*
X139068742Y-108401000D01*
X138891258Y-108401000D01*
X138866488Y-108396073D01*
X138717188Y-108366376D01*
X138553216Y-108298456D01*
X138405646Y-108199853D01*
X138280147Y-108074354D01*
X138181544Y-107926784D01*
X138113624Y-107762812D01*
X138079000Y-107588741D01*
X138079000Y-107411259D01*
X138113624Y-107237188D01*
X138181544Y-107073216D01*
X138280147Y-106925646D01*
X138405646Y-106800147D01*
X138553216Y-106701544D01*
X138717188Y-106633624D01*
X138866488Y-106603927D01*
X138891258Y-106599000D01*
X139068742Y-106599000D01*
X139093512Y-106603927D01*
G37*
G36*
X134801000Y-108401000D02*
G01*
X132999000Y-108401000D01*
X132999000Y-106599000D01*
X134801000Y-106599000D01*
X134801000Y-108401000D01*
G37*
G36*
X136553512Y-106603927D02*
G01*
X136702812Y-106633624D01*
X136866784Y-106701544D01*
X137014354Y-106800147D01*
X137139853Y-106925646D01*
X137238456Y-107073216D01*
X137306376Y-107237188D01*
X137341000Y-107411259D01*
X137341000Y-107588741D01*
X137306376Y-107762812D01*
X137238456Y-107926784D01*
X137139853Y-108074354D01*
X137014354Y-108199853D01*
X136866784Y-108298456D01*
X136702812Y-108366376D01*
X136553512Y-108396073D01*
X136528742Y-108401000D01*
X136351258Y-108401000D01*
X136326488Y-108396073D01*
X136177188Y-108366376D01*
X136013216Y-108298456D01*
X135865646Y-108199853D01*
X135740147Y-108074354D01*
X135641544Y-107926784D01*
X135573624Y-107762812D01*
X135539000Y-107588741D01*
X135539000Y-107411259D01*
X135573624Y-107237188D01*
X135641544Y-107073216D01*
X135740147Y-106925646D01*
X135865646Y-106800147D01*
X136013216Y-106701544D01*
X136177188Y-106633624D01*
X136326488Y-106603927D01*
X136351258Y-106599000D01*
X136528742Y-106599000D01*
X136553512Y-106603927D01*
G37*
G36*
X109693512Y-106243927D02*
G01*
X109842812Y-106273624D01*
X110006784Y-106341544D01*
X110154354Y-106440147D01*
X110279853Y-106565646D01*
X110378456Y-106713216D01*
X110446376Y-106877188D01*
X110481000Y-107051259D01*
X110481000Y-107228741D01*
X110446376Y-107402812D01*
X110378456Y-107566784D01*
X110279853Y-107714354D01*
X110154354Y-107839853D01*
X110006784Y-107938456D01*
X109842812Y-108006376D01*
X109693512Y-108036073D01*
X109668742Y-108041000D01*
X109491258Y-108041000D01*
X109466488Y-108036073D01*
X109317188Y-108006376D01*
X109153216Y-107938456D01*
X109005646Y-107839853D01*
X108880147Y-107714354D01*
X108781544Y-107566784D01*
X108713624Y-107402812D01*
X108679000Y-107228741D01*
X108679000Y-107051259D01*
X108713624Y-106877188D01*
X108781544Y-106713216D01*
X108880147Y-106565646D01*
X109005646Y-106440147D01*
X109153216Y-106341544D01*
X109317188Y-106273624D01*
X109466488Y-106243927D01*
X109491258Y-106239000D01*
X109668742Y-106239000D01*
X109693512Y-106243927D01*
G37*
G36*
X117313512Y-106243927D02*
G01*
X117462812Y-106273624D01*
X117626784Y-106341544D01*
X117774354Y-106440147D01*
X117899853Y-106565646D01*
X117998456Y-106713216D01*
X118066376Y-106877188D01*
X118101000Y-107051259D01*
X118101000Y-107228741D01*
X118066376Y-107402812D01*
X117998456Y-107566784D01*
X117899853Y-107714354D01*
X117774354Y-107839853D01*
X117626784Y-107938456D01*
X117462812Y-108006376D01*
X117313512Y-108036073D01*
X117288742Y-108041000D01*
X117111258Y-108041000D01*
X117086488Y-108036073D01*
X116937188Y-108006376D01*
X116773216Y-107938456D01*
X116625646Y-107839853D01*
X116500147Y-107714354D01*
X116401544Y-107566784D01*
X116333624Y-107402812D01*
X116299000Y-107228741D01*
X116299000Y-107051259D01*
X116333624Y-106877188D01*
X116401544Y-106713216D01*
X116500147Y-106565646D01*
X116625646Y-106440147D01*
X116773216Y-106341544D01*
X116937188Y-106273624D01*
X117086488Y-106243927D01*
X117111258Y-106239000D01*
X117288742Y-106239000D01*
X117313512Y-106243927D01*
G37*
G36*
X99533512Y-106243927D02*
G01*
X99682812Y-106273624D01*
X99846784Y-106341544D01*
X99994354Y-106440147D01*
X100119853Y-106565646D01*
X100218456Y-106713216D01*
X100286376Y-106877188D01*
X100321000Y-107051259D01*
X100321000Y-107228741D01*
X100286376Y-107402812D01*
X100218456Y-107566784D01*
X100119853Y-107714354D01*
X99994354Y-107839853D01*
X99846784Y-107938456D01*
X99682812Y-108006376D01*
X99533512Y-108036073D01*
X99508742Y-108041000D01*
X99331258Y-108041000D01*
X99306488Y-108036073D01*
X99157188Y-108006376D01*
X98993216Y-107938456D01*
X98845646Y-107839853D01*
X98720147Y-107714354D01*
X98621544Y-107566784D01*
X98553624Y-107402812D01*
X98519000Y-107228741D01*
X98519000Y-107051259D01*
X98553624Y-106877188D01*
X98621544Y-106713216D01*
X98720147Y-106565646D01*
X98845646Y-106440147D01*
X98993216Y-106341544D01*
X99157188Y-106273624D01*
X99306488Y-106243927D01*
X99331258Y-106239000D01*
X99508742Y-106239000D01*
X99533512Y-106243927D01*
G37*
G36*
X102073512Y-106243927D02*
G01*
X102222812Y-106273624D01*
X102386784Y-106341544D01*
X102534354Y-106440147D01*
X102659853Y-106565646D01*
X102758456Y-106713216D01*
X102826376Y-106877188D01*
X102861000Y-107051259D01*
X102861000Y-107228741D01*
X102826376Y-107402812D01*
X102758456Y-107566784D01*
X102659853Y-107714354D01*
X102534354Y-107839853D01*
X102386784Y-107938456D01*
X102222812Y-108006376D01*
X102073512Y-108036073D01*
X102048742Y-108041000D01*
X101871258Y-108041000D01*
X101846488Y-108036073D01*
X101697188Y-108006376D01*
X101533216Y-107938456D01*
X101385646Y-107839853D01*
X101260147Y-107714354D01*
X101161544Y-107566784D01*
X101093624Y-107402812D01*
X101059000Y-107228741D01*
X101059000Y-107051259D01*
X101093624Y-106877188D01*
X101161544Y-106713216D01*
X101260147Y-106565646D01*
X101385646Y-106440147D01*
X101533216Y-106341544D01*
X101697188Y-106273624D01*
X101846488Y-106243927D01*
X101871258Y-106239000D01*
X102048742Y-106239000D01*
X102073512Y-106243927D01*
G37*
G36*
X107153512Y-106243927D02*
G01*
X107302812Y-106273624D01*
X107466784Y-106341544D01*
X107614354Y-106440147D01*
X107739853Y-106565646D01*
X107838456Y-106713216D01*
X107906376Y-106877188D01*
X107941000Y-107051259D01*
X107941000Y-107228741D01*
X107906376Y-107402812D01*
X107838456Y-107566784D01*
X107739853Y-107714354D01*
X107614354Y-107839853D01*
X107466784Y-107938456D01*
X107302812Y-108006376D01*
X107153512Y-108036073D01*
X107128742Y-108041000D01*
X106951258Y-108041000D01*
X106926488Y-108036073D01*
X106777188Y-108006376D01*
X106613216Y-107938456D01*
X106465646Y-107839853D01*
X106340147Y-107714354D01*
X106241544Y-107566784D01*
X106173624Y-107402812D01*
X106139000Y-107228741D01*
X106139000Y-107051259D01*
X106173624Y-106877188D01*
X106241544Y-106713216D01*
X106340147Y-106565646D01*
X106465646Y-106440147D01*
X106613216Y-106341544D01*
X106777188Y-106273624D01*
X106926488Y-106243927D01*
X106951258Y-106239000D01*
X107128742Y-106239000D01*
X107153512Y-106243927D01*
G37*
G36*
X104613512Y-106243927D02*
G01*
X104762812Y-106273624D01*
X104926784Y-106341544D01*
X105074354Y-106440147D01*
X105199853Y-106565646D01*
X105298456Y-106713216D01*
X105366376Y-106877188D01*
X105401000Y-107051259D01*
X105401000Y-107228741D01*
X105366376Y-107402812D01*
X105298456Y-107566784D01*
X105199853Y-107714354D01*
X105074354Y-107839853D01*
X104926784Y-107938456D01*
X104762812Y-108006376D01*
X104613512Y-108036073D01*
X104588742Y-108041000D01*
X104411258Y-108041000D01*
X104386488Y-108036073D01*
X104237188Y-108006376D01*
X104073216Y-107938456D01*
X103925646Y-107839853D01*
X103800147Y-107714354D01*
X103701544Y-107566784D01*
X103633624Y-107402812D01*
X103599000Y-107228741D01*
X103599000Y-107051259D01*
X103633624Y-106877188D01*
X103701544Y-106713216D01*
X103800147Y-106565646D01*
X103925646Y-106440147D01*
X104073216Y-106341544D01*
X104237188Y-106273624D01*
X104386488Y-106243927D01*
X104411258Y-106239000D01*
X104588742Y-106239000D01*
X104613512Y-106243927D01*
G37*
G36*
X114773512Y-106243927D02*
G01*
X114922812Y-106273624D01*
X115086784Y-106341544D01*
X115234354Y-106440147D01*
X115359853Y-106565646D01*
X115458456Y-106713216D01*
X115526376Y-106877188D01*
X115561000Y-107051259D01*
X115561000Y-107228741D01*
X115526376Y-107402812D01*
X115458456Y-107566784D01*
X115359853Y-107714354D01*
X115234354Y-107839853D01*
X115086784Y-107938456D01*
X114922812Y-108006376D01*
X114773512Y-108036073D01*
X114748742Y-108041000D01*
X114571258Y-108041000D01*
X114546488Y-108036073D01*
X114397188Y-108006376D01*
X114233216Y-107938456D01*
X114085646Y-107839853D01*
X113960147Y-107714354D01*
X113861544Y-107566784D01*
X113793624Y-107402812D01*
X113759000Y-107228741D01*
X113759000Y-107051259D01*
X113793624Y-106877188D01*
X113861544Y-106713216D01*
X113960147Y-106565646D01*
X114085646Y-106440147D01*
X114233216Y-106341544D01*
X114397188Y-106273624D01*
X114546488Y-106243927D01*
X114571258Y-106239000D01*
X114748742Y-106239000D01*
X114773512Y-106243927D01*
G37*
G36*
X112233512Y-106243927D02*
G01*
X112382812Y-106273624D01*
X112546784Y-106341544D01*
X112694354Y-106440147D01*
X112819853Y-106565646D01*
X112918456Y-106713216D01*
X112986376Y-106877188D01*
X113021000Y-107051259D01*
X113021000Y-107228741D01*
X112986376Y-107402812D01*
X112918456Y-107566784D01*
X112819853Y-107714354D01*
X112694354Y-107839853D01*
X112546784Y-107938456D01*
X112382812Y-108006376D01*
X112233512Y-108036073D01*
X112208742Y-108041000D01*
X112031258Y-108041000D01*
X112006488Y-108036073D01*
X111857188Y-108006376D01*
X111693216Y-107938456D01*
X111545646Y-107839853D01*
X111420147Y-107714354D01*
X111321544Y-107566784D01*
X111253624Y-107402812D01*
X111219000Y-107228741D01*
X111219000Y-107051259D01*
X111253624Y-106877188D01*
X111321544Y-106713216D01*
X111420147Y-106565646D01*
X111545646Y-106440147D01*
X111693216Y-106341544D01*
X111857188Y-106273624D01*
X112006488Y-106243927D01*
X112031258Y-106239000D01*
X112208742Y-106239000D01*
X112233512Y-106243927D01*
G37*
G36*
X102073512Y-103703927D02*
G01*
X102222812Y-103733624D01*
X102386784Y-103801544D01*
X102534354Y-103900147D01*
X102659853Y-104025646D01*
X102758456Y-104173216D01*
X102826376Y-104337188D01*
X102853567Y-104473888D01*
X102861000Y-104511258D01*
X102861000Y-104688742D01*
X102856073Y-104713512D01*
X102826376Y-104862812D01*
X102758456Y-105026784D01*
X102659853Y-105174354D01*
X102534354Y-105299853D01*
X102386784Y-105398456D01*
X102222812Y-105466376D01*
X102073512Y-105496073D01*
X102048742Y-105501000D01*
X101871258Y-105501000D01*
X101846488Y-105496073D01*
X101697188Y-105466376D01*
X101533216Y-105398456D01*
X101385646Y-105299853D01*
X101260147Y-105174354D01*
X101161544Y-105026784D01*
X101093624Y-104862812D01*
X101063927Y-104713512D01*
X101059000Y-104688742D01*
X101059000Y-104511258D01*
X101066433Y-104473888D01*
X101093624Y-104337188D01*
X101161544Y-104173216D01*
X101260147Y-104025646D01*
X101385646Y-103900147D01*
X101533216Y-103801544D01*
X101697188Y-103733624D01*
X101846488Y-103703927D01*
X101871258Y-103699000D01*
X102048742Y-103699000D01*
X102073512Y-103703927D01*
G37*
G36*
X104613512Y-103703927D02*
G01*
X104762812Y-103733624D01*
X104926784Y-103801544D01*
X105074354Y-103900147D01*
X105199853Y-104025646D01*
X105298456Y-104173216D01*
X105366376Y-104337188D01*
X105393567Y-104473888D01*
X105401000Y-104511258D01*
X105401000Y-104688742D01*
X105396073Y-104713512D01*
X105366376Y-104862812D01*
X105298456Y-105026784D01*
X105199853Y-105174354D01*
X105074354Y-105299853D01*
X104926784Y-105398456D01*
X104762812Y-105466376D01*
X104613512Y-105496073D01*
X104588742Y-105501000D01*
X104411258Y-105501000D01*
X104386488Y-105496073D01*
X104237188Y-105466376D01*
X104073216Y-105398456D01*
X103925646Y-105299853D01*
X103800147Y-105174354D01*
X103701544Y-105026784D01*
X103633624Y-104862812D01*
X103603927Y-104713512D01*
X103599000Y-104688742D01*
X103599000Y-104511258D01*
X103606433Y-104473888D01*
X103633624Y-104337188D01*
X103701544Y-104173216D01*
X103800147Y-104025646D01*
X103925646Y-103900147D01*
X104073216Y-103801544D01*
X104237188Y-103733624D01*
X104386488Y-103703927D01*
X104411258Y-103699000D01*
X104588742Y-103699000D01*
X104613512Y-103703927D01*
G37*
G36*
X107153512Y-103703927D02*
G01*
X107302812Y-103733624D01*
X107466784Y-103801544D01*
X107614354Y-103900147D01*
X107739853Y-104025646D01*
X107838456Y-104173216D01*
X107906376Y-104337188D01*
X107933567Y-104473888D01*
X107941000Y-104511258D01*
X107941000Y-104688742D01*
X107936073Y-104713512D01*
X107906376Y-104862812D01*
X107838456Y-105026784D01*
X107739853Y-105174354D01*
X107614354Y-105299853D01*
X107466784Y-105398456D01*
X107302812Y-105466376D01*
X107153512Y-105496073D01*
X107128742Y-105501000D01*
X106951258Y-105501000D01*
X106926488Y-105496073D01*
X106777188Y-105466376D01*
X106613216Y-105398456D01*
X106465646Y-105299853D01*
X106340147Y-105174354D01*
X106241544Y-105026784D01*
X106173624Y-104862812D01*
X106143927Y-104713512D01*
X106139000Y-104688742D01*
X106139000Y-104511258D01*
X106146433Y-104473888D01*
X106173624Y-104337188D01*
X106241544Y-104173216D01*
X106340147Y-104025646D01*
X106465646Y-103900147D01*
X106613216Y-103801544D01*
X106777188Y-103733624D01*
X106926488Y-103703927D01*
X106951258Y-103699000D01*
X107128742Y-103699000D01*
X107153512Y-103703927D01*
G37*
G36*
X109693512Y-103703927D02*
G01*
X109842812Y-103733624D01*
X110006784Y-103801544D01*
X110154354Y-103900147D01*
X110279853Y-104025646D01*
X110378456Y-104173216D01*
X110446376Y-104337188D01*
X110473567Y-104473888D01*
X110481000Y-104511258D01*
X110481000Y-104688742D01*
X110476073Y-104713512D01*
X110446376Y-104862812D01*
X110378456Y-105026784D01*
X110279853Y-105174354D01*
X110154354Y-105299853D01*
X110006784Y-105398456D01*
X109842812Y-105466376D01*
X109693512Y-105496073D01*
X109668742Y-105501000D01*
X109491258Y-105501000D01*
X109466488Y-105496073D01*
X109317188Y-105466376D01*
X109153216Y-105398456D01*
X109005646Y-105299853D01*
X108880147Y-105174354D01*
X108781544Y-105026784D01*
X108713624Y-104862812D01*
X108683927Y-104713512D01*
X108679000Y-104688742D01*
X108679000Y-104511258D01*
X108686433Y-104473888D01*
X108713624Y-104337188D01*
X108781544Y-104173216D01*
X108880147Y-104025646D01*
X109005646Y-103900147D01*
X109153216Y-103801544D01*
X109317188Y-103733624D01*
X109466488Y-103703927D01*
X109491258Y-103699000D01*
X109668742Y-103699000D01*
X109693512Y-103703927D01*
G37*
G36*
X118101000Y-105501000D02*
G01*
X116299000Y-105501000D01*
X116299000Y-103699000D01*
X118101000Y-103699000D01*
X118101000Y-105501000D01*
G37*
G36*
X112233512Y-103703927D02*
G01*
X112382812Y-103733624D01*
X112546784Y-103801544D01*
X112694354Y-103900147D01*
X112819853Y-104025646D01*
X112918456Y-104173216D01*
X112986376Y-104337188D01*
X113013567Y-104473888D01*
X113021000Y-104511258D01*
X113021000Y-104688742D01*
X113016073Y-104713512D01*
X112986376Y-104862812D01*
X112918456Y-105026784D01*
X112819853Y-105174354D01*
X112694354Y-105299853D01*
X112546784Y-105398456D01*
X112382812Y-105466376D01*
X112233512Y-105496073D01*
X112208742Y-105501000D01*
X112031258Y-105501000D01*
X112006488Y-105496073D01*
X111857188Y-105466376D01*
X111693216Y-105398456D01*
X111545646Y-105299853D01*
X111420147Y-105174354D01*
X111321544Y-105026784D01*
X111253624Y-104862812D01*
X111223927Y-104713512D01*
X111219000Y-104688742D01*
X111219000Y-104511258D01*
X111226433Y-104473888D01*
X111253624Y-104337188D01*
X111321544Y-104173216D01*
X111420147Y-104025646D01*
X111545646Y-103900147D01*
X111693216Y-103801544D01*
X111857188Y-103733624D01*
X112006488Y-103703927D01*
X112031258Y-103699000D01*
X112208742Y-103699000D01*
X112233512Y-103703927D01*
G37*
G36*
X114773512Y-103703927D02*
G01*
X114922812Y-103733624D01*
X115086784Y-103801544D01*
X115234354Y-103900147D01*
X115359853Y-104025646D01*
X115458456Y-104173216D01*
X115526376Y-104337188D01*
X115553567Y-104473888D01*
X115561000Y-104511258D01*
X115561000Y-104688742D01*
X115556073Y-104713512D01*
X115526376Y-104862812D01*
X115458456Y-105026784D01*
X115359853Y-105174354D01*
X115234354Y-105299853D01*
X115086784Y-105398456D01*
X114922812Y-105466376D01*
X114773512Y-105496073D01*
X114748742Y-105501000D01*
X114571258Y-105501000D01*
X114546488Y-105496073D01*
X114397188Y-105466376D01*
X114233216Y-105398456D01*
X114085646Y-105299853D01*
X113960147Y-105174354D01*
X113861544Y-105026784D01*
X113793624Y-104862812D01*
X113763927Y-104713512D01*
X113759000Y-104688742D01*
X113759000Y-104511258D01*
X113766433Y-104473888D01*
X113793624Y-104337188D01*
X113861544Y-104173216D01*
X113960147Y-104025646D01*
X114085646Y-103900147D01*
X114233216Y-103801544D01*
X114397188Y-103733624D01*
X114546488Y-103703927D01*
X114571258Y-103699000D01*
X114748742Y-103699000D01*
X114773512Y-103703927D01*
G37*
G36*
X99533512Y-103703927D02*
G01*
X99682812Y-103733624D01*
X99846784Y-103801544D01*
X99994354Y-103900147D01*
X100119853Y-104025646D01*
X100218456Y-104173216D01*
X100286376Y-104337188D01*
X100313567Y-104473888D01*
X100321000Y-104511258D01*
X100321000Y-104688742D01*
X100316073Y-104713512D01*
X100286376Y-104862812D01*
X100218456Y-105026784D01*
X100119853Y-105174354D01*
X99994354Y-105299853D01*
X99846784Y-105398456D01*
X99682812Y-105466376D01*
X99533512Y-105496073D01*
X99508742Y-105501000D01*
X99331258Y-105501000D01*
X99306488Y-105496073D01*
X99157188Y-105466376D01*
X98993216Y-105398456D01*
X98845646Y-105299853D01*
X98720147Y-105174354D01*
X98621544Y-105026784D01*
X98553624Y-104862812D01*
X98523927Y-104713512D01*
X98519000Y-104688742D01*
X98519000Y-104511258D01*
X98526433Y-104473888D01*
X98553624Y-104337188D01*
X98621544Y-104173216D01*
X98720147Y-104025646D01*
X98845646Y-103900147D01*
X98993216Y-103801544D01*
X99157188Y-103733624D01*
X99306488Y-103703927D01*
X99331258Y-103699000D01*
X99508742Y-103699000D01*
X99533512Y-103703927D01*
G37*
G36*
X144981766Y-103431899D02*
G01*
X145113888Y-103486626D01*
X145113890Y-103486627D01*
X145232798Y-103566079D01*
X145333921Y-103667202D01*
X145413373Y-103786110D01*
X145413374Y-103786112D01*
X145468101Y-103918234D01*
X145496000Y-104058494D01*
X145496000Y-104201506D01*
X145468101Y-104341766D01*
X145413374Y-104473888D01*
X145413373Y-104473890D01*
X145333921Y-104592798D01*
X145232798Y-104693921D01*
X145113890Y-104773373D01*
X145113889Y-104773374D01*
X145113888Y-104773374D01*
X144981766Y-104828101D01*
X144841506Y-104856000D01*
X144698494Y-104856000D01*
X144558234Y-104828101D01*
X144426112Y-104773374D01*
X144426111Y-104773374D01*
X144426110Y-104773373D01*
X144307202Y-104693921D01*
X144206079Y-104592798D01*
X144126627Y-104473890D01*
X144126626Y-104473888D01*
X144071899Y-104341766D01*
X144044000Y-104201506D01*
X144044000Y-104058494D01*
X144071899Y-103918234D01*
X144126626Y-103786112D01*
X144126627Y-103786110D01*
X144206079Y-103667202D01*
X144307202Y-103566079D01*
X144426110Y-103486627D01*
X144426112Y-103486626D01*
X144558234Y-103431899D01*
X144698494Y-103404000D01*
X144841506Y-103404000D01*
X144981766Y-103431899D01*
G37*
G36*
X95981766Y-103431899D02*
G01*
X96113888Y-103486626D01*
X96113890Y-103486627D01*
X96232798Y-103566079D01*
X96333921Y-103667202D01*
X96413373Y-103786110D01*
X96413374Y-103786112D01*
X96468101Y-103918234D01*
X96496000Y-104058494D01*
X96496000Y-104201506D01*
X96468101Y-104341766D01*
X96413374Y-104473888D01*
X96413373Y-104473890D01*
X96333921Y-104592798D01*
X96232798Y-104693921D01*
X96113890Y-104773373D01*
X96113889Y-104773374D01*
X96113888Y-104773374D01*
X95981766Y-104828101D01*
X95841506Y-104856000D01*
X95698494Y-104856000D01*
X95558234Y-104828101D01*
X95426112Y-104773374D01*
X95426111Y-104773374D01*
X95426110Y-104773373D01*
X95307202Y-104693921D01*
X95206079Y-104592798D01*
X95126627Y-104473890D01*
X95126626Y-104473888D01*
X95071899Y-104341766D01*
X95044000Y-104201506D01*
X95044000Y-104058494D01*
X95071899Y-103918234D01*
X95126626Y-103786112D01*
X95126627Y-103786110D01*
X95206079Y-103667202D01*
X95307202Y-103566079D01*
X95426110Y-103486627D01*
X95426112Y-103486626D01*
X95558234Y-103431899D01*
X95698494Y-103404000D01*
X95841506Y-103404000D01*
X95981766Y-103431899D01*
G37*
G36*
X137477142Y-101228242D02*
G01*
X137625101Y-101289529D01*
X137758255Y-101378499D01*
X137871501Y-101491745D01*
X137960471Y-101624899D01*
X138021758Y-101772858D01*
X138053000Y-101929925D01*
X138053000Y-102090075D01*
X138021758Y-102247142D01*
X137960471Y-102395101D01*
X137871501Y-102528255D01*
X137758255Y-102641501D01*
X137625101Y-102730471D01*
X137477142Y-102791758D01*
X137320075Y-102823000D01*
X137159925Y-102823000D01*
X137002858Y-102791758D01*
X136854899Y-102730471D01*
X136721745Y-102641501D01*
X136608499Y-102528255D01*
X136519529Y-102395101D01*
X136458242Y-102247142D01*
X136427000Y-102090075D01*
X136427000Y-101929925D01*
X136458242Y-101772858D01*
X136519529Y-101624899D01*
X136608499Y-101491745D01*
X136721745Y-101378499D01*
X136854899Y-101289529D01*
X137002858Y-101228242D01*
X137159925Y-101197000D01*
X137320075Y-101197000D01*
X137477142Y-101228242D01*
G37*
G36*
X122237142Y-101228242D02*
G01*
X122385101Y-101289529D01*
X122518255Y-101378499D01*
X122631501Y-101491745D01*
X122720471Y-101624899D01*
X122781758Y-101772858D01*
X122813000Y-101929925D01*
X122813000Y-102090075D01*
X122781758Y-102247142D01*
X122720471Y-102395101D01*
X122631501Y-102528255D01*
X122518255Y-102641501D01*
X122385101Y-102730471D01*
X122237142Y-102791758D01*
X122080075Y-102823000D01*
X121919925Y-102823000D01*
X121762858Y-102791758D01*
X121614899Y-102730471D01*
X121481745Y-102641501D01*
X121368499Y-102528255D01*
X121279529Y-102395101D01*
X121218242Y-102247142D01*
X121187000Y-102090075D01*
X121187000Y-101929925D01*
X121218242Y-101772858D01*
X121279529Y-101624899D01*
X121368499Y-101491745D01*
X121481745Y-101378499D01*
X121614899Y-101289529D01*
X121762858Y-101228242D01*
X121919925Y-101197000D01*
X122080075Y-101197000D01*
X122237142Y-101228242D01*
G37*
G36*
X137477142Y-98688242D02*
G01*
X137625101Y-98749529D01*
X137758255Y-98838499D01*
X137871501Y-98951745D01*
X137960471Y-99084899D01*
X138021758Y-99232858D01*
X138053000Y-99389925D01*
X138053000Y-99550075D01*
X138021758Y-99707142D01*
X137960471Y-99855101D01*
X137871501Y-99988255D01*
X137758255Y-100101501D01*
X137625101Y-100190471D01*
X137477142Y-100251758D01*
X137320075Y-100283000D01*
X137159925Y-100283000D01*
X137002858Y-100251758D01*
X136854899Y-100190471D01*
X136721745Y-100101501D01*
X136608499Y-99988255D01*
X136519529Y-99855101D01*
X136458242Y-99707142D01*
X136427000Y-99550075D01*
X136427000Y-99389925D01*
X136458242Y-99232858D01*
X136519529Y-99084899D01*
X136608499Y-98951745D01*
X136721745Y-98838499D01*
X136854899Y-98749529D01*
X137002858Y-98688242D01*
X137159925Y-98657000D01*
X137320075Y-98657000D01*
X137477142Y-98688242D01*
G37*
G36*
X122237142Y-98688242D02*
G01*
X122385101Y-98749529D01*
X122518255Y-98838499D01*
X122631501Y-98951745D01*
X122720471Y-99084899D01*
X122781758Y-99232858D01*
X122813000Y-99389925D01*
X122813000Y-99550075D01*
X122781758Y-99707142D01*
X122720471Y-99855101D01*
X122631501Y-99988255D01*
X122518255Y-100101501D01*
X122385101Y-100190471D01*
X122237142Y-100251758D01*
X122080075Y-100283000D01*
X121919925Y-100283000D01*
X121762858Y-100251758D01*
X121614899Y-100190471D01*
X121481745Y-100101501D01*
X121368499Y-99988255D01*
X121279529Y-99855101D01*
X121218242Y-99707142D01*
X121187000Y-99550075D01*
X121187000Y-99389925D01*
X121218242Y-99232858D01*
X121279529Y-99084899D01*
X121368499Y-98951745D01*
X121481745Y-98838499D01*
X121614899Y-98749529D01*
X121762858Y-98688242D01*
X121919925Y-98657000D01*
X122080075Y-98657000D01*
X122237142Y-98688242D01*
G37*
G36*
X143669923Y-98405736D02*
G01*
X143754061Y-98422472D01*
X143912573Y-98488130D01*
X144055230Y-98583450D01*
X144176550Y-98704770D01*
X144271870Y-98847427D01*
X144337528Y-99005939D01*
X144371000Y-99174214D01*
X144371000Y-99345786D01*
X144337528Y-99514061D01*
X144271870Y-99672573D01*
X144176550Y-99815230D01*
X144055230Y-99936550D01*
X143912573Y-100031870D01*
X143754061Y-100097528D01*
X143734097Y-100101499D01*
X143585787Y-100131000D01*
X143414213Y-100131000D01*
X143265903Y-100101499D01*
X143245939Y-100097528D01*
X143087427Y-100031870D01*
X142944770Y-99936550D01*
X142823450Y-99815230D01*
X142728130Y-99672573D01*
X142662472Y-99514061D01*
X142629000Y-99345786D01*
X142629000Y-99174214D01*
X142662472Y-99005939D01*
X142728130Y-98847427D01*
X142823450Y-98704770D01*
X142944770Y-98583450D01*
X143087427Y-98488130D01*
X143245939Y-98422472D01*
X143330077Y-98405736D01*
X143414213Y-98389000D01*
X143585787Y-98389000D01*
X143669923Y-98405736D01*
G37*
G36*
X146209923Y-98405736D02*
G01*
X146294061Y-98422472D01*
X146452573Y-98488130D01*
X146595230Y-98583450D01*
X146716550Y-98704770D01*
X146811870Y-98847427D01*
X146877528Y-99005939D01*
X146911000Y-99174214D01*
X146911000Y-99345786D01*
X146877528Y-99514061D01*
X146811870Y-99672573D01*
X146716550Y-99815230D01*
X146595230Y-99936550D01*
X146452573Y-100031870D01*
X146294061Y-100097528D01*
X146274097Y-100101499D01*
X146125787Y-100131000D01*
X145954213Y-100131000D01*
X145805903Y-100101499D01*
X145785939Y-100097528D01*
X145627427Y-100031870D01*
X145484770Y-99936550D01*
X145363450Y-99815230D01*
X145268130Y-99672573D01*
X145202472Y-99514061D01*
X145169000Y-99345786D01*
X145169000Y-99174214D01*
X145202472Y-99005939D01*
X145268130Y-98847427D01*
X145363450Y-98704770D01*
X145484770Y-98583450D01*
X145627427Y-98488130D01*
X145785939Y-98422472D01*
X145870077Y-98405736D01*
X145954213Y-98389000D01*
X146125787Y-98389000D01*
X146209923Y-98405736D01*
G37*
G36*
X100913512Y-96623927D02*
G01*
X101062812Y-96653624D01*
X101226784Y-96721544D01*
X101374354Y-96820147D01*
X101499853Y-96945646D01*
X101598456Y-97093216D01*
X101666376Y-97257188D01*
X101701000Y-97431259D01*
X101701000Y-97608741D01*
X101666376Y-97782812D01*
X101598456Y-97946784D01*
X101499853Y-98094354D01*
X101374354Y-98219853D01*
X101226784Y-98318456D01*
X101062812Y-98386376D01*
X100913512Y-98416073D01*
X100888742Y-98421000D01*
X100711258Y-98421000D01*
X100686488Y-98416073D01*
X100537188Y-98386376D01*
X100373216Y-98318456D01*
X100225646Y-98219853D01*
X100100147Y-98094354D01*
X100001544Y-97946784D01*
X99933624Y-97782812D01*
X99899000Y-97608741D01*
X99899000Y-97431259D01*
X99933624Y-97257188D01*
X100001544Y-97093216D01*
X100100147Y-96945646D01*
X100225646Y-96820147D01*
X100373216Y-96721544D01*
X100537188Y-96653624D01*
X100686488Y-96623927D01*
X100711258Y-96619000D01*
X100888742Y-96619000D01*
X100913512Y-96623927D01*
G37*
G36*
X122237142Y-96148242D02*
G01*
X122385101Y-96209529D01*
X122518255Y-96298499D01*
X122631501Y-96411745D01*
X122720471Y-96544899D01*
X122781758Y-96692858D01*
X122813000Y-96849925D01*
X122813000Y-97010075D01*
X122781758Y-97167142D01*
X122720471Y-97315101D01*
X122631501Y-97448255D01*
X122518255Y-97561501D01*
X122385101Y-97650471D01*
X122237142Y-97711758D01*
X122080075Y-97743000D01*
X121919925Y-97743000D01*
X121762858Y-97711758D01*
X121614899Y-97650471D01*
X121481745Y-97561501D01*
X121368499Y-97448255D01*
X121279529Y-97315101D01*
X121218242Y-97167142D01*
X121187000Y-97010075D01*
X121187000Y-96849925D01*
X121218242Y-96692858D01*
X121279529Y-96544899D01*
X121368499Y-96411745D01*
X121481745Y-96298499D01*
X121614899Y-96209529D01*
X121762858Y-96148242D01*
X121919925Y-96117000D01*
X122080075Y-96117000D01*
X122237142Y-96148242D01*
G37*
G36*
X137477142Y-96148242D02*
G01*
X137625101Y-96209529D01*
X137758255Y-96298499D01*
X137871501Y-96411745D01*
X137960471Y-96544899D01*
X138021758Y-96692858D01*
X138053000Y-96849925D01*
X138053000Y-97010075D01*
X138021758Y-97167142D01*
X137960471Y-97315101D01*
X137871501Y-97448255D01*
X137758255Y-97561501D01*
X137625101Y-97650471D01*
X137477142Y-97711758D01*
X137320075Y-97743000D01*
X137159925Y-97743000D01*
X137002858Y-97711758D01*
X136854899Y-97650471D01*
X136721745Y-97561501D01*
X136608499Y-97448255D01*
X136519529Y-97315101D01*
X136458242Y-97167142D01*
X136427000Y-97010075D01*
X136427000Y-96849925D01*
X136458242Y-96692858D01*
X136519529Y-96544899D01*
X136608499Y-96411745D01*
X136721745Y-96298499D01*
X136854899Y-96209529D01*
X137002858Y-96148242D01*
X137159925Y-96117000D01*
X137320075Y-96117000D01*
X137477142Y-96148242D01*
G37*
G36*
X143669923Y-95865736D02*
G01*
X143754061Y-95882472D01*
X143912573Y-95948130D01*
X144055230Y-96043450D01*
X144176550Y-96164770D01*
X144271870Y-96307427D01*
X144296288Y-96366376D01*
X144337528Y-96465940D01*
X144371000Y-96634213D01*
X144371000Y-96805787D01*
X144368143Y-96820148D01*
X144337528Y-96974061D01*
X144271870Y-97132573D01*
X144176550Y-97275230D01*
X144055230Y-97396550D01*
X143912573Y-97491870D01*
X143754061Y-97557528D01*
X143734097Y-97561499D01*
X143585787Y-97591000D01*
X143414213Y-97591000D01*
X143265903Y-97561499D01*
X143245939Y-97557528D01*
X143087427Y-97491870D01*
X142944770Y-97396550D01*
X142823450Y-97275230D01*
X142728130Y-97132573D01*
X142662472Y-96974061D01*
X142631857Y-96820148D01*
X142629000Y-96805787D01*
X142629000Y-96634213D01*
X142662472Y-96465940D01*
X142703713Y-96366376D01*
X142728130Y-96307427D01*
X142823450Y-96164770D01*
X142944770Y-96043450D01*
X143087427Y-95948130D01*
X143245939Y-95882472D01*
X143330077Y-95865736D01*
X143414213Y-95849000D01*
X143585787Y-95849000D01*
X143669923Y-95865736D01*
G37*
G36*
X146209923Y-95865736D02*
G01*
X146294061Y-95882472D01*
X146452573Y-95948130D01*
X146595230Y-96043450D01*
X146716550Y-96164770D01*
X146811870Y-96307427D01*
X146836288Y-96366376D01*
X146877528Y-96465940D01*
X146911000Y-96634213D01*
X146911000Y-96805787D01*
X146908143Y-96820148D01*
X146877528Y-96974061D01*
X146811870Y-97132573D01*
X146716550Y-97275230D01*
X146595230Y-97396550D01*
X146452573Y-97491870D01*
X146294061Y-97557528D01*
X146274097Y-97561499D01*
X146125787Y-97591000D01*
X145954213Y-97591000D01*
X145805903Y-97561499D01*
X145785939Y-97557528D01*
X145627427Y-97491870D01*
X145484770Y-97396550D01*
X145363450Y-97275230D01*
X145268130Y-97132573D01*
X145202472Y-96974061D01*
X145171857Y-96820148D01*
X145169000Y-96805787D01*
X145169000Y-96634213D01*
X145202472Y-96465940D01*
X145243713Y-96366376D01*
X145268130Y-96307427D01*
X145363450Y-96164770D01*
X145484770Y-96043450D01*
X145627427Y-95948130D01*
X145785939Y-95882472D01*
X145870077Y-95865736D01*
X145954213Y-95849000D01*
X146125787Y-95849000D01*
X146209923Y-95865736D01*
G37*
G36*
X92873512Y-94603927D02*
G01*
X93022812Y-94633624D01*
X93186784Y-94701544D01*
X93334354Y-94800147D01*
X93459853Y-94925646D01*
X93558456Y-95073216D01*
X93626376Y-95237188D01*
X93656073Y-95386488D01*
X93660110Y-95406782D01*
X93661000Y-95411259D01*
X93661000Y-95588741D01*
X93626376Y-95762812D01*
X93558456Y-95926784D01*
X93459853Y-96074354D01*
X93334354Y-96199853D01*
X93186784Y-96298456D01*
X93022812Y-96366376D01*
X92873512Y-96396073D01*
X92848742Y-96401000D01*
X92671258Y-96401000D01*
X92646488Y-96396073D01*
X92497188Y-96366376D01*
X92333216Y-96298456D01*
X92185646Y-96199853D01*
X92060147Y-96074354D01*
X91961544Y-95926784D01*
X91893624Y-95762812D01*
X91859000Y-95588741D01*
X91859000Y-95411259D01*
X91859891Y-95406782D01*
X91863927Y-95386488D01*
X91893624Y-95237188D01*
X91961544Y-95073216D01*
X92060147Y-94925646D01*
X92185646Y-94800147D01*
X92333216Y-94701544D01*
X92497188Y-94633624D01*
X92646488Y-94603927D01*
X92671258Y-94599000D01*
X92848742Y-94599000D01*
X92873512Y-94603927D01*
G37*
G36*
X96201000Y-96401000D02*
G01*
X94399000Y-96401000D01*
X94399000Y-94599000D01*
X96201000Y-94599000D01*
X96201000Y-96401000D01*
G37*
G36*
X100913512Y-94083927D02*
G01*
X101062812Y-94113624D01*
X101226784Y-94181544D01*
X101374354Y-94280147D01*
X101499853Y-94405646D01*
X101598456Y-94553216D01*
X101666376Y-94717188D01*
X101677895Y-94775101D01*
X101701000Y-94891258D01*
X101701000Y-95068742D01*
X101696073Y-95093512D01*
X101666376Y-95242812D01*
X101598456Y-95406784D01*
X101499853Y-95554354D01*
X101374354Y-95679853D01*
X101226784Y-95778456D01*
X101062812Y-95846376D01*
X100913512Y-95876073D01*
X100888742Y-95881000D01*
X100711258Y-95881000D01*
X100686488Y-95876073D01*
X100537188Y-95846376D01*
X100373216Y-95778456D01*
X100225646Y-95679853D01*
X100100147Y-95554354D01*
X100001544Y-95406784D01*
X99933624Y-95242812D01*
X99903927Y-95093512D01*
X99899000Y-95068742D01*
X99899000Y-94891258D01*
X99922105Y-94775101D01*
X99933624Y-94717188D01*
X100001544Y-94553216D01*
X100100147Y-94405646D01*
X100225646Y-94280147D01*
X100373216Y-94181544D01*
X100537188Y-94113624D01*
X100686488Y-94083927D01*
X100711258Y-94079000D01*
X100888742Y-94079000D01*
X100913512Y-94083927D01*
G37*
G36*
X137477142Y-93608242D02*
G01*
X137625101Y-93669529D01*
X137758255Y-93758499D01*
X137871501Y-93871745D01*
X137960471Y-94004899D01*
X138021758Y-94152858D01*
X138053000Y-94309925D01*
X138053000Y-94470075D01*
X138021758Y-94627142D01*
X137960471Y-94775101D01*
X137871501Y-94908255D01*
X137758255Y-95021501D01*
X137625101Y-95110471D01*
X137477142Y-95171758D01*
X137320075Y-95203000D01*
X137159925Y-95203000D01*
X137002858Y-95171758D01*
X136854899Y-95110471D01*
X136721745Y-95021501D01*
X136608499Y-94908255D01*
X136519529Y-94775101D01*
X136458242Y-94627142D01*
X136427000Y-94470075D01*
X136427000Y-94309925D01*
X136458242Y-94152858D01*
X136519529Y-94004899D01*
X136608499Y-93871745D01*
X136721745Y-93758499D01*
X136854899Y-93669529D01*
X137002858Y-93608242D01*
X137159925Y-93577000D01*
X137320075Y-93577000D01*
X137477142Y-93608242D01*
G37*
G36*
X122237142Y-93608242D02*
G01*
X122385101Y-93669529D01*
X122518255Y-93758499D01*
X122631501Y-93871745D01*
X122720471Y-94004899D01*
X122781758Y-94152858D01*
X122813000Y-94309925D01*
X122813000Y-94470075D01*
X122781758Y-94627142D01*
X122720471Y-94775101D01*
X122631501Y-94908255D01*
X122518255Y-95021501D01*
X122385101Y-95110471D01*
X122237142Y-95171758D01*
X122080075Y-95203000D01*
X121919925Y-95203000D01*
X121762858Y-95171758D01*
X121614899Y-95110471D01*
X121481745Y-95021501D01*
X121368499Y-94908255D01*
X121279529Y-94775101D01*
X121218242Y-94627142D01*
X121187000Y-94470075D01*
X121187000Y-94309925D01*
X121218242Y-94152858D01*
X121279529Y-94004899D01*
X121368499Y-93871745D01*
X121481745Y-93758499D01*
X121614899Y-93669529D01*
X121762858Y-93608242D01*
X121919925Y-93577000D01*
X122080075Y-93577000D01*
X122237142Y-93608242D01*
G37*
G36*
X143754061Y-93342472D02*
G01*
X143912573Y-93408130D01*
X144055230Y-93503450D01*
X144176550Y-93624770D01*
X144271870Y-93767427D01*
X144296288Y-93826376D01*
X144337528Y-93925940D01*
X144371000Y-94094213D01*
X144371000Y-94265787D01*
X144368143Y-94280148D01*
X144337528Y-94434061D01*
X144271870Y-94592573D01*
X144176550Y-94735230D01*
X144055230Y-94856550D01*
X143912573Y-94951870D01*
X143754061Y-95017528D01*
X143734097Y-95021499D01*
X143585787Y-95051000D01*
X143414213Y-95051000D01*
X143265903Y-95021499D01*
X143245939Y-95017528D01*
X143087427Y-94951870D01*
X142944770Y-94856550D01*
X142823450Y-94735230D01*
X142728130Y-94592573D01*
X142662472Y-94434061D01*
X142631857Y-94280148D01*
X142629000Y-94265787D01*
X142629000Y-94094213D01*
X142662472Y-93925940D01*
X142703713Y-93826376D01*
X142728130Y-93767427D01*
X142823450Y-93624770D01*
X142944770Y-93503450D01*
X143087427Y-93408130D01*
X143245939Y-93342472D01*
X143414213Y-93309000D01*
X143585787Y-93309000D01*
X143754061Y-93342472D01*
G37*
G36*
X146294061Y-93342472D02*
G01*
X146452573Y-93408130D01*
X146595230Y-93503450D01*
X146716550Y-93624770D01*
X146811870Y-93767427D01*
X146836288Y-93826376D01*
X146877528Y-93925940D01*
X146911000Y-94094213D01*
X146911000Y-94265787D01*
X146908143Y-94280148D01*
X146877528Y-94434061D01*
X146811870Y-94592573D01*
X146716550Y-94735230D01*
X146595230Y-94856550D01*
X146452573Y-94951870D01*
X146294061Y-95017528D01*
X146274097Y-95021499D01*
X146125787Y-95051000D01*
X145954213Y-95051000D01*
X145805903Y-95021499D01*
X145785939Y-95017528D01*
X145627427Y-94951870D01*
X145484770Y-94856550D01*
X145363450Y-94735230D01*
X145268130Y-94592573D01*
X145202472Y-94434061D01*
X145171857Y-94280148D01*
X145169000Y-94265787D01*
X145169000Y-94094213D01*
X145202472Y-93925940D01*
X145243713Y-93826376D01*
X145268130Y-93767427D01*
X145363450Y-93624770D01*
X145484770Y-93503450D01*
X145627427Y-93408130D01*
X145785939Y-93342472D01*
X145954213Y-93309000D01*
X146125787Y-93309000D01*
X146294061Y-93342472D01*
G37*
G36*
X95413512Y-92063927D02*
G01*
X95562812Y-92093624D01*
X95726784Y-92161544D01*
X95874354Y-92260147D01*
X95999853Y-92385646D01*
X96098456Y-92533216D01*
X96166376Y-92697188D01*
X96196073Y-92846488D01*
X96200110Y-92866782D01*
X96201000Y-92871259D01*
X96201000Y-93048741D01*
X96166376Y-93222812D01*
X96098456Y-93386784D01*
X95999853Y-93534354D01*
X95874354Y-93659853D01*
X95726784Y-93758456D01*
X95562812Y-93826376D01*
X95413512Y-93856073D01*
X95388742Y-93861000D01*
X95211258Y-93861000D01*
X95186488Y-93856073D01*
X95037188Y-93826376D01*
X94873216Y-93758456D01*
X94725646Y-93659853D01*
X94600147Y-93534354D01*
X94501544Y-93386784D01*
X94433624Y-93222812D01*
X94399000Y-93048741D01*
X94399000Y-92871259D01*
X94399891Y-92866782D01*
X94403927Y-92846488D01*
X94433624Y-92697188D01*
X94501544Y-92533216D01*
X94600147Y-92385646D01*
X94725646Y-92260147D01*
X94873216Y-92161544D01*
X95037188Y-92093624D01*
X95186488Y-92063927D01*
X95211258Y-92059000D01*
X95388742Y-92059000D01*
X95413512Y-92063927D01*
G37*
G36*
X92873512Y-92063927D02*
G01*
X93022812Y-92093624D01*
X93186784Y-92161544D01*
X93334354Y-92260147D01*
X93459853Y-92385646D01*
X93558456Y-92533216D01*
X93626376Y-92697188D01*
X93656073Y-92846488D01*
X93660110Y-92866782D01*
X93661000Y-92871259D01*
X93661000Y-93048741D01*
X93626376Y-93222812D01*
X93558456Y-93386784D01*
X93459853Y-93534354D01*
X93334354Y-93659853D01*
X93186784Y-93758456D01*
X93022812Y-93826376D01*
X92873512Y-93856073D01*
X92848742Y-93861000D01*
X92671258Y-93861000D01*
X92646488Y-93856073D01*
X92497188Y-93826376D01*
X92333216Y-93758456D01*
X92185646Y-93659853D01*
X92060147Y-93534354D01*
X91961544Y-93386784D01*
X91893624Y-93222812D01*
X91859000Y-93048741D01*
X91859000Y-92871259D01*
X91859891Y-92866782D01*
X91863927Y-92846488D01*
X91893624Y-92697188D01*
X91961544Y-92533216D01*
X92060147Y-92385646D01*
X92185646Y-92260147D01*
X92333216Y-92161544D01*
X92497188Y-92093624D01*
X92646488Y-92063927D01*
X92671258Y-92059000D01*
X92848742Y-92059000D01*
X92873512Y-92063927D01*
G37*
G36*
X100913512Y-91543927D02*
G01*
X101062812Y-91573624D01*
X101226784Y-91641544D01*
X101374354Y-91740147D01*
X101499853Y-91865646D01*
X101598456Y-92013216D01*
X101666376Y-92177188D01*
X101677895Y-92235101D01*
X101701000Y-92351258D01*
X101701000Y-92528742D01*
X101696073Y-92553512D01*
X101666376Y-92702812D01*
X101598456Y-92866784D01*
X101499853Y-93014354D01*
X101374354Y-93139853D01*
X101226784Y-93238456D01*
X101062812Y-93306376D01*
X100913512Y-93336073D01*
X100888742Y-93341000D01*
X100711258Y-93341000D01*
X100686488Y-93336073D01*
X100537188Y-93306376D01*
X100373216Y-93238456D01*
X100225646Y-93139853D01*
X100100147Y-93014354D01*
X100001544Y-92866784D01*
X99933624Y-92702812D01*
X99903927Y-92553512D01*
X99899000Y-92528742D01*
X99899000Y-92351258D01*
X99922105Y-92235101D01*
X99933624Y-92177188D01*
X100001544Y-92013216D01*
X100100147Y-91865646D01*
X100225646Y-91740147D01*
X100373216Y-91641544D01*
X100537188Y-91573624D01*
X100686488Y-91543927D01*
X100711258Y-91539000D01*
X100888742Y-91539000D01*
X100913512Y-91543927D01*
G37*
G36*
X122237142Y-91068242D02*
G01*
X122385101Y-91129529D01*
X122518255Y-91218499D01*
X122631501Y-91331745D01*
X122720471Y-91464899D01*
X122781758Y-91612858D01*
X122813000Y-91769925D01*
X122813000Y-91930075D01*
X122781758Y-92087142D01*
X122720471Y-92235101D01*
X122631501Y-92368255D01*
X122518255Y-92481501D01*
X122385101Y-92570471D01*
X122237142Y-92631758D01*
X122080075Y-92663000D01*
X121919925Y-92663000D01*
X121762858Y-92631758D01*
X121614899Y-92570471D01*
X121481745Y-92481501D01*
X121368499Y-92368255D01*
X121279529Y-92235101D01*
X121218242Y-92087142D01*
X121187000Y-91930075D01*
X121187000Y-91769925D01*
X121218242Y-91612858D01*
X121279529Y-91464899D01*
X121368499Y-91331745D01*
X121481745Y-91218499D01*
X121614899Y-91129529D01*
X121762858Y-91068242D01*
X121919925Y-91037000D01*
X122080075Y-91037000D01*
X122237142Y-91068242D01*
G37*
G36*
X137477142Y-91068242D02*
G01*
X137625101Y-91129529D01*
X137758255Y-91218499D01*
X137871501Y-91331745D01*
X137960471Y-91464899D01*
X138021758Y-91612858D01*
X138053000Y-91769925D01*
X138053000Y-91930075D01*
X138021758Y-92087142D01*
X137960471Y-92235101D01*
X137871501Y-92368255D01*
X137758255Y-92481501D01*
X137625101Y-92570471D01*
X137477142Y-92631758D01*
X137320075Y-92663000D01*
X137159925Y-92663000D01*
X137002858Y-92631758D01*
X136854899Y-92570471D01*
X136721745Y-92481501D01*
X136608499Y-92368255D01*
X136519529Y-92235101D01*
X136458242Y-92087142D01*
X136427000Y-91930075D01*
X136427000Y-91769925D01*
X136458242Y-91612858D01*
X136519529Y-91464899D01*
X136608499Y-91331745D01*
X136721745Y-91218499D01*
X136854899Y-91129529D01*
X137002858Y-91068242D01*
X137159925Y-91037000D01*
X137320075Y-91037000D01*
X137477142Y-91068242D01*
G37*
G36*
X146209923Y-90785736D02*
G01*
X146294061Y-90802472D01*
X146452573Y-90868130D01*
X146595230Y-90963450D01*
X146716550Y-91084770D01*
X146811870Y-91227427D01*
X146836288Y-91286376D01*
X146877528Y-91385940D01*
X146911000Y-91554213D01*
X146911000Y-91725787D01*
X146908143Y-91740148D01*
X146877528Y-91894061D01*
X146811870Y-92052573D01*
X146716550Y-92195230D01*
X146595230Y-92316550D01*
X146452573Y-92411870D01*
X146294061Y-92477528D01*
X146274097Y-92481499D01*
X146125787Y-92511000D01*
X145954213Y-92511000D01*
X145805903Y-92481499D01*
X145785939Y-92477528D01*
X145627427Y-92411870D01*
X145484770Y-92316550D01*
X145363450Y-92195230D01*
X145268130Y-92052573D01*
X145202472Y-91894061D01*
X145171857Y-91740148D01*
X145169000Y-91725787D01*
X145169000Y-91554213D01*
X145202472Y-91385940D01*
X145243713Y-91286376D01*
X145268130Y-91227427D01*
X145363450Y-91084770D01*
X145484770Y-90963450D01*
X145627427Y-90868130D01*
X145785939Y-90802472D01*
X145870077Y-90785736D01*
X145954213Y-90769000D01*
X146125787Y-90769000D01*
X146209923Y-90785736D01*
G37*
G36*
X143669923Y-90785736D02*
G01*
X143754061Y-90802472D01*
X143912573Y-90868130D01*
X144055230Y-90963450D01*
X144176550Y-91084770D01*
X144271870Y-91227427D01*
X144296288Y-91286376D01*
X144337528Y-91385940D01*
X144371000Y-91554213D01*
X144371000Y-91725787D01*
X144368143Y-91740148D01*
X144337528Y-91894061D01*
X144271870Y-92052573D01*
X144176550Y-92195230D01*
X144055230Y-92316550D01*
X143912573Y-92411870D01*
X143754061Y-92477528D01*
X143734097Y-92481499D01*
X143585787Y-92511000D01*
X143414213Y-92511000D01*
X143265903Y-92481499D01*
X143245939Y-92477528D01*
X143087427Y-92411870D01*
X142944770Y-92316550D01*
X142823450Y-92195230D01*
X142728130Y-92052573D01*
X142662472Y-91894061D01*
X142631857Y-91740148D01*
X142629000Y-91725787D01*
X142629000Y-91554213D01*
X142662472Y-91385940D01*
X142703713Y-91286376D01*
X142728130Y-91227427D01*
X142823450Y-91084770D01*
X142944770Y-90963450D01*
X143087427Y-90868130D01*
X143245939Y-90802472D01*
X143330077Y-90785736D01*
X143414213Y-90769000D01*
X143585787Y-90769000D01*
X143669923Y-90785736D01*
G37*
G36*
X92873512Y-89523927D02*
G01*
X93022812Y-89553624D01*
X93186784Y-89621544D01*
X93334354Y-89720147D01*
X93459853Y-89845646D01*
X93558456Y-89993216D01*
X93626376Y-90157188D01*
X93656073Y-90306488D01*
X93660110Y-90326782D01*
X93661000Y-90331259D01*
X93661000Y-90508741D01*
X93626376Y-90682812D01*
X93558456Y-90846784D01*
X93459853Y-90994354D01*
X93334354Y-91119853D01*
X93186784Y-91218456D01*
X93022812Y-91286376D01*
X92873512Y-91316073D01*
X92848742Y-91321000D01*
X92671258Y-91321000D01*
X92646488Y-91316073D01*
X92497188Y-91286376D01*
X92333216Y-91218456D01*
X92185646Y-91119853D01*
X92060147Y-90994354D01*
X91961544Y-90846784D01*
X91893624Y-90682812D01*
X91859000Y-90508741D01*
X91859000Y-90331259D01*
X91859891Y-90326782D01*
X91863927Y-90306488D01*
X91893624Y-90157188D01*
X91961544Y-89993216D01*
X92060147Y-89845646D01*
X92185646Y-89720147D01*
X92333216Y-89621544D01*
X92497188Y-89553624D01*
X92646488Y-89523927D01*
X92671258Y-89519000D01*
X92848742Y-89519000D01*
X92873512Y-89523927D01*
G37*
G36*
X95413512Y-89523927D02*
G01*
X95562812Y-89553624D01*
X95726784Y-89621544D01*
X95874354Y-89720147D01*
X95999853Y-89845646D01*
X96098456Y-89993216D01*
X96166376Y-90157188D01*
X96196073Y-90306488D01*
X96200110Y-90326782D01*
X96201000Y-90331259D01*
X96201000Y-90508741D01*
X96166376Y-90682812D01*
X96098456Y-90846784D01*
X95999853Y-90994354D01*
X95874354Y-91119853D01*
X95726784Y-91218456D01*
X95562812Y-91286376D01*
X95413512Y-91316073D01*
X95388742Y-91321000D01*
X95211258Y-91321000D01*
X95186488Y-91316073D01*
X95037188Y-91286376D01*
X94873216Y-91218456D01*
X94725646Y-91119853D01*
X94600147Y-90994354D01*
X94501544Y-90846784D01*
X94433624Y-90682812D01*
X94399000Y-90508741D01*
X94399000Y-90331259D01*
X94399891Y-90326782D01*
X94403927Y-90306488D01*
X94433624Y-90157188D01*
X94501544Y-89993216D01*
X94600147Y-89845646D01*
X94725646Y-89720147D01*
X94873216Y-89621544D01*
X95037188Y-89553624D01*
X95186488Y-89523927D01*
X95211258Y-89519000D01*
X95388742Y-89519000D01*
X95413512Y-89523927D01*
G37*
G36*
X100913512Y-89003927D02*
G01*
X101062812Y-89033624D01*
X101226784Y-89101544D01*
X101374354Y-89200147D01*
X101499853Y-89325646D01*
X101598456Y-89473216D01*
X101666376Y-89637188D01*
X101677895Y-89695101D01*
X101701000Y-89811258D01*
X101701000Y-89988742D01*
X101696073Y-90013512D01*
X101666376Y-90162812D01*
X101598456Y-90326784D01*
X101499853Y-90474354D01*
X101374354Y-90599853D01*
X101226784Y-90698456D01*
X101062812Y-90766376D01*
X100913512Y-90796073D01*
X100888742Y-90801000D01*
X100711258Y-90801000D01*
X100686488Y-90796073D01*
X100537188Y-90766376D01*
X100373216Y-90698456D01*
X100225646Y-90599853D01*
X100100147Y-90474354D01*
X100001544Y-90326784D01*
X99933624Y-90162812D01*
X99903927Y-90013512D01*
X99899000Y-89988742D01*
X99899000Y-89811258D01*
X99922105Y-89695101D01*
X99933624Y-89637188D01*
X100001544Y-89473216D01*
X100100147Y-89325646D01*
X100225646Y-89200147D01*
X100373216Y-89101544D01*
X100537188Y-89033624D01*
X100686488Y-89003927D01*
X100711258Y-88999000D01*
X100888742Y-88999000D01*
X100913512Y-89003927D01*
G37*
G36*
X137477142Y-88528242D02*
G01*
X137625101Y-88589529D01*
X137758255Y-88678499D01*
X137871501Y-88791745D01*
X137960471Y-88924899D01*
X138021758Y-89072858D01*
X138053000Y-89229925D01*
X138053000Y-89390075D01*
X138021758Y-89547142D01*
X137960471Y-89695101D01*
X137871501Y-89828255D01*
X137758255Y-89941501D01*
X137625101Y-90030471D01*
X137477142Y-90091758D01*
X137320075Y-90123000D01*
X137159925Y-90123000D01*
X137002858Y-90091758D01*
X136854899Y-90030471D01*
X136721745Y-89941501D01*
X136608499Y-89828255D01*
X136519529Y-89695101D01*
X136458242Y-89547142D01*
X136427000Y-89390075D01*
X136427000Y-89229925D01*
X136458242Y-89072858D01*
X136519529Y-88924899D01*
X136608499Y-88791745D01*
X136721745Y-88678499D01*
X136854899Y-88589529D01*
X137002858Y-88528242D01*
X137159925Y-88497000D01*
X137320075Y-88497000D01*
X137477142Y-88528242D01*
G37*
G36*
X122237142Y-88528242D02*
G01*
X122385101Y-88589529D01*
X122518255Y-88678499D01*
X122631501Y-88791745D01*
X122720471Y-88924899D01*
X122781758Y-89072858D01*
X122813000Y-89229925D01*
X122813000Y-89390075D01*
X122781758Y-89547142D01*
X122720471Y-89695101D01*
X122631501Y-89828255D01*
X122518255Y-89941501D01*
X122385101Y-90030471D01*
X122237142Y-90091758D01*
X122080075Y-90123000D01*
X121919925Y-90123000D01*
X121762858Y-90091758D01*
X121614899Y-90030471D01*
X121481745Y-89941501D01*
X121368499Y-89828255D01*
X121279529Y-89695101D01*
X121218242Y-89547142D01*
X121187000Y-89390075D01*
X121187000Y-89229925D01*
X121218242Y-89072858D01*
X121279529Y-88924899D01*
X121368499Y-88791745D01*
X121481745Y-88678499D01*
X121614899Y-88589529D01*
X121762858Y-88528242D01*
X121919925Y-88497000D01*
X122080075Y-88497000D01*
X122237142Y-88528242D01*
G37*
G36*
X146294061Y-88262472D02*
G01*
X146452573Y-88328130D01*
X146595230Y-88423450D01*
X146716550Y-88544770D01*
X146811870Y-88687427D01*
X146836288Y-88746376D01*
X146877528Y-88845940D01*
X146911000Y-89014213D01*
X146911000Y-89185787D01*
X146908143Y-89200148D01*
X146877528Y-89354061D01*
X146811870Y-89512573D01*
X146716550Y-89655230D01*
X146595230Y-89776550D01*
X146452573Y-89871870D01*
X146294061Y-89937528D01*
X146274097Y-89941499D01*
X146125787Y-89971000D01*
X145954213Y-89971000D01*
X145805903Y-89941499D01*
X145785939Y-89937528D01*
X145627427Y-89871870D01*
X145484770Y-89776550D01*
X145363450Y-89655230D01*
X145268130Y-89512573D01*
X145202472Y-89354061D01*
X145171857Y-89200148D01*
X145169000Y-89185787D01*
X145169000Y-89014213D01*
X145202472Y-88845940D01*
X145243713Y-88746376D01*
X145268130Y-88687427D01*
X145363450Y-88544770D01*
X145484770Y-88423450D01*
X145627427Y-88328130D01*
X145785939Y-88262472D01*
X145870077Y-88245736D01*
X145954213Y-88229000D01*
X146125787Y-88229000D01*
X146294061Y-88262472D01*
G37*
G36*
X143754061Y-88262472D02*
G01*
X143912573Y-88328130D01*
X144055230Y-88423450D01*
X144176550Y-88544770D01*
X144271870Y-88687427D01*
X144296288Y-88746376D01*
X144337528Y-88845940D01*
X144371000Y-89014213D01*
X144371000Y-89185787D01*
X144368143Y-89200148D01*
X144337528Y-89354061D01*
X144271870Y-89512573D01*
X144176550Y-89655230D01*
X144055230Y-89776550D01*
X143912573Y-89871870D01*
X143754061Y-89937528D01*
X143734097Y-89941499D01*
X143585787Y-89971000D01*
X143414213Y-89971000D01*
X143265903Y-89941499D01*
X143245939Y-89937528D01*
X143087427Y-89871870D01*
X142944770Y-89776550D01*
X142823450Y-89655230D01*
X142728130Y-89512573D01*
X142662472Y-89354061D01*
X142631857Y-89200148D01*
X142629000Y-89185787D01*
X142629000Y-89014213D01*
X142662472Y-88845940D01*
X142703713Y-88746376D01*
X142728130Y-88687427D01*
X142823450Y-88544770D01*
X142944770Y-88423450D01*
X143087427Y-88328130D01*
X143245939Y-88262472D01*
X143330077Y-88245736D01*
X143414213Y-88229000D01*
X143585787Y-88229000D01*
X143754061Y-88262472D01*
G37*
G36*
X92873512Y-86983927D02*
G01*
X93022812Y-87013624D01*
X93186784Y-87081544D01*
X93334354Y-87180147D01*
X93459853Y-87305646D01*
X93558456Y-87453216D01*
X93626376Y-87617188D01*
X93656073Y-87766488D01*
X93660110Y-87786782D01*
X93661000Y-87791259D01*
X93661000Y-87968741D01*
X93626376Y-88142812D01*
X93558456Y-88306784D01*
X93459853Y-88454354D01*
X93334354Y-88579853D01*
X93186784Y-88678456D01*
X93022812Y-88746376D01*
X92873512Y-88776073D01*
X92848742Y-88781000D01*
X92671258Y-88781000D01*
X92646488Y-88776073D01*
X92497188Y-88746376D01*
X92333216Y-88678456D01*
X92185646Y-88579853D01*
X92060147Y-88454354D01*
X91961544Y-88306784D01*
X91893624Y-88142812D01*
X91859000Y-87968741D01*
X91859000Y-87791259D01*
X91859891Y-87786782D01*
X91863927Y-87766488D01*
X91893624Y-87617188D01*
X91961544Y-87453216D01*
X92060147Y-87305646D01*
X92185646Y-87180147D01*
X92333216Y-87081544D01*
X92497188Y-87013624D01*
X92646488Y-86983927D01*
X92671258Y-86979000D01*
X92848742Y-86979000D01*
X92873512Y-86983927D01*
G37*
G36*
X95413512Y-86983927D02*
G01*
X95562812Y-87013624D01*
X95726784Y-87081544D01*
X95874354Y-87180147D01*
X95999853Y-87305646D01*
X96098456Y-87453216D01*
X96166376Y-87617188D01*
X96196073Y-87766488D01*
X96200110Y-87786782D01*
X96201000Y-87791259D01*
X96201000Y-87968741D01*
X96166376Y-88142812D01*
X96098456Y-88306784D01*
X95999853Y-88454354D01*
X95874354Y-88579853D01*
X95726784Y-88678456D01*
X95562812Y-88746376D01*
X95413512Y-88776073D01*
X95388742Y-88781000D01*
X95211258Y-88781000D01*
X95186488Y-88776073D01*
X95037188Y-88746376D01*
X94873216Y-88678456D01*
X94725646Y-88579853D01*
X94600147Y-88454354D01*
X94501544Y-88306784D01*
X94433624Y-88142812D01*
X94399000Y-87968741D01*
X94399000Y-87791259D01*
X94399891Y-87786782D01*
X94403927Y-87766488D01*
X94433624Y-87617188D01*
X94501544Y-87453216D01*
X94600147Y-87305646D01*
X94725646Y-87180147D01*
X94873216Y-87081544D01*
X95037188Y-87013624D01*
X95186488Y-86983927D01*
X95211258Y-86979000D01*
X95388742Y-86979000D01*
X95413512Y-86983927D01*
G37*
G36*
X100913512Y-86463927D02*
G01*
X101062812Y-86493624D01*
X101226784Y-86561544D01*
X101374354Y-86660147D01*
X101499853Y-86785646D01*
X101598456Y-86933216D01*
X101666376Y-87097188D01*
X101677895Y-87155101D01*
X101701000Y-87271258D01*
X101701000Y-87448742D01*
X101696073Y-87473512D01*
X101666376Y-87622812D01*
X101598456Y-87786784D01*
X101499853Y-87934354D01*
X101374354Y-88059853D01*
X101226784Y-88158456D01*
X101062812Y-88226376D01*
X100913512Y-88256073D01*
X100888742Y-88261000D01*
X100711258Y-88261000D01*
X100686488Y-88256073D01*
X100537188Y-88226376D01*
X100373216Y-88158456D01*
X100225646Y-88059853D01*
X100100147Y-87934354D01*
X100001544Y-87786784D01*
X99933624Y-87622812D01*
X99903927Y-87473512D01*
X99899000Y-87448742D01*
X99899000Y-87271258D01*
X99922105Y-87155101D01*
X99933624Y-87097188D01*
X100001544Y-86933216D01*
X100100147Y-86785646D01*
X100225646Y-86660147D01*
X100373216Y-86561544D01*
X100537188Y-86493624D01*
X100686488Y-86463927D01*
X100711258Y-86459000D01*
X100888742Y-86459000D01*
X100913512Y-86463927D01*
G37*
G36*
X137477142Y-85988242D02*
G01*
X137625101Y-86049529D01*
X137758255Y-86138499D01*
X137871501Y-86251745D01*
X137960471Y-86384899D01*
X138021758Y-86532858D01*
X138053000Y-86689925D01*
X138053000Y-86850075D01*
X138021758Y-87007142D01*
X137960471Y-87155101D01*
X137871501Y-87288255D01*
X137758255Y-87401501D01*
X137625101Y-87490471D01*
X137477142Y-87551758D01*
X137320075Y-87583000D01*
X137159925Y-87583000D01*
X137002858Y-87551758D01*
X136854899Y-87490471D01*
X136721745Y-87401501D01*
X136608499Y-87288255D01*
X136519529Y-87155101D01*
X136458242Y-87007142D01*
X136427000Y-86850075D01*
X136427000Y-86689925D01*
X136458242Y-86532858D01*
X136519529Y-86384899D01*
X136608499Y-86251745D01*
X136721745Y-86138499D01*
X136854899Y-86049529D01*
X137002858Y-85988242D01*
X137159925Y-85957000D01*
X137320075Y-85957000D01*
X137477142Y-85988242D01*
G37*
G36*
X122237142Y-85988242D02*
G01*
X122385101Y-86049529D01*
X122518255Y-86138499D01*
X122631501Y-86251745D01*
X122720471Y-86384899D01*
X122781758Y-86532858D01*
X122813000Y-86689925D01*
X122813000Y-86850075D01*
X122781758Y-87007142D01*
X122720471Y-87155101D01*
X122631501Y-87288255D01*
X122518255Y-87401501D01*
X122385101Y-87490471D01*
X122237142Y-87551758D01*
X122080075Y-87583000D01*
X121919925Y-87583000D01*
X121762858Y-87551758D01*
X121614899Y-87490471D01*
X121481745Y-87401501D01*
X121368499Y-87288255D01*
X121279529Y-87155101D01*
X121218242Y-87007142D01*
X121187000Y-86850075D01*
X121187000Y-86689925D01*
X121218242Y-86532858D01*
X121279529Y-86384899D01*
X121368499Y-86251745D01*
X121481745Y-86138499D01*
X121614899Y-86049529D01*
X121762858Y-85988242D01*
X121919925Y-85957000D01*
X122080075Y-85957000D01*
X122237142Y-85988242D01*
G37*
G36*
X143669923Y-85705736D02*
G01*
X143754061Y-85722472D01*
X143912573Y-85788130D01*
X144055230Y-85883450D01*
X144176550Y-86004770D01*
X144271870Y-86147427D01*
X144296288Y-86206376D01*
X144337528Y-86305940D01*
X144371000Y-86474213D01*
X144371000Y-86645787D01*
X144368143Y-86660148D01*
X144337528Y-86814061D01*
X144271870Y-86972573D01*
X144176550Y-87115230D01*
X144055230Y-87236550D01*
X143912573Y-87331870D01*
X143754061Y-87397528D01*
X143734097Y-87401499D01*
X143585787Y-87431000D01*
X143414213Y-87431000D01*
X143265903Y-87401499D01*
X143245939Y-87397528D01*
X143087427Y-87331870D01*
X142944770Y-87236550D01*
X142823450Y-87115230D01*
X142728130Y-86972573D01*
X142662472Y-86814061D01*
X142631857Y-86660148D01*
X142629000Y-86645787D01*
X142629000Y-86474213D01*
X142662472Y-86305940D01*
X142703713Y-86206376D01*
X142728130Y-86147427D01*
X142823450Y-86004770D01*
X142944770Y-85883450D01*
X143087427Y-85788130D01*
X143245939Y-85722472D01*
X143330077Y-85705736D01*
X143414213Y-85689000D01*
X143585787Y-85689000D01*
X143669923Y-85705736D01*
G37*
G36*
X146209923Y-85705736D02*
G01*
X146294061Y-85722472D01*
X146452573Y-85788130D01*
X146595230Y-85883450D01*
X146716550Y-86004770D01*
X146811870Y-86147427D01*
X146836288Y-86206376D01*
X146877528Y-86305940D01*
X146911000Y-86474213D01*
X146911000Y-86645787D01*
X146908143Y-86660148D01*
X146877528Y-86814061D01*
X146811870Y-86972573D01*
X146716550Y-87115230D01*
X146595230Y-87236550D01*
X146452573Y-87331870D01*
X146294061Y-87397528D01*
X146274097Y-87401499D01*
X146125787Y-87431000D01*
X145954213Y-87431000D01*
X145805903Y-87401499D01*
X145785939Y-87397528D01*
X145627427Y-87331870D01*
X145484770Y-87236550D01*
X145363450Y-87115230D01*
X145268130Y-86972573D01*
X145202472Y-86814061D01*
X145171857Y-86660148D01*
X145169000Y-86645787D01*
X145169000Y-86474213D01*
X145202472Y-86305940D01*
X145243713Y-86206376D01*
X145268130Y-86147427D01*
X145363450Y-86004770D01*
X145484770Y-85883450D01*
X145627427Y-85788130D01*
X145785939Y-85722472D01*
X145870077Y-85705736D01*
X145954213Y-85689000D01*
X146125787Y-85689000D01*
X146209923Y-85705736D01*
G37*
G36*
X92873512Y-84443927D02*
G01*
X93022812Y-84473624D01*
X93186784Y-84541544D01*
X93334354Y-84640147D01*
X93459853Y-84765646D01*
X93558456Y-84913216D01*
X93626376Y-85077188D01*
X93656073Y-85226488D01*
X93660110Y-85246782D01*
X93661000Y-85251259D01*
X93661000Y-85428741D01*
X93626376Y-85602812D01*
X93558456Y-85766784D01*
X93459853Y-85914354D01*
X93334354Y-86039853D01*
X93186784Y-86138456D01*
X93022812Y-86206376D01*
X92873512Y-86236073D01*
X92848742Y-86241000D01*
X92671258Y-86241000D01*
X92646488Y-86236073D01*
X92497188Y-86206376D01*
X92333216Y-86138456D01*
X92185646Y-86039853D01*
X92060147Y-85914354D01*
X91961544Y-85766784D01*
X91893624Y-85602812D01*
X91859000Y-85428741D01*
X91859000Y-85251259D01*
X91859891Y-85246782D01*
X91863927Y-85226488D01*
X91893624Y-85077188D01*
X91961544Y-84913216D01*
X92060147Y-84765646D01*
X92185646Y-84640147D01*
X92333216Y-84541544D01*
X92497188Y-84473624D01*
X92646488Y-84443927D01*
X92671258Y-84439000D01*
X92848742Y-84439000D01*
X92873512Y-84443927D01*
G37*
G36*
X95413512Y-84443927D02*
G01*
X95562812Y-84473624D01*
X95726784Y-84541544D01*
X95874354Y-84640147D01*
X95999853Y-84765646D01*
X96098456Y-84913216D01*
X96166376Y-85077188D01*
X96196073Y-85226488D01*
X96200110Y-85246782D01*
X96201000Y-85251259D01*
X96201000Y-85428741D01*
X96166376Y-85602812D01*
X96098456Y-85766784D01*
X95999853Y-85914354D01*
X95874354Y-86039853D01*
X95726784Y-86138456D01*
X95562812Y-86206376D01*
X95413512Y-86236073D01*
X95388742Y-86241000D01*
X95211258Y-86241000D01*
X95186488Y-86236073D01*
X95037188Y-86206376D01*
X94873216Y-86138456D01*
X94725646Y-86039853D01*
X94600147Y-85914354D01*
X94501544Y-85766784D01*
X94433624Y-85602812D01*
X94399000Y-85428741D01*
X94399000Y-85251259D01*
X94399891Y-85246782D01*
X94403927Y-85226488D01*
X94433624Y-85077188D01*
X94501544Y-84913216D01*
X94600147Y-84765646D01*
X94725646Y-84640147D01*
X94873216Y-84541544D01*
X95037188Y-84473624D01*
X95186488Y-84443927D01*
X95211258Y-84439000D01*
X95388742Y-84439000D01*
X95413512Y-84443927D01*
G37*
G36*
X100913512Y-83923927D02*
G01*
X101062812Y-83953624D01*
X101226784Y-84021544D01*
X101374354Y-84120147D01*
X101499853Y-84245646D01*
X101598456Y-84393216D01*
X101666376Y-84557188D01*
X101677895Y-84615101D01*
X101701000Y-84731258D01*
X101701000Y-84908742D01*
X101696073Y-84933512D01*
X101666376Y-85082812D01*
X101598456Y-85246784D01*
X101499853Y-85394354D01*
X101374354Y-85519853D01*
X101226784Y-85618456D01*
X101062812Y-85686376D01*
X100913512Y-85716073D01*
X100888742Y-85721000D01*
X100711258Y-85721000D01*
X100686488Y-85716073D01*
X100537188Y-85686376D01*
X100373216Y-85618456D01*
X100225646Y-85519853D01*
X100100147Y-85394354D01*
X100001544Y-85246784D01*
X99933624Y-85082812D01*
X99903927Y-84933512D01*
X99899000Y-84908742D01*
X99899000Y-84731258D01*
X99922105Y-84615101D01*
X99933624Y-84557188D01*
X100001544Y-84393216D01*
X100100147Y-84245646D01*
X100225646Y-84120147D01*
X100373216Y-84021544D01*
X100537188Y-83953624D01*
X100686488Y-83923927D01*
X100711258Y-83919000D01*
X100888742Y-83919000D01*
X100913512Y-83923927D01*
G37*
G36*
X122237142Y-83448242D02*
G01*
X122385101Y-83509529D01*
X122518255Y-83598499D01*
X122631501Y-83711745D01*
X122720471Y-83844899D01*
X122781758Y-83992858D01*
X122813000Y-84149925D01*
X122813000Y-84310075D01*
X122781758Y-84467142D01*
X122720471Y-84615101D01*
X122631501Y-84748255D01*
X122518255Y-84861501D01*
X122385101Y-84950471D01*
X122237142Y-85011758D01*
X122080075Y-85043000D01*
X121919925Y-85043000D01*
X121762858Y-85011758D01*
X121614899Y-84950471D01*
X121481745Y-84861501D01*
X121368499Y-84748255D01*
X121279529Y-84615101D01*
X121218242Y-84467142D01*
X121187000Y-84310075D01*
X121187000Y-84149925D01*
X121218242Y-83992858D01*
X121279529Y-83844899D01*
X121368499Y-83711745D01*
X121481745Y-83598499D01*
X121614899Y-83509529D01*
X121762858Y-83448242D01*
X121919925Y-83417000D01*
X122080075Y-83417000D01*
X122237142Y-83448242D01*
G37*
G36*
X137477142Y-83448242D02*
G01*
X137625101Y-83509529D01*
X137758255Y-83598499D01*
X137871501Y-83711745D01*
X137960471Y-83844899D01*
X138021758Y-83992858D01*
X138053000Y-84149925D01*
X138053000Y-84310075D01*
X138021758Y-84467142D01*
X137960471Y-84615101D01*
X137871501Y-84748255D01*
X137758255Y-84861501D01*
X137625101Y-84950471D01*
X137477142Y-85011758D01*
X137320075Y-85043000D01*
X137159925Y-85043000D01*
X137002858Y-85011758D01*
X136854899Y-84950471D01*
X136721745Y-84861501D01*
X136608499Y-84748255D01*
X136519529Y-84615101D01*
X136458242Y-84467142D01*
X136427000Y-84310075D01*
X136427000Y-84149925D01*
X136458242Y-83992858D01*
X136519529Y-83844899D01*
X136608499Y-83711745D01*
X136721745Y-83598499D01*
X136854899Y-83509529D01*
X137002858Y-83448242D01*
X137159925Y-83417000D01*
X137320075Y-83417000D01*
X137477142Y-83448242D01*
G37*
G36*
X146209923Y-83165736D02*
G01*
X146294061Y-83182472D01*
X146452573Y-83248130D01*
X146595230Y-83343450D01*
X146716550Y-83464770D01*
X146811870Y-83607427D01*
X146836288Y-83666376D01*
X146877528Y-83765940D01*
X146911000Y-83934213D01*
X146911000Y-84105787D01*
X146908143Y-84120148D01*
X146877528Y-84274061D01*
X146811870Y-84432573D01*
X146716550Y-84575230D01*
X146595230Y-84696550D01*
X146452573Y-84791870D01*
X146294061Y-84857528D01*
X146274097Y-84861499D01*
X146125787Y-84891000D01*
X145954213Y-84891000D01*
X145805903Y-84861499D01*
X145785939Y-84857528D01*
X145627427Y-84791870D01*
X145484770Y-84696550D01*
X145363450Y-84575230D01*
X145268130Y-84432573D01*
X145202472Y-84274061D01*
X145171857Y-84120148D01*
X145169000Y-84105787D01*
X145169000Y-83934213D01*
X145202472Y-83765940D01*
X145243713Y-83666376D01*
X145268130Y-83607427D01*
X145363450Y-83464770D01*
X145484770Y-83343450D01*
X145627427Y-83248130D01*
X145785939Y-83182472D01*
X145870077Y-83165736D01*
X145954213Y-83149000D01*
X146125787Y-83149000D01*
X146209923Y-83165736D01*
G37*
G36*
X143669923Y-83165736D02*
G01*
X143754061Y-83182472D01*
X143912573Y-83248130D01*
X144055230Y-83343450D01*
X144176550Y-83464770D01*
X144271870Y-83607427D01*
X144296288Y-83666376D01*
X144337528Y-83765940D01*
X144371000Y-83934213D01*
X144371000Y-84105787D01*
X144368143Y-84120148D01*
X144337528Y-84274061D01*
X144271870Y-84432573D01*
X144176550Y-84575230D01*
X144055230Y-84696550D01*
X143912573Y-84791870D01*
X143754061Y-84857528D01*
X143734097Y-84861499D01*
X143585787Y-84891000D01*
X143414213Y-84891000D01*
X143265903Y-84861499D01*
X143245939Y-84857528D01*
X143087427Y-84791870D01*
X142944770Y-84696550D01*
X142823450Y-84575230D01*
X142728130Y-84432573D01*
X142662472Y-84274061D01*
X142631857Y-84120148D01*
X142629000Y-84105787D01*
X142629000Y-83934213D01*
X142662472Y-83765940D01*
X142703713Y-83666376D01*
X142728130Y-83607427D01*
X142823450Y-83464770D01*
X142944770Y-83343450D01*
X143087427Y-83248130D01*
X143245939Y-83182472D01*
X143330077Y-83165736D01*
X143414213Y-83149000D01*
X143585787Y-83149000D01*
X143669923Y-83165736D01*
G37*
G36*
X92873512Y-81903927D02*
G01*
X93022812Y-81933624D01*
X93186784Y-82001544D01*
X93334354Y-82100147D01*
X93459853Y-82225646D01*
X93558456Y-82373216D01*
X93626376Y-82537188D01*
X93656073Y-82686488D01*
X93660110Y-82706782D01*
X93661000Y-82711259D01*
X93661000Y-82888741D01*
X93626376Y-83062812D01*
X93558456Y-83226784D01*
X93459853Y-83374354D01*
X93334354Y-83499853D01*
X93186784Y-83598456D01*
X93022812Y-83666376D01*
X92873512Y-83696073D01*
X92848742Y-83701000D01*
X92671258Y-83701000D01*
X92646488Y-83696073D01*
X92497188Y-83666376D01*
X92333216Y-83598456D01*
X92185646Y-83499853D01*
X92060147Y-83374354D01*
X91961544Y-83226784D01*
X91893624Y-83062812D01*
X91859000Y-82888741D01*
X91859000Y-82711259D01*
X91859891Y-82706782D01*
X91863927Y-82686488D01*
X91893624Y-82537188D01*
X91961544Y-82373216D01*
X92060147Y-82225646D01*
X92185646Y-82100147D01*
X92333216Y-82001544D01*
X92497188Y-81933624D01*
X92646488Y-81903927D01*
X92671258Y-81899000D01*
X92848742Y-81899000D01*
X92873512Y-81903927D01*
G37*
G36*
X95413512Y-81903927D02*
G01*
X95562812Y-81933624D01*
X95726784Y-82001544D01*
X95874354Y-82100147D01*
X95999853Y-82225646D01*
X96098456Y-82373216D01*
X96166376Y-82537188D01*
X96196073Y-82686488D01*
X96200110Y-82706782D01*
X96201000Y-82711259D01*
X96201000Y-82888741D01*
X96166376Y-83062812D01*
X96098456Y-83226784D01*
X95999853Y-83374354D01*
X95874354Y-83499853D01*
X95726784Y-83598456D01*
X95562812Y-83666376D01*
X95413512Y-83696073D01*
X95388742Y-83701000D01*
X95211258Y-83701000D01*
X95186488Y-83696073D01*
X95037188Y-83666376D01*
X94873216Y-83598456D01*
X94725646Y-83499853D01*
X94600147Y-83374354D01*
X94501544Y-83226784D01*
X94433624Y-83062812D01*
X94399000Y-82888741D01*
X94399000Y-82711259D01*
X94399891Y-82706782D01*
X94403927Y-82686488D01*
X94433624Y-82537188D01*
X94501544Y-82373216D01*
X94600147Y-82225646D01*
X94725646Y-82100147D01*
X94873216Y-82001544D01*
X95037188Y-81933624D01*
X95186488Y-81903927D01*
X95211258Y-81899000D01*
X95388742Y-81899000D01*
X95413512Y-81903927D01*
G37*
G36*
X100913512Y-81383927D02*
G01*
X101062812Y-81413624D01*
X101226784Y-81481544D01*
X101374354Y-81580147D01*
X101499853Y-81705646D01*
X101598456Y-81853216D01*
X101666376Y-82017188D01*
X101677895Y-82075101D01*
X101701000Y-82191258D01*
X101701000Y-82368742D01*
X101696073Y-82393512D01*
X101666376Y-82542812D01*
X101598456Y-82706784D01*
X101499853Y-82854354D01*
X101374354Y-82979853D01*
X101226784Y-83078456D01*
X101062812Y-83146376D01*
X100913512Y-83176073D01*
X100888742Y-83181000D01*
X100711258Y-83181000D01*
X100686488Y-83176073D01*
X100537188Y-83146376D01*
X100373216Y-83078456D01*
X100225646Y-82979853D01*
X100100147Y-82854354D01*
X100001544Y-82706784D01*
X99933624Y-82542812D01*
X99903927Y-82393512D01*
X99899000Y-82368742D01*
X99899000Y-82191258D01*
X99922105Y-82075101D01*
X99933624Y-82017188D01*
X100001544Y-81853216D01*
X100100147Y-81705646D01*
X100225646Y-81580147D01*
X100373216Y-81481544D01*
X100537188Y-81413624D01*
X100686488Y-81383927D01*
X100711258Y-81379000D01*
X100888742Y-81379000D01*
X100913512Y-81383927D01*
G37*
G36*
X137477142Y-80908242D02*
G01*
X137625101Y-80969529D01*
X137758255Y-81058499D01*
X137871501Y-81171745D01*
X137960471Y-81304899D01*
X138021758Y-81452858D01*
X138053000Y-81609925D01*
X138053000Y-81770075D01*
X138021758Y-81927142D01*
X137960471Y-82075101D01*
X137871501Y-82208255D01*
X137758255Y-82321501D01*
X137625101Y-82410471D01*
X137477142Y-82471758D01*
X137320075Y-82503000D01*
X137159925Y-82503000D01*
X137002858Y-82471758D01*
X136854899Y-82410471D01*
X136721745Y-82321501D01*
X136608499Y-82208255D01*
X136519529Y-82075101D01*
X136458242Y-81927142D01*
X136427000Y-81770075D01*
X136427000Y-81609925D01*
X136458242Y-81452858D01*
X136519529Y-81304899D01*
X136608499Y-81171745D01*
X136721745Y-81058499D01*
X136854899Y-80969529D01*
X137002858Y-80908242D01*
X137159925Y-80877000D01*
X137320075Y-80877000D01*
X137477142Y-80908242D01*
G37*
G36*
X122237142Y-80908242D02*
G01*
X122385101Y-80969529D01*
X122518255Y-81058499D01*
X122631501Y-81171745D01*
X122720471Y-81304899D01*
X122781758Y-81452858D01*
X122813000Y-81609925D01*
X122813000Y-81770075D01*
X122781758Y-81927142D01*
X122720471Y-82075101D01*
X122631501Y-82208255D01*
X122518255Y-82321501D01*
X122385101Y-82410471D01*
X122237142Y-82471758D01*
X122080075Y-82503000D01*
X121919925Y-82503000D01*
X121762858Y-82471758D01*
X121614899Y-82410471D01*
X121481745Y-82321501D01*
X121368499Y-82208255D01*
X121279529Y-82075101D01*
X121218242Y-81927142D01*
X121187000Y-81770075D01*
X121187000Y-81609925D01*
X121218242Y-81452858D01*
X121279529Y-81304899D01*
X121368499Y-81171745D01*
X121481745Y-81058499D01*
X121614899Y-80969529D01*
X121762858Y-80908242D01*
X121919925Y-80877000D01*
X122080075Y-80877000D01*
X122237142Y-80908242D01*
G37*
G36*
X146294061Y-80642472D02*
G01*
X146452573Y-80708130D01*
X146595230Y-80803450D01*
X146716550Y-80924770D01*
X146811870Y-81067427D01*
X146836288Y-81126376D01*
X146877528Y-81225940D01*
X146911000Y-81394213D01*
X146911000Y-81565787D01*
X146908143Y-81580148D01*
X146877528Y-81734061D01*
X146811870Y-81892573D01*
X146716550Y-82035230D01*
X146595230Y-82156550D01*
X146452573Y-82251870D01*
X146294061Y-82317528D01*
X146274097Y-82321499D01*
X146125787Y-82351000D01*
X145954213Y-82351000D01*
X145805903Y-82321499D01*
X145785939Y-82317528D01*
X145627427Y-82251870D01*
X145484770Y-82156550D01*
X145363450Y-82035230D01*
X145268130Y-81892573D01*
X145202472Y-81734061D01*
X145171857Y-81580148D01*
X145169000Y-81565787D01*
X145169000Y-81394213D01*
X145202472Y-81225940D01*
X145243713Y-81126376D01*
X145268130Y-81067427D01*
X145363450Y-80924770D01*
X145484770Y-80803450D01*
X145627427Y-80708130D01*
X145785939Y-80642472D01*
X145954213Y-80609000D01*
X146125787Y-80609000D01*
X146294061Y-80642472D01*
G37*
G36*
X143754061Y-80642472D02*
G01*
X143912573Y-80708130D01*
X144055230Y-80803450D01*
X144176550Y-80924770D01*
X144271870Y-81067427D01*
X144296288Y-81126376D01*
X144337528Y-81225940D01*
X144371000Y-81394213D01*
X144371000Y-81565787D01*
X144368143Y-81580148D01*
X144337528Y-81734061D01*
X144271870Y-81892573D01*
X144176550Y-82035230D01*
X144055230Y-82156550D01*
X143912573Y-82251870D01*
X143754061Y-82317528D01*
X143734097Y-82321499D01*
X143585787Y-82351000D01*
X143414213Y-82351000D01*
X143265903Y-82321499D01*
X143245939Y-82317528D01*
X143087427Y-82251870D01*
X142944770Y-82156550D01*
X142823450Y-82035230D01*
X142728130Y-81892573D01*
X142662472Y-81734061D01*
X142631857Y-81580148D01*
X142629000Y-81565787D01*
X142629000Y-81394213D01*
X142662472Y-81225940D01*
X142703713Y-81126376D01*
X142728130Y-81067427D01*
X142823450Y-80924770D01*
X142944770Y-80803450D01*
X143087427Y-80708130D01*
X143245939Y-80642472D01*
X143414213Y-80609000D01*
X143585787Y-80609000D01*
X143754061Y-80642472D01*
G37*
G36*
X95413512Y-79363927D02*
G01*
X95562812Y-79393624D01*
X95726784Y-79461544D01*
X95874354Y-79560147D01*
X95999853Y-79685646D01*
X96098456Y-79833216D01*
X96166376Y-79997188D01*
X96196073Y-80146488D01*
X96200110Y-80166782D01*
X96201000Y-80171259D01*
X96201000Y-80348741D01*
X96166376Y-80522812D01*
X96098456Y-80686784D01*
X95999853Y-80834354D01*
X95874354Y-80959853D01*
X95726784Y-81058456D01*
X95562812Y-81126376D01*
X95413512Y-81156073D01*
X95388742Y-81161000D01*
X95211258Y-81161000D01*
X95186488Y-81156073D01*
X95037188Y-81126376D01*
X94873216Y-81058456D01*
X94725646Y-80959853D01*
X94600147Y-80834354D01*
X94501544Y-80686784D01*
X94433624Y-80522812D01*
X94399000Y-80348741D01*
X94399000Y-80171259D01*
X94399891Y-80166782D01*
X94403927Y-80146488D01*
X94433624Y-79997188D01*
X94501544Y-79833216D01*
X94600147Y-79685646D01*
X94725646Y-79560147D01*
X94873216Y-79461544D01*
X95037188Y-79393624D01*
X95186488Y-79363927D01*
X95211258Y-79359000D01*
X95388742Y-79359000D01*
X95413512Y-79363927D01*
G37*
G36*
X92873512Y-79363927D02*
G01*
X93022812Y-79393624D01*
X93186784Y-79461544D01*
X93334354Y-79560147D01*
X93459853Y-79685646D01*
X93558456Y-79833216D01*
X93626376Y-79997188D01*
X93656073Y-80146488D01*
X93660110Y-80166782D01*
X93661000Y-80171259D01*
X93661000Y-80348741D01*
X93626376Y-80522812D01*
X93558456Y-80686784D01*
X93459853Y-80834354D01*
X93334354Y-80959853D01*
X93186784Y-81058456D01*
X93022812Y-81126376D01*
X92873512Y-81156073D01*
X92848742Y-81161000D01*
X92671258Y-81161000D01*
X92646488Y-81156073D01*
X92497188Y-81126376D01*
X92333216Y-81058456D01*
X92185646Y-80959853D01*
X92060147Y-80834354D01*
X91961544Y-80686784D01*
X91893624Y-80522812D01*
X91859000Y-80348741D01*
X91859000Y-80171259D01*
X91859891Y-80166782D01*
X91863927Y-80146488D01*
X91893624Y-79997188D01*
X91961544Y-79833216D01*
X92060147Y-79685646D01*
X92185646Y-79560147D01*
X92333216Y-79461544D01*
X92497188Y-79393624D01*
X92646488Y-79363927D01*
X92671258Y-79359000D01*
X92848742Y-79359000D01*
X92873512Y-79363927D01*
G37*
G36*
X100913512Y-78843927D02*
G01*
X101062812Y-78873624D01*
X101226784Y-78941544D01*
X101374354Y-79040147D01*
X101499853Y-79165646D01*
X101598456Y-79313216D01*
X101666376Y-79477188D01*
X101677895Y-79535101D01*
X101701000Y-79651258D01*
X101701000Y-79828742D01*
X101696073Y-79853512D01*
X101666376Y-80002812D01*
X101598456Y-80166784D01*
X101499853Y-80314354D01*
X101374354Y-80439853D01*
X101226784Y-80538456D01*
X101062812Y-80606376D01*
X100913512Y-80636073D01*
X100888742Y-80641000D01*
X100711258Y-80641000D01*
X100686488Y-80636073D01*
X100537188Y-80606376D01*
X100373216Y-80538456D01*
X100225646Y-80439853D01*
X100100147Y-80314354D01*
X100001544Y-80166784D01*
X99933624Y-80002812D01*
X99903927Y-79853512D01*
X99899000Y-79828742D01*
X99899000Y-79651258D01*
X99922105Y-79535101D01*
X99933624Y-79477188D01*
X100001544Y-79313216D01*
X100100147Y-79165646D01*
X100225646Y-79040147D01*
X100373216Y-78941544D01*
X100537188Y-78873624D01*
X100686488Y-78843927D01*
X100711258Y-78839000D01*
X100888742Y-78839000D01*
X100913512Y-78843927D01*
G37*
G36*
X122237142Y-78368242D02*
G01*
X122385101Y-78429529D01*
X122518255Y-78518499D01*
X122631501Y-78631745D01*
X122720471Y-78764899D01*
X122781758Y-78912858D01*
X122813000Y-79069925D01*
X122813000Y-79230075D01*
X122781758Y-79387142D01*
X122720471Y-79535101D01*
X122631501Y-79668255D01*
X122518255Y-79781501D01*
X122385101Y-79870471D01*
X122237142Y-79931758D01*
X122080075Y-79963000D01*
X121919925Y-79963000D01*
X121762858Y-79931758D01*
X121614899Y-79870471D01*
X121481745Y-79781501D01*
X121368499Y-79668255D01*
X121279529Y-79535101D01*
X121218242Y-79387142D01*
X121187000Y-79230075D01*
X121187000Y-79069925D01*
X121218242Y-78912858D01*
X121279529Y-78764899D01*
X121368499Y-78631745D01*
X121481745Y-78518499D01*
X121614899Y-78429529D01*
X121762858Y-78368242D01*
X121919925Y-78337000D01*
X122080075Y-78337000D01*
X122237142Y-78368242D01*
G37*
G36*
X137477142Y-78368242D02*
G01*
X137625101Y-78429529D01*
X137758255Y-78518499D01*
X137871501Y-78631745D01*
X137960471Y-78764899D01*
X138021758Y-78912858D01*
X138053000Y-79069925D01*
X138053000Y-79230075D01*
X138021758Y-79387142D01*
X137960471Y-79535101D01*
X137871501Y-79668255D01*
X137758255Y-79781501D01*
X137625101Y-79870471D01*
X137477142Y-79931758D01*
X137320075Y-79963000D01*
X137159925Y-79963000D01*
X137002858Y-79931758D01*
X136854899Y-79870471D01*
X136721745Y-79781501D01*
X136608499Y-79668255D01*
X136519529Y-79535101D01*
X136458242Y-79387142D01*
X136427000Y-79230075D01*
X136427000Y-79069925D01*
X136458242Y-78912858D01*
X136519529Y-78764899D01*
X136608499Y-78631745D01*
X136721745Y-78518499D01*
X136854899Y-78429529D01*
X137002858Y-78368242D01*
X137159925Y-78337000D01*
X137320075Y-78337000D01*
X137477142Y-78368242D01*
G37*
G36*
X143669923Y-78085736D02*
G01*
X143754061Y-78102472D01*
X143912573Y-78168130D01*
X144055230Y-78263450D01*
X144176550Y-78384770D01*
X144271870Y-78527427D01*
X144296288Y-78586376D01*
X144337528Y-78685940D01*
X144371000Y-78854213D01*
X144371000Y-79025787D01*
X144368143Y-79040148D01*
X144337528Y-79194061D01*
X144271870Y-79352573D01*
X144176550Y-79495230D01*
X144055230Y-79616550D01*
X143912573Y-79711870D01*
X143754061Y-79777528D01*
X143734097Y-79781499D01*
X143585787Y-79811000D01*
X143414213Y-79811000D01*
X143265903Y-79781499D01*
X143245939Y-79777528D01*
X143087427Y-79711870D01*
X142944770Y-79616550D01*
X142823450Y-79495230D01*
X142728130Y-79352573D01*
X142662472Y-79194061D01*
X142631857Y-79040148D01*
X142629000Y-79025787D01*
X142629000Y-78854213D01*
X142662472Y-78685940D01*
X142703713Y-78586376D01*
X142728130Y-78527427D01*
X142823450Y-78384770D01*
X142944770Y-78263450D01*
X143087427Y-78168130D01*
X143245939Y-78102472D01*
X143330077Y-78085736D01*
X143414213Y-78069000D01*
X143585787Y-78069000D01*
X143669923Y-78085736D01*
G37*
G36*
X146209923Y-78085736D02*
G01*
X146294061Y-78102472D01*
X146452573Y-78168130D01*
X146595230Y-78263450D01*
X146716550Y-78384770D01*
X146811870Y-78527427D01*
X146836288Y-78586376D01*
X146877528Y-78685940D01*
X146911000Y-78854213D01*
X146911000Y-79025787D01*
X146908143Y-79040148D01*
X146877528Y-79194061D01*
X146811870Y-79352573D01*
X146716550Y-79495230D01*
X146595230Y-79616550D01*
X146452573Y-79711870D01*
X146294061Y-79777528D01*
X146274097Y-79781499D01*
X146125787Y-79811000D01*
X145954213Y-79811000D01*
X145805903Y-79781499D01*
X145785939Y-79777528D01*
X145627427Y-79711870D01*
X145484770Y-79616550D01*
X145363450Y-79495230D01*
X145268130Y-79352573D01*
X145202472Y-79194061D01*
X145171857Y-79040148D01*
X145169000Y-79025787D01*
X145169000Y-78854213D01*
X145202472Y-78685940D01*
X145243713Y-78586376D01*
X145268130Y-78527427D01*
X145363450Y-78384770D01*
X145484770Y-78263450D01*
X145627427Y-78168130D01*
X145785939Y-78102472D01*
X145954213Y-78069000D01*
X146125787Y-78069000D01*
X146209923Y-78085736D01*
G37*
G36*
X92873512Y-76823927D02*
G01*
X93022812Y-76853624D01*
X93186784Y-76921544D01*
X93334354Y-77020147D01*
X93459853Y-77145646D01*
X93558456Y-77293216D01*
X93626376Y-77457188D01*
X93661000Y-77631259D01*
X93661000Y-77808741D01*
X93626376Y-77982812D01*
X93558456Y-78146784D01*
X93459853Y-78294354D01*
X93334354Y-78419853D01*
X93186784Y-78518456D01*
X93022812Y-78586376D01*
X92873512Y-78616073D01*
X92848742Y-78621000D01*
X92671258Y-78621000D01*
X92646488Y-78616073D01*
X92497188Y-78586376D01*
X92333216Y-78518456D01*
X92185646Y-78419853D01*
X92060147Y-78294354D01*
X91961544Y-78146784D01*
X91893624Y-77982812D01*
X91859000Y-77808741D01*
X91859000Y-77631259D01*
X91893624Y-77457188D01*
X91961544Y-77293216D01*
X92060147Y-77145646D01*
X92185646Y-77020147D01*
X92333216Y-76921544D01*
X92497188Y-76853624D01*
X92646488Y-76823927D01*
X92671258Y-76819000D01*
X92848742Y-76819000D01*
X92873512Y-76823927D01*
G37*
G36*
X95413512Y-76823927D02*
G01*
X95562812Y-76853624D01*
X95726784Y-76921544D01*
X95874354Y-77020147D01*
X95999853Y-77145646D01*
X96098456Y-77293216D01*
X96166376Y-77457188D01*
X96201000Y-77631259D01*
X96201000Y-77808741D01*
X96166376Y-77982812D01*
X96098456Y-78146784D01*
X95999853Y-78294354D01*
X95874354Y-78419853D01*
X95726784Y-78518456D01*
X95562812Y-78586376D01*
X95413512Y-78616073D01*
X95388742Y-78621000D01*
X95211258Y-78621000D01*
X95186488Y-78616073D01*
X95037188Y-78586376D01*
X94873216Y-78518456D01*
X94725646Y-78419853D01*
X94600147Y-78294354D01*
X94501544Y-78146784D01*
X94433624Y-77982812D01*
X94399000Y-77808741D01*
X94399000Y-77631259D01*
X94433624Y-77457188D01*
X94501544Y-77293216D01*
X94600147Y-77145646D01*
X94725646Y-77020147D01*
X94873216Y-76921544D01*
X95037188Y-76853624D01*
X95186488Y-76823927D01*
X95211258Y-76819000D01*
X95388742Y-76819000D01*
X95413512Y-76823927D01*
G37*
G36*
X101701000Y-78101000D02*
G01*
X99899000Y-78101000D01*
X99899000Y-76299000D01*
X101701000Y-76299000D01*
X101701000Y-78101000D01*
G37*
G36*
X122237142Y-75828242D02*
G01*
X122385101Y-75889529D01*
X122518255Y-75978499D01*
X122631501Y-76091745D01*
X122720471Y-76224899D01*
X122781758Y-76372858D01*
X122813000Y-76529925D01*
X122813000Y-76690075D01*
X122781758Y-76847142D01*
X122720471Y-76995101D01*
X122631501Y-77128255D01*
X122518255Y-77241501D01*
X122385101Y-77330471D01*
X122237142Y-77391758D01*
X122080075Y-77423000D01*
X121919925Y-77423000D01*
X121762858Y-77391758D01*
X121614899Y-77330471D01*
X121481745Y-77241501D01*
X121368499Y-77128255D01*
X121279529Y-76995101D01*
X121218242Y-76847142D01*
X121187000Y-76690075D01*
X121187000Y-76529925D01*
X121218242Y-76372858D01*
X121279529Y-76224899D01*
X121368499Y-76091745D01*
X121481745Y-75978499D01*
X121614899Y-75889529D01*
X121762858Y-75828242D01*
X121919925Y-75797000D01*
X122080075Y-75797000D01*
X122237142Y-75828242D01*
G37*
G36*
X137477142Y-75828242D02*
G01*
X137625101Y-75889529D01*
X137758255Y-75978499D01*
X137871501Y-76091745D01*
X137960471Y-76224899D01*
X138021758Y-76372858D01*
X138053000Y-76529925D01*
X138053000Y-76690075D01*
X138021758Y-76847142D01*
X137960471Y-76995101D01*
X137871501Y-77128255D01*
X137758255Y-77241501D01*
X137625101Y-77330471D01*
X137477142Y-77391758D01*
X137320075Y-77423000D01*
X137159925Y-77423000D01*
X137002858Y-77391758D01*
X136854899Y-77330471D01*
X136721745Y-77241501D01*
X136608499Y-77128255D01*
X136519529Y-76995101D01*
X136458242Y-76847142D01*
X136427000Y-76690075D01*
X136427000Y-76529925D01*
X136458242Y-76372858D01*
X136519529Y-76224899D01*
X136608499Y-76091745D01*
X136721745Y-75978499D01*
X136854899Y-75889529D01*
X137002858Y-75828242D01*
X137159925Y-75797000D01*
X137320075Y-75797000D01*
X137477142Y-75828242D01*
G37*
G36*
X143669923Y-75545736D02*
G01*
X143754061Y-75562472D01*
X143912573Y-75628130D01*
X144055230Y-75723450D01*
X144176550Y-75844770D01*
X144271870Y-75987427D01*
X144337528Y-76145939D01*
X144371000Y-76314214D01*
X144371000Y-76485786D01*
X144337528Y-76654061D01*
X144271870Y-76812573D01*
X144176550Y-76955230D01*
X144055230Y-77076550D01*
X143912573Y-77171870D01*
X143754061Y-77237528D01*
X143734097Y-77241499D01*
X143585787Y-77271000D01*
X143414213Y-77271000D01*
X143265903Y-77241499D01*
X143245939Y-77237528D01*
X143087427Y-77171870D01*
X142944770Y-77076550D01*
X142823450Y-76955230D01*
X142728130Y-76812573D01*
X142662472Y-76654061D01*
X142629000Y-76485786D01*
X142629000Y-76314214D01*
X142662472Y-76145939D01*
X142728130Y-75987427D01*
X142823450Y-75844770D01*
X142944770Y-75723450D01*
X143087427Y-75628130D01*
X143245939Y-75562472D01*
X143330077Y-75545736D01*
X143414213Y-75529000D01*
X143585787Y-75529000D01*
X143669923Y-75545736D01*
G37*
G36*
X146209923Y-75545736D02*
G01*
X146294061Y-75562472D01*
X146452573Y-75628130D01*
X146595230Y-75723450D01*
X146716550Y-75844770D01*
X146811870Y-75987427D01*
X146877528Y-76145939D01*
X146911000Y-76314214D01*
X146911000Y-76485786D01*
X146877528Y-76654061D01*
X146811870Y-76812573D01*
X146716550Y-76955230D01*
X146595230Y-77076550D01*
X146452573Y-77171870D01*
X146294061Y-77237528D01*
X146274097Y-77241499D01*
X146125787Y-77271000D01*
X145954213Y-77271000D01*
X145805903Y-77241499D01*
X145785939Y-77237528D01*
X145627427Y-77171870D01*
X145484770Y-77076550D01*
X145363450Y-76955230D01*
X145268130Y-76812573D01*
X145202472Y-76654061D01*
X145169000Y-76485786D01*
X145169000Y-76314214D01*
X145202472Y-76145939D01*
X145268130Y-75987427D01*
X145363450Y-75844770D01*
X145484770Y-75723450D01*
X145627427Y-75628130D01*
X145785939Y-75562472D01*
X145870077Y-75545736D01*
X145954213Y-75529000D01*
X146125787Y-75529000D01*
X146209923Y-75545736D01*
G37*
G36*
X95413512Y-74283927D02*
G01*
X95562812Y-74313624D01*
X95726784Y-74381544D01*
X95874354Y-74480147D01*
X95999853Y-74605646D01*
X96098456Y-74753216D01*
X96166376Y-74917188D01*
X96201000Y-75091259D01*
X96201000Y-75268741D01*
X96166376Y-75442812D01*
X96098456Y-75606784D01*
X95999853Y-75754354D01*
X95874354Y-75879853D01*
X95726784Y-75978456D01*
X95562812Y-76046376D01*
X95413512Y-76076073D01*
X95388742Y-76081000D01*
X95211258Y-76081000D01*
X95186488Y-76076073D01*
X95037188Y-76046376D01*
X94873216Y-75978456D01*
X94725646Y-75879853D01*
X94600147Y-75754354D01*
X94501544Y-75606784D01*
X94433624Y-75442812D01*
X94399000Y-75268741D01*
X94399000Y-75091259D01*
X94433624Y-74917188D01*
X94501544Y-74753216D01*
X94600147Y-74605646D01*
X94725646Y-74480147D01*
X94873216Y-74381544D01*
X95037188Y-74313624D01*
X95186488Y-74283927D01*
X95211258Y-74279000D01*
X95388742Y-74279000D01*
X95413512Y-74283927D01*
G37*
G36*
X92873512Y-74283927D02*
G01*
X93022812Y-74313624D01*
X93186784Y-74381544D01*
X93334354Y-74480147D01*
X93459853Y-74605646D01*
X93558456Y-74753216D01*
X93626376Y-74917188D01*
X93661000Y-75091259D01*
X93661000Y-75268741D01*
X93626376Y-75442812D01*
X93558456Y-75606784D01*
X93459853Y-75754354D01*
X93334354Y-75879853D01*
X93186784Y-75978456D01*
X93022812Y-76046376D01*
X92873512Y-76076073D01*
X92848742Y-76081000D01*
X92671258Y-76081000D01*
X92646488Y-76076073D01*
X92497188Y-76046376D01*
X92333216Y-75978456D01*
X92185646Y-75879853D01*
X92060147Y-75754354D01*
X91961544Y-75606784D01*
X91893624Y-75442812D01*
X91859000Y-75268741D01*
X91859000Y-75091259D01*
X91893624Y-74917188D01*
X91961544Y-74753216D01*
X92060147Y-74605646D01*
X92185646Y-74480147D01*
X92333216Y-74381544D01*
X92497188Y-74313624D01*
X92646488Y-74283927D01*
X92671258Y-74279000D01*
X92848742Y-74279000D01*
X92873512Y-74283927D01*
G37*
G36*
X137477142Y-73288242D02*
G01*
X137625101Y-73349529D01*
X137758255Y-73438499D01*
X137871501Y-73551745D01*
X137960471Y-73684899D01*
X138021758Y-73832858D01*
X138053000Y-73989925D01*
X138053000Y-74150075D01*
X138021758Y-74307142D01*
X137960471Y-74455101D01*
X137871501Y-74588255D01*
X137758255Y-74701501D01*
X137625101Y-74790471D01*
X137477142Y-74851758D01*
X137320075Y-74883000D01*
X137159925Y-74883000D01*
X137002858Y-74851758D01*
X136854899Y-74790471D01*
X136721745Y-74701501D01*
X136608499Y-74588255D01*
X136519529Y-74455101D01*
X136458242Y-74307142D01*
X136427000Y-74150075D01*
X136427000Y-73989925D01*
X136458242Y-73832858D01*
X136519529Y-73684899D01*
X136608499Y-73551745D01*
X136721745Y-73438499D01*
X136854899Y-73349529D01*
X137002858Y-73288242D01*
X137159925Y-73257000D01*
X137320075Y-73257000D01*
X137477142Y-73288242D01*
G37*
G36*
X122237142Y-73288242D02*
G01*
X122385101Y-73349529D01*
X122518255Y-73438499D01*
X122631501Y-73551745D01*
X122720471Y-73684899D01*
X122781758Y-73832858D01*
X122813000Y-73989925D01*
X122813000Y-74150075D01*
X122781758Y-74307142D01*
X122720471Y-74455101D01*
X122631501Y-74588255D01*
X122518255Y-74701501D01*
X122385101Y-74790471D01*
X122237142Y-74851758D01*
X122080075Y-74883000D01*
X121919925Y-74883000D01*
X121762858Y-74851758D01*
X121614899Y-74790471D01*
X121481745Y-74701501D01*
X121368499Y-74588255D01*
X121279529Y-74455101D01*
X121218242Y-74307142D01*
X121187000Y-74150075D01*
X121187000Y-73989925D01*
X121218242Y-73832858D01*
X121279529Y-73684899D01*
X121368499Y-73551745D01*
X121481745Y-73438499D01*
X121614899Y-73349529D01*
X121762858Y-73288242D01*
X121919925Y-73257000D01*
X122080075Y-73257000D01*
X122237142Y-73288242D01*
G37*
G36*
X143669923Y-73005736D02*
G01*
X143754061Y-73022472D01*
X143912573Y-73088130D01*
X144055230Y-73183450D01*
X144176550Y-73304770D01*
X144271870Y-73447427D01*
X144337528Y-73605939D01*
X144371000Y-73774214D01*
X144371000Y-73945786D01*
X144337528Y-74114061D01*
X144271870Y-74272573D01*
X144176550Y-74415230D01*
X144055230Y-74536550D01*
X143912573Y-74631870D01*
X143754061Y-74697528D01*
X143734097Y-74701499D01*
X143585787Y-74731000D01*
X143414213Y-74731000D01*
X143265903Y-74701499D01*
X143245939Y-74697528D01*
X143087427Y-74631870D01*
X142944770Y-74536550D01*
X142823450Y-74415230D01*
X142728130Y-74272573D01*
X142662472Y-74114061D01*
X142629000Y-73945786D01*
X142629000Y-73774214D01*
X142662472Y-73605939D01*
X142728130Y-73447427D01*
X142823450Y-73304770D01*
X142944770Y-73183450D01*
X143087427Y-73088130D01*
X143245939Y-73022472D01*
X143330077Y-73005736D01*
X143414213Y-72989000D01*
X143585787Y-72989000D01*
X143669923Y-73005736D01*
G37*
G36*
X146209923Y-73005736D02*
G01*
X146294061Y-73022472D01*
X146452573Y-73088130D01*
X146595230Y-73183450D01*
X146716550Y-73304770D01*
X146811870Y-73447427D01*
X146877528Y-73605939D01*
X146911000Y-73774214D01*
X146911000Y-73945786D01*
X146877528Y-74114061D01*
X146811870Y-74272573D01*
X146716550Y-74415230D01*
X146595230Y-74536550D01*
X146452573Y-74631870D01*
X146294061Y-74697528D01*
X146274097Y-74701499D01*
X146125787Y-74731000D01*
X145954213Y-74731000D01*
X145805903Y-74701499D01*
X145785939Y-74697528D01*
X145627427Y-74631870D01*
X145484770Y-74536550D01*
X145363450Y-74415230D01*
X145268130Y-74272573D01*
X145202472Y-74114061D01*
X145169000Y-73945786D01*
X145169000Y-73774214D01*
X145202472Y-73605939D01*
X145268130Y-73447427D01*
X145363450Y-73304770D01*
X145484770Y-73183450D01*
X145627427Y-73088130D01*
X145785939Y-73022472D01*
X145870077Y-73005736D01*
X145954213Y-72989000D01*
X146125787Y-72989000D01*
X146209923Y-73005736D01*
G37*
G36*
X92873512Y-71743927D02*
G01*
X93022812Y-71773624D01*
X93186784Y-71841544D01*
X93334354Y-71940147D01*
X93459853Y-72065646D01*
X93558456Y-72213216D01*
X93626376Y-72377188D01*
X93661000Y-72551259D01*
X93661000Y-72728741D01*
X93626376Y-72902812D01*
X93558456Y-73066784D01*
X93459853Y-73214354D01*
X93334354Y-73339853D01*
X93186784Y-73438456D01*
X93022812Y-73506376D01*
X92873512Y-73536073D01*
X92848742Y-73541000D01*
X92671258Y-73541000D01*
X92646488Y-73536073D01*
X92497188Y-73506376D01*
X92333216Y-73438456D01*
X92185646Y-73339853D01*
X92060147Y-73214354D01*
X91961544Y-73066784D01*
X91893624Y-72902812D01*
X91859000Y-72728741D01*
X91859000Y-72551259D01*
X91893624Y-72377188D01*
X91961544Y-72213216D01*
X92060147Y-72065646D01*
X92185646Y-71940147D01*
X92333216Y-71841544D01*
X92497188Y-71773624D01*
X92646488Y-71743927D01*
X92671258Y-71739000D01*
X92848742Y-71739000D01*
X92873512Y-71743927D01*
G37*
G36*
X95413512Y-71743927D02*
G01*
X95562812Y-71773624D01*
X95726784Y-71841544D01*
X95874354Y-71940147D01*
X95999853Y-72065646D01*
X96098456Y-72213216D01*
X96166376Y-72377188D01*
X96201000Y-72551259D01*
X96201000Y-72728741D01*
X96166376Y-72902812D01*
X96098456Y-73066784D01*
X95999853Y-73214354D01*
X95874354Y-73339853D01*
X95726784Y-73438456D01*
X95562812Y-73506376D01*
X95413512Y-73536073D01*
X95388742Y-73541000D01*
X95211258Y-73541000D01*
X95186488Y-73536073D01*
X95037188Y-73506376D01*
X94873216Y-73438456D01*
X94725646Y-73339853D01*
X94600147Y-73214354D01*
X94501544Y-73066784D01*
X94433624Y-72902812D01*
X94399000Y-72728741D01*
X94399000Y-72551259D01*
X94433624Y-72377188D01*
X94501544Y-72213216D01*
X94600147Y-72065646D01*
X94725646Y-71940147D01*
X94873216Y-71841544D01*
X95037188Y-71773624D01*
X95186488Y-71743927D01*
X95211258Y-71739000D01*
X95388742Y-71739000D01*
X95413512Y-71743927D01*
G37*
G36*
X122237142Y-70748242D02*
G01*
X122385101Y-70809529D01*
X122518255Y-70898499D01*
X122631501Y-71011745D01*
X122720471Y-71144899D01*
X122781758Y-71292858D01*
X122813000Y-71449925D01*
X122813000Y-71610075D01*
X122781758Y-71767142D01*
X122720471Y-71915101D01*
X122631501Y-72048255D01*
X122518255Y-72161501D01*
X122385101Y-72250471D01*
X122237142Y-72311758D01*
X122080075Y-72343000D01*
X121919925Y-72343000D01*
X121762858Y-72311758D01*
X121614899Y-72250471D01*
X121481745Y-72161501D01*
X121368499Y-72048255D01*
X121279529Y-71915101D01*
X121218242Y-71767142D01*
X121187000Y-71610075D01*
X121187000Y-71449925D01*
X121218242Y-71292858D01*
X121279529Y-71144899D01*
X121368499Y-71011745D01*
X121481745Y-70898499D01*
X121614899Y-70809529D01*
X121762858Y-70748242D01*
X121919925Y-70717000D01*
X122080075Y-70717000D01*
X122237142Y-70748242D01*
G37*
G36*
X137477142Y-70748242D02*
G01*
X137625101Y-70809529D01*
X137758255Y-70898499D01*
X137871501Y-71011745D01*
X137960471Y-71144899D01*
X138021758Y-71292858D01*
X138053000Y-71449925D01*
X138053000Y-71610075D01*
X138021758Y-71767142D01*
X137960471Y-71915101D01*
X137871501Y-72048255D01*
X137758255Y-72161501D01*
X137625101Y-72250471D01*
X137477142Y-72311758D01*
X137320075Y-72343000D01*
X137159925Y-72343000D01*
X137002858Y-72311758D01*
X136854899Y-72250471D01*
X136721745Y-72161501D01*
X136608499Y-72048255D01*
X136519529Y-71915101D01*
X136458242Y-71767142D01*
X136427000Y-71610075D01*
X136427000Y-71449925D01*
X136458242Y-71292858D01*
X136519529Y-71144899D01*
X136608499Y-71011745D01*
X136721745Y-70898499D01*
X136854899Y-70809529D01*
X137002858Y-70748242D01*
X137159925Y-70717000D01*
X137320075Y-70717000D01*
X137477142Y-70748242D01*
G37*
G36*
X146294061Y-70482472D02*
G01*
X146452573Y-70548130D01*
X146595230Y-70643450D01*
X146716550Y-70764770D01*
X146811870Y-70907427D01*
X146877528Y-71065939D01*
X146911000Y-71234214D01*
X146911000Y-71405786D01*
X146877528Y-71574061D01*
X146811870Y-71732573D01*
X146716550Y-71875230D01*
X146595230Y-71996550D01*
X146452573Y-72091870D01*
X146294061Y-72157528D01*
X146274097Y-72161499D01*
X146125787Y-72191000D01*
X145954213Y-72191000D01*
X145805903Y-72161499D01*
X145785939Y-72157528D01*
X145627427Y-72091870D01*
X145484770Y-71996550D01*
X145363450Y-71875230D01*
X145268130Y-71732573D01*
X145202472Y-71574061D01*
X145169000Y-71405786D01*
X145169000Y-71234214D01*
X145202472Y-71065939D01*
X145268130Y-70907427D01*
X145363450Y-70764770D01*
X145484770Y-70643450D01*
X145627427Y-70548130D01*
X145785939Y-70482472D01*
X145954213Y-70449000D01*
X146125787Y-70449000D01*
X146294061Y-70482472D01*
G37*
G36*
X143754061Y-70482472D02*
G01*
X143912573Y-70548130D01*
X144055230Y-70643450D01*
X144176550Y-70764770D01*
X144271870Y-70907427D01*
X144337528Y-71065939D01*
X144371000Y-71234214D01*
X144371000Y-71405786D01*
X144337528Y-71574061D01*
X144271870Y-71732573D01*
X144176550Y-71875230D01*
X144055230Y-71996550D01*
X143912573Y-72091870D01*
X143754061Y-72157528D01*
X143734097Y-72161499D01*
X143585787Y-72191000D01*
X143414213Y-72191000D01*
X143265903Y-72161499D01*
X143245939Y-72157528D01*
X143087427Y-72091870D01*
X142944770Y-71996550D01*
X142823450Y-71875230D01*
X142728130Y-71732573D01*
X142662472Y-71574061D01*
X142629000Y-71405786D01*
X142629000Y-71234214D01*
X142662472Y-71065939D01*
X142728130Y-70907427D01*
X142823450Y-70764770D01*
X142944770Y-70643450D01*
X143087427Y-70548130D01*
X143245939Y-70482472D01*
X143414213Y-70449000D01*
X143585787Y-70449000D01*
X143754061Y-70482472D01*
G37*
G36*
X95413512Y-69203927D02*
G01*
X95562812Y-69233624D01*
X95726784Y-69301544D01*
X95874354Y-69400147D01*
X95999853Y-69525646D01*
X96098456Y-69673216D01*
X96166376Y-69837188D01*
X96201000Y-70011259D01*
X96201000Y-70188741D01*
X96166376Y-70362812D01*
X96098456Y-70526784D01*
X95999853Y-70674354D01*
X95874354Y-70799853D01*
X95726784Y-70898456D01*
X95562812Y-70966376D01*
X95413512Y-70996073D01*
X95388742Y-71001000D01*
X95211258Y-71001000D01*
X95186488Y-70996073D01*
X95037188Y-70966376D01*
X94873216Y-70898456D01*
X94725646Y-70799853D01*
X94600147Y-70674354D01*
X94501544Y-70526784D01*
X94433624Y-70362812D01*
X94399000Y-70188741D01*
X94399000Y-70011259D01*
X94433624Y-69837188D01*
X94501544Y-69673216D01*
X94600147Y-69525646D01*
X94725646Y-69400147D01*
X94873216Y-69301544D01*
X95037188Y-69233624D01*
X95186488Y-69203927D01*
X95211258Y-69199000D01*
X95388742Y-69199000D01*
X95413512Y-69203927D01*
G37*
G36*
X92873512Y-69203927D02*
G01*
X93022812Y-69233624D01*
X93186784Y-69301544D01*
X93334354Y-69400147D01*
X93459853Y-69525646D01*
X93558456Y-69673216D01*
X93626376Y-69837188D01*
X93661000Y-70011259D01*
X93661000Y-70188741D01*
X93626376Y-70362812D01*
X93558456Y-70526784D01*
X93459853Y-70674354D01*
X93334354Y-70799853D01*
X93186784Y-70898456D01*
X93022812Y-70966376D01*
X92873512Y-70996073D01*
X92848742Y-71001000D01*
X92671258Y-71001000D01*
X92646488Y-70996073D01*
X92497188Y-70966376D01*
X92333216Y-70898456D01*
X92185646Y-70799853D01*
X92060147Y-70674354D01*
X91961544Y-70526784D01*
X91893624Y-70362812D01*
X91859000Y-70188741D01*
X91859000Y-70011259D01*
X91893624Y-69837188D01*
X91961544Y-69673216D01*
X92060147Y-69525646D01*
X92185646Y-69400147D01*
X92333216Y-69301544D01*
X92497188Y-69233624D01*
X92646488Y-69203927D01*
X92671258Y-69199000D01*
X92848742Y-69199000D01*
X92873512Y-69203927D01*
G37*
G36*
X137477142Y-68208242D02*
G01*
X137625101Y-68269529D01*
X137758255Y-68358499D01*
X137871501Y-68471745D01*
X137960471Y-68604899D01*
X138021758Y-68752858D01*
X138053000Y-68909925D01*
X138053000Y-69070075D01*
X138021758Y-69227142D01*
X137960471Y-69375101D01*
X137871501Y-69508255D01*
X137758255Y-69621501D01*
X137625101Y-69710471D01*
X137477142Y-69771758D01*
X137320075Y-69803000D01*
X137159925Y-69803000D01*
X137002858Y-69771758D01*
X136854899Y-69710471D01*
X136721745Y-69621501D01*
X136608499Y-69508255D01*
X136519529Y-69375101D01*
X136458242Y-69227142D01*
X136427000Y-69070075D01*
X136427000Y-68909925D01*
X136458242Y-68752858D01*
X136519529Y-68604899D01*
X136608499Y-68471745D01*
X136721745Y-68358499D01*
X136854899Y-68269529D01*
X137002858Y-68208242D01*
X137159925Y-68177000D01*
X137320075Y-68177000D01*
X137477142Y-68208242D01*
G37*
G36*
X122237142Y-68208242D02*
G01*
X122385101Y-68269529D01*
X122518255Y-68358499D01*
X122631501Y-68471745D01*
X122720471Y-68604899D01*
X122781758Y-68752858D01*
X122813000Y-68909925D01*
X122813000Y-69070075D01*
X122781758Y-69227142D01*
X122720471Y-69375101D01*
X122631501Y-69508255D01*
X122518255Y-69621501D01*
X122385101Y-69710471D01*
X122237142Y-69771758D01*
X122080075Y-69803000D01*
X121919925Y-69803000D01*
X121762858Y-69771758D01*
X121614899Y-69710471D01*
X121481745Y-69621501D01*
X121368499Y-69508255D01*
X121279529Y-69375101D01*
X121218242Y-69227142D01*
X121187000Y-69070075D01*
X121187000Y-68909925D01*
X121218242Y-68752858D01*
X121279529Y-68604899D01*
X121368499Y-68471745D01*
X121481745Y-68358499D01*
X121614899Y-68269529D01*
X121762858Y-68208242D01*
X121919925Y-68177000D01*
X122080075Y-68177000D01*
X122237142Y-68208242D01*
G37*
G36*
X143669923Y-67925736D02*
G01*
X143754061Y-67942472D01*
X143912573Y-68008130D01*
X144055230Y-68103450D01*
X144176550Y-68224770D01*
X144271870Y-68367427D01*
X144337528Y-68525939D01*
X144371000Y-68694214D01*
X144371000Y-68865786D01*
X144337528Y-69034061D01*
X144271870Y-69192573D01*
X144176550Y-69335230D01*
X144055230Y-69456550D01*
X143912573Y-69551870D01*
X143754061Y-69617528D01*
X143734097Y-69621499D01*
X143585787Y-69651000D01*
X143414213Y-69651000D01*
X143265903Y-69621499D01*
X143245939Y-69617528D01*
X143087427Y-69551870D01*
X142944770Y-69456550D01*
X142823450Y-69335230D01*
X142728130Y-69192573D01*
X142662472Y-69034061D01*
X142629000Y-68865786D01*
X142629000Y-68694214D01*
X142662472Y-68525939D01*
X142728130Y-68367427D01*
X142823450Y-68224770D01*
X142944770Y-68103450D01*
X143087427Y-68008130D01*
X143245939Y-67942472D01*
X143330077Y-67925736D01*
X143414213Y-67909000D01*
X143585787Y-67909000D01*
X143669923Y-67925736D01*
G37*
G36*
X146209923Y-67925736D02*
G01*
X146294061Y-67942472D01*
X146452573Y-68008130D01*
X146595230Y-68103450D01*
X146716550Y-68224770D01*
X146811870Y-68367427D01*
X146877528Y-68525939D01*
X146911000Y-68694214D01*
X146911000Y-68865786D01*
X146877528Y-69034061D01*
X146811870Y-69192573D01*
X146716550Y-69335230D01*
X146595230Y-69456550D01*
X146452573Y-69551870D01*
X146294061Y-69617528D01*
X146274097Y-69621499D01*
X146125787Y-69651000D01*
X145954213Y-69651000D01*
X145805903Y-69621499D01*
X145785939Y-69617528D01*
X145627427Y-69551870D01*
X145484770Y-69456550D01*
X145363450Y-69335230D01*
X145268130Y-69192573D01*
X145202472Y-69034061D01*
X145169000Y-68865786D01*
X145169000Y-68694214D01*
X145202472Y-68525939D01*
X145268130Y-68367427D01*
X145363450Y-68224770D01*
X145484770Y-68103450D01*
X145627427Y-68008130D01*
X145785939Y-67942472D01*
X145870077Y-67925736D01*
X145954213Y-67909000D01*
X146125787Y-67909000D01*
X146209923Y-67925736D01*
G37*
G36*
X92873512Y-66663927D02*
G01*
X93022812Y-66693624D01*
X93186784Y-66761544D01*
X93334354Y-66860147D01*
X93459853Y-66985646D01*
X93558456Y-67133216D01*
X93626376Y-67297188D01*
X93661000Y-67471259D01*
X93661000Y-67648741D01*
X93626376Y-67822812D01*
X93558456Y-67986784D01*
X93459853Y-68134354D01*
X93334354Y-68259853D01*
X93186784Y-68358456D01*
X93022812Y-68426376D01*
X92873512Y-68456073D01*
X92848742Y-68461000D01*
X92671258Y-68461000D01*
X92646488Y-68456073D01*
X92497188Y-68426376D01*
X92333216Y-68358456D01*
X92185646Y-68259853D01*
X92060147Y-68134354D01*
X91961544Y-67986784D01*
X91893624Y-67822812D01*
X91859000Y-67648741D01*
X91859000Y-67471259D01*
X91893624Y-67297188D01*
X91961544Y-67133216D01*
X92060147Y-66985646D01*
X92185646Y-66860147D01*
X92333216Y-66761544D01*
X92497188Y-66693624D01*
X92646488Y-66663927D01*
X92671258Y-66659000D01*
X92848742Y-66659000D01*
X92873512Y-66663927D01*
G37*
G36*
X95413512Y-66663927D02*
G01*
X95562812Y-66693624D01*
X95726784Y-66761544D01*
X95874354Y-66860147D01*
X95999853Y-66985646D01*
X96098456Y-67133216D01*
X96166376Y-67297188D01*
X96201000Y-67471259D01*
X96201000Y-67648741D01*
X96166376Y-67822812D01*
X96098456Y-67986784D01*
X95999853Y-68134354D01*
X95874354Y-68259853D01*
X95726784Y-68358456D01*
X95562812Y-68426376D01*
X95413512Y-68456073D01*
X95388742Y-68461000D01*
X95211258Y-68461000D01*
X95186488Y-68456073D01*
X95037188Y-68426376D01*
X94873216Y-68358456D01*
X94725646Y-68259853D01*
X94600147Y-68134354D01*
X94501544Y-67986784D01*
X94433624Y-67822812D01*
X94399000Y-67648741D01*
X94399000Y-67471259D01*
X94433624Y-67297188D01*
X94501544Y-67133216D01*
X94600147Y-66985646D01*
X94725646Y-66860147D01*
X94873216Y-66761544D01*
X95037188Y-66693624D01*
X95186488Y-66663927D01*
X95211258Y-66659000D01*
X95388742Y-66659000D01*
X95413512Y-66663927D01*
G37*
G36*
X122237142Y-65668242D02*
G01*
X122385101Y-65729529D01*
X122518255Y-65818499D01*
X122631501Y-65931745D01*
X122720471Y-66064899D01*
X122781758Y-66212858D01*
X122813000Y-66369925D01*
X122813000Y-66530075D01*
X122781758Y-66687142D01*
X122720471Y-66835101D01*
X122631501Y-66968255D01*
X122518255Y-67081501D01*
X122385101Y-67170471D01*
X122237142Y-67231758D01*
X122080075Y-67263000D01*
X121919925Y-67263000D01*
X121762858Y-67231758D01*
X121614899Y-67170471D01*
X121481745Y-67081501D01*
X121368499Y-66968255D01*
X121279529Y-66835101D01*
X121218242Y-66687142D01*
X121187000Y-66530075D01*
X121187000Y-66369925D01*
X121218242Y-66212858D01*
X121279529Y-66064899D01*
X121368499Y-65931745D01*
X121481745Y-65818499D01*
X121614899Y-65729529D01*
X121762858Y-65668242D01*
X121919925Y-65637000D01*
X122080075Y-65637000D01*
X122237142Y-65668242D01*
G37*
G36*
X137477142Y-65668242D02*
G01*
X137625101Y-65729529D01*
X137758255Y-65818499D01*
X137871501Y-65931745D01*
X137960471Y-66064899D01*
X138021758Y-66212858D01*
X138053000Y-66369925D01*
X138053000Y-66530075D01*
X138021758Y-66687142D01*
X137960471Y-66835101D01*
X137871501Y-66968255D01*
X137758255Y-67081501D01*
X137625101Y-67170471D01*
X137477142Y-67231758D01*
X137320075Y-67263000D01*
X137159925Y-67263000D01*
X137002858Y-67231758D01*
X136854899Y-67170471D01*
X136721745Y-67081501D01*
X136608499Y-66968255D01*
X136519529Y-66835101D01*
X136458242Y-66687142D01*
X136427000Y-66530075D01*
X136427000Y-66369925D01*
X136458242Y-66212858D01*
X136519529Y-66064899D01*
X136608499Y-65931745D01*
X136721745Y-65818499D01*
X136854899Y-65729529D01*
X137002858Y-65668242D01*
X137159925Y-65637000D01*
X137320075Y-65637000D01*
X137477142Y-65668242D01*
G37*
G36*
X143754061Y-65402472D02*
G01*
X143912573Y-65468130D01*
X144055230Y-65563450D01*
X144176550Y-65684770D01*
X144271870Y-65827427D01*
X144337528Y-65985939D01*
X144371000Y-66154214D01*
X144371000Y-66325786D01*
X144337528Y-66494061D01*
X144271870Y-66652573D01*
X144176550Y-66795230D01*
X144055230Y-66916550D01*
X143912573Y-67011870D01*
X143754061Y-67077528D01*
X143734097Y-67081499D01*
X143585787Y-67111000D01*
X143414213Y-67111000D01*
X143265903Y-67081499D01*
X143245939Y-67077528D01*
X143087427Y-67011870D01*
X142944770Y-66916550D01*
X142823450Y-66795230D01*
X142728130Y-66652573D01*
X142662472Y-66494061D01*
X142629000Y-66325786D01*
X142629000Y-66154214D01*
X142662472Y-65985939D01*
X142728130Y-65827427D01*
X142823450Y-65684770D01*
X142944770Y-65563450D01*
X143087427Y-65468130D01*
X143245939Y-65402472D01*
X143414213Y-65369000D01*
X143585787Y-65369000D01*
X143754061Y-65402472D01*
G37*
G36*
X146294061Y-65402472D02*
G01*
X146452573Y-65468130D01*
X146595230Y-65563450D01*
X146716550Y-65684770D01*
X146811870Y-65827427D01*
X146877528Y-65985939D01*
X146911000Y-66154214D01*
X146911000Y-66325786D01*
X146877528Y-66494061D01*
X146811870Y-66652573D01*
X146716550Y-66795230D01*
X146595230Y-66916550D01*
X146452573Y-67011870D01*
X146294061Y-67077528D01*
X146274097Y-67081499D01*
X146125787Y-67111000D01*
X145954213Y-67111000D01*
X145805903Y-67081499D01*
X145785939Y-67077528D01*
X145627427Y-67011870D01*
X145484770Y-66916550D01*
X145363450Y-66795230D01*
X145268130Y-66652573D01*
X145202472Y-66494061D01*
X145169000Y-66325786D01*
X145169000Y-66154214D01*
X145202472Y-65985939D01*
X145268130Y-65827427D01*
X145363450Y-65684770D01*
X145484770Y-65563450D01*
X145627427Y-65468130D01*
X145785939Y-65402472D01*
X145954213Y-65369000D01*
X146125787Y-65369000D01*
X146294061Y-65402472D01*
G37*
G36*
X95413512Y-64123927D02*
G01*
X95562812Y-64153624D01*
X95726784Y-64221544D01*
X95874354Y-64320147D01*
X95999853Y-64445646D01*
X96098456Y-64593216D01*
X96166376Y-64757188D01*
X96201000Y-64931259D01*
X96201000Y-65108741D01*
X96166376Y-65282812D01*
X96098456Y-65446784D01*
X95999853Y-65594354D01*
X95874354Y-65719853D01*
X95726784Y-65818456D01*
X95562812Y-65886376D01*
X95413512Y-65916073D01*
X95388742Y-65921000D01*
X95211258Y-65921000D01*
X95186488Y-65916073D01*
X95037188Y-65886376D01*
X94873216Y-65818456D01*
X94725646Y-65719853D01*
X94600147Y-65594354D01*
X94501544Y-65446784D01*
X94433624Y-65282812D01*
X94399000Y-65108741D01*
X94399000Y-64931259D01*
X94433624Y-64757188D01*
X94501544Y-64593216D01*
X94600147Y-64445646D01*
X94725646Y-64320147D01*
X94873216Y-64221544D01*
X95037188Y-64153624D01*
X95186488Y-64123927D01*
X95211258Y-64119000D01*
X95388742Y-64119000D01*
X95413512Y-64123927D01*
G37*
G36*
X92873512Y-64123927D02*
G01*
X93022812Y-64153624D01*
X93186784Y-64221544D01*
X93334354Y-64320147D01*
X93459853Y-64445646D01*
X93558456Y-64593216D01*
X93626376Y-64757188D01*
X93661000Y-64931259D01*
X93661000Y-65108741D01*
X93626376Y-65282812D01*
X93558456Y-65446784D01*
X93459853Y-65594354D01*
X93334354Y-65719853D01*
X93186784Y-65818456D01*
X93022812Y-65886376D01*
X92873512Y-65916073D01*
X92848742Y-65921000D01*
X92671258Y-65921000D01*
X92646488Y-65916073D01*
X92497188Y-65886376D01*
X92333216Y-65818456D01*
X92185646Y-65719853D01*
X92060147Y-65594354D01*
X91961544Y-65446784D01*
X91893624Y-65282812D01*
X91859000Y-65108741D01*
X91859000Y-64931259D01*
X91893624Y-64757188D01*
X91961544Y-64593216D01*
X92060147Y-64445646D01*
X92185646Y-64320147D01*
X92333216Y-64221544D01*
X92497188Y-64153624D01*
X92646488Y-64123927D01*
X92671258Y-64119000D01*
X92848742Y-64119000D01*
X92873512Y-64123927D01*
G37*
G36*
X122237142Y-63128242D02*
G01*
X122385101Y-63189529D01*
X122518255Y-63278499D01*
X122631501Y-63391745D01*
X122720471Y-63524899D01*
X122781758Y-63672858D01*
X122813000Y-63829925D01*
X122813000Y-63990075D01*
X122781758Y-64147142D01*
X122720471Y-64295101D01*
X122631501Y-64428255D01*
X122518255Y-64541501D01*
X122385101Y-64630471D01*
X122237142Y-64691758D01*
X122080075Y-64723000D01*
X121919925Y-64723000D01*
X121762858Y-64691758D01*
X121614899Y-64630471D01*
X121481745Y-64541501D01*
X121368499Y-64428255D01*
X121279529Y-64295101D01*
X121218242Y-64147142D01*
X121187000Y-63990075D01*
X121187000Y-63829925D01*
X121218242Y-63672858D01*
X121279529Y-63524899D01*
X121368499Y-63391745D01*
X121481745Y-63278499D01*
X121614899Y-63189529D01*
X121762858Y-63128242D01*
X121919925Y-63097000D01*
X122080075Y-63097000D01*
X122237142Y-63128242D01*
G37*
G36*
X137477142Y-63128242D02*
G01*
X137625101Y-63189529D01*
X137758255Y-63278499D01*
X137871501Y-63391745D01*
X137960471Y-63524899D01*
X138021758Y-63672858D01*
X138053000Y-63829925D01*
X138053000Y-63990075D01*
X138021758Y-64147142D01*
X137960471Y-64295101D01*
X137871501Y-64428255D01*
X137758255Y-64541501D01*
X137625101Y-64630471D01*
X137477142Y-64691758D01*
X137320075Y-64723000D01*
X137159925Y-64723000D01*
X137002858Y-64691758D01*
X136854899Y-64630471D01*
X136721745Y-64541501D01*
X136608499Y-64428255D01*
X136519529Y-64295101D01*
X136458242Y-64147142D01*
X136427000Y-63990075D01*
X136427000Y-63829925D01*
X136458242Y-63672858D01*
X136519529Y-63524899D01*
X136608499Y-63391745D01*
X136721745Y-63278499D01*
X136854899Y-63189529D01*
X137002858Y-63128242D01*
X137159925Y-63097000D01*
X137320075Y-63097000D01*
X137477142Y-63128242D01*
G37*
G36*
X146294061Y-62862472D02*
G01*
X146452573Y-62928130D01*
X146595230Y-63023450D01*
X146716550Y-63144770D01*
X146811870Y-63287427D01*
X146877528Y-63445939D01*
X146911000Y-63614214D01*
X146911000Y-63785786D01*
X146877528Y-63954061D01*
X146811870Y-64112573D01*
X146716550Y-64255230D01*
X146595230Y-64376550D01*
X146452573Y-64471870D01*
X146294061Y-64537528D01*
X146274097Y-64541499D01*
X146125787Y-64571000D01*
X145954213Y-64571000D01*
X145805903Y-64541499D01*
X145785939Y-64537528D01*
X145627427Y-64471870D01*
X145484770Y-64376550D01*
X145363450Y-64255230D01*
X145268130Y-64112573D01*
X145202472Y-63954061D01*
X145169000Y-63785786D01*
X145169000Y-63614214D01*
X145202472Y-63445939D01*
X145268130Y-63287427D01*
X145363450Y-63144770D01*
X145484770Y-63023450D01*
X145627427Y-62928130D01*
X145785939Y-62862472D01*
X145954213Y-62829000D01*
X146125787Y-62829000D01*
X146294061Y-62862472D01*
G37*
G36*
X143754061Y-62862472D02*
G01*
X143912573Y-62928130D01*
X144055230Y-63023450D01*
X144176550Y-63144770D01*
X144271870Y-63287427D01*
X144337528Y-63445939D01*
X144371000Y-63614214D01*
X144371000Y-63785786D01*
X144337528Y-63954061D01*
X144271870Y-64112573D01*
X144176550Y-64255230D01*
X144055230Y-64376550D01*
X143912573Y-64471870D01*
X143754061Y-64537528D01*
X143734097Y-64541499D01*
X143585787Y-64571000D01*
X143414213Y-64571000D01*
X143265903Y-64541499D01*
X143245939Y-64537528D01*
X143087427Y-64471870D01*
X142944770Y-64376550D01*
X142823450Y-64255230D01*
X142728130Y-64112573D01*
X142662472Y-63954061D01*
X142629000Y-63785786D01*
X142629000Y-63614214D01*
X142662472Y-63445939D01*
X142728130Y-63287427D01*
X142823450Y-63144770D01*
X142944770Y-63023450D01*
X143087427Y-62928130D01*
X143245939Y-62862472D01*
X143414213Y-62829000D01*
X143585787Y-62829000D01*
X143754061Y-62862472D01*
G37*
G36*
X92873512Y-61583927D02*
G01*
X93022812Y-61613624D01*
X93186784Y-61681544D01*
X93334354Y-61780147D01*
X93459853Y-61905646D01*
X93558456Y-62053216D01*
X93626376Y-62217188D01*
X93661000Y-62391259D01*
X93661000Y-62568741D01*
X93626376Y-62742812D01*
X93558456Y-62906784D01*
X93459853Y-63054354D01*
X93334354Y-63179853D01*
X93186784Y-63278456D01*
X93022812Y-63346376D01*
X92873512Y-63376073D01*
X92848742Y-63381000D01*
X92671258Y-63381000D01*
X92646488Y-63376073D01*
X92497188Y-63346376D01*
X92333216Y-63278456D01*
X92185646Y-63179853D01*
X92060147Y-63054354D01*
X91961544Y-62906784D01*
X91893624Y-62742812D01*
X91859000Y-62568741D01*
X91859000Y-62391259D01*
X91893624Y-62217188D01*
X91961544Y-62053216D01*
X92060147Y-61905646D01*
X92185646Y-61780147D01*
X92333216Y-61681544D01*
X92497188Y-61613624D01*
X92646488Y-61583927D01*
X92671258Y-61579000D01*
X92848742Y-61579000D01*
X92873512Y-61583927D01*
G37*
G36*
X95413512Y-61583927D02*
G01*
X95562812Y-61613624D01*
X95726784Y-61681544D01*
X95874354Y-61780147D01*
X95999853Y-61905646D01*
X96098456Y-62053216D01*
X96166376Y-62217188D01*
X96201000Y-62391259D01*
X96201000Y-62568741D01*
X96166376Y-62742812D01*
X96098456Y-62906784D01*
X95999853Y-63054354D01*
X95874354Y-63179853D01*
X95726784Y-63278456D01*
X95562812Y-63346376D01*
X95413512Y-63376073D01*
X95388742Y-63381000D01*
X95211258Y-63381000D01*
X95186488Y-63376073D01*
X95037188Y-63346376D01*
X94873216Y-63278456D01*
X94725646Y-63179853D01*
X94600147Y-63054354D01*
X94501544Y-62906784D01*
X94433624Y-62742812D01*
X94399000Y-62568741D01*
X94399000Y-62391259D01*
X94433624Y-62217188D01*
X94501544Y-62053216D01*
X94600147Y-61905646D01*
X94725646Y-61780147D01*
X94873216Y-61681544D01*
X95037188Y-61613624D01*
X95186488Y-61583927D01*
X95211258Y-61579000D01*
X95388742Y-61579000D01*
X95413512Y-61583927D01*
G37*
G36*
X137477142Y-60588242D02*
G01*
X137625101Y-60649529D01*
X137758255Y-60738499D01*
X137871501Y-60851745D01*
X137960471Y-60984899D01*
X138021758Y-61132858D01*
X138053000Y-61289925D01*
X138053000Y-61450075D01*
X138021758Y-61607142D01*
X137960471Y-61755101D01*
X137871501Y-61888255D01*
X137758255Y-62001501D01*
X137625101Y-62090471D01*
X137477142Y-62151758D01*
X137320075Y-62183000D01*
X137159925Y-62183000D01*
X137002858Y-62151758D01*
X136854899Y-62090471D01*
X136721745Y-62001501D01*
X136608499Y-61888255D01*
X136519529Y-61755101D01*
X136458242Y-61607142D01*
X136427000Y-61450075D01*
X136427000Y-61289925D01*
X136458242Y-61132858D01*
X136519529Y-60984899D01*
X136608499Y-60851745D01*
X136721745Y-60738499D01*
X136854899Y-60649529D01*
X137002858Y-60588242D01*
X137159925Y-60557000D01*
X137320075Y-60557000D01*
X137477142Y-60588242D01*
G37*
G36*
X122237142Y-60588242D02*
G01*
X122385101Y-60649529D01*
X122518255Y-60738499D01*
X122631501Y-60851745D01*
X122720471Y-60984899D01*
X122781758Y-61132858D01*
X122813000Y-61289925D01*
X122813000Y-61450075D01*
X122781758Y-61607142D01*
X122720471Y-61755101D01*
X122631501Y-61888255D01*
X122518255Y-62001501D01*
X122385101Y-62090471D01*
X122237142Y-62151758D01*
X122080075Y-62183000D01*
X121919925Y-62183000D01*
X121762858Y-62151758D01*
X121614899Y-62090471D01*
X121481745Y-62001501D01*
X121368499Y-61888255D01*
X121279529Y-61755101D01*
X121218242Y-61607142D01*
X121187000Y-61450075D01*
X121187000Y-61289925D01*
X121218242Y-61132858D01*
X121279529Y-60984899D01*
X121368499Y-60851745D01*
X121481745Y-60738499D01*
X121614899Y-60649529D01*
X121762858Y-60588242D01*
X121919925Y-60557000D01*
X122080075Y-60557000D01*
X122237142Y-60588242D01*
G37*
G36*
X146294061Y-60322472D02*
G01*
X146452573Y-60388130D01*
X146595230Y-60483450D01*
X146716550Y-60604770D01*
X146811870Y-60747427D01*
X146877528Y-60905939D01*
X146911000Y-61074214D01*
X146911000Y-61245786D01*
X146877528Y-61414061D01*
X146811870Y-61572573D01*
X146716550Y-61715230D01*
X146595230Y-61836550D01*
X146452573Y-61931870D01*
X146294061Y-61997528D01*
X146274097Y-62001499D01*
X146125787Y-62031000D01*
X145954213Y-62031000D01*
X145805903Y-62001499D01*
X145785939Y-61997528D01*
X145627427Y-61931870D01*
X145484770Y-61836550D01*
X145363450Y-61715230D01*
X145268130Y-61572573D01*
X145202472Y-61414061D01*
X145169000Y-61245786D01*
X145169000Y-61074214D01*
X145202472Y-60905939D01*
X145268130Y-60747427D01*
X145363450Y-60604770D01*
X145484770Y-60483450D01*
X145627427Y-60388130D01*
X145785939Y-60322472D01*
X145954213Y-60289000D01*
X146125787Y-60289000D01*
X146294061Y-60322472D01*
G37*
G36*
X143754061Y-60322472D02*
G01*
X143912573Y-60388130D01*
X144055230Y-60483450D01*
X144176550Y-60604770D01*
X144271870Y-60747427D01*
X144337528Y-60905939D01*
X144371000Y-61074214D01*
X144371000Y-61245786D01*
X144337528Y-61414061D01*
X144271870Y-61572573D01*
X144176550Y-61715230D01*
X144055230Y-61836550D01*
X143912573Y-61931870D01*
X143754061Y-61997528D01*
X143734097Y-62001499D01*
X143585787Y-62031000D01*
X143414213Y-62031000D01*
X143265903Y-62001499D01*
X143245939Y-61997528D01*
X143087427Y-61931870D01*
X142944770Y-61836550D01*
X142823450Y-61715230D01*
X142728130Y-61572573D01*
X142662472Y-61414061D01*
X142629000Y-61245786D01*
X142629000Y-61074214D01*
X142662472Y-60905939D01*
X142728130Y-60747427D01*
X142823450Y-60604770D01*
X142944770Y-60483450D01*
X143087427Y-60388130D01*
X143245939Y-60322472D01*
X143414213Y-60289000D01*
X143585787Y-60289000D01*
X143754061Y-60322472D01*
G37*
G36*
X92873512Y-59043927D02*
G01*
X93022812Y-59073624D01*
X93186784Y-59141544D01*
X93334354Y-59240147D01*
X93459853Y-59365646D01*
X93558456Y-59513216D01*
X93626376Y-59677188D01*
X93661000Y-59851259D01*
X93661000Y-60028741D01*
X93626376Y-60202812D01*
X93558456Y-60366784D01*
X93459853Y-60514354D01*
X93334354Y-60639853D01*
X93186784Y-60738456D01*
X93022812Y-60806376D01*
X92873512Y-60836073D01*
X92848742Y-60841000D01*
X92671258Y-60841000D01*
X92646488Y-60836073D01*
X92497188Y-60806376D01*
X92333216Y-60738456D01*
X92185646Y-60639853D01*
X92060147Y-60514354D01*
X91961544Y-60366784D01*
X91893624Y-60202812D01*
X91859000Y-60028741D01*
X91859000Y-59851259D01*
X91893624Y-59677188D01*
X91961544Y-59513216D01*
X92060147Y-59365646D01*
X92185646Y-59240147D01*
X92333216Y-59141544D01*
X92497188Y-59073624D01*
X92646488Y-59043927D01*
X92671258Y-59039000D01*
X92848742Y-59039000D01*
X92873512Y-59043927D01*
G37*
G36*
X95413512Y-59043927D02*
G01*
X95562812Y-59073624D01*
X95726784Y-59141544D01*
X95874354Y-59240147D01*
X95999853Y-59365646D01*
X96098456Y-59513216D01*
X96166376Y-59677188D01*
X96201000Y-59851259D01*
X96201000Y-60028741D01*
X96166376Y-60202812D01*
X96098456Y-60366784D01*
X95999853Y-60514354D01*
X95874354Y-60639853D01*
X95726784Y-60738456D01*
X95562812Y-60806376D01*
X95413512Y-60836073D01*
X95388742Y-60841000D01*
X95211258Y-60841000D01*
X95186488Y-60836073D01*
X95037188Y-60806376D01*
X94873216Y-60738456D01*
X94725646Y-60639853D01*
X94600147Y-60514354D01*
X94501544Y-60366784D01*
X94433624Y-60202812D01*
X94399000Y-60028741D01*
X94399000Y-59851259D01*
X94433624Y-59677188D01*
X94501544Y-59513216D01*
X94600147Y-59365646D01*
X94725646Y-59240147D01*
X94873216Y-59141544D01*
X95037188Y-59073624D01*
X95186488Y-59043927D01*
X95211258Y-59039000D01*
X95388742Y-59039000D01*
X95413512Y-59043927D01*
G37*
G36*
X122237142Y-58048242D02*
G01*
X122385101Y-58109529D01*
X122518255Y-58198499D01*
X122631501Y-58311745D01*
X122720471Y-58444899D01*
X122781758Y-58592858D01*
X122813000Y-58749925D01*
X122813000Y-58910075D01*
X122781758Y-59067142D01*
X122720471Y-59215101D01*
X122631501Y-59348255D01*
X122518255Y-59461501D01*
X122385101Y-59550471D01*
X122237142Y-59611758D01*
X122080075Y-59643000D01*
X121919925Y-59643000D01*
X121762858Y-59611758D01*
X121614899Y-59550471D01*
X121481745Y-59461501D01*
X121368499Y-59348255D01*
X121279529Y-59215101D01*
X121218242Y-59067142D01*
X121187000Y-58910075D01*
X121187000Y-58749925D01*
X121218242Y-58592858D01*
X121279529Y-58444899D01*
X121368499Y-58311745D01*
X121481745Y-58198499D01*
X121614899Y-58109529D01*
X121762858Y-58048242D01*
X121919925Y-58017000D01*
X122080075Y-58017000D01*
X122237142Y-58048242D01*
G37*
G36*
X137477142Y-58048242D02*
G01*
X137625101Y-58109529D01*
X137758255Y-58198499D01*
X137871501Y-58311745D01*
X137960471Y-58444899D01*
X138021758Y-58592858D01*
X138053000Y-58749925D01*
X138053000Y-58910075D01*
X138021758Y-59067142D01*
X137960471Y-59215101D01*
X137871501Y-59348255D01*
X137758255Y-59461501D01*
X137625101Y-59550471D01*
X137477142Y-59611758D01*
X137320075Y-59643000D01*
X137159925Y-59643000D01*
X137002858Y-59611758D01*
X136854899Y-59550471D01*
X136721745Y-59461501D01*
X136608499Y-59348255D01*
X136519529Y-59215101D01*
X136458242Y-59067142D01*
X136427000Y-58910075D01*
X136427000Y-58749925D01*
X136458242Y-58592858D01*
X136519529Y-58444899D01*
X136608499Y-58311745D01*
X136721745Y-58198499D01*
X136854899Y-58109529D01*
X137002858Y-58048242D01*
X137159925Y-58017000D01*
X137320075Y-58017000D01*
X137477142Y-58048242D01*
G37*
G36*
X146294061Y-57782472D02*
G01*
X146452573Y-57848130D01*
X146595230Y-57943450D01*
X146716550Y-58064770D01*
X146811870Y-58207427D01*
X146877528Y-58365939D01*
X146911000Y-58534214D01*
X146911000Y-58705786D01*
X146877528Y-58874061D01*
X146811870Y-59032573D01*
X146716550Y-59175230D01*
X146595230Y-59296550D01*
X146452573Y-59391870D01*
X146294061Y-59457528D01*
X146274097Y-59461499D01*
X146125787Y-59491000D01*
X145954213Y-59491000D01*
X145805903Y-59461499D01*
X145785939Y-59457528D01*
X145627427Y-59391870D01*
X145484770Y-59296550D01*
X145363450Y-59175230D01*
X145268130Y-59032573D01*
X145202472Y-58874061D01*
X145169000Y-58705786D01*
X145169000Y-58534214D01*
X145202472Y-58365939D01*
X145268130Y-58207427D01*
X145363450Y-58064770D01*
X145484770Y-57943450D01*
X145627427Y-57848130D01*
X145785939Y-57782472D01*
X145954213Y-57749000D01*
X146125787Y-57749000D01*
X146294061Y-57782472D01*
G37*
G36*
X143754061Y-57782472D02*
G01*
X143912573Y-57848130D01*
X144055230Y-57943450D01*
X144176550Y-58064770D01*
X144271870Y-58207427D01*
X144337528Y-58365939D01*
X144371000Y-58534214D01*
X144371000Y-58705786D01*
X144337528Y-58874061D01*
X144271870Y-59032573D01*
X144176550Y-59175230D01*
X144055230Y-59296550D01*
X143912573Y-59391870D01*
X143754061Y-59457528D01*
X143734097Y-59461499D01*
X143585787Y-59491000D01*
X143414213Y-59491000D01*
X143265903Y-59461499D01*
X143245939Y-59457528D01*
X143087427Y-59391870D01*
X142944770Y-59296550D01*
X142823450Y-59175230D01*
X142728130Y-59032573D01*
X142662472Y-58874061D01*
X142629000Y-58705786D01*
X142629000Y-58534214D01*
X142662472Y-58365939D01*
X142728130Y-58207427D01*
X142823450Y-58064770D01*
X142944770Y-57943450D01*
X143087427Y-57848130D01*
X143245939Y-57782472D01*
X143414213Y-57749000D01*
X143585787Y-57749000D01*
X143754061Y-57782472D01*
G37*
G36*
X92873512Y-56503927D02*
G01*
X93022812Y-56533624D01*
X93186784Y-56601544D01*
X93334354Y-56700147D01*
X93459853Y-56825646D01*
X93558456Y-56973216D01*
X93626376Y-57137188D01*
X93661000Y-57311259D01*
X93661000Y-57488741D01*
X93626376Y-57662812D01*
X93558456Y-57826784D01*
X93459853Y-57974354D01*
X93334354Y-58099853D01*
X93186784Y-58198456D01*
X93022812Y-58266376D01*
X92873512Y-58296073D01*
X92848742Y-58301000D01*
X92671258Y-58301000D01*
X92646488Y-58296073D01*
X92497188Y-58266376D01*
X92333216Y-58198456D01*
X92185646Y-58099853D01*
X92060147Y-57974354D01*
X91961544Y-57826784D01*
X91893624Y-57662812D01*
X91859000Y-57488741D01*
X91859000Y-57311259D01*
X91893624Y-57137188D01*
X91961544Y-56973216D01*
X92060147Y-56825646D01*
X92185646Y-56700147D01*
X92333216Y-56601544D01*
X92497188Y-56533624D01*
X92646488Y-56503927D01*
X92671258Y-56499000D01*
X92848742Y-56499000D01*
X92873512Y-56503927D01*
G37*
G36*
X95413512Y-56503927D02*
G01*
X95562812Y-56533624D01*
X95726784Y-56601544D01*
X95874354Y-56700147D01*
X95999853Y-56825646D01*
X96098456Y-56973216D01*
X96166376Y-57137188D01*
X96201000Y-57311259D01*
X96201000Y-57488741D01*
X96166376Y-57662812D01*
X96098456Y-57826784D01*
X95999853Y-57974354D01*
X95874354Y-58099853D01*
X95726784Y-58198456D01*
X95562812Y-58266376D01*
X95413512Y-58296073D01*
X95388742Y-58301000D01*
X95211258Y-58301000D01*
X95186488Y-58296073D01*
X95037188Y-58266376D01*
X94873216Y-58198456D01*
X94725646Y-58099853D01*
X94600147Y-57974354D01*
X94501544Y-57826784D01*
X94433624Y-57662812D01*
X94399000Y-57488741D01*
X94399000Y-57311259D01*
X94433624Y-57137188D01*
X94501544Y-56973216D01*
X94600147Y-56825646D01*
X94725646Y-56700147D01*
X94873216Y-56601544D01*
X95037188Y-56533624D01*
X95186488Y-56503927D01*
X95211258Y-56499000D01*
X95388742Y-56499000D01*
X95413512Y-56503927D01*
G37*
G36*
X137477142Y-55508242D02*
G01*
X137625101Y-55569529D01*
X137758255Y-55658499D01*
X137871501Y-55771745D01*
X137960471Y-55904899D01*
X138021758Y-56052858D01*
X138053000Y-56209925D01*
X138053000Y-56370075D01*
X138021758Y-56527142D01*
X137960471Y-56675101D01*
X137871501Y-56808255D01*
X137758255Y-56921501D01*
X137625101Y-57010471D01*
X137477142Y-57071758D01*
X137320075Y-57103000D01*
X137159925Y-57103000D01*
X137002858Y-57071758D01*
X136854899Y-57010471D01*
X136721745Y-56921501D01*
X136608499Y-56808255D01*
X136519529Y-56675101D01*
X136458242Y-56527142D01*
X136427000Y-56370075D01*
X136427000Y-56209925D01*
X136458242Y-56052858D01*
X136519529Y-55904899D01*
X136608499Y-55771745D01*
X136721745Y-55658499D01*
X136854899Y-55569529D01*
X137002858Y-55508242D01*
X137159925Y-55477000D01*
X137320075Y-55477000D01*
X137477142Y-55508242D01*
G37*
G36*
X122237142Y-55508242D02*
G01*
X122385101Y-55569529D01*
X122518255Y-55658499D01*
X122631501Y-55771745D01*
X122720471Y-55904899D01*
X122781758Y-56052858D01*
X122813000Y-56209925D01*
X122813000Y-56370075D01*
X122781758Y-56527142D01*
X122720471Y-56675101D01*
X122631501Y-56808255D01*
X122518255Y-56921501D01*
X122385101Y-57010471D01*
X122237142Y-57071758D01*
X122080075Y-57103000D01*
X121919925Y-57103000D01*
X121762858Y-57071758D01*
X121614899Y-57010471D01*
X121481745Y-56921501D01*
X121368499Y-56808255D01*
X121279529Y-56675101D01*
X121218242Y-56527142D01*
X121187000Y-56370075D01*
X121187000Y-56209925D01*
X121218242Y-56052858D01*
X121279529Y-55904899D01*
X121368499Y-55771745D01*
X121481745Y-55658499D01*
X121614899Y-55569529D01*
X121762858Y-55508242D01*
X121919925Y-55477000D01*
X122080075Y-55477000D01*
X122237142Y-55508242D01*
G37*
G36*
X146209923Y-55225736D02*
G01*
X146294061Y-55242472D01*
X146452573Y-55308130D01*
X146595230Y-55403450D01*
X146716550Y-55524770D01*
X146811870Y-55667427D01*
X146877528Y-55825939D01*
X146911000Y-55994214D01*
X146911000Y-56165786D01*
X146877528Y-56334061D01*
X146811870Y-56492573D01*
X146716550Y-56635230D01*
X146595230Y-56756550D01*
X146452573Y-56851870D01*
X146294061Y-56917528D01*
X146274097Y-56921499D01*
X146125787Y-56951000D01*
X145954213Y-56951000D01*
X145805903Y-56921499D01*
X145785939Y-56917528D01*
X145627427Y-56851870D01*
X145484770Y-56756550D01*
X145363450Y-56635230D01*
X145268130Y-56492573D01*
X145202472Y-56334061D01*
X145169000Y-56165786D01*
X145169000Y-55994214D01*
X145202472Y-55825939D01*
X145268130Y-55667427D01*
X145363450Y-55524770D01*
X145484770Y-55403450D01*
X145627427Y-55308130D01*
X145785939Y-55242472D01*
X145870077Y-55225736D01*
X145954213Y-55209000D01*
X146125787Y-55209000D01*
X146209923Y-55225736D01*
G37*
G36*
X143669923Y-55225736D02*
G01*
X143754061Y-55242472D01*
X143912573Y-55308130D01*
X144055230Y-55403450D01*
X144176550Y-55524770D01*
X144271870Y-55667427D01*
X144337528Y-55825939D01*
X144371000Y-55994214D01*
X144371000Y-56165786D01*
X144337528Y-56334061D01*
X144271870Y-56492573D01*
X144176550Y-56635230D01*
X144055230Y-56756550D01*
X143912573Y-56851870D01*
X143754061Y-56917528D01*
X143734097Y-56921499D01*
X143585787Y-56951000D01*
X143414213Y-56951000D01*
X143265903Y-56921499D01*
X143245939Y-56917528D01*
X143087427Y-56851870D01*
X142944770Y-56756550D01*
X142823450Y-56635230D01*
X142728130Y-56492573D01*
X142662472Y-56334061D01*
X142629000Y-56165786D01*
X142629000Y-55994214D01*
X142662472Y-55825939D01*
X142728130Y-55667427D01*
X142823450Y-55524770D01*
X142944770Y-55403450D01*
X143087427Y-55308130D01*
X143245939Y-55242472D01*
X143330077Y-55225736D01*
X143414213Y-55209000D01*
X143585787Y-55209000D01*
X143669923Y-55225736D01*
G37*
G36*
X122237142Y-52968242D02*
G01*
X122385101Y-53029529D01*
X122518255Y-53118499D01*
X122631501Y-53231745D01*
X122720471Y-53364899D01*
X122781758Y-53512858D01*
X122813000Y-53669925D01*
X122813000Y-53830075D01*
X122781758Y-53987142D01*
X122720471Y-54135101D01*
X122631501Y-54268255D01*
X122518255Y-54381501D01*
X122385101Y-54470471D01*
X122237142Y-54531758D01*
X122080075Y-54563000D01*
X121919925Y-54563000D01*
X121762858Y-54531758D01*
X121614899Y-54470471D01*
X121481745Y-54381501D01*
X121368499Y-54268255D01*
X121279529Y-54135101D01*
X121218242Y-53987142D01*
X121187000Y-53830075D01*
X121187000Y-53669925D01*
X121218242Y-53512858D01*
X121279529Y-53364899D01*
X121368499Y-53231745D01*
X121481745Y-53118499D01*
X121614899Y-53029529D01*
X121762858Y-52968242D01*
X121919925Y-52937000D01*
X122080075Y-52937000D01*
X122237142Y-52968242D01*
G37*
G36*
X137477142Y-52968242D02*
G01*
X137625101Y-53029529D01*
X137758255Y-53118499D01*
X137871501Y-53231745D01*
X137960471Y-53364899D01*
X138021758Y-53512858D01*
X138053000Y-53669925D01*
X138053000Y-53830075D01*
X138021758Y-53987142D01*
X137960471Y-54135101D01*
X137871501Y-54268255D01*
X137758255Y-54381501D01*
X137625101Y-54470471D01*
X137477142Y-54531758D01*
X137320075Y-54563000D01*
X137159925Y-54563000D01*
X137002858Y-54531758D01*
X136854899Y-54470471D01*
X136721745Y-54381501D01*
X136608499Y-54268255D01*
X136519529Y-54135101D01*
X136458242Y-53987142D01*
X136427000Y-53830075D01*
X136427000Y-53669925D01*
X136458242Y-53512858D01*
X136519529Y-53364899D01*
X136608499Y-53231745D01*
X136721745Y-53118499D01*
X136854899Y-53029529D01*
X137002858Y-52968242D01*
X137159925Y-52937000D01*
X137320075Y-52937000D01*
X137477142Y-52968242D01*
G37*
G36*
X146294061Y-52702472D02*
G01*
X146452573Y-52768130D01*
X146595230Y-52863450D01*
X146716550Y-52984770D01*
X146811870Y-53127427D01*
X146877528Y-53285939D01*
X146911000Y-53454214D01*
X146911000Y-53625786D01*
X146877528Y-53794061D01*
X146811870Y-53952573D01*
X146716550Y-54095230D01*
X146595230Y-54216550D01*
X146452573Y-54311870D01*
X146294061Y-54377528D01*
X146274097Y-54381499D01*
X146125787Y-54411000D01*
X145954213Y-54411000D01*
X145805903Y-54381499D01*
X145785939Y-54377528D01*
X145627427Y-54311870D01*
X145484770Y-54216550D01*
X145363450Y-54095230D01*
X145268130Y-53952573D01*
X145202472Y-53794061D01*
X145169000Y-53625786D01*
X145169000Y-53454214D01*
X145202472Y-53285939D01*
X145268130Y-53127427D01*
X145363450Y-52984770D01*
X145484770Y-52863450D01*
X145627427Y-52768130D01*
X145785939Y-52702472D01*
X145954213Y-52669000D01*
X146125787Y-52669000D01*
X146294061Y-52702472D01*
G37*
G36*
X143754061Y-52702472D02*
G01*
X143912573Y-52768130D01*
X144055230Y-52863450D01*
X144176550Y-52984770D01*
X144271870Y-53127427D01*
X144337528Y-53285939D01*
X144371000Y-53454214D01*
X144371000Y-53625786D01*
X144337528Y-53794061D01*
X144271870Y-53952573D01*
X144176550Y-54095230D01*
X144055230Y-54216550D01*
X143912573Y-54311870D01*
X143754061Y-54377528D01*
X143734097Y-54381499D01*
X143585787Y-54411000D01*
X143414213Y-54411000D01*
X143265903Y-54381499D01*
X143245939Y-54377528D01*
X143087427Y-54311870D01*
X142944770Y-54216550D01*
X142823450Y-54095230D01*
X142728130Y-53952573D01*
X142662472Y-53794061D01*
X142629000Y-53625786D01*
X142629000Y-53454214D01*
X142662472Y-53285939D01*
X142728130Y-53127427D01*
X142823450Y-52984770D01*
X142944770Y-52863450D01*
X143087427Y-52768130D01*
X143245939Y-52702472D01*
X143414213Y-52669000D01*
X143585787Y-52669000D01*
X143754061Y-52702472D01*
G37*
G36*
X112153512Y-51123927D02*
G01*
X112302812Y-51153624D01*
X112466784Y-51221544D01*
X112614354Y-51320147D01*
X112739853Y-51445646D01*
X112838456Y-51593216D01*
X112906376Y-51757188D01*
X112941000Y-51931259D01*
X112941000Y-52108741D01*
X112906376Y-52282812D01*
X112838456Y-52446784D01*
X112739853Y-52594354D01*
X112614354Y-52719853D01*
X112466784Y-52818456D01*
X112302812Y-52886376D01*
X112153512Y-52916073D01*
X112128742Y-52921000D01*
X111951258Y-52921000D01*
X111926488Y-52916073D01*
X111777188Y-52886376D01*
X111613216Y-52818456D01*
X111465646Y-52719853D01*
X111340147Y-52594354D01*
X111241544Y-52446784D01*
X111173624Y-52282812D01*
X111139000Y-52108741D01*
X111139000Y-51931259D01*
X111173624Y-51757188D01*
X111241544Y-51593216D01*
X111340147Y-51445646D01*
X111465646Y-51320147D01*
X111613216Y-51221544D01*
X111777188Y-51153624D01*
X111926488Y-51123927D01*
X111951258Y-51119000D01*
X112128742Y-51119000D01*
X112153512Y-51123927D01*
G37*
G36*
X109613512Y-51123927D02*
G01*
X109762812Y-51153624D01*
X109926784Y-51221544D01*
X110074354Y-51320147D01*
X110199853Y-51445646D01*
X110298456Y-51593216D01*
X110366376Y-51757188D01*
X110401000Y-51931259D01*
X110401000Y-52108741D01*
X110366376Y-52282812D01*
X110298456Y-52446784D01*
X110199853Y-52594354D01*
X110074354Y-52719853D01*
X109926784Y-52818456D01*
X109762812Y-52886376D01*
X109613512Y-52916073D01*
X109588742Y-52921000D01*
X109411258Y-52921000D01*
X109386488Y-52916073D01*
X109237188Y-52886376D01*
X109073216Y-52818456D01*
X108925646Y-52719853D01*
X108800147Y-52594354D01*
X108701544Y-52446784D01*
X108633624Y-52282812D01*
X108599000Y-52108741D01*
X108599000Y-51931259D01*
X108633624Y-51757188D01*
X108701544Y-51593216D01*
X108800147Y-51445646D01*
X108925646Y-51320147D01*
X109073216Y-51221544D01*
X109237188Y-51153624D01*
X109386488Y-51123927D01*
X109411258Y-51119000D01*
X109588742Y-51119000D01*
X109613512Y-51123927D01*
G37*
G36*
X144371000Y-51871000D02*
G01*
X142629000Y-51871000D01*
X142629000Y-50129000D01*
X144371000Y-50129000D01*
X144371000Y-51871000D01*
G37*
G36*
X146294061Y-50162472D02*
G01*
X146452573Y-50228130D01*
X146595230Y-50323450D01*
X146716550Y-50444770D01*
X146811870Y-50587427D01*
X146877528Y-50745939D01*
X146911000Y-50914214D01*
X146911000Y-51085786D01*
X146877528Y-51254061D01*
X146811870Y-51412573D01*
X146716550Y-51555230D01*
X146595230Y-51676550D01*
X146452573Y-51771870D01*
X146294061Y-51837528D01*
X146125787Y-51871000D01*
X145954213Y-51871000D01*
X145870077Y-51854264D01*
X145785939Y-51837528D01*
X145627427Y-51771870D01*
X145484770Y-51676550D01*
X145363450Y-51555230D01*
X145268130Y-51412573D01*
X145202472Y-51254061D01*
X145169000Y-51085786D01*
X145169000Y-50914214D01*
X145202472Y-50745939D01*
X145268130Y-50587427D01*
X145363450Y-50444770D01*
X145484770Y-50323450D01*
X145627427Y-50228130D01*
X145785939Y-50162472D01*
X145870077Y-50145736D01*
X145954213Y-50129000D01*
X146125787Y-50129000D01*
X146294061Y-50162472D01*
G37*
G36*
X109613512Y-48583927D02*
G01*
X109762812Y-48613624D01*
X109926784Y-48681544D01*
X110074354Y-48780147D01*
X110199853Y-48905646D01*
X110298456Y-49053216D01*
X110366376Y-49217188D01*
X110401000Y-49391259D01*
X110401000Y-49568741D01*
X110366376Y-49742812D01*
X110298456Y-49906784D01*
X110199853Y-50054354D01*
X110074354Y-50179853D01*
X109926784Y-50278456D01*
X109762812Y-50346376D01*
X109613512Y-50376073D01*
X109588742Y-50381000D01*
X109411258Y-50381000D01*
X109386488Y-50376073D01*
X109237188Y-50346376D01*
X109073216Y-50278456D01*
X108925646Y-50179853D01*
X108800147Y-50054354D01*
X108701544Y-49906784D01*
X108633624Y-49742812D01*
X108599000Y-49568741D01*
X108599000Y-49391259D01*
X108633624Y-49217188D01*
X108701544Y-49053216D01*
X108800147Y-48905646D01*
X108925646Y-48780147D01*
X109073216Y-48681544D01*
X109237188Y-48613624D01*
X109386488Y-48583927D01*
X109411258Y-48579000D01*
X109588742Y-48579000D01*
X109613512Y-48583927D01*
G37*
G36*
X112153512Y-48583927D02*
G01*
X112302812Y-48613624D01*
X112466784Y-48681544D01*
X112614354Y-48780147D01*
X112739853Y-48905646D01*
X112838456Y-49053216D01*
X112906376Y-49217188D01*
X112941000Y-49391259D01*
X112941000Y-49568741D01*
X112906376Y-49742812D01*
X112838456Y-49906784D01*
X112739853Y-50054354D01*
X112614354Y-50179853D01*
X112466784Y-50278456D01*
X112302812Y-50346376D01*
X112153512Y-50376073D01*
X112128742Y-50381000D01*
X111951258Y-50381000D01*
X111926488Y-50376073D01*
X111777188Y-50346376D01*
X111613216Y-50278456D01*
X111465646Y-50179853D01*
X111340147Y-50054354D01*
X111241544Y-49906784D01*
X111173624Y-49742812D01*
X111139000Y-49568741D01*
X111139000Y-49391259D01*
X111173624Y-49217188D01*
X111241544Y-49053216D01*
X111340147Y-48905646D01*
X111465646Y-48780147D01*
X111613216Y-48681544D01*
X111777188Y-48613624D01*
X111926488Y-48583927D01*
X111951258Y-48579000D01*
X112128742Y-48579000D01*
X112153512Y-48583927D01*
G37*
G36*
X100903512Y-46103927D02*
G01*
X101052812Y-46133624D01*
X101216784Y-46201544D01*
X101364354Y-46300147D01*
X101489853Y-46425646D01*
X101588456Y-46573216D01*
X101656376Y-46737188D01*
X101691000Y-46911259D01*
X101691000Y-47088741D01*
X101656376Y-47262812D01*
X101588456Y-47426784D01*
X101489853Y-47574354D01*
X101364354Y-47699853D01*
X101216784Y-47798456D01*
X101052812Y-47866376D01*
X100903512Y-47896073D01*
X100878742Y-47901000D01*
X100701258Y-47901000D01*
X100676488Y-47896073D01*
X100527188Y-47866376D01*
X100363216Y-47798456D01*
X100215646Y-47699853D01*
X100090147Y-47574354D01*
X99991544Y-47426784D01*
X99923624Y-47262812D01*
X99889000Y-47088741D01*
X99889000Y-46911259D01*
X99923624Y-46737188D01*
X99991544Y-46573216D01*
X100090147Y-46425646D01*
X100215646Y-46300147D01*
X100363216Y-46201544D01*
X100527188Y-46133624D01*
X100676488Y-46103927D01*
X100701258Y-46099000D01*
X100878742Y-46099000D01*
X100903512Y-46103927D01*
G37*
G36*
X99151000Y-47901000D02*
G01*
X97349000Y-47901000D01*
X97349000Y-46099000D01*
X99151000Y-46099000D01*
X99151000Y-47901000D01*
G37*
G36*
X103443512Y-46103927D02*
G01*
X103592812Y-46133624D01*
X103756784Y-46201544D01*
X103904354Y-46300147D01*
X104029853Y-46425646D01*
X104128456Y-46573216D01*
X104196376Y-46737188D01*
X104231000Y-46911259D01*
X104231000Y-47088741D01*
X104196376Y-47262812D01*
X104128456Y-47426784D01*
X104029853Y-47574354D01*
X103904354Y-47699853D01*
X103756784Y-47798456D01*
X103592812Y-47866376D01*
X103443512Y-47896073D01*
X103418742Y-47901000D01*
X103241258Y-47901000D01*
X103216488Y-47896073D01*
X103067188Y-47866376D01*
X102903216Y-47798456D01*
X102755646Y-47699853D01*
X102630147Y-47574354D01*
X102531544Y-47426784D01*
X102463624Y-47262812D01*
X102429000Y-47088741D01*
X102429000Y-46911259D01*
X102463624Y-46737188D01*
X102531544Y-46573216D01*
X102630147Y-46425646D01*
X102755646Y-46300147D01*
X102903216Y-46201544D01*
X103067188Y-46133624D01*
X103216488Y-46103927D01*
X103241258Y-46099000D01*
X103418742Y-46099000D01*
X103443512Y-46103927D01*
G37*
G36*
X105983512Y-46103927D02*
G01*
X106132812Y-46133624D01*
X106296784Y-46201544D01*
X106444354Y-46300147D01*
X106569853Y-46425646D01*
X106668456Y-46573216D01*
X106736376Y-46737188D01*
X106771000Y-46911259D01*
X106771000Y-47088741D01*
X106736376Y-47262812D01*
X106668456Y-47426784D01*
X106569853Y-47574354D01*
X106444354Y-47699853D01*
X106296784Y-47798456D01*
X106132812Y-47866376D01*
X105983512Y-47896073D01*
X105958742Y-47901000D01*
X105781258Y-47901000D01*
X105756488Y-47896073D01*
X105607188Y-47866376D01*
X105443216Y-47798456D01*
X105295646Y-47699853D01*
X105170147Y-47574354D01*
X105071544Y-47426784D01*
X105003624Y-47262812D01*
X104969000Y-47088741D01*
X104969000Y-46911259D01*
X105003624Y-46737188D01*
X105071544Y-46573216D01*
X105170147Y-46425646D01*
X105295646Y-46300147D01*
X105443216Y-46201544D01*
X105607188Y-46133624D01*
X105756488Y-46103927D01*
X105781258Y-46099000D01*
X105958742Y-46099000D01*
X105983512Y-46103927D01*
G37*
G36*
X112153512Y-46043927D02*
G01*
X112302812Y-46073624D01*
X112466784Y-46141544D01*
X112614354Y-46240147D01*
X112739853Y-46365646D01*
X112838456Y-46513216D01*
X112906376Y-46677188D01*
X112941000Y-46851259D01*
X112941000Y-47028741D01*
X112906376Y-47202812D01*
X112838456Y-47366784D01*
X112739853Y-47514354D01*
X112614354Y-47639853D01*
X112466784Y-47738456D01*
X112302812Y-47806376D01*
X112153512Y-47836073D01*
X112128742Y-47841000D01*
X111951258Y-47841000D01*
X111926488Y-47836073D01*
X111777188Y-47806376D01*
X111613216Y-47738456D01*
X111465646Y-47639853D01*
X111340147Y-47514354D01*
X111241544Y-47366784D01*
X111173624Y-47202812D01*
X111139000Y-47028741D01*
X111139000Y-46851259D01*
X111173624Y-46677188D01*
X111241544Y-46513216D01*
X111340147Y-46365646D01*
X111465646Y-46240147D01*
X111613216Y-46141544D01*
X111777188Y-46073624D01*
X111926488Y-46043927D01*
X111951258Y-46039000D01*
X112128742Y-46039000D01*
X112153512Y-46043927D01*
G37*
G36*
X109613512Y-46043927D02*
G01*
X109762812Y-46073624D01*
X109926784Y-46141544D01*
X110074354Y-46240147D01*
X110199853Y-46365646D01*
X110298456Y-46513216D01*
X110366376Y-46677188D01*
X110401000Y-46851259D01*
X110401000Y-47028741D01*
X110366376Y-47202812D01*
X110298456Y-47366784D01*
X110199853Y-47514354D01*
X110074354Y-47639853D01*
X109926784Y-47738456D01*
X109762812Y-47806376D01*
X109613512Y-47836073D01*
X109588742Y-47841000D01*
X109411258Y-47841000D01*
X109386488Y-47836073D01*
X109237188Y-47806376D01*
X109073216Y-47738456D01*
X108925646Y-47639853D01*
X108800147Y-47514354D01*
X108701544Y-47366784D01*
X108633624Y-47202812D01*
X108599000Y-47028741D01*
X108599000Y-46851259D01*
X108633624Y-46677188D01*
X108701544Y-46513216D01*
X108800147Y-46365646D01*
X108925646Y-46240147D01*
X109073216Y-46141544D01*
X109237188Y-46073624D01*
X109386488Y-46043927D01*
X109411258Y-46039000D01*
X109588742Y-46039000D01*
X109613512Y-46043927D01*
G37*
G36*
X95981766Y-45431899D02*
G01*
X96113888Y-45486626D01*
X96113890Y-45486627D01*
X96232798Y-45566079D01*
X96333921Y-45667202D01*
X96333922Y-45667204D01*
X96413374Y-45786112D01*
X96468101Y-45918234D01*
X96496000Y-46058494D01*
X96496000Y-46201506D01*
X96468101Y-46341766D01*
X96433356Y-46425647D01*
X96413373Y-46473890D01*
X96333921Y-46592798D01*
X96232798Y-46693921D01*
X96113890Y-46773373D01*
X96113889Y-46773374D01*
X96113888Y-46773374D01*
X95981766Y-46828101D01*
X95841506Y-46856000D01*
X95698494Y-46856000D01*
X95558234Y-46828101D01*
X95426112Y-46773374D01*
X95426111Y-46773374D01*
X95426110Y-46773373D01*
X95307202Y-46693921D01*
X95206079Y-46592798D01*
X95126627Y-46473890D01*
X95106644Y-46425647D01*
X95071899Y-46341766D01*
X95044000Y-46201506D01*
X95044000Y-46058494D01*
X95071899Y-45918234D01*
X95126626Y-45786112D01*
X95206078Y-45667204D01*
X95206079Y-45667202D01*
X95307202Y-45566079D01*
X95426110Y-45486627D01*
X95426112Y-45486626D01*
X95558234Y-45431899D01*
X95698494Y-45404000D01*
X95841506Y-45404000D01*
X95981766Y-45431899D01*
G37*
G36*
X144981766Y-45431899D02*
G01*
X145113888Y-45486626D01*
X145113890Y-45486627D01*
X145232798Y-45566079D01*
X145333921Y-45667202D01*
X145333922Y-45667204D01*
X145413374Y-45786112D01*
X145468101Y-45918234D01*
X145496000Y-46058494D01*
X145496000Y-46201506D01*
X145468101Y-46341766D01*
X145433356Y-46425647D01*
X145413373Y-46473890D01*
X145333921Y-46592798D01*
X145232798Y-46693921D01*
X145113890Y-46773373D01*
X145113889Y-46773374D01*
X145113888Y-46773374D01*
X144981766Y-46828101D01*
X144841506Y-46856000D01*
X144698494Y-46856000D01*
X144558234Y-46828101D01*
X144426112Y-46773374D01*
X144426111Y-46773374D01*
X144426110Y-46773373D01*
X144307202Y-46693921D01*
X144206079Y-46592798D01*
X144126627Y-46473890D01*
X144106644Y-46425647D01*
X144071899Y-46341766D01*
X144044000Y-46201506D01*
X144044000Y-46058494D01*
X144071899Y-45918234D01*
X144126626Y-45786112D01*
X144206078Y-45667204D01*
X144206079Y-45667202D01*
X144307202Y-45566079D01*
X144426110Y-45486627D01*
X144426112Y-45486626D01*
X144558234Y-45431899D01*
X144698494Y-45404000D01*
X144841506Y-45404000D01*
X144981766Y-45431899D01*
G37*
G36*
X130549487Y-43998996D02*
G01*
X130786253Y-44097068D01*
X130786255Y-44097069D01*
X130999339Y-44239447D01*
X131180553Y-44420661D01*
X131226043Y-44488741D01*
X131322932Y-44633747D01*
X131421004Y-44870513D01*
X131471000Y-45121861D01*
X131471000Y-45378139D01*
X131421004Y-45629487D01*
X131322932Y-45866253D01*
X131322931Y-45866255D01*
X131180553Y-46079339D01*
X130999339Y-46260553D01*
X130786255Y-46402931D01*
X130786254Y-46402932D01*
X130786253Y-46402932D01*
X130549487Y-46501004D01*
X130298139Y-46551000D01*
X130041861Y-46551000D01*
X129790513Y-46501004D01*
X129553747Y-46402932D01*
X129553746Y-46402932D01*
X129553745Y-46402931D01*
X129340661Y-46260553D01*
X129159447Y-46079339D01*
X129017069Y-45866255D01*
X129017068Y-45866253D01*
X128918996Y-45629487D01*
X128869000Y-45378139D01*
X128869000Y-45121861D01*
X128918996Y-44870513D01*
X129017068Y-44633747D01*
X129113958Y-44488741D01*
X129159447Y-44420661D01*
X129340661Y-44239447D01*
X129553745Y-44097069D01*
X129553747Y-44097068D01*
X129790513Y-43998996D01*
X130041861Y-43949000D01*
X130298139Y-43949000D01*
X130549487Y-43998996D01*
G37*
G36*
X136551000Y-46551000D02*
G01*
X133949000Y-46551000D01*
X133949000Y-43949000D01*
X136551000Y-43949000D01*
X136551000Y-46551000D01*
G37*
G36*
X100903512Y-43563927D02*
G01*
X101052812Y-43593624D01*
X101216784Y-43661544D01*
X101364354Y-43760147D01*
X101489853Y-43885646D01*
X101588456Y-44033216D01*
X101656376Y-44197188D01*
X101691000Y-44371259D01*
X101691000Y-44548741D01*
X101656376Y-44722812D01*
X101588456Y-44886784D01*
X101489853Y-45034354D01*
X101364354Y-45159853D01*
X101216784Y-45258456D01*
X101052812Y-45326376D01*
X100903512Y-45356073D01*
X100878742Y-45361000D01*
X100701258Y-45361000D01*
X100676488Y-45356073D01*
X100527188Y-45326376D01*
X100363216Y-45258456D01*
X100215646Y-45159853D01*
X100090147Y-45034354D01*
X99991544Y-44886784D01*
X99923624Y-44722812D01*
X99889000Y-44548741D01*
X99889000Y-44371259D01*
X99923624Y-44197188D01*
X99991544Y-44033216D01*
X100090147Y-43885646D01*
X100215646Y-43760147D01*
X100363216Y-43661544D01*
X100527188Y-43593624D01*
X100676488Y-43563927D01*
X100701258Y-43559000D01*
X100878742Y-43559000D01*
X100903512Y-43563927D01*
G37*
G36*
X105983512Y-43563927D02*
G01*
X106132812Y-43593624D01*
X106296784Y-43661544D01*
X106444354Y-43760147D01*
X106569853Y-43885646D01*
X106668456Y-44033216D01*
X106736376Y-44197188D01*
X106771000Y-44371259D01*
X106771000Y-44548741D01*
X106736376Y-44722812D01*
X106668456Y-44886784D01*
X106569853Y-45034354D01*
X106444354Y-45159853D01*
X106296784Y-45258456D01*
X106132812Y-45326376D01*
X105983512Y-45356073D01*
X105958742Y-45361000D01*
X105781258Y-45361000D01*
X105756488Y-45356073D01*
X105607188Y-45326376D01*
X105443216Y-45258456D01*
X105295646Y-45159853D01*
X105170147Y-45034354D01*
X105071544Y-44886784D01*
X105003624Y-44722812D01*
X104969000Y-44548741D01*
X104969000Y-44371259D01*
X105003624Y-44197188D01*
X105071544Y-44033216D01*
X105170147Y-43885646D01*
X105295646Y-43760147D01*
X105443216Y-43661544D01*
X105607188Y-43593624D01*
X105756488Y-43563927D01*
X105781258Y-43559000D01*
X105958742Y-43559000D01*
X105983512Y-43563927D01*
G37*
G36*
X103443512Y-43563927D02*
G01*
X103592812Y-43593624D01*
X103756784Y-43661544D01*
X103904354Y-43760147D01*
X104029853Y-43885646D01*
X104128456Y-44033216D01*
X104196376Y-44197188D01*
X104231000Y-44371259D01*
X104231000Y-44548741D01*
X104196376Y-44722812D01*
X104128456Y-44886784D01*
X104029853Y-45034354D01*
X103904354Y-45159853D01*
X103756784Y-45258456D01*
X103592812Y-45326376D01*
X103443512Y-45356073D01*
X103418742Y-45361000D01*
X103241258Y-45361000D01*
X103216488Y-45356073D01*
X103067188Y-45326376D01*
X102903216Y-45258456D01*
X102755646Y-45159853D01*
X102630147Y-45034354D01*
X102531544Y-44886784D01*
X102463624Y-44722812D01*
X102429000Y-44548741D01*
X102429000Y-44371259D01*
X102463624Y-44197188D01*
X102531544Y-44033216D01*
X102630147Y-43885646D01*
X102755646Y-43760147D01*
X102903216Y-43661544D01*
X103067188Y-43593624D01*
X103216488Y-43563927D01*
X103241258Y-43559000D01*
X103418742Y-43559000D01*
X103443512Y-43563927D01*
G37*
G36*
X98363512Y-43563927D02*
G01*
X98512812Y-43593624D01*
X98676784Y-43661544D01*
X98824354Y-43760147D01*
X98949853Y-43885646D01*
X99048456Y-44033216D01*
X99116376Y-44197188D01*
X99151000Y-44371259D01*
X99151000Y-44548741D01*
X99116376Y-44722812D01*
X99048456Y-44886784D01*
X98949853Y-45034354D01*
X98824354Y-45159853D01*
X98676784Y-45258456D01*
X98512812Y-45326376D01*
X98363512Y-45356073D01*
X98338742Y-45361000D01*
X98161258Y-45361000D01*
X98136488Y-45356073D01*
X97987188Y-45326376D01*
X97823216Y-45258456D01*
X97675646Y-45159853D01*
X97550147Y-45034354D01*
X97451544Y-44886784D01*
X97383624Y-44722812D01*
X97349000Y-44548741D01*
X97349000Y-44371259D01*
X97383624Y-44197188D01*
X97451544Y-44033216D01*
X97550147Y-43885646D01*
X97675646Y-43760147D01*
X97823216Y-43661544D01*
X97987188Y-43593624D01*
X98136488Y-43563927D01*
X98161258Y-43559000D01*
X98338742Y-43559000D01*
X98363512Y-43563927D01*
G37*
G36*
X124801000Y-45301000D02*
G01*
X122999000Y-45301000D01*
X122999000Y-43499000D01*
X124801000Y-43499000D01*
X124801000Y-45301000D01*
G37*
G36*
X121473512Y-43503927D02*
G01*
X121622812Y-43533624D01*
X121786784Y-43601544D01*
X121934354Y-43700147D01*
X122059853Y-43825646D01*
X122158456Y-43973216D01*
X122226376Y-44137188D01*
X122261000Y-44311259D01*
X122261000Y-44488741D01*
X122226376Y-44662812D01*
X122158456Y-44826784D01*
X122059853Y-44974354D01*
X121934354Y-45099853D01*
X121786784Y-45198456D01*
X121622812Y-45266376D01*
X121473512Y-45296073D01*
X121448742Y-45301000D01*
X121271258Y-45301000D01*
X121246488Y-45296073D01*
X121097188Y-45266376D01*
X120933216Y-45198456D01*
X120785646Y-45099853D01*
X120660147Y-44974354D01*
X120561544Y-44826784D01*
X120493624Y-44662812D01*
X120459000Y-44488741D01*
X120459000Y-44311259D01*
X120493624Y-44137188D01*
X120561544Y-43973216D01*
X120660147Y-43825646D01*
X120785646Y-43700147D01*
X120933216Y-43601544D01*
X121097188Y-43533624D01*
X121246488Y-43503927D01*
X121271258Y-43499000D01*
X121448742Y-43499000D01*
X121473512Y-43503927D01*
G37*
G36*
X118933512Y-43503927D02*
G01*
X119082812Y-43533624D01*
X119246784Y-43601544D01*
X119394354Y-43700147D01*
X119519853Y-43825646D01*
X119618456Y-43973216D01*
X119686376Y-44137188D01*
X119721000Y-44311259D01*
X119721000Y-44488741D01*
X119686376Y-44662812D01*
X119618456Y-44826784D01*
X119519853Y-44974354D01*
X119394354Y-45099853D01*
X119246784Y-45198456D01*
X119082812Y-45266376D01*
X118933512Y-45296073D01*
X118908742Y-45301000D01*
X118731258Y-45301000D01*
X118706488Y-45296073D01*
X118557188Y-45266376D01*
X118393216Y-45198456D01*
X118245646Y-45099853D01*
X118120147Y-44974354D01*
X118021544Y-44826784D01*
X117953624Y-44662812D01*
X117919000Y-44488741D01*
X117919000Y-44311259D01*
X117953624Y-44137188D01*
X118021544Y-43973216D01*
X118120147Y-43825646D01*
X118245646Y-43700147D01*
X118393216Y-43601544D01*
X118557188Y-43533624D01*
X118706488Y-43503927D01*
X118731258Y-43499000D01*
X118908742Y-43499000D01*
X118933512Y-43503927D01*
G37*
G36*
X116393512Y-43503927D02*
G01*
X116542812Y-43533624D01*
X116706784Y-43601544D01*
X116854354Y-43700147D01*
X116979853Y-43825646D01*
X117078456Y-43973216D01*
X117146376Y-44137188D01*
X117181000Y-44311259D01*
X117181000Y-44488741D01*
X117146376Y-44662812D01*
X117078456Y-44826784D01*
X116979853Y-44974354D01*
X116854354Y-45099853D01*
X116706784Y-45198456D01*
X116542812Y-45266376D01*
X116393512Y-45296073D01*
X116368742Y-45301000D01*
X116191258Y-45301000D01*
X116166488Y-45296073D01*
X116017188Y-45266376D01*
X115853216Y-45198456D01*
X115705646Y-45099853D01*
X115580147Y-44974354D01*
X115481544Y-44826784D01*
X115413624Y-44662812D01*
X115379000Y-44488741D01*
X115379000Y-44311259D01*
X115413624Y-44137188D01*
X115481544Y-43973216D01*
X115580147Y-43825646D01*
X115705646Y-43700147D01*
X115853216Y-43601544D01*
X116017188Y-43533624D01*
X116166488Y-43503927D01*
X116191258Y-43499000D01*
X116368742Y-43499000D01*
X116393512Y-43503927D01*
G37*
G36*
X112153512Y-43503927D02*
G01*
X112302812Y-43533624D01*
X112466784Y-43601544D01*
X112614354Y-43700147D01*
X112739853Y-43825646D01*
X112838456Y-43973216D01*
X112906376Y-44137188D01*
X112941000Y-44311259D01*
X112941000Y-44488741D01*
X112906376Y-44662812D01*
X112838456Y-44826784D01*
X112739853Y-44974354D01*
X112614354Y-45099853D01*
X112466784Y-45198456D01*
X112302812Y-45266376D01*
X112153512Y-45296073D01*
X112128742Y-45301000D01*
X111951258Y-45301000D01*
X111926488Y-45296073D01*
X111777188Y-45266376D01*
X111613216Y-45198456D01*
X111465646Y-45099853D01*
X111340147Y-44974354D01*
X111241544Y-44826784D01*
X111173624Y-44662812D01*
X111139000Y-44488741D01*
X111139000Y-44311259D01*
X111173624Y-44137188D01*
X111241544Y-43973216D01*
X111340147Y-43825646D01*
X111465646Y-43700147D01*
X111613216Y-43601544D01*
X111777188Y-43533624D01*
X111926488Y-43503927D01*
X111951258Y-43499000D01*
X112128742Y-43499000D01*
X112153512Y-43503927D01*
G37*
G36*
X110401000Y-45301000D02*
G01*
X108599000Y-45301000D01*
X108599000Y-43499000D01*
X110401000Y-43499000D01*
X110401000Y-45301000D01*
G37*
M02*
