G04 #@! TF.GenerationSoftware,KiCad,Pcbnew,5.1.5+dfsg1-2build2*
G04 #@! TF.CreationDate,2021-10-17T19:15:36+01:00*
G04 #@! TF.ProjectId,flight-controller,666c6967-6874-42d6-936f-6e74726f6c6c,rev?*
G04 #@! TF.SameCoordinates,Original*
G04 #@! TF.FileFunction,Legend,Bot*
G04 #@! TF.FilePolarity,Positive*
%FSLAX46Y46*%
G04 Gerber Fmt 4.6, Leading zero omitted, Abs format (unit mm)*
G04 Created by KiCad (PCBNEW 5.1.5+dfsg1-2build2) date 2021-10-17 19:15:36*
%MOMM*%
%LPD*%
G04 APERTURE LIST*
%ADD10C,0.100000*%
%ADD11C,0.254000*%
G04 APERTURE END LIST*
D10*
X143500000Y-51000000D02*
X143500000Y-51000000D01*
X143500000Y-51000000D02*
X143500000Y-51000000D01*
X143500000Y-51000000D02*
X143500000Y-51000000D01*
X143500000Y-51000000D02*
X143500000Y-51000000D01*
X142295000Y-100530000D02*
X147245000Y-100530000D01*
X142295000Y-49730000D02*
X142295000Y-100530000D01*
X147245000Y-49730000D02*
X142295000Y-49730000D01*
X147245000Y-100530000D02*
X147245000Y-49730000D01*
D11*
X119574523Y-84706666D02*
X120481666Y-84706666D01*
X120663095Y-84646190D01*
X120784047Y-84525238D01*
X120844523Y-84343809D01*
X120844523Y-84222857D01*
X120118809Y-85492857D02*
X120058333Y-85371904D01*
X119997857Y-85311428D01*
X119876904Y-85250952D01*
X119816428Y-85250952D01*
X119695476Y-85311428D01*
X119635000Y-85371904D01*
X119574523Y-85492857D01*
X119574523Y-85734761D01*
X119635000Y-85855714D01*
X119695476Y-85916190D01*
X119816428Y-85976666D01*
X119876904Y-85976666D01*
X119997857Y-85916190D01*
X120058333Y-85855714D01*
X120118809Y-85734761D01*
X120118809Y-85492857D01*
X120179285Y-85371904D01*
X120239761Y-85311428D01*
X120360714Y-85250952D01*
X120602619Y-85250952D01*
X120723571Y-85311428D01*
X120784047Y-85371904D01*
X120844523Y-85492857D01*
X120844523Y-85734761D01*
X120784047Y-85855714D01*
X120723571Y-85916190D01*
X120602619Y-85976666D01*
X120360714Y-85976666D01*
X120239761Y-85916190D01*
X120179285Y-85855714D01*
X120118809Y-85734761D01*
M02*
