%TF.GenerationSoftware,KiCad,Pcbnew,5.1.10-88a1d61d58~88~ubuntu20.04.1*%
%TF.CreationDate,2021-06-20T22:38:56+02:00*%
%TF.ProjectId,motor_driver_v1,6d6f746f-725f-4647-9269-7665725f7631,rev?*%
%TF.SameCoordinates,Original*%
%TF.FileFunction,Soldermask,Bot*%
%TF.FilePolarity,Negative*%
%FSLAX46Y46*%
G04 Gerber Fmt 4.6, Leading zero omitted, Abs format (unit mm)*
G04 Created by KiCad (PCBNEW 5.1.10-88a1d61d58~88~ubuntu20.04.1) date 2021-06-20 22:38:56*
%MOMM*%
%LPD*%
G01*
G04 APERTURE LIST*
%ADD10C,0.100000*%
%ADD11C,1.624000*%
%ADD12O,2.100000X2.005000*%
%ADD13O,3.600000X3.600000*%
%ADD14O,1.800000X1.800000*%
%ADD15C,3.100000*%
%ADD16C,2.500000*%
G04 APERTURE END LIST*
D10*
G36*
X101000000Y-59600000D02*
G01*
X100400000Y-59600000D01*
X97400000Y-62600000D01*
X95800000Y-62600000D01*
X95200000Y-63000000D01*
X88800000Y-63000000D01*
X87400000Y-64400000D01*
X87400000Y-67000000D01*
X79800000Y-74600000D01*
X78600000Y-73400000D01*
X85600000Y-66400000D01*
X85600000Y-63800000D01*
X88200000Y-61200000D01*
X96600000Y-61200000D01*
X98600000Y-59200000D01*
X98800000Y-59200000D01*
X98800000Y-58000000D01*
X101000000Y-58000000D01*
X101000000Y-59600000D01*
G37*
X101000000Y-59600000D02*
X100400000Y-59600000D01*
X97400000Y-62600000D01*
X95800000Y-62600000D01*
X95200000Y-63000000D01*
X88800000Y-63000000D01*
X87400000Y-64400000D01*
X87400000Y-67000000D01*
X79800000Y-74600000D01*
X78600000Y-73400000D01*
X85600000Y-66400000D01*
X85600000Y-63800000D01*
X88200000Y-61200000D01*
X96600000Y-61200000D01*
X98600000Y-59200000D01*
X98800000Y-59200000D01*
X98800000Y-58000000D01*
X101000000Y-58000000D01*
X101000000Y-59600000D01*
G36*
X104000000Y-56400000D02*
G01*
X104000000Y-57600000D01*
X106000000Y-57600000D01*
X106000000Y-59600000D01*
X101400000Y-59600000D01*
X101400000Y-57800000D01*
X102000000Y-57800000D01*
X102000000Y-57200000D01*
X99200000Y-54400000D01*
X96600000Y-54400000D01*
X96600000Y-52600000D01*
X100200000Y-52600000D01*
X104000000Y-56400000D01*
G37*
X104000000Y-56400000D02*
X104000000Y-57600000D01*
X106000000Y-57600000D01*
X106000000Y-59600000D01*
X101400000Y-59600000D01*
X101400000Y-57800000D01*
X102000000Y-57800000D01*
X102000000Y-57200000D01*
X99200000Y-54400000D01*
X96600000Y-54400000D01*
X96600000Y-52600000D01*
X100200000Y-52600000D01*
X104000000Y-56400000D01*
G36*
X149600000Y-59400000D02*
G01*
X146000000Y-62800000D01*
X144600000Y-62800000D01*
X144600000Y-63000000D01*
X140800000Y-63000000D01*
X133400000Y-70400000D01*
X133400000Y-75400000D01*
X131800000Y-75400000D01*
X131800000Y-69600000D01*
X140200000Y-61400000D01*
X145200000Y-61400000D01*
X147600000Y-59000000D01*
X147600000Y-57800000D01*
X149600000Y-57800000D01*
X149600000Y-59400000D01*
G37*
X149600000Y-59400000D02*
X146000000Y-62800000D01*
X144600000Y-62800000D01*
X144600000Y-63000000D01*
X140800000Y-63000000D01*
X133400000Y-70400000D01*
X133400000Y-75400000D01*
X131800000Y-75400000D01*
X131800000Y-69600000D01*
X140200000Y-61400000D01*
X145200000Y-61400000D01*
X147600000Y-59000000D01*
X147600000Y-57800000D01*
X149600000Y-57800000D01*
X149600000Y-59400000D01*
G36*
X153200000Y-55800000D02*
G01*
X153200000Y-57600000D01*
X155000000Y-57600000D01*
X155000000Y-59400000D01*
X150400000Y-59400000D01*
X150400000Y-57400000D01*
X151000000Y-57400000D01*
X151000000Y-56600000D01*
X149000000Y-54600000D01*
X145400000Y-54600000D01*
X145400000Y-52400000D01*
X149800000Y-52400000D01*
X153200000Y-55800000D01*
G37*
X153200000Y-55800000D02*
X153200000Y-57600000D01*
X155000000Y-57600000D01*
X155000000Y-59400000D01*
X150400000Y-59400000D01*
X150400000Y-57400000D01*
X151000000Y-57400000D01*
X151000000Y-56600000D01*
X149000000Y-54600000D01*
X145400000Y-54600000D01*
X145400000Y-52400000D01*
X149800000Y-52400000D01*
X153200000Y-55800000D01*
G36*
X159200000Y-58200000D02*
G01*
X159200000Y-66200000D01*
X158000000Y-67400000D01*
X155400000Y-67400000D01*
X155400000Y-65800000D01*
X157200000Y-65800000D01*
X157400000Y-65600000D01*
X157400000Y-58800000D01*
X155400000Y-56800000D01*
X155400000Y-55000000D01*
X156000000Y-55000000D01*
X159200000Y-58200000D01*
G37*
X159200000Y-58200000D02*
X159200000Y-66200000D01*
X158000000Y-67400000D01*
X155400000Y-67400000D01*
X155400000Y-65800000D01*
X157200000Y-65800000D01*
X157400000Y-65600000D01*
X157400000Y-58800000D01*
X155400000Y-56800000D01*
X155400000Y-55000000D01*
X156000000Y-55000000D01*
X159200000Y-58200000D01*
D11*
%TO.C,F2*%
X132300000Y-75100000D03*
X127200000Y-75100000D03*
%TD*%
D12*
%TO.C,Q8*%
X155225000Y-69080000D03*
X155225000Y-66540000D03*
G36*
G01*
X154225000Y-62997500D02*
X156225000Y-62997500D01*
G75*
G02*
X156275000Y-63047500I0J-50000D01*
G01*
X156275000Y-64952500D01*
G75*
G02*
X156225000Y-65002500I-50000J0D01*
G01*
X154225000Y-65002500D01*
G75*
G02*
X154175000Y-64952500I0J50000D01*
G01*
X154175000Y-63047500D01*
G75*
G02*
X154225000Y-62997500I50000J0D01*
G01*
G37*
D13*
X171885000Y-66540000D03*
%TD*%
D12*
%TO.C,Q7*%
X145410000Y-63960000D03*
X145410000Y-66500000D03*
G36*
G01*
X146410000Y-70042500D02*
X144410000Y-70042500D01*
G75*
G02*
X144360000Y-69992500I0J50000D01*
G01*
X144360000Y-68087500D01*
G75*
G02*
X144410000Y-68037500I50000J0D01*
G01*
X146410000Y-68037500D01*
G75*
G02*
X146460000Y-68087500I0J-50000D01*
G01*
X146460000Y-69992500D01*
G75*
G02*
X146410000Y-70042500I-50000J0D01*
G01*
G37*
D13*
X128750000Y-66500000D03*
%TD*%
D12*
%TO.C,Q4*%
X155219400Y-58572400D03*
X155219400Y-56032400D03*
G36*
G01*
X154219400Y-52489900D02*
X156219400Y-52489900D01*
G75*
G02*
X156269400Y-52539900I0J-50000D01*
G01*
X156269400Y-54444900D01*
G75*
G02*
X156219400Y-54494900I-50000J0D01*
G01*
X154219400Y-54494900D01*
G75*
G02*
X154169400Y-54444900I0J50000D01*
G01*
X154169400Y-52539900D01*
G75*
G02*
X154219400Y-52489900I50000J0D01*
G01*
G37*
D13*
X171879400Y-56032400D03*
%TD*%
D12*
%TO.C,Q3*%
X145410000Y-53460000D03*
X145410000Y-56000000D03*
G36*
G01*
X146410000Y-59542500D02*
X144410000Y-59542500D01*
G75*
G02*
X144360000Y-59492500I0J50000D01*
G01*
X144360000Y-57587500D01*
G75*
G02*
X144410000Y-57537500I50000J0D01*
G01*
X146410000Y-57537500D01*
G75*
G02*
X146460000Y-57587500I0J-50000D01*
G01*
X146460000Y-59492500D01*
G75*
G02*
X146410000Y-59542500I-50000J0D01*
G01*
G37*
D13*
X128750000Y-56000000D03*
%TD*%
D14*
%TO.C,J4*%
X152080000Y-77750000D03*
X149540000Y-77750000D03*
G36*
G01*
X147850000Y-78650000D02*
X146150000Y-78650000D01*
G75*
G02*
X146100000Y-78600000I0J50000D01*
G01*
X146100000Y-76900000D01*
G75*
G02*
X146150000Y-76850000I50000J0D01*
G01*
X147850000Y-76850000D01*
G75*
G02*
X147900000Y-76900000I0J-50000D01*
G01*
X147900000Y-78600000D01*
G75*
G02*
X147850000Y-78650000I-50000J0D01*
G01*
G37*
%TD*%
D15*
%TO.C,J3*%
X152580000Y-46750000D03*
G36*
G01*
X145950000Y-48250000D02*
X145950000Y-45250000D01*
G75*
G02*
X146000000Y-45200000I50000J0D01*
G01*
X149000000Y-45200000D01*
G75*
G02*
X149050000Y-45250000I0J-50000D01*
G01*
X149050000Y-48250000D01*
G75*
G02*
X149000000Y-48300000I-50000J0D01*
G01*
X146000000Y-48300000D01*
G75*
G02*
X145950000Y-48250000I0J50000D01*
G01*
G37*
%TD*%
%TO.C,IC4*%
G36*
G01*
X148720000Y-63197000D02*
X148720000Y-64725000D01*
G75*
G02*
X148670000Y-64775000I-50000J0D01*
G01*
X148020000Y-64775000D01*
G75*
G02*
X147970000Y-64725000I0J50000D01*
G01*
X147970000Y-63197000D01*
G75*
G02*
X148020000Y-63147000I50000J0D01*
G01*
X148670000Y-63147000D01*
G75*
G02*
X148720000Y-63197000I0J-50000D01*
G01*
G37*
G36*
G01*
X149990000Y-63197000D02*
X149990000Y-64725000D01*
G75*
G02*
X149940000Y-64775000I-50000J0D01*
G01*
X149290000Y-64775000D01*
G75*
G02*
X149240000Y-64725000I0J50000D01*
G01*
X149240000Y-63197000D01*
G75*
G02*
X149290000Y-63147000I50000J0D01*
G01*
X149940000Y-63147000D01*
G75*
G02*
X149990000Y-63197000I0J-50000D01*
G01*
G37*
G36*
G01*
X151260000Y-63197000D02*
X151260000Y-64725000D01*
G75*
G02*
X151210000Y-64775000I-50000J0D01*
G01*
X150560000Y-64775000D01*
G75*
G02*
X150510000Y-64725000I0J50000D01*
G01*
X150510000Y-63197000D01*
G75*
G02*
X150560000Y-63147000I50000J0D01*
G01*
X151210000Y-63147000D01*
G75*
G02*
X151260000Y-63197000I0J-50000D01*
G01*
G37*
G36*
G01*
X152530000Y-63197000D02*
X152530000Y-64725000D01*
G75*
G02*
X152480000Y-64775000I-50000J0D01*
G01*
X151830000Y-64775000D01*
G75*
G02*
X151780000Y-64725000I0J50000D01*
G01*
X151780000Y-63197000D01*
G75*
G02*
X151830000Y-63147000I50000J0D01*
G01*
X152480000Y-63147000D01*
G75*
G02*
X152530000Y-63197000I0J-50000D01*
G01*
G37*
G36*
G01*
X152530000Y-57775000D02*
X152530000Y-59303000D01*
G75*
G02*
X152480000Y-59353000I-50000J0D01*
G01*
X151830000Y-59353000D01*
G75*
G02*
X151780000Y-59303000I0J50000D01*
G01*
X151780000Y-57775000D01*
G75*
G02*
X151830000Y-57725000I50000J0D01*
G01*
X152480000Y-57725000D01*
G75*
G02*
X152530000Y-57775000I0J-50000D01*
G01*
G37*
G36*
G01*
X151260000Y-57775000D02*
X151260000Y-59303000D01*
G75*
G02*
X151210000Y-59353000I-50000J0D01*
G01*
X150560000Y-59353000D01*
G75*
G02*
X150510000Y-59303000I0J50000D01*
G01*
X150510000Y-57775000D01*
G75*
G02*
X150560000Y-57725000I50000J0D01*
G01*
X151210000Y-57725000D01*
G75*
G02*
X151260000Y-57775000I0J-50000D01*
G01*
G37*
G36*
G01*
X149990000Y-57775000D02*
X149990000Y-59303000D01*
G75*
G02*
X149940000Y-59353000I-50000J0D01*
G01*
X149290000Y-59353000D01*
G75*
G02*
X149240000Y-59303000I0J50000D01*
G01*
X149240000Y-57775000D01*
G75*
G02*
X149290000Y-57725000I50000J0D01*
G01*
X149940000Y-57725000D01*
G75*
G02*
X149990000Y-57775000I0J-50000D01*
G01*
G37*
G36*
G01*
X148720000Y-57775000D02*
X148720000Y-59303000D01*
G75*
G02*
X148670000Y-59353000I-50000J0D01*
G01*
X148020000Y-59353000D01*
G75*
G02*
X147970000Y-59303000I0J50000D01*
G01*
X147970000Y-57775000D01*
G75*
G02*
X148020000Y-57725000I50000J0D01*
G01*
X148670000Y-57725000D01*
G75*
G02*
X148720000Y-57775000I0J-50000D01*
G01*
G37*
%TD*%
D14*
%TO.C,J2*%
X90330000Y-78750000D03*
X87790000Y-78750000D03*
G36*
G01*
X86100000Y-79650000D02*
X84400000Y-79650000D01*
G75*
G02*
X84350000Y-79600000I0J50000D01*
G01*
X84350000Y-77900000D01*
G75*
G02*
X84400000Y-77850000I50000J0D01*
G01*
X86100000Y-77850000D01*
G75*
G02*
X86150000Y-77900000I0J-50000D01*
G01*
X86150000Y-79600000D01*
G75*
G02*
X86100000Y-79650000I-50000J0D01*
G01*
G37*
%TD*%
D12*
%TO.C,Q6*%
X106000000Y-69080000D03*
X106000000Y-66540000D03*
G36*
G01*
X105000000Y-62997500D02*
X107000000Y-62997500D01*
G75*
G02*
X107050000Y-63047500I0J-50000D01*
G01*
X107050000Y-64952500D01*
G75*
G02*
X107000000Y-65002500I-50000J0D01*
G01*
X105000000Y-65002500D01*
G75*
G02*
X104950000Y-64952500I0J50000D01*
G01*
X104950000Y-63047500D01*
G75*
G02*
X105000000Y-62997500I50000J0D01*
G01*
G37*
D13*
X122660000Y-66540000D03*
%TD*%
D12*
%TO.C,Q5*%
X96650000Y-63995000D03*
X96650000Y-66535000D03*
G36*
G01*
X97650000Y-70077500D02*
X95650000Y-70077500D01*
G75*
G02*
X95600000Y-70027500I0J50000D01*
G01*
X95600000Y-68122500D01*
G75*
G02*
X95650000Y-68072500I50000J0D01*
G01*
X97650000Y-68072500D01*
G75*
G02*
X97700000Y-68122500I0J-50000D01*
G01*
X97700000Y-70027500D01*
G75*
G02*
X97650000Y-70077500I-50000J0D01*
G01*
G37*
D13*
X79990000Y-66535000D03*
%TD*%
D12*
%TO.C,Q2*%
X106000000Y-58580000D03*
X106000000Y-56040000D03*
G36*
G01*
X105000000Y-52497500D02*
X107000000Y-52497500D01*
G75*
G02*
X107050000Y-52547500I0J-50000D01*
G01*
X107050000Y-54452500D01*
G75*
G02*
X107000000Y-54502500I-50000J0D01*
G01*
X105000000Y-54502500D01*
G75*
G02*
X104950000Y-54452500I0J50000D01*
G01*
X104950000Y-52547500D01*
G75*
G02*
X105000000Y-52497500I50000J0D01*
G01*
G37*
D13*
X122660000Y-56040000D03*
%TD*%
D12*
%TO.C,Q1*%
X96660000Y-53460000D03*
X96660000Y-56000000D03*
G36*
G01*
X97660000Y-59542500D02*
X95660000Y-59542500D01*
G75*
G02*
X95610000Y-59492500I0J50000D01*
G01*
X95610000Y-57587500D01*
G75*
G02*
X95660000Y-57537500I50000J0D01*
G01*
X97660000Y-57537500D01*
G75*
G02*
X97710000Y-57587500I0J-50000D01*
G01*
X97710000Y-59492500D01*
G75*
G02*
X97660000Y-59542500I-50000J0D01*
G01*
G37*
D13*
X80000000Y-56000000D03*
%TD*%
D15*
%TO.C,J5*%
X114170000Y-78250000D03*
G36*
G01*
X120800000Y-76750000D02*
X120800000Y-79750000D01*
G75*
G02*
X120750000Y-79800000I-50000J0D01*
G01*
X117750000Y-79800000D01*
G75*
G02*
X117700000Y-79750000I0J50000D01*
G01*
X117700000Y-76750000D01*
G75*
G02*
X117750000Y-76700000I50000J0D01*
G01*
X120750000Y-76700000D01*
G75*
G02*
X120800000Y-76750000I0J-50000D01*
G01*
G37*
%TD*%
%TO.C,J1*%
X103830000Y-46750000D03*
G36*
G01*
X97200000Y-48250000D02*
X97200000Y-45250000D01*
G75*
G02*
X97250000Y-45200000I50000J0D01*
G01*
X100250000Y-45200000D01*
G75*
G02*
X100300000Y-45250000I0J-50000D01*
G01*
X100300000Y-48250000D01*
G75*
G02*
X100250000Y-48300000I-50000J0D01*
G01*
X97250000Y-48300000D01*
G75*
G02*
X97200000Y-48250000I0J50000D01*
G01*
G37*
%TD*%
%TO.C,IC2*%
G36*
G01*
X99720000Y-63447000D02*
X99720000Y-64975000D01*
G75*
G02*
X99670000Y-65025000I-50000J0D01*
G01*
X99020000Y-65025000D01*
G75*
G02*
X98970000Y-64975000I0J50000D01*
G01*
X98970000Y-63447000D01*
G75*
G02*
X99020000Y-63397000I50000J0D01*
G01*
X99670000Y-63397000D01*
G75*
G02*
X99720000Y-63447000I0J-50000D01*
G01*
G37*
G36*
G01*
X100990000Y-63447000D02*
X100990000Y-64975000D01*
G75*
G02*
X100940000Y-65025000I-50000J0D01*
G01*
X100290000Y-65025000D01*
G75*
G02*
X100240000Y-64975000I0J50000D01*
G01*
X100240000Y-63447000D01*
G75*
G02*
X100290000Y-63397000I50000J0D01*
G01*
X100940000Y-63397000D01*
G75*
G02*
X100990000Y-63447000I0J-50000D01*
G01*
G37*
G36*
G01*
X102260000Y-63447000D02*
X102260000Y-64975000D01*
G75*
G02*
X102210000Y-65025000I-50000J0D01*
G01*
X101560000Y-65025000D01*
G75*
G02*
X101510000Y-64975000I0J50000D01*
G01*
X101510000Y-63447000D01*
G75*
G02*
X101560000Y-63397000I50000J0D01*
G01*
X102210000Y-63397000D01*
G75*
G02*
X102260000Y-63447000I0J-50000D01*
G01*
G37*
G36*
G01*
X103530000Y-63447000D02*
X103530000Y-64975000D01*
G75*
G02*
X103480000Y-65025000I-50000J0D01*
G01*
X102830000Y-65025000D01*
G75*
G02*
X102780000Y-64975000I0J50000D01*
G01*
X102780000Y-63447000D01*
G75*
G02*
X102830000Y-63397000I50000J0D01*
G01*
X103480000Y-63397000D01*
G75*
G02*
X103530000Y-63447000I0J-50000D01*
G01*
G37*
G36*
G01*
X103530000Y-58025000D02*
X103530000Y-59553000D01*
G75*
G02*
X103480000Y-59603000I-50000J0D01*
G01*
X102830000Y-59603000D01*
G75*
G02*
X102780000Y-59553000I0J50000D01*
G01*
X102780000Y-58025000D01*
G75*
G02*
X102830000Y-57975000I50000J0D01*
G01*
X103480000Y-57975000D01*
G75*
G02*
X103530000Y-58025000I0J-50000D01*
G01*
G37*
G36*
G01*
X102260000Y-58025000D02*
X102260000Y-59553000D01*
G75*
G02*
X102210000Y-59603000I-50000J0D01*
G01*
X101560000Y-59603000D01*
G75*
G02*
X101510000Y-59553000I0J50000D01*
G01*
X101510000Y-58025000D01*
G75*
G02*
X101560000Y-57975000I50000J0D01*
G01*
X102210000Y-57975000D01*
G75*
G02*
X102260000Y-58025000I0J-50000D01*
G01*
G37*
G36*
G01*
X100990000Y-58025000D02*
X100990000Y-59553000D01*
G75*
G02*
X100940000Y-59603000I-50000J0D01*
G01*
X100290000Y-59603000D01*
G75*
G02*
X100240000Y-59553000I0J50000D01*
G01*
X100240000Y-58025000D01*
G75*
G02*
X100290000Y-57975000I50000J0D01*
G01*
X100940000Y-57975000D01*
G75*
G02*
X100990000Y-58025000I0J-50000D01*
G01*
G37*
G36*
G01*
X99720000Y-58025000D02*
X99720000Y-59553000D01*
G75*
G02*
X99670000Y-59603000I-50000J0D01*
G01*
X99020000Y-59603000D01*
G75*
G02*
X98970000Y-59553000I0J50000D01*
G01*
X98970000Y-58025000D01*
G75*
G02*
X99020000Y-57975000I50000J0D01*
G01*
X99670000Y-57975000D01*
G75*
G02*
X99720000Y-58025000I0J-50000D01*
G01*
G37*
%TD*%
D11*
%TO.C,F1*%
X79250000Y-74000000D03*
X84350000Y-74000000D03*
%TD*%
D16*
%TO.C,C5*%
X98750000Y-77750000D03*
G36*
G01*
X105000000Y-76550000D02*
X105000000Y-78950000D01*
G75*
G02*
X104950000Y-79000000I-50000J0D01*
G01*
X102550000Y-79000000D01*
G75*
G02*
X102500000Y-78950000I0J50000D01*
G01*
X102500000Y-76550000D01*
G75*
G02*
X102550000Y-76500000I50000J0D01*
G01*
X104950000Y-76500000D01*
G75*
G02*
X105000000Y-76550000I0J-50000D01*
G01*
G37*
%TD*%
M02*
