%TF.GenerationSoftware,KiCad,Pcbnew,5.1.10-88a1d61d58~88~ubuntu20.04.1*%
%TF.CreationDate,2021-06-20T22:38:56+02:00*%
%TF.ProjectId,motor_driver_v1,6d6f746f-725f-4647-9269-7665725f7631,rev?*%
%TF.SameCoordinates,Original*%
%TF.FileFunction,Legend,Top*%
%TF.FilePolarity,Positive*%
%FSLAX46Y46*%
G04 Gerber Fmt 4.6, Leading zero omitted, Abs format (unit mm)*
G04 Created by KiCad (PCBNEW 5.1.10-88a1d61d58~88~ubuntu20.04.1) date 2021-06-20 22:38:56*
%MOMM*%
%LPD*%
G01*
G04 APERTURE LIST*
%ADD10C,0.120000*%
%ADD11C,0.200000*%
%ADD12C,0.150000*%
%ADD13C,0.254000*%
G04 APERTURE END LIST*
D10*
%TO.C,Q8*%
X158915000Y-69080000D02*
X156375000Y-69080000D01*
X158915000Y-66540000D02*
X156375000Y-66540000D01*
X158915000Y-64000000D02*
X156375000Y-64000000D01*
X174805000Y-71660000D02*
X158915000Y-71660000D01*
X174805000Y-61420000D02*
X158915000Y-61420000D01*
X174805000Y-61420000D02*
X174805000Y-71660000D01*
X158915000Y-61420000D02*
X158915000Y-71660000D01*
%TO.C,Q7*%
X141720000Y-63960000D02*
X144260000Y-63960000D01*
X141720000Y-66500000D02*
X144260000Y-66500000D01*
X141720000Y-69040000D02*
X144260000Y-69040000D01*
X125830000Y-61380000D02*
X141720000Y-61380000D01*
X125830000Y-71620000D02*
X141720000Y-71620000D01*
X125830000Y-71620000D02*
X125830000Y-61380000D01*
X141720000Y-71620000D02*
X141720000Y-61380000D01*
%TO.C,Q4*%
X158909400Y-58572400D02*
X156369400Y-58572400D01*
X158909400Y-56032400D02*
X156369400Y-56032400D01*
X158909400Y-53492400D02*
X156369400Y-53492400D01*
X174799400Y-61152400D02*
X158909400Y-61152400D01*
X174799400Y-50912400D02*
X158909400Y-50912400D01*
X174799400Y-50912400D02*
X174799400Y-61152400D01*
X158909400Y-50912400D02*
X158909400Y-61152400D01*
%TO.C,Q3*%
X141720000Y-53460000D02*
X144260000Y-53460000D01*
X141720000Y-56000000D02*
X144260000Y-56000000D01*
X141720000Y-58540000D02*
X144260000Y-58540000D01*
X125830000Y-50880000D02*
X141720000Y-50880000D01*
X125830000Y-61120000D02*
X141720000Y-61120000D01*
X125830000Y-61120000D02*
X125830000Y-50880000D01*
X141720000Y-61120000D02*
X141720000Y-50880000D01*
%TO.C,J4*%
X145670000Y-79080000D02*
X145670000Y-77750000D01*
X147000000Y-79080000D02*
X145670000Y-79080000D01*
X148270000Y-79080000D02*
X148270000Y-76420000D01*
X148270000Y-76420000D02*
X153410000Y-76420000D01*
X148270000Y-79080000D02*
X153410000Y-79080000D01*
X153410000Y-79080000D02*
X153410000Y-76420000D01*
%TO.C,J3*%
X144960000Y-50560000D02*
X155120000Y-50560000D01*
X144960000Y-42940000D02*
X144960000Y-50560000D01*
X155120000Y-42940000D02*
X144960000Y-42940000D01*
X155120000Y-50560000D02*
X155120000Y-42940000D01*
X155120000Y-49290000D02*
X144960000Y-49290000D01*
D11*
%TO.C,IC3*%
X147800000Y-66350000D02*
X147800000Y-63150000D01*
X147800000Y-63150000D02*
X152700000Y-63150000D01*
X152700000Y-63150000D02*
X152700000Y-66350000D01*
X152700000Y-66350000D02*
X147800000Y-66350000D01*
X147670000Y-68200000D02*
X147670000Y-66700000D01*
D10*
%TO.C,C2*%
X150286252Y-51040000D02*
X149763748Y-51040000D01*
X150286252Y-52510000D02*
X149763748Y-52510000D01*
D11*
%TO.C,IC1*%
X99165000Y-66400000D02*
X99165000Y-63200000D01*
X99165000Y-63200000D02*
X104065000Y-63200000D01*
X104065000Y-63200000D02*
X104065000Y-66400000D01*
X104065000Y-66400000D02*
X99165000Y-66400000D01*
X99035000Y-68250000D02*
X99035000Y-66750000D01*
D10*
%TO.C,J2*%
X83920000Y-80080000D02*
X83920000Y-78750000D01*
X85250000Y-80080000D02*
X83920000Y-80080000D01*
X86520000Y-80080000D02*
X86520000Y-77420000D01*
X86520000Y-77420000D02*
X91660000Y-77420000D01*
X86520000Y-80080000D02*
X91660000Y-80080000D01*
X91660000Y-80080000D02*
X91660000Y-77420000D01*
%TO.C,Q6*%
X109690000Y-69080000D02*
X107150000Y-69080000D01*
X109690000Y-66540000D02*
X107150000Y-66540000D01*
X109690000Y-64000000D02*
X107150000Y-64000000D01*
X125580000Y-71660000D02*
X109690000Y-71660000D01*
X125580000Y-61420000D02*
X109690000Y-61420000D01*
X125580000Y-61420000D02*
X125580000Y-71660000D01*
X109690000Y-61420000D02*
X109690000Y-71660000D01*
%TO.C,Q5*%
X92960000Y-63995000D02*
X95500000Y-63995000D01*
X92960000Y-66535000D02*
X95500000Y-66535000D01*
X92960000Y-69075000D02*
X95500000Y-69075000D01*
X77070000Y-61415000D02*
X92960000Y-61415000D01*
X77070000Y-71655000D02*
X92960000Y-71655000D01*
X77070000Y-71655000D02*
X77070000Y-61415000D01*
X92960000Y-71655000D02*
X92960000Y-61415000D01*
%TO.C,Q2*%
X109690000Y-58580000D02*
X107150000Y-58580000D01*
X109690000Y-56040000D02*
X107150000Y-56040000D01*
X109690000Y-53500000D02*
X107150000Y-53500000D01*
X125580000Y-61160000D02*
X109690000Y-61160000D01*
X125580000Y-50920000D02*
X109690000Y-50920000D01*
X125580000Y-50920000D02*
X125580000Y-61160000D01*
X109690000Y-50920000D02*
X109690000Y-61160000D01*
%TO.C,Q1*%
X92970000Y-53460000D02*
X95510000Y-53460000D01*
X92970000Y-56000000D02*
X95510000Y-56000000D01*
X92970000Y-58540000D02*
X95510000Y-58540000D01*
X77080000Y-50880000D02*
X92970000Y-50880000D01*
X77080000Y-61120000D02*
X92970000Y-61120000D01*
X77080000Y-61120000D02*
X77080000Y-50880000D01*
X92970000Y-61120000D02*
X92970000Y-50880000D01*
%TO.C,J5*%
X121790000Y-74440000D02*
X111630000Y-74440000D01*
X121790000Y-82060000D02*
X121790000Y-74440000D01*
X111630000Y-82060000D02*
X121790000Y-82060000D01*
X111630000Y-74440000D02*
X111630000Y-82060000D01*
X111630000Y-75710000D02*
X121790000Y-75710000D01*
%TO.C,J1*%
X96210000Y-50560000D02*
X106370000Y-50560000D01*
X96210000Y-42940000D02*
X96210000Y-50560000D01*
X106370000Y-42940000D02*
X96210000Y-42940000D01*
X106370000Y-50560000D02*
X106370000Y-42940000D01*
X106370000Y-49290000D02*
X96210000Y-49290000D01*
%TO.C,C5*%
X107442082Y-81950000D02*
X107442082Y-80700000D01*
X108067082Y-81325000D02*
X106817082Y-81325000D01*
X94889000Y-78067000D02*
X94889000Y-77433000D01*
X94929000Y-78507000D02*
X94929000Y-76993000D01*
X94969000Y-78778000D02*
X94969000Y-76722000D01*
X95009000Y-78991000D02*
X95009000Y-76509000D01*
X95049000Y-79172000D02*
X95049000Y-76328000D01*
X95089000Y-79333000D02*
X95089000Y-76167000D01*
X95129000Y-79478000D02*
X95129000Y-76022000D01*
X95169000Y-79611000D02*
X95169000Y-75889000D01*
X95209000Y-79734000D02*
X95209000Y-75766000D01*
X95249000Y-79850000D02*
X95249000Y-75650000D01*
X95289000Y-79959000D02*
X95289000Y-75541000D01*
X95329000Y-80062000D02*
X95329000Y-75438000D01*
X95369000Y-80160000D02*
X95369000Y-75340000D01*
X95409000Y-80254000D02*
X95409000Y-75246000D01*
X95449000Y-80344000D02*
X95449000Y-75156000D01*
X95489000Y-80431000D02*
X95489000Y-75069000D01*
X95529000Y-80514000D02*
X95529000Y-74986000D01*
X95569000Y-80594000D02*
X95569000Y-74906000D01*
X95609000Y-80671000D02*
X95609000Y-74829000D01*
X95649000Y-80746000D02*
X95649000Y-74754000D01*
X95689000Y-80819000D02*
X95689000Y-74681000D01*
X95729000Y-80890000D02*
X95729000Y-74610000D01*
X95769000Y-80958000D02*
X95769000Y-74542000D01*
X95809000Y-81025000D02*
X95809000Y-74475000D01*
X95849000Y-81089000D02*
X95849000Y-74411000D01*
X95889000Y-81152000D02*
X95889000Y-74348000D01*
X95929000Y-81214000D02*
X95929000Y-74286000D01*
X95969000Y-81274000D02*
X95969000Y-74226000D01*
X96009000Y-81333000D02*
X96009000Y-74167000D01*
X96049000Y-81390000D02*
X96049000Y-74110000D01*
X96089000Y-81446000D02*
X96089000Y-74054000D01*
X96129000Y-81500000D02*
X96129000Y-74000000D01*
X96169000Y-81554000D02*
X96169000Y-73946000D01*
X96209000Y-81606000D02*
X96209000Y-73894000D01*
X96249000Y-81657000D02*
X96249000Y-73843000D01*
X96289000Y-81707000D02*
X96289000Y-73793000D01*
X96329000Y-81757000D02*
X96329000Y-73743000D01*
X96369000Y-81805000D02*
X96369000Y-73695000D01*
X96409000Y-81852000D02*
X96409000Y-73648000D01*
X96449000Y-81898000D02*
X96449000Y-73602000D01*
X96489000Y-81944000D02*
X96489000Y-73556000D01*
X96529000Y-81988000D02*
X96529000Y-73512000D01*
X96569000Y-82032000D02*
X96569000Y-73468000D01*
X96609000Y-82075000D02*
X96609000Y-73425000D01*
X96649000Y-82117000D02*
X96649000Y-73383000D01*
X96689000Y-82158000D02*
X96689000Y-73342000D01*
X96729000Y-82199000D02*
X96729000Y-73301000D01*
X96769000Y-82239000D02*
X96769000Y-73261000D01*
X96809000Y-82278000D02*
X96809000Y-73222000D01*
X96849000Y-82317000D02*
X96849000Y-73183000D01*
X96889000Y-82355000D02*
X96889000Y-73145000D01*
X96929000Y-82392000D02*
X96929000Y-73108000D01*
X96969000Y-82428000D02*
X96969000Y-73072000D01*
X97009000Y-82464000D02*
X97009000Y-73036000D01*
X97049000Y-82500000D02*
X97049000Y-73000000D01*
X97089000Y-82535000D02*
X97089000Y-72965000D01*
X97129000Y-82569000D02*
X97129000Y-72931000D01*
X97169000Y-82602000D02*
X97169000Y-72898000D01*
X97209000Y-82635000D02*
X97209000Y-72865000D01*
X97249000Y-82668000D02*
X97249000Y-72832000D01*
X97289000Y-82700000D02*
X97289000Y-72800000D01*
X97329000Y-76310000D02*
X97329000Y-72768000D01*
X97329000Y-82732000D02*
X97329000Y-79190000D01*
X97369000Y-76310000D02*
X97369000Y-72738000D01*
X97369000Y-82762000D02*
X97369000Y-79190000D01*
X97409000Y-76310000D02*
X97409000Y-72707000D01*
X97409000Y-82793000D02*
X97409000Y-79190000D01*
X97449000Y-76310000D02*
X97449000Y-72677000D01*
X97449000Y-82823000D02*
X97449000Y-79190000D01*
X97489000Y-76310000D02*
X97489000Y-72648000D01*
X97489000Y-82852000D02*
X97489000Y-79190000D01*
X97529000Y-76310000D02*
X97529000Y-72619000D01*
X97529000Y-82881000D02*
X97529000Y-79190000D01*
X97569000Y-76310000D02*
X97569000Y-72590000D01*
X97569000Y-82910000D02*
X97569000Y-79190000D01*
X97609000Y-76310000D02*
X97609000Y-72562000D01*
X97609000Y-82938000D02*
X97609000Y-79190000D01*
X97649000Y-76310000D02*
X97649000Y-72534000D01*
X97649000Y-82966000D02*
X97649000Y-79190000D01*
X97689000Y-76310000D02*
X97689000Y-72507000D01*
X97689000Y-82993000D02*
X97689000Y-79190000D01*
X97729000Y-76310000D02*
X97729000Y-72480000D01*
X97729000Y-83020000D02*
X97729000Y-79190000D01*
X97769000Y-76310000D02*
X97769000Y-72454000D01*
X97769000Y-83046000D02*
X97769000Y-79190000D01*
X97809000Y-76310000D02*
X97809000Y-72428000D01*
X97809000Y-83072000D02*
X97809000Y-79190000D01*
X97849000Y-76310000D02*
X97849000Y-72403000D01*
X97849000Y-83097000D02*
X97849000Y-79190000D01*
X97889000Y-76310000D02*
X97889000Y-72378000D01*
X97889000Y-83122000D02*
X97889000Y-79190000D01*
X97929000Y-76310000D02*
X97929000Y-72353000D01*
X97929000Y-83147000D02*
X97929000Y-79190000D01*
X97969000Y-76310000D02*
X97969000Y-72329000D01*
X97969000Y-83171000D02*
X97969000Y-79190000D01*
X98009000Y-76310000D02*
X98009000Y-72305000D01*
X98009000Y-83195000D02*
X98009000Y-79190000D01*
X98049000Y-76310000D02*
X98049000Y-72282000D01*
X98049000Y-83218000D02*
X98049000Y-79190000D01*
X98089000Y-76310000D02*
X98089000Y-72259000D01*
X98089000Y-83241000D02*
X98089000Y-79190000D01*
X98129000Y-76310000D02*
X98129000Y-72236000D01*
X98129000Y-83264000D02*
X98129000Y-79190000D01*
X98169000Y-76310000D02*
X98169000Y-72214000D01*
X98169000Y-83286000D02*
X98169000Y-79190000D01*
X98209000Y-76310000D02*
X98209000Y-72192000D01*
X98209000Y-83308000D02*
X98209000Y-79190000D01*
X98249000Y-76310000D02*
X98249000Y-72170000D01*
X98249000Y-83330000D02*
X98249000Y-79190000D01*
X98289000Y-76310000D02*
X98289000Y-72149000D01*
X98289000Y-83351000D02*
X98289000Y-79190000D01*
X98329000Y-76310000D02*
X98329000Y-72128000D01*
X98329000Y-83372000D02*
X98329000Y-79190000D01*
X98369000Y-76310000D02*
X98369000Y-72108000D01*
X98369000Y-83392000D02*
X98369000Y-79190000D01*
X98409000Y-76310000D02*
X98409000Y-72088000D01*
X98409000Y-83412000D02*
X98409000Y-79190000D01*
X98449000Y-76310000D02*
X98449000Y-72068000D01*
X98449000Y-83432000D02*
X98449000Y-79190000D01*
X98489000Y-76310000D02*
X98489000Y-72048000D01*
X98489000Y-83452000D02*
X98489000Y-79190000D01*
X98529000Y-76310000D02*
X98529000Y-72029000D01*
X98529000Y-83471000D02*
X98529000Y-79190000D01*
X98569000Y-76310000D02*
X98569000Y-72011000D01*
X98569000Y-83489000D02*
X98569000Y-79190000D01*
X98609000Y-76310000D02*
X98609000Y-71992000D01*
X98609000Y-83508000D02*
X98609000Y-79190000D01*
X98649000Y-76310000D02*
X98649000Y-71974000D01*
X98649000Y-83526000D02*
X98649000Y-79190000D01*
X98689000Y-76310000D02*
X98689000Y-71957000D01*
X98689000Y-83543000D02*
X98689000Y-79190000D01*
X98729000Y-76310000D02*
X98729000Y-71939000D01*
X98729000Y-83561000D02*
X98729000Y-79190000D01*
X98769000Y-76310000D02*
X98769000Y-71922000D01*
X98769000Y-83578000D02*
X98769000Y-79190000D01*
X98809000Y-76310000D02*
X98809000Y-71905000D01*
X98809000Y-83595000D02*
X98809000Y-79190000D01*
X98849000Y-76310000D02*
X98849000Y-71889000D01*
X98849000Y-83611000D02*
X98849000Y-79190000D01*
X98889000Y-76310000D02*
X98889000Y-71873000D01*
X98889000Y-83627000D02*
X98889000Y-79190000D01*
X98929000Y-76310000D02*
X98929000Y-71857000D01*
X98929000Y-83643000D02*
X98929000Y-79190000D01*
X98969000Y-76310000D02*
X98969000Y-71842000D01*
X98969000Y-83658000D02*
X98969000Y-79190000D01*
X99009000Y-76310000D02*
X99009000Y-71826000D01*
X99009000Y-83674000D02*
X99009000Y-79190000D01*
X99049000Y-76310000D02*
X99049000Y-71811000D01*
X99049000Y-83689000D02*
X99049000Y-79190000D01*
X99089000Y-76310000D02*
X99089000Y-71797000D01*
X99089000Y-83703000D02*
X99089000Y-79190000D01*
X99129000Y-76310000D02*
X99129000Y-71783000D01*
X99129000Y-83717000D02*
X99129000Y-79190000D01*
X99169000Y-76310000D02*
X99169000Y-71769000D01*
X99169000Y-83731000D02*
X99169000Y-79190000D01*
X99209000Y-76310000D02*
X99209000Y-71755000D01*
X99209000Y-83745000D02*
X99209000Y-79190000D01*
X99249000Y-76310000D02*
X99249000Y-71742000D01*
X99249000Y-83758000D02*
X99249000Y-79190000D01*
X99289000Y-76310000D02*
X99289000Y-71729000D01*
X99289000Y-83771000D02*
X99289000Y-79190000D01*
X99329000Y-76310000D02*
X99329000Y-71716000D01*
X99329000Y-83784000D02*
X99329000Y-79190000D01*
X99369000Y-76310000D02*
X99369000Y-71703000D01*
X99369000Y-83797000D02*
X99369000Y-79190000D01*
X99409000Y-76310000D02*
X99409000Y-71691000D01*
X99409000Y-83809000D02*
X99409000Y-79190000D01*
X99449000Y-76310000D02*
X99449000Y-71679000D01*
X99449000Y-83821000D02*
X99449000Y-79190000D01*
X99489000Y-76310000D02*
X99489000Y-71667000D01*
X99489000Y-83833000D02*
X99489000Y-79190000D01*
X99529000Y-76310000D02*
X99529000Y-71656000D01*
X99529000Y-83844000D02*
X99529000Y-79190000D01*
X99569000Y-76310000D02*
X99569000Y-71645000D01*
X99569000Y-83855000D02*
X99569000Y-79190000D01*
X99609000Y-76310000D02*
X99609000Y-71634000D01*
X99609000Y-83866000D02*
X99609000Y-79190000D01*
X99649000Y-76310000D02*
X99649000Y-71624000D01*
X99649000Y-83876000D02*
X99649000Y-79190000D01*
X99689000Y-76310000D02*
X99689000Y-71613000D01*
X99689000Y-83887000D02*
X99689000Y-79190000D01*
X99729000Y-76310000D02*
X99729000Y-71604000D01*
X99729000Y-83896000D02*
X99729000Y-79190000D01*
X99769000Y-76310000D02*
X99769000Y-71594000D01*
X99769000Y-83906000D02*
X99769000Y-79190000D01*
X99809000Y-76310000D02*
X99809000Y-71584000D01*
X99809000Y-83916000D02*
X99809000Y-79190000D01*
X99849000Y-76310000D02*
X99849000Y-71575000D01*
X99849000Y-83925000D02*
X99849000Y-79190000D01*
X99889000Y-76310000D02*
X99889000Y-71566000D01*
X99889000Y-83934000D02*
X99889000Y-79190000D01*
X99929000Y-76310000D02*
X99929000Y-71558000D01*
X99929000Y-83942000D02*
X99929000Y-79190000D01*
X99969000Y-76310000D02*
X99969000Y-71549000D01*
X99969000Y-83951000D02*
X99969000Y-79190000D01*
X100009000Y-76310000D02*
X100009000Y-71541000D01*
X100009000Y-83959000D02*
X100009000Y-79190000D01*
X100049000Y-76310000D02*
X100049000Y-71534000D01*
X100049000Y-83966000D02*
X100049000Y-79190000D01*
X100089000Y-76310000D02*
X100089000Y-71526000D01*
X100089000Y-83974000D02*
X100089000Y-79190000D01*
X100129000Y-76310000D02*
X100129000Y-71519000D01*
X100129000Y-83981000D02*
X100129000Y-79190000D01*
X100169000Y-76310000D02*
X100169000Y-71512000D01*
X100169000Y-83988000D02*
X100169000Y-79190000D01*
X100209000Y-83995000D02*
X100209000Y-71505000D01*
X100249000Y-84002000D02*
X100249000Y-71498000D01*
X100289000Y-84008000D02*
X100289000Y-71492000D01*
X100329000Y-84014000D02*
X100329000Y-71486000D01*
X100369000Y-84019000D02*
X100369000Y-71481000D01*
X100409000Y-84025000D02*
X100409000Y-71475000D01*
X100449000Y-84030000D02*
X100449000Y-71470000D01*
X100489000Y-84035000D02*
X100489000Y-71465000D01*
X100529000Y-84040000D02*
X100529000Y-71460000D01*
X100570000Y-84044000D02*
X100570000Y-71456000D01*
X100610000Y-84048000D02*
X100610000Y-71452000D01*
X100650000Y-84052000D02*
X100650000Y-71448000D01*
X100690000Y-84056000D02*
X100690000Y-71444000D01*
X100730000Y-84059000D02*
X100730000Y-71441000D01*
X100770000Y-84062000D02*
X100770000Y-71438000D01*
X100810000Y-84065000D02*
X100810000Y-71435000D01*
X100850000Y-84068000D02*
X100850000Y-71432000D01*
X100890000Y-84070000D02*
X100890000Y-71430000D01*
X100930000Y-84072000D02*
X100930000Y-71428000D01*
X100970000Y-84074000D02*
X100970000Y-71426000D01*
X101010000Y-84076000D02*
X101010000Y-71424000D01*
X101050000Y-84077000D02*
X101050000Y-71423000D01*
X101090000Y-84078000D02*
X101090000Y-71422000D01*
X101130000Y-84079000D02*
X101130000Y-71421000D01*
X101170000Y-84080000D02*
X101170000Y-71420000D01*
X101210000Y-84080000D02*
X101210000Y-71420000D01*
X101250000Y-84080000D02*
X101250000Y-71420000D01*
X107620000Y-77750000D02*
G75*
G03*
X107620000Y-77750000I-6370000J0D01*
G01*
%TO.C,C1*%
X101511252Y-51015000D02*
X100988748Y-51015000D01*
X101511252Y-52485000D02*
X100988748Y-52485000D01*
%TO.C,F2*%
D12*
X129406666Y-73758571D02*
X129073333Y-73758571D01*
X129073333Y-74282380D02*
X129073333Y-73282380D01*
X129549523Y-73282380D01*
X129882857Y-73377619D02*
X129930476Y-73330000D01*
X130025714Y-73282380D01*
X130263809Y-73282380D01*
X130359047Y-73330000D01*
X130406666Y-73377619D01*
X130454285Y-73472857D01*
X130454285Y-73568095D01*
X130406666Y-73710952D01*
X129835238Y-74282380D01*
X130454285Y-74282380D01*
%TO.C,Q8*%
X176352619Y-66635238D02*
X176305000Y-66730476D01*
X176209761Y-66825714D01*
X176066904Y-66968571D01*
X176019285Y-67063809D01*
X176019285Y-67159047D01*
X176257380Y-67111428D02*
X176209761Y-67206666D01*
X176114523Y-67301904D01*
X175924047Y-67349523D01*
X175590714Y-67349523D01*
X175400238Y-67301904D01*
X175305000Y-67206666D01*
X175257380Y-67111428D01*
X175257380Y-66920952D01*
X175305000Y-66825714D01*
X175400238Y-66730476D01*
X175590714Y-66682857D01*
X175924047Y-66682857D01*
X176114523Y-66730476D01*
X176209761Y-66825714D01*
X176257380Y-66920952D01*
X176257380Y-67111428D01*
X175685952Y-66111428D02*
X175638333Y-66206666D01*
X175590714Y-66254285D01*
X175495476Y-66301904D01*
X175447857Y-66301904D01*
X175352619Y-66254285D01*
X175305000Y-66206666D01*
X175257380Y-66111428D01*
X175257380Y-65920952D01*
X175305000Y-65825714D01*
X175352619Y-65778095D01*
X175447857Y-65730476D01*
X175495476Y-65730476D01*
X175590714Y-65778095D01*
X175638333Y-65825714D01*
X175685952Y-65920952D01*
X175685952Y-66111428D01*
X175733571Y-66206666D01*
X175781190Y-66254285D01*
X175876428Y-66301904D01*
X176066904Y-66301904D01*
X176162142Y-66254285D01*
X176209761Y-66206666D01*
X176257380Y-66111428D01*
X176257380Y-65920952D01*
X176209761Y-65825714D01*
X176162142Y-65778095D01*
X176066904Y-65730476D01*
X175876428Y-65730476D01*
X175781190Y-65778095D01*
X175733571Y-65825714D01*
X175685952Y-65920952D01*
%TO.C,Q7*%
X125377619Y-66595238D02*
X125330000Y-66690476D01*
X125234761Y-66785714D01*
X125091904Y-66928571D01*
X125044285Y-67023809D01*
X125044285Y-67119047D01*
X125282380Y-67071428D02*
X125234761Y-67166666D01*
X125139523Y-67261904D01*
X124949047Y-67309523D01*
X124615714Y-67309523D01*
X124425238Y-67261904D01*
X124330000Y-67166666D01*
X124282380Y-67071428D01*
X124282380Y-66880952D01*
X124330000Y-66785714D01*
X124425238Y-66690476D01*
X124615714Y-66642857D01*
X124949047Y-66642857D01*
X125139523Y-66690476D01*
X125234761Y-66785714D01*
X125282380Y-66880952D01*
X125282380Y-67071428D01*
X124282380Y-66309523D02*
X124282380Y-65642857D01*
X125282380Y-66071428D01*
%TO.C,Q4*%
X176347019Y-56127638D02*
X176299400Y-56222876D01*
X176204161Y-56318114D01*
X176061304Y-56460971D01*
X176013685Y-56556209D01*
X176013685Y-56651447D01*
X176251780Y-56603828D02*
X176204161Y-56699066D01*
X176108923Y-56794304D01*
X175918447Y-56841923D01*
X175585114Y-56841923D01*
X175394638Y-56794304D01*
X175299400Y-56699066D01*
X175251780Y-56603828D01*
X175251780Y-56413352D01*
X175299400Y-56318114D01*
X175394638Y-56222876D01*
X175585114Y-56175257D01*
X175918447Y-56175257D01*
X176108923Y-56222876D01*
X176204161Y-56318114D01*
X176251780Y-56413352D01*
X176251780Y-56603828D01*
X175585114Y-55318114D02*
X176251780Y-55318114D01*
X175204161Y-55556209D02*
X175918447Y-55794304D01*
X175918447Y-55175257D01*
%TO.C,Q3*%
X132547619Y-56095238D02*
X132500000Y-56190476D01*
X132404761Y-56285714D01*
X132261904Y-56428571D01*
X132214285Y-56523809D01*
X132214285Y-56619047D01*
X132452380Y-56571428D02*
X132404761Y-56666666D01*
X132309523Y-56761904D01*
X132119047Y-56809523D01*
X131785714Y-56809523D01*
X131595238Y-56761904D01*
X131500000Y-56666666D01*
X131452380Y-56571428D01*
X131452380Y-56380952D01*
X131500000Y-56285714D01*
X131595238Y-56190476D01*
X131785714Y-56142857D01*
X132119047Y-56142857D01*
X132309523Y-56190476D01*
X132404761Y-56285714D01*
X132452380Y-56380952D01*
X132452380Y-56571428D01*
X131452380Y-55809523D02*
X131452380Y-55190476D01*
X131833333Y-55523809D01*
X131833333Y-55380952D01*
X131880952Y-55285714D01*
X131928571Y-55238095D01*
X132023809Y-55190476D01*
X132261904Y-55190476D01*
X132357142Y-55238095D01*
X132404761Y-55285714D01*
X132452380Y-55380952D01*
X132452380Y-55666666D01*
X132404761Y-55761904D01*
X132357142Y-55809523D01*
%TO.C,J4*%
X144122380Y-78083333D02*
X144836666Y-78083333D01*
X144979523Y-78130952D01*
X145074761Y-78226190D01*
X145122380Y-78369047D01*
X145122380Y-78464285D01*
X144455714Y-77178571D02*
X145122380Y-77178571D01*
X144074761Y-77416666D02*
X144789047Y-77654761D01*
X144789047Y-77035714D01*
%TO.C,J3*%
X149706666Y-41122380D02*
X149706666Y-41836666D01*
X149659047Y-41979523D01*
X149563809Y-42074761D01*
X149420952Y-42122380D01*
X149325714Y-42122380D01*
X150087619Y-41122380D02*
X150706666Y-41122380D01*
X150373333Y-41503333D01*
X150516190Y-41503333D01*
X150611428Y-41550952D01*
X150659047Y-41598571D01*
X150706666Y-41693809D01*
X150706666Y-41931904D01*
X150659047Y-42027142D01*
X150611428Y-42074761D01*
X150516190Y-42122380D01*
X150230476Y-42122380D01*
X150135238Y-42074761D01*
X150087619Y-42027142D01*
%TO.C,IC3*%
D13*
X150824523Y-65989761D02*
X149554523Y-65989761D01*
X150703571Y-64659285D02*
X150764047Y-64719761D01*
X150824523Y-64901190D01*
X150824523Y-65022142D01*
X150764047Y-65203571D01*
X150643095Y-65324523D01*
X150522142Y-65385000D01*
X150280238Y-65445476D01*
X150098809Y-65445476D01*
X149856904Y-65385000D01*
X149735952Y-65324523D01*
X149615000Y-65203571D01*
X149554523Y-65022142D01*
X149554523Y-64901190D01*
X149615000Y-64719761D01*
X149675476Y-64659285D01*
X149554523Y-64235952D02*
X149554523Y-63449761D01*
X150038333Y-63873095D01*
X150038333Y-63691666D01*
X150098809Y-63570714D01*
X150159285Y-63510238D01*
X150280238Y-63449761D01*
X150582619Y-63449761D01*
X150703571Y-63510238D01*
X150764047Y-63570714D01*
X150824523Y-63691666D01*
X150824523Y-64054523D01*
X150764047Y-64175476D01*
X150703571Y-64235952D01*
%TO.C,C2*%
D12*
X149858333Y-53812142D02*
X149810714Y-53859761D01*
X149667857Y-53907380D01*
X149572619Y-53907380D01*
X149429761Y-53859761D01*
X149334523Y-53764523D01*
X149286904Y-53669285D01*
X149239285Y-53478809D01*
X149239285Y-53335952D01*
X149286904Y-53145476D01*
X149334523Y-53050238D01*
X149429761Y-52955000D01*
X149572619Y-52907380D01*
X149667857Y-52907380D01*
X149810714Y-52955000D01*
X149858333Y-53002619D01*
X150239285Y-53002619D02*
X150286904Y-52955000D01*
X150382142Y-52907380D01*
X150620238Y-52907380D01*
X150715476Y-52955000D01*
X150763095Y-53002619D01*
X150810714Y-53097857D01*
X150810714Y-53193095D01*
X150763095Y-53335952D01*
X150191666Y-53907380D01*
X150810714Y-53907380D01*
%TO.C,IC1*%
D13*
X101769523Y-66089761D02*
X100499523Y-66089761D01*
X101648571Y-64759285D02*
X101709047Y-64819761D01*
X101769523Y-65001190D01*
X101769523Y-65122142D01*
X101709047Y-65303571D01*
X101588095Y-65424523D01*
X101467142Y-65485000D01*
X101225238Y-65545476D01*
X101043809Y-65545476D01*
X100801904Y-65485000D01*
X100680952Y-65424523D01*
X100560000Y-65303571D01*
X100499523Y-65122142D01*
X100499523Y-65001190D01*
X100560000Y-64819761D01*
X100620476Y-64759285D01*
X101769523Y-63549761D02*
X101769523Y-64275476D01*
X101769523Y-63912619D02*
X100499523Y-63912619D01*
X100680952Y-64033571D01*
X100801904Y-64154523D01*
X100862380Y-64275476D01*
%TO.C,J2*%
D12*
X82372380Y-79083333D02*
X83086666Y-79083333D01*
X83229523Y-79130952D01*
X83324761Y-79226190D01*
X83372380Y-79369047D01*
X83372380Y-79464285D01*
X82467619Y-78654761D02*
X82420000Y-78607142D01*
X82372380Y-78511904D01*
X82372380Y-78273809D01*
X82420000Y-78178571D01*
X82467619Y-78130952D01*
X82562857Y-78083333D01*
X82658095Y-78083333D01*
X82800952Y-78130952D01*
X83372380Y-78702380D01*
X83372380Y-78083333D01*
%TO.C,Q6*%
X118547619Y-66635238D02*
X118500000Y-66730476D01*
X118404761Y-66825714D01*
X118261904Y-66968571D01*
X118214285Y-67063809D01*
X118214285Y-67159047D01*
X118452380Y-67111428D02*
X118404761Y-67206666D01*
X118309523Y-67301904D01*
X118119047Y-67349523D01*
X117785714Y-67349523D01*
X117595238Y-67301904D01*
X117500000Y-67206666D01*
X117452380Y-67111428D01*
X117452380Y-66920952D01*
X117500000Y-66825714D01*
X117595238Y-66730476D01*
X117785714Y-66682857D01*
X118119047Y-66682857D01*
X118309523Y-66730476D01*
X118404761Y-66825714D01*
X118452380Y-66920952D01*
X118452380Y-67111428D01*
X117452380Y-65825714D02*
X117452380Y-66016190D01*
X117500000Y-66111428D01*
X117547619Y-66159047D01*
X117690476Y-66254285D01*
X117880952Y-66301904D01*
X118261904Y-66301904D01*
X118357142Y-66254285D01*
X118404761Y-66206666D01*
X118452380Y-66111428D01*
X118452380Y-65920952D01*
X118404761Y-65825714D01*
X118357142Y-65778095D01*
X118261904Y-65730476D01*
X118023809Y-65730476D01*
X117928571Y-65778095D01*
X117880952Y-65825714D01*
X117833333Y-65920952D01*
X117833333Y-66111428D01*
X117880952Y-66206666D01*
X117928571Y-66254285D01*
X118023809Y-66301904D01*
%TO.C,Q5*%
X83547619Y-66630238D02*
X83500000Y-66725476D01*
X83404761Y-66820714D01*
X83261904Y-66963571D01*
X83214285Y-67058809D01*
X83214285Y-67154047D01*
X83452380Y-67106428D02*
X83404761Y-67201666D01*
X83309523Y-67296904D01*
X83119047Y-67344523D01*
X82785714Y-67344523D01*
X82595238Y-67296904D01*
X82500000Y-67201666D01*
X82452380Y-67106428D01*
X82452380Y-66915952D01*
X82500000Y-66820714D01*
X82595238Y-66725476D01*
X82785714Y-66677857D01*
X83119047Y-66677857D01*
X83309523Y-66725476D01*
X83404761Y-66820714D01*
X83452380Y-66915952D01*
X83452380Y-67106428D01*
X82452380Y-65773095D02*
X82452380Y-66249285D01*
X82928571Y-66296904D01*
X82880952Y-66249285D01*
X82833333Y-66154047D01*
X82833333Y-65915952D01*
X82880952Y-65820714D01*
X82928571Y-65773095D01*
X83023809Y-65725476D01*
X83261904Y-65725476D01*
X83357142Y-65773095D01*
X83404761Y-65820714D01*
X83452380Y-65915952D01*
X83452380Y-66154047D01*
X83404761Y-66249285D01*
X83357142Y-66296904D01*
%TO.C,Q2*%
X118547619Y-56095238D02*
X118500000Y-56190476D01*
X118404761Y-56285714D01*
X118261904Y-56428571D01*
X118214285Y-56523809D01*
X118214285Y-56619047D01*
X118452380Y-56571428D02*
X118404761Y-56666666D01*
X118309523Y-56761904D01*
X118119047Y-56809523D01*
X117785714Y-56809523D01*
X117595238Y-56761904D01*
X117500000Y-56666666D01*
X117452380Y-56571428D01*
X117452380Y-56380952D01*
X117500000Y-56285714D01*
X117595238Y-56190476D01*
X117785714Y-56142857D01*
X118119047Y-56142857D01*
X118309523Y-56190476D01*
X118404761Y-56285714D01*
X118452380Y-56380952D01*
X118452380Y-56571428D01*
X117547619Y-55761904D02*
X117500000Y-55714285D01*
X117452380Y-55619047D01*
X117452380Y-55380952D01*
X117500000Y-55285714D01*
X117547619Y-55238095D01*
X117642857Y-55190476D01*
X117738095Y-55190476D01*
X117880952Y-55238095D01*
X118452380Y-55809523D01*
X118452380Y-55190476D01*
%TO.C,Q1*%
X83547619Y-56095238D02*
X83500000Y-56190476D01*
X83404761Y-56285714D01*
X83261904Y-56428571D01*
X83214285Y-56523809D01*
X83214285Y-56619047D01*
X83452380Y-56571428D02*
X83404761Y-56666666D01*
X83309523Y-56761904D01*
X83119047Y-56809523D01*
X82785714Y-56809523D01*
X82595238Y-56761904D01*
X82500000Y-56666666D01*
X82452380Y-56571428D01*
X82452380Y-56380952D01*
X82500000Y-56285714D01*
X82595238Y-56190476D01*
X82785714Y-56142857D01*
X83119047Y-56142857D01*
X83309523Y-56190476D01*
X83404761Y-56285714D01*
X83452380Y-56380952D01*
X83452380Y-56571428D01*
X83452380Y-55190476D02*
X83452380Y-55761904D01*
X83452380Y-55476190D02*
X82452380Y-55476190D01*
X82595238Y-55571428D01*
X82690476Y-55666666D01*
X82738095Y-55761904D01*
%TO.C,J5*%
X116376666Y-82782380D02*
X116376666Y-83496666D01*
X116329047Y-83639523D01*
X116233809Y-83734761D01*
X116090952Y-83782380D01*
X115995714Y-83782380D01*
X117329047Y-82782380D02*
X116852857Y-82782380D01*
X116805238Y-83258571D01*
X116852857Y-83210952D01*
X116948095Y-83163333D01*
X117186190Y-83163333D01*
X117281428Y-83210952D01*
X117329047Y-83258571D01*
X117376666Y-83353809D01*
X117376666Y-83591904D01*
X117329047Y-83687142D01*
X117281428Y-83734761D01*
X117186190Y-83782380D01*
X116948095Y-83782380D01*
X116852857Y-83734761D01*
X116805238Y-83687142D01*
%TO.C,J1*%
X101166666Y-44452380D02*
X101166666Y-45166666D01*
X101119047Y-45309523D01*
X101023809Y-45404761D01*
X100880952Y-45452380D01*
X100785714Y-45452380D01*
X102166666Y-45452380D02*
X101595238Y-45452380D01*
X101880952Y-45452380D02*
X101880952Y-44452380D01*
X101785714Y-44595238D01*
X101690476Y-44690476D01*
X101595238Y-44738095D01*
%TO.C,F1*%
X81476666Y-75198571D02*
X81143333Y-75198571D01*
X81143333Y-75722380D02*
X81143333Y-74722380D01*
X81619523Y-74722380D01*
X82524285Y-75722380D02*
X81952857Y-75722380D01*
X82238571Y-75722380D02*
X82238571Y-74722380D01*
X82143333Y-74865238D01*
X82048095Y-74960476D01*
X81952857Y-75008095D01*
%TO.C,C5*%
X101083333Y-85607142D02*
X101035714Y-85654761D01*
X100892857Y-85702380D01*
X100797619Y-85702380D01*
X100654761Y-85654761D01*
X100559523Y-85559523D01*
X100511904Y-85464285D01*
X100464285Y-85273809D01*
X100464285Y-85130952D01*
X100511904Y-84940476D01*
X100559523Y-84845238D01*
X100654761Y-84750000D01*
X100797619Y-84702380D01*
X100892857Y-84702380D01*
X101035714Y-84750000D01*
X101083333Y-84797619D01*
X101988095Y-84702380D02*
X101511904Y-84702380D01*
X101464285Y-85178571D01*
X101511904Y-85130952D01*
X101607142Y-85083333D01*
X101845238Y-85083333D01*
X101940476Y-85130952D01*
X101988095Y-85178571D01*
X102035714Y-85273809D01*
X102035714Y-85511904D01*
X101988095Y-85607142D01*
X101940476Y-85654761D01*
X101845238Y-85702380D01*
X101607142Y-85702380D01*
X101511904Y-85654761D01*
X101464285Y-85607142D01*
%TO.C,C1*%
X101083333Y-53787142D02*
X101035714Y-53834761D01*
X100892857Y-53882380D01*
X100797619Y-53882380D01*
X100654761Y-53834761D01*
X100559523Y-53739523D01*
X100511904Y-53644285D01*
X100464285Y-53453809D01*
X100464285Y-53310952D01*
X100511904Y-53120476D01*
X100559523Y-53025238D01*
X100654761Y-52930000D01*
X100797619Y-52882380D01*
X100892857Y-52882380D01*
X101035714Y-52930000D01*
X101083333Y-52977619D01*
X102035714Y-53882380D02*
X101464285Y-53882380D01*
X101750000Y-53882380D02*
X101750000Y-52882380D01*
X101654761Y-53025238D01*
X101559523Y-53120476D01*
X101464285Y-53168095D01*
%TD*%
M02*
