%TF.GenerationSoftware,KiCad,Pcbnew,5.1.10-88a1d61d58~88~ubuntu20.04.1*%
%TF.CreationDate,2021-06-20T22:38:56+02:00*%
%TF.ProjectId,motor_driver_v1,6d6f746f-725f-4647-9269-7665725f7631,rev?*%
%TF.SameCoordinates,Original*%
%TF.FileFunction,Soldermask,Top*%
%TF.FilePolarity,Negative*%
%FSLAX46Y46*%
G04 Gerber Fmt 4.6, Leading zero omitted, Abs format (unit mm)*
G04 Created by KiCad (PCBNEW 5.1.10-88a1d61d58~88~ubuntu20.04.1) date 2021-06-20 22:38:56*
%MOMM*%
%LPD*%
G01*
G04 APERTURE LIST*
%ADD10C,0.100000*%
%ADD11C,1.624000*%
%ADD12O,2.100000X2.005000*%
%ADD13O,3.600000X3.600000*%
%ADD14O,1.800000X1.800000*%
%ADD15C,3.100000*%
%ADD16C,2.500000*%
%ADD17C,0.254000*%
G04 APERTURE END LIST*
D10*
G36*
X145400000Y-56800000D02*
G01*
X142800000Y-56800000D01*
X142800000Y-65000000D01*
X143400000Y-65600000D01*
X145600000Y-65600000D01*
X145600000Y-67200000D01*
X142600000Y-67200000D01*
X141200000Y-65800000D01*
X141200000Y-56000000D01*
X142200000Y-55000000D01*
X145400000Y-55000000D01*
X145400000Y-56800000D01*
G37*
X145400000Y-56800000D02*
X142800000Y-56800000D01*
X142800000Y-65000000D01*
X143400000Y-65600000D01*
X145600000Y-65600000D01*
X145600000Y-67200000D01*
X142600000Y-67200000D01*
X141200000Y-65800000D01*
X141200000Y-56000000D01*
X142200000Y-55000000D01*
X145400000Y-55000000D01*
X145400000Y-56800000D01*
G36*
X153400000Y-50600000D02*
G01*
X151800000Y-52200000D01*
X151800000Y-54200000D01*
X152800000Y-55200000D01*
X155400000Y-55200000D01*
X155400000Y-56800000D01*
X152200000Y-56800000D01*
X150200000Y-54800000D01*
X150200000Y-51400000D01*
X151800000Y-49800000D01*
X151800000Y-47800000D01*
X153400000Y-47800000D01*
X153400000Y-50600000D01*
G37*
X153400000Y-50600000D02*
X151800000Y-52200000D01*
X151800000Y-54200000D01*
X152800000Y-55200000D01*
X155400000Y-55200000D01*
X155400000Y-56800000D01*
X152200000Y-56800000D01*
X150200000Y-54800000D01*
X150200000Y-51400000D01*
X151800000Y-49800000D01*
X151800000Y-47800000D01*
X153400000Y-47800000D01*
X153400000Y-50600000D01*
G36*
X150000000Y-47800000D02*
G01*
X150000000Y-55200000D01*
X148400000Y-56800000D01*
X145400000Y-56800000D01*
X145400000Y-55000000D01*
X147600000Y-55000000D01*
X148200000Y-54400000D01*
X148200000Y-48800000D01*
X147600000Y-48200000D01*
X149000000Y-46800000D01*
X150000000Y-47800000D01*
G37*
X150000000Y-47800000D02*
X150000000Y-55200000D01*
X148400000Y-56800000D01*
X145400000Y-56800000D01*
X145400000Y-55000000D01*
X147600000Y-55000000D01*
X148200000Y-54400000D01*
X148200000Y-48800000D01*
X147600000Y-48200000D01*
X149000000Y-46800000D01*
X150000000Y-47800000D01*
G36*
X174800000Y-71400000D02*
G01*
X168200000Y-71400000D01*
X168200000Y-61600000D01*
X174800000Y-61600000D01*
X174800000Y-71400000D01*
G37*
X174800000Y-71400000D02*
X168200000Y-71400000D01*
X168200000Y-61600000D01*
X174800000Y-61600000D01*
X174800000Y-71400000D01*
G36*
X174800000Y-61000000D02*
G01*
X168200000Y-61000000D01*
X168200000Y-51000000D01*
X174800000Y-51000000D01*
X174800000Y-61000000D01*
G37*
X174800000Y-61000000D02*
X168200000Y-61000000D01*
X168200000Y-51000000D01*
X174800000Y-51000000D01*
X174800000Y-61000000D01*
D11*
%TO.C,F2*%
X132300000Y-75100000D03*
X127200000Y-75100000D03*
%TD*%
D12*
%TO.C,Q8*%
X155225000Y-69080000D03*
X155225000Y-66540000D03*
G36*
G01*
X154225000Y-62997500D02*
X156225000Y-62997500D01*
G75*
G02*
X156275000Y-63047500I0J-50000D01*
G01*
X156275000Y-64952500D01*
G75*
G02*
X156225000Y-65002500I-50000J0D01*
G01*
X154225000Y-65002500D01*
G75*
G02*
X154175000Y-64952500I0J50000D01*
G01*
X154175000Y-63047500D01*
G75*
G02*
X154225000Y-62997500I50000J0D01*
G01*
G37*
D13*
X171885000Y-66540000D03*
%TD*%
D12*
%TO.C,Q7*%
X145410000Y-63960000D03*
X145410000Y-66500000D03*
G36*
G01*
X146410000Y-70042500D02*
X144410000Y-70042500D01*
G75*
G02*
X144360000Y-69992500I0J50000D01*
G01*
X144360000Y-68087500D01*
G75*
G02*
X144410000Y-68037500I50000J0D01*
G01*
X146410000Y-68037500D01*
G75*
G02*
X146460000Y-68087500I0J-50000D01*
G01*
X146460000Y-69992500D01*
G75*
G02*
X146410000Y-70042500I-50000J0D01*
G01*
G37*
D13*
X128750000Y-66500000D03*
%TD*%
D12*
%TO.C,Q4*%
X155219400Y-58572400D03*
X155219400Y-56032400D03*
G36*
G01*
X154219400Y-52489900D02*
X156219400Y-52489900D01*
G75*
G02*
X156269400Y-52539900I0J-50000D01*
G01*
X156269400Y-54444900D01*
G75*
G02*
X156219400Y-54494900I-50000J0D01*
G01*
X154219400Y-54494900D01*
G75*
G02*
X154169400Y-54444900I0J50000D01*
G01*
X154169400Y-52539900D01*
G75*
G02*
X154219400Y-52489900I50000J0D01*
G01*
G37*
D13*
X171879400Y-56032400D03*
%TD*%
D12*
%TO.C,Q3*%
X145410000Y-53460000D03*
X145410000Y-56000000D03*
G36*
G01*
X146410000Y-59542500D02*
X144410000Y-59542500D01*
G75*
G02*
X144360000Y-59492500I0J50000D01*
G01*
X144360000Y-57587500D01*
G75*
G02*
X144410000Y-57537500I50000J0D01*
G01*
X146410000Y-57537500D01*
G75*
G02*
X146460000Y-57587500I0J-50000D01*
G01*
X146460000Y-59492500D01*
G75*
G02*
X146410000Y-59542500I-50000J0D01*
G01*
G37*
D13*
X128750000Y-56000000D03*
%TD*%
D14*
%TO.C,J4*%
X152080000Y-77750000D03*
X149540000Y-77750000D03*
G36*
G01*
X147850000Y-78650000D02*
X146150000Y-78650000D01*
G75*
G02*
X146100000Y-78600000I0J50000D01*
G01*
X146100000Y-76900000D01*
G75*
G02*
X146150000Y-76850000I50000J0D01*
G01*
X147850000Y-76850000D01*
G75*
G02*
X147900000Y-76900000I0J-50000D01*
G01*
X147900000Y-78600000D01*
G75*
G02*
X147850000Y-78650000I-50000J0D01*
G01*
G37*
%TD*%
D15*
%TO.C,J3*%
X152580000Y-46750000D03*
G36*
G01*
X145950000Y-48250000D02*
X145950000Y-45250000D01*
G75*
G02*
X146000000Y-45200000I50000J0D01*
G01*
X149000000Y-45200000D01*
G75*
G02*
X149050000Y-45250000I0J-50000D01*
G01*
X149050000Y-48250000D01*
G75*
G02*
X149000000Y-48300000I-50000J0D01*
G01*
X146000000Y-48300000D01*
G75*
G02*
X145950000Y-48250000I0J50000D01*
G01*
G37*
%TD*%
%TO.C,IC3*%
G36*
G01*
X148720000Y-61300000D02*
X148720000Y-62800000D01*
G75*
G02*
X148670000Y-62850000I-50000J0D01*
G01*
X148020000Y-62850000D01*
G75*
G02*
X147970000Y-62800000I0J50000D01*
G01*
X147970000Y-61300000D01*
G75*
G02*
X148020000Y-61250000I50000J0D01*
G01*
X148670000Y-61250000D01*
G75*
G02*
X148720000Y-61300000I0J-50000D01*
G01*
G37*
G36*
G01*
X149990000Y-61300000D02*
X149990000Y-62800000D01*
G75*
G02*
X149940000Y-62850000I-50000J0D01*
G01*
X149290000Y-62850000D01*
G75*
G02*
X149240000Y-62800000I0J50000D01*
G01*
X149240000Y-61300000D01*
G75*
G02*
X149290000Y-61250000I50000J0D01*
G01*
X149940000Y-61250000D01*
G75*
G02*
X149990000Y-61300000I0J-50000D01*
G01*
G37*
G36*
G01*
X151260000Y-61300000D02*
X151260000Y-62800000D01*
G75*
G02*
X151210000Y-62850000I-50000J0D01*
G01*
X150560000Y-62850000D01*
G75*
G02*
X150510000Y-62800000I0J50000D01*
G01*
X150510000Y-61300000D01*
G75*
G02*
X150560000Y-61250000I50000J0D01*
G01*
X151210000Y-61250000D01*
G75*
G02*
X151260000Y-61300000I0J-50000D01*
G01*
G37*
G36*
G01*
X152530000Y-61300000D02*
X152530000Y-62800000D01*
G75*
G02*
X152480000Y-62850000I-50000J0D01*
G01*
X151830000Y-62850000D01*
G75*
G02*
X151780000Y-62800000I0J50000D01*
G01*
X151780000Y-61300000D01*
G75*
G02*
X151830000Y-61250000I50000J0D01*
G01*
X152480000Y-61250000D01*
G75*
G02*
X152530000Y-61300000I0J-50000D01*
G01*
G37*
G36*
G01*
X152530000Y-66700000D02*
X152530000Y-68200000D01*
G75*
G02*
X152480000Y-68250000I-50000J0D01*
G01*
X151830000Y-68250000D01*
G75*
G02*
X151780000Y-68200000I0J50000D01*
G01*
X151780000Y-66700000D01*
G75*
G02*
X151830000Y-66650000I50000J0D01*
G01*
X152480000Y-66650000D01*
G75*
G02*
X152530000Y-66700000I0J-50000D01*
G01*
G37*
G36*
G01*
X151260000Y-66700000D02*
X151260000Y-68200000D01*
G75*
G02*
X151210000Y-68250000I-50000J0D01*
G01*
X150560000Y-68250000D01*
G75*
G02*
X150510000Y-68200000I0J50000D01*
G01*
X150510000Y-66700000D01*
G75*
G02*
X150560000Y-66650000I50000J0D01*
G01*
X151210000Y-66650000D01*
G75*
G02*
X151260000Y-66700000I0J-50000D01*
G01*
G37*
G36*
G01*
X149990000Y-66700000D02*
X149990000Y-68200000D01*
G75*
G02*
X149940000Y-68250000I-50000J0D01*
G01*
X149290000Y-68250000D01*
G75*
G02*
X149240000Y-68200000I0J50000D01*
G01*
X149240000Y-66700000D01*
G75*
G02*
X149290000Y-66650000I50000J0D01*
G01*
X149940000Y-66650000D01*
G75*
G02*
X149990000Y-66700000I0J-50000D01*
G01*
G37*
G36*
G01*
X148720000Y-66700000D02*
X148720000Y-68200000D01*
G75*
G02*
X148670000Y-68250000I-50000J0D01*
G01*
X148020000Y-68250000D01*
G75*
G02*
X147970000Y-68200000I0J50000D01*
G01*
X147970000Y-66700000D01*
G75*
G02*
X148020000Y-66650000I50000J0D01*
G01*
X148670000Y-66650000D01*
G75*
G02*
X148720000Y-66700000I0J-50000D01*
G01*
G37*
%TD*%
%TO.C,C2*%
G36*
G01*
X149625000Y-51275000D02*
X149625000Y-52275000D01*
G75*
G02*
X149350000Y-52550000I-275000J0D01*
G01*
X148800000Y-52550000D01*
G75*
G02*
X148525000Y-52275000I0J275000D01*
G01*
X148525000Y-51275000D01*
G75*
G02*
X148800000Y-51000000I275000J0D01*
G01*
X149350000Y-51000000D01*
G75*
G02*
X149625000Y-51275000I0J-275000D01*
G01*
G37*
G36*
G01*
X151525000Y-51275000D02*
X151525000Y-52275000D01*
G75*
G02*
X151250000Y-52550000I-275000J0D01*
G01*
X150700000Y-52550000D01*
G75*
G02*
X150425000Y-52275000I0J275000D01*
G01*
X150425000Y-51275000D01*
G75*
G02*
X150700000Y-51000000I275000J0D01*
G01*
X151250000Y-51000000D01*
G75*
G02*
X151525000Y-51275000I0J-275000D01*
G01*
G37*
%TD*%
%TO.C,IC1*%
G36*
G01*
X100085000Y-61350000D02*
X100085000Y-62850000D01*
G75*
G02*
X100035000Y-62900000I-50000J0D01*
G01*
X99385000Y-62900000D01*
G75*
G02*
X99335000Y-62850000I0J50000D01*
G01*
X99335000Y-61350000D01*
G75*
G02*
X99385000Y-61300000I50000J0D01*
G01*
X100035000Y-61300000D01*
G75*
G02*
X100085000Y-61350000I0J-50000D01*
G01*
G37*
G36*
G01*
X101355000Y-61350000D02*
X101355000Y-62850000D01*
G75*
G02*
X101305000Y-62900000I-50000J0D01*
G01*
X100655000Y-62900000D01*
G75*
G02*
X100605000Y-62850000I0J50000D01*
G01*
X100605000Y-61350000D01*
G75*
G02*
X100655000Y-61300000I50000J0D01*
G01*
X101305000Y-61300000D01*
G75*
G02*
X101355000Y-61350000I0J-50000D01*
G01*
G37*
G36*
G01*
X102625000Y-61350000D02*
X102625000Y-62850000D01*
G75*
G02*
X102575000Y-62900000I-50000J0D01*
G01*
X101925000Y-62900000D01*
G75*
G02*
X101875000Y-62850000I0J50000D01*
G01*
X101875000Y-61350000D01*
G75*
G02*
X101925000Y-61300000I50000J0D01*
G01*
X102575000Y-61300000D01*
G75*
G02*
X102625000Y-61350000I0J-50000D01*
G01*
G37*
G36*
G01*
X103895000Y-61350000D02*
X103895000Y-62850000D01*
G75*
G02*
X103845000Y-62900000I-50000J0D01*
G01*
X103195000Y-62900000D01*
G75*
G02*
X103145000Y-62850000I0J50000D01*
G01*
X103145000Y-61350000D01*
G75*
G02*
X103195000Y-61300000I50000J0D01*
G01*
X103845000Y-61300000D01*
G75*
G02*
X103895000Y-61350000I0J-50000D01*
G01*
G37*
G36*
G01*
X103895000Y-66750000D02*
X103895000Y-68250000D01*
G75*
G02*
X103845000Y-68300000I-50000J0D01*
G01*
X103195000Y-68300000D01*
G75*
G02*
X103145000Y-68250000I0J50000D01*
G01*
X103145000Y-66750000D01*
G75*
G02*
X103195000Y-66700000I50000J0D01*
G01*
X103845000Y-66700000D01*
G75*
G02*
X103895000Y-66750000I0J-50000D01*
G01*
G37*
G36*
G01*
X102625000Y-66750000D02*
X102625000Y-68250000D01*
G75*
G02*
X102575000Y-68300000I-50000J0D01*
G01*
X101925000Y-68300000D01*
G75*
G02*
X101875000Y-68250000I0J50000D01*
G01*
X101875000Y-66750000D01*
G75*
G02*
X101925000Y-66700000I50000J0D01*
G01*
X102575000Y-66700000D01*
G75*
G02*
X102625000Y-66750000I0J-50000D01*
G01*
G37*
G36*
G01*
X101355000Y-66750000D02*
X101355000Y-68250000D01*
G75*
G02*
X101305000Y-68300000I-50000J0D01*
G01*
X100655000Y-68300000D01*
G75*
G02*
X100605000Y-68250000I0J50000D01*
G01*
X100605000Y-66750000D01*
G75*
G02*
X100655000Y-66700000I50000J0D01*
G01*
X101305000Y-66700000D01*
G75*
G02*
X101355000Y-66750000I0J-50000D01*
G01*
G37*
G36*
G01*
X100085000Y-66750000D02*
X100085000Y-68250000D01*
G75*
G02*
X100035000Y-68300000I-50000J0D01*
G01*
X99385000Y-68300000D01*
G75*
G02*
X99335000Y-68250000I0J50000D01*
G01*
X99335000Y-66750000D01*
G75*
G02*
X99385000Y-66700000I50000J0D01*
G01*
X100035000Y-66700000D01*
G75*
G02*
X100085000Y-66750000I0J-50000D01*
G01*
G37*
%TD*%
D14*
%TO.C,J2*%
X90330000Y-78750000D03*
X87790000Y-78750000D03*
G36*
G01*
X86100000Y-79650000D02*
X84400000Y-79650000D01*
G75*
G02*
X84350000Y-79600000I0J50000D01*
G01*
X84350000Y-77900000D01*
G75*
G02*
X84400000Y-77850000I50000J0D01*
G01*
X86100000Y-77850000D01*
G75*
G02*
X86150000Y-77900000I0J-50000D01*
G01*
X86150000Y-79600000D01*
G75*
G02*
X86100000Y-79650000I-50000J0D01*
G01*
G37*
%TD*%
D12*
%TO.C,Q6*%
X106000000Y-69080000D03*
X106000000Y-66540000D03*
G36*
G01*
X105000000Y-62997500D02*
X107000000Y-62997500D01*
G75*
G02*
X107050000Y-63047500I0J-50000D01*
G01*
X107050000Y-64952500D01*
G75*
G02*
X107000000Y-65002500I-50000J0D01*
G01*
X105000000Y-65002500D01*
G75*
G02*
X104950000Y-64952500I0J50000D01*
G01*
X104950000Y-63047500D01*
G75*
G02*
X105000000Y-62997500I50000J0D01*
G01*
G37*
D13*
X122660000Y-66540000D03*
%TD*%
D12*
%TO.C,Q5*%
X96650000Y-63995000D03*
X96650000Y-66535000D03*
G36*
G01*
X97650000Y-70077500D02*
X95650000Y-70077500D01*
G75*
G02*
X95600000Y-70027500I0J50000D01*
G01*
X95600000Y-68122500D01*
G75*
G02*
X95650000Y-68072500I50000J0D01*
G01*
X97650000Y-68072500D01*
G75*
G02*
X97700000Y-68122500I0J-50000D01*
G01*
X97700000Y-70027500D01*
G75*
G02*
X97650000Y-70077500I-50000J0D01*
G01*
G37*
D13*
X79990000Y-66535000D03*
%TD*%
D12*
%TO.C,Q2*%
X106000000Y-58580000D03*
X106000000Y-56040000D03*
G36*
G01*
X105000000Y-52497500D02*
X107000000Y-52497500D01*
G75*
G02*
X107050000Y-52547500I0J-50000D01*
G01*
X107050000Y-54452500D01*
G75*
G02*
X107000000Y-54502500I-50000J0D01*
G01*
X105000000Y-54502500D01*
G75*
G02*
X104950000Y-54452500I0J50000D01*
G01*
X104950000Y-52547500D01*
G75*
G02*
X105000000Y-52497500I50000J0D01*
G01*
G37*
D13*
X122660000Y-56040000D03*
%TD*%
D12*
%TO.C,Q1*%
X96660000Y-53460000D03*
X96660000Y-56000000D03*
G36*
G01*
X97660000Y-59542500D02*
X95660000Y-59542500D01*
G75*
G02*
X95610000Y-59492500I0J50000D01*
G01*
X95610000Y-57587500D01*
G75*
G02*
X95660000Y-57537500I50000J0D01*
G01*
X97660000Y-57537500D01*
G75*
G02*
X97710000Y-57587500I0J-50000D01*
G01*
X97710000Y-59492500D01*
G75*
G02*
X97660000Y-59542500I-50000J0D01*
G01*
G37*
D13*
X80000000Y-56000000D03*
%TD*%
D15*
%TO.C,J5*%
X114170000Y-78250000D03*
G36*
G01*
X120800000Y-76750000D02*
X120800000Y-79750000D01*
G75*
G02*
X120750000Y-79800000I-50000J0D01*
G01*
X117750000Y-79800000D01*
G75*
G02*
X117700000Y-79750000I0J50000D01*
G01*
X117700000Y-76750000D01*
G75*
G02*
X117750000Y-76700000I50000J0D01*
G01*
X120750000Y-76700000D01*
G75*
G02*
X120800000Y-76750000I0J-50000D01*
G01*
G37*
%TD*%
%TO.C,J1*%
X103830000Y-46750000D03*
G36*
G01*
X97200000Y-48250000D02*
X97200000Y-45250000D01*
G75*
G02*
X97250000Y-45200000I50000J0D01*
G01*
X100250000Y-45200000D01*
G75*
G02*
X100300000Y-45250000I0J-50000D01*
G01*
X100300000Y-48250000D01*
G75*
G02*
X100250000Y-48300000I-50000J0D01*
G01*
X97250000Y-48300000D01*
G75*
G02*
X97200000Y-48250000I0J50000D01*
G01*
G37*
%TD*%
D11*
%TO.C,F1*%
X79250000Y-74000000D03*
X84350000Y-74000000D03*
%TD*%
D16*
%TO.C,C5*%
X98750000Y-77750000D03*
G36*
G01*
X105000000Y-76550000D02*
X105000000Y-78950000D01*
G75*
G02*
X104950000Y-79000000I-50000J0D01*
G01*
X102550000Y-79000000D01*
G75*
G02*
X102500000Y-78950000I0J50000D01*
G01*
X102500000Y-76550000D01*
G75*
G02*
X102550000Y-76500000I50000J0D01*
G01*
X104950000Y-76500000D01*
G75*
G02*
X105000000Y-76550000I0J-50000D01*
G01*
G37*
%TD*%
%TO.C,C1*%
G36*
G01*
X100850000Y-51250000D02*
X100850000Y-52250000D01*
G75*
G02*
X100575000Y-52525000I-275000J0D01*
G01*
X100025000Y-52525000D01*
G75*
G02*
X99750000Y-52250000I0J275000D01*
G01*
X99750000Y-51250000D01*
G75*
G02*
X100025000Y-50975000I275000J0D01*
G01*
X100575000Y-50975000D01*
G75*
G02*
X100850000Y-51250000I0J-275000D01*
G01*
G37*
G36*
G01*
X102750000Y-51250000D02*
X102750000Y-52250000D01*
G75*
G02*
X102475000Y-52525000I-275000J0D01*
G01*
X101925000Y-52525000D01*
G75*
G02*
X101650000Y-52250000I0J275000D01*
G01*
X101650000Y-51250000D01*
G75*
G02*
X101925000Y-50975000I275000J0D01*
G01*
X102475000Y-50975000D01*
G75*
G02*
X102750000Y-51250000I0J-275000D01*
G01*
G37*
%TD*%
D17*
X103420394Y-48200000D02*
X102910197Y-48710197D01*
X102894403Y-48729443D01*
X102882667Y-48751399D01*
X102875440Y-48775224D01*
X102873000Y-48800000D01*
X102873000Y-54400000D01*
X102875440Y-54424776D01*
X102882667Y-54448601D01*
X102894403Y-54470557D01*
X102910197Y-54489803D01*
X103710197Y-55289803D01*
X103729443Y-55305597D01*
X103751399Y-55317333D01*
X103775224Y-55324560D01*
X103800000Y-55327000D01*
X105873000Y-55327000D01*
X105873000Y-56673000D01*
X103252606Y-56673000D01*
X101527000Y-54947394D01*
X101527000Y-48052606D01*
X102400000Y-47179606D01*
X103420394Y-48200000D01*
D10*
G36*
X103420394Y-48200000D02*
G01*
X102910197Y-48710197D01*
X102894403Y-48729443D01*
X102882667Y-48751399D01*
X102875440Y-48775224D01*
X102873000Y-48800000D01*
X102873000Y-54400000D01*
X102875440Y-54424776D01*
X102882667Y-54448601D01*
X102894403Y-54470557D01*
X102910197Y-54489803D01*
X103710197Y-55289803D01*
X103729443Y-55305597D01*
X103751399Y-55317333D01*
X103775224Y-55324560D01*
X103800000Y-55327000D01*
X105873000Y-55327000D01*
X105873000Y-56673000D01*
X103252606Y-56673000D01*
X101527000Y-54947394D01*
X101527000Y-48052606D01*
X102400000Y-47179606D01*
X103420394Y-48200000D01*
G37*
D17*
X111273000Y-57455868D02*
X111273000Y-64747394D01*
X108747394Y-67273000D01*
X106127000Y-67273000D01*
X106127000Y-65727000D01*
X108200000Y-65727000D01*
X108224776Y-65724560D01*
X108248601Y-65717333D01*
X108270557Y-65705597D01*
X108289803Y-65689803D01*
X109689803Y-64289803D01*
X109705597Y-64270557D01*
X109717333Y-64248601D01*
X109724560Y-64224776D01*
X109727000Y-64200000D01*
X109727000Y-58200000D01*
X109724560Y-58175224D01*
X109717333Y-58151399D01*
X109705597Y-58129443D01*
X109689803Y-58110197D01*
X108489803Y-56910197D01*
X108470557Y-56894403D01*
X108448601Y-56882667D01*
X108424776Y-56875440D01*
X108400000Y-56873000D01*
X106527000Y-56873000D01*
X106527000Y-55327000D01*
X108950599Y-55327000D01*
X111273000Y-57455868D01*
D10*
G36*
X111273000Y-57455868D02*
G01*
X111273000Y-64747394D01*
X108747394Y-67273000D01*
X106127000Y-67273000D01*
X106127000Y-65727000D01*
X108200000Y-65727000D01*
X108224776Y-65724560D01*
X108248601Y-65717333D01*
X108270557Y-65705597D01*
X108289803Y-65689803D01*
X109689803Y-64289803D01*
X109705597Y-64270557D01*
X109717333Y-64248601D01*
X109724560Y-64224776D01*
X109727000Y-64200000D01*
X109727000Y-58200000D01*
X109724560Y-58175224D01*
X109717333Y-58151399D01*
X109705597Y-58129443D01*
X109689803Y-58110197D01*
X108489803Y-56910197D01*
X108470557Y-56894403D01*
X108448601Y-56882667D01*
X108424776Y-56875440D01*
X108400000Y-56873000D01*
X106527000Y-56873000D01*
X106527000Y-55327000D01*
X108950599Y-55327000D01*
X111273000Y-57455868D01*
G37*
D17*
X101073000Y-48052606D02*
X101073000Y-55342372D01*
X99552282Y-56673000D01*
X96741892Y-56673000D01*
X96913670Y-55127000D01*
X98800000Y-55127000D01*
X98824776Y-55124560D01*
X98848601Y-55117333D01*
X98870557Y-55105597D01*
X98889803Y-55089803D01*
X99489803Y-54489803D01*
X99505597Y-54470557D01*
X99517333Y-54448601D01*
X99524560Y-54424776D01*
X99527000Y-54400000D01*
X99527000Y-47127000D01*
X100147394Y-47127000D01*
X101073000Y-48052606D01*
D10*
G36*
X101073000Y-48052606D02*
G01*
X101073000Y-55342372D01*
X99552282Y-56673000D01*
X96741892Y-56673000D01*
X96913670Y-55127000D01*
X98800000Y-55127000D01*
X98824776Y-55124560D01*
X98848601Y-55117333D01*
X98870557Y-55105597D01*
X98889803Y-55089803D01*
X99489803Y-54489803D01*
X99505597Y-54470557D01*
X99517333Y-54448601D01*
X99524560Y-54424776D01*
X99527000Y-54400000D01*
X99527000Y-47127000D01*
X100147394Y-47127000D01*
X101073000Y-48052606D01*
G37*
D17*
X96473000Y-56673000D02*
X94600000Y-56673000D01*
X94575224Y-56675440D01*
X94551399Y-56682667D01*
X94529443Y-56694403D01*
X94510197Y-56710197D01*
X93510197Y-57710197D01*
X93494403Y-57729443D01*
X93482667Y-57751399D01*
X93475440Y-57775224D01*
X93473000Y-57800000D01*
X93473000Y-64600000D01*
X93475440Y-64624776D01*
X93482667Y-64648601D01*
X93494403Y-64670557D01*
X93510197Y-64689803D01*
X94510197Y-65689803D01*
X94529443Y-65705597D01*
X94551399Y-65717333D01*
X94575224Y-65724560D01*
X94600000Y-65727000D01*
X96473000Y-65727000D01*
X96473000Y-67273000D01*
X94052606Y-67273000D01*
X91927000Y-65147394D01*
X91927000Y-57252606D01*
X94052606Y-55127000D01*
X96473000Y-55127000D01*
X96473000Y-56673000D01*
D10*
G36*
X96473000Y-56673000D02*
G01*
X94600000Y-56673000D01*
X94575224Y-56675440D01*
X94551399Y-56682667D01*
X94529443Y-56694403D01*
X94510197Y-56710197D01*
X93510197Y-57710197D01*
X93494403Y-57729443D01*
X93482667Y-57751399D01*
X93475440Y-57775224D01*
X93473000Y-57800000D01*
X93473000Y-64600000D01*
X93475440Y-64624776D01*
X93482667Y-64648601D01*
X93494403Y-64670557D01*
X93510197Y-64689803D01*
X94510197Y-65689803D01*
X94529443Y-65705597D01*
X94551399Y-65717333D01*
X94575224Y-65724560D01*
X94600000Y-65727000D01*
X96473000Y-65727000D01*
X96473000Y-67273000D01*
X94052606Y-67273000D01*
X91927000Y-65147394D01*
X91927000Y-57252606D01*
X94052606Y-55127000D01*
X96473000Y-55127000D01*
X96473000Y-56673000D01*
G37*
D17*
X83673000Y-60673000D02*
X77327000Y-60673000D01*
X77327000Y-51127000D01*
X83673000Y-51127000D01*
X83673000Y-60673000D01*
D10*
G36*
X83673000Y-60673000D02*
G01*
X77327000Y-60673000D01*
X77327000Y-51127000D01*
X83673000Y-51127000D01*
X83673000Y-60673000D01*
G37*
D17*
X83873000Y-71473000D02*
X77327000Y-71473000D01*
X77327000Y-61727000D01*
X83873000Y-61727000D01*
X83873000Y-71473000D01*
D10*
G36*
X83873000Y-71473000D02*
G01*
X77327000Y-71473000D01*
X77327000Y-61727000D01*
X83873000Y-61727000D01*
X83873000Y-71473000D01*
G37*
D17*
X125473000Y-60873000D02*
X118927000Y-60873000D01*
X118927000Y-51327000D01*
X125400000Y-51327000D01*
X125424776Y-51324560D01*
X125448601Y-51317333D01*
X125470557Y-51305597D01*
X125473000Y-51303592D01*
X125473000Y-60873000D01*
D10*
G36*
X125473000Y-60873000D02*
G01*
X118927000Y-60873000D01*
X118927000Y-51327000D01*
X125400000Y-51327000D01*
X125424776Y-51324560D01*
X125448601Y-51317333D01*
X125470557Y-51305597D01*
X125473000Y-51303592D01*
X125473000Y-60873000D01*
G37*
D17*
X132673000Y-60873000D02*
X126127000Y-60873000D01*
X126127000Y-51127000D01*
X132673000Y-51127000D01*
X132673000Y-60873000D01*
D10*
G36*
X132673000Y-60873000D02*
G01*
X126127000Y-60873000D01*
X126127000Y-51127000D01*
X132673000Y-51127000D01*
X132673000Y-60873000D01*
G37*
D17*
X132673000Y-71273000D02*
X125927000Y-71273000D01*
X125927000Y-61527000D01*
X132673000Y-61527000D01*
X132673000Y-71273000D01*
D10*
G36*
X132673000Y-71273000D02*
G01*
X125927000Y-71273000D01*
X125927000Y-61527000D01*
X132673000Y-61527000D01*
X132673000Y-71273000D01*
G37*
D17*
X125473000Y-71473000D02*
X118927000Y-71473000D01*
X118927000Y-61527000D01*
X125473000Y-61527000D01*
X125473000Y-71473000D01*
D10*
G36*
X125473000Y-71473000D02*
G01*
X118927000Y-71473000D01*
X118927000Y-61527000D01*
X125473000Y-61527000D01*
X125473000Y-71473000D01*
G37*
M02*
