%TF.GenerationSoftware,KiCad,Pcbnew,5.1.5+dfsg1-2build2*%
%TF.CreationDate,2021-10-16T11:12:39+01:00*%
%TF.ProjectId,bluePillG,626c7565-5069-46c6-9c47-2e6b69636164,rev?*%
%TF.SameCoordinates,Original*%
%TF.FileFunction,Paste,Bot*%
%TF.FilePolarity,Positive*%
%FSLAX46Y46*%
G04 Gerber Fmt 4.6, Leading zero omitted, Abs format (unit mm)*
G04 Created by KiCad (PCBNEW 5.1.5+dfsg1-2build2) date 2021-10-16 11:12:39*
%MOMM*%
%LPD*%
G04 APERTURE LIST*
%ADD10C,0.100000*%
G04 APERTURE END LIST*
D10*
%TO.C,R2*%
G36*
X53315191Y-61826053D02*
G01*
X53336426Y-61829203D01*
X53357250Y-61834419D01*
X53377462Y-61841651D01*
X53396868Y-61850830D01*
X53415281Y-61861866D01*
X53432524Y-61874654D01*
X53448430Y-61889070D01*
X53462846Y-61904976D01*
X53475634Y-61922219D01*
X53486670Y-61940632D01*
X53495849Y-61960038D01*
X53503081Y-61980250D01*
X53508297Y-62001074D01*
X53511447Y-62022309D01*
X53512500Y-62043750D01*
X53512500Y-62556250D01*
X53511447Y-62577691D01*
X53508297Y-62598926D01*
X53503081Y-62619750D01*
X53495849Y-62639962D01*
X53486670Y-62659368D01*
X53475634Y-62677781D01*
X53462846Y-62695024D01*
X53448430Y-62710930D01*
X53432524Y-62725346D01*
X53415281Y-62738134D01*
X53396868Y-62749170D01*
X53377462Y-62758349D01*
X53357250Y-62765581D01*
X53336426Y-62770797D01*
X53315191Y-62773947D01*
X53293750Y-62775000D01*
X52856250Y-62775000D01*
X52834809Y-62773947D01*
X52813574Y-62770797D01*
X52792750Y-62765581D01*
X52772538Y-62758349D01*
X52753132Y-62749170D01*
X52734719Y-62738134D01*
X52717476Y-62725346D01*
X52701570Y-62710930D01*
X52687154Y-62695024D01*
X52674366Y-62677781D01*
X52663330Y-62659368D01*
X52654151Y-62639962D01*
X52646919Y-62619750D01*
X52641703Y-62598926D01*
X52638553Y-62577691D01*
X52637500Y-62556250D01*
X52637500Y-62043750D01*
X52638553Y-62022309D01*
X52641703Y-62001074D01*
X52646919Y-61980250D01*
X52654151Y-61960038D01*
X52663330Y-61940632D01*
X52674366Y-61922219D01*
X52687154Y-61904976D01*
X52701570Y-61889070D01*
X52717476Y-61874654D01*
X52734719Y-61861866D01*
X52753132Y-61850830D01*
X52772538Y-61841651D01*
X52792750Y-61834419D01*
X52813574Y-61829203D01*
X52834809Y-61826053D01*
X52856250Y-61825000D01*
X53293750Y-61825000D01*
X53315191Y-61826053D01*
G37*
G36*
X51740191Y-61826053D02*
G01*
X51761426Y-61829203D01*
X51782250Y-61834419D01*
X51802462Y-61841651D01*
X51821868Y-61850830D01*
X51840281Y-61861866D01*
X51857524Y-61874654D01*
X51873430Y-61889070D01*
X51887846Y-61904976D01*
X51900634Y-61922219D01*
X51911670Y-61940632D01*
X51920849Y-61960038D01*
X51928081Y-61980250D01*
X51933297Y-62001074D01*
X51936447Y-62022309D01*
X51937500Y-62043750D01*
X51937500Y-62556250D01*
X51936447Y-62577691D01*
X51933297Y-62598926D01*
X51928081Y-62619750D01*
X51920849Y-62639962D01*
X51911670Y-62659368D01*
X51900634Y-62677781D01*
X51887846Y-62695024D01*
X51873430Y-62710930D01*
X51857524Y-62725346D01*
X51840281Y-62738134D01*
X51821868Y-62749170D01*
X51802462Y-62758349D01*
X51782250Y-62765581D01*
X51761426Y-62770797D01*
X51740191Y-62773947D01*
X51718750Y-62775000D01*
X51281250Y-62775000D01*
X51259809Y-62773947D01*
X51238574Y-62770797D01*
X51217750Y-62765581D01*
X51197538Y-62758349D01*
X51178132Y-62749170D01*
X51159719Y-62738134D01*
X51142476Y-62725346D01*
X51126570Y-62710930D01*
X51112154Y-62695024D01*
X51099366Y-62677781D01*
X51088330Y-62659368D01*
X51079151Y-62639962D01*
X51071919Y-62619750D01*
X51066703Y-62598926D01*
X51063553Y-62577691D01*
X51062500Y-62556250D01*
X51062500Y-62043750D01*
X51063553Y-62022309D01*
X51066703Y-62001074D01*
X51071919Y-61980250D01*
X51079151Y-61960038D01*
X51088330Y-61940632D01*
X51099366Y-61922219D01*
X51112154Y-61904976D01*
X51126570Y-61889070D01*
X51142476Y-61874654D01*
X51159719Y-61861866D01*
X51178132Y-61850830D01*
X51197538Y-61841651D01*
X51217750Y-61834419D01*
X51238574Y-61829203D01*
X51259809Y-61826053D01*
X51281250Y-61825000D01*
X51718750Y-61825000D01*
X51740191Y-61826053D01*
G37*
%TD*%
%TO.C,C19*%
G36*
X54915191Y-86326053D02*
G01*
X54936426Y-86329203D01*
X54957250Y-86334419D01*
X54977462Y-86341651D01*
X54996868Y-86350830D01*
X55015281Y-86361866D01*
X55032524Y-86374654D01*
X55048430Y-86389070D01*
X55062846Y-86404976D01*
X55075634Y-86422219D01*
X55086670Y-86440632D01*
X55095849Y-86460038D01*
X55103081Y-86480250D01*
X55108297Y-86501074D01*
X55111447Y-86522309D01*
X55112500Y-86543750D01*
X55112500Y-87056250D01*
X55111447Y-87077691D01*
X55108297Y-87098926D01*
X55103081Y-87119750D01*
X55095849Y-87139962D01*
X55086670Y-87159368D01*
X55075634Y-87177781D01*
X55062846Y-87195024D01*
X55048430Y-87210930D01*
X55032524Y-87225346D01*
X55015281Y-87238134D01*
X54996868Y-87249170D01*
X54977462Y-87258349D01*
X54957250Y-87265581D01*
X54936426Y-87270797D01*
X54915191Y-87273947D01*
X54893750Y-87275000D01*
X54456250Y-87275000D01*
X54434809Y-87273947D01*
X54413574Y-87270797D01*
X54392750Y-87265581D01*
X54372538Y-87258349D01*
X54353132Y-87249170D01*
X54334719Y-87238134D01*
X54317476Y-87225346D01*
X54301570Y-87210930D01*
X54287154Y-87195024D01*
X54274366Y-87177781D01*
X54263330Y-87159368D01*
X54254151Y-87139962D01*
X54246919Y-87119750D01*
X54241703Y-87098926D01*
X54238553Y-87077691D01*
X54237500Y-87056250D01*
X54237500Y-86543750D01*
X54238553Y-86522309D01*
X54241703Y-86501074D01*
X54246919Y-86480250D01*
X54254151Y-86460038D01*
X54263330Y-86440632D01*
X54274366Y-86422219D01*
X54287154Y-86404976D01*
X54301570Y-86389070D01*
X54317476Y-86374654D01*
X54334719Y-86361866D01*
X54353132Y-86350830D01*
X54372538Y-86341651D01*
X54392750Y-86334419D01*
X54413574Y-86329203D01*
X54434809Y-86326053D01*
X54456250Y-86325000D01*
X54893750Y-86325000D01*
X54915191Y-86326053D01*
G37*
G36*
X53340191Y-86326053D02*
G01*
X53361426Y-86329203D01*
X53382250Y-86334419D01*
X53402462Y-86341651D01*
X53421868Y-86350830D01*
X53440281Y-86361866D01*
X53457524Y-86374654D01*
X53473430Y-86389070D01*
X53487846Y-86404976D01*
X53500634Y-86422219D01*
X53511670Y-86440632D01*
X53520849Y-86460038D01*
X53528081Y-86480250D01*
X53533297Y-86501074D01*
X53536447Y-86522309D01*
X53537500Y-86543750D01*
X53537500Y-87056250D01*
X53536447Y-87077691D01*
X53533297Y-87098926D01*
X53528081Y-87119750D01*
X53520849Y-87139962D01*
X53511670Y-87159368D01*
X53500634Y-87177781D01*
X53487846Y-87195024D01*
X53473430Y-87210930D01*
X53457524Y-87225346D01*
X53440281Y-87238134D01*
X53421868Y-87249170D01*
X53402462Y-87258349D01*
X53382250Y-87265581D01*
X53361426Y-87270797D01*
X53340191Y-87273947D01*
X53318750Y-87275000D01*
X52881250Y-87275000D01*
X52859809Y-87273947D01*
X52838574Y-87270797D01*
X52817750Y-87265581D01*
X52797538Y-87258349D01*
X52778132Y-87249170D01*
X52759719Y-87238134D01*
X52742476Y-87225346D01*
X52726570Y-87210930D01*
X52712154Y-87195024D01*
X52699366Y-87177781D01*
X52688330Y-87159368D01*
X52679151Y-87139962D01*
X52671919Y-87119750D01*
X52666703Y-87098926D01*
X52663553Y-87077691D01*
X52662500Y-87056250D01*
X52662500Y-86543750D01*
X52663553Y-86522309D01*
X52666703Y-86501074D01*
X52671919Y-86480250D01*
X52679151Y-86460038D01*
X52688330Y-86440632D01*
X52699366Y-86422219D01*
X52712154Y-86404976D01*
X52726570Y-86389070D01*
X52742476Y-86374654D01*
X52759719Y-86361866D01*
X52778132Y-86350830D01*
X52797538Y-86341651D01*
X52817750Y-86334419D01*
X52838574Y-86329203D01*
X52859809Y-86326053D01*
X52881250Y-86325000D01*
X53318750Y-86325000D01*
X53340191Y-86326053D01*
G37*
%TD*%
%TO.C,C18*%
G36*
X46952691Y-86426053D02*
G01*
X46973926Y-86429203D01*
X46994750Y-86434419D01*
X47014962Y-86441651D01*
X47034368Y-86450830D01*
X47052781Y-86461866D01*
X47070024Y-86474654D01*
X47085930Y-86489070D01*
X47100346Y-86504976D01*
X47113134Y-86522219D01*
X47124170Y-86540632D01*
X47133349Y-86560038D01*
X47140581Y-86580250D01*
X47145797Y-86601074D01*
X47148947Y-86622309D01*
X47150000Y-86643750D01*
X47150000Y-87156250D01*
X47148947Y-87177691D01*
X47145797Y-87198926D01*
X47140581Y-87219750D01*
X47133349Y-87239962D01*
X47124170Y-87259368D01*
X47113134Y-87277781D01*
X47100346Y-87295024D01*
X47085930Y-87310930D01*
X47070024Y-87325346D01*
X47052781Y-87338134D01*
X47034368Y-87349170D01*
X47014962Y-87358349D01*
X46994750Y-87365581D01*
X46973926Y-87370797D01*
X46952691Y-87373947D01*
X46931250Y-87375000D01*
X46493750Y-87375000D01*
X46472309Y-87373947D01*
X46451074Y-87370797D01*
X46430250Y-87365581D01*
X46410038Y-87358349D01*
X46390632Y-87349170D01*
X46372219Y-87338134D01*
X46354976Y-87325346D01*
X46339070Y-87310930D01*
X46324654Y-87295024D01*
X46311866Y-87277781D01*
X46300830Y-87259368D01*
X46291651Y-87239962D01*
X46284419Y-87219750D01*
X46279203Y-87198926D01*
X46276053Y-87177691D01*
X46275000Y-87156250D01*
X46275000Y-86643750D01*
X46276053Y-86622309D01*
X46279203Y-86601074D01*
X46284419Y-86580250D01*
X46291651Y-86560038D01*
X46300830Y-86540632D01*
X46311866Y-86522219D01*
X46324654Y-86504976D01*
X46339070Y-86489070D01*
X46354976Y-86474654D01*
X46372219Y-86461866D01*
X46390632Y-86450830D01*
X46410038Y-86441651D01*
X46430250Y-86434419D01*
X46451074Y-86429203D01*
X46472309Y-86426053D01*
X46493750Y-86425000D01*
X46931250Y-86425000D01*
X46952691Y-86426053D01*
G37*
G36*
X48527691Y-86426053D02*
G01*
X48548926Y-86429203D01*
X48569750Y-86434419D01*
X48589962Y-86441651D01*
X48609368Y-86450830D01*
X48627781Y-86461866D01*
X48645024Y-86474654D01*
X48660930Y-86489070D01*
X48675346Y-86504976D01*
X48688134Y-86522219D01*
X48699170Y-86540632D01*
X48708349Y-86560038D01*
X48715581Y-86580250D01*
X48720797Y-86601074D01*
X48723947Y-86622309D01*
X48725000Y-86643750D01*
X48725000Y-87156250D01*
X48723947Y-87177691D01*
X48720797Y-87198926D01*
X48715581Y-87219750D01*
X48708349Y-87239962D01*
X48699170Y-87259368D01*
X48688134Y-87277781D01*
X48675346Y-87295024D01*
X48660930Y-87310930D01*
X48645024Y-87325346D01*
X48627781Y-87338134D01*
X48609368Y-87349170D01*
X48589962Y-87358349D01*
X48569750Y-87365581D01*
X48548926Y-87370797D01*
X48527691Y-87373947D01*
X48506250Y-87375000D01*
X48068750Y-87375000D01*
X48047309Y-87373947D01*
X48026074Y-87370797D01*
X48005250Y-87365581D01*
X47985038Y-87358349D01*
X47965632Y-87349170D01*
X47947219Y-87338134D01*
X47929976Y-87325346D01*
X47914070Y-87310930D01*
X47899654Y-87295024D01*
X47886866Y-87277781D01*
X47875830Y-87259368D01*
X47866651Y-87239962D01*
X47859419Y-87219750D01*
X47854203Y-87198926D01*
X47851053Y-87177691D01*
X47850000Y-87156250D01*
X47850000Y-86643750D01*
X47851053Y-86622309D01*
X47854203Y-86601074D01*
X47859419Y-86580250D01*
X47866651Y-86560038D01*
X47875830Y-86540632D01*
X47886866Y-86522219D01*
X47899654Y-86504976D01*
X47914070Y-86489070D01*
X47929976Y-86474654D01*
X47947219Y-86461866D01*
X47965632Y-86450830D01*
X47985038Y-86441651D01*
X48005250Y-86434419D01*
X48026074Y-86429203D01*
X48047309Y-86426053D01*
X48068750Y-86425000D01*
X48506250Y-86425000D01*
X48527691Y-86426053D01*
G37*
%TD*%
%TO.C,C15*%
G36*
X56327691Y-61826053D02*
G01*
X56348926Y-61829203D01*
X56369750Y-61834419D01*
X56389962Y-61841651D01*
X56409368Y-61850830D01*
X56427781Y-61861866D01*
X56445024Y-61874654D01*
X56460930Y-61889070D01*
X56475346Y-61904976D01*
X56488134Y-61922219D01*
X56499170Y-61940632D01*
X56508349Y-61960038D01*
X56515581Y-61980250D01*
X56520797Y-62001074D01*
X56523947Y-62022309D01*
X56525000Y-62043750D01*
X56525000Y-62556250D01*
X56523947Y-62577691D01*
X56520797Y-62598926D01*
X56515581Y-62619750D01*
X56508349Y-62639962D01*
X56499170Y-62659368D01*
X56488134Y-62677781D01*
X56475346Y-62695024D01*
X56460930Y-62710930D01*
X56445024Y-62725346D01*
X56427781Y-62738134D01*
X56409368Y-62749170D01*
X56389962Y-62758349D01*
X56369750Y-62765581D01*
X56348926Y-62770797D01*
X56327691Y-62773947D01*
X56306250Y-62775000D01*
X55868750Y-62775000D01*
X55847309Y-62773947D01*
X55826074Y-62770797D01*
X55805250Y-62765581D01*
X55785038Y-62758349D01*
X55765632Y-62749170D01*
X55747219Y-62738134D01*
X55729976Y-62725346D01*
X55714070Y-62710930D01*
X55699654Y-62695024D01*
X55686866Y-62677781D01*
X55675830Y-62659368D01*
X55666651Y-62639962D01*
X55659419Y-62619750D01*
X55654203Y-62598926D01*
X55651053Y-62577691D01*
X55650000Y-62556250D01*
X55650000Y-62043750D01*
X55651053Y-62022309D01*
X55654203Y-62001074D01*
X55659419Y-61980250D01*
X55666651Y-61960038D01*
X55675830Y-61940632D01*
X55686866Y-61922219D01*
X55699654Y-61904976D01*
X55714070Y-61889070D01*
X55729976Y-61874654D01*
X55747219Y-61861866D01*
X55765632Y-61850830D01*
X55785038Y-61841651D01*
X55805250Y-61834419D01*
X55826074Y-61829203D01*
X55847309Y-61826053D01*
X55868750Y-61825000D01*
X56306250Y-61825000D01*
X56327691Y-61826053D01*
G37*
G36*
X54752691Y-61826053D02*
G01*
X54773926Y-61829203D01*
X54794750Y-61834419D01*
X54814962Y-61841651D01*
X54834368Y-61850830D01*
X54852781Y-61861866D01*
X54870024Y-61874654D01*
X54885930Y-61889070D01*
X54900346Y-61904976D01*
X54913134Y-61922219D01*
X54924170Y-61940632D01*
X54933349Y-61960038D01*
X54940581Y-61980250D01*
X54945797Y-62001074D01*
X54948947Y-62022309D01*
X54950000Y-62043750D01*
X54950000Y-62556250D01*
X54948947Y-62577691D01*
X54945797Y-62598926D01*
X54940581Y-62619750D01*
X54933349Y-62639962D01*
X54924170Y-62659368D01*
X54913134Y-62677781D01*
X54900346Y-62695024D01*
X54885930Y-62710930D01*
X54870024Y-62725346D01*
X54852781Y-62738134D01*
X54834368Y-62749170D01*
X54814962Y-62758349D01*
X54794750Y-62765581D01*
X54773926Y-62770797D01*
X54752691Y-62773947D01*
X54731250Y-62775000D01*
X54293750Y-62775000D01*
X54272309Y-62773947D01*
X54251074Y-62770797D01*
X54230250Y-62765581D01*
X54210038Y-62758349D01*
X54190632Y-62749170D01*
X54172219Y-62738134D01*
X54154976Y-62725346D01*
X54139070Y-62710930D01*
X54124654Y-62695024D01*
X54111866Y-62677781D01*
X54100830Y-62659368D01*
X54091651Y-62639962D01*
X54084419Y-62619750D01*
X54079203Y-62598926D01*
X54076053Y-62577691D01*
X54075000Y-62556250D01*
X54075000Y-62043750D01*
X54076053Y-62022309D01*
X54079203Y-62001074D01*
X54084419Y-61980250D01*
X54091651Y-61960038D01*
X54100830Y-61940632D01*
X54111866Y-61922219D01*
X54124654Y-61904976D01*
X54139070Y-61889070D01*
X54154976Y-61874654D01*
X54172219Y-61861866D01*
X54190632Y-61850830D01*
X54210038Y-61841651D01*
X54230250Y-61834419D01*
X54251074Y-61829203D01*
X54272309Y-61826053D01*
X54293750Y-61825000D01*
X54731250Y-61825000D01*
X54752691Y-61826053D01*
G37*
%TD*%
%TO.C,C5*%
G36*
X48377691Y-74876053D02*
G01*
X48398926Y-74879203D01*
X48419750Y-74884419D01*
X48439962Y-74891651D01*
X48459368Y-74900830D01*
X48477781Y-74911866D01*
X48495024Y-74924654D01*
X48510930Y-74939070D01*
X48525346Y-74954976D01*
X48538134Y-74972219D01*
X48549170Y-74990632D01*
X48558349Y-75010038D01*
X48565581Y-75030250D01*
X48570797Y-75051074D01*
X48573947Y-75072309D01*
X48575000Y-75093750D01*
X48575000Y-75531250D01*
X48573947Y-75552691D01*
X48570797Y-75573926D01*
X48565581Y-75594750D01*
X48558349Y-75614962D01*
X48549170Y-75634368D01*
X48538134Y-75652781D01*
X48525346Y-75670024D01*
X48510930Y-75685930D01*
X48495024Y-75700346D01*
X48477781Y-75713134D01*
X48459368Y-75724170D01*
X48439962Y-75733349D01*
X48419750Y-75740581D01*
X48398926Y-75745797D01*
X48377691Y-75748947D01*
X48356250Y-75750000D01*
X47843750Y-75750000D01*
X47822309Y-75748947D01*
X47801074Y-75745797D01*
X47780250Y-75740581D01*
X47760038Y-75733349D01*
X47740632Y-75724170D01*
X47722219Y-75713134D01*
X47704976Y-75700346D01*
X47689070Y-75685930D01*
X47674654Y-75670024D01*
X47661866Y-75652781D01*
X47650830Y-75634368D01*
X47641651Y-75614962D01*
X47634419Y-75594750D01*
X47629203Y-75573926D01*
X47626053Y-75552691D01*
X47625000Y-75531250D01*
X47625000Y-75093750D01*
X47626053Y-75072309D01*
X47629203Y-75051074D01*
X47634419Y-75030250D01*
X47641651Y-75010038D01*
X47650830Y-74990632D01*
X47661866Y-74972219D01*
X47674654Y-74954976D01*
X47689070Y-74939070D01*
X47704976Y-74924654D01*
X47722219Y-74911866D01*
X47740632Y-74900830D01*
X47760038Y-74891651D01*
X47780250Y-74884419D01*
X47801074Y-74879203D01*
X47822309Y-74876053D01*
X47843750Y-74875000D01*
X48356250Y-74875000D01*
X48377691Y-74876053D01*
G37*
G36*
X48377691Y-76451053D02*
G01*
X48398926Y-76454203D01*
X48419750Y-76459419D01*
X48439962Y-76466651D01*
X48459368Y-76475830D01*
X48477781Y-76486866D01*
X48495024Y-76499654D01*
X48510930Y-76514070D01*
X48525346Y-76529976D01*
X48538134Y-76547219D01*
X48549170Y-76565632D01*
X48558349Y-76585038D01*
X48565581Y-76605250D01*
X48570797Y-76626074D01*
X48573947Y-76647309D01*
X48575000Y-76668750D01*
X48575000Y-77106250D01*
X48573947Y-77127691D01*
X48570797Y-77148926D01*
X48565581Y-77169750D01*
X48558349Y-77189962D01*
X48549170Y-77209368D01*
X48538134Y-77227781D01*
X48525346Y-77245024D01*
X48510930Y-77260930D01*
X48495024Y-77275346D01*
X48477781Y-77288134D01*
X48459368Y-77299170D01*
X48439962Y-77308349D01*
X48419750Y-77315581D01*
X48398926Y-77320797D01*
X48377691Y-77323947D01*
X48356250Y-77325000D01*
X47843750Y-77325000D01*
X47822309Y-77323947D01*
X47801074Y-77320797D01*
X47780250Y-77315581D01*
X47760038Y-77308349D01*
X47740632Y-77299170D01*
X47722219Y-77288134D01*
X47704976Y-77275346D01*
X47689070Y-77260930D01*
X47674654Y-77245024D01*
X47661866Y-77227781D01*
X47650830Y-77209368D01*
X47641651Y-77189962D01*
X47634419Y-77169750D01*
X47629203Y-77148926D01*
X47626053Y-77127691D01*
X47625000Y-77106250D01*
X47625000Y-76668750D01*
X47626053Y-76647309D01*
X47629203Y-76626074D01*
X47634419Y-76605250D01*
X47641651Y-76585038D01*
X47650830Y-76565632D01*
X47661866Y-76547219D01*
X47674654Y-76529976D01*
X47689070Y-76514070D01*
X47704976Y-76499654D01*
X47722219Y-76486866D01*
X47740632Y-76475830D01*
X47760038Y-76466651D01*
X47780250Y-76459419D01*
X47801074Y-76454203D01*
X47822309Y-76451053D01*
X47843750Y-76450000D01*
X48356250Y-76450000D01*
X48377691Y-76451053D01*
G37*
%TD*%
M02*
