%TF.GenerationSoftware,KiCad,Pcbnew,5.1.5+dfsg1-2build2*%
%TF.CreationDate,2021-10-16T11:12:39+01:00*%
%TF.ProjectId,bluePillG,626c7565-5069-46c6-9c47-2e6b69636164,rev?*%
%TF.SameCoordinates,Original*%
%TF.FileFunction,Copper,L2,Inr*%
%TF.FilePolarity,Positive*%
%FSLAX46Y46*%
G04 Gerber Fmt 4.6, Leading zero omitted, Abs format (unit mm)*
G04 Created by KiCad (PCBNEW 5.1.5+dfsg1-2build2) date 2021-10-16 11:12:39*
%MOMM*%
%LPD*%
G04 APERTURE LIST*
%TA.AperFunction,ViaPad*%
%ADD10C,1.350000*%
%TD*%
%TA.AperFunction,ViaPad*%
%ADD11C,1.640000*%
%TD*%
%TA.AperFunction,ViaPad*%
%ADD12R,1.640000X1.640000*%
%TD*%
%TA.AperFunction,ViaPad*%
%ADD13O,1.700000X1.700000*%
%TD*%
%TA.AperFunction,ViaPad*%
%ADD14R,1.700000X1.700000*%
%TD*%
%TA.AperFunction,ViaPad*%
%ADD15C,1.320800*%
%TD*%
%TA.AperFunction,ViaPad*%
%ADD16C,1.676400*%
%TD*%
%TA.AperFunction,ViaPad*%
%ADD17C,2.000000*%
%TD*%
%TA.AperFunction,ViaPad*%
%ADD18C,0.800000*%
%TD*%
%TA.AperFunction,ViaPad*%
%ADD19C,0.600000*%
%TD*%
%TA.AperFunction,ViaPad*%
%ADD20C,1.400000*%
%TD*%
%TA.AperFunction,ViaPad*%
%ADD21C,1.300000*%
%TD*%
%TA.AperFunction,Conductor*%
%ADD22C,0.300000*%
%TD*%
%TA.AperFunction,Conductor*%
%ADD23C,0.250000*%
%TD*%
%TA.AperFunction,Conductor*%
%ADD24C,0.254000*%
%TD*%
G04 APERTURE END LIST*
D10*
%TO.N,N/C*%
%TO.C,J4*%
X26520000Y-46920000D03*
X26520000Y-104920000D03*
X75520000Y-104920000D03*
X75520000Y-46920000D03*
D11*
%TO.N,Net-(J4-Pad40)*%
X76790000Y-100050000D03*
%TO.N,GND*%
X74250000Y-100050000D03*
%TO.N,Net-(J4-Pad38)*%
X76790000Y-97510000D03*
%TO.N,Net-(J4-Pad37)*%
X74250000Y-97510000D03*
%TO.N,Net-(J4-Pad36)*%
X76790000Y-94970000D03*
%TO.N,Net-(J4-Pad35)*%
X74250000Y-94970000D03*
%TO.N,GND*%
X76790000Y-92430000D03*
%TO.N,Net-(J4-Pad33)*%
X74250000Y-92430000D03*
%TO.N,Net-(J4-Pad32)*%
X76790000Y-89890000D03*
%TO.N,Net-(J4-Pad31)*%
X74250000Y-89890000D03*
%TO.N,GND*%
X76790000Y-87350000D03*
%TO.N,Net-(J4-Pad29)*%
X74250000Y-87350000D03*
%TO.N,Net-(J4-Pad28)*%
X76790000Y-84810000D03*
%TO.N,Net-(J4-Pad27)*%
X74250000Y-84810000D03*
%TO.N,Net-(J4-Pad26)*%
X76790000Y-82270000D03*
%TO.N,GND*%
X74250000Y-82270000D03*
%TO.N,Net-(J4-Pad24)*%
X76790000Y-79730000D03*
%TO.N,Net-(J4-Pad23)*%
X74250000Y-79730000D03*
%TO.N,Net-(J4-Pad22)*%
X76790000Y-77190000D03*
%TO.N,Net-(J4-Pad21)*%
X74250000Y-77190000D03*
%TO.N,GND*%
X76790000Y-74650000D03*
%TO.N,Net-(J4-Pad19)*%
X74250000Y-74650000D03*
%TO.N,Net-(J4-Pad18)*%
X76790000Y-72110000D03*
%TO.N,Net-(J4-Pad17)*%
X74250000Y-72110000D03*
%TO.N,Net-(J4-Pad16)*%
X76790000Y-69570000D03*
%TO.N,Net-(J4-Pad15)*%
X74250000Y-69570000D03*
%TO.N,GND*%
X76790000Y-67030000D03*
%TO.N,Net-(J4-Pad13)*%
X74250000Y-67030000D03*
%TO.N,Net-(J4-Pad12)*%
X76790000Y-64490000D03*
%TO.N,Net-(J4-Pad11)*%
X74250000Y-64490000D03*
%TO.N,PB6*%
X76790000Y-61950000D03*
%TO.N,GND*%
X74250000Y-61950000D03*
%TO.N,PB7*%
X76790000Y-59410000D03*
%TO.N,Net-(J4-Pad7)*%
X74250000Y-59410000D03*
%TO.N,GND*%
X76790000Y-56870000D03*
%TO.N,Net-(J4-Pad5)*%
X74250000Y-56870000D03*
%TO.N,+5V*%
X76790000Y-54330000D03*
%TO.N,Net-(J4-Pad3)*%
X74250000Y-54330000D03*
%TO.N,+5V*%
X76790000Y-51790000D03*
D12*
%TO.N,Net-(J4-Pad1)*%
X74250000Y-51790000D03*
%TD*%
D13*
%TO.N,Net-(J15-Pad9)*%
%TO.C,J15*%
X24700874Y-84420001D03*
%TO.N,Net-(J15-Pad8)*%
X24700874Y-81880001D03*
%TO.N,Net-(J15-Pad7)*%
X24700874Y-79340001D03*
%TO.N,Net-(J15-Pad6)*%
X24700874Y-76800001D03*
%TO.N,I2C_SDA*%
X24700874Y-74260001D03*
%TO.N,I2C_SCL*%
X24700874Y-71720001D03*
%TO.N,GND*%
X24700874Y-69180001D03*
%TO.N,+3V3*%
X24700874Y-66640001D03*
D14*
%TO.N,Net-(J15-Pad1)*%
X24700874Y-64100001D03*
%TD*%
D13*
%TO.N,I2C_SDA*%
%TO.C,J14*%
X53200000Y-106660000D03*
X53200000Y-104120000D03*
X53200000Y-101580000D03*
X53200000Y-99040000D03*
D14*
X53200000Y-96500000D03*
%TD*%
D13*
%TO.N,I2C_SCL*%
%TO.C,J13*%
X56800000Y-106660000D03*
X56800000Y-104120000D03*
X56800000Y-101580000D03*
X56800000Y-99040000D03*
D14*
X56800000Y-96500000D03*
%TD*%
D13*
%TO.N,GND*%
%TO.C,J12*%
X49620000Y-106540000D03*
%TO.N,PB1*%
X49620000Y-104000000D03*
%TO.N,GND*%
X47080000Y-106540000D03*
%TO.N,PB0*%
X47080000Y-104000000D03*
%TO.N,GND*%
X44540000Y-106540000D03*
%TO.N,PA11*%
X44540000Y-104000000D03*
%TO.N,GND*%
X42000000Y-106540000D03*
%TO.N,PA10*%
X42000000Y-104000000D03*
%TO.N,GND*%
X39460000Y-106540000D03*
%TO.N,PB5*%
X39460000Y-104000000D03*
%TO.N,GND*%
X36920000Y-106540000D03*
%TO.N,PB4*%
X36920000Y-104000000D03*
%TO.N,GND*%
X34380000Y-106540000D03*
%TO.N,PA9*%
X34380000Y-104000000D03*
%TO.N,GND*%
X31840000Y-106540000D03*
D14*
%TO.N,PA8*%
X31840000Y-104000000D03*
%TD*%
%TO.N,PA4*%
%TO.C,J11*%
X60300000Y-106700000D03*
%TD*%
D13*
%TO.N,PA7*%
%TO.C,J10*%
X62840000Y-103600000D03*
D14*
X60300000Y-103600000D03*
%TD*%
D13*
%TO.N,PA6*%
%TO.C,J9*%
X62840000Y-100000000D03*
D14*
X60300000Y-100000000D03*
%TD*%
D13*
%TO.N,PA5*%
%TO.C,J8*%
X62840000Y-96400000D03*
D14*
X60300000Y-96400000D03*
%TD*%
D13*
%TO.N,ADC3*%
%TO.C,J7*%
X24400000Y-95180000D03*
%TO.N,ADC2*%
X24400000Y-97720000D03*
%TO.N,ADC1*%
X24400000Y-100260000D03*
D14*
%TO.N,ADC0*%
X24400000Y-102800000D03*
%TD*%
D13*
%TO.N,GND*%
%TO.C,J6*%
X71340000Y-105800000D03*
D14*
%TO.N,+5V*%
X68800000Y-105800000D03*
%TD*%
D15*
%TO.N,Net-(C19-Pad1)*%
%TO.C,Y2*%
X53126000Y-85000000D03*
%TO.N,OSC_IN*%
X48300000Y-85000000D03*
%TD*%
D16*
%TO.N,OSC32_OUT*%
%TO.C,Y1*%
X44700000Y-82900000D03*
%TO.N,OSC32_IN*%
X44700000Y-80360000D03*
%TD*%
D17*
%TO.N,NRST*%
%TO.C,SW1*%
X53100000Y-59100000D03*
%TO.N,GND*%
X57600000Y-59100000D03*
%TO.N,NRST*%
X53100000Y-65600000D03*
%TO.N,GND*%
X57600000Y-65600000D03*
%TD*%
D13*
%TO.N,+3V3S*%
%TO.C,J3*%
X32600000Y-66720000D03*
%TO.N,+3V3*%
X32600000Y-69260000D03*
D14*
%TO.N,+3.3VP*%
X32600000Y-71800000D03*
%TD*%
D13*
%TO.N,GND*%
%TO.C,J2*%
X33120000Y-86900000D03*
%TO.N,Net-(J2-Pad2)*%
X35660000Y-86900000D03*
D14*
%TO.N,+3V3*%
X38200000Y-86900000D03*
%TD*%
D13*
%TO.N,+5V*%
%TO.C,J1*%
X39840000Y-59940000D03*
X37300000Y-59940000D03*
%TO.N,+3V3S*%
X39840000Y-62480000D03*
X37300000Y-62480000D03*
%TO.N,GND*%
X39840000Y-65020000D03*
X37300000Y-65020000D03*
%TO.N,PA13*%
X39840000Y-67560000D03*
%TO.N,SWIW*%
X37300000Y-67560000D03*
%TO.N,PA14*%
X39840000Y-70100000D03*
D14*
%TO.N,NRST*%
X37300000Y-70100000D03*
%TD*%
D18*
%TO.N,+3V3*%
X47700000Y-80300000D03*
X44500000Y-78500000D03*
X50600000Y-61400000D03*
X58300000Y-69700000D03*
X56100000Y-71300000D03*
X58700000Y-71300000D03*
X34500000Y-69300000D03*
X34500000Y-70500000D03*
X34500000Y-71700000D03*
X34500000Y-73100000D03*
X34500000Y-67900000D03*
X35300000Y-67900000D03*
X35300000Y-69300000D03*
X35300000Y-70500000D03*
X35300000Y-71700000D03*
X35300000Y-73100000D03*
X48100000Y-76887500D03*
X46900000Y-67200000D03*
X46900000Y-70400000D03*
D19*
X39889667Y-77700000D03*
X39250000Y-74250000D03*
X46500000Y-59500000D03*
X50900000Y-53600000D03*
D18*
X40500000Y-86700000D03*
%TO.N,GND*%
X45900000Y-78500000D03*
X40500000Y-80500000D03*
X40500000Y-82900000D03*
X40550000Y-78750000D03*
X40650000Y-77100000D03*
X53300000Y-72500000D03*
X53300000Y-74300000D03*
X55900000Y-67500000D03*
X57100000Y-67500000D03*
X60700000Y-71900000D03*
X45300000Y-70400000D03*
X45300000Y-67200000D03*
X29500000Y-65300000D03*
X35100000Y-78700000D03*
X35100000Y-79500000D03*
X36700000Y-80500000D03*
X37100000Y-77100000D03*
X38100000Y-77100000D03*
X38100000Y-78100000D03*
X38100000Y-79300000D03*
X38100000Y-80500000D03*
X38100000Y-81900000D03*
X35300000Y-80700000D03*
X35500000Y-82900000D03*
X37100000Y-76100000D03*
X38100000Y-76100000D03*
X35300000Y-81700000D03*
X34300000Y-80700000D03*
X34300000Y-81700000D03*
X50700000Y-87200000D03*
X50700000Y-89150000D03*
X42225000Y-63900000D03*
D19*
X28400000Y-72900000D03*
X54900000Y-81400000D03*
X47748544Y-71531093D03*
X45600000Y-57700000D03*
X50300000Y-57600000D03*
X47700000Y-52300000D03*
X44385113Y-77414558D03*
%TO.N,NRST*%
X51850000Y-72550000D03*
D18*
%TO.N,PC13*%
X49300000Y-76900000D03*
X43900000Y-85500000D03*
%TO.N,BOOT0*%
X43300874Y-75500001D03*
X40650000Y-76099997D03*
%TO.N,PB7*%
X61900000Y-77900000D03*
X51100000Y-74300000D03*
%TO.N,PB6*%
X62650000Y-78650000D03*
X49950000Y-73350000D03*
D19*
%TO.N,PB5*%
X44400874Y-74850001D03*
D18*
%TO.N,PB4*%
X43200874Y-73894221D03*
%TO.N,PB3*%
X47849502Y-73962000D03*
X42150001Y-91700001D03*
D20*
X44600874Y-91700001D03*
D19*
%TO.N,PA12*%
X49610070Y-71908540D03*
D21*
X63500874Y-59400001D03*
D18*
%TO.N,PA11*%
X48800000Y-68600000D03*
%TO.N,PA10*%
X49500000Y-67699997D03*
D19*
%TO.N,PA9*%
X48800000Y-66900000D03*
%TO.N,PA8*%
X48040154Y-66308660D03*
D21*
%TO.N,PB15*%
X62000874Y-60000001D03*
%TO.N,PB14*%
X63500874Y-61300001D03*
%TO.N,PB13*%
X62000874Y-62249998D03*
%TO.N,PB12*%
X63500874Y-63500001D03*
%TO.N,PB11*%
X61950872Y-64249999D03*
D18*
%TO.N,PB10*%
X56500000Y-72487000D03*
D21*
X61798330Y-65897457D03*
D19*
%TO.N,PB2*%
X56400874Y-74800001D03*
D21*
X63500874Y-65300001D03*
D19*
%TO.N,PB1*%
X57490380Y-80909620D03*
X56700000Y-78850000D03*
%TO.N,PB0*%
X53779995Y-75892806D03*
X57450000Y-82150000D03*
D18*
%TO.N,I2C_SDA*%
X39239667Y-75339667D03*
D19*
X50540380Y-94290380D03*
D18*
%TO.N,I2C_SCL*%
X42800000Y-66325000D03*
X47170000Y-58720000D03*
X48500000Y-72800000D03*
D19*
X59000000Y-84800000D03*
%TO.N,ADC3*%
X56065380Y-80184620D03*
%TO.N,ADC2*%
X52479994Y-76150000D03*
X42050001Y-95754518D03*
%TO.N,ADC1*%
X52389135Y-79959635D03*
X42050001Y-97600000D03*
%TO.N,ADC0*%
X51388640Y-79958269D03*
X55900874Y-90700001D03*
X42150000Y-100350000D03*
D18*
%TO.N,PA14*%
X42500000Y-69900000D03*
%TO.N,PA13*%
X42900000Y-68100000D03*
%TD*%
D22*
%TO.N,NRST*%
X51685787Y-65600000D02*
X53100000Y-65600000D01*
X45789998Y-65600000D02*
X51685787Y-65600000D01*
X44314997Y-67075001D02*
X45789998Y-65600000D01*
X42414997Y-67075001D02*
X44314997Y-67075001D01*
X40729997Y-68760001D02*
X42414997Y-67075001D01*
X37489999Y-68760001D02*
X40729997Y-68760001D01*
X37300000Y-68950000D02*
X37489999Y-68760001D01*
X37300000Y-70100000D02*
X37300000Y-68950000D01*
%TO.N,PB5*%
X41400001Y-99399999D02*
X39460000Y-101340000D01*
X41400001Y-74947114D02*
X41400001Y-99399999D01*
X41702893Y-74644222D02*
X41400001Y-74947114D01*
X43742092Y-74644222D02*
X41702893Y-74644222D01*
X39460000Y-101340000D02*
X39460000Y-104000000D01*
X44195095Y-74644222D02*
X44400874Y-74850001D01*
X43742092Y-74644222D02*
X44195095Y-74644222D01*
%TO.N,PB4*%
X38850001Y-76789994D02*
X41745774Y-73894221D01*
X38850001Y-77622336D02*
X38850001Y-76789994D01*
X39749999Y-78522334D02*
X38850001Y-77622336D01*
X39749999Y-90850876D02*
X39749999Y-78522334D01*
X41745774Y-73894221D02*
X43382091Y-73894221D01*
X38850001Y-91750874D02*
X39749999Y-90850876D01*
X38850001Y-102069999D02*
X38850001Y-91750874D01*
X36920000Y-104000000D02*
X38850001Y-102069999D01*
%TO.N,PB3*%
X43866002Y-76264547D02*
X42200874Y-77929675D01*
X44490004Y-76264547D02*
X43866002Y-76264547D01*
X46792551Y-73962000D02*
X44490004Y-76264547D01*
X47849502Y-73962000D02*
X46792551Y-73962000D01*
X42200874Y-91649128D02*
X42150001Y-91700001D01*
X42200874Y-91500001D02*
X42200874Y-91649128D01*
X42200874Y-77929675D02*
X42200874Y-91500001D01*
%TO.N,PB0*%
X53779995Y-75892806D02*
X53779995Y-77291997D01*
X53779995Y-77291997D02*
X56491997Y-77291997D01*
X57749999Y-81850001D02*
X57450000Y-82150000D01*
X58140381Y-81459619D02*
X57749999Y-81850001D01*
X58140381Y-78940381D02*
X58140381Y-81459619D01*
X56491997Y-77291997D02*
X58140381Y-78940381D01*
%TO.N,I2C_SDA*%
X25729666Y-75339667D02*
X24650000Y-74260001D01*
X39239667Y-75339667D02*
X25729666Y-75339667D01*
%TO.N,I2C_SCL*%
X39737998Y-72800000D02*
X47934315Y-72800000D01*
X47934315Y-72800000D02*
X48500000Y-72800000D01*
X38017998Y-74520000D02*
X39737998Y-72800000D01*
X25765437Y-72835438D02*
X24650000Y-71720001D01*
X26300874Y-73370875D02*
X25765437Y-72835438D01*
D23*
X27449999Y-74520000D02*
X26300874Y-73370875D01*
X38017998Y-74520000D02*
X27449999Y-74520000D01*
D22*
%TO.N,ADC2*%
X41900011Y-95604528D02*
X42050001Y-95754518D01*
X52179995Y-75850001D02*
X52479994Y-76150000D01*
X45611670Y-75850001D02*
X52179995Y-75850001D01*
X44697114Y-76764557D02*
X45611670Y-75850001D01*
X43149999Y-77687670D02*
X44073112Y-76764557D01*
X43149999Y-93349126D02*
X43149999Y-77687670D01*
X44073112Y-76764557D02*
X44697114Y-76764557D01*
X42050001Y-94449124D02*
X43149999Y-93349126D01*
X42050001Y-95754518D02*
X42050001Y-94449124D01*
%TO.N,ADC0*%
X55900874Y-88896545D02*
X55900874Y-90700001D01*
X56715381Y-88082038D02*
X55900874Y-88896545D01*
X56715381Y-79872619D02*
X56715381Y-88082038D01*
X56152396Y-79309634D02*
X56715381Y-79872619D01*
X52037275Y-79309634D02*
X56152396Y-79309634D01*
X51388640Y-79958269D02*
X52037275Y-79309634D01*
%TD*%
D24*
%TO.N,GND*%
G36*
X50573000Y-79496005D02*
G01*
X50560054Y-79515380D01*
X50489572Y-79685540D01*
X50453640Y-79866180D01*
X50453640Y-80050358D01*
X50489572Y-80230998D01*
X50560054Y-80401158D01*
X50573000Y-80420533D01*
X50573000Y-80600000D01*
X50575440Y-80624776D01*
X50582667Y-80648601D01*
X50594403Y-80670557D01*
X50610197Y-80689803D01*
X50629443Y-80705597D01*
X50651399Y-80717333D01*
X50675224Y-80724560D01*
X50700000Y-80727000D01*
X50856171Y-80727000D01*
X50945751Y-80786855D01*
X51115911Y-80857337D01*
X51296551Y-80893269D01*
X51480729Y-80893269D01*
X51661369Y-80857337D01*
X51831529Y-80786855D01*
X51887865Y-80749212D01*
X51946246Y-80788221D01*
X52116406Y-80858703D01*
X52297046Y-80894635D01*
X52481224Y-80894635D01*
X52661864Y-80858703D01*
X52832024Y-80788221D01*
X52923648Y-80727000D01*
X55303272Y-80727000D01*
X55339118Y-80780648D01*
X55469352Y-80910882D01*
X55622491Y-81013206D01*
X55792651Y-81083688D01*
X55930381Y-81111085D01*
X55930382Y-87573000D01*
X45127000Y-87573000D01*
X45127000Y-84872414D01*
X47004600Y-84872414D01*
X47004600Y-85127586D01*
X47054381Y-85377854D01*
X47152031Y-85613602D01*
X47293797Y-85825769D01*
X47474231Y-86006203D01*
X47686398Y-86147969D01*
X47922146Y-86245619D01*
X48172414Y-86295400D01*
X48427586Y-86295400D01*
X48677854Y-86245619D01*
X48913602Y-86147969D01*
X49125769Y-86006203D01*
X49306203Y-85825769D01*
X49447969Y-85613602D01*
X49545619Y-85377854D01*
X49595400Y-85127586D01*
X49595400Y-84872414D01*
X51830600Y-84872414D01*
X51830600Y-85127586D01*
X51880381Y-85377854D01*
X51978031Y-85613602D01*
X52119797Y-85825769D01*
X52300231Y-86006203D01*
X52512398Y-86147969D01*
X52748146Y-86245619D01*
X52998414Y-86295400D01*
X53253586Y-86295400D01*
X53503854Y-86245619D01*
X53739602Y-86147969D01*
X53951769Y-86006203D01*
X54132203Y-85825769D01*
X54273969Y-85613602D01*
X54371619Y-85377854D01*
X54421400Y-85127586D01*
X54421400Y-84872414D01*
X54371619Y-84622146D01*
X54273969Y-84386398D01*
X54132203Y-84174231D01*
X53951769Y-83993797D01*
X53739602Y-83852031D01*
X53503854Y-83754381D01*
X53253586Y-83704600D01*
X52998414Y-83704600D01*
X52748146Y-83754381D01*
X52512398Y-83852031D01*
X52300231Y-83993797D01*
X52119797Y-84174231D01*
X51978031Y-84386398D01*
X51880381Y-84622146D01*
X51830600Y-84872414D01*
X49595400Y-84872414D01*
X49545619Y-84622146D01*
X49447969Y-84386398D01*
X49306203Y-84174231D01*
X49125769Y-83993797D01*
X48913602Y-83852031D01*
X48677854Y-83754381D01*
X48427586Y-83704600D01*
X48172414Y-83704600D01*
X47922146Y-83754381D01*
X47686398Y-83852031D01*
X47474231Y-83993797D01*
X47293797Y-84174231D01*
X47152031Y-84386398D01*
X47054381Y-84622146D01*
X47004600Y-84872414D01*
X45127000Y-84872414D01*
X45127000Y-84317126D01*
X45129717Y-84316586D01*
X45397822Y-84205533D01*
X45639110Y-84044309D01*
X45844309Y-83839110D01*
X45986037Y-83627000D01*
X46900000Y-83627000D01*
X46924776Y-83624560D01*
X46948601Y-83617333D01*
X46970557Y-83605597D01*
X46989803Y-83589803D01*
X47005597Y-83570557D01*
X47017333Y-83548601D01*
X47024560Y-83524776D01*
X47027000Y-83500000D01*
X47027000Y-82527000D01*
X49800000Y-82527000D01*
X49824776Y-82524560D01*
X49848601Y-82517333D01*
X49870557Y-82505597D01*
X49889803Y-82489803D01*
X49905597Y-82470557D01*
X49917333Y-82448601D01*
X49924560Y-82424776D01*
X49927000Y-82400000D01*
X49927000Y-77927000D01*
X50573000Y-77927000D01*
X50573000Y-79496005D01*
G37*
X50573000Y-79496005D02*
X50560054Y-79515380D01*
X50489572Y-79685540D01*
X50453640Y-79866180D01*
X50453640Y-80050358D01*
X50489572Y-80230998D01*
X50560054Y-80401158D01*
X50573000Y-80420533D01*
X50573000Y-80600000D01*
X50575440Y-80624776D01*
X50582667Y-80648601D01*
X50594403Y-80670557D01*
X50610197Y-80689803D01*
X50629443Y-80705597D01*
X50651399Y-80717333D01*
X50675224Y-80724560D01*
X50700000Y-80727000D01*
X50856171Y-80727000D01*
X50945751Y-80786855D01*
X51115911Y-80857337D01*
X51296551Y-80893269D01*
X51480729Y-80893269D01*
X51661369Y-80857337D01*
X51831529Y-80786855D01*
X51887865Y-80749212D01*
X51946246Y-80788221D01*
X52116406Y-80858703D01*
X52297046Y-80894635D01*
X52481224Y-80894635D01*
X52661864Y-80858703D01*
X52832024Y-80788221D01*
X52923648Y-80727000D01*
X55303272Y-80727000D01*
X55339118Y-80780648D01*
X55469352Y-80910882D01*
X55622491Y-81013206D01*
X55792651Y-81083688D01*
X55930381Y-81111085D01*
X55930382Y-87573000D01*
X45127000Y-87573000D01*
X45127000Y-84872414D01*
X47004600Y-84872414D01*
X47004600Y-85127586D01*
X47054381Y-85377854D01*
X47152031Y-85613602D01*
X47293797Y-85825769D01*
X47474231Y-86006203D01*
X47686398Y-86147969D01*
X47922146Y-86245619D01*
X48172414Y-86295400D01*
X48427586Y-86295400D01*
X48677854Y-86245619D01*
X48913602Y-86147969D01*
X49125769Y-86006203D01*
X49306203Y-85825769D01*
X49447969Y-85613602D01*
X49545619Y-85377854D01*
X49595400Y-85127586D01*
X49595400Y-84872414D01*
X51830600Y-84872414D01*
X51830600Y-85127586D01*
X51880381Y-85377854D01*
X51978031Y-85613602D01*
X52119797Y-85825769D01*
X52300231Y-86006203D01*
X52512398Y-86147969D01*
X52748146Y-86245619D01*
X52998414Y-86295400D01*
X53253586Y-86295400D01*
X53503854Y-86245619D01*
X53739602Y-86147969D01*
X53951769Y-86006203D01*
X54132203Y-85825769D01*
X54273969Y-85613602D01*
X54371619Y-85377854D01*
X54421400Y-85127586D01*
X54421400Y-84872414D01*
X54371619Y-84622146D01*
X54273969Y-84386398D01*
X54132203Y-84174231D01*
X53951769Y-83993797D01*
X53739602Y-83852031D01*
X53503854Y-83754381D01*
X53253586Y-83704600D01*
X52998414Y-83704600D01*
X52748146Y-83754381D01*
X52512398Y-83852031D01*
X52300231Y-83993797D01*
X52119797Y-84174231D01*
X51978031Y-84386398D01*
X51880381Y-84622146D01*
X51830600Y-84872414D01*
X49595400Y-84872414D01*
X49545619Y-84622146D01*
X49447969Y-84386398D01*
X49306203Y-84174231D01*
X49125769Y-83993797D01*
X48913602Y-83852031D01*
X48677854Y-83754381D01*
X48427586Y-83704600D01*
X48172414Y-83704600D01*
X47922146Y-83754381D01*
X47686398Y-83852031D01*
X47474231Y-83993797D01*
X47293797Y-84174231D01*
X47152031Y-84386398D01*
X47054381Y-84622146D01*
X47004600Y-84872414D01*
X45127000Y-84872414D01*
X45127000Y-84317126D01*
X45129717Y-84316586D01*
X45397822Y-84205533D01*
X45639110Y-84044309D01*
X45844309Y-83839110D01*
X45986037Y-83627000D01*
X46900000Y-83627000D01*
X46924776Y-83624560D01*
X46948601Y-83617333D01*
X46970557Y-83605597D01*
X46989803Y-83589803D01*
X47005597Y-83570557D01*
X47017333Y-83548601D01*
X47024560Y-83524776D01*
X47027000Y-83500000D01*
X47027000Y-82527000D01*
X49800000Y-82527000D01*
X49824776Y-82524560D01*
X49848601Y-82517333D01*
X49870557Y-82505597D01*
X49889803Y-82489803D01*
X49905597Y-82470557D01*
X49917333Y-82448601D01*
X49924560Y-82424776D01*
X49927000Y-82400000D01*
X49927000Y-77927000D01*
X50573000Y-77927000D01*
X50573000Y-79496005D01*
%TO.N,+3V3*%
G36*
X36065000Y-76201939D02*
G01*
X36104774Y-76401898D01*
X36182795Y-76590256D01*
X36189306Y-76600000D01*
X36182795Y-76609744D01*
X36104774Y-76798102D01*
X36065000Y-76998061D01*
X36065000Y-77201939D01*
X36104774Y-77401898D01*
X36182795Y-77590256D01*
X36296063Y-77759774D01*
X36440226Y-77903937D01*
X36609744Y-78017205D01*
X36798102Y-78095226D01*
X36998061Y-78135000D01*
X37065000Y-78135000D01*
X37065000Y-78201939D01*
X37104774Y-78401898D01*
X37182795Y-78590256D01*
X37256123Y-78700000D01*
X37182795Y-78809744D01*
X37104774Y-78998102D01*
X37065000Y-79198061D01*
X37065000Y-79401939D01*
X37092958Y-79542492D01*
X37001898Y-79504774D01*
X36801939Y-79465000D01*
X36598061Y-79465000D01*
X36398102Y-79504774D01*
X36209744Y-79582795D01*
X36127935Y-79637458D01*
X36135000Y-79601939D01*
X36135000Y-79398061D01*
X36095226Y-79198102D01*
X36054591Y-79100000D01*
X36095226Y-79001898D01*
X36135000Y-78801939D01*
X36135000Y-78598061D01*
X36095226Y-78398102D01*
X36017205Y-78209744D01*
X35903937Y-78040226D01*
X35759774Y-77896063D01*
X35590256Y-77782795D01*
X35401898Y-77704774D01*
X35201939Y-77665000D01*
X34998061Y-77665000D01*
X34798102Y-77704774D01*
X34609744Y-77782795D01*
X34440226Y-77896063D01*
X34296063Y-78040226D01*
X34182795Y-78209744D01*
X34104774Y-78398102D01*
X34065000Y-78598061D01*
X34065000Y-78801939D01*
X34104774Y-79001898D01*
X34145409Y-79100000D01*
X34104774Y-79198102D01*
X34065000Y-79398061D01*
X34065000Y-79601939D01*
X34082130Y-79688060D01*
X33998102Y-79704774D01*
X33809744Y-79782795D01*
X33640226Y-79896063D01*
X33496063Y-80040226D01*
X33382795Y-80209744D01*
X33304774Y-80398102D01*
X33265000Y-80598061D01*
X33265000Y-80801939D01*
X33304774Y-81001898D01*
X33382795Y-81190256D01*
X33389306Y-81200000D01*
X33382795Y-81209744D01*
X33304774Y-81398102D01*
X33265000Y-81598061D01*
X33265000Y-81801939D01*
X33304774Y-82001898D01*
X33382795Y-82190256D01*
X33496063Y-82359774D01*
X33640226Y-82503937D01*
X33809744Y-82617205D01*
X33998102Y-82695226D01*
X34198061Y-82735000D01*
X34401939Y-82735000D01*
X34480658Y-82719342D01*
X34465000Y-82798061D01*
X34465000Y-83001939D01*
X34504774Y-83201898D01*
X34582795Y-83390256D01*
X34696063Y-83559774D01*
X34840226Y-83703937D01*
X35009744Y-83817205D01*
X35198102Y-83895226D01*
X35398061Y-83935000D01*
X35601939Y-83935000D01*
X35801898Y-83895226D01*
X35990256Y-83817205D01*
X36159774Y-83703937D01*
X36303937Y-83559774D01*
X36417205Y-83390256D01*
X36495226Y-83201898D01*
X36535000Y-83001939D01*
X36535000Y-82798061D01*
X36495226Y-82598102D01*
X36417205Y-82409744D01*
X36303937Y-82240226D01*
X36227972Y-82164261D01*
X36295226Y-82001898D01*
X36335000Y-81801939D01*
X36335000Y-81598061D01*
X36307042Y-81457508D01*
X36398102Y-81495226D01*
X36598061Y-81535000D01*
X36801939Y-81535000D01*
X37001898Y-81495226D01*
X37177519Y-81422481D01*
X37104774Y-81598102D01*
X37065000Y-81798061D01*
X37065000Y-82001939D01*
X37104774Y-82201898D01*
X37182795Y-82390256D01*
X37296063Y-82559774D01*
X37440226Y-82703937D01*
X37609744Y-82817205D01*
X37798102Y-82895226D01*
X37998061Y-82935000D01*
X38201939Y-82935000D01*
X38401898Y-82895226D01*
X38590256Y-82817205D01*
X38759774Y-82703937D01*
X38903937Y-82559774D01*
X38965000Y-82468387D01*
X38964999Y-90525718D01*
X38322186Y-91168532D01*
X38292238Y-91193110D01*
X38267660Y-91223058D01*
X38267656Y-91223062D01*
X38239176Y-91257765D01*
X38194140Y-91312641D01*
X38176844Y-91345000D01*
X38121247Y-91449015D01*
X38076360Y-91596988D01*
X38061204Y-91750874D01*
X38065002Y-91789437D01*
X38065001Y-101744842D01*
X37256918Y-102552925D01*
X37066260Y-102515000D01*
X36773740Y-102515000D01*
X36486842Y-102572068D01*
X36216589Y-102684010D01*
X35973368Y-102846525D01*
X35766525Y-103053368D01*
X35650000Y-103227760D01*
X35533475Y-103053368D01*
X35326632Y-102846525D01*
X35083411Y-102684010D01*
X34813158Y-102572068D01*
X34526260Y-102515000D01*
X34233740Y-102515000D01*
X33946842Y-102572068D01*
X33676589Y-102684010D01*
X33433368Y-102846525D01*
X33301513Y-102978380D01*
X33279502Y-102905820D01*
X33220537Y-102795506D01*
X33141185Y-102698815D01*
X33044494Y-102619463D01*
X32934180Y-102560498D01*
X32814482Y-102524188D01*
X32690000Y-102511928D01*
X30990000Y-102511928D01*
X30865518Y-102524188D01*
X30745820Y-102560498D01*
X30635506Y-102619463D01*
X30538815Y-102698815D01*
X30459463Y-102795506D01*
X30400498Y-102905820D01*
X30364188Y-103025518D01*
X30351928Y-103150000D01*
X30351928Y-104850000D01*
X30364188Y-104974482D01*
X30400498Y-105094180D01*
X30459463Y-105204494D01*
X30538815Y-105301185D01*
X30635506Y-105380537D01*
X30745820Y-105439502D01*
X30818380Y-105461513D01*
X30686525Y-105593368D01*
X30524010Y-105836589D01*
X30412068Y-106106842D01*
X30355000Y-106393740D01*
X30355000Y-106686260D01*
X30412068Y-106973158D01*
X30524010Y-107243411D01*
X30686525Y-107486632D01*
X30893368Y-107693475D01*
X30962998Y-107740000D01*
X26432279Y-107740000D01*
X25848990Y-107682808D01*
X25318964Y-107522783D01*
X24830120Y-107262860D01*
X24401069Y-106912935D01*
X24048155Y-106486335D01*
X23784827Y-105999320D01*
X23621106Y-105470422D01*
X23560000Y-104889038D01*
X23560010Y-104288072D01*
X25250000Y-104288072D01*
X25374482Y-104275812D01*
X25375017Y-104275650D01*
X25359093Y-104299482D01*
X25260342Y-104537887D01*
X25210000Y-104790976D01*
X25210000Y-105049024D01*
X25260342Y-105302113D01*
X25359093Y-105540518D01*
X25502456Y-105755077D01*
X25684923Y-105937544D01*
X25899482Y-106080907D01*
X26137887Y-106179658D01*
X26390976Y-106230000D01*
X26649024Y-106230000D01*
X26902113Y-106179658D01*
X27140518Y-106080907D01*
X27355077Y-105937544D01*
X27537544Y-105755077D01*
X27680907Y-105540518D01*
X27779658Y-105302113D01*
X27830000Y-105049024D01*
X27830000Y-104790976D01*
X27779658Y-104537887D01*
X27680907Y-104299482D01*
X27537544Y-104084923D01*
X27355077Y-103902456D01*
X27140518Y-103759093D01*
X26902113Y-103660342D01*
X26649024Y-103610000D01*
X26390976Y-103610000D01*
X26137887Y-103660342D01*
X25899482Y-103759093D01*
X25875650Y-103775017D01*
X25875812Y-103774482D01*
X25888072Y-103650000D01*
X25888072Y-101950000D01*
X25875812Y-101825518D01*
X25839502Y-101705820D01*
X25780537Y-101595506D01*
X25701185Y-101498815D01*
X25604494Y-101419463D01*
X25494180Y-101360498D01*
X25421620Y-101338487D01*
X25553475Y-101206632D01*
X25715990Y-100963411D01*
X25827932Y-100693158D01*
X25885000Y-100406260D01*
X25885000Y-100113740D01*
X25827932Y-99826842D01*
X25715990Y-99556589D01*
X25553475Y-99313368D01*
X25346632Y-99106525D01*
X25172240Y-98990000D01*
X25346632Y-98873475D01*
X25553475Y-98666632D01*
X25715990Y-98423411D01*
X25827932Y-98153158D01*
X25885000Y-97866260D01*
X25885000Y-97573740D01*
X25827932Y-97286842D01*
X25715990Y-97016589D01*
X25553475Y-96773368D01*
X25346632Y-96566525D01*
X25172240Y-96450000D01*
X25346632Y-96333475D01*
X25553475Y-96126632D01*
X25715990Y-95883411D01*
X25827932Y-95613158D01*
X25885000Y-95326260D01*
X25885000Y-95033740D01*
X25827932Y-94746842D01*
X25715990Y-94476589D01*
X25553475Y-94233368D01*
X25346632Y-94026525D01*
X25103411Y-93864010D01*
X24833158Y-93752068D01*
X24546260Y-93695000D01*
X24253740Y-93695000D01*
X23966842Y-93752068D01*
X23696589Y-93864010D01*
X23560188Y-93955150D01*
X23560312Y-86753740D01*
X31635000Y-86753740D01*
X31635000Y-87046260D01*
X31692068Y-87333158D01*
X31804010Y-87603411D01*
X31966525Y-87846632D01*
X32173368Y-88053475D01*
X32416589Y-88215990D01*
X32686842Y-88327932D01*
X32973740Y-88385000D01*
X33266260Y-88385000D01*
X33553158Y-88327932D01*
X33823411Y-88215990D01*
X34066632Y-88053475D01*
X34273475Y-87846632D01*
X34390000Y-87672240D01*
X34506525Y-87846632D01*
X34713368Y-88053475D01*
X34956589Y-88215990D01*
X35226842Y-88327932D01*
X35513740Y-88385000D01*
X35806260Y-88385000D01*
X36093158Y-88327932D01*
X36363411Y-88215990D01*
X36606632Y-88053475D01*
X36813475Y-87846632D01*
X36975990Y-87603411D01*
X37087932Y-87333158D01*
X37145000Y-87046260D01*
X37145000Y-86753740D01*
X37087932Y-86466842D01*
X36975990Y-86196589D01*
X36813475Y-85953368D01*
X36606632Y-85746525D01*
X36363411Y-85584010D01*
X36093158Y-85472068D01*
X35806260Y-85415000D01*
X35513740Y-85415000D01*
X35226842Y-85472068D01*
X34956589Y-85584010D01*
X34713368Y-85746525D01*
X34506525Y-85953368D01*
X34390000Y-86127760D01*
X34273475Y-85953368D01*
X34066632Y-85746525D01*
X33823411Y-85584010D01*
X33553158Y-85472068D01*
X33266260Y-85415000D01*
X32973740Y-85415000D01*
X32686842Y-85472068D01*
X32416589Y-85584010D01*
X32173368Y-85746525D01*
X31966525Y-85953368D01*
X31804010Y-86196589D01*
X31692068Y-86466842D01*
X31635000Y-86753740D01*
X23560312Y-86753740D01*
X23560336Y-85379570D01*
X23754242Y-85573476D01*
X23997463Y-85735991D01*
X24267716Y-85847933D01*
X24554614Y-85905001D01*
X24847134Y-85905001D01*
X25134032Y-85847933D01*
X25404285Y-85735991D01*
X25647506Y-85573476D01*
X25854349Y-85366633D01*
X26016864Y-85123412D01*
X26128806Y-84853159D01*
X26185874Y-84566261D01*
X26185874Y-84273741D01*
X26128806Y-83986843D01*
X26016864Y-83716590D01*
X25854349Y-83473369D01*
X25647506Y-83266526D01*
X25473114Y-83150001D01*
X25647506Y-83033476D01*
X25854349Y-82826633D01*
X26016864Y-82583412D01*
X26128806Y-82313159D01*
X26185874Y-82026261D01*
X26185874Y-81733741D01*
X26128806Y-81446843D01*
X26016864Y-81176590D01*
X25854349Y-80933369D01*
X25647506Y-80726526D01*
X25473114Y-80610001D01*
X25647506Y-80493476D01*
X25854349Y-80286633D01*
X26016864Y-80043412D01*
X26128806Y-79773159D01*
X26185874Y-79486261D01*
X26185874Y-79193741D01*
X26128806Y-78906843D01*
X26016864Y-78636590D01*
X25854349Y-78393369D01*
X25647506Y-78186526D01*
X25473114Y-78070001D01*
X25647506Y-77953476D01*
X25854349Y-77746633D01*
X26016864Y-77503412D01*
X26128806Y-77233159D01*
X26185874Y-76946261D01*
X26185874Y-76653741D01*
X26128806Y-76366843D01*
X26028494Y-76124667D01*
X36065000Y-76124667D01*
X36065000Y-76201939D01*
G37*
X36065000Y-76201939D02*
X36104774Y-76401898D01*
X36182795Y-76590256D01*
X36189306Y-76600000D01*
X36182795Y-76609744D01*
X36104774Y-76798102D01*
X36065000Y-76998061D01*
X36065000Y-77201939D01*
X36104774Y-77401898D01*
X36182795Y-77590256D01*
X36296063Y-77759774D01*
X36440226Y-77903937D01*
X36609744Y-78017205D01*
X36798102Y-78095226D01*
X36998061Y-78135000D01*
X37065000Y-78135000D01*
X37065000Y-78201939D01*
X37104774Y-78401898D01*
X37182795Y-78590256D01*
X37256123Y-78700000D01*
X37182795Y-78809744D01*
X37104774Y-78998102D01*
X37065000Y-79198061D01*
X37065000Y-79401939D01*
X37092958Y-79542492D01*
X37001898Y-79504774D01*
X36801939Y-79465000D01*
X36598061Y-79465000D01*
X36398102Y-79504774D01*
X36209744Y-79582795D01*
X36127935Y-79637458D01*
X36135000Y-79601939D01*
X36135000Y-79398061D01*
X36095226Y-79198102D01*
X36054591Y-79100000D01*
X36095226Y-79001898D01*
X36135000Y-78801939D01*
X36135000Y-78598061D01*
X36095226Y-78398102D01*
X36017205Y-78209744D01*
X35903937Y-78040226D01*
X35759774Y-77896063D01*
X35590256Y-77782795D01*
X35401898Y-77704774D01*
X35201939Y-77665000D01*
X34998061Y-77665000D01*
X34798102Y-77704774D01*
X34609744Y-77782795D01*
X34440226Y-77896063D01*
X34296063Y-78040226D01*
X34182795Y-78209744D01*
X34104774Y-78398102D01*
X34065000Y-78598061D01*
X34065000Y-78801939D01*
X34104774Y-79001898D01*
X34145409Y-79100000D01*
X34104774Y-79198102D01*
X34065000Y-79398061D01*
X34065000Y-79601939D01*
X34082130Y-79688060D01*
X33998102Y-79704774D01*
X33809744Y-79782795D01*
X33640226Y-79896063D01*
X33496063Y-80040226D01*
X33382795Y-80209744D01*
X33304774Y-80398102D01*
X33265000Y-80598061D01*
X33265000Y-80801939D01*
X33304774Y-81001898D01*
X33382795Y-81190256D01*
X33389306Y-81200000D01*
X33382795Y-81209744D01*
X33304774Y-81398102D01*
X33265000Y-81598061D01*
X33265000Y-81801939D01*
X33304774Y-82001898D01*
X33382795Y-82190256D01*
X33496063Y-82359774D01*
X33640226Y-82503937D01*
X33809744Y-82617205D01*
X33998102Y-82695226D01*
X34198061Y-82735000D01*
X34401939Y-82735000D01*
X34480658Y-82719342D01*
X34465000Y-82798061D01*
X34465000Y-83001939D01*
X34504774Y-83201898D01*
X34582795Y-83390256D01*
X34696063Y-83559774D01*
X34840226Y-83703937D01*
X35009744Y-83817205D01*
X35198102Y-83895226D01*
X35398061Y-83935000D01*
X35601939Y-83935000D01*
X35801898Y-83895226D01*
X35990256Y-83817205D01*
X36159774Y-83703937D01*
X36303937Y-83559774D01*
X36417205Y-83390256D01*
X36495226Y-83201898D01*
X36535000Y-83001939D01*
X36535000Y-82798061D01*
X36495226Y-82598102D01*
X36417205Y-82409744D01*
X36303937Y-82240226D01*
X36227972Y-82164261D01*
X36295226Y-82001898D01*
X36335000Y-81801939D01*
X36335000Y-81598061D01*
X36307042Y-81457508D01*
X36398102Y-81495226D01*
X36598061Y-81535000D01*
X36801939Y-81535000D01*
X37001898Y-81495226D01*
X37177519Y-81422481D01*
X37104774Y-81598102D01*
X37065000Y-81798061D01*
X37065000Y-82001939D01*
X37104774Y-82201898D01*
X37182795Y-82390256D01*
X37296063Y-82559774D01*
X37440226Y-82703937D01*
X37609744Y-82817205D01*
X37798102Y-82895226D01*
X37998061Y-82935000D01*
X38201939Y-82935000D01*
X38401898Y-82895226D01*
X38590256Y-82817205D01*
X38759774Y-82703937D01*
X38903937Y-82559774D01*
X38965000Y-82468387D01*
X38964999Y-90525718D01*
X38322186Y-91168532D01*
X38292238Y-91193110D01*
X38267660Y-91223058D01*
X38267656Y-91223062D01*
X38239176Y-91257765D01*
X38194140Y-91312641D01*
X38176844Y-91345000D01*
X38121247Y-91449015D01*
X38076360Y-91596988D01*
X38061204Y-91750874D01*
X38065002Y-91789437D01*
X38065001Y-101744842D01*
X37256918Y-102552925D01*
X37066260Y-102515000D01*
X36773740Y-102515000D01*
X36486842Y-102572068D01*
X36216589Y-102684010D01*
X35973368Y-102846525D01*
X35766525Y-103053368D01*
X35650000Y-103227760D01*
X35533475Y-103053368D01*
X35326632Y-102846525D01*
X35083411Y-102684010D01*
X34813158Y-102572068D01*
X34526260Y-102515000D01*
X34233740Y-102515000D01*
X33946842Y-102572068D01*
X33676589Y-102684010D01*
X33433368Y-102846525D01*
X33301513Y-102978380D01*
X33279502Y-102905820D01*
X33220537Y-102795506D01*
X33141185Y-102698815D01*
X33044494Y-102619463D01*
X32934180Y-102560498D01*
X32814482Y-102524188D01*
X32690000Y-102511928D01*
X30990000Y-102511928D01*
X30865518Y-102524188D01*
X30745820Y-102560498D01*
X30635506Y-102619463D01*
X30538815Y-102698815D01*
X30459463Y-102795506D01*
X30400498Y-102905820D01*
X30364188Y-103025518D01*
X30351928Y-103150000D01*
X30351928Y-104850000D01*
X30364188Y-104974482D01*
X30400498Y-105094180D01*
X30459463Y-105204494D01*
X30538815Y-105301185D01*
X30635506Y-105380537D01*
X30745820Y-105439502D01*
X30818380Y-105461513D01*
X30686525Y-105593368D01*
X30524010Y-105836589D01*
X30412068Y-106106842D01*
X30355000Y-106393740D01*
X30355000Y-106686260D01*
X30412068Y-106973158D01*
X30524010Y-107243411D01*
X30686525Y-107486632D01*
X30893368Y-107693475D01*
X30962998Y-107740000D01*
X26432279Y-107740000D01*
X25848990Y-107682808D01*
X25318964Y-107522783D01*
X24830120Y-107262860D01*
X24401069Y-106912935D01*
X24048155Y-106486335D01*
X23784827Y-105999320D01*
X23621106Y-105470422D01*
X23560000Y-104889038D01*
X23560010Y-104288072D01*
X25250000Y-104288072D01*
X25374482Y-104275812D01*
X25375017Y-104275650D01*
X25359093Y-104299482D01*
X25260342Y-104537887D01*
X25210000Y-104790976D01*
X25210000Y-105049024D01*
X25260342Y-105302113D01*
X25359093Y-105540518D01*
X25502456Y-105755077D01*
X25684923Y-105937544D01*
X25899482Y-106080907D01*
X26137887Y-106179658D01*
X26390976Y-106230000D01*
X26649024Y-106230000D01*
X26902113Y-106179658D01*
X27140518Y-106080907D01*
X27355077Y-105937544D01*
X27537544Y-105755077D01*
X27680907Y-105540518D01*
X27779658Y-105302113D01*
X27830000Y-105049024D01*
X27830000Y-104790976D01*
X27779658Y-104537887D01*
X27680907Y-104299482D01*
X27537544Y-104084923D01*
X27355077Y-103902456D01*
X27140518Y-103759093D01*
X26902113Y-103660342D01*
X26649024Y-103610000D01*
X26390976Y-103610000D01*
X26137887Y-103660342D01*
X25899482Y-103759093D01*
X25875650Y-103775017D01*
X25875812Y-103774482D01*
X25888072Y-103650000D01*
X25888072Y-101950000D01*
X25875812Y-101825518D01*
X25839502Y-101705820D01*
X25780537Y-101595506D01*
X25701185Y-101498815D01*
X25604494Y-101419463D01*
X25494180Y-101360498D01*
X25421620Y-101338487D01*
X25553475Y-101206632D01*
X25715990Y-100963411D01*
X25827932Y-100693158D01*
X25885000Y-100406260D01*
X25885000Y-100113740D01*
X25827932Y-99826842D01*
X25715990Y-99556589D01*
X25553475Y-99313368D01*
X25346632Y-99106525D01*
X25172240Y-98990000D01*
X25346632Y-98873475D01*
X25553475Y-98666632D01*
X25715990Y-98423411D01*
X25827932Y-98153158D01*
X25885000Y-97866260D01*
X25885000Y-97573740D01*
X25827932Y-97286842D01*
X25715990Y-97016589D01*
X25553475Y-96773368D01*
X25346632Y-96566525D01*
X25172240Y-96450000D01*
X25346632Y-96333475D01*
X25553475Y-96126632D01*
X25715990Y-95883411D01*
X25827932Y-95613158D01*
X25885000Y-95326260D01*
X25885000Y-95033740D01*
X25827932Y-94746842D01*
X25715990Y-94476589D01*
X25553475Y-94233368D01*
X25346632Y-94026525D01*
X25103411Y-93864010D01*
X24833158Y-93752068D01*
X24546260Y-93695000D01*
X24253740Y-93695000D01*
X23966842Y-93752068D01*
X23696589Y-93864010D01*
X23560188Y-93955150D01*
X23560312Y-86753740D01*
X31635000Y-86753740D01*
X31635000Y-87046260D01*
X31692068Y-87333158D01*
X31804010Y-87603411D01*
X31966525Y-87846632D01*
X32173368Y-88053475D01*
X32416589Y-88215990D01*
X32686842Y-88327932D01*
X32973740Y-88385000D01*
X33266260Y-88385000D01*
X33553158Y-88327932D01*
X33823411Y-88215990D01*
X34066632Y-88053475D01*
X34273475Y-87846632D01*
X34390000Y-87672240D01*
X34506525Y-87846632D01*
X34713368Y-88053475D01*
X34956589Y-88215990D01*
X35226842Y-88327932D01*
X35513740Y-88385000D01*
X35806260Y-88385000D01*
X36093158Y-88327932D01*
X36363411Y-88215990D01*
X36606632Y-88053475D01*
X36813475Y-87846632D01*
X36975990Y-87603411D01*
X37087932Y-87333158D01*
X37145000Y-87046260D01*
X37145000Y-86753740D01*
X37087932Y-86466842D01*
X36975990Y-86196589D01*
X36813475Y-85953368D01*
X36606632Y-85746525D01*
X36363411Y-85584010D01*
X36093158Y-85472068D01*
X35806260Y-85415000D01*
X35513740Y-85415000D01*
X35226842Y-85472068D01*
X34956589Y-85584010D01*
X34713368Y-85746525D01*
X34506525Y-85953368D01*
X34390000Y-86127760D01*
X34273475Y-85953368D01*
X34066632Y-85746525D01*
X33823411Y-85584010D01*
X33553158Y-85472068D01*
X33266260Y-85415000D01*
X32973740Y-85415000D01*
X32686842Y-85472068D01*
X32416589Y-85584010D01*
X32173368Y-85746525D01*
X31966525Y-85953368D01*
X31804010Y-86196589D01*
X31692068Y-86466842D01*
X31635000Y-86753740D01*
X23560312Y-86753740D01*
X23560336Y-85379570D01*
X23754242Y-85573476D01*
X23997463Y-85735991D01*
X24267716Y-85847933D01*
X24554614Y-85905001D01*
X24847134Y-85905001D01*
X25134032Y-85847933D01*
X25404285Y-85735991D01*
X25647506Y-85573476D01*
X25854349Y-85366633D01*
X26016864Y-85123412D01*
X26128806Y-84853159D01*
X26185874Y-84566261D01*
X26185874Y-84273741D01*
X26128806Y-83986843D01*
X26016864Y-83716590D01*
X25854349Y-83473369D01*
X25647506Y-83266526D01*
X25473114Y-83150001D01*
X25647506Y-83033476D01*
X25854349Y-82826633D01*
X26016864Y-82583412D01*
X26128806Y-82313159D01*
X26185874Y-82026261D01*
X26185874Y-81733741D01*
X26128806Y-81446843D01*
X26016864Y-81176590D01*
X25854349Y-80933369D01*
X25647506Y-80726526D01*
X25473114Y-80610001D01*
X25647506Y-80493476D01*
X25854349Y-80286633D01*
X26016864Y-80043412D01*
X26128806Y-79773159D01*
X26185874Y-79486261D01*
X26185874Y-79193741D01*
X26128806Y-78906843D01*
X26016864Y-78636590D01*
X25854349Y-78393369D01*
X25647506Y-78186526D01*
X25473114Y-78070001D01*
X25647506Y-77953476D01*
X25854349Y-77746633D01*
X26016864Y-77503412D01*
X26128806Y-77233159D01*
X26185874Y-76946261D01*
X26185874Y-76653741D01*
X26128806Y-76366843D01*
X26028494Y-76124667D01*
X36065000Y-76124667D01*
X36065000Y-76201939D01*
G36*
X77151010Y-44117192D02*
G01*
X77681036Y-44277216D01*
X78169879Y-44537140D01*
X78598931Y-44887065D01*
X78951844Y-45313664D01*
X79215173Y-45800681D01*
X79378894Y-46329578D01*
X79440000Y-46910960D01*
X79440001Y-85967581D01*
X79440000Y-104867721D01*
X79382808Y-105451010D01*
X79222783Y-105981036D01*
X78962860Y-106469880D01*
X78612935Y-106898931D01*
X78186335Y-107251845D01*
X77699320Y-107515173D01*
X77170422Y-107678894D01*
X76589040Y-107740000D01*
X61755937Y-107740000D01*
X61775812Y-107674482D01*
X61788072Y-107550000D01*
X61788072Y-105850000D01*
X61775812Y-105725518D01*
X61739502Y-105605820D01*
X61680537Y-105495506D01*
X61601185Y-105398815D01*
X61504494Y-105319463D01*
X61394180Y-105260498D01*
X61274482Y-105224188D01*
X61150000Y-105211928D01*
X59450000Y-105211928D01*
X59325518Y-105224188D01*
X59205820Y-105260498D01*
X59095506Y-105319463D01*
X58998815Y-105398815D01*
X58919463Y-105495506D01*
X58860498Y-105605820D01*
X58824188Y-105725518D01*
X58811928Y-105850000D01*
X58811928Y-107550000D01*
X58824188Y-107674482D01*
X58844063Y-107740000D01*
X58427000Y-107740000D01*
X58427000Y-102750000D01*
X58811928Y-102750000D01*
X58811928Y-104450000D01*
X58824188Y-104574482D01*
X58860498Y-104694180D01*
X58919463Y-104804494D01*
X58998815Y-104901185D01*
X59095506Y-104980537D01*
X59205820Y-105039502D01*
X59325518Y-105075812D01*
X59450000Y-105088072D01*
X61150000Y-105088072D01*
X61274482Y-105075812D01*
X61394180Y-105039502D01*
X61504494Y-104980537D01*
X61601185Y-104901185D01*
X61680537Y-104804494D01*
X61739502Y-104694180D01*
X61761513Y-104621620D01*
X61893368Y-104753475D01*
X62136589Y-104915990D01*
X62406842Y-105027932D01*
X62693740Y-105085000D01*
X62986260Y-105085000D01*
X63273158Y-105027932D01*
X63461303Y-104950000D01*
X67311928Y-104950000D01*
X67311928Y-106650000D01*
X67324188Y-106774482D01*
X67360498Y-106894180D01*
X67419463Y-107004494D01*
X67498815Y-107101185D01*
X67595506Y-107180537D01*
X67705820Y-107239502D01*
X67825518Y-107275812D01*
X67950000Y-107288072D01*
X69650000Y-107288072D01*
X69774482Y-107275812D01*
X69894180Y-107239502D01*
X70004494Y-107180537D01*
X70101185Y-107101185D01*
X70180537Y-107004494D01*
X70239502Y-106894180D01*
X70261513Y-106821620D01*
X70393368Y-106953475D01*
X70636589Y-107115990D01*
X70906842Y-107227932D01*
X71193740Y-107285000D01*
X71486260Y-107285000D01*
X71773158Y-107227932D01*
X72043411Y-107115990D01*
X72286632Y-106953475D01*
X72493475Y-106746632D01*
X72655990Y-106503411D01*
X72767932Y-106233158D01*
X72825000Y-105946260D01*
X72825000Y-105653740D01*
X72767932Y-105366842D01*
X72655990Y-105096589D01*
X72493475Y-104853368D01*
X72431083Y-104790976D01*
X74210000Y-104790976D01*
X74210000Y-105049024D01*
X74260342Y-105302113D01*
X74359093Y-105540518D01*
X74502456Y-105755077D01*
X74684923Y-105937544D01*
X74899482Y-106080907D01*
X75137887Y-106179658D01*
X75390976Y-106230000D01*
X75649024Y-106230000D01*
X75902113Y-106179658D01*
X76140518Y-106080907D01*
X76355077Y-105937544D01*
X76537544Y-105755077D01*
X76680907Y-105540518D01*
X76779658Y-105302113D01*
X76830000Y-105049024D01*
X76830000Y-104790976D01*
X76779658Y-104537887D01*
X76680907Y-104299482D01*
X76537544Y-104084923D01*
X76355077Y-103902456D01*
X76140518Y-103759093D01*
X75902113Y-103660342D01*
X75649024Y-103610000D01*
X75390976Y-103610000D01*
X75137887Y-103660342D01*
X74899482Y-103759093D01*
X74684923Y-103902456D01*
X74502456Y-104084923D01*
X74359093Y-104299482D01*
X74260342Y-104537887D01*
X74210000Y-104790976D01*
X72431083Y-104790976D01*
X72286632Y-104646525D01*
X72043411Y-104484010D01*
X71773158Y-104372068D01*
X71486260Y-104315000D01*
X71193740Y-104315000D01*
X70906842Y-104372068D01*
X70636589Y-104484010D01*
X70393368Y-104646525D01*
X70261513Y-104778380D01*
X70239502Y-104705820D01*
X70180537Y-104595506D01*
X70101185Y-104498815D01*
X70004494Y-104419463D01*
X69894180Y-104360498D01*
X69774482Y-104324188D01*
X69650000Y-104311928D01*
X67950000Y-104311928D01*
X67825518Y-104324188D01*
X67705820Y-104360498D01*
X67595506Y-104419463D01*
X67498815Y-104498815D01*
X67419463Y-104595506D01*
X67360498Y-104705820D01*
X67324188Y-104825518D01*
X67311928Y-104950000D01*
X63461303Y-104950000D01*
X63543411Y-104915990D01*
X63786632Y-104753475D01*
X63993475Y-104546632D01*
X64155990Y-104303411D01*
X64267932Y-104033158D01*
X64325000Y-103746260D01*
X64325000Y-103453740D01*
X64267932Y-103166842D01*
X64155990Y-102896589D01*
X63993475Y-102653368D01*
X63786632Y-102446525D01*
X63543411Y-102284010D01*
X63273158Y-102172068D01*
X62986260Y-102115000D01*
X62693740Y-102115000D01*
X62406842Y-102172068D01*
X62136589Y-102284010D01*
X61893368Y-102446525D01*
X61761513Y-102578380D01*
X61739502Y-102505820D01*
X61680537Y-102395506D01*
X61601185Y-102298815D01*
X61504494Y-102219463D01*
X61394180Y-102160498D01*
X61274482Y-102124188D01*
X61150000Y-102111928D01*
X59450000Y-102111928D01*
X59325518Y-102124188D01*
X59205820Y-102160498D01*
X59095506Y-102219463D01*
X58998815Y-102298815D01*
X58919463Y-102395506D01*
X58860498Y-102505820D01*
X58824188Y-102625518D01*
X58811928Y-102750000D01*
X58427000Y-102750000D01*
X58427000Y-99150000D01*
X58811928Y-99150000D01*
X58811928Y-100850000D01*
X58824188Y-100974482D01*
X58860498Y-101094180D01*
X58919463Y-101204494D01*
X58998815Y-101301185D01*
X59095506Y-101380537D01*
X59205820Y-101439502D01*
X59325518Y-101475812D01*
X59450000Y-101488072D01*
X61150000Y-101488072D01*
X61274482Y-101475812D01*
X61394180Y-101439502D01*
X61504494Y-101380537D01*
X61601185Y-101301185D01*
X61680537Y-101204494D01*
X61739502Y-101094180D01*
X61761513Y-101021620D01*
X61893368Y-101153475D01*
X62136589Y-101315990D01*
X62406842Y-101427932D01*
X62693740Y-101485000D01*
X62986260Y-101485000D01*
X63273158Y-101427932D01*
X63543411Y-101315990D01*
X63786632Y-101153475D01*
X63993475Y-100946632D01*
X64155990Y-100703411D01*
X64267932Y-100433158D01*
X64325000Y-100146260D01*
X64325000Y-99853740D01*
X64267932Y-99566842D01*
X64155990Y-99296589D01*
X63993475Y-99053368D01*
X63786632Y-98846525D01*
X63543411Y-98684010D01*
X63273158Y-98572068D01*
X62986260Y-98515000D01*
X62693740Y-98515000D01*
X62406842Y-98572068D01*
X62136589Y-98684010D01*
X61893368Y-98846525D01*
X61761513Y-98978380D01*
X61739502Y-98905820D01*
X61680537Y-98795506D01*
X61601185Y-98698815D01*
X61504494Y-98619463D01*
X61394180Y-98560498D01*
X61274482Y-98524188D01*
X61150000Y-98511928D01*
X59450000Y-98511928D01*
X59325518Y-98524188D01*
X59205820Y-98560498D01*
X59095506Y-98619463D01*
X58998815Y-98698815D01*
X58919463Y-98795506D01*
X58860498Y-98905820D01*
X58824188Y-99025518D01*
X58811928Y-99150000D01*
X58427000Y-99150000D01*
X58427000Y-95550000D01*
X58811928Y-95550000D01*
X58811928Y-97250000D01*
X58824188Y-97374482D01*
X58860498Y-97494180D01*
X58919463Y-97604494D01*
X58998815Y-97701185D01*
X59095506Y-97780537D01*
X59205820Y-97839502D01*
X59325518Y-97875812D01*
X59450000Y-97888072D01*
X61150000Y-97888072D01*
X61274482Y-97875812D01*
X61394180Y-97839502D01*
X61504494Y-97780537D01*
X61601185Y-97701185D01*
X61680537Y-97604494D01*
X61739502Y-97494180D01*
X61761513Y-97421620D01*
X61893368Y-97553475D01*
X62136589Y-97715990D01*
X62406842Y-97827932D01*
X62693740Y-97885000D01*
X62986260Y-97885000D01*
X63273158Y-97827932D01*
X63543411Y-97715990D01*
X63786632Y-97553475D01*
X63993475Y-97346632D01*
X64155990Y-97103411D01*
X64267932Y-96833158D01*
X64325000Y-96546260D01*
X64325000Y-96253740D01*
X64267932Y-95966842D01*
X64155990Y-95696589D01*
X63993475Y-95453368D01*
X63786632Y-95246525D01*
X63543411Y-95084010D01*
X63273158Y-94972068D01*
X62986260Y-94915000D01*
X62693740Y-94915000D01*
X62406842Y-94972068D01*
X62136589Y-95084010D01*
X61893368Y-95246525D01*
X61761513Y-95378380D01*
X61739502Y-95305820D01*
X61680537Y-95195506D01*
X61601185Y-95098815D01*
X61504494Y-95019463D01*
X61394180Y-94960498D01*
X61274482Y-94924188D01*
X61150000Y-94911928D01*
X59450000Y-94911928D01*
X59325518Y-94924188D01*
X59205820Y-94960498D01*
X59095506Y-95019463D01*
X58998815Y-95098815D01*
X58919463Y-95195506D01*
X58860498Y-95305820D01*
X58824188Y-95425518D01*
X58811928Y-95550000D01*
X58427000Y-95550000D01*
X58427000Y-85541649D01*
X58557111Y-85628586D01*
X58727271Y-85699068D01*
X58907911Y-85735000D01*
X59092089Y-85735000D01*
X59272729Y-85699068D01*
X59442889Y-85628586D01*
X59596028Y-85526262D01*
X59726262Y-85396028D01*
X59828586Y-85242889D01*
X59899068Y-85072729D01*
X59935000Y-84892089D01*
X59935000Y-84707911D01*
X59899068Y-84527271D01*
X59828586Y-84357111D01*
X59726262Y-84203972D01*
X59596028Y-84073738D01*
X59442889Y-83971414D01*
X59272729Y-83900932D01*
X59092089Y-83865000D01*
X58907911Y-83865000D01*
X58727271Y-83900932D01*
X58557111Y-83971414D01*
X58427000Y-84058351D01*
X58427000Y-82283157D01*
X58668186Y-82041970D01*
X58698145Y-82017383D01*
X58796243Y-81897852D01*
X58869135Y-81761479D01*
X58884215Y-81711768D01*
X58914023Y-81613506D01*
X58924814Y-81503937D01*
X58925381Y-81498180D01*
X58925381Y-81498175D01*
X58929178Y-81459619D01*
X58925381Y-81421063D01*
X58925381Y-78978933D01*
X58929178Y-78940380D01*
X58925381Y-78901827D01*
X58925381Y-78901820D01*
X58914022Y-78786494D01*
X58869135Y-78638521D01*
X58796243Y-78502148D01*
X58745728Y-78440596D01*
X58722726Y-78412568D01*
X58722723Y-78412565D01*
X58698145Y-78382617D01*
X58668198Y-78358040D01*
X58427000Y-78116842D01*
X58427000Y-77798061D01*
X60865000Y-77798061D01*
X60865000Y-78001939D01*
X60904774Y-78201898D01*
X60982795Y-78390256D01*
X61096063Y-78559774D01*
X61240226Y-78703937D01*
X61409744Y-78817205D01*
X61598102Y-78895226D01*
X61645372Y-78904628D01*
X61654774Y-78951898D01*
X61732795Y-79140256D01*
X61846063Y-79309774D01*
X61990226Y-79453937D01*
X62159744Y-79567205D01*
X62348102Y-79645226D01*
X62548061Y-79685000D01*
X62751939Y-79685000D01*
X62951898Y-79645226D01*
X63140256Y-79567205D01*
X63309774Y-79453937D01*
X63453937Y-79309774D01*
X63567205Y-79140256D01*
X63645226Y-78951898D01*
X63685000Y-78751939D01*
X63685000Y-78548061D01*
X63645226Y-78348102D01*
X63567205Y-78159744D01*
X63453937Y-77990226D01*
X63309774Y-77846063D01*
X63140256Y-77732795D01*
X62951898Y-77654774D01*
X62904628Y-77645372D01*
X62895226Y-77598102D01*
X62817205Y-77409744D01*
X62703937Y-77240226D01*
X62559774Y-77096063D01*
X62390256Y-76982795D01*
X62201898Y-76904774D01*
X62001939Y-76865000D01*
X61798061Y-76865000D01*
X61598102Y-76904774D01*
X61409744Y-76982795D01*
X61240226Y-77096063D01*
X61096063Y-77240226D01*
X60982795Y-77409744D01*
X60904774Y-77598102D01*
X60865000Y-77798061D01*
X58427000Y-77798061D01*
X58427000Y-77575000D01*
X58424560Y-77550224D01*
X58417333Y-77526399D01*
X58405597Y-77504443D01*
X58389803Y-77485197D01*
X58370557Y-77469403D01*
X58348601Y-77457667D01*
X58324776Y-77450440D01*
X58299130Y-77448003D01*
X57761840Y-77451683D01*
X57074344Y-76764187D01*
X57049761Y-76734233D01*
X56930230Y-76636135D01*
X56793857Y-76563243D01*
X56645884Y-76518356D01*
X56530558Y-76506997D01*
X56530550Y-76506997D01*
X56491997Y-76503200D01*
X56453444Y-76506997D01*
X54564995Y-76506997D01*
X54564995Y-76400926D01*
X54608581Y-76335695D01*
X54679063Y-76165535D01*
X54714995Y-75984895D01*
X54714995Y-75800717D01*
X54679063Y-75620077D01*
X54608581Y-75449917D01*
X54506257Y-75296778D01*
X54376023Y-75166544D01*
X54222884Y-75064220D01*
X54064921Y-74998790D01*
X54103937Y-74959774D01*
X54217205Y-74790256D01*
X54251313Y-74707912D01*
X55465874Y-74707912D01*
X55465874Y-74892090D01*
X55501806Y-75072730D01*
X55572288Y-75242890D01*
X55674612Y-75396029D01*
X55804846Y-75526263D01*
X55957985Y-75628587D01*
X56128145Y-75699069D01*
X56308785Y-75735001D01*
X56492963Y-75735001D01*
X56673603Y-75699069D01*
X56843763Y-75628587D01*
X56996902Y-75526263D01*
X57127136Y-75396029D01*
X57229460Y-75242890D01*
X57299942Y-75072730D01*
X57335874Y-74892090D01*
X57335874Y-74707912D01*
X57299942Y-74527272D01*
X57229460Y-74357112D01*
X57127136Y-74203973D01*
X56996902Y-74073739D01*
X56843763Y-73971415D01*
X56673603Y-73900933D01*
X56492963Y-73865001D01*
X56308785Y-73865001D01*
X56128145Y-73900933D01*
X55957985Y-73971415D01*
X55804846Y-74073739D01*
X55674612Y-74203973D01*
X55572288Y-74357112D01*
X55501806Y-74527272D01*
X55465874Y-74707912D01*
X54251313Y-74707912D01*
X54295226Y-74601898D01*
X54335000Y-74401939D01*
X54335000Y-74198061D01*
X54295226Y-73998102D01*
X54217205Y-73809744D01*
X54103937Y-73640226D01*
X53959774Y-73496063D01*
X53816005Y-73400000D01*
X53959774Y-73303937D01*
X54103937Y-73159774D01*
X54217205Y-72990256D01*
X54295226Y-72801898D01*
X54335000Y-72601939D01*
X54335000Y-72398061D01*
X54332415Y-72385061D01*
X55465000Y-72385061D01*
X55465000Y-72588939D01*
X55504774Y-72788898D01*
X55582795Y-72977256D01*
X55696063Y-73146774D01*
X55840226Y-73290937D01*
X56009744Y-73404205D01*
X56198102Y-73482226D01*
X56398061Y-73522000D01*
X56601939Y-73522000D01*
X56801898Y-73482226D01*
X56990256Y-73404205D01*
X57159774Y-73290937D01*
X57303937Y-73146774D01*
X57417205Y-72977256D01*
X57495226Y-72788898D01*
X57535000Y-72588939D01*
X57535000Y-72385061D01*
X57495226Y-72185102D01*
X57417205Y-71996744D01*
X57303937Y-71827226D01*
X57274772Y-71798061D01*
X59665000Y-71798061D01*
X59665000Y-72001939D01*
X59704774Y-72201898D01*
X59782795Y-72390256D01*
X59896063Y-72559774D01*
X60040226Y-72703937D01*
X60209744Y-72817205D01*
X60398102Y-72895226D01*
X60598061Y-72935000D01*
X60801939Y-72935000D01*
X61001898Y-72895226D01*
X61190256Y-72817205D01*
X61359774Y-72703937D01*
X61503937Y-72559774D01*
X61617205Y-72390256D01*
X61695226Y-72201898D01*
X61735000Y-72001939D01*
X61735000Y-71798061D01*
X61695226Y-71598102D01*
X61617205Y-71409744D01*
X61503937Y-71240226D01*
X61359774Y-71096063D01*
X61190256Y-70982795D01*
X61001898Y-70904774D01*
X60801939Y-70865000D01*
X60598061Y-70865000D01*
X60398102Y-70904774D01*
X60209744Y-70982795D01*
X60040226Y-71096063D01*
X59896063Y-71240226D01*
X59782795Y-71409744D01*
X59704774Y-71598102D01*
X59665000Y-71798061D01*
X57274772Y-71798061D01*
X57159774Y-71683063D01*
X56990256Y-71569795D01*
X56801898Y-71491774D01*
X56601939Y-71452000D01*
X56398061Y-71452000D01*
X56198102Y-71491774D01*
X56009744Y-71569795D01*
X55840226Y-71683063D01*
X55696063Y-71827226D01*
X55582795Y-71996744D01*
X55504774Y-72185102D01*
X55465000Y-72385061D01*
X54332415Y-72385061D01*
X54295226Y-72198102D01*
X54217205Y-72009744D01*
X54103937Y-71840226D01*
X53959774Y-71696063D01*
X53790256Y-71582795D01*
X53601898Y-71504774D01*
X53401939Y-71465000D01*
X53198061Y-71465000D01*
X52998102Y-71504774D01*
X52809744Y-71582795D01*
X52640226Y-71696063D01*
X52496063Y-71840226D01*
X52482626Y-71860336D01*
X52446028Y-71823738D01*
X52292889Y-71721414D01*
X52122729Y-71650932D01*
X51942089Y-71615000D01*
X51757911Y-71615000D01*
X51577271Y-71650932D01*
X51407111Y-71721414D01*
X51253972Y-71823738D01*
X51123738Y-71953972D01*
X51021414Y-72107111D01*
X50950932Y-72277271D01*
X50915000Y-72457911D01*
X50915000Y-72642089D01*
X50950932Y-72822729D01*
X51021414Y-72992889D01*
X51123738Y-73146028D01*
X51252833Y-73275123D01*
X51201939Y-73265000D01*
X50998061Y-73265000D01*
X50985000Y-73267598D01*
X50985000Y-73248061D01*
X50945226Y-73048102D01*
X50867205Y-72859744D01*
X50753937Y-72690226D01*
X50609774Y-72546063D01*
X50440256Y-72432795D01*
X50396421Y-72414638D01*
X50438656Y-72351429D01*
X50509138Y-72181269D01*
X50545070Y-72000629D01*
X50545070Y-71816451D01*
X50509138Y-71635811D01*
X50438656Y-71465651D01*
X50336332Y-71312512D01*
X50206098Y-71182278D01*
X50052959Y-71079954D01*
X49882799Y-71009472D01*
X49702159Y-70973540D01*
X49517981Y-70973540D01*
X49337341Y-71009472D01*
X49167181Y-71079954D01*
X49014042Y-71182278D01*
X48883808Y-71312512D01*
X48781484Y-71465651D01*
X48711002Y-71635811D01*
X48682131Y-71780951D01*
X48653302Y-71775217D01*
X48683544Y-71623182D01*
X48683544Y-71439004D01*
X48647612Y-71258364D01*
X48577130Y-71088204D01*
X48474806Y-70935065D01*
X48344572Y-70804831D01*
X48191433Y-70702507D01*
X48021273Y-70632025D01*
X47840633Y-70596093D01*
X47656455Y-70596093D01*
X47475815Y-70632025D01*
X47305655Y-70702507D01*
X47152516Y-70804831D01*
X47022282Y-70935065D01*
X46919958Y-71088204D01*
X46849476Y-71258364D01*
X46813544Y-71439004D01*
X46813544Y-71623182D01*
X46849476Y-71803822D01*
X46919958Y-71973982D01*
X46947365Y-72015000D01*
X39776550Y-72015000D01*
X39737997Y-72011203D01*
X39699444Y-72015000D01*
X39699437Y-72015000D01*
X39598488Y-72024943D01*
X39584110Y-72026359D01*
X39549670Y-72036806D01*
X39436138Y-72071246D01*
X39299765Y-72144138D01*
X39249851Y-72185102D01*
X39210185Y-72217655D01*
X39210182Y-72217658D01*
X39180234Y-72242236D01*
X39155656Y-72272184D01*
X37667841Y-73760000D01*
X28767048Y-73760000D01*
X28842889Y-73728586D01*
X28996028Y-73626262D01*
X29126262Y-73496028D01*
X29228586Y-73342889D01*
X29299068Y-73172729D01*
X29335000Y-72992089D01*
X29335000Y-72807911D01*
X29299068Y-72627271D01*
X29228586Y-72457111D01*
X29126262Y-72303972D01*
X28996028Y-72173738D01*
X28842889Y-72071414D01*
X28672729Y-72000932D01*
X28492089Y-71965000D01*
X28307911Y-71965000D01*
X28127271Y-72000932D01*
X27957111Y-72071414D01*
X27803972Y-72173738D01*
X27673738Y-72303972D01*
X27571414Y-72457111D01*
X27500932Y-72627271D01*
X27465000Y-72807911D01*
X27465000Y-72992089D01*
X27500932Y-73172729D01*
X27571414Y-73342889D01*
X27673738Y-73496028D01*
X27803972Y-73626262D01*
X27957111Y-73728586D01*
X28032952Y-73760000D01*
X27764801Y-73760000D01*
X26978888Y-72974088D01*
X26956735Y-72932642D01*
X26883219Y-72843062D01*
X26347786Y-72307630D01*
X26347782Y-72307625D01*
X26139509Y-72099352D01*
X26185874Y-71866261D01*
X26185874Y-71573741D01*
X26128806Y-71286843D01*
X26016864Y-71016590D01*
X25972371Y-70950000D01*
X31111928Y-70950000D01*
X31111928Y-72650000D01*
X31124188Y-72774482D01*
X31160498Y-72894180D01*
X31219463Y-73004494D01*
X31298815Y-73101185D01*
X31395506Y-73180537D01*
X31505820Y-73239502D01*
X31625518Y-73275812D01*
X31750000Y-73288072D01*
X33450000Y-73288072D01*
X33574482Y-73275812D01*
X33694180Y-73239502D01*
X33804494Y-73180537D01*
X33901185Y-73101185D01*
X33980537Y-73004494D01*
X34039502Y-72894180D01*
X34075812Y-72774482D01*
X34088072Y-72650000D01*
X34088072Y-70950000D01*
X34075812Y-70825518D01*
X34039502Y-70705820D01*
X33980537Y-70595506D01*
X33901185Y-70498815D01*
X33804494Y-70419463D01*
X33694180Y-70360498D01*
X33574482Y-70324188D01*
X33450000Y-70311928D01*
X31750000Y-70311928D01*
X31625518Y-70324188D01*
X31505820Y-70360498D01*
X31395506Y-70419463D01*
X31298815Y-70498815D01*
X31219463Y-70595506D01*
X31160498Y-70705820D01*
X31124188Y-70825518D01*
X31111928Y-70950000D01*
X25972371Y-70950000D01*
X25854349Y-70773369D01*
X25647506Y-70566526D01*
X25473114Y-70450001D01*
X25647506Y-70333476D01*
X25854349Y-70126633D01*
X26016864Y-69883412D01*
X26128806Y-69613159D01*
X26185874Y-69326261D01*
X26185874Y-69250000D01*
X35811928Y-69250000D01*
X35811928Y-70950000D01*
X35824188Y-71074482D01*
X35860498Y-71194180D01*
X35919463Y-71304494D01*
X35998815Y-71401185D01*
X36095506Y-71480537D01*
X36205820Y-71539502D01*
X36325518Y-71575812D01*
X36450000Y-71588072D01*
X38150000Y-71588072D01*
X38274482Y-71575812D01*
X38394180Y-71539502D01*
X38504494Y-71480537D01*
X38601185Y-71401185D01*
X38680537Y-71304494D01*
X38739502Y-71194180D01*
X38761513Y-71121620D01*
X38893368Y-71253475D01*
X39136589Y-71415990D01*
X39406842Y-71527932D01*
X39693740Y-71585000D01*
X39986260Y-71585000D01*
X40273158Y-71527932D01*
X40543411Y-71415990D01*
X40786632Y-71253475D01*
X40993475Y-71046632D01*
X41155990Y-70803411D01*
X41267932Y-70533158D01*
X41325000Y-70246260D01*
X41325000Y-69953740D01*
X41267932Y-69666842D01*
X41164745Y-69417726D01*
X41168230Y-69415863D01*
X41287761Y-69317765D01*
X41312344Y-69287811D01*
X41993651Y-68606504D01*
X42096063Y-68759774D01*
X42233935Y-68897646D01*
X42198102Y-68904774D01*
X42009744Y-68982795D01*
X41840226Y-69096063D01*
X41696063Y-69240226D01*
X41582795Y-69409744D01*
X41504774Y-69598102D01*
X41465000Y-69798061D01*
X41465000Y-70001939D01*
X41504774Y-70201898D01*
X41582795Y-70390256D01*
X41696063Y-70559774D01*
X41840226Y-70703937D01*
X42009744Y-70817205D01*
X42198102Y-70895226D01*
X42398061Y-70935000D01*
X42601939Y-70935000D01*
X42801898Y-70895226D01*
X42990256Y-70817205D01*
X43159774Y-70703937D01*
X43303937Y-70559774D01*
X43417205Y-70390256D01*
X43455393Y-70298061D01*
X44265000Y-70298061D01*
X44265000Y-70501939D01*
X44304774Y-70701898D01*
X44382795Y-70890256D01*
X44496063Y-71059774D01*
X44640226Y-71203937D01*
X44809744Y-71317205D01*
X44998102Y-71395226D01*
X45198061Y-71435000D01*
X45401939Y-71435000D01*
X45601898Y-71395226D01*
X45790256Y-71317205D01*
X45959774Y-71203937D01*
X46103937Y-71059774D01*
X46217205Y-70890256D01*
X46295226Y-70701898D01*
X46335000Y-70501939D01*
X46335000Y-70298061D01*
X46295226Y-70098102D01*
X46217205Y-69909744D01*
X46103937Y-69740226D01*
X45959774Y-69596063D01*
X45790256Y-69482795D01*
X45601898Y-69404774D01*
X45401939Y-69365000D01*
X45198061Y-69365000D01*
X44998102Y-69404774D01*
X44809744Y-69482795D01*
X44640226Y-69596063D01*
X44496063Y-69740226D01*
X44382795Y-69909744D01*
X44304774Y-70098102D01*
X44265000Y-70298061D01*
X43455393Y-70298061D01*
X43495226Y-70201898D01*
X43535000Y-70001939D01*
X43535000Y-69798061D01*
X43495226Y-69598102D01*
X43417205Y-69409744D01*
X43303937Y-69240226D01*
X43166065Y-69102354D01*
X43201898Y-69095226D01*
X43390256Y-69017205D01*
X43559774Y-68903937D01*
X43703937Y-68759774D01*
X43817205Y-68590256D01*
X43895226Y-68401898D01*
X43935000Y-68201939D01*
X43935000Y-67998061D01*
X43907538Y-67860001D01*
X44276444Y-67860001D01*
X44314997Y-67863798D01*
X44353550Y-67860001D01*
X44353558Y-67860001D01*
X44468884Y-67848642D01*
X44485298Y-67843663D01*
X44496063Y-67859774D01*
X44640226Y-68003937D01*
X44809744Y-68117205D01*
X44998102Y-68195226D01*
X45198061Y-68235000D01*
X45401939Y-68235000D01*
X45601898Y-68195226D01*
X45790256Y-68117205D01*
X45959774Y-68003937D01*
X46103937Y-67859774D01*
X46217205Y-67690256D01*
X46295226Y-67501898D01*
X46335000Y-67301939D01*
X46335000Y-67098061D01*
X46295226Y-66898102D01*
X46217205Y-66709744D01*
X46103937Y-66540226D01*
X46031933Y-66468222D01*
X46115156Y-66385000D01*
X47105154Y-66385000D01*
X47105154Y-66400749D01*
X47141086Y-66581389D01*
X47211568Y-66751549D01*
X47313892Y-66904688D01*
X47444126Y-67034922D01*
X47597265Y-67137246D01*
X47767425Y-67207728D01*
X47928718Y-67239812D01*
X47971414Y-67342889D01*
X48073738Y-67496028D01*
X48203972Y-67626262D01*
X48299162Y-67689866D01*
X48140226Y-67796063D01*
X47996063Y-67940226D01*
X47882795Y-68109744D01*
X47804774Y-68298102D01*
X47765000Y-68498061D01*
X47765000Y-68701939D01*
X47804774Y-68901898D01*
X47882795Y-69090256D01*
X47996063Y-69259774D01*
X48140226Y-69403937D01*
X48309744Y-69517205D01*
X48498102Y-69595226D01*
X48698061Y-69635000D01*
X48901939Y-69635000D01*
X49101898Y-69595226D01*
X49290256Y-69517205D01*
X49459774Y-69403937D01*
X49603937Y-69259774D01*
X49717205Y-69090256D01*
X49795226Y-68901898D01*
X49835000Y-68701939D01*
X49835000Y-68681512D01*
X49990256Y-68617202D01*
X50159774Y-68503934D01*
X50303937Y-68359771D01*
X50417205Y-68190253D01*
X50495226Y-68001895D01*
X50535000Y-67801936D01*
X50535000Y-67598058D01*
X50495226Y-67398099D01*
X50495211Y-67398061D01*
X54865000Y-67398061D01*
X54865000Y-67601939D01*
X54904774Y-67801898D01*
X54982795Y-67990256D01*
X55096063Y-68159774D01*
X55240226Y-68303937D01*
X55409744Y-68417205D01*
X55598102Y-68495226D01*
X55798061Y-68535000D01*
X56001939Y-68535000D01*
X56201898Y-68495226D01*
X56390256Y-68417205D01*
X56500000Y-68343877D01*
X56609744Y-68417205D01*
X56798102Y-68495226D01*
X56998061Y-68535000D01*
X57201939Y-68535000D01*
X57401898Y-68495226D01*
X57590256Y-68417205D01*
X57759774Y-68303937D01*
X57903937Y-68159774D01*
X58017205Y-67990256D01*
X58095226Y-67801898D01*
X58135000Y-67601939D01*
X58135000Y-67398061D01*
X58095226Y-67198102D01*
X58083375Y-67169491D01*
X58374463Y-67048918D01*
X58642252Y-66869987D01*
X58869987Y-66642252D01*
X59048918Y-66374463D01*
X59172168Y-66076912D01*
X59233038Y-65770896D01*
X60513330Y-65770896D01*
X60513330Y-66024018D01*
X60562711Y-66272278D01*
X60659577Y-66506133D01*
X60800205Y-66716597D01*
X60979190Y-66895582D01*
X61189654Y-67036210D01*
X61423509Y-67133076D01*
X61671769Y-67182457D01*
X61924891Y-67182457D01*
X62173151Y-67133076D01*
X62407006Y-67036210D01*
X62617470Y-66895582D01*
X62796455Y-66716597D01*
X62937083Y-66506133D01*
X62954332Y-66464491D01*
X63126053Y-66535620D01*
X63374313Y-66585001D01*
X63627435Y-66585001D01*
X63875695Y-66535620D01*
X64109550Y-66438754D01*
X64320014Y-66298126D01*
X64498999Y-66119141D01*
X64639627Y-65908677D01*
X64736493Y-65674822D01*
X64785874Y-65426562D01*
X64785874Y-65173440D01*
X64736493Y-64925180D01*
X64639627Y-64691325D01*
X64498999Y-64480861D01*
X64418139Y-64400001D01*
X64498999Y-64319141D01*
X64639627Y-64108677D01*
X64736493Y-63874822D01*
X64785874Y-63626562D01*
X64785874Y-63373440D01*
X64736493Y-63125180D01*
X64639627Y-62891325D01*
X64498999Y-62680861D01*
X64320014Y-62501876D01*
X64167548Y-62400001D01*
X64320014Y-62298126D01*
X64498999Y-62119141D01*
X64639627Y-61908677D01*
X64736493Y-61674822D01*
X64785874Y-61426562D01*
X64785874Y-61173440D01*
X64736493Y-60925180D01*
X64639627Y-60691325D01*
X64498999Y-60480861D01*
X64368139Y-60350001D01*
X64498999Y-60219141D01*
X64639627Y-60008677D01*
X64736493Y-59774822D01*
X64785874Y-59526562D01*
X64785874Y-59273440D01*
X64736493Y-59025180D01*
X64639627Y-58791325D01*
X64498999Y-58580861D01*
X64320014Y-58401876D01*
X64109550Y-58261248D01*
X63875695Y-58164382D01*
X63627435Y-58115001D01*
X63374313Y-58115001D01*
X63126053Y-58164382D01*
X62892198Y-58261248D01*
X62681734Y-58401876D01*
X62502749Y-58580861D01*
X62379164Y-58765819D01*
X62375695Y-58764382D01*
X62127435Y-58715001D01*
X61874313Y-58715001D01*
X61626053Y-58764382D01*
X61392198Y-58861248D01*
X61181734Y-59001876D01*
X61002749Y-59180861D01*
X60862121Y-59391325D01*
X60765255Y-59625180D01*
X60715874Y-59873440D01*
X60715874Y-60126562D01*
X60765255Y-60374822D01*
X60862121Y-60608677D01*
X61002749Y-60819141D01*
X61181734Y-60998126D01*
X61371613Y-61125000D01*
X61181734Y-61251873D01*
X61002749Y-61430858D01*
X60862121Y-61641322D01*
X60765255Y-61875177D01*
X60715874Y-62123437D01*
X60715874Y-62376559D01*
X60765255Y-62624819D01*
X60862121Y-62858674D01*
X61002749Y-63069138D01*
X61163955Y-63230344D01*
X61131732Y-63251874D01*
X60952747Y-63430859D01*
X60812119Y-63641323D01*
X60715253Y-63875178D01*
X60665872Y-64123438D01*
X60665872Y-64376560D01*
X60715253Y-64624820D01*
X60812119Y-64858675D01*
X60895323Y-64983199D01*
X60800205Y-65078317D01*
X60659577Y-65288781D01*
X60562711Y-65522636D01*
X60513330Y-65770896D01*
X59233038Y-65770896D01*
X59235000Y-65761033D01*
X59235000Y-65438967D01*
X59172168Y-65123088D01*
X59048918Y-64825537D01*
X58869987Y-64557748D01*
X58642252Y-64330013D01*
X58374463Y-64151082D01*
X58076912Y-64027832D01*
X57761033Y-63965000D01*
X57438967Y-63965000D01*
X57123088Y-64027832D01*
X56825537Y-64151082D01*
X56557748Y-64330013D01*
X56330013Y-64557748D01*
X56151082Y-64825537D01*
X56027832Y-65123088D01*
X55965000Y-65438967D01*
X55965000Y-65761033D01*
X56027832Y-66076912D01*
X56151082Y-66374463D01*
X56252027Y-66525538D01*
X56201898Y-66504774D01*
X56001939Y-66465000D01*
X55798061Y-66465000D01*
X55598102Y-66504774D01*
X55409744Y-66582795D01*
X55240226Y-66696063D01*
X55096063Y-66840226D01*
X54982795Y-67009744D01*
X54904774Y-67198102D01*
X54865000Y-67398061D01*
X50495211Y-67398061D01*
X50417205Y-67209741D01*
X50303937Y-67040223D01*
X50159774Y-66896060D01*
X49990256Y-66782792D01*
X49801898Y-66704771D01*
X49710883Y-66686667D01*
X49699068Y-66627271D01*
X49628586Y-66457111D01*
X49580403Y-66385000D01*
X51658123Y-66385000D01*
X51830013Y-66642252D01*
X52057748Y-66869987D01*
X52325537Y-67048918D01*
X52623088Y-67172168D01*
X52938967Y-67235000D01*
X53261033Y-67235000D01*
X53576912Y-67172168D01*
X53874463Y-67048918D01*
X54142252Y-66869987D01*
X54369987Y-66642252D01*
X54548918Y-66374463D01*
X54672168Y-66076912D01*
X54735000Y-65761033D01*
X54735000Y-65438967D01*
X54672168Y-65123088D01*
X54548918Y-64825537D01*
X54369987Y-64557748D01*
X54142252Y-64330013D01*
X53874463Y-64151082D01*
X53576912Y-64027832D01*
X53261033Y-63965000D01*
X52938967Y-63965000D01*
X52623088Y-64027832D01*
X52325537Y-64151082D01*
X52057748Y-64330013D01*
X51830013Y-64557748D01*
X51658123Y-64815000D01*
X45828550Y-64815000D01*
X45789997Y-64811203D01*
X45751444Y-64815000D01*
X45751437Y-64815000D01*
X45650488Y-64824943D01*
X45636110Y-64826359D01*
X45601670Y-64836806D01*
X45488138Y-64871246D01*
X45351765Y-64944138D01*
X45291557Y-64993550D01*
X45262185Y-65017655D01*
X45262182Y-65017658D01*
X45232234Y-65042236D01*
X45207656Y-65072184D01*
X43989840Y-66290001D01*
X43835000Y-66290001D01*
X43835000Y-66223061D01*
X43795226Y-66023102D01*
X43717205Y-65834744D01*
X43603937Y-65665226D01*
X43459774Y-65521063D01*
X43290256Y-65407795D01*
X43101898Y-65329774D01*
X42901939Y-65290000D01*
X42698061Y-65290000D01*
X42498102Y-65329774D01*
X42309744Y-65407795D01*
X42140226Y-65521063D01*
X41996063Y-65665226D01*
X41882795Y-65834744D01*
X41804774Y-66023102D01*
X41765000Y-66223061D01*
X41765000Y-66426939D01*
X41796175Y-66583666D01*
X41263558Y-67116283D01*
X41155990Y-66856589D01*
X40993475Y-66613368D01*
X40786632Y-66406525D01*
X40612240Y-66290000D01*
X40786632Y-66173475D01*
X40993475Y-65966632D01*
X41155990Y-65723411D01*
X41267932Y-65453158D01*
X41325000Y-65166260D01*
X41325000Y-64873740D01*
X41267932Y-64586842D01*
X41155990Y-64316589D01*
X40993475Y-64073368D01*
X40786632Y-63866525D01*
X40684169Y-63798061D01*
X41190000Y-63798061D01*
X41190000Y-64001939D01*
X41229774Y-64201898D01*
X41307795Y-64390256D01*
X41421063Y-64559774D01*
X41565226Y-64703937D01*
X41734744Y-64817205D01*
X41923102Y-64895226D01*
X42123061Y-64935000D01*
X42326939Y-64935000D01*
X42526898Y-64895226D01*
X42715256Y-64817205D01*
X42884774Y-64703937D01*
X43028937Y-64559774D01*
X43142205Y-64390256D01*
X43220226Y-64201898D01*
X43260000Y-64001939D01*
X43260000Y-63798061D01*
X43220226Y-63598102D01*
X43142205Y-63409744D01*
X43028937Y-63240226D01*
X42884774Y-63096063D01*
X42715256Y-62982795D01*
X42526898Y-62904774D01*
X42326939Y-62865000D01*
X42123061Y-62865000D01*
X41923102Y-62904774D01*
X41734744Y-62982795D01*
X41565226Y-63096063D01*
X41421063Y-63240226D01*
X41307795Y-63409744D01*
X41229774Y-63598102D01*
X41190000Y-63798061D01*
X40684169Y-63798061D01*
X40612240Y-63750000D01*
X40786632Y-63633475D01*
X40993475Y-63426632D01*
X41155990Y-63183411D01*
X41267932Y-62913158D01*
X41325000Y-62626260D01*
X41325000Y-62333740D01*
X41267932Y-62046842D01*
X41155990Y-61776589D01*
X40993475Y-61533368D01*
X40786632Y-61326525D01*
X40612240Y-61210000D01*
X40786632Y-61093475D01*
X40993475Y-60886632D01*
X41155990Y-60643411D01*
X41267932Y-60373158D01*
X41325000Y-60086260D01*
X41325000Y-59793740D01*
X41267932Y-59506842D01*
X41155990Y-59236589D01*
X40993475Y-58993368D01*
X40786632Y-58786525D01*
X40543411Y-58624010D01*
X40273158Y-58512068D01*
X39986260Y-58455000D01*
X39693740Y-58455000D01*
X39406842Y-58512068D01*
X39136589Y-58624010D01*
X38893368Y-58786525D01*
X38686525Y-58993368D01*
X38570000Y-59167760D01*
X38453475Y-58993368D01*
X38246632Y-58786525D01*
X38003411Y-58624010D01*
X37733158Y-58512068D01*
X37446260Y-58455000D01*
X37153740Y-58455000D01*
X36866842Y-58512068D01*
X36596589Y-58624010D01*
X36353368Y-58786525D01*
X36146525Y-58993368D01*
X35984010Y-59236589D01*
X35872068Y-59506842D01*
X35815000Y-59793740D01*
X35815000Y-60086260D01*
X35872068Y-60373158D01*
X35984010Y-60643411D01*
X36146525Y-60886632D01*
X36353368Y-61093475D01*
X36527760Y-61210000D01*
X36353368Y-61326525D01*
X36146525Y-61533368D01*
X35984010Y-61776589D01*
X35872068Y-62046842D01*
X35815000Y-62333740D01*
X35815000Y-62626260D01*
X35872068Y-62913158D01*
X35984010Y-63183411D01*
X36146525Y-63426632D01*
X36353368Y-63633475D01*
X36527760Y-63750000D01*
X36353368Y-63866525D01*
X36146525Y-64073368D01*
X35984010Y-64316589D01*
X35872068Y-64586842D01*
X35815000Y-64873740D01*
X35815000Y-65166260D01*
X35872068Y-65453158D01*
X35984010Y-65723411D01*
X36146525Y-65966632D01*
X36353368Y-66173475D01*
X36527760Y-66290000D01*
X36353368Y-66406525D01*
X36146525Y-66613368D01*
X35984010Y-66856589D01*
X35872068Y-67126842D01*
X35815000Y-67413740D01*
X35815000Y-67706260D01*
X35872068Y-67993158D01*
X35984010Y-68263411D01*
X36146525Y-68506632D01*
X36278380Y-68638487D01*
X36205820Y-68660498D01*
X36095506Y-68719463D01*
X35998815Y-68798815D01*
X35919463Y-68895506D01*
X35860498Y-69005820D01*
X35824188Y-69125518D01*
X35811928Y-69250000D01*
X26185874Y-69250000D01*
X26185874Y-69033741D01*
X26128806Y-68746843D01*
X26016864Y-68476590D01*
X25854349Y-68233369D01*
X25647506Y-68026526D01*
X25404285Y-67864011D01*
X25134032Y-67752069D01*
X24847134Y-67695001D01*
X24554614Y-67695001D01*
X24267716Y-67752069D01*
X23997463Y-67864011D01*
X23754242Y-68026526D01*
X23560632Y-68220136D01*
X23560660Y-66573740D01*
X31115000Y-66573740D01*
X31115000Y-66866260D01*
X31172068Y-67153158D01*
X31284010Y-67423411D01*
X31446525Y-67666632D01*
X31653368Y-67873475D01*
X31896589Y-68035990D01*
X32166842Y-68147932D01*
X32453740Y-68205000D01*
X32746260Y-68205000D01*
X33033158Y-68147932D01*
X33303411Y-68035990D01*
X33546632Y-67873475D01*
X33753475Y-67666632D01*
X33915990Y-67423411D01*
X34027932Y-67153158D01*
X34085000Y-66866260D01*
X34085000Y-66573740D01*
X34027932Y-66286842D01*
X33915990Y-66016589D01*
X33753475Y-65773368D01*
X33546632Y-65566525D01*
X33303411Y-65404010D01*
X33033158Y-65292068D01*
X32746260Y-65235000D01*
X32453740Y-65235000D01*
X32166842Y-65292068D01*
X31896589Y-65404010D01*
X31653368Y-65566525D01*
X31446525Y-65773368D01*
X31284010Y-66016589D01*
X31172068Y-66286842D01*
X31115000Y-66573740D01*
X23560660Y-66573740D01*
X23560679Y-65514907D01*
X23606694Y-65539503D01*
X23726392Y-65575813D01*
X23850874Y-65588073D01*
X25550874Y-65588073D01*
X25675356Y-65575813D01*
X25795054Y-65539503D01*
X25905368Y-65480538D01*
X26002059Y-65401186D01*
X26081411Y-65304495D01*
X26138302Y-65198061D01*
X28465000Y-65198061D01*
X28465000Y-65401939D01*
X28504774Y-65601898D01*
X28582795Y-65790256D01*
X28696063Y-65959774D01*
X28840226Y-66103937D01*
X29009744Y-66217205D01*
X29198102Y-66295226D01*
X29398061Y-66335000D01*
X29601939Y-66335000D01*
X29801898Y-66295226D01*
X29990256Y-66217205D01*
X30159774Y-66103937D01*
X30303937Y-65959774D01*
X30417205Y-65790256D01*
X30495226Y-65601898D01*
X30535000Y-65401939D01*
X30535000Y-65198061D01*
X30495226Y-64998102D01*
X30417205Y-64809744D01*
X30303937Y-64640226D01*
X30159774Y-64496063D01*
X29990256Y-64382795D01*
X29801898Y-64304774D01*
X29601939Y-64265000D01*
X29398061Y-64265000D01*
X29198102Y-64304774D01*
X29009744Y-64382795D01*
X28840226Y-64496063D01*
X28696063Y-64640226D01*
X28582795Y-64809744D01*
X28504774Y-64998102D01*
X28465000Y-65198061D01*
X26138302Y-65198061D01*
X26140376Y-65194181D01*
X26176686Y-65074483D01*
X26188946Y-64950001D01*
X26188946Y-63250001D01*
X26176686Y-63125519D01*
X26140376Y-63005821D01*
X26081411Y-62895507D01*
X26002059Y-62798816D01*
X25905368Y-62719464D01*
X25795054Y-62660499D01*
X25675356Y-62624189D01*
X25550874Y-62611929D01*
X23850874Y-62611929D01*
X23726392Y-62624189D01*
X23606694Y-62660499D01*
X23560727Y-62685069D01*
X23560814Y-57607911D01*
X44665000Y-57607911D01*
X44665000Y-57792089D01*
X44700932Y-57972729D01*
X44771414Y-58142889D01*
X44873738Y-58296028D01*
X45003972Y-58426262D01*
X45157111Y-58528586D01*
X45327271Y-58599068D01*
X45507911Y-58635000D01*
X45692089Y-58635000D01*
X45872729Y-58599068D01*
X46042889Y-58528586D01*
X46169644Y-58443891D01*
X46135000Y-58618061D01*
X46135000Y-58821939D01*
X46174774Y-59021898D01*
X46252795Y-59210256D01*
X46366063Y-59379774D01*
X46510226Y-59523937D01*
X46679744Y-59637205D01*
X46868102Y-59715226D01*
X47068061Y-59755000D01*
X47271939Y-59755000D01*
X47471898Y-59715226D01*
X47660256Y-59637205D01*
X47829774Y-59523937D01*
X47973937Y-59379774D01*
X48087205Y-59210256D01*
X48165226Y-59021898D01*
X48181721Y-58938967D01*
X51465000Y-58938967D01*
X51465000Y-59261033D01*
X51527832Y-59576912D01*
X51651082Y-59874463D01*
X51830013Y-60142252D01*
X52057748Y-60369987D01*
X52325537Y-60548918D01*
X52623088Y-60672168D01*
X52938967Y-60735000D01*
X53261033Y-60735000D01*
X53576912Y-60672168D01*
X53874463Y-60548918D01*
X54142252Y-60369987D01*
X54369987Y-60142252D01*
X54548918Y-59874463D01*
X54672168Y-59576912D01*
X54735000Y-59261033D01*
X54735000Y-58938967D01*
X55965000Y-58938967D01*
X55965000Y-59261033D01*
X56027832Y-59576912D01*
X56151082Y-59874463D01*
X56330013Y-60142252D01*
X56557748Y-60369987D01*
X56825537Y-60548918D01*
X57123088Y-60672168D01*
X57438967Y-60735000D01*
X57761033Y-60735000D01*
X58076912Y-60672168D01*
X58374463Y-60548918D01*
X58642252Y-60369987D01*
X58869987Y-60142252D01*
X59048918Y-59874463D01*
X59172168Y-59576912D01*
X59235000Y-59261033D01*
X59235000Y-58938967D01*
X59172168Y-58623088D01*
X59048918Y-58325537D01*
X58869987Y-58057748D01*
X58642252Y-57830013D01*
X58374463Y-57651082D01*
X58076912Y-57527832D01*
X57761033Y-57465000D01*
X57438967Y-57465000D01*
X57123088Y-57527832D01*
X56825537Y-57651082D01*
X56557748Y-57830013D01*
X56330013Y-58057748D01*
X56151082Y-58325537D01*
X56027832Y-58623088D01*
X55965000Y-58938967D01*
X54735000Y-58938967D01*
X54672168Y-58623088D01*
X54548918Y-58325537D01*
X54369987Y-58057748D01*
X54142252Y-57830013D01*
X53874463Y-57651082D01*
X53576912Y-57527832D01*
X53261033Y-57465000D01*
X52938967Y-57465000D01*
X52623088Y-57527832D01*
X52325537Y-57651082D01*
X52057748Y-57830013D01*
X51830013Y-58057748D01*
X51651082Y-58325537D01*
X51527832Y-58623088D01*
X51465000Y-58938967D01*
X48181721Y-58938967D01*
X48205000Y-58821939D01*
X48205000Y-58618061D01*
X48165226Y-58418102D01*
X48087205Y-58229744D01*
X47973937Y-58060226D01*
X47829774Y-57916063D01*
X47660256Y-57802795D01*
X47471898Y-57724774D01*
X47271939Y-57685000D01*
X47068061Y-57685000D01*
X46868102Y-57724774D01*
X46679744Y-57802795D01*
X46510357Y-57915975D01*
X46535000Y-57792089D01*
X46535000Y-57607911D01*
X46515109Y-57507911D01*
X49365000Y-57507911D01*
X49365000Y-57692089D01*
X49400932Y-57872729D01*
X49471414Y-58042889D01*
X49573738Y-58196028D01*
X49703972Y-58326262D01*
X49857111Y-58428586D01*
X50027271Y-58499068D01*
X50207911Y-58535000D01*
X50392089Y-58535000D01*
X50572729Y-58499068D01*
X50742889Y-58428586D01*
X50896028Y-58326262D01*
X51026262Y-58196028D01*
X51128586Y-58042889D01*
X51199068Y-57872729D01*
X51235000Y-57692089D01*
X51235000Y-57507911D01*
X51199068Y-57327271D01*
X51128586Y-57157111D01*
X51026262Y-57003972D01*
X50896028Y-56873738D01*
X50742889Y-56771414D01*
X50572729Y-56700932D01*
X50392089Y-56665000D01*
X50207911Y-56665000D01*
X50027271Y-56700932D01*
X49857111Y-56771414D01*
X49703972Y-56873738D01*
X49573738Y-57003972D01*
X49471414Y-57157111D01*
X49400932Y-57327271D01*
X49365000Y-57507911D01*
X46515109Y-57507911D01*
X46499068Y-57427271D01*
X46428586Y-57257111D01*
X46326262Y-57103972D01*
X46196028Y-56973738D01*
X46042889Y-56871414D01*
X45872729Y-56800932D01*
X45692089Y-56765000D01*
X45507911Y-56765000D01*
X45327271Y-56800932D01*
X45157111Y-56871414D01*
X45003972Y-56973738D01*
X44873738Y-57103972D01*
X44771414Y-57257111D01*
X44700932Y-57427271D01*
X44665000Y-57607911D01*
X23560814Y-57607911D01*
X23560907Y-52207911D01*
X46765000Y-52207911D01*
X46765000Y-52392089D01*
X46800932Y-52572729D01*
X46871414Y-52742889D01*
X46973738Y-52896028D01*
X47103972Y-53026262D01*
X47257111Y-53128586D01*
X47427271Y-53199068D01*
X47607911Y-53235000D01*
X47792089Y-53235000D01*
X47972729Y-53199068D01*
X48142889Y-53128586D01*
X48296028Y-53026262D01*
X48426262Y-52896028D01*
X48528586Y-52742889D01*
X48599068Y-52572729D01*
X48635000Y-52392089D01*
X48635000Y-52207911D01*
X48599068Y-52027271D01*
X48528586Y-51857111D01*
X48426262Y-51703972D01*
X48296028Y-51573738D01*
X48142889Y-51471414D01*
X47972729Y-51400932D01*
X47792089Y-51365000D01*
X47607911Y-51365000D01*
X47427271Y-51400932D01*
X47257111Y-51471414D01*
X47103972Y-51573738D01*
X46973738Y-51703972D01*
X46871414Y-51857111D01*
X46800932Y-52027271D01*
X46765000Y-52207911D01*
X23560907Y-52207911D01*
X23560928Y-50970000D01*
X72791928Y-50970000D01*
X72791928Y-52610000D01*
X72804188Y-52734482D01*
X72840498Y-52854180D01*
X72899463Y-52964494D01*
X72978815Y-53061185D01*
X73075506Y-53140537D01*
X73185820Y-53199502D01*
X73290932Y-53231388D01*
X73119828Y-53402492D01*
X72960596Y-53640799D01*
X72850915Y-53905592D01*
X72795000Y-54186695D01*
X72795000Y-54473305D01*
X72850915Y-54754408D01*
X72960596Y-55019201D01*
X73119828Y-55257508D01*
X73322492Y-55460172D01*
X73531759Y-55600000D01*
X73322492Y-55739828D01*
X73119828Y-55942492D01*
X72960596Y-56180799D01*
X72850915Y-56445592D01*
X72795000Y-56726695D01*
X72795000Y-57013305D01*
X72850915Y-57294408D01*
X72960596Y-57559201D01*
X73119828Y-57797508D01*
X73322492Y-58000172D01*
X73531759Y-58140000D01*
X73322492Y-58279828D01*
X73119828Y-58482492D01*
X72960596Y-58720799D01*
X72850915Y-58985592D01*
X72795000Y-59266695D01*
X72795000Y-59553305D01*
X72850915Y-59834408D01*
X72960596Y-60099201D01*
X73119828Y-60337508D01*
X73322492Y-60540172D01*
X73531759Y-60680000D01*
X73322492Y-60819828D01*
X73119828Y-61022492D01*
X72960596Y-61260799D01*
X72850915Y-61525592D01*
X72795000Y-61806695D01*
X72795000Y-62093305D01*
X72850915Y-62374408D01*
X72960596Y-62639201D01*
X73119828Y-62877508D01*
X73322492Y-63080172D01*
X73531759Y-63220000D01*
X73322492Y-63359828D01*
X73119828Y-63562492D01*
X72960596Y-63800799D01*
X72850915Y-64065592D01*
X72795000Y-64346695D01*
X72795000Y-64633305D01*
X72850915Y-64914408D01*
X72960596Y-65179201D01*
X73119828Y-65417508D01*
X73322492Y-65620172D01*
X73531759Y-65760000D01*
X73322492Y-65899828D01*
X73119828Y-66102492D01*
X72960596Y-66340799D01*
X72850915Y-66605592D01*
X72795000Y-66886695D01*
X72795000Y-67173305D01*
X72850915Y-67454408D01*
X72960596Y-67719201D01*
X73119828Y-67957508D01*
X73322492Y-68160172D01*
X73531759Y-68300000D01*
X73322492Y-68439828D01*
X73119828Y-68642492D01*
X72960596Y-68880799D01*
X72850915Y-69145592D01*
X72795000Y-69426695D01*
X72795000Y-69713305D01*
X72850915Y-69994408D01*
X72960596Y-70259201D01*
X73119828Y-70497508D01*
X73322492Y-70700172D01*
X73531759Y-70840000D01*
X73322492Y-70979828D01*
X73119828Y-71182492D01*
X72960596Y-71420799D01*
X72850915Y-71685592D01*
X72795000Y-71966695D01*
X72795000Y-72253305D01*
X72850915Y-72534408D01*
X72960596Y-72799201D01*
X73119828Y-73037508D01*
X73322492Y-73240172D01*
X73531759Y-73380000D01*
X73322492Y-73519828D01*
X73119828Y-73722492D01*
X72960596Y-73960799D01*
X72850915Y-74225592D01*
X72795000Y-74506695D01*
X72795000Y-74793305D01*
X72850915Y-75074408D01*
X72960596Y-75339201D01*
X73119828Y-75577508D01*
X73322492Y-75780172D01*
X73531759Y-75920000D01*
X73322492Y-76059828D01*
X73119828Y-76262492D01*
X72960596Y-76500799D01*
X72850915Y-76765592D01*
X72795000Y-77046695D01*
X72795000Y-77333305D01*
X72850915Y-77614408D01*
X72960596Y-77879201D01*
X73119828Y-78117508D01*
X73322492Y-78320172D01*
X73531759Y-78460000D01*
X73322492Y-78599828D01*
X73119828Y-78802492D01*
X72960596Y-79040799D01*
X72850915Y-79305592D01*
X72795000Y-79586695D01*
X72795000Y-79873305D01*
X72850915Y-80154408D01*
X72960596Y-80419201D01*
X73119828Y-80657508D01*
X73322492Y-80860172D01*
X73531759Y-81000000D01*
X73322492Y-81139828D01*
X73119828Y-81342492D01*
X72960596Y-81580799D01*
X72850915Y-81845592D01*
X72795000Y-82126695D01*
X72795000Y-82413305D01*
X72850915Y-82694408D01*
X72960596Y-82959201D01*
X73119828Y-83197508D01*
X73322492Y-83400172D01*
X73531759Y-83540000D01*
X73322492Y-83679828D01*
X73119828Y-83882492D01*
X72960596Y-84120799D01*
X72850915Y-84385592D01*
X72795000Y-84666695D01*
X72795000Y-84953305D01*
X72850915Y-85234408D01*
X72960596Y-85499201D01*
X73119828Y-85737508D01*
X73322492Y-85940172D01*
X73531759Y-86080000D01*
X73322492Y-86219828D01*
X73119828Y-86422492D01*
X72960596Y-86660799D01*
X72850915Y-86925592D01*
X72795000Y-87206695D01*
X72795000Y-87493305D01*
X72850915Y-87774408D01*
X72960596Y-88039201D01*
X73119828Y-88277508D01*
X73322492Y-88480172D01*
X73531759Y-88620000D01*
X73322492Y-88759828D01*
X73119828Y-88962492D01*
X72960596Y-89200799D01*
X72850915Y-89465592D01*
X72795000Y-89746695D01*
X72795000Y-90033305D01*
X72850915Y-90314408D01*
X72960596Y-90579201D01*
X73119828Y-90817508D01*
X73322492Y-91020172D01*
X73531759Y-91160000D01*
X73322492Y-91299828D01*
X73119828Y-91502492D01*
X72960596Y-91740799D01*
X72850915Y-92005592D01*
X72795000Y-92286695D01*
X72795000Y-92573305D01*
X72850915Y-92854408D01*
X72960596Y-93119201D01*
X73119828Y-93357508D01*
X73322492Y-93560172D01*
X73531759Y-93700000D01*
X73322492Y-93839828D01*
X73119828Y-94042492D01*
X72960596Y-94280799D01*
X72850915Y-94545592D01*
X72795000Y-94826695D01*
X72795000Y-95113305D01*
X72850915Y-95394408D01*
X72960596Y-95659201D01*
X73119828Y-95897508D01*
X73322492Y-96100172D01*
X73531759Y-96240000D01*
X73322492Y-96379828D01*
X73119828Y-96582492D01*
X72960596Y-96820799D01*
X72850915Y-97085592D01*
X72795000Y-97366695D01*
X72795000Y-97653305D01*
X72850915Y-97934408D01*
X72960596Y-98199201D01*
X73119828Y-98437508D01*
X73322492Y-98640172D01*
X73531759Y-98780000D01*
X73322492Y-98919828D01*
X73119828Y-99122492D01*
X72960596Y-99360799D01*
X72850915Y-99625592D01*
X72795000Y-99906695D01*
X72795000Y-100193305D01*
X72850915Y-100474408D01*
X72960596Y-100739201D01*
X73119828Y-100977508D01*
X73322492Y-101180172D01*
X73560799Y-101339404D01*
X73825592Y-101449085D01*
X74106695Y-101505000D01*
X74393305Y-101505000D01*
X74674408Y-101449085D01*
X74939201Y-101339404D01*
X75177508Y-101180172D01*
X75380172Y-100977508D01*
X75520000Y-100768241D01*
X75659828Y-100977508D01*
X75862492Y-101180172D01*
X76100799Y-101339404D01*
X76365592Y-101449085D01*
X76646695Y-101505000D01*
X76933305Y-101505000D01*
X77214408Y-101449085D01*
X77479201Y-101339404D01*
X77717508Y-101180172D01*
X77920172Y-100977508D01*
X78079404Y-100739201D01*
X78189085Y-100474408D01*
X78245000Y-100193305D01*
X78245000Y-99906695D01*
X78189085Y-99625592D01*
X78079404Y-99360799D01*
X77920172Y-99122492D01*
X77717508Y-98919828D01*
X77508241Y-98780000D01*
X77717508Y-98640172D01*
X77920172Y-98437508D01*
X78079404Y-98199201D01*
X78189085Y-97934408D01*
X78245000Y-97653305D01*
X78245000Y-97366695D01*
X78189085Y-97085592D01*
X78079404Y-96820799D01*
X77920172Y-96582492D01*
X77717508Y-96379828D01*
X77508241Y-96240000D01*
X77717508Y-96100172D01*
X77920172Y-95897508D01*
X78079404Y-95659201D01*
X78189085Y-95394408D01*
X78245000Y-95113305D01*
X78245000Y-94826695D01*
X78189085Y-94545592D01*
X78079404Y-94280799D01*
X77920172Y-94042492D01*
X77717508Y-93839828D01*
X77508241Y-93700000D01*
X77717508Y-93560172D01*
X77920172Y-93357508D01*
X78079404Y-93119201D01*
X78189085Y-92854408D01*
X78245000Y-92573305D01*
X78245000Y-92286695D01*
X78189085Y-92005592D01*
X78079404Y-91740799D01*
X77920172Y-91502492D01*
X77717508Y-91299828D01*
X77508241Y-91160000D01*
X77717508Y-91020172D01*
X77920172Y-90817508D01*
X78079404Y-90579201D01*
X78189085Y-90314408D01*
X78245000Y-90033305D01*
X78245000Y-89746695D01*
X78189085Y-89465592D01*
X78079404Y-89200799D01*
X77920172Y-88962492D01*
X77717508Y-88759828D01*
X77508241Y-88620000D01*
X77717508Y-88480172D01*
X77920172Y-88277508D01*
X78079404Y-88039201D01*
X78189085Y-87774408D01*
X78245000Y-87493305D01*
X78245000Y-87206695D01*
X78189085Y-86925592D01*
X78079404Y-86660799D01*
X77920172Y-86422492D01*
X77717508Y-86219828D01*
X77508241Y-86080000D01*
X77717508Y-85940172D01*
X77920172Y-85737508D01*
X78079404Y-85499201D01*
X78189085Y-85234408D01*
X78245000Y-84953305D01*
X78245000Y-84666695D01*
X78189085Y-84385592D01*
X78079404Y-84120799D01*
X77920172Y-83882492D01*
X77717508Y-83679828D01*
X77508241Y-83540000D01*
X77717508Y-83400172D01*
X77920172Y-83197508D01*
X78079404Y-82959201D01*
X78189085Y-82694408D01*
X78245000Y-82413305D01*
X78245000Y-82126695D01*
X78189085Y-81845592D01*
X78079404Y-81580799D01*
X77920172Y-81342492D01*
X77717508Y-81139828D01*
X77508241Y-81000000D01*
X77717508Y-80860172D01*
X77920172Y-80657508D01*
X78079404Y-80419201D01*
X78189085Y-80154408D01*
X78245000Y-79873305D01*
X78245000Y-79586695D01*
X78189085Y-79305592D01*
X78079404Y-79040799D01*
X77920172Y-78802492D01*
X77717508Y-78599828D01*
X77508241Y-78460000D01*
X77717508Y-78320172D01*
X77920172Y-78117508D01*
X78079404Y-77879201D01*
X78189085Y-77614408D01*
X78245000Y-77333305D01*
X78245000Y-77046695D01*
X78189085Y-76765592D01*
X78079404Y-76500799D01*
X77920172Y-76262492D01*
X77717508Y-76059828D01*
X77508241Y-75920000D01*
X77717508Y-75780172D01*
X77920172Y-75577508D01*
X78079404Y-75339201D01*
X78189085Y-75074408D01*
X78245000Y-74793305D01*
X78245000Y-74506695D01*
X78189085Y-74225592D01*
X78079404Y-73960799D01*
X77920172Y-73722492D01*
X77717508Y-73519828D01*
X77508241Y-73380000D01*
X77717508Y-73240172D01*
X77920172Y-73037508D01*
X78079404Y-72799201D01*
X78189085Y-72534408D01*
X78245000Y-72253305D01*
X78245000Y-71966695D01*
X78189085Y-71685592D01*
X78079404Y-71420799D01*
X77920172Y-71182492D01*
X77717508Y-70979828D01*
X77508241Y-70840000D01*
X77717508Y-70700172D01*
X77920172Y-70497508D01*
X78079404Y-70259201D01*
X78189085Y-69994408D01*
X78245000Y-69713305D01*
X78245000Y-69426695D01*
X78189085Y-69145592D01*
X78079404Y-68880799D01*
X77920172Y-68642492D01*
X77717508Y-68439828D01*
X77508241Y-68300000D01*
X77717508Y-68160172D01*
X77920172Y-67957508D01*
X78079404Y-67719201D01*
X78189085Y-67454408D01*
X78245000Y-67173305D01*
X78245000Y-66886695D01*
X78189085Y-66605592D01*
X78079404Y-66340799D01*
X77920172Y-66102492D01*
X77717508Y-65899828D01*
X77508241Y-65760000D01*
X77717508Y-65620172D01*
X77920172Y-65417508D01*
X78079404Y-65179201D01*
X78189085Y-64914408D01*
X78245000Y-64633305D01*
X78245000Y-64346695D01*
X78189085Y-64065592D01*
X78079404Y-63800799D01*
X77920172Y-63562492D01*
X77717508Y-63359828D01*
X77508241Y-63220000D01*
X77717508Y-63080172D01*
X77920172Y-62877508D01*
X78079404Y-62639201D01*
X78189085Y-62374408D01*
X78245000Y-62093305D01*
X78245000Y-61806695D01*
X78189085Y-61525592D01*
X78079404Y-61260799D01*
X77920172Y-61022492D01*
X77717508Y-60819828D01*
X77508241Y-60680000D01*
X77717508Y-60540172D01*
X77920172Y-60337508D01*
X78079404Y-60099201D01*
X78189085Y-59834408D01*
X78245000Y-59553305D01*
X78245000Y-59266695D01*
X78189085Y-58985592D01*
X78079404Y-58720799D01*
X77920172Y-58482492D01*
X77717508Y-58279828D01*
X77508241Y-58140000D01*
X77717508Y-58000172D01*
X77920172Y-57797508D01*
X78079404Y-57559201D01*
X78189085Y-57294408D01*
X78245000Y-57013305D01*
X78245000Y-56726695D01*
X78189085Y-56445592D01*
X78079404Y-56180799D01*
X77920172Y-55942492D01*
X77717508Y-55739828D01*
X77508241Y-55600000D01*
X77717508Y-55460172D01*
X77920172Y-55257508D01*
X78079404Y-55019201D01*
X78189085Y-54754408D01*
X78245000Y-54473305D01*
X78245000Y-54186695D01*
X78189085Y-53905592D01*
X78079404Y-53640799D01*
X77920172Y-53402492D01*
X77717508Y-53199828D01*
X77508241Y-53060000D01*
X77717508Y-52920172D01*
X77920172Y-52717508D01*
X78079404Y-52479201D01*
X78189085Y-52214408D01*
X78245000Y-51933305D01*
X78245000Y-51646695D01*
X78189085Y-51365592D01*
X78079404Y-51100799D01*
X77920172Y-50862492D01*
X77717508Y-50659828D01*
X77479201Y-50500596D01*
X77214408Y-50390915D01*
X76933305Y-50335000D01*
X76646695Y-50335000D01*
X76365592Y-50390915D01*
X76100799Y-50500596D01*
X75862492Y-50659828D01*
X75691388Y-50830932D01*
X75659502Y-50725820D01*
X75600537Y-50615506D01*
X75521185Y-50518815D01*
X75424494Y-50439463D01*
X75314180Y-50380498D01*
X75194482Y-50344188D01*
X75070000Y-50331928D01*
X73430000Y-50331928D01*
X73305518Y-50344188D01*
X73185820Y-50380498D01*
X73075506Y-50439463D01*
X72978815Y-50518815D01*
X72899463Y-50615506D01*
X72840498Y-50725820D01*
X72804188Y-50845518D01*
X72791928Y-50970000D01*
X23560928Y-50970000D01*
X23560999Y-46922090D01*
X23573854Y-46790976D01*
X25210000Y-46790976D01*
X25210000Y-47049024D01*
X25260342Y-47302113D01*
X25359093Y-47540518D01*
X25502456Y-47755077D01*
X25684923Y-47937544D01*
X25899482Y-48080907D01*
X26137887Y-48179658D01*
X26390976Y-48230000D01*
X26649024Y-48230000D01*
X26902113Y-48179658D01*
X27140518Y-48080907D01*
X27355077Y-47937544D01*
X27537544Y-47755077D01*
X27680907Y-47540518D01*
X27779658Y-47302113D01*
X27830000Y-47049024D01*
X27830000Y-46790976D01*
X74210000Y-46790976D01*
X74210000Y-47049024D01*
X74260342Y-47302113D01*
X74359093Y-47540518D01*
X74502456Y-47755077D01*
X74684923Y-47937544D01*
X74899482Y-48080907D01*
X75137887Y-48179658D01*
X75390976Y-48230000D01*
X75649024Y-48230000D01*
X75902113Y-48179658D01*
X76140518Y-48080907D01*
X76355077Y-47937544D01*
X76537544Y-47755077D01*
X76680907Y-47540518D01*
X76779658Y-47302113D01*
X76830000Y-47049024D01*
X76830000Y-46790976D01*
X76779658Y-46537887D01*
X76680907Y-46299482D01*
X76537544Y-46084923D01*
X76355077Y-45902456D01*
X76140518Y-45759093D01*
X75902113Y-45660342D01*
X75649024Y-45610000D01*
X75390976Y-45610000D01*
X75137887Y-45660342D01*
X74899482Y-45759093D01*
X74684923Y-45902456D01*
X74502456Y-46084923D01*
X74359093Y-46299482D01*
X74260342Y-46537887D01*
X74210000Y-46790976D01*
X27830000Y-46790976D01*
X27779658Y-46537887D01*
X27680907Y-46299482D01*
X27537544Y-46084923D01*
X27355077Y-45902456D01*
X27140518Y-45759093D01*
X26902113Y-45660342D01*
X26649024Y-45610000D01*
X26390976Y-45610000D01*
X26137887Y-45660342D01*
X25899482Y-45759093D01*
X25684923Y-45902456D01*
X25502456Y-46084923D01*
X25359093Y-46299482D01*
X25260342Y-46537887D01*
X25210000Y-46790976D01*
X23573854Y-46790976D01*
X23617192Y-46348990D01*
X23777216Y-45818964D01*
X24037140Y-45330121D01*
X24387065Y-44901069D01*
X24813664Y-44548156D01*
X25300681Y-44284827D01*
X25829578Y-44121106D01*
X26410960Y-44060000D01*
X76567721Y-44060000D01*
X77151010Y-44117192D01*
G37*
X77151010Y-44117192D02*
X77681036Y-44277216D01*
X78169879Y-44537140D01*
X78598931Y-44887065D01*
X78951844Y-45313664D01*
X79215173Y-45800681D01*
X79378894Y-46329578D01*
X79440000Y-46910960D01*
X79440001Y-85967581D01*
X79440000Y-104867721D01*
X79382808Y-105451010D01*
X79222783Y-105981036D01*
X78962860Y-106469880D01*
X78612935Y-106898931D01*
X78186335Y-107251845D01*
X77699320Y-107515173D01*
X77170422Y-107678894D01*
X76589040Y-107740000D01*
X61755937Y-107740000D01*
X61775812Y-107674482D01*
X61788072Y-107550000D01*
X61788072Y-105850000D01*
X61775812Y-105725518D01*
X61739502Y-105605820D01*
X61680537Y-105495506D01*
X61601185Y-105398815D01*
X61504494Y-105319463D01*
X61394180Y-105260498D01*
X61274482Y-105224188D01*
X61150000Y-105211928D01*
X59450000Y-105211928D01*
X59325518Y-105224188D01*
X59205820Y-105260498D01*
X59095506Y-105319463D01*
X58998815Y-105398815D01*
X58919463Y-105495506D01*
X58860498Y-105605820D01*
X58824188Y-105725518D01*
X58811928Y-105850000D01*
X58811928Y-107550000D01*
X58824188Y-107674482D01*
X58844063Y-107740000D01*
X58427000Y-107740000D01*
X58427000Y-102750000D01*
X58811928Y-102750000D01*
X58811928Y-104450000D01*
X58824188Y-104574482D01*
X58860498Y-104694180D01*
X58919463Y-104804494D01*
X58998815Y-104901185D01*
X59095506Y-104980537D01*
X59205820Y-105039502D01*
X59325518Y-105075812D01*
X59450000Y-105088072D01*
X61150000Y-105088072D01*
X61274482Y-105075812D01*
X61394180Y-105039502D01*
X61504494Y-104980537D01*
X61601185Y-104901185D01*
X61680537Y-104804494D01*
X61739502Y-104694180D01*
X61761513Y-104621620D01*
X61893368Y-104753475D01*
X62136589Y-104915990D01*
X62406842Y-105027932D01*
X62693740Y-105085000D01*
X62986260Y-105085000D01*
X63273158Y-105027932D01*
X63461303Y-104950000D01*
X67311928Y-104950000D01*
X67311928Y-106650000D01*
X67324188Y-106774482D01*
X67360498Y-106894180D01*
X67419463Y-107004494D01*
X67498815Y-107101185D01*
X67595506Y-107180537D01*
X67705820Y-107239502D01*
X67825518Y-107275812D01*
X67950000Y-107288072D01*
X69650000Y-107288072D01*
X69774482Y-107275812D01*
X69894180Y-107239502D01*
X70004494Y-107180537D01*
X70101185Y-107101185D01*
X70180537Y-107004494D01*
X70239502Y-106894180D01*
X70261513Y-106821620D01*
X70393368Y-106953475D01*
X70636589Y-107115990D01*
X70906842Y-107227932D01*
X71193740Y-107285000D01*
X71486260Y-107285000D01*
X71773158Y-107227932D01*
X72043411Y-107115990D01*
X72286632Y-106953475D01*
X72493475Y-106746632D01*
X72655990Y-106503411D01*
X72767932Y-106233158D01*
X72825000Y-105946260D01*
X72825000Y-105653740D01*
X72767932Y-105366842D01*
X72655990Y-105096589D01*
X72493475Y-104853368D01*
X72431083Y-104790976D01*
X74210000Y-104790976D01*
X74210000Y-105049024D01*
X74260342Y-105302113D01*
X74359093Y-105540518D01*
X74502456Y-105755077D01*
X74684923Y-105937544D01*
X74899482Y-106080907D01*
X75137887Y-106179658D01*
X75390976Y-106230000D01*
X75649024Y-106230000D01*
X75902113Y-106179658D01*
X76140518Y-106080907D01*
X76355077Y-105937544D01*
X76537544Y-105755077D01*
X76680907Y-105540518D01*
X76779658Y-105302113D01*
X76830000Y-105049024D01*
X76830000Y-104790976D01*
X76779658Y-104537887D01*
X76680907Y-104299482D01*
X76537544Y-104084923D01*
X76355077Y-103902456D01*
X76140518Y-103759093D01*
X75902113Y-103660342D01*
X75649024Y-103610000D01*
X75390976Y-103610000D01*
X75137887Y-103660342D01*
X74899482Y-103759093D01*
X74684923Y-103902456D01*
X74502456Y-104084923D01*
X74359093Y-104299482D01*
X74260342Y-104537887D01*
X74210000Y-104790976D01*
X72431083Y-104790976D01*
X72286632Y-104646525D01*
X72043411Y-104484010D01*
X71773158Y-104372068D01*
X71486260Y-104315000D01*
X71193740Y-104315000D01*
X70906842Y-104372068D01*
X70636589Y-104484010D01*
X70393368Y-104646525D01*
X70261513Y-104778380D01*
X70239502Y-104705820D01*
X70180537Y-104595506D01*
X70101185Y-104498815D01*
X70004494Y-104419463D01*
X69894180Y-104360498D01*
X69774482Y-104324188D01*
X69650000Y-104311928D01*
X67950000Y-104311928D01*
X67825518Y-104324188D01*
X67705820Y-104360498D01*
X67595506Y-104419463D01*
X67498815Y-104498815D01*
X67419463Y-104595506D01*
X67360498Y-104705820D01*
X67324188Y-104825518D01*
X67311928Y-104950000D01*
X63461303Y-104950000D01*
X63543411Y-104915990D01*
X63786632Y-104753475D01*
X63993475Y-104546632D01*
X64155990Y-104303411D01*
X64267932Y-104033158D01*
X64325000Y-103746260D01*
X64325000Y-103453740D01*
X64267932Y-103166842D01*
X64155990Y-102896589D01*
X63993475Y-102653368D01*
X63786632Y-102446525D01*
X63543411Y-102284010D01*
X63273158Y-102172068D01*
X62986260Y-102115000D01*
X62693740Y-102115000D01*
X62406842Y-102172068D01*
X62136589Y-102284010D01*
X61893368Y-102446525D01*
X61761513Y-102578380D01*
X61739502Y-102505820D01*
X61680537Y-102395506D01*
X61601185Y-102298815D01*
X61504494Y-102219463D01*
X61394180Y-102160498D01*
X61274482Y-102124188D01*
X61150000Y-102111928D01*
X59450000Y-102111928D01*
X59325518Y-102124188D01*
X59205820Y-102160498D01*
X59095506Y-102219463D01*
X58998815Y-102298815D01*
X58919463Y-102395506D01*
X58860498Y-102505820D01*
X58824188Y-102625518D01*
X58811928Y-102750000D01*
X58427000Y-102750000D01*
X58427000Y-99150000D01*
X58811928Y-99150000D01*
X58811928Y-100850000D01*
X58824188Y-100974482D01*
X58860498Y-101094180D01*
X58919463Y-101204494D01*
X58998815Y-101301185D01*
X59095506Y-101380537D01*
X59205820Y-101439502D01*
X59325518Y-101475812D01*
X59450000Y-101488072D01*
X61150000Y-101488072D01*
X61274482Y-101475812D01*
X61394180Y-101439502D01*
X61504494Y-101380537D01*
X61601185Y-101301185D01*
X61680537Y-101204494D01*
X61739502Y-101094180D01*
X61761513Y-101021620D01*
X61893368Y-101153475D01*
X62136589Y-101315990D01*
X62406842Y-101427932D01*
X62693740Y-101485000D01*
X62986260Y-101485000D01*
X63273158Y-101427932D01*
X63543411Y-101315990D01*
X63786632Y-101153475D01*
X63993475Y-100946632D01*
X64155990Y-100703411D01*
X64267932Y-100433158D01*
X64325000Y-100146260D01*
X64325000Y-99853740D01*
X64267932Y-99566842D01*
X64155990Y-99296589D01*
X63993475Y-99053368D01*
X63786632Y-98846525D01*
X63543411Y-98684010D01*
X63273158Y-98572068D01*
X62986260Y-98515000D01*
X62693740Y-98515000D01*
X62406842Y-98572068D01*
X62136589Y-98684010D01*
X61893368Y-98846525D01*
X61761513Y-98978380D01*
X61739502Y-98905820D01*
X61680537Y-98795506D01*
X61601185Y-98698815D01*
X61504494Y-98619463D01*
X61394180Y-98560498D01*
X61274482Y-98524188D01*
X61150000Y-98511928D01*
X59450000Y-98511928D01*
X59325518Y-98524188D01*
X59205820Y-98560498D01*
X59095506Y-98619463D01*
X58998815Y-98698815D01*
X58919463Y-98795506D01*
X58860498Y-98905820D01*
X58824188Y-99025518D01*
X58811928Y-99150000D01*
X58427000Y-99150000D01*
X58427000Y-95550000D01*
X58811928Y-95550000D01*
X58811928Y-97250000D01*
X58824188Y-97374482D01*
X58860498Y-97494180D01*
X58919463Y-97604494D01*
X58998815Y-97701185D01*
X59095506Y-97780537D01*
X59205820Y-97839502D01*
X59325518Y-97875812D01*
X59450000Y-97888072D01*
X61150000Y-97888072D01*
X61274482Y-97875812D01*
X61394180Y-97839502D01*
X61504494Y-97780537D01*
X61601185Y-97701185D01*
X61680537Y-97604494D01*
X61739502Y-97494180D01*
X61761513Y-97421620D01*
X61893368Y-97553475D01*
X62136589Y-97715990D01*
X62406842Y-97827932D01*
X62693740Y-97885000D01*
X62986260Y-97885000D01*
X63273158Y-97827932D01*
X63543411Y-97715990D01*
X63786632Y-97553475D01*
X63993475Y-97346632D01*
X64155990Y-97103411D01*
X64267932Y-96833158D01*
X64325000Y-96546260D01*
X64325000Y-96253740D01*
X64267932Y-95966842D01*
X64155990Y-95696589D01*
X63993475Y-95453368D01*
X63786632Y-95246525D01*
X63543411Y-95084010D01*
X63273158Y-94972068D01*
X62986260Y-94915000D01*
X62693740Y-94915000D01*
X62406842Y-94972068D01*
X62136589Y-95084010D01*
X61893368Y-95246525D01*
X61761513Y-95378380D01*
X61739502Y-95305820D01*
X61680537Y-95195506D01*
X61601185Y-95098815D01*
X61504494Y-95019463D01*
X61394180Y-94960498D01*
X61274482Y-94924188D01*
X61150000Y-94911928D01*
X59450000Y-94911928D01*
X59325518Y-94924188D01*
X59205820Y-94960498D01*
X59095506Y-95019463D01*
X58998815Y-95098815D01*
X58919463Y-95195506D01*
X58860498Y-95305820D01*
X58824188Y-95425518D01*
X58811928Y-95550000D01*
X58427000Y-95550000D01*
X58427000Y-85541649D01*
X58557111Y-85628586D01*
X58727271Y-85699068D01*
X58907911Y-85735000D01*
X59092089Y-85735000D01*
X59272729Y-85699068D01*
X59442889Y-85628586D01*
X59596028Y-85526262D01*
X59726262Y-85396028D01*
X59828586Y-85242889D01*
X59899068Y-85072729D01*
X59935000Y-84892089D01*
X59935000Y-84707911D01*
X59899068Y-84527271D01*
X59828586Y-84357111D01*
X59726262Y-84203972D01*
X59596028Y-84073738D01*
X59442889Y-83971414D01*
X59272729Y-83900932D01*
X59092089Y-83865000D01*
X58907911Y-83865000D01*
X58727271Y-83900932D01*
X58557111Y-83971414D01*
X58427000Y-84058351D01*
X58427000Y-82283157D01*
X58668186Y-82041970D01*
X58698145Y-82017383D01*
X58796243Y-81897852D01*
X58869135Y-81761479D01*
X58884215Y-81711768D01*
X58914023Y-81613506D01*
X58924814Y-81503937D01*
X58925381Y-81498180D01*
X58925381Y-81498175D01*
X58929178Y-81459619D01*
X58925381Y-81421063D01*
X58925381Y-78978933D01*
X58929178Y-78940380D01*
X58925381Y-78901827D01*
X58925381Y-78901820D01*
X58914022Y-78786494D01*
X58869135Y-78638521D01*
X58796243Y-78502148D01*
X58745728Y-78440596D01*
X58722726Y-78412568D01*
X58722723Y-78412565D01*
X58698145Y-78382617D01*
X58668198Y-78358040D01*
X58427000Y-78116842D01*
X58427000Y-77798061D01*
X60865000Y-77798061D01*
X60865000Y-78001939D01*
X60904774Y-78201898D01*
X60982795Y-78390256D01*
X61096063Y-78559774D01*
X61240226Y-78703937D01*
X61409744Y-78817205D01*
X61598102Y-78895226D01*
X61645372Y-78904628D01*
X61654774Y-78951898D01*
X61732795Y-79140256D01*
X61846063Y-79309774D01*
X61990226Y-79453937D01*
X62159744Y-79567205D01*
X62348102Y-79645226D01*
X62548061Y-79685000D01*
X62751939Y-79685000D01*
X62951898Y-79645226D01*
X63140256Y-79567205D01*
X63309774Y-79453937D01*
X63453937Y-79309774D01*
X63567205Y-79140256D01*
X63645226Y-78951898D01*
X63685000Y-78751939D01*
X63685000Y-78548061D01*
X63645226Y-78348102D01*
X63567205Y-78159744D01*
X63453937Y-77990226D01*
X63309774Y-77846063D01*
X63140256Y-77732795D01*
X62951898Y-77654774D01*
X62904628Y-77645372D01*
X62895226Y-77598102D01*
X62817205Y-77409744D01*
X62703937Y-77240226D01*
X62559774Y-77096063D01*
X62390256Y-76982795D01*
X62201898Y-76904774D01*
X62001939Y-76865000D01*
X61798061Y-76865000D01*
X61598102Y-76904774D01*
X61409744Y-76982795D01*
X61240226Y-77096063D01*
X61096063Y-77240226D01*
X60982795Y-77409744D01*
X60904774Y-77598102D01*
X60865000Y-77798061D01*
X58427000Y-77798061D01*
X58427000Y-77575000D01*
X58424560Y-77550224D01*
X58417333Y-77526399D01*
X58405597Y-77504443D01*
X58389803Y-77485197D01*
X58370557Y-77469403D01*
X58348601Y-77457667D01*
X58324776Y-77450440D01*
X58299130Y-77448003D01*
X57761840Y-77451683D01*
X57074344Y-76764187D01*
X57049761Y-76734233D01*
X56930230Y-76636135D01*
X56793857Y-76563243D01*
X56645884Y-76518356D01*
X56530558Y-76506997D01*
X56530550Y-76506997D01*
X56491997Y-76503200D01*
X56453444Y-76506997D01*
X54564995Y-76506997D01*
X54564995Y-76400926D01*
X54608581Y-76335695D01*
X54679063Y-76165535D01*
X54714995Y-75984895D01*
X54714995Y-75800717D01*
X54679063Y-75620077D01*
X54608581Y-75449917D01*
X54506257Y-75296778D01*
X54376023Y-75166544D01*
X54222884Y-75064220D01*
X54064921Y-74998790D01*
X54103937Y-74959774D01*
X54217205Y-74790256D01*
X54251313Y-74707912D01*
X55465874Y-74707912D01*
X55465874Y-74892090D01*
X55501806Y-75072730D01*
X55572288Y-75242890D01*
X55674612Y-75396029D01*
X55804846Y-75526263D01*
X55957985Y-75628587D01*
X56128145Y-75699069D01*
X56308785Y-75735001D01*
X56492963Y-75735001D01*
X56673603Y-75699069D01*
X56843763Y-75628587D01*
X56996902Y-75526263D01*
X57127136Y-75396029D01*
X57229460Y-75242890D01*
X57299942Y-75072730D01*
X57335874Y-74892090D01*
X57335874Y-74707912D01*
X57299942Y-74527272D01*
X57229460Y-74357112D01*
X57127136Y-74203973D01*
X56996902Y-74073739D01*
X56843763Y-73971415D01*
X56673603Y-73900933D01*
X56492963Y-73865001D01*
X56308785Y-73865001D01*
X56128145Y-73900933D01*
X55957985Y-73971415D01*
X55804846Y-74073739D01*
X55674612Y-74203973D01*
X55572288Y-74357112D01*
X55501806Y-74527272D01*
X55465874Y-74707912D01*
X54251313Y-74707912D01*
X54295226Y-74601898D01*
X54335000Y-74401939D01*
X54335000Y-74198061D01*
X54295226Y-73998102D01*
X54217205Y-73809744D01*
X54103937Y-73640226D01*
X53959774Y-73496063D01*
X53816005Y-73400000D01*
X53959774Y-73303937D01*
X54103937Y-73159774D01*
X54217205Y-72990256D01*
X54295226Y-72801898D01*
X54335000Y-72601939D01*
X54335000Y-72398061D01*
X54332415Y-72385061D01*
X55465000Y-72385061D01*
X55465000Y-72588939D01*
X55504774Y-72788898D01*
X55582795Y-72977256D01*
X55696063Y-73146774D01*
X55840226Y-73290937D01*
X56009744Y-73404205D01*
X56198102Y-73482226D01*
X56398061Y-73522000D01*
X56601939Y-73522000D01*
X56801898Y-73482226D01*
X56990256Y-73404205D01*
X57159774Y-73290937D01*
X57303937Y-73146774D01*
X57417205Y-72977256D01*
X57495226Y-72788898D01*
X57535000Y-72588939D01*
X57535000Y-72385061D01*
X57495226Y-72185102D01*
X57417205Y-71996744D01*
X57303937Y-71827226D01*
X57274772Y-71798061D01*
X59665000Y-71798061D01*
X59665000Y-72001939D01*
X59704774Y-72201898D01*
X59782795Y-72390256D01*
X59896063Y-72559774D01*
X60040226Y-72703937D01*
X60209744Y-72817205D01*
X60398102Y-72895226D01*
X60598061Y-72935000D01*
X60801939Y-72935000D01*
X61001898Y-72895226D01*
X61190256Y-72817205D01*
X61359774Y-72703937D01*
X61503937Y-72559774D01*
X61617205Y-72390256D01*
X61695226Y-72201898D01*
X61735000Y-72001939D01*
X61735000Y-71798061D01*
X61695226Y-71598102D01*
X61617205Y-71409744D01*
X61503937Y-71240226D01*
X61359774Y-71096063D01*
X61190256Y-70982795D01*
X61001898Y-70904774D01*
X60801939Y-70865000D01*
X60598061Y-70865000D01*
X60398102Y-70904774D01*
X60209744Y-70982795D01*
X60040226Y-71096063D01*
X59896063Y-71240226D01*
X59782795Y-71409744D01*
X59704774Y-71598102D01*
X59665000Y-71798061D01*
X57274772Y-71798061D01*
X57159774Y-71683063D01*
X56990256Y-71569795D01*
X56801898Y-71491774D01*
X56601939Y-71452000D01*
X56398061Y-71452000D01*
X56198102Y-71491774D01*
X56009744Y-71569795D01*
X55840226Y-71683063D01*
X55696063Y-71827226D01*
X55582795Y-71996744D01*
X55504774Y-72185102D01*
X55465000Y-72385061D01*
X54332415Y-72385061D01*
X54295226Y-72198102D01*
X54217205Y-72009744D01*
X54103937Y-71840226D01*
X53959774Y-71696063D01*
X53790256Y-71582795D01*
X53601898Y-71504774D01*
X53401939Y-71465000D01*
X53198061Y-71465000D01*
X52998102Y-71504774D01*
X52809744Y-71582795D01*
X52640226Y-71696063D01*
X52496063Y-71840226D01*
X52482626Y-71860336D01*
X52446028Y-71823738D01*
X52292889Y-71721414D01*
X52122729Y-71650932D01*
X51942089Y-71615000D01*
X51757911Y-71615000D01*
X51577271Y-71650932D01*
X51407111Y-71721414D01*
X51253972Y-71823738D01*
X51123738Y-71953972D01*
X51021414Y-72107111D01*
X50950932Y-72277271D01*
X50915000Y-72457911D01*
X50915000Y-72642089D01*
X50950932Y-72822729D01*
X51021414Y-72992889D01*
X51123738Y-73146028D01*
X51252833Y-73275123D01*
X51201939Y-73265000D01*
X50998061Y-73265000D01*
X50985000Y-73267598D01*
X50985000Y-73248061D01*
X50945226Y-73048102D01*
X50867205Y-72859744D01*
X50753937Y-72690226D01*
X50609774Y-72546063D01*
X50440256Y-72432795D01*
X50396421Y-72414638D01*
X50438656Y-72351429D01*
X50509138Y-72181269D01*
X50545070Y-72000629D01*
X50545070Y-71816451D01*
X50509138Y-71635811D01*
X50438656Y-71465651D01*
X50336332Y-71312512D01*
X50206098Y-71182278D01*
X50052959Y-71079954D01*
X49882799Y-71009472D01*
X49702159Y-70973540D01*
X49517981Y-70973540D01*
X49337341Y-71009472D01*
X49167181Y-71079954D01*
X49014042Y-71182278D01*
X48883808Y-71312512D01*
X48781484Y-71465651D01*
X48711002Y-71635811D01*
X48682131Y-71780951D01*
X48653302Y-71775217D01*
X48683544Y-71623182D01*
X48683544Y-71439004D01*
X48647612Y-71258364D01*
X48577130Y-71088204D01*
X48474806Y-70935065D01*
X48344572Y-70804831D01*
X48191433Y-70702507D01*
X48021273Y-70632025D01*
X47840633Y-70596093D01*
X47656455Y-70596093D01*
X47475815Y-70632025D01*
X47305655Y-70702507D01*
X47152516Y-70804831D01*
X47022282Y-70935065D01*
X46919958Y-71088204D01*
X46849476Y-71258364D01*
X46813544Y-71439004D01*
X46813544Y-71623182D01*
X46849476Y-71803822D01*
X46919958Y-71973982D01*
X46947365Y-72015000D01*
X39776550Y-72015000D01*
X39737997Y-72011203D01*
X39699444Y-72015000D01*
X39699437Y-72015000D01*
X39598488Y-72024943D01*
X39584110Y-72026359D01*
X39549670Y-72036806D01*
X39436138Y-72071246D01*
X39299765Y-72144138D01*
X39249851Y-72185102D01*
X39210185Y-72217655D01*
X39210182Y-72217658D01*
X39180234Y-72242236D01*
X39155656Y-72272184D01*
X37667841Y-73760000D01*
X28767048Y-73760000D01*
X28842889Y-73728586D01*
X28996028Y-73626262D01*
X29126262Y-73496028D01*
X29228586Y-73342889D01*
X29299068Y-73172729D01*
X29335000Y-72992089D01*
X29335000Y-72807911D01*
X29299068Y-72627271D01*
X29228586Y-72457111D01*
X29126262Y-72303972D01*
X28996028Y-72173738D01*
X28842889Y-72071414D01*
X28672729Y-72000932D01*
X28492089Y-71965000D01*
X28307911Y-71965000D01*
X28127271Y-72000932D01*
X27957111Y-72071414D01*
X27803972Y-72173738D01*
X27673738Y-72303972D01*
X27571414Y-72457111D01*
X27500932Y-72627271D01*
X27465000Y-72807911D01*
X27465000Y-72992089D01*
X27500932Y-73172729D01*
X27571414Y-73342889D01*
X27673738Y-73496028D01*
X27803972Y-73626262D01*
X27957111Y-73728586D01*
X28032952Y-73760000D01*
X27764801Y-73760000D01*
X26978888Y-72974088D01*
X26956735Y-72932642D01*
X26883219Y-72843062D01*
X26347786Y-72307630D01*
X26347782Y-72307625D01*
X26139509Y-72099352D01*
X26185874Y-71866261D01*
X26185874Y-71573741D01*
X26128806Y-71286843D01*
X26016864Y-71016590D01*
X25972371Y-70950000D01*
X31111928Y-70950000D01*
X31111928Y-72650000D01*
X31124188Y-72774482D01*
X31160498Y-72894180D01*
X31219463Y-73004494D01*
X31298815Y-73101185D01*
X31395506Y-73180537D01*
X31505820Y-73239502D01*
X31625518Y-73275812D01*
X31750000Y-73288072D01*
X33450000Y-73288072D01*
X33574482Y-73275812D01*
X33694180Y-73239502D01*
X33804494Y-73180537D01*
X33901185Y-73101185D01*
X33980537Y-73004494D01*
X34039502Y-72894180D01*
X34075812Y-72774482D01*
X34088072Y-72650000D01*
X34088072Y-70950000D01*
X34075812Y-70825518D01*
X34039502Y-70705820D01*
X33980537Y-70595506D01*
X33901185Y-70498815D01*
X33804494Y-70419463D01*
X33694180Y-70360498D01*
X33574482Y-70324188D01*
X33450000Y-70311928D01*
X31750000Y-70311928D01*
X31625518Y-70324188D01*
X31505820Y-70360498D01*
X31395506Y-70419463D01*
X31298815Y-70498815D01*
X31219463Y-70595506D01*
X31160498Y-70705820D01*
X31124188Y-70825518D01*
X31111928Y-70950000D01*
X25972371Y-70950000D01*
X25854349Y-70773369D01*
X25647506Y-70566526D01*
X25473114Y-70450001D01*
X25647506Y-70333476D01*
X25854349Y-70126633D01*
X26016864Y-69883412D01*
X26128806Y-69613159D01*
X26185874Y-69326261D01*
X26185874Y-69250000D01*
X35811928Y-69250000D01*
X35811928Y-70950000D01*
X35824188Y-71074482D01*
X35860498Y-71194180D01*
X35919463Y-71304494D01*
X35998815Y-71401185D01*
X36095506Y-71480537D01*
X36205820Y-71539502D01*
X36325518Y-71575812D01*
X36450000Y-71588072D01*
X38150000Y-71588072D01*
X38274482Y-71575812D01*
X38394180Y-71539502D01*
X38504494Y-71480537D01*
X38601185Y-71401185D01*
X38680537Y-71304494D01*
X38739502Y-71194180D01*
X38761513Y-71121620D01*
X38893368Y-71253475D01*
X39136589Y-71415990D01*
X39406842Y-71527932D01*
X39693740Y-71585000D01*
X39986260Y-71585000D01*
X40273158Y-71527932D01*
X40543411Y-71415990D01*
X40786632Y-71253475D01*
X40993475Y-71046632D01*
X41155990Y-70803411D01*
X41267932Y-70533158D01*
X41325000Y-70246260D01*
X41325000Y-69953740D01*
X41267932Y-69666842D01*
X41164745Y-69417726D01*
X41168230Y-69415863D01*
X41287761Y-69317765D01*
X41312344Y-69287811D01*
X41993651Y-68606504D01*
X42096063Y-68759774D01*
X42233935Y-68897646D01*
X42198102Y-68904774D01*
X42009744Y-68982795D01*
X41840226Y-69096063D01*
X41696063Y-69240226D01*
X41582795Y-69409744D01*
X41504774Y-69598102D01*
X41465000Y-69798061D01*
X41465000Y-70001939D01*
X41504774Y-70201898D01*
X41582795Y-70390256D01*
X41696063Y-70559774D01*
X41840226Y-70703937D01*
X42009744Y-70817205D01*
X42198102Y-70895226D01*
X42398061Y-70935000D01*
X42601939Y-70935000D01*
X42801898Y-70895226D01*
X42990256Y-70817205D01*
X43159774Y-70703937D01*
X43303937Y-70559774D01*
X43417205Y-70390256D01*
X43455393Y-70298061D01*
X44265000Y-70298061D01*
X44265000Y-70501939D01*
X44304774Y-70701898D01*
X44382795Y-70890256D01*
X44496063Y-71059774D01*
X44640226Y-71203937D01*
X44809744Y-71317205D01*
X44998102Y-71395226D01*
X45198061Y-71435000D01*
X45401939Y-71435000D01*
X45601898Y-71395226D01*
X45790256Y-71317205D01*
X45959774Y-71203937D01*
X46103937Y-71059774D01*
X46217205Y-70890256D01*
X46295226Y-70701898D01*
X46335000Y-70501939D01*
X46335000Y-70298061D01*
X46295226Y-70098102D01*
X46217205Y-69909744D01*
X46103937Y-69740226D01*
X45959774Y-69596063D01*
X45790256Y-69482795D01*
X45601898Y-69404774D01*
X45401939Y-69365000D01*
X45198061Y-69365000D01*
X44998102Y-69404774D01*
X44809744Y-69482795D01*
X44640226Y-69596063D01*
X44496063Y-69740226D01*
X44382795Y-69909744D01*
X44304774Y-70098102D01*
X44265000Y-70298061D01*
X43455393Y-70298061D01*
X43495226Y-70201898D01*
X43535000Y-70001939D01*
X43535000Y-69798061D01*
X43495226Y-69598102D01*
X43417205Y-69409744D01*
X43303937Y-69240226D01*
X43166065Y-69102354D01*
X43201898Y-69095226D01*
X43390256Y-69017205D01*
X43559774Y-68903937D01*
X43703937Y-68759774D01*
X43817205Y-68590256D01*
X43895226Y-68401898D01*
X43935000Y-68201939D01*
X43935000Y-67998061D01*
X43907538Y-67860001D01*
X44276444Y-67860001D01*
X44314997Y-67863798D01*
X44353550Y-67860001D01*
X44353558Y-67860001D01*
X44468884Y-67848642D01*
X44485298Y-67843663D01*
X44496063Y-67859774D01*
X44640226Y-68003937D01*
X44809744Y-68117205D01*
X44998102Y-68195226D01*
X45198061Y-68235000D01*
X45401939Y-68235000D01*
X45601898Y-68195226D01*
X45790256Y-68117205D01*
X45959774Y-68003937D01*
X46103937Y-67859774D01*
X46217205Y-67690256D01*
X46295226Y-67501898D01*
X46335000Y-67301939D01*
X46335000Y-67098061D01*
X46295226Y-66898102D01*
X46217205Y-66709744D01*
X46103937Y-66540226D01*
X46031933Y-66468222D01*
X46115156Y-66385000D01*
X47105154Y-66385000D01*
X47105154Y-66400749D01*
X47141086Y-66581389D01*
X47211568Y-66751549D01*
X47313892Y-66904688D01*
X47444126Y-67034922D01*
X47597265Y-67137246D01*
X47767425Y-67207728D01*
X47928718Y-67239812D01*
X47971414Y-67342889D01*
X48073738Y-67496028D01*
X48203972Y-67626262D01*
X48299162Y-67689866D01*
X48140226Y-67796063D01*
X47996063Y-67940226D01*
X47882795Y-68109744D01*
X47804774Y-68298102D01*
X47765000Y-68498061D01*
X47765000Y-68701939D01*
X47804774Y-68901898D01*
X47882795Y-69090256D01*
X47996063Y-69259774D01*
X48140226Y-69403937D01*
X48309744Y-69517205D01*
X48498102Y-69595226D01*
X48698061Y-69635000D01*
X48901939Y-69635000D01*
X49101898Y-69595226D01*
X49290256Y-69517205D01*
X49459774Y-69403937D01*
X49603937Y-69259774D01*
X49717205Y-69090256D01*
X49795226Y-68901898D01*
X49835000Y-68701939D01*
X49835000Y-68681512D01*
X49990256Y-68617202D01*
X50159774Y-68503934D01*
X50303937Y-68359771D01*
X50417205Y-68190253D01*
X50495226Y-68001895D01*
X50535000Y-67801936D01*
X50535000Y-67598058D01*
X50495226Y-67398099D01*
X50495211Y-67398061D01*
X54865000Y-67398061D01*
X54865000Y-67601939D01*
X54904774Y-67801898D01*
X54982795Y-67990256D01*
X55096063Y-68159774D01*
X55240226Y-68303937D01*
X55409744Y-68417205D01*
X55598102Y-68495226D01*
X55798061Y-68535000D01*
X56001939Y-68535000D01*
X56201898Y-68495226D01*
X56390256Y-68417205D01*
X56500000Y-68343877D01*
X56609744Y-68417205D01*
X56798102Y-68495226D01*
X56998061Y-68535000D01*
X57201939Y-68535000D01*
X57401898Y-68495226D01*
X57590256Y-68417205D01*
X57759774Y-68303937D01*
X57903937Y-68159774D01*
X58017205Y-67990256D01*
X58095226Y-67801898D01*
X58135000Y-67601939D01*
X58135000Y-67398061D01*
X58095226Y-67198102D01*
X58083375Y-67169491D01*
X58374463Y-67048918D01*
X58642252Y-66869987D01*
X58869987Y-66642252D01*
X59048918Y-66374463D01*
X59172168Y-66076912D01*
X59233038Y-65770896D01*
X60513330Y-65770896D01*
X60513330Y-66024018D01*
X60562711Y-66272278D01*
X60659577Y-66506133D01*
X60800205Y-66716597D01*
X60979190Y-66895582D01*
X61189654Y-67036210D01*
X61423509Y-67133076D01*
X61671769Y-67182457D01*
X61924891Y-67182457D01*
X62173151Y-67133076D01*
X62407006Y-67036210D01*
X62617470Y-66895582D01*
X62796455Y-66716597D01*
X62937083Y-66506133D01*
X62954332Y-66464491D01*
X63126053Y-66535620D01*
X63374313Y-66585001D01*
X63627435Y-66585001D01*
X63875695Y-66535620D01*
X64109550Y-66438754D01*
X64320014Y-66298126D01*
X64498999Y-66119141D01*
X64639627Y-65908677D01*
X64736493Y-65674822D01*
X64785874Y-65426562D01*
X64785874Y-65173440D01*
X64736493Y-64925180D01*
X64639627Y-64691325D01*
X64498999Y-64480861D01*
X64418139Y-64400001D01*
X64498999Y-64319141D01*
X64639627Y-64108677D01*
X64736493Y-63874822D01*
X64785874Y-63626562D01*
X64785874Y-63373440D01*
X64736493Y-63125180D01*
X64639627Y-62891325D01*
X64498999Y-62680861D01*
X64320014Y-62501876D01*
X64167548Y-62400001D01*
X64320014Y-62298126D01*
X64498999Y-62119141D01*
X64639627Y-61908677D01*
X64736493Y-61674822D01*
X64785874Y-61426562D01*
X64785874Y-61173440D01*
X64736493Y-60925180D01*
X64639627Y-60691325D01*
X64498999Y-60480861D01*
X64368139Y-60350001D01*
X64498999Y-60219141D01*
X64639627Y-60008677D01*
X64736493Y-59774822D01*
X64785874Y-59526562D01*
X64785874Y-59273440D01*
X64736493Y-59025180D01*
X64639627Y-58791325D01*
X64498999Y-58580861D01*
X64320014Y-58401876D01*
X64109550Y-58261248D01*
X63875695Y-58164382D01*
X63627435Y-58115001D01*
X63374313Y-58115001D01*
X63126053Y-58164382D01*
X62892198Y-58261248D01*
X62681734Y-58401876D01*
X62502749Y-58580861D01*
X62379164Y-58765819D01*
X62375695Y-58764382D01*
X62127435Y-58715001D01*
X61874313Y-58715001D01*
X61626053Y-58764382D01*
X61392198Y-58861248D01*
X61181734Y-59001876D01*
X61002749Y-59180861D01*
X60862121Y-59391325D01*
X60765255Y-59625180D01*
X60715874Y-59873440D01*
X60715874Y-60126562D01*
X60765255Y-60374822D01*
X60862121Y-60608677D01*
X61002749Y-60819141D01*
X61181734Y-60998126D01*
X61371613Y-61125000D01*
X61181734Y-61251873D01*
X61002749Y-61430858D01*
X60862121Y-61641322D01*
X60765255Y-61875177D01*
X60715874Y-62123437D01*
X60715874Y-62376559D01*
X60765255Y-62624819D01*
X60862121Y-62858674D01*
X61002749Y-63069138D01*
X61163955Y-63230344D01*
X61131732Y-63251874D01*
X60952747Y-63430859D01*
X60812119Y-63641323D01*
X60715253Y-63875178D01*
X60665872Y-64123438D01*
X60665872Y-64376560D01*
X60715253Y-64624820D01*
X60812119Y-64858675D01*
X60895323Y-64983199D01*
X60800205Y-65078317D01*
X60659577Y-65288781D01*
X60562711Y-65522636D01*
X60513330Y-65770896D01*
X59233038Y-65770896D01*
X59235000Y-65761033D01*
X59235000Y-65438967D01*
X59172168Y-65123088D01*
X59048918Y-64825537D01*
X58869987Y-64557748D01*
X58642252Y-64330013D01*
X58374463Y-64151082D01*
X58076912Y-64027832D01*
X57761033Y-63965000D01*
X57438967Y-63965000D01*
X57123088Y-64027832D01*
X56825537Y-64151082D01*
X56557748Y-64330013D01*
X56330013Y-64557748D01*
X56151082Y-64825537D01*
X56027832Y-65123088D01*
X55965000Y-65438967D01*
X55965000Y-65761033D01*
X56027832Y-66076912D01*
X56151082Y-66374463D01*
X56252027Y-66525538D01*
X56201898Y-66504774D01*
X56001939Y-66465000D01*
X55798061Y-66465000D01*
X55598102Y-66504774D01*
X55409744Y-66582795D01*
X55240226Y-66696063D01*
X55096063Y-66840226D01*
X54982795Y-67009744D01*
X54904774Y-67198102D01*
X54865000Y-67398061D01*
X50495211Y-67398061D01*
X50417205Y-67209741D01*
X50303937Y-67040223D01*
X50159774Y-66896060D01*
X49990256Y-66782792D01*
X49801898Y-66704771D01*
X49710883Y-66686667D01*
X49699068Y-66627271D01*
X49628586Y-66457111D01*
X49580403Y-66385000D01*
X51658123Y-66385000D01*
X51830013Y-66642252D01*
X52057748Y-66869987D01*
X52325537Y-67048918D01*
X52623088Y-67172168D01*
X52938967Y-67235000D01*
X53261033Y-67235000D01*
X53576912Y-67172168D01*
X53874463Y-67048918D01*
X54142252Y-66869987D01*
X54369987Y-66642252D01*
X54548918Y-66374463D01*
X54672168Y-66076912D01*
X54735000Y-65761033D01*
X54735000Y-65438967D01*
X54672168Y-65123088D01*
X54548918Y-64825537D01*
X54369987Y-64557748D01*
X54142252Y-64330013D01*
X53874463Y-64151082D01*
X53576912Y-64027832D01*
X53261033Y-63965000D01*
X52938967Y-63965000D01*
X52623088Y-64027832D01*
X52325537Y-64151082D01*
X52057748Y-64330013D01*
X51830013Y-64557748D01*
X51658123Y-64815000D01*
X45828550Y-64815000D01*
X45789997Y-64811203D01*
X45751444Y-64815000D01*
X45751437Y-64815000D01*
X45650488Y-64824943D01*
X45636110Y-64826359D01*
X45601670Y-64836806D01*
X45488138Y-64871246D01*
X45351765Y-64944138D01*
X45291557Y-64993550D01*
X45262185Y-65017655D01*
X45262182Y-65017658D01*
X45232234Y-65042236D01*
X45207656Y-65072184D01*
X43989840Y-66290001D01*
X43835000Y-66290001D01*
X43835000Y-66223061D01*
X43795226Y-66023102D01*
X43717205Y-65834744D01*
X43603937Y-65665226D01*
X43459774Y-65521063D01*
X43290256Y-65407795D01*
X43101898Y-65329774D01*
X42901939Y-65290000D01*
X42698061Y-65290000D01*
X42498102Y-65329774D01*
X42309744Y-65407795D01*
X42140226Y-65521063D01*
X41996063Y-65665226D01*
X41882795Y-65834744D01*
X41804774Y-66023102D01*
X41765000Y-66223061D01*
X41765000Y-66426939D01*
X41796175Y-66583666D01*
X41263558Y-67116283D01*
X41155990Y-66856589D01*
X40993475Y-66613368D01*
X40786632Y-66406525D01*
X40612240Y-66290000D01*
X40786632Y-66173475D01*
X40993475Y-65966632D01*
X41155990Y-65723411D01*
X41267932Y-65453158D01*
X41325000Y-65166260D01*
X41325000Y-64873740D01*
X41267932Y-64586842D01*
X41155990Y-64316589D01*
X40993475Y-64073368D01*
X40786632Y-63866525D01*
X40684169Y-63798061D01*
X41190000Y-63798061D01*
X41190000Y-64001939D01*
X41229774Y-64201898D01*
X41307795Y-64390256D01*
X41421063Y-64559774D01*
X41565226Y-64703937D01*
X41734744Y-64817205D01*
X41923102Y-64895226D01*
X42123061Y-64935000D01*
X42326939Y-64935000D01*
X42526898Y-64895226D01*
X42715256Y-64817205D01*
X42884774Y-64703937D01*
X43028937Y-64559774D01*
X43142205Y-64390256D01*
X43220226Y-64201898D01*
X43260000Y-64001939D01*
X43260000Y-63798061D01*
X43220226Y-63598102D01*
X43142205Y-63409744D01*
X43028937Y-63240226D01*
X42884774Y-63096063D01*
X42715256Y-62982795D01*
X42526898Y-62904774D01*
X42326939Y-62865000D01*
X42123061Y-62865000D01*
X41923102Y-62904774D01*
X41734744Y-62982795D01*
X41565226Y-63096063D01*
X41421063Y-63240226D01*
X41307795Y-63409744D01*
X41229774Y-63598102D01*
X41190000Y-63798061D01*
X40684169Y-63798061D01*
X40612240Y-63750000D01*
X40786632Y-63633475D01*
X40993475Y-63426632D01*
X41155990Y-63183411D01*
X41267932Y-62913158D01*
X41325000Y-62626260D01*
X41325000Y-62333740D01*
X41267932Y-62046842D01*
X41155990Y-61776589D01*
X40993475Y-61533368D01*
X40786632Y-61326525D01*
X40612240Y-61210000D01*
X40786632Y-61093475D01*
X40993475Y-60886632D01*
X41155990Y-60643411D01*
X41267932Y-60373158D01*
X41325000Y-60086260D01*
X41325000Y-59793740D01*
X41267932Y-59506842D01*
X41155990Y-59236589D01*
X40993475Y-58993368D01*
X40786632Y-58786525D01*
X40543411Y-58624010D01*
X40273158Y-58512068D01*
X39986260Y-58455000D01*
X39693740Y-58455000D01*
X39406842Y-58512068D01*
X39136589Y-58624010D01*
X38893368Y-58786525D01*
X38686525Y-58993368D01*
X38570000Y-59167760D01*
X38453475Y-58993368D01*
X38246632Y-58786525D01*
X38003411Y-58624010D01*
X37733158Y-58512068D01*
X37446260Y-58455000D01*
X37153740Y-58455000D01*
X36866842Y-58512068D01*
X36596589Y-58624010D01*
X36353368Y-58786525D01*
X36146525Y-58993368D01*
X35984010Y-59236589D01*
X35872068Y-59506842D01*
X35815000Y-59793740D01*
X35815000Y-60086260D01*
X35872068Y-60373158D01*
X35984010Y-60643411D01*
X36146525Y-60886632D01*
X36353368Y-61093475D01*
X36527760Y-61210000D01*
X36353368Y-61326525D01*
X36146525Y-61533368D01*
X35984010Y-61776589D01*
X35872068Y-62046842D01*
X35815000Y-62333740D01*
X35815000Y-62626260D01*
X35872068Y-62913158D01*
X35984010Y-63183411D01*
X36146525Y-63426632D01*
X36353368Y-63633475D01*
X36527760Y-63750000D01*
X36353368Y-63866525D01*
X36146525Y-64073368D01*
X35984010Y-64316589D01*
X35872068Y-64586842D01*
X35815000Y-64873740D01*
X35815000Y-65166260D01*
X35872068Y-65453158D01*
X35984010Y-65723411D01*
X36146525Y-65966632D01*
X36353368Y-66173475D01*
X36527760Y-66290000D01*
X36353368Y-66406525D01*
X36146525Y-66613368D01*
X35984010Y-66856589D01*
X35872068Y-67126842D01*
X35815000Y-67413740D01*
X35815000Y-67706260D01*
X35872068Y-67993158D01*
X35984010Y-68263411D01*
X36146525Y-68506632D01*
X36278380Y-68638487D01*
X36205820Y-68660498D01*
X36095506Y-68719463D01*
X35998815Y-68798815D01*
X35919463Y-68895506D01*
X35860498Y-69005820D01*
X35824188Y-69125518D01*
X35811928Y-69250000D01*
X26185874Y-69250000D01*
X26185874Y-69033741D01*
X26128806Y-68746843D01*
X26016864Y-68476590D01*
X25854349Y-68233369D01*
X25647506Y-68026526D01*
X25404285Y-67864011D01*
X25134032Y-67752069D01*
X24847134Y-67695001D01*
X24554614Y-67695001D01*
X24267716Y-67752069D01*
X23997463Y-67864011D01*
X23754242Y-68026526D01*
X23560632Y-68220136D01*
X23560660Y-66573740D01*
X31115000Y-66573740D01*
X31115000Y-66866260D01*
X31172068Y-67153158D01*
X31284010Y-67423411D01*
X31446525Y-67666632D01*
X31653368Y-67873475D01*
X31896589Y-68035990D01*
X32166842Y-68147932D01*
X32453740Y-68205000D01*
X32746260Y-68205000D01*
X33033158Y-68147932D01*
X33303411Y-68035990D01*
X33546632Y-67873475D01*
X33753475Y-67666632D01*
X33915990Y-67423411D01*
X34027932Y-67153158D01*
X34085000Y-66866260D01*
X34085000Y-66573740D01*
X34027932Y-66286842D01*
X33915990Y-66016589D01*
X33753475Y-65773368D01*
X33546632Y-65566525D01*
X33303411Y-65404010D01*
X33033158Y-65292068D01*
X32746260Y-65235000D01*
X32453740Y-65235000D01*
X32166842Y-65292068D01*
X31896589Y-65404010D01*
X31653368Y-65566525D01*
X31446525Y-65773368D01*
X31284010Y-66016589D01*
X31172068Y-66286842D01*
X31115000Y-66573740D01*
X23560660Y-66573740D01*
X23560679Y-65514907D01*
X23606694Y-65539503D01*
X23726392Y-65575813D01*
X23850874Y-65588073D01*
X25550874Y-65588073D01*
X25675356Y-65575813D01*
X25795054Y-65539503D01*
X25905368Y-65480538D01*
X26002059Y-65401186D01*
X26081411Y-65304495D01*
X26138302Y-65198061D01*
X28465000Y-65198061D01*
X28465000Y-65401939D01*
X28504774Y-65601898D01*
X28582795Y-65790256D01*
X28696063Y-65959774D01*
X28840226Y-66103937D01*
X29009744Y-66217205D01*
X29198102Y-66295226D01*
X29398061Y-66335000D01*
X29601939Y-66335000D01*
X29801898Y-66295226D01*
X29990256Y-66217205D01*
X30159774Y-66103937D01*
X30303937Y-65959774D01*
X30417205Y-65790256D01*
X30495226Y-65601898D01*
X30535000Y-65401939D01*
X30535000Y-65198061D01*
X30495226Y-64998102D01*
X30417205Y-64809744D01*
X30303937Y-64640226D01*
X30159774Y-64496063D01*
X29990256Y-64382795D01*
X29801898Y-64304774D01*
X29601939Y-64265000D01*
X29398061Y-64265000D01*
X29198102Y-64304774D01*
X29009744Y-64382795D01*
X28840226Y-64496063D01*
X28696063Y-64640226D01*
X28582795Y-64809744D01*
X28504774Y-64998102D01*
X28465000Y-65198061D01*
X26138302Y-65198061D01*
X26140376Y-65194181D01*
X26176686Y-65074483D01*
X26188946Y-64950001D01*
X26188946Y-63250001D01*
X26176686Y-63125519D01*
X26140376Y-63005821D01*
X26081411Y-62895507D01*
X26002059Y-62798816D01*
X25905368Y-62719464D01*
X25795054Y-62660499D01*
X25675356Y-62624189D01*
X25550874Y-62611929D01*
X23850874Y-62611929D01*
X23726392Y-62624189D01*
X23606694Y-62660499D01*
X23560727Y-62685069D01*
X23560814Y-57607911D01*
X44665000Y-57607911D01*
X44665000Y-57792089D01*
X44700932Y-57972729D01*
X44771414Y-58142889D01*
X44873738Y-58296028D01*
X45003972Y-58426262D01*
X45157111Y-58528586D01*
X45327271Y-58599068D01*
X45507911Y-58635000D01*
X45692089Y-58635000D01*
X45872729Y-58599068D01*
X46042889Y-58528586D01*
X46169644Y-58443891D01*
X46135000Y-58618061D01*
X46135000Y-58821939D01*
X46174774Y-59021898D01*
X46252795Y-59210256D01*
X46366063Y-59379774D01*
X46510226Y-59523937D01*
X46679744Y-59637205D01*
X46868102Y-59715226D01*
X47068061Y-59755000D01*
X47271939Y-59755000D01*
X47471898Y-59715226D01*
X47660256Y-59637205D01*
X47829774Y-59523937D01*
X47973937Y-59379774D01*
X48087205Y-59210256D01*
X48165226Y-59021898D01*
X48181721Y-58938967D01*
X51465000Y-58938967D01*
X51465000Y-59261033D01*
X51527832Y-59576912D01*
X51651082Y-59874463D01*
X51830013Y-60142252D01*
X52057748Y-60369987D01*
X52325537Y-60548918D01*
X52623088Y-60672168D01*
X52938967Y-60735000D01*
X53261033Y-60735000D01*
X53576912Y-60672168D01*
X53874463Y-60548918D01*
X54142252Y-60369987D01*
X54369987Y-60142252D01*
X54548918Y-59874463D01*
X54672168Y-59576912D01*
X54735000Y-59261033D01*
X54735000Y-58938967D01*
X55965000Y-58938967D01*
X55965000Y-59261033D01*
X56027832Y-59576912D01*
X56151082Y-59874463D01*
X56330013Y-60142252D01*
X56557748Y-60369987D01*
X56825537Y-60548918D01*
X57123088Y-60672168D01*
X57438967Y-60735000D01*
X57761033Y-60735000D01*
X58076912Y-60672168D01*
X58374463Y-60548918D01*
X58642252Y-60369987D01*
X58869987Y-60142252D01*
X59048918Y-59874463D01*
X59172168Y-59576912D01*
X59235000Y-59261033D01*
X59235000Y-58938967D01*
X59172168Y-58623088D01*
X59048918Y-58325537D01*
X58869987Y-58057748D01*
X58642252Y-57830013D01*
X58374463Y-57651082D01*
X58076912Y-57527832D01*
X57761033Y-57465000D01*
X57438967Y-57465000D01*
X57123088Y-57527832D01*
X56825537Y-57651082D01*
X56557748Y-57830013D01*
X56330013Y-58057748D01*
X56151082Y-58325537D01*
X56027832Y-58623088D01*
X55965000Y-58938967D01*
X54735000Y-58938967D01*
X54672168Y-58623088D01*
X54548918Y-58325537D01*
X54369987Y-58057748D01*
X54142252Y-57830013D01*
X53874463Y-57651082D01*
X53576912Y-57527832D01*
X53261033Y-57465000D01*
X52938967Y-57465000D01*
X52623088Y-57527832D01*
X52325537Y-57651082D01*
X52057748Y-57830013D01*
X51830013Y-58057748D01*
X51651082Y-58325537D01*
X51527832Y-58623088D01*
X51465000Y-58938967D01*
X48181721Y-58938967D01*
X48205000Y-58821939D01*
X48205000Y-58618061D01*
X48165226Y-58418102D01*
X48087205Y-58229744D01*
X47973937Y-58060226D01*
X47829774Y-57916063D01*
X47660256Y-57802795D01*
X47471898Y-57724774D01*
X47271939Y-57685000D01*
X47068061Y-57685000D01*
X46868102Y-57724774D01*
X46679744Y-57802795D01*
X46510357Y-57915975D01*
X46535000Y-57792089D01*
X46535000Y-57607911D01*
X46515109Y-57507911D01*
X49365000Y-57507911D01*
X49365000Y-57692089D01*
X49400932Y-57872729D01*
X49471414Y-58042889D01*
X49573738Y-58196028D01*
X49703972Y-58326262D01*
X49857111Y-58428586D01*
X50027271Y-58499068D01*
X50207911Y-58535000D01*
X50392089Y-58535000D01*
X50572729Y-58499068D01*
X50742889Y-58428586D01*
X50896028Y-58326262D01*
X51026262Y-58196028D01*
X51128586Y-58042889D01*
X51199068Y-57872729D01*
X51235000Y-57692089D01*
X51235000Y-57507911D01*
X51199068Y-57327271D01*
X51128586Y-57157111D01*
X51026262Y-57003972D01*
X50896028Y-56873738D01*
X50742889Y-56771414D01*
X50572729Y-56700932D01*
X50392089Y-56665000D01*
X50207911Y-56665000D01*
X50027271Y-56700932D01*
X49857111Y-56771414D01*
X49703972Y-56873738D01*
X49573738Y-57003972D01*
X49471414Y-57157111D01*
X49400932Y-57327271D01*
X49365000Y-57507911D01*
X46515109Y-57507911D01*
X46499068Y-57427271D01*
X46428586Y-57257111D01*
X46326262Y-57103972D01*
X46196028Y-56973738D01*
X46042889Y-56871414D01*
X45872729Y-56800932D01*
X45692089Y-56765000D01*
X45507911Y-56765000D01*
X45327271Y-56800932D01*
X45157111Y-56871414D01*
X45003972Y-56973738D01*
X44873738Y-57103972D01*
X44771414Y-57257111D01*
X44700932Y-57427271D01*
X44665000Y-57607911D01*
X23560814Y-57607911D01*
X23560907Y-52207911D01*
X46765000Y-52207911D01*
X46765000Y-52392089D01*
X46800932Y-52572729D01*
X46871414Y-52742889D01*
X46973738Y-52896028D01*
X47103972Y-53026262D01*
X47257111Y-53128586D01*
X47427271Y-53199068D01*
X47607911Y-53235000D01*
X47792089Y-53235000D01*
X47972729Y-53199068D01*
X48142889Y-53128586D01*
X48296028Y-53026262D01*
X48426262Y-52896028D01*
X48528586Y-52742889D01*
X48599068Y-52572729D01*
X48635000Y-52392089D01*
X48635000Y-52207911D01*
X48599068Y-52027271D01*
X48528586Y-51857111D01*
X48426262Y-51703972D01*
X48296028Y-51573738D01*
X48142889Y-51471414D01*
X47972729Y-51400932D01*
X47792089Y-51365000D01*
X47607911Y-51365000D01*
X47427271Y-51400932D01*
X47257111Y-51471414D01*
X47103972Y-51573738D01*
X46973738Y-51703972D01*
X46871414Y-51857111D01*
X46800932Y-52027271D01*
X46765000Y-52207911D01*
X23560907Y-52207911D01*
X23560928Y-50970000D01*
X72791928Y-50970000D01*
X72791928Y-52610000D01*
X72804188Y-52734482D01*
X72840498Y-52854180D01*
X72899463Y-52964494D01*
X72978815Y-53061185D01*
X73075506Y-53140537D01*
X73185820Y-53199502D01*
X73290932Y-53231388D01*
X73119828Y-53402492D01*
X72960596Y-53640799D01*
X72850915Y-53905592D01*
X72795000Y-54186695D01*
X72795000Y-54473305D01*
X72850915Y-54754408D01*
X72960596Y-55019201D01*
X73119828Y-55257508D01*
X73322492Y-55460172D01*
X73531759Y-55600000D01*
X73322492Y-55739828D01*
X73119828Y-55942492D01*
X72960596Y-56180799D01*
X72850915Y-56445592D01*
X72795000Y-56726695D01*
X72795000Y-57013305D01*
X72850915Y-57294408D01*
X72960596Y-57559201D01*
X73119828Y-57797508D01*
X73322492Y-58000172D01*
X73531759Y-58140000D01*
X73322492Y-58279828D01*
X73119828Y-58482492D01*
X72960596Y-58720799D01*
X72850915Y-58985592D01*
X72795000Y-59266695D01*
X72795000Y-59553305D01*
X72850915Y-59834408D01*
X72960596Y-60099201D01*
X73119828Y-60337508D01*
X73322492Y-60540172D01*
X73531759Y-60680000D01*
X73322492Y-60819828D01*
X73119828Y-61022492D01*
X72960596Y-61260799D01*
X72850915Y-61525592D01*
X72795000Y-61806695D01*
X72795000Y-62093305D01*
X72850915Y-62374408D01*
X72960596Y-62639201D01*
X73119828Y-62877508D01*
X73322492Y-63080172D01*
X73531759Y-63220000D01*
X73322492Y-63359828D01*
X73119828Y-63562492D01*
X72960596Y-63800799D01*
X72850915Y-64065592D01*
X72795000Y-64346695D01*
X72795000Y-64633305D01*
X72850915Y-64914408D01*
X72960596Y-65179201D01*
X73119828Y-65417508D01*
X73322492Y-65620172D01*
X73531759Y-65760000D01*
X73322492Y-65899828D01*
X73119828Y-66102492D01*
X72960596Y-66340799D01*
X72850915Y-66605592D01*
X72795000Y-66886695D01*
X72795000Y-67173305D01*
X72850915Y-67454408D01*
X72960596Y-67719201D01*
X73119828Y-67957508D01*
X73322492Y-68160172D01*
X73531759Y-68300000D01*
X73322492Y-68439828D01*
X73119828Y-68642492D01*
X72960596Y-68880799D01*
X72850915Y-69145592D01*
X72795000Y-69426695D01*
X72795000Y-69713305D01*
X72850915Y-69994408D01*
X72960596Y-70259201D01*
X73119828Y-70497508D01*
X73322492Y-70700172D01*
X73531759Y-70840000D01*
X73322492Y-70979828D01*
X73119828Y-71182492D01*
X72960596Y-71420799D01*
X72850915Y-71685592D01*
X72795000Y-71966695D01*
X72795000Y-72253305D01*
X72850915Y-72534408D01*
X72960596Y-72799201D01*
X73119828Y-73037508D01*
X73322492Y-73240172D01*
X73531759Y-73380000D01*
X73322492Y-73519828D01*
X73119828Y-73722492D01*
X72960596Y-73960799D01*
X72850915Y-74225592D01*
X72795000Y-74506695D01*
X72795000Y-74793305D01*
X72850915Y-75074408D01*
X72960596Y-75339201D01*
X73119828Y-75577508D01*
X73322492Y-75780172D01*
X73531759Y-75920000D01*
X73322492Y-76059828D01*
X73119828Y-76262492D01*
X72960596Y-76500799D01*
X72850915Y-76765592D01*
X72795000Y-77046695D01*
X72795000Y-77333305D01*
X72850915Y-77614408D01*
X72960596Y-77879201D01*
X73119828Y-78117508D01*
X73322492Y-78320172D01*
X73531759Y-78460000D01*
X73322492Y-78599828D01*
X73119828Y-78802492D01*
X72960596Y-79040799D01*
X72850915Y-79305592D01*
X72795000Y-79586695D01*
X72795000Y-79873305D01*
X72850915Y-80154408D01*
X72960596Y-80419201D01*
X73119828Y-80657508D01*
X73322492Y-80860172D01*
X73531759Y-81000000D01*
X73322492Y-81139828D01*
X73119828Y-81342492D01*
X72960596Y-81580799D01*
X72850915Y-81845592D01*
X72795000Y-82126695D01*
X72795000Y-82413305D01*
X72850915Y-82694408D01*
X72960596Y-82959201D01*
X73119828Y-83197508D01*
X73322492Y-83400172D01*
X73531759Y-83540000D01*
X73322492Y-83679828D01*
X73119828Y-83882492D01*
X72960596Y-84120799D01*
X72850915Y-84385592D01*
X72795000Y-84666695D01*
X72795000Y-84953305D01*
X72850915Y-85234408D01*
X72960596Y-85499201D01*
X73119828Y-85737508D01*
X73322492Y-85940172D01*
X73531759Y-86080000D01*
X73322492Y-86219828D01*
X73119828Y-86422492D01*
X72960596Y-86660799D01*
X72850915Y-86925592D01*
X72795000Y-87206695D01*
X72795000Y-87493305D01*
X72850915Y-87774408D01*
X72960596Y-88039201D01*
X73119828Y-88277508D01*
X73322492Y-88480172D01*
X73531759Y-88620000D01*
X73322492Y-88759828D01*
X73119828Y-88962492D01*
X72960596Y-89200799D01*
X72850915Y-89465592D01*
X72795000Y-89746695D01*
X72795000Y-90033305D01*
X72850915Y-90314408D01*
X72960596Y-90579201D01*
X73119828Y-90817508D01*
X73322492Y-91020172D01*
X73531759Y-91160000D01*
X73322492Y-91299828D01*
X73119828Y-91502492D01*
X72960596Y-91740799D01*
X72850915Y-92005592D01*
X72795000Y-92286695D01*
X72795000Y-92573305D01*
X72850915Y-92854408D01*
X72960596Y-93119201D01*
X73119828Y-93357508D01*
X73322492Y-93560172D01*
X73531759Y-93700000D01*
X73322492Y-93839828D01*
X73119828Y-94042492D01*
X72960596Y-94280799D01*
X72850915Y-94545592D01*
X72795000Y-94826695D01*
X72795000Y-95113305D01*
X72850915Y-95394408D01*
X72960596Y-95659201D01*
X73119828Y-95897508D01*
X73322492Y-96100172D01*
X73531759Y-96240000D01*
X73322492Y-96379828D01*
X73119828Y-96582492D01*
X72960596Y-96820799D01*
X72850915Y-97085592D01*
X72795000Y-97366695D01*
X72795000Y-97653305D01*
X72850915Y-97934408D01*
X72960596Y-98199201D01*
X73119828Y-98437508D01*
X73322492Y-98640172D01*
X73531759Y-98780000D01*
X73322492Y-98919828D01*
X73119828Y-99122492D01*
X72960596Y-99360799D01*
X72850915Y-99625592D01*
X72795000Y-99906695D01*
X72795000Y-100193305D01*
X72850915Y-100474408D01*
X72960596Y-100739201D01*
X73119828Y-100977508D01*
X73322492Y-101180172D01*
X73560799Y-101339404D01*
X73825592Y-101449085D01*
X74106695Y-101505000D01*
X74393305Y-101505000D01*
X74674408Y-101449085D01*
X74939201Y-101339404D01*
X75177508Y-101180172D01*
X75380172Y-100977508D01*
X75520000Y-100768241D01*
X75659828Y-100977508D01*
X75862492Y-101180172D01*
X76100799Y-101339404D01*
X76365592Y-101449085D01*
X76646695Y-101505000D01*
X76933305Y-101505000D01*
X77214408Y-101449085D01*
X77479201Y-101339404D01*
X77717508Y-101180172D01*
X77920172Y-100977508D01*
X78079404Y-100739201D01*
X78189085Y-100474408D01*
X78245000Y-100193305D01*
X78245000Y-99906695D01*
X78189085Y-99625592D01*
X78079404Y-99360799D01*
X77920172Y-99122492D01*
X77717508Y-98919828D01*
X77508241Y-98780000D01*
X77717508Y-98640172D01*
X77920172Y-98437508D01*
X78079404Y-98199201D01*
X78189085Y-97934408D01*
X78245000Y-97653305D01*
X78245000Y-97366695D01*
X78189085Y-97085592D01*
X78079404Y-96820799D01*
X77920172Y-96582492D01*
X77717508Y-96379828D01*
X77508241Y-96240000D01*
X77717508Y-96100172D01*
X77920172Y-95897508D01*
X78079404Y-95659201D01*
X78189085Y-95394408D01*
X78245000Y-95113305D01*
X78245000Y-94826695D01*
X78189085Y-94545592D01*
X78079404Y-94280799D01*
X77920172Y-94042492D01*
X77717508Y-93839828D01*
X77508241Y-93700000D01*
X77717508Y-93560172D01*
X77920172Y-93357508D01*
X78079404Y-93119201D01*
X78189085Y-92854408D01*
X78245000Y-92573305D01*
X78245000Y-92286695D01*
X78189085Y-92005592D01*
X78079404Y-91740799D01*
X77920172Y-91502492D01*
X77717508Y-91299828D01*
X77508241Y-91160000D01*
X77717508Y-91020172D01*
X77920172Y-90817508D01*
X78079404Y-90579201D01*
X78189085Y-90314408D01*
X78245000Y-90033305D01*
X78245000Y-89746695D01*
X78189085Y-89465592D01*
X78079404Y-89200799D01*
X77920172Y-88962492D01*
X77717508Y-88759828D01*
X77508241Y-88620000D01*
X77717508Y-88480172D01*
X77920172Y-88277508D01*
X78079404Y-88039201D01*
X78189085Y-87774408D01*
X78245000Y-87493305D01*
X78245000Y-87206695D01*
X78189085Y-86925592D01*
X78079404Y-86660799D01*
X77920172Y-86422492D01*
X77717508Y-86219828D01*
X77508241Y-86080000D01*
X77717508Y-85940172D01*
X77920172Y-85737508D01*
X78079404Y-85499201D01*
X78189085Y-85234408D01*
X78245000Y-84953305D01*
X78245000Y-84666695D01*
X78189085Y-84385592D01*
X78079404Y-84120799D01*
X77920172Y-83882492D01*
X77717508Y-83679828D01*
X77508241Y-83540000D01*
X77717508Y-83400172D01*
X77920172Y-83197508D01*
X78079404Y-82959201D01*
X78189085Y-82694408D01*
X78245000Y-82413305D01*
X78245000Y-82126695D01*
X78189085Y-81845592D01*
X78079404Y-81580799D01*
X77920172Y-81342492D01*
X77717508Y-81139828D01*
X77508241Y-81000000D01*
X77717508Y-80860172D01*
X77920172Y-80657508D01*
X78079404Y-80419201D01*
X78189085Y-80154408D01*
X78245000Y-79873305D01*
X78245000Y-79586695D01*
X78189085Y-79305592D01*
X78079404Y-79040799D01*
X77920172Y-78802492D01*
X77717508Y-78599828D01*
X77508241Y-78460000D01*
X77717508Y-78320172D01*
X77920172Y-78117508D01*
X78079404Y-77879201D01*
X78189085Y-77614408D01*
X78245000Y-77333305D01*
X78245000Y-77046695D01*
X78189085Y-76765592D01*
X78079404Y-76500799D01*
X77920172Y-76262492D01*
X77717508Y-76059828D01*
X77508241Y-75920000D01*
X77717508Y-75780172D01*
X77920172Y-75577508D01*
X78079404Y-75339201D01*
X78189085Y-75074408D01*
X78245000Y-74793305D01*
X78245000Y-74506695D01*
X78189085Y-74225592D01*
X78079404Y-73960799D01*
X77920172Y-73722492D01*
X77717508Y-73519828D01*
X77508241Y-73380000D01*
X77717508Y-73240172D01*
X77920172Y-73037508D01*
X78079404Y-72799201D01*
X78189085Y-72534408D01*
X78245000Y-72253305D01*
X78245000Y-71966695D01*
X78189085Y-71685592D01*
X78079404Y-71420799D01*
X77920172Y-71182492D01*
X77717508Y-70979828D01*
X77508241Y-70840000D01*
X77717508Y-70700172D01*
X77920172Y-70497508D01*
X78079404Y-70259201D01*
X78189085Y-69994408D01*
X78245000Y-69713305D01*
X78245000Y-69426695D01*
X78189085Y-69145592D01*
X78079404Y-68880799D01*
X77920172Y-68642492D01*
X77717508Y-68439828D01*
X77508241Y-68300000D01*
X77717508Y-68160172D01*
X77920172Y-67957508D01*
X78079404Y-67719201D01*
X78189085Y-67454408D01*
X78245000Y-67173305D01*
X78245000Y-66886695D01*
X78189085Y-66605592D01*
X78079404Y-66340799D01*
X77920172Y-66102492D01*
X77717508Y-65899828D01*
X77508241Y-65760000D01*
X77717508Y-65620172D01*
X77920172Y-65417508D01*
X78079404Y-65179201D01*
X78189085Y-64914408D01*
X78245000Y-64633305D01*
X78245000Y-64346695D01*
X78189085Y-64065592D01*
X78079404Y-63800799D01*
X77920172Y-63562492D01*
X77717508Y-63359828D01*
X77508241Y-63220000D01*
X77717508Y-63080172D01*
X77920172Y-62877508D01*
X78079404Y-62639201D01*
X78189085Y-62374408D01*
X78245000Y-62093305D01*
X78245000Y-61806695D01*
X78189085Y-61525592D01*
X78079404Y-61260799D01*
X77920172Y-61022492D01*
X77717508Y-60819828D01*
X77508241Y-60680000D01*
X77717508Y-60540172D01*
X77920172Y-60337508D01*
X78079404Y-60099201D01*
X78189085Y-59834408D01*
X78245000Y-59553305D01*
X78245000Y-59266695D01*
X78189085Y-58985592D01*
X78079404Y-58720799D01*
X77920172Y-58482492D01*
X77717508Y-58279828D01*
X77508241Y-58140000D01*
X77717508Y-58000172D01*
X77920172Y-57797508D01*
X78079404Y-57559201D01*
X78189085Y-57294408D01*
X78245000Y-57013305D01*
X78245000Y-56726695D01*
X78189085Y-56445592D01*
X78079404Y-56180799D01*
X77920172Y-55942492D01*
X77717508Y-55739828D01*
X77508241Y-55600000D01*
X77717508Y-55460172D01*
X77920172Y-55257508D01*
X78079404Y-55019201D01*
X78189085Y-54754408D01*
X78245000Y-54473305D01*
X78245000Y-54186695D01*
X78189085Y-53905592D01*
X78079404Y-53640799D01*
X77920172Y-53402492D01*
X77717508Y-53199828D01*
X77508241Y-53060000D01*
X77717508Y-52920172D01*
X77920172Y-52717508D01*
X78079404Y-52479201D01*
X78189085Y-52214408D01*
X78245000Y-51933305D01*
X78245000Y-51646695D01*
X78189085Y-51365592D01*
X78079404Y-51100799D01*
X77920172Y-50862492D01*
X77717508Y-50659828D01*
X77479201Y-50500596D01*
X77214408Y-50390915D01*
X76933305Y-50335000D01*
X76646695Y-50335000D01*
X76365592Y-50390915D01*
X76100799Y-50500596D01*
X75862492Y-50659828D01*
X75691388Y-50830932D01*
X75659502Y-50725820D01*
X75600537Y-50615506D01*
X75521185Y-50518815D01*
X75424494Y-50439463D01*
X75314180Y-50380498D01*
X75194482Y-50344188D01*
X75070000Y-50331928D01*
X73430000Y-50331928D01*
X73305518Y-50344188D01*
X73185820Y-50380498D01*
X73075506Y-50439463D01*
X72978815Y-50518815D01*
X72899463Y-50615506D01*
X72840498Y-50725820D01*
X72804188Y-50845518D01*
X72791928Y-50970000D01*
X23560928Y-50970000D01*
X23560999Y-46922090D01*
X23573854Y-46790976D01*
X25210000Y-46790976D01*
X25210000Y-47049024D01*
X25260342Y-47302113D01*
X25359093Y-47540518D01*
X25502456Y-47755077D01*
X25684923Y-47937544D01*
X25899482Y-48080907D01*
X26137887Y-48179658D01*
X26390976Y-48230000D01*
X26649024Y-48230000D01*
X26902113Y-48179658D01*
X27140518Y-48080907D01*
X27355077Y-47937544D01*
X27537544Y-47755077D01*
X27680907Y-47540518D01*
X27779658Y-47302113D01*
X27830000Y-47049024D01*
X27830000Y-46790976D01*
X74210000Y-46790976D01*
X74210000Y-47049024D01*
X74260342Y-47302113D01*
X74359093Y-47540518D01*
X74502456Y-47755077D01*
X74684923Y-47937544D01*
X74899482Y-48080907D01*
X75137887Y-48179658D01*
X75390976Y-48230000D01*
X75649024Y-48230000D01*
X75902113Y-48179658D01*
X76140518Y-48080907D01*
X76355077Y-47937544D01*
X76537544Y-47755077D01*
X76680907Y-47540518D01*
X76779658Y-47302113D01*
X76830000Y-47049024D01*
X76830000Y-46790976D01*
X76779658Y-46537887D01*
X76680907Y-46299482D01*
X76537544Y-46084923D01*
X76355077Y-45902456D01*
X76140518Y-45759093D01*
X75902113Y-45660342D01*
X75649024Y-45610000D01*
X75390976Y-45610000D01*
X75137887Y-45660342D01*
X74899482Y-45759093D01*
X74684923Y-45902456D01*
X74502456Y-46084923D01*
X74359093Y-46299482D01*
X74260342Y-46537887D01*
X74210000Y-46790976D01*
X27830000Y-46790976D01*
X27779658Y-46537887D01*
X27680907Y-46299482D01*
X27537544Y-46084923D01*
X27355077Y-45902456D01*
X27140518Y-45759093D01*
X26902113Y-45660342D01*
X26649024Y-45610000D01*
X26390976Y-45610000D01*
X26137887Y-45660342D01*
X25899482Y-45759093D01*
X25684923Y-45902456D01*
X25502456Y-46084923D01*
X25359093Y-46299482D01*
X25260342Y-46537887D01*
X25210000Y-46790976D01*
X23573854Y-46790976D01*
X23617192Y-46348990D01*
X23777216Y-45818964D01*
X24037140Y-45330121D01*
X24387065Y-44901069D01*
X24813664Y-44548156D01*
X25300681Y-44284827D01*
X25829578Y-44121106D01*
X26410960Y-44060000D01*
X76567721Y-44060000D01*
X77151010Y-44117192D01*
G36*
X40615002Y-99074841D02*
G01*
X39635001Y-100054842D01*
X39635001Y-92076031D01*
X40277816Y-91433217D01*
X40307763Y-91408640D01*
X40405861Y-91289109D01*
X40478753Y-91152736D01*
X40523640Y-91004763D01*
X40534999Y-90889437D01*
X40534999Y-90889430D01*
X40538796Y-90850877D01*
X40534999Y-90812324D01*
X40534999Y-83935000D01*
X40601939Y-83935000D01*
X40615001Y-83932402D01*
X40615002Y-99074841D01*
G37*
X40615002Y-99074841D02*
X39635001Y-100054842D01*
X39635001Y-92076031D01*
X40277816Y-91433217D01*
X40307763Y-91408640D01*
X40405861Y-91289109D01*
X40478753Y-91152736D01*
X40523640Y-91004763D01*
X40534999Y-90889437D01*
X40534999Y-90889430D01*
X40538796Y-90850877D01*
X40534999Y-90812324D01*
X40534999Y-83935000D01*
X40601939Y-83935000D01*
X40615001Y-83932402D01*
X40615002Y-99074841D01*
G36*
X48265000Y-76798061D02*
G01*
X48265000Y-77001939D01*
X48304774Y-77201898D01*
X48382795Y-77390256D01*
X48438083Y-77473000D01*
X46042158Y-77473000D01*
X46001939Y-77465000D01*
X45798061Y-77465000D01*
X45757842Y-77473000D01*
X45320113Y-77473000D01*
X45320113Y-77322469D01*
X45308374Y-77263454D01*
X45936828Y-76635001D01*
X48297434Y-76635001D01*
X48265000Y-76798061D01*
G37*
X48265000Y-76798061D02*
X48265000Y-77001939D01*
X48304774Y-77201898D01*
X48382795Y-77390256D01*
X48438083Y-77473000D01*
X46042158Y-77473000D01*
X46001939Y-77465000D01*
X45798061Y-77465000D01*
X45757842Y-77473000D01*
X45320113Y-77473000D01*
X45320113Y-77322469D01*
X45308374Y-77263454D01*
X45936828Y-76635001D01*
X48297434Y-76635001D01*
X48265000Y-76798061D01*
G36*
X39946774Y-74583063D02*
G01*
X39899441Y-74535730D01*
X39729923Y-74422462D01*
X39541565Y-74344441D01*
X39343176Y-74304979D01*
X40063156Y-73585000D01*
X40944837Y-73585000D01*
X39946774Y-74583063D01*
G37*
X39946774Y-74583063D02*
X39899441Y-74535730D01*
X39729923Y-74422462D01*
X39541565Y-74344441D01*
X39343176Y-74304979D01*
X40063156Y-73585000D01*
X40944837Y-73585000D01*
X39946774Y-74583063D01*
%TD*%
M02*
