%TF.GenerationSoftware,KiCad,Pcbnew,5.1.5+dfsg1-2build2*%
%TF.CreationDate,2021-10-16T11:12:39+01:00*%
%TF.ProjectId,bluePillG,626c7565-5069-46c6-9c47-2e6b69636164,rev?*%
%TF.SameCoordinates,Original*%
%TF.FileFunction,Copper,L4,Bot*%
%TF.FilePolarity,Positive*%
%FSLAX46Y46*%
G04 Gerber Fmt 4.6, Leading zero omitted, Abs format (unit mm)*
G04 Created by KiCad (PCBNEW 5.1.5+dfsg1-2build2) date 2021-10-16 11:12:39*
%MOMM*%
%LPD*%
G04 APERTURE LIST*
%TA.AperFunction,ComponentPad*%
%ADD10C,1.350000*%
%TD*%
%TA.AperFunction,ComponentPad*%
%ADD11C,1.640000*%
%TD*%
%TA.AperFunction,ComponentPad*%
%ADD12R,1.640000X1.640000*%
%TD*%
%TA.AperFunction,ComponentPad*%
%ADD13O,1.700000X1.700000*%
%TD*%
%TA.AperFunction,ComponentPad*%
%ADD14R,1.700000X1.700000*%
%TD*%
%TA.AperFunction,ComponentPad*%
%ADD15C,1.320800*%
%TD*%
%TA.AperFunction,ComponentPad*%
%ADD16C,1.676400*%
%TD*%
%TA.AperFunction,ComponentPad*%
%ADD17C,2.000000*%
%TD*%
%TA.AperFunction,SMDPad,CuDef*%
%ADD18C,0.100000*%
%TD*%
%TA.AperFunction,ViaPad*%
%ADD19C,0.800000*%
%TD*%
%TA.AperFunction,ViaPad*%
%ADD20C,0.600000*%
%TD*%
%TA.AperFunction,ViaPad*%
%ADD21C,1.400000*%
%TD*%
%TA.AperFunction,ViaPad*%
%ADD22C,1.300000*%
%TD*%
%TA.AperFunction,Conductor*%
%ADD23C,0.762000*%
%TD*%
%TA.AperFunction,Conductor*%
%ADD24C,0.250000*%
%TD*%
%TA.AperFunction,Conductor*%
%ADD25C,0.300000*%
%TD*%
%TA.AperFunction,Conductor*%
%ADD26C,1.000000*%
%TD*%
%TA.AperFunction,Conductor*%
%ADD27C,0.254000*%
%TD*%
G04 APERTURE END LIST*
D10*
%TO.P,J4,44*%
%TO.N,N/C*%
X26520000Y-46920000D03*
%TO.P,J4,43*%
X26520000Y-104920000D03*
%TO.P,J4,42*%
X75520000Y-104920000D03*
%TO.P,J4,41*%
X75520000Y-46920000D03*
D11*
%TO.P,J4,40*%
%TO.N,Net-(J4-Pad40)*%
X76790000Y-100050000D03*
%TO.P,J4,39*%
%TO.N,GND*%
X74250000Y-100050000D03*
%TO.P,J4,38*%
%TO.N,Net-(J4-Pad38)*%
X76790000Y-97510000D03*
%TO.P,J4,37*%
%TO.N,Net-(J4-Pad37)*%
X74250000Y-97510000D03*
%TO.P,J4,36*%
%TO.N,Net-(J4-Pad36)*%
X76790000Y-94970000D03*
%TO.P,J4,35*%
%TO.N,Net-(J4-Pad35)*%
X74250000Y-94970000D03*
%TO.P,J4,34*%
%TO.N,GND*%
X76790000Y-92430000D03*
%TO.P,J4,33*%
%TO.N,Net-(J4-Pad33)*%
X74250000Y-92430000D03*
%TO.P,J4,32*%
%TO.N,Net-(J4-Pad32)*%
X76790000Y-89890000D03*
%TO.P,J4,31*%
%TO.N,Net-(J4-Pad31)*%
X74250000Y-89890000D03*
%TO.P,J4,30*%
%TO.N,GND*%
X76790000Y-87350000D03*
%TO.P,J4,29*%
%TO.N,Net-(J4-Pad29)*%
X74250000Y-87350000D03*
%TO.P,J4,28*%
%TO.N,Net-(J4-Pad28)*%
X76790000Y-84810000D03*
%TO.P,J4,27*%
%TO.N,Net-(J4-Pad27)*%
X74250000Y-84810000D03*
%TO.P,J4,26*%
%TO.N,Net-(J4-Pad26)*%
X76790000Y-82270000D03*
%TO.P,J4,25*%
%TO.N,GND*%
X74250000Y-82270000D03*
%TO.P,J4,24*%
%TO.N,Net-(J4-Pad24)*%
X76790000Y-79730000D03*
%TO.P,J4,23*%
%TO.N,Net-(J4-Pad23)*%
X74250000Y-79730000D03*
%TO.P,J4,22*%
%TO.N,Net-(J4-Pad22)*%
X76790000Y-77190000D03*
%TO.P,J4,21*%
%TO.N,Net-(J4-Pad21)*%
X74250000Y-77190000D03*
%TO.P,J4,20*%
%TO.N,GND*%
X76790000Y-74650000D03*
%TO.P,J4,19*%
%TO.N,Net-(J4-Pad19)*%
X74250000Y-74650000D03*
%TO.P,J4,18*%
%TO.N,Net-(J4-Pad18)*%
X76790000Y-72110000D03*
%TO.P,J4,17*%
%TO.N,Net-(J4-Pad17)*%
X74250000Y-72110000D03*
%TO.P,J4,16*%
%TO.N,Net-(J4-Pad16)*%
X76790000Y-69570000D03*
%TO.P,J4,15*%
%TO.N,Net-(J4-Pad15)*%
X74250000Y-69570000D03*
%TO.P,J4,14*%
%TO.N,GND*%
X76790000Y-67030000D03*
%TO.P,J4,13*%
%TO.N,Net-(J4-Pad13)*%
X74250000Y-67030000D03*
%TO.P,J4,12*%
%TO.N,Net-(J4-Pad12)*%
X76790000Y-64490000D03*
%TO.P,J4,11*%
%TO.N,Net-(J4-Pad11)*%
X74250000Y-64490000D03*
%TO.P,J4,10*%
%TO.N,PB6*%
X76790000Y-61950000D03*
%TO.P,J4,9*%
%TO.N,GND*%
X74250000Y-61950000D03*
%TO.P,J4,8*%
%TO.N,PB7*%
X76790000Y-59410000D03*
%TO.P,J4,7*%
%TO.N,Net-(J4-Pad7)*%
X74250000Y-59410000D03*
%TO.P,J4,6*%
%TO.N,GND*%
X76790000Y-56870000D03*
%TO.P,J4,5*%
%TO.N,Net-(J4-Pad5)*%
X74250000Y-56870000D03*
%TO.P,J4,4*%
%TO.N,+5V*%
X76790000Y-54330000D03*
%TO.P,J4,3*%
%TO.N,Net-(J4-Pad3)*%
X74250000Y-54330000D03*
%TO.P,J4,2*%
%TO.N,+5V*%
X76790000Y-51790000D03*
D12*
%TO.P,J4,1*%
%TO.N,Net-(J4-Pad1)*%
X74250000Y-51790000D03*
%TD*%
D13*
%TO.P,J15,9*%
%TO.N,Net-(J15-Pad9)*%
X24700874Y-84420001D03*
%TO.P,J15,8*%
%TO.N,Net-(J15-Pad8)*%
X24700874Y-81880001D03*
%TO.P,J15,7*%
%TO.N,Net-(J15-Pad7)*%
X24700874Y-79340001D03*
%TO.P,J15,6*%
%TO.N,Net-(J15-Pad6)*%
X24700874Y-76800001D03*
%TO.P,J15,5*%
%TO.N,I2C_SDA*%
X24700874Y-74260001D03*
%TO.P,J15,4*%
%TO.N,I2C_SCL*%
X24700874Y-71720001D03*
%TO.P,J15,3*%
%TO.N,GND*%
X24700874Y-69180001D03*
%TO.P,J15,2*%
%TO.N,+3V3*%
X24700874Y-66640001D03*
D14*
%TO.P,J15,1*%
%TO.N,Net-(J15-Pad1)*%
X24700874Y-64100001D03*
%TD*%
D13*
%TO.P,J14,5*%
%TO.N,I2C_SDA*%
X53200000Y-106660000D03*
%TO.P,J14,4*%
X53200000Y-104120000D03*
%TO.P,J14,3*%
X53200000Y-101580000D03*
%TO.P,J14,2*%
X53200000Y-99040000D03*
D14*
%TO.P,J14,1*%
X53200000Y-96500000D03*
%TD*%
D13*
%TO.P,J13,5*%
%TO.N,I2C_SCL*%
X56800000Y-106660000D03*
%TO.P,J13,4*%
X56800000Y-104120000D03*
%TO.P,J13,3*%
X56800000Y-101580000D03*
%TO.P,J13,2*%
X56800000Y-99040000D03*
D14*
%TO.P,J13,1*%
X56800000Y-96500000D03*
%TD*%
D13*
%TO.P,J12,16*%
%TO.N,GND*%
X49620000Y-106540000D03*
%TO.P,J12,15*%
%TO.N,PB1*%
X49620000Y-104000000D03*
%TO.P,J12,14*%
%TO.N,GND*%
X47080000Y-106540000D03*
%TO.P,J12,13*%
%TO.N,PB0*%
X47080000Y-104000000D03*
%TO.P,J12,12*%
%TO.N,GND*%
X44540000Y-106540000D03*
%TO.P,J12,11*%
%TO.N,PA11*%
X44540000Y-104000000D03*
%TO.P,J12,10*%
%TO.N,GND*%
X42000000Y-106540000D03*
%TO.P,J12,9*%
%TO.N,PA10*%
X42000000Y-104000000D03*
%TO.P,J12,8*%
%TO.N,GND*%
X39460000Y-106540000D03*
%TO.P,J12,7*%
%TO.N,PB5*%
X39460000Y-104000000D03*
%TO.P,J12,6*%
%TO.N,GND*%
X36920000Y-106540000D03*
%TO.P,J12,5*%
%TO.N,PB4*%
X36920000Y-104000000D03*
%TO.P,J12,4*%
%TO.N,GND*%
X34380000Y-106540000D03*
%TO.P,J12,3*%
%TO.N,PA9*%
X34380000Y-104000000D03*
%TO.P,J12,2*%
%TO.N,GND*%
X31840000Y-106540000D03*
D14*
%TO.P,J12,1*%
%TO.N,PA8*%
X31840000Y-104000000D03*
%TD*%
%TO.P,J11,1*%
%TO.N,PA4*%
X60300000Y-106700000D03*
%TD*%
D13*
%TO.P,J10,2*%
%TO.N,PA7*%
X62840000Y-103600000D03*
D14*
%TO.P,J10,1*%
X60300000Y-103600000D03*
%TD*%
D13*
%TO.P,J9,2*%
%TO.N,PA6*%
X62840000Y-100000000D03*
D14*
%TO.P,J9,1*%
X60300000Y-100000000D03*
%TD*%
D13*
%TO.P,J8,2*%
%TO.N,PA5*%
X62840000Y-96400000D03*
D14*
%TO.P,J8,1*%
X60300000Y-96400000D03*
%TD*%
D13*
%TO.P,J7,4*%
%TO.N,ADC3*%
X24400000Y-95180000D03*
%TO.P,J7,3*%
%TO.N,ADC2*%
X24400000Y-97720000D03*
%TO.P,J7,2*%
%TO.N,ADC1*%
X24400000Y-100260000D03*
D14*
%TO.P,J7,1*%
%TO.N,ADC0*%
X24400000Y-102800000D03*
%TD*%
D13*
%TO.P,J6,2*%
%TO.N,GND*%
X71340000Y-105800000D03*
D14*
%TO.P,J6,1*%
%TO.N,+5V*%
X68800000Y-105800000D03*
%TD*%
D15*
%TO.P,Y2,2*%
%TO.N,Net-(C19-Pad1)*%
X53126000Y-85000000D03*
%TO.P,Y2,1*%
%TO.N,OSC_IN*%
X48300000Y-85000000D03*
%TD*%
D16*
%TO.P,Y1,2*%
%TO.N,OSC32_OUT*%
X44700000Y-82900000D03*
%TO.P,Y1,1*%
%TO.N,OSC32_IN*%
X44700000Y-80360000D03*
%TD*%
D17*
%TO.P,SW1,1*%
%TO.N,NRST*%
X53100000Y-59100000D03*
%TO.P,SW1,2*%
%TO.N,GND*%
X57600000Y-59100000D03*
%TO.P,SW1,1*%
%TO.N,NRST*%
X53100000Y-65600000D03*
%TO.P,SW1,2*%
%TO.N,GND*%
X57600000Y-65600000D03*
%TD*%
%TA.AperFunction,SMDPad,CuDef*%
D18*
%TO.P,R2,2*%
%TO.N,NRST*%
G36*
X53315191Y-61826053D02*
G01*
X53336426Y-61829203D01*
X53357250Y-61834419D01*
X53377462Y-61841651D01*
X53396868Y-61850830D01*
X53415281Y-61861866D01*
X53432524Y-61874654D01*
X53448430Y-61889070D01*
X53462846Y-61904976D01*
X53475634Y-61922219D01*
X53486670Y-61940632D01*
X53495849Y-61960038D01*
X53503081Y-61980250D01*
X53508297Y-62001074D01*
X53511447Y-62022309D01*
X53512500Y-62043750D01*
X53512500Y-62556250D01*
X53511447Y-62577691D01*
X53508297Y-62598926D01*
X53503081Y-62619750D01*
X53495849Y-62639962D01*
X53486670Y-62659368D01*
X53475634Y-62677781D01*
X53462846Y-62695024D01*
X53448430Y-62710930D01*
X53432524Y-62725346D01*
X53415281Y-62738134D01*
X53396868Y-62749170D01*
X53377462Y-62758349D01*
X53357250Y-62765581D01*
X53336426Y-62770797D01*
X53315191Y-62773947D01*
X53293750Y-62775000D01*
X52856250Y-62775000D01*
X52834809Y-62773947D01*
X52813574Y-62770797D01*
X52792750Y-62765581D01*
X52772538Y-62758349D01*
X52753132Y-62749170D01*
X52734719Y-62738134D01*
X52717476Y-62725346D01*
X52701570Y-62710930D01*
X52687154Y-62695024D01*
X52674366Y-62677781D01*
X52663330Y-62659368D01*
X52654151Y-62639962D01*
X52646919Y-62619750D01*
X52641703Y-62598926D01*
X52638553Y-62577691D01*
X52637500Y-62556250D01*
X52637500Y-62043750D01*
X52638553Y-62022309D01*
X52641703Y-62001074D01*
X52646919Y-61980250D01*
X52654151Y-61960038D01*
X52663330Y-61940632D01*
X52674366Y-61922219D01*
X52687154Y-61904976D01*
X52701570Y-61889070D01*
X52717476Y-61874654D01*
X52734719Y-61861866D01*
X52753132Y-61850830D01*
X52772538Y-61841651D01*
X52792750Y-61834419D01*
X52813574Y-61829203D01*
X52834809Y-61826053D01*
X52856250Y-61825000D01*
X53293750Y-61825000D01*
X53315191Y-61826053D01*
G37*
%TD.AperFunction*%
%TA.AperFunction,SMDPad,CuDef*%
%TO.P,R2,1*%
%TO.N,+3V3*%
G36*
X51740191Y-61826053D02*
G01*
X51761426Y-61829203D01*
X51782250Y-61834419D01*
X51802462Y-61841651D01*
X51821868Y-61850830D01*
X51840281Y-61861866D01*
X51857524Y-61874654D01*
X51873430Y-61889070D01*
X51887846Y-61904976D01*
X51900634Y-61922219D01*
X51911670Y-61940632D01*
X51920849Y-61960038D01*
X51928081Y-61980250D01*
X51933297Y-62001074D01*
X51936447Y-62022309D01*
X51937500Y-62043750D01*
X51937500Y-62556250D01*
X51936447Y-62577691D01*
X51933297Y-62598926D01*
X51928081Y-62619750D01*
X51920849Y-62639962D01*
X51911670Y-62659368D01*
X51900634Y-62677781D01*
X51887846Y-62695024D01*
X51873430Y-62710930D01*
X51857524Y-62725346D01*
X51840281Y-62738134D01*
X51821868Y-62749170D01*
X51802462Y-62758349D01*
X51782250Y-62765581D01*
X51761426Y-62770797D01*
X51740191Y-62773947D01*
X51718750Y-62775000D01*
X51281250Y-62775000D01*
X51259809Y-62773947D01*
X51238574Y-62770797D01*
X51217750Y-62765581D01*
X51197538Y-62758349D01*
X51178132Y-62749170D01*
X51159719Y-62738134D01*
X51142476Y-62725346D01*
X51126570Y-62710930D01*
X51112154Y-62695024D01*
X51099366Y-62677781D01*
X51088330Y-62659368D01*
X51079151Y-62639962D01*
X51071919Y-62619750D01*
X51066703Y-62598926D01*
X51063553Y-62577691D01*
X51062500Y-62556250D01*
X51062500Y-62043750D01*
X51063553Y-62022309D01*
X51066703Y-62001074D01*
X51071919Y-61980250D01*
X51079151Y-61960038D01*
X51088330Y-61940632D01*
X51099366Y-61922219D01*
X51112154Y-61904976D01*
X51126570Y-61889070D01*
X51142476Y-61874654D01*
X51159719Y-61861866D01*
X51178132Y-61850830D01*
X51197538Y-61841651D01*
X51217750Y-61834419D01*
X51238574Y-61829203D01*
X51259809Y-61826053D01*
X51281250Y-61825000D01*
X51718750Y-61825000D01*
X51740191Y-61826053D01*
G37*
%TD.AperFunction*%
%TD*%
D13*
%TO.P,J3,3*%
%TO.N,+3V3S*%
X32600000Y-66720000D03*
%TO.P,J3,2*%
%TO.N,+3V3*%
X32600000Y-69260000D03*
D14*
%TO.P,J3,1*%
%TO.N,+3.3VP*%
X32600000Y-71800000D03*
%TD*%
D13*
%TO.P,J2,3*%
%TO.N,GND*%
X33120000Y-86900000D03*
%TO.P,J2,2*%
%TO.N,Net-(J2-Pad2)*%
X35660000Y-86900000D03*
D14*
%TO.P,J2,1*%
%TO.N,+3V3*%
X38200000Y-86900000D03*
%TD*%
D13*
%TO.P,J1,10*%
%TO.N,+5V*%
X39840000Y-59940000D03*
%TO.P,J1,9*%
X37300000Y-59940000D03*
%TO.P,J1,8*%
%TO.N,+3V3S*%
X39840000Y-62480000D03*
%TO.P,J1,7*%
X37300000Y-62480000D03*
%TO.P,J1,6*%
%TO.N,GND*%
X39840000Y-65020000D03*
%TO.P,J1,5*%
X37300000Y-65020000D03*
%TO.P,J1,4*%
%TO.N,PA13*%
X39840000Y-67560000D03*
%TO.P,J1,3*%
%TO.N,SWIW*%
X37300000Y-67560000D03*
%TO.P,J1,2*%
%TO.N,PA14*%
X39840000Y-70100000D03*
D14*
%TO.P,J1,1*%
%TO.N,NRST*%
X37300000Y-70100000D03*
%TD*%
%TA.AperFunction,SMDPad,CuDef*%
D18*
%TO.P,C19,2*%
%TO.N,GND*%
G36*
X54915191Y-86326053D02*
G01*
X54936426Y-86329203D01*
X54957250Y-86334419D01*
X54977462Y-86341651D01*
X54996868Y-86350830D01*
X55015281Y-86361866D01*
X55032524Y-86374654D01*
X55048430Y-86389070D01*
X55062846Y-86404976D01*
X55075634Y-86422219D01*
X55086670Y-86440632D01*
X55095849Y-86460038D01*
X55103081Y-86480250D01*
X55108297Y-86501074D01*
X55111447Y-86522309D01*
X55112500Y-86543750D01*
X55112500Y-87056250D01*
X55111447Y-87077691D01*
X55108297Y-87098926D01*
X55103081Y-87119750D01*
X55095849Y-87139962D01*
X55086670Y-87159368D01*
X55075634Y-87177781D01*
X55062846Y-87195024D01*
X55048430Y-87210930D01*
X55032524Y-87225346D01*
X55015281Y-87238134D01*
X54996868Y-87249170D01*
X54977462Y-87258349D01*
X54957250Y-87265581D01*
X54936426Y-87270797D01*
X54915191Y-87273947D01*
X54893750Y-87275000D01*
X54456250Y-87275000D01*
X54434809Y-87273947D01*
X54413574Y-87270797D01*
X54392750Y-87265581D01*
X54372538Y-87258349D01*
X54353132Y-87249170D01*
X54334719Y-87238134D01*
X54317476Y-87225346D01*
X54301570Y-87210930D01*
X54287154Y-87195024D01*
X54274366Y-87177781D01*
X54263330Y-87159368D01*
X54254151Y-87139962D01*
X54246919Y-87119750D01*
X54241703Y-87098926D01*
X54238553Y-87077691D01*
X54237500Y-87056250D01*
X54237500Y-86543750D01*
X54238553Y-86522309D01*
X54241703Y-86501074D01*
X54246919Y-86480250D01*
X54254151Y-86460038D01*
X54263330Y-86440632D01*
X54274366Y-86422219D01*
X54287154Y-86404976D01*
X54301570Y-86389070D01*
X54317476Y-86374654D01*
X54334719Y-86361866D01*
X54353132Y-86350830D01*
X54372538Y-86341651D01*
X54392750Y-86334419D01*
X54413574Y-86329203D01*
X54434809Y-86326053D01*
X54456250Y-86325000D01*
X54893750Y-86325000D01*
X54915191Y-86326053D01*
G37*
%TD.AperFunction*%
%TA.AperFunction,SMDPad,CuDef*%
%TO.P,C19,1*%
%TO.N,Net-(C19-Pad1)*%
G36*
X53340191Y-86326053D02*
G01*
X53361426Y-86329203D01*
X53382250Y-86334419D01*
X53402462Y-86341651D01*
X53421868Y-86350830D01*
X53440281Y-86361866D01*
X53457524Y-86374654D01*
X53473430Y-86389070D01*
X53487846Y-86404976D01*
X53500634Y-86422219D01*
X53511670Y-86440632D01*
X53520849Y-86460038D01*
X53528081Y-86480250D01*
X53533297Y-86501074D01*
X53536447Y-86522309D01*
X53537500Y-86543750D01*
X53537500Y-87056250D01*
X53536447Y-87077691D01*
X53533297Y-87098926D01*
X53528081Y-87119750D01*
X53520849Y-87139962D01*
X53511670Y-87159368D01*
X53500634Y-87177781D01*
X53487846Y-87195024D01*
X53473430Y-87210930D01*
X53457524Y-87225346D01*
X53440281Y-87238134D01*
X53421868Y-87249170D01*
X53402462Y-87258349D01*
X53382250Y-87265581D01*
X53361426Y-87270797D01*
X53340191Y-87273947D01*
X53318750Y-87275000D01*
X52881250Y-87275000D01*
X52859809Y-87273947D01*
X52838574Y-87270797D01*
X52817750Y-87265581D01*
X52797538Y-87258349D01*
X52778132Y-87249170D01*
X52759719Y-87238134D01*
X52742476Y-87225346D01*
X52726570Y-87210930D01*
X52712154Y-87195024D01*
X52699366Y-87177781D01*
X52688330Y-87159368D01*
X52679151Y-87139962D01*
X52671919Y-87119750D01*
X52666703Y-87098926D01*
X52663553Y-87077691D01*
X52662500Y-87056250D01*
X52662500Y-86543750D01*
X52663553Y-86522309D01*
X52666703Y-86501074D01*
X52671919Y-86480250D01*
X52679151Y-86460038D01*
X52688330Y-86440632D01*
X52699366Y-86422219D01*
X52712154Y-86404976D01*
X52726570Y-86389070D01*
X52742476Y-86374654D01*
X52759719Y-86361866D01*
X52778132Y-86350830D01*
X52797538Y-86341651D01*
X52817750Y-86334419D01*
X52838574Y-86329203D01*
X52859809Y-86326053D01*
X52881250Y-86325000D01*
X53318750Y-86325000D01*
X53340191Y-86326053D01*
G37*
%TD.AperFunction*%
%TD*%
%TA.AperFunction,SMDPad,CuDef*%
%TO.P,C18,2*%
%TO.N,GND*%
G36*
X46952691Y-86426053D02*
G01*
X46973926Y-86429203D01*
X46994750Y-86434419D01*
X47014962Y-86441651D01*
X47034368Y-86450830D01*
X47052781Y-86461866D01*
X47070024Y-86474654D01*
X47085930Y-86489070D01*
X47100346Y-86504976D01*
X47113134Y-86522219D01*
X47124170Y-86540632D01*
X47133349Y-86560038D01*
X47140581Y-86580250D01*
X47145797Y-86601074D01*
X47148947Y-86622309D01*
X47150000Y-86643750D01*
X47150000Y-87156250D01*
X47148947Y-87177691D01*
X47145797Y-87198926D01*
X47140581Y-87219750D01*
X47133349Y-87239962D01*
X47124170Y-87259368D01*
X47113134Y-87277781D01*
X47100346Y-87295024D01*
X47085930Y-87310930D01*
X47070024Y-87325346D01*
X47052781Y-87338134D01*
X47034368Y-87349170D01*
X47014962Y-87358349D01*
X46994750Y-87365581D01*
X46973926Y-87370797D01*
X46952691Y-87373947D01*
X46931250Y-87375000D01*
X46493750Y-87375000D01*
X46472309Y-87373947D01*
X46451074Y-87370797D01*
X46430250Y-87365581D01*
X46410038Y-87358349D01*
X46390632Y-87349170D01*
X46372219Y-87338134D01*
X46354976Y-87325346D01*
X46339070Y-87310930D01*
X46324654Y-87295024D01*
X46311866Y-87277781D01*
X46300830Y-87259368D01*
X46291651Y-87239962D01*
X46284419Y-87219750D01*
X46279203Y-87198926D01*
X46276053Y-87177691D01*
X46275000Y-87156250D01*
X46275000Y-86643750D01*
X46276053Y-86622309D01*
X46279203Y-86601074D01*
X46284419Y-86580250D01*
X46291651Y-86560038D01*
X46300830Y-86540632D01*
X46311866Y-86522219D01*
X46324654Y-86504976D01*
X46339070Y-86489070D01*
X46354976Y-86474654D01*
X46372219Y-86461866D01*
X46390632Y-86450830D01*
X46410038Y-86441651D01*
X46430250Y-86434419D01*
X46451074Y-86429203D01*
X46472309Y-86426053D01*
X46493750Y-86425000D01*
X46931250Y-86425000D01*
X46952691Y-86426053D01*
G37*
%TD.AperFunction*%
%TA.AperFunction,SMDPad,CuDef*%
%TO.P,C18,1*%
%TO.N,OSC_IN*%
G36*
X48527691Y-86426053D02*
G01*
X48548926Y-86429203D01*
X48569750Y-86434419D01*
X48589962Y-86441651D01*
X48609368Y-86450830D01*
X48627781Y-86461866D01*
X48645024Y-86474654D01*
X48660930Y-86489070D01*
X48675346Y-86504976D01*
X48688134Y-86522219D01*
X48699170Y-86540632D01*
X48708349Y-86560038D01*
X48715581Y-86580250D01*
X48720797Y-86601074D01*
X48723947Y-86622309D01*
X48725000Y-86643750D01*
X48725000Y-87156250D01*
X48723947Y-87177691D01*
X48720797Y-87198926D01*
X48715581Y-87219750D01*
X48708349Y-87239962D01*
X48699170Y-87259368D01*
X48688134Y-87277781D01*
X48675346Y-87295024D01*
X48660930Y-87310930D01*
X48645024Y-87325346D01*
X48627781Y-87338134D01*
X48609368Y-87349170D01*
X48589962Y-87358349D01*
X48569750Y-87365581D01*
X48548926Y-87370797D01*
X48527691Y-87373947D01*
X48506250Y-87375000D01*
X48068750Y-87375000D01*
X48047309Y-87373947D01*
X48026074Y-87370797D01*
X48005250Y-87365581D01*
X47985038Y-87358349D01*
X47965632Y-87349170D01*
X47947219Y-87338134D01*
X47929976Y-87325346D01*
X47914070Y-87310930D01*
X47899654Y-87295024D01*
X47886866Y-87277781D01*
X47875830Y-87259368D01*
X47866651Y-87239962D01*
X47859419Y-87219750D01*
X47854203Y-87198926D01*
X47851053Y-87177691D01*
X47850000Y-87156250D01*
X47850000Y-86643750D01*
X47851053Y-86622309D01*
X47854203Y-86601074D01*
X47859419Y-86580250D01*
X47866651Y-86560038D01*
X47875830Y-86540632D01*
X47886866Y-86522219D01*
X47899654Y-86504976D01*
X47914070Y-86489070D01*
X47929976Y-86474654D01*
X47947219Y-86461866D01*
X47965632Y-86450830D01*
X47985038Y-86441651D01*
X48005250Y-86434419D01*
X48026074Y-86429203D01*
X48047309Y-86426053D01*
X48068750Y-86425000D01*
X48506250Y-86425000D01*
X48527691Y-86426053D01*
G37*
%TD.AperFunction*%
%TD*%
%TA.AperFunction,SMDPad,CuDef*%
%TO.P,C15,2*%
%TO.N,GND*%
G36*
X56327691Y-61826053D02*
G01*
X56348926Y-61829203D01*
X56369750Y-61834419D01*
X56389962Y-61841651D01*
X56409368Y-61850830D01*
X56427781Y-61861866D01*
X56445024Y-61874654D01*
X56460930Y-61889070D01*
X56475346Y-61904976D01*
X56488134Y-61922219D01*
X56499170Y-61940632D01*
X56508349Y-61960038D01*
X56515581Y-61980250D01*
X56520797Y-62001074D01*
X56523947Y-62022309D01*
X56525000Y-62043750D01*
X56525000Y-62556250D01*
X56523947Y-62577691D01*
X56520797Y-62598926D01*
X56515581Y-62619750D01*
X56508349Y-62639962D01*
X56499170Y-62659368D01*
X56488134Y-62677781D01*
X56475346Y-62695024D01*
X56460930Y-62710930D01*
X56445024Y-62725346D01*
X56427781Y-62738134D01*
X56409368Y-62749170D01*
X56389962Y-62758349D01*
X56369750Y-62765581D01*
X56348926Y-62770797D01*
X56327691Y-62773947D01*
X56306250Y-62775000D01*
X55868750Y-62775000D01*
X55847309Y-62773947D01*
X55826074Y-62770797D01*
X55805250Y-62765581D01*
X55785038Y-62758349D01*
X55765632Y-62749170D01*
X55747219Y-62738134D01*
X55729976Y-62725346D01*
X55714070Y-62710930D01*
X55699654Y-62695024D01*
X55686866Y-62677781D01*
X55675830Y-62659368D01*
X55666651Y-62639962D01*
X55659419Y-62619750D01*
X55654203Y-62598926D01*
X55651053Y-62577691D01*
X55650000Y-62556250D01*
X55650000Y-62043750D01*
X55651053Y-62022309D01*
X55654203Y-62001074D01*
X55659419Y-61980250D01*
X55666651Y-61960038D01*
X55675830Y-61940632D01*
X55686866Y-61922219D01*
X55699654Y-61904976D01*
X55714070Y-61889070D01*
X55729976Y-61874654D01*
X55747219Y-61861866D01*
X55765632Y-61850830D01*
X55785038Y-61841651D01*
X55805250Y-61834419D01*
X55826074Y-61829203D01*
X55847309Y-61826053D01*
X55868750Y-61825000D01*
X56306250Y-61825000D01*
X56327691Y-61826053D01*
G37*
%TD.AperFunction*%
%TA.AperFunction,SMDPad,CuDef*%
%TO.P,C15,1*%
%TO.N,NRST*%
G36*
X54752691Y-61826053D02*
G01*
X54773926Y-61829203D01*
X54794750Y-61834419D01*
X54814962Y-61841651D01*
X54834368Y-61850830D01*
X54852781Y-61861866D01*
X54870024Y-61874654D01*
X54885930Y-61889070D01*
X54900346Y-61904976D01*
X54913134Y-61922219D01*
X54924170Y-61940632D01*
X54933349Y-61960038D01*
X54940581Y-61980250D01*
X54945797Y-62001074D01*
X54948947Y-62022309D01*
X54950000Y-62043750D01*
X54950000Y-62556250D01*
X54948947Y-62577691D01*
X54945797Y-62598926D01*
X54940581Y-62619750D01*
X54933349Y-62639962D01*
X54924170Y-62659368D01*
X54913134Y-62677781D01*
X54900346Y-62695024D01*
X54885930Y-62710930D01*
X54870024Y-62725346D01*
X54852781Y-62738134D01*
X54834368Y-62749170D01*
X54814962Y-62758349D01*
X54794750Y-62765581D01*
X54773926Y-62770797D01*
X54752691Y-62773947D01*
X54731250Y-62775000D01*
X54293750Y-62775000D01*
X54272309Y-62773947D01*
X54251074Y-62770797D01*
X54230250Y-62765581D01*
X54210038Y-62758349D01*
X54190632Y-62749170D01*
X54172219Y-62738134D01*
X54154976Y-62725346D01*
X54139070Y-62710930D01*
X54124654Y-62695024D01*
X54111866Y-62677781D01*
X54100830Y-62659368D01*
X54091651Y-62639962D01*
X54084419Y-62619750D01*
X54079203Y-62598926D01*
X54076053Y-62577691D01*
X54075000Y-62556250D01*
X54075000Y-62043750D01*
X54076053Y-62022309D01*
X54079203Y-62001074D01*
X54084419Y-61980250D01*
X54091651Y-61960038D01*
X54100830Y-61940632D01*
X54111866Y-61922219D01*
X54124654Y-61904976D01*
X54139070Y-61889070D01*
X54154976Y-61874654D01*
X54172219Y-61861866D01*
X54190632Y-61850830D01*
X54210038Y-61841651D01*
X54230250Y-61834419D01*
X54251074Y-61829203D01*
X54272309Y-61826053D01*
X54293750Y-61825000D01*
X54731250Y-61825000D01*
X54752691Y-61826053D01*
G37*
%TD.AperFunction*%
%TD*%
%TA.AperFunction,SMDPad,CuDef*%
%TO.P,C5,2*%
%TO.N,GND*%
G36*
X48377691Y-74876053D02*
G01*
X48398926Y-74879203D01*
X48419750Y-74884419D01*
X48439962Y-74891651D01*
X48459368Y-74900830D01*
X48477781Y-74911866D01*
X48495024Y-74924654D01*
X48510930Y-74939070D01*
X48525346Y-74954976D01*
X48538134Y-74972219D01*
X48549170Y-74990632D01*
X48558349Y-75010038D01*
X48565581Y-75030250D01*
X48570797Y-75051074D01*
X48573947Y-75072309D01*
X48575000Y-75093750D01*
X48575000Y-75531250D01*
X48573947Y-75552691D01*
X48570797Y-75573926D01*
X48565581Y-75594750D01*
X48558349Y-75614962D01*
X48549170Y-75634368D01*
X48538134Y-75652781D01*
X48525346Y-75670024D01*
X48510930Y-75685930D01*
X48495024Y-75700346D01*
X48477781Y-75713134D01*
X48459368Y-75724170D01*
X48439962Y-75733349D01*
X48419750Y-75740581D01*
X48398926Y-75745797D01*
X48377691Y-75748947D01*
X48356250Y-75750000D01*
X47843750Y-75750000D01*
X47822309Y-75748947D01*
X47801074Y-75745797D01*
X47780250Y-75740581D01*
X47760038Y-75733349D01*
X47740632Y-75724170D01*
X47722219Y-75713134D01*
X47704976Y-75700346D01*
X47689070Y-75685930D01*
X47674654Y-75670024D01*
X47661866Y-75652781D01*
X47650830Y-75634368D01*
X47641651Y-75614962D01*
X47634419Y-75594750D01*
X47629203Y-75573926D01*
X47626053Y-75552691D01*
X47625000Y-75531250D01*
X47625000Y-75093750D01*
X47626053Y-75072309D01*
X47629203Y-75051074D01*
X47634419Y-75030250D01*
X47641651Y-75010038D01*
X47650830Y-74990632D01*
X47661866Y-74972219D01*
X47674654Y-74954976D01*
X47689070Y-74939070D01*
X47704976Y-74924654D01*
X47722219Y-74911866D01*
X47740632Y-74900830D01*
X47760038Y-74891651D01*
X47780250Y-74884419D01*
X47801074Y-74879203D01*
X47822309Y-74876053D01*
X47843750Y-74875000D01*
X48356250Y-74875000D01*
X48377691Y-74876053D01*
G37*
%TD.AperFunction*%
%TA.AperFunction,SMDPad,CuDef*%
%TO.P,C5,1*%
%TO.N,+3V3*%
G36*
X48377691Y-76451053D02*
G01*
X48398926Y-76454203D01*
X48419750Y-76459419D01*
X48439962Y-76466651D01*
X48459368Y-76475830D01*
X48477781Y-76486866D01*
X48495024Y-76499654D01*
X48510930Y-76514070D01*
X48525346Y-76529976D01*
X48538134Y-76547219D01*
X48549170Y-76565632D01*
X48558349Y-76585038D01*
X48565581Y-76605250D01*
X48570797Y-76626074D01*
X48573947Y-76647309D01*
X48575000Y-76668750D01*
X48575000Y-77106250D01*
X48573947Y-77127691D01*
X48570797Y-77148926D01*
X48565581Y-77169750D01*
X48558349Y-77189962D01*
X48549170Y-77209368D01*
X48538134Y-77227781D01*
X48525346Y-77245024D01*
X48510930Y-77260930D01*
X48495024Y-77275346D01*
X48477781Y-77288134D01*
X48459368Y-77299170D01*
X48439962Y-77308349D01*
X48419750Y-77315581D01*
X48398926Y-77320797D01*
X48377691Y-77323947D01*
X48356250Y-77325000D01*
X47843750Y-77325000D01*
X47822309Y-77323947D01*
X47801074Y-77320797D01*
X47780250Y-77315581D01*
X47760038Y-77308349D01*
X47740632Y-77299170D01*
X47722219Y-77288134D01*
X47704976Y-77275346D01*
X47689070Y-77260930D01*
X47674654Y-77245024D01*
X47661866Y-77227781D01*
X47650830Y-77209368D01*
X47641651Y-77189962D01*
X47634419Y-77169750D01*
X47629203Y-77148926D01*
X47626053Y-77127691D01*
X47625000Y-77106250D01*
X47625000Y-76668750D01*
X47626053Y-76647309D01*
X47629203Y-76626074D01*
X47634419Y-76605250D01*
X47641651Y-76585038D01*
X47650830Y-76565632D01*
X47661866Y-76547219D01*
X47674654Y-76529976D01*
X47689070Y-76514070D01*
X47704976Y-76499654D01*
X47722219Y-76486866D01*
X47740632Y-76475830D01*
X47760038Y-76466651D01*
X47780250Y-76459419D01*
X47801074Y-76454203D01*
X47822309Y-76451053D01*
X47843750Y-76450000D01*
X48356250Y-76450000D01*
X48377691Y-76451053D01*
G37*
%TD.AperFunction*%
%TD*%
D19*
%TO.N,+3V3*%
X47700000Y-80300000D03*
X44500000Y-78500000D03*
X50600000Y-61400000D03*
X58300000Y-69700000D03*
X56100000Y-71300000D03*
X58700000Y-71300000D03*
X34500000Y-69300000D03*
X34500000Y-70500000D03*
X34500000Y-71700000D03*
X34500000Y-73100000D03*
X34500000Y-67900000D03*
X35300000Y-67900000D03*
X35300000Y-69300000D03*
X35300000Y-70500000D03*
X35300000Y-71700000D03*
X35300000Y-73100000D03*
X48100000Y-76887500D03*
X46900000Y-67200000D03*
X46900000Y-70400000D03*
D20*
X39889667Y-77700000D03*
X39250000Y-74250000D03*
X46500000Y-59500000D03*
X50900000Y-53600000D03*
D19*
X40500000Y-86700000D03*
%TO.N,GND*%
X45900000Y-78500000D03*
X40500000Y-80500000D03*
X40500000Y-82900000D03*
X40550000Y-78750000D03*
X40650000Y-77100000D03*
X53300000Y-72500000D03*
X53300000Y-74300000D03*
X55900000Y-67500000D03*
X57100000Y-67500000D03*
X60700000Y-71900000D03*
X45300000Y-70400000D03*
X45300000Y-67200000D03*
X29500000Y-65300000D03*
X35100000Y-78700000D03*
X35100000Y-79500000D03*
X36700000Y-80500000D03*
X37100000Y-77100000D03*
X38100000Y-77100000D03*
X38100000Y-78100000D03*
X38100000Y-79300000D03*
X38100000Y-80500000D03*
X38100000Y-81900000D03*
X35300000Y-80700000D03*
X35500000Y-82900000D03*
X37100000Y-76100000D03*
X38100000Y-76100000D03*
X35300000Y-81700000D03*
X34300000Y-80700000D03*
X34300000Y-81700000D03*
X50700000Y-87200000D03*
X50700000Y-89150000D03*
X42225000Y-63900000D03*
D20*
X28400000Y-72900000D03*
X54900000Y-81400000D03*
X47748544Y-71531093D03*
X45600000Y-57700000D03*
X50300000Y-57600000D03*
X47700000Y-52300000D03*
X44385113Y-77414558D03*
%TO.N,NRST*%
X51850000Y-72550000D03*
D19*
%TO.N,PC13*%
X49300000Y-76900000D03*
X43900000Y-85500000D03*
%TO.N,BOOT0*%
X43300874Y-75500001D03*
X40650000Y-76099997D03*
%TO.N,PB7*%
X61900000Y-77900000D03*
X51100000Y-74300000D03*
%TO.N,PB6*%
X62650000Y-78650000D03*
X49950000Y-73350000D03*
D20*
%TO.N,PB5*%
X44400874Y-74850001D03*
D19*
%TO.N,PB4*%
X43200874Y-73894221D03*
%TO.N,PB3*%
X47849502Y-73962000D03*
X42150001Y-91700001D03*
D21*
X44600874Y-91700001D03*
D20*
%TO.N,PA12*%
X49610070Y-71908540D03*
D22*
X63500874Y-59400001D03*
D19*
%TO.N,PA11*%
X48800000Y-68600000D03*
%TO.N,PA10*%
X49500000Y-67699997D03*
D20*
%TO.N,PA9*%
X48800000Y-66900000D03*
%TO.N,PA8*%
X48040154Y-66308660D03*
D22*
%TO.N,PB15*%
X62000874Y-60000001D03*
%TO.N,PB14*%
X63500874Y-61300001D03*
%TO.N,PB13*%
X62000874Y-62249998D03*
%TO.N,PB12*%
X63500874Y-63500001D03*
%TO.N,PB11*%
X61950872Y-64249999D03*
D19*
%TO.N,PB10*%
X56500000Y-72487000D03*
D22*
X61798330Y-65897457D03*
D20*
%TO.N,PB2*%
X56400874Y-74800001D03*
D22*
X63500874Y-65300001D03*
D20*
%TO.N,PB1*%
X57490380Y-80909620D03*
X56700000Y-78850000D03*
%TO.N,PB0*%
X53779995Y-75892806D03*
X57450000Y-82150000D03*
D19*
%TO.N,I2C_SDA*%
X39239667Y-75339667D03*
D20*
X50540380Y-94290380D03*
D19*
%TO.N,I2C_SCL*%
X42800000Y-66325000D03*
X47170000Y-58720000D03*
X48500000Y-72800000D03*
D20*
X59000000Y-84800000D03*
%TO.N,ADC3*%
X56065380Y-80184620D03*
%TO.N,ADC2*%
X52479994Y-76150000D03*
X42050001Y-95754518D03*
%TO.N,ADC1*%
X52389135Y-79959635D03*
X42050001Y-97600000D03*
%TO.N,ADC0*%
X51388640Y-79958269D03*
X55900874Y-90700001D03*
X42150000Y-100350000D03*
D19*
%TO.N,PA14*%
X42500000Y-69900000D03*
%TO.N,PA13*%
X42900000Y-68100000D03*
%TD*%
D23*
%TO.N,+3V3*%
X34500000Y-67900000D02*
X35300000Y-67900000D01*
D24*
X50600000Y-61400000D02*
X51500000Y-62300000D01*
D25*
X39989668Y-74989668D02*
X39250000Y-74250000D01*
X39989668Y-75699668D02*
X39989668Y-74989668D01*
X39889667Y-75799669D02*
X39989668Y-75699668D01*
X39889667Y-77700000D02*
X39889667Y-75799669D01*
D24*
%TO.N,GND*%
X42020000Y-67200000D02*
X39840000Y-65020000D01*
X45300000Y-67200000D02*
X42020000Y-67200000D01*
D26*
X49620000Y-106540000D02*
X47080000Y-106540000D01*
X47080000Y-106540000D02*
X44540000Y-106540000D01*
X44540000Y-106540000D02*
X42000000Y-106540000D01*
X42000000Y-106540000D02*
X39460000Y-106540000D01*
X39460000Y-106540000D02*
X36920000Y-106540000D01*
X36920000Y-106540000D02*
X34380000Y-106540000D01*
X34380000Y-106540000D02*
X31840000Y-106540000D01*
X71340000Y-102880000D02*
X74160000Y-100060000D01*
X71340000Y-105800000D02*
X71340000Y-102880000D01*
X77519999Y-93259999D02*
X76700000Y-92440000D01*
X77429601Y-101580001D02*
X78220001Y-100789601D01*
X75680001Y-101580001D02*
X77429601Y-101580001D01*
X78220001Y-93960001D02*
X77519999Y-93259999D01*
X74160000Y-100060000D02*
X75680001Y-101580001D01*
X78220001Y-88880001D02*
X76700000Y-87360000D01*
X78220001Y-68560001D02*
X76700000Y-67040000D01*
X74160000Y-61960000D02*
X72250000Y-63870000D01*
X72250000Y-63870000D02*
X72250000Y-80370000D01*
X72627500Y-98527500D02*
X74160000Y-100060000D01*
X72627500Y-80747500D02*
X72627500Y-98527500D01*
X72250000Y-80370000D02*
X72627500Y-80747500D01*
X72627500Y-80747500D02*
X74160000Y-82280000D01*
X71440000Y-59100000D02*
X74300000Y-61960000D01*
X57600000Y-65600000D02*
X57600000Y-59100000D01*
X57600000Y-60787500D02*
X56087500Y-62300000D01*
X57600000Y-59100000D02*
X57600000Y-60787500D01*
X57100000Y-66100000D02*
X57600000Y-65600000D01*
X57100000Y-67500000D02*
X57100000Y-66100000D01*
X55900000Y-67500000D02*
X57100000Y-67500000D01*
D25*
X53300000Y-72500000D02*
X53300000Y-74300000D01*
X41215685Y-77100000D02*
X40650000Y-77100000D01*
X42015694Y-76299991D02*
X41215685Y-77100000D01*
X46637509Y-76299991D02*
X42015694Y-76299991D01*
X47625000Y-75312500D02*
X46637509Y-76299991D01*
X48100000Y-75312500D02*
X47625000Y-75312500D01*
D23*
X29500000Y-67130000D02*
X29500000Y-65300000D01*
D24*
%TO.N,NRST*%
X54512500Y-60512500D02*
X54512500Y-61500000D01*
X53100000Y-59100000D02*
X54512500Y-60512500D01*
X54525000Y-61512500D02*
X54512500Y-61500000D01*
X54525000Y-63100000D02*
X54525000Y-61512500D01*
X54525000Y-64175000D02*
X53100000Y-65600000D01*
X54525000Y-63100000D02*
X54525000Y-64175000D01*
X54512500Y-62300000D02*
X53287500Y-62300000D01*
D25*
X51850000Y-66850000D02*
X53100000Y-65600000D01*
X51850000Y-72550000D02*
X51850000Y-66850000D01*
D24*
%TO.N,OSC_IN*%
X48287500Y-85012500D02*
X48300000Y-85000000D01*
X48287500Y-86900000D02*
X48287500Y-85012500D01*
%TO.N,Net-(C19-Pad1)*%
X53100000Y-85026000D02*
X53126000Y-85000000D01*
X53100000Y-86800000D02*
X53100000Y-85026000D01*
%TO.N,PC13*%
X43900000Y-85500000D02*
X42700000Y-84300000D01*
X42700000Y-84300000D02*
X42700000Y-77500000D01*
X49300000Y-77465685D02*
X49300000Y-76900000D01*
X49115675Y-77650010D02*
X49300000Y-77465685D01*
X47618516Y-77650010D02*
X49115675Y-77650010D01*
X46743505Y-76774999D02*
X47618516Y-77650010D01*
X43425001Y-76774999D02*
X46743505Y-76774999D01*
D25*
X43399999Y-76800001D02*
X43425001Y-76800001D01*
X42700000Y-77500000D02*
X43399999Y-76800001D01*
%TO.N,BOOT0*%
X41249996Y-75500001D02*
X40650000Y-76099997D01*
X43300874Y-75500001D02*
X41249996Y-75500001D01*
%TO.N,PB7*%
X51829993Y-76462001D02*
X51829993Y-74935692D01*
X52267992Y-76900000D02*
X51829993Y-76462001D01*
X51735692Y-74935692D02*
X51100000Y-74300000D01*
X57250000Y-76900000D02*
X52267992Y-76900000D01*
X58650000Y-78300000D02*
X57250000Y-76900000D01*
X51829993Y-74935692D02*
X51735692Y-74935692D01*
X61500001Y-78299999D02*
X58650000Y-78300000D01*
X61900000Y-77900000D02*
X61500001Y-78299999D01*
%TO.N,PB6*%
X49950000Y-73915685D02*
X49950000Y-73350000D01*
X50974999Y-75285001D02*
X49950000Y-74260002D01*
X49950000Y-74260002D02*
X49950000Y-73915685D01*
X51329983Y-75639985D02*
X50544999Y-74855001D01*
X58649999Y-79049999D02*
X57000010Y-77400010D01*
X51329983Y-76669111D02*
X51329983Y-75639985D01*
X62250001Y-79049999D02*
X58649999Y-79049999D01*
X52060882Y-77400010D02*
X51329983Y-76669111D01*
X57000010Y-77400010D02*
X52060882Y-77400010D01*
X62650000Y-78650000D02*
X62250001Y-79049999D01*
%TO.N,PA12*%
X61850872Y-57749999D02*
X63500874Y-59400001D01*
X51912638Y-57749999D02*
X61850872Y-57749999D01*
X49849999Y-59812638D02*
X51912638Y-57749999D01*
X49849999Y-61749999D02*
X49849999Y-59812638D01*
X50250001Y-62150001D02*
X49849999Y-61749999D01*
X50250001Y-71268609D02*
X50250001Y-62150001D01*
X49610070Y-71908540D02*
X50250001Y-71268609D01*
%TO.N,PA11*%
X43690001Y-103150001D02*
X44540000Y-104000000D01*
X48800000Y-68600000D02*
X48800000Y-69165685D01*
X48800000Y-69165685D02*
X49010919Y-69376604D01*
X49010919Y-69376604D02*
X49133758Y-69376604D01*
X33549999Y-78539999D02*
X33549999Y-82249999D01*
X49133758Y-71466242D02*
X48550001Y-72049999D01*
X33549999Y-82249999D02*
X36860001Y-85560001D01*
X48550001Y-72049999D02*
X48139999Y-72049999D01*
X47300000Y-72889998D02*
X39200000Y-72889998D01*
X49133758Y-69376604D02*
X49133758Y-71466242D01*
X48139999Y-72049999D02*
X47300000Y-72889998D01*
X39200000Y-72889998D02*
X33549999Y-78539999D01*
X36860001Y-85560001D02*
X36860001Y-96320001D01*
X36860001Y-96320001D02*
X43690001Y-103150001D01*
%TO.N,PA10*%
X48490001Y-67699997D02*
X49500000Y-67699997D01*
X46050001Y-70139997D02*
X48490001Y-67699997D01*
X46050001Y-70760001D02*
X46050001Y-70139997D01*
X44420014Y-72389988D02*
X46050001Y-70760001D01*
X33049989Y-78332889D02*
X38992890Y-72389988D01*
X33049989Y-82457109D02*
X33049989Y-78332889D01*
X34320001Y-83727121D02*
X33049989Y-82457109D01*
X34320001Y-87336003D02*
X34320001Y-83727121D01*
X34999990Y-88015992D02*
X34320001Y-87336003D01*
X34999990Y-96999990D02*
X34999990Y-88015992D01*
X38992890Y-72389988D02*
X44420014Y-72389988D01*
X42000000Y-104000000D02*
X34999990Y-96999990D01*
%TO.N,PA9*%
X30899999Y-96499999D02*
X34380000Y-99980000D01*
X34380000Y-99980000D02*
X34380000Y-104000000D01*
X48800000Y-66900000D02*
X48310002Y-66900000D01*
X48310002Y-66900000D02*
X47260001Y-67950001D01*
X47260001Y-67950001D02*
X46649999Y-67950001D01*
X46649999Y-67950001D02*
X42710022Y-71889978D01*
X42710022Y-71889978D02*
X38785780Y-71889978D01*
X38785780Y-71889978D02*
X30899999Y-79775759D01*
X30899999Y-79775759D02*
X30899999Y-96499999D01*
%TO.N,PA8*%
X48040154Y-66308660D02*
X46681338Y-66308660D01*
X28359999Y-81608639D02*
X28359999Y-101669999D01*
X30690000Y-104000000D02*
X31840000Y-104000000D01*
X46681338Y-66308660D02*
X46149999Y-66839999D01*
X46149999Y-66839999D02*
X46149999Y-67742881D01*
X46149999Y-67742881D02*
X42502912Y-71389968D01*
X42502912Y-71389968D02*
X38578670Y-71389968D01*
X38578670Y-71389968D02*
X28359999Y-81608639D01*
X28359999Y-101669999D02*
X30690000Y-104000000D01*
D24*
%TO.N,PB10*%
X55934315Y-72487000D02*
X55747316Y-72300001D01*
X56500000Y-72487000D02*
X55934315Y-72487000D01*
X60429541Y-65897457D02*
X61798330Y-65897457D01*
X55374999Y-70951999D02*
X60429541Y-65897457D01*
X55374999Y-71927684D02*
X55374999Y-70951999D01*
X55747316Y-72300001D02*
X55374999Y-71927684D01*
D25*
%TO.N,PB2*%
X63500874Y-65609128D02*
X63500874Y-65300001D01*
X58660001Y-70450001D02*
X63500874Y-65609128D01*
X58350874Y-70450001D02*
X58660001Y-70450001D01*
X57250001Y-71550874D02*
X58350874Y-70450001D01*
X57250001Y-73950874D02*
X57250001Y-71550874D01*
X56400874Y-74800001D02*
X57250001Y-73950874D01*
%TO.N,PB1*%
X57490380Y-79390380D02*
X56950000Y-78850000D01*
X57490380Y-80909620D02*
X57490380Y-79390380D01*
X56700000Y-78850000D02*
X56950000Y-78850000D01*
%TO.N,PA7*%
X62840000Y-103600000D02*
X60300000Y-103600000D01*
%TO.N,PA6*%
X62840000Y-100000000D02*
X60300000Y-100000000D01*
%TO.N,PA5*%
X62840000Y-96400000D02*
X60300000Y-96400000D01*
%TO.N,I2C_SDA*%
X52989998Y-96500000D02*
X53200000Y-96500000D01*
X39239667Y-75339667D02*
X39239667Y-82749669D01*
X39549999Y-83060001D02*
X39239667Y-82749669D01*
X39549999Y-88749999D02*
X39549999Y-83060001D01*
X40400000Y-89600000D02*
X39549999Y-88749999D01*
X40400000Y-89600000D02*
X46400000Y-89600000D01*
X50540380Y-93740380D02*
X50540380Y-94290380D01*
X46400000Y-89600000D02*
X50540380Y-93740380D01*
D24*
%TO.N,I2C_SCL*%
X47170000Y-61955000D02*
X47170000Y-58720000D01*
X42800000Y-66325000D02*
X47170000Y-61955000D01*
D25*
X48500000Y-73365685D02*
X48500000Y-72800000D01*
X48500000Y-73517122D02*
X48500000Y-73365685D01*
X50829973Y-75847095D02*
X48500000Y-73517122D01*
X51853772Y-77900020D02*
X50829973Y-76876221D01*
X50829973Y-76876221D02*
X50829973Y-75847095D01*
X56700020Y-77900020D02*
X51853772Y-77900020D01*
X56950011Y-78150011D02*
X56700020Y-77900020D01*
X57042891Y-78150011D02*
X56950011Y-78150011D01*
X59000000Y-80107120D02*
X57042891Y-78150011D01*
X59000000Y-84800000D02*
X59000000Y-80107120D01*
%TO.N,ADC1*%
X52813399Y-79959635D02*
X53323034Y-79450000D01*
X52389135Y-79959635D02*
X52813399Y-79959635D01*
X56799999Y-79957237D02*
X56799999Y-82549999D01*
X56292762Y-79450000D02*
X56799999Y-79957237D01*
X53323034Y-79450000D02*
X56292762Y-79450000D01*
X56799999Y-82549999D02*
X57200000Y-82950000D01*
X48550000Y-97600000D02*
X42050001Y-97600000D01*
X55250873Y-90642882D02*
X55250873Y-90388000D01*
X48550000Y-97343755D02*
X55250873Y-90642882D01*
X48550000Y-97600000D02*
X48550000Y-97343755D01*
X57200000Y-88400875D02*
X57200000Y-82950000D01*
X56038872Y-89562003D02*
X57200000Y-88400875D01*
X56038872Y-89600001D02*
X55250873Y-90388000D01*
X56038872Y-89562003D02*
X56038872Y-89600001D01*
%TO.N,ADC0*%
X46798406Y-100350000D02*
X42150000Y-100350000D01*
X51999999Y-95148407D02*
X46798406Y-100350000D01*
X51999999Y-94600876D02*
X51999999Y-95148407D01*
X55900874Y-90700001D02*
X51999999Y-94600876D01*
%TO.N,PA14*%
X40040000Y-69900000D02*
X39840000Y-70100000D01*
X42500000Y-69900000D02*
X40040000Y-69900000D01*
%TO.N,PA13*%
X39840000Y-67560000D02*
X41160000Y-67560000D01*
X41500000Y-67900000D02*
X42700000Y-67900000D01*
X41160000Y-67560000D02*
X41500000Y-67900000D01*
%TD*%
D27*
%TO.N,GND*%
G36*
X50573000Y-79496005D02*
G01*
X50560054Y-79515380D01*
X50489572Y-79685540D01*
X50453640Y-79866180D01*
X50453640Y-80050358D01*
X50489572Y-80230998D01*
X50560054Y-80401158D01*
X50573000Y-80420533D01*
X50573000Y-80600000D01*
X50575440Y-80624776D01*
X50582667Y-80648601D01*
X50594403Y-80670557D01*
X50610197Y-80689803D01*
X50629443Y-80705597D01*
X50651399Y-80717333D01*
X50675224Y-80724560D01*
X50699412Y-80726999D01*
X50857264Y-80727730D01*
X50945751Y-80786855D01*
X51115911Y-80857337D01*
X51296551Y-80893269D01*
X51480729Y-80893269D01*
X51661369Y-80857337D01*
X51831529Y-80786855D01*
X51887865Y-80749212D01*
X51946246Y-80788221D01*
X52116406Y-80858703D01*
X52297046Y-80894635D01*
X52481224Y-80894635D01*
X52661864Y-80858703D01*
X52832024Y-80788221D01*
X52905086Y-80739402D01*
X52926338Y-80737309D01*
X55317557Y-80748380D01*
X55339118Y-80780648D01*
X55469352Y-80910882D01*
X55622491Y-81013206D01*
X55792651Y-81083688D01*
X55973000Y-81119562D01*
X55973000Y-87449422D01*
X55722306Y-87452245D01*
X55738312Y-87399482D01*
X55750572Y-87275000D01*
X55747500Y-87085750D01*
X55588750Y-86927000D01*
X54802000Y-86927000D01*
X54802000Y-86947000D01*
X54548000Y-86947000D01*
X54548000Y-86927000D01*
X54528000Y-86927000D01*
X54528000Y-86673000D01*
X54548000Y-86673000D01*
X54548000Y-85848750D01*
X54802000Y-85848750D01*
X54802000Y-86673000D01*
X55588750Y-86673000D01*
X55747500Y-86514250D01*
X55750572Y-86325000D01*
X55738312Y-86200518D01*
X55702002Y-86080820D01*
X55643037Y-85970506D01*
X55563685Y-85873815D01*
X55466994Y-85794463D01*
X55356680Y-85735498D01*
X55236982Y-85699188D01*
X55112500Y-85686928D01*
X54960750Y-85690000D01*
X54802000Y-85848750D01*
X54548000Y-85848750D01*
X54389250Y-85690000D01*
X54237500Y-85686928D01*
X54224092Y-85688249D01*
X54273969Y-85613602D01*
X54371619Y-85377854D01*
X54421400Y-85127586D01*
X54421400Y-84872414D01*
X54371619Y-84622146D01*
X54273969Y-84386398D01*
X54132203Y-84174231D01*
X53951769Y-83993797D01*
X53739602Y-83852031D01*
X53503854Y-83754381D01*
X53253586Y-83704600D01*
X52998414Y-83704600D01*
X52748146Y-83754381D01*
X52512398Y-83852031D01*
X52300231Y-83993797D01*
X52119797Y-84174231D01*
X51978031Y-84386398D01*
X51880381Y-84622146D01*
X51830600Y-84872414D01*
X51830600Y-85127586D01*
X51880381Y-85377854D01*
X51978031Y-85613602D01*
X52119797Y-85825769D01*
X52255790Y-85961762D01*
X52168829Y-86067725D01*
X52089650Y-86215858D01*
X52040892Y-86376592D01*
X52024428Y-86543750D01*
X52024428Y-87056250D01*
X52040892Y-87223408D01*
X52089650Y-87384142D01*
X52147569Y-87492501D01*
X49276098Y-87524838D01*
X49297850Y-87484142D01*
X49346608Y-87323408D01*
X49363072Y-87156250D01*
X49363072Y-86643750D01*
X49346608Y-86476592D01*
X49297850Y-86315858D01*
X49218671Y-86167725D01*
X49112115Y-86037885D01*
X49096963Y-86025450D01*
X49125769Y-86006203D01*
X49306203Y-85825769D01*
X49447969Y-85613602D01*
X49545619Y-85377854D01*
X49595400Y-85127586D01*
X49595400Y-84872414D01*
X49545619Y-84622146D01*
X49447969Y-84386398D01*
X49306203Y-84174231D01*
X49125769Y-83993797D01*
X48913602Y-83852031D01*
X48677854Y-83754381D01*
X48427586Y-83704600D01*
X48172414Y-83704600D01*
X47922146Y-83754381D01*
X47686398Y-83852031D01*
X47474231Y-83993797D01*
X47293797Y-84174231D01*
X47152031Y-84386398D01*
X47054381Y-84622146D01*
X47004600Y-84872414D01*
X47004600Y-85127586D01*
X47054381Y-85377854D01*
X47152031Y-85613602D01*
X47276431Y-85799779D01*
X47274482Y-85799188D01*
X47150000Y-85786928D01*
X46998250Y-85790000D01*
X46839500Y-85948750D01*
X46839500Y-86773000D01*
X46859500Y-86773000D01*
X46859500Y-87027000D01*
X46839500Y-87027000D01*
X46839500Y-87047000D01*
X46585500Y-87047000D01*
X46585500Y-87027000D01*
X45798750Y-87027000D01*
X45640000Y-87185750D01*
X45636928Y-87375000D01*
X45649188Y-87499482D01*
X45669201Y-87565456D01*
X45127000Y-87571562D01*
X45127000Y-86425000D01*
X45636928Y-86425000D01*
X45640000Y-86614250D01*
X45798750Y-86773000D01*
X46585500Y-86773000D01*
X46585500Y-85948750D01*
X46426750Y-85790000D01*
X46275000Y-85786928D01*
X46150518Y-85799188D01*
X46030820Y-85835498D01*
X45920506Y-85894463D01*
X45823815Y-85973815D01*
X45744463Y-86070506D01*
X45685498Y-86180820D01*
X45649188Y-86300518D01*
X45636928Y-86425000D01*
X45127000Y-86425000D01*
X45127000Y-84317126D01*
X45129717Y-84316586D01*
X45397822Y-84205533D01*
X45639110Y-84044309D01*
X45844309Y-83839110D01*
X45986037Y-83627000D01*
X46900000Y-83627000D01*
X46924776Y-83624560D01*
X46948601Y-83617333D01*
X46970557Y-83605597D01*
X46989803Y-83589803D01*
X47005597Y-83570557D01*
X47017333Y-83548601D01*
X47024560Y-83524776D01*
X47027000Y-83500000D01*
X47027000Y-82527000D01*
X49800000Y-82527000D01*
X49824776Y-82524560D01*
X49848601Y-82517333D01*
X49870557Y-82505597D01*
X49889803Y-82489803D01*
X49905597Y-82470557D01*
X49917333Y-82448601D01*
X49924560Y-82424776D01*
X49927000Y-82400000D01*
X49927000Y-77927000D01*
X50573000Y-77927000D01*
X50573000Y-79496005D01*
G37*
X50573000Y-79496005D02*
X50560054Y-79515380D01*
X50489572Y-79685540D01*
X50453640Y-79866180D01*
X50453640Y-80050358D01*
X50489572Y-80230998D01*
X50560054Y-80401158D01*
X50573000Y-80420533D01*
X50573000Y-80600000D01*
X50575440Y-80624776D01*
X50582667Y-80648601D01*
X50594403Y-80670557D01*
X50610197Y-80689803D01*
X50629443Y-80705597D01*
X50651399Y-80717333D01*
X50675224Y-80724560D01*
X50699412Y-80726999D01*
X50857264Y-80727730D01*
X50945751Y-80786855D01*
X51115911Y-80857337D01*
X51296551Y-80893269D01*
X51480729Y-80893269D01*
X51661369Y-80857337D01*
X51831529Y-80786855D01*
X51887865Y-80749212D01*
X51946246Y-80788221D01*
X52116406Y-80858703D01*
X52297046Y-80894635D01*
X52481224Y-80894635D01*
X52661864Y-80858703D01*
X52832024Y-80788221D01*
X52905086Y-80739402D01*
X52926338Y-80737309D01*
X55317557Y-80748380D01*
X55339118Y-80780648D01*
X55469352Y-80910882D01*
X55622491Y-81013206D01*
X55792651Y-81083688D01*
X55973000Y-81119562D01*
X55973000Y-87449422D01*
X55722306Y-87452245D01*
X55738312Y-87399482D01*
X55750572Y-87275000D01*
X55747500Y-87085750D01*
X55588750Y-86927000D01*
X54802000Y-86927000D01*
X54802000Y-86947000D01*
X54548000Y-86947000D01*
X54548000Y-86927000D01*
X54528000Y-86927000D01*
X54528000Y-86673000D01*
X54548000Y-86673000D01*
X54548000Y-85848750D01*
X54802000Y-85848750D01*
X54802000Y-86673000D01*
X55588750Y-86673000D01*
X55747500Y-86514250D01*
X55750572Y-86325000D01*
X55738312Y-86200518D01*
X55702002Y-86080820D01*
X55643037Y-85970506D01*
X55563685Y-85873815D01*
X55466994Y-85794463D01*
X55356680Y-85735498D01*
X55236982Y-85699188D01*
X55112500Y-85686928D01*
X54960750Y-85690000D01*
X54802000Y-85848750D01*
X54548000Y-85848750D01*
X54389250Y-85690000D01*
X54237500Y-85686928D01*
X54224092Y-85688249D01*
X54273969Y-85613602D01*
X54371619Y-85377854D01*
X54421400Y-85127586D01*
X54421400Y-84872414D01*
X54371619Y-84622146D01*
X54273969Y-84386398D01*
X54132203Y-84174231D01*
X53951769Y-83993797D01*
X53739602Y-83852031D01*
X53503854Y-83754381D01*
X53253586Y-83704600D01*
X52998414Y-83704600D01*
X52748146Y-83754381D01*
X52512398Y-83852031D01*
X52300231Y-83993797D01*
X52119797Y-84174231D01*
X51978031Y-84386398D01*
X51880381Y-84622146D01*
X51830600Y-84872414D01*
X51830600Y-85127586D01*
X51880381Y-85377854D01*
X51978031Y-85613602D01*
X52119797Y-85825769D01*
X52255790Y-85961762D01*
X52168829Y-86067725D01*
X52089650Y-86215858D01*
X52040892Y-86376592D01*
X52024428Y-86543750D01*
X52024428Y-87056250D01*
X52040892Y-87223408D01*
X52089650Y-87384142D01*
X52147569Y-87492501D01*
X49276098Y-87524838D01*
X49297850Y-87484142D01*
X49346608Y-87323408D01*
X49363072Y-87156250D01*
X49363072Y-86643750D01*
X49346608Y-86476592D01*
X49297850Y-86315858D01*
X49218671Y-86167725D01*
X49112115Y-86037885D01*
X49096963Y-86025450D01*
X49125769Y-86006203D01*
X49306203Y-85825769D01*
X49447969Y-85613602D01*
X49545619Y-85377854D01*
X49595400Y-85127586D01*
X49595400Y-84872414D01*
X49545619Y-84622146D01*
X49447969Y-84386398D01*
X49306203Y-84174231D01*
X49125769Y-83993797D01*
X48913602Y-83852031D01*
X48677854Y-83754381D01*
X48427586Y-83704600D01*
X48172414Y-83704600D01*
X47922146Y-83754381D01*
X47686398Y-83852031D01*
X47474231Y-83993797D01*
X47293797Y-84174231D01*
X47152031Y-84386398D01*
X47054381Y-84622146D01*
X47004600Y-84872414D01*
X47004600Y-85127586D01*
X47054381Y-85377854D01*
X47152031Y-85613602D01*
X47276431Y-85799779D01*
X47274482Y-85799188D01*
X47150000Y-85786928D01*
X46998250Y-85790000D01*
X46839500Y-85948750D01*
X46839500Y-86773000D01*
X46859500Y-86773000D01*
X46859500Y-87027000D01*
X46839500Y-87027000D01*
X46839500Y-87047000D01*
X46585500Y-87047000D01*
X46585500Y-87027000D01*
X45798750Y-87027000D01*
X45640000Y-87185750D01*
X45636928Y-87375000D01*
X45649188Y-87499482D01*
X45669201Y-87565456D01*
X45127000Y-87571562D01*
X45127000Y-86425000D01*
X45636928Y-86425000D01*
X45640000Y-86614250D01*
X45798750Y-86773000D01*
X46585500Y-86773000D01*
X46585500Y-85948750D01*
X46426750Y-85790000D01*
X46275000Y-85786928D01*
X46150518Y-85799188D01*
X46030820Y-85835498D01*
X45920506Y-85894463D01*
X45823815Y-85973815D01*
X45744463Y-86070506D01*
X45685498Y-86180820D01*
X45649188Y-86300518D01*
X45636928Y-86425000D01*
X45127000Y-86425000D01*
X45127000Y-84317126D01*
X45129717Y-84316586D01*
X45397822Y-84205533D01*
X45639110Y-84044309D01*
X45844309Y-83839110D01*
X45986037Y-83627000D01*
X46900000Y-83627000D01*
X46924776Y-83624560D01*
X46948601Y-83617333D01*
X46970557Y-83605597D01*
X46989803Y-83589803D01*
X47005597Y-83570557D01*
X47017333Y-83548601D01*
X47024560Y-83524776D01*
X47027000Y-83500000D01*
X47027000Y-82527000D01*
X49800000Y-82527000D01*
X49824776Y-82524560D01*
X49848601Y-82517333D01*
X49870557Y-82505597D01*
X49889803Y-82489803D01*
X49905597Y-82470557D01*
X49917333Y-82448601D01*
X49924560Y-82424776D01*
X49927000Y-82400000D01*
X49927000Y-77927000D01*
X50573000Y-77927000D01*
X50573000Y-79496005D01*
G36*
X77151010Y-44117192D02*
G01*
X77681036Y-44277216D01*
X78169879Y-44537140D01*
X78598931Y-44887065D01*
X78951844Y-45313664D01*
X79215173Y-45800681D01*
X79378894Y-46329578D01*
X79440000Y-46910960D01*
X79440001Y-85967581D01*
X79440000Y-104867721D01*
X79382808Y-105451010D01*
X79222783Y-105981036D01*
X78962860Y-106469880D01*
X78612935Y-106898931D01*
X78186335Y-107251845D01*
X77699320Y-107515173D01*
X77170422Y-107678894D01*
X76589040Y-107740000D01*
X64777254Y-107740000D01*
X64778327Y-104950000D01*
X67311928Y-104950000D01*
X67311928Y-106650000D01*
X67324188Y-106774482D01*
X67360498Y-106894180D01*
X67419463Y-107004494D01*
X67498815Y-107101185D01*
X67595506Y-107180537D01*
X67705820Y-107239502D01*
X67825518Y-107275812D01*
X67950000Y-107288072D01*
X69650000Y-107288072D01*
X69774482Y-107275812D01*
X69894180Y-107239502D01*
X70004494Y-107180537D01*
X70101185Y-107101185D01*
X70180537Y-107004494D01*
X70239502Y-106894180D01*
X70275812Y-106774482D01*
X70288072Y-106650000D01*
X70288072Y-104950000D01*
X70275812Y-104825518D01*
X70265334Y-104790976D01*
X74210000Y-104790976D01*
X74210000Y-105049024D01*
X74260342Y-105302113D01*
X74359093Y-105540518D01*
X74502456Y-105755077D01*
X74684923Y-105937544D01*
X74899482Y-106080907D01*
X75137887Y-106179658D01*
X75390976Y-106230000D01*
X75649024Y-106230000D01*
X75902113Y-106179658D01*
X76140518Y-106080907D01*
X76355077Y-105937544D01*
X76537544Y-105755077D01*
X76680907Y-105540518D01*
X76779658Y-105302113D01*
X76830000Y-105049024D01*
X76830000Y-104790976D01*
X76779658Y-104537887D01*
X76680907Y-104299482D01*
X76537544Y-104084923D01*
X76355077Y-103902456D01*
X76140518Y-103759093D01*
X75902113Y-103660342D01*
X75649024Y-103610000D01*
X75390976Y-103610000D01*
X75137887Y-103660342D01*
X74899482Y-103759093D01*
X74684923Y-103902456D01*
X74502456Y-104084923D01*
X74359093Y-104299482D01*
X74260342Y-104537887D01*
X74210000Y-104790976D01*
X70265334Y-104790976D01*
X70239502Y-104705820D01*
X70180537Y-104595506D01*
X70101185Y-104498815D01*
X70004494Y-104419463D01*
X69894180Y-104360498D01*
X69774482Y-104324188D01*
X69650000Y-104311928D01*
X67950000Y-104311928D01*
X67825518Y-104324188D01*
X67705820Y-104360498D01*
X67595506Y-104419463D01*
X67498815Y-104498815D01*
X67419463Y-104595506D01*
X67360498Y-104705820D01*
X67324188Y-104825518D01*
X67311928Y-104950000D01*
X64778327Y-104950000D01*
X64799088Y-50970000D01*
X72791928Y-50970000D01*
X72791928Y-52610000D01*
X72804188Y-52734482D01*
X72840498Y-52854180D01*
X72899463Y-52964494D01*
X72978815Y-53061185D01*
X73075506Y-53140537D01*
X73185820Y-53199502D01*
X73290932Y-53231388D01*
X73119828Y-53402492D01*
X72960596Y-53640799D01*
X72850915Y-53905592D01*
X72795000Y-54186695D01*
X72795000Y-54473305D01*
X72850915Y-54754408D01*
X72960596Y-55019201D01*
X73119828Y-55257508D01*
X73322492Y-55460172D01*
X73531759Y-55600000D01*
X73322492Y-55739828D01*
X73119828Y-55942492D01*
X72960596Y-56180799D01*
X72850915Y-56445592D01*
X72795000Y-56726695D01*
X72795000Y-57013305D01*
X72850915Y-57294408D01*
X72960596Y-57559201D01*
X73119828Y-57797508D01*
X73322492Y-58000172D01*
X73531759Y-58140000D01*
X73322492Y-58279828D01*
X73119828Y-58482492D01*
X72960596Y-58720799D01*
X72850915Y-58985592D01*
X72795000Y-59266695D01*
X72795000Y-59553305D01*
X72850915Y-59834408D01*
X72960596Y-60099201D01*
X73119828Y-60337508D01*
X73322492Y-60540172D01*
X73560799Y-60699404D01*
X73825592Y-60809085D01*
X74106695Y-60865000D01*
X74393305Y-60865000D01*
X74674408Y-60809085D01*
X74939201Y-60699404D01*
X75177508Y-60540172D01*
X75380172Y-60337508D01*
X75520000Y-60128241D01*
X75659828Y-60337508D01*
X75862492Y-60540172D01*
X76071759Y-60680000D01*
X75862492Y-60819828D01*
X75659828Y-61022492D01*
X75500596Y-61260799D01*
X75390915Y-61525592D01*
X75335000Y-61806695D01*
X75335000Y-62093305D01*
X75390915Y-62374408D01*
X75500596Y-62639201D01*
X75659828Y-62877508D01*
X75862492Y-63080172D01*
X76071759Y-63220000D01*
X75862492Y-63359828D01*
X75659828Y-63562492D01*
X75520000Y-63771759D01*
X75380172Y-63562492D01*
X75177508Y-63359828D01*
X74939201Y-63200596D01*
X74674408Y-63090915D01*
X74393305Y-63035000D01*
X74106695Y-63035000D01*
X73825592Y-63090915D01*
X73560799Y-63200596D01*
X73322492Y-63359828D01*
X73119828Y-63562492D01*
X72960596Y-63800799D01*
X72850915Y-64065592D01*
X72795000Y-64346695D01*
X72795000Y-64633305D01*
X72850915Y-64914408D01*
X72960596Y-65179201D01*
X73119828Y-65417508D01*
X73322492Y-65620172D01*
X73531759Y-65760000D01*
X73322492Y-65899828D01*
X73119828Y-66102492D01*
X72960596Y-66340799D01*
X72850915Y-66605592D01*
X72795000Y-66886695D01*
X72795000Y-67173305D01*
X72850915Y-67454408D01*
X72960596Y-67719201D01*
X73119828Y-67957508D01*
X73322492Y-68160172D01*
X73531759Y-68300000D01*
X73322492Y-68439828D01*
X73119828Y-68642492D01*
X72960596Y-68880799D01*
X72850915Y-69145592D01*
X72795000Y-69426695D01*
X72795000Y-69713305D01*
X72850915Y-69994408D01*
X72960596Y-70259201D01*
X73119828Y-70497508D01*
X73322492Y-70700172D01*
X73531759Y-70840000D01*
X73322492Y-70979828D01*
X73119828Y-71182492D01*
X72960596Y-71420799D01*
X72850915Y-71685592D01*
X72795000Y-71966695D01*
X72795000Y-72253305D01*
X72850915Y-72534408D01*
X72960596Y-72799201D01*
X73119828Y-73037508D01*
X73322492Y-73240172D01*
X73531759Y-73380000D01*
X73322492Y-73519828D01*
X73119828Y-73722492D01*
X72960596Y-73960799D01*
X72850915Y-74225592D01*
X72795000Y-74506695D01*
X72795000Y-74793305D01*
X72850915Y-75074408D01*
X72960596Y-75339201D01*
X73119828Y-75577508D01*
X73322492Y-75780172D01*
X73531759Y-75920000D01*
X73322492Y-76059828D01*
X73119828Y-76262492D01*
X72960596Y-76500799D01*
X72850915Y-76765592D01*
X72795000Y-77046695D01*
X72795000Y-77333305D01*
X72850915Y-77614408D01*
X72960596Y-77879201D01*
X73119828Y-78117508D01*
X73322492Y-78320172D01*
X73531759Y-78460000D01*
X73322492Y-78599828D01*
X73119828Y-78802492D01*
X72960596Y-79040799D01*
X72850915Y-79305592D01*
X72795000Y-79586695D01*
X72795000Y-79873305D01*
X72850915Y-80154408D01*
X72960596Y-80419201D01*
X73119828Y-80657508D01*
X73322492Y-80860172D01*
X73560799Y-81019404D01*
X73825592Y-81129085D01*
X74106695Y-81185000D01*
X74393305Y-81185000D01*
X74674408Y-81129085D01*
X74939201Y-81019404D01*
X75177508Y-80860172D01*
X75380172Y-80657508D01*
X75520000Y-80448241D01*
X75659828Y-80657508D01*
X75862492Y-80860172D01*
X76071759Y-81000000D01*
X75862492Y-81139828D01*
X75659828Y-81342492D01*
X75500596Y-81580799D01*
X75390915Y-81845592D01*
X75335000Y-82126695D01*
X75335000Y-82413305D01*
X75390915Y-82694408D01*
X75500596Y-82959201D01*
X75659828Y-83197508D01*
X75862492Y-83400172D01*
X76071759Y-83540000D01*
X75862492Y-83679828D01*
X75659828Y-83882492D01*
X75520000Y-84091759D01*
X75380172Y-83882492D01*
X75177508Y-83679828D01*
X74939201Y-83520596D01*
X74674408Y-83410915D01*
X74393305Y-83355000D01*
X74106695Y-83355000D01*
X73825592Y-83410915D01*
X73560799Y-83520596D01*
X73322492Y-83679828D01*
X73119828Y-83882492D01*
X72960596Y-84120799D01*
X72850915Y-84385592D01*
X72795000Y-84666695D01*
X72795000Y-84953305D01*
X72850915Y-85234408D01*
X72960596Y-85499201D01*
X73119828Y-85737508D01*
X73322492Y-85940172D01*
X73531759Y-86080000D01*
X73322492Y-86219828D01*
X73119828Y-86422492D01*
X72960596Y-86660799D01*
X72850915Y-86925592D01*
X72795000Y-87206695D01*
X72795000Y-87493305D01*
X72850915Y-87774408D01*
X72960596Y-88039201D01*
X73119828Y-88277508D01*
X73322492Y-88480172D01*
X73531759Y-88620000D01*
X73322492Y-88759828D01*
X73119828Y-88962492D01*
X72960596Y-89200799D01*
X72850915Y-89465592D01*
X72795000Y-89746695D01*
X72795000Y-90033305D01*
X72850915Y-90314408D01*
X72960596Y-90579201D01*
X73119828Y-90817508D01*
X73322492Y-91020172D01*
X73531759Y-91160000D01*
X73322492Y-91299828D01*
X73119828Y-91502492D01*
X72960596Y-91740799D01*
X72850915Y-92005592D01*
X72795000Y-92286695D01*
X72795000Y-92573305D01*
X72850915Y-92854408D01*
X72960596Y-93119201D01*
X73119828Y-93357508D01*
X73322492Y-93560172D01*
X73531759Y-93700000D01*
X73322492Y-93839828D01*
X73119828Y-94042492D01*
X72960596Y-94280799D01*
X72850915Y-94545592D01*
X72795000Y-94826695D01*
X72795000Y-95113305D01*
X72850915Y-95394408D01*
X72960596Y-95659201D01*
X73119828Y-95897508D01*
X73322492Y-96100172D01*
X73531759Y-96240000D01*
X73322492Y-96379828D01*
X73119828Y-96582492D01*
X72960596Y-96820799D01*
X72850915Y-97085592D01*
X72795000Y-97366695D01*
X72795000Y-97653305D01*
X72850915Y-97934408D01*
X72960596Y-98199201D01*
X73119828Y-98437508D01*
X73322492Y-98640172D01*
X73560799Y-98799404D01*
X73825592Y-98909085D01*
X74106695Y-98965000D01*
X74393305Y-98965000D01*
X74674408Y-98909085D01*
X74939201Y-98799404D01*
X75177508Y-98640172D01*
X75380172Y-98437508D01*
X75520000Y-98228241D01*
X75659828Y-98437508D01*
X75862492Y-98640172D01*
X76071759Y-98780000D01*
X75862492Y-98919828D01*
X75659828Y-99122492D01*
X75500596Y-99360799D01*
X75390915Y-99625592D01*
X75335000Y-99906695D01*
X75335000Y-100193305D01*
X75390915Y-100474408D01*
X75500596Y-100739201D01*
X75659828Y-100977508D01*
X75862492Y-101180172D01*
X76100799Y-101339404D01*
X76365592Y-101449085D01*
X76646695Y-101505000D01*
X76933305Y-101505000D01*
X77214408Y-101449085D01*
X77479201Y-101339404D01*
X77717508Y-101180172D01*
X77920172Y-100977508D01*
X78079404Y-100739201D01*
X78189085Y-100474408D01*
X78245000Y-100193305D01*
X78245000Y-99906695D01*
X78189085Y-99625592D01*
X78079404Y-99360799D01*
X77920172Y-99122492D01*
X77717508Y-98919828D01*
X77508241Y-98780000D01*
X77717508Y-98640172D01*
X77920172Y-98437508D01*
X78079404Y-98199201D01*
X78189085Y-97934408D01*
X78245000Y-97653305D01*
X78245000Y-97366695D01*
X78189085Y-97085592D01*
X78079404Y-96820799D01*
X77920172Y-96582492D01*
X77717508Y-96379828D01*
X77508241Y-96240000D01*
X77717508Y-96100172D01*
X77920172Y-95897508D01*
X78079404Y-95659201D01*
X78189085Y-95394408D01*
X78245000Y-95113305D01*
X78245000Y-94826695D01*
X78189085Y-94545592D01*
X78079404Y-94280799D01*
X77920172Y-94042492D01*
X77717508Y-93839828D01*
X77479201Y-93680596D01*
X77214408Y-93570915D01*
X76933305Y-93515000D01*
X76646695Y-93515000D01*
X76365592Y-93570915D01*
X76100799Y-93680596D01*
X75862492Y-93839828D01*
X75659828Y-94042492D01*
X75520000Y-94251759D01*
X75380172Y-94042492D01*
X75177508Y-93839828D01*
X74968241Y-93700000D01*
X75177508Y-93560172D01*
X75380172Y-93357508D01*
X75539404Y-93119201D01*
X75649085Y-92854408D01*
X75705000Y-92573305D01*
X75705000Y-92286695D01*
X75649085Y-92005592D01*
X75539404Y-91740799D01*
X75380172Y-91502492D01*
X75177508Y-91299828D01*
X74968241Y-91160000D01*
X75177508Y-91020172D01*
X75380172Y-90817508D01*
X75520000Y-90608241D01*
X75659828Y-90817508D01*
X75862492Y-91020172D01*
X76100799Y-91179404D01*
X76365592Y-91289085D01*
X76646695Y-91345000D01*
X76933305Y-91345000D01*
X77214408Y-91289085D01*
X77479201Y-91179404D01*
X77717508Y-91020172D01*
X77920172Y-90817508D01*
X78079404Y-90579201D01*
X78189085Y-90314408D01*
X78245000Y-90033305D01*
X78245000Y-89746695D01*
X78189085Y-89465592D01*
X78079404Y-89200799D01*
X77920172Y-88962492D01*
X77717508Y-88759828D01*
X77479201Y-88600596D01*
X77214408Y-88490915D01*
X76933305Y-88435000D01*
X76646695Y-88435000D01*
X76365592Y-88490915D01*
X76100799Y-88600596D01*
X75862492Y-88759828D01*
X75659828Y-88962492D01*
X75520000Y-89171759D01*
X75380172Y-88962492D01*
X75177508Y-88759828D01*
X74968241Y-88620000D01*
X75177508Y-88480172D01*
X75380172Y-88277508D01*
X75539404Y-88039201D01*
X75649085Y-87774408D01*
X75705000Y-87493305D01*
X75705000Y-87206695D01*
X75649085Y-86925592D01*
X75539404Y-86660799D01*
X75380172Y-86422492D01*
X75177508Y-86219828D01*
X74968241Y-86080000D01*
X75177508Y-85940172D01*
X75380172Y-85737508D01*
X75520000Y-85528241D01*
X75659828Y-85737508D01*
X75862492Y-85940172D01*
X76100799Y-86099404D01*
X76365592Y-86209085D01*
X76646695Y-86265000D01*
X76933305Y-86265000D01*
X77214408Y-86209085D01*
X77479201Y-86099404D01*
X77717508Y-85940172D01*
X77920172Y-85737508D01*
X78079404Y-85499201D01*
X78189085Y-85234408D01*
X78245000Y-84953305D01*
X78245000Y-84666695D01*
X78189085Y-84385592D01*
X78079404Y-84120799D01*
X77920172Y-83882492D01*
X77717508Y-83679828D01*
X77508241Y-83540000D01*
X77717508Y-83400172D01*
X77920172Y-83197508D01*
X78079404Y-82959201D01*
X78189085Y-82694408D01*
X78245000Y-82413305D01*
X78245000Y-82126695D01*
X78189085Y-81845592D01*
X78079404Y-81580799D01*
X77920172Y-81342492D01*
X77717508Y-81139828D01*
X77508241Y-81000000D01*
X77717508Y-80860172D01*
X77920172Y-80657508D01*
X78079404Y-80419201D01*
X78189085Y-80154408D01*
X78245000Y-79873305D01*
X78245000Y-79586695D01*
X78189085Y-79305592D01*
X78079404Y-79040799D01*
X77920172Y-78802492D01*
X77717508Y-78599828D01*
X77508241Y-78460000D01*
X77717508Y-78320172D01*
X77920172Y-78117508D01*
X78079404Y-77879201D01*
X78189085Y-77614408D01*
X78245000Y-77333305D01*
X78245000Y-77046695D01*
X78189085Y-76765592D01*
X78079404Y-76500799D01*
X77920172Y-76262492D01*
X77717508Y-76059828D01*
X77479201Y-75900596D01*
X77214408Y-75790915D01*
X76933305Y-75735000D01*
X76646695Y-75735000D01*
X76365592Y-75790915D01*
X76100799Y-75900596D01*
X75862492Y-76059828D01*
X75659828Y-76262492D01*
X75520000Y-76471759D01*
X75380172Y-76262492D01*
X75177508Y-76059828D01*
X74968241Y-75920000D01*
X75177508Y-75780172D01*
X75380172Y-75577508D01*
X75539404Y-75339201D01*
X75649085Y-75074408D01*
X75705000Y-74793305D01*
X75705000Y-74506695D01*
X75649085Y-74225592D01*
X75539404Y-73960799D01*
X75380172Y-73722492D01*
X75177508Y-73519828D01*
X74968241Y-73380000D01*
X75177508Y-73240172D01*
X75380172Y-73037508D01*
X75520000Y-72828241D01*
X75659828Y-73037508D01*
X75862492Y-73240172D01*
X76100799Y-73399404D01*
X76365592Y-73509085D01*
X76646695Y-73565000D01*
X76933305Y-73565000D01*
X77214408Y-73509085D01*
X77479201Y-73399404D01*
X77717508Y-73240172D01*
X77920172Y-73037508D01*
X78079404Y-72799201D01*
X78189085Y-72534408D01*
X78245000Y-72253305D01*
X78245000Y-71966695D01*
X78189085Y-71685592D01*
X78079404Y-71420799D01*
X77920172Y-71182492D01*
X77717508Y-70979828D01*
X77508241Y-70840000D01*
X77717508Y-70700172D01*
X77920172Y-70497508D01*
X78079404Y-70259201D01*
X78189085Y-69994408D01*
X78245000Y-69713305D01*
X78245000Y-69426695D01*
X78189085Y-69145592D01*
X78079404Y-68880799D01*
X77920172Y-68642492D01*
X77717508Y-68439828D01*
X77479201Y-68280596D01*
X77214408Y-68170915D01*
X76933305Y-68115000D01*
X76646695Y-68115000D01*
X76365592Y-68170915D01*
X76100799Y-68280596D01*
X75862492Y-68439828D01*
X75659828Y-68642492D01*
X75520000Y-68851759D01*
X75380172Y-68642492D01*
X75177508Y-68439828D01*
X74968241Y-68300000D01*
X75177508Y-68160172D01*
X75380172Y-67957508D01*
X75539404Y-67719201D01*
X75649085Y-67454408D01*
X75705000Y-67173305D01*
X75705000Y-66886695D01*
X75649085Y-66605592D01*
X75539404Y-66340799D01*
X75380172Y-66102492D01*
X75177508Y-65899828D01*
X74968241Y-65760000D01*
X75177508Y-65620172D01*
X75380172Y-65417508D01*
X75520000Y-65208241D01*
X75659828Y-65417508D01*
X75862492Y-65620172D01*
X76100799Y-65779404D01*
X76365592Y-65889085D01*
X76646695Y-65945000D01*
X76933305Y-65945000D01*
X77214408Y-65889085D01*
X77479201Y-65779404D01*
X77717508Y-65620172D01*
X77920172Y-65417508D01*
X78079404Y-65179201D01*
X78189085Y-64914408D01*
X78245000Y-64633305D01*
X78245000Y-64346695D01*
X78189085Y-64065592D01*
X78079404Y-63800799D01*
X77920172Y-63562492D01*
X77717508Y-63359828D01*
X77508241Y-63220000D01*
X77717508Y-63080172D01*
X77920172Y-62877508D01*
X78079404Y-62639201D01*
X78189085Y-62374408D01*
X78245000Y-62093305D01*
X78245000Y-61806695D01*
X78189085Y-61525592D01*
X78079404Y-61260799D01*
X77920172Y-61022492D01*
X77717508Y-60819828D01*
X77508241Y-60680000D01*
X77717508Y-60540172D01*
X77920172Y-60337508D01*
X78079404Y-60099201D01*
X78189085Y-59834408D01*
X78245000Y-59553305D01*
X78245000Y-59266695D01*
X78189085Y-58985592D01*
X78079404Y-58720799D01*
X77920172Y-58482492D01*
X77717508Y-58279828D01*
X77479201Y-58120596D01*
X77214408Y-58010915D01*
X76933305Y-57955000D01*
X76646695Y-57955000D01*
X76365592Y-58010915D01*
X76100799Y-58120596D01*
X75862492Y-58279828D01*
X75659828Y-58482492D01*
X75520000Y-58691759D01*
X75380172Y-58482492D01*
X75177508Y-58279828D01*
X74968241Y-58140000D01*
X75177508Y-58000172D01*
X75380172Y-57797508D01*
X75539404Y-57559201D01*
X75649085Y-57294408D01*
X75705000Y-57013305D01*
X75705000Y-56726695D01*
X75649085Y-56445592D01*
X75539404Y-56180799D01*
X75380172Y-55942492D01*
X75177508Y-55739828D01*
X74968241Y-55600000D01*
X75177508Y-55460172D01*
X75380172Y-55257508D01*
X75520000Y-55048241D01*
X75659828Y-55257508D01*
X75862492Y-55460172D01*
X76100799Y-55619404D01*
X76365592Y-55729085D01*
X76646695Y-55785000D01*
X76933305Y-55785000D01*
X77214408Y-55729085D01*
X77479201Y-55619404D01*
X77717508Y-55460172D01*
X77920172Y-55257508D01*
X78079404Y-55019201D01*
X78189085Y-54754408D01*
X78245000Y-54473305D01*
X78245000Y-54186695D01*
X78189085Y-53905592D01*
X78079404Y-53640799D01*
X77920172Y-53402492D01*
X77717508Y-53199828D01*
X77508241Y-53060000D01*
X77717508Y-52920172D01*
X77920172Y-52717508D01*
X78079404Y-52479201D01*
X78189085Y-52214408D01*
X78245000Y-51933305D01*
X78245000Y-51646695D01*
X78189085Y-51365592D01*
X78079404Y-51100799D01*
X77920172Y-50862492D01*
X77717508Y-50659828D01*
X77479201Y-50500596D01*
X77214408Y-50390915D01*
X76933305Y-50335000D01*
X76646695Y-50335000D01*
X76365592Y-50390915D01*
X76100799Y-50500596D01*
X75862492Y-50659828D01*
X75691388Y-50830932D01*
X75659502Y-50725820D01*
X75600537Y-50615506D01*
X75521185Y-50518815D01*
X75424494Y-50439463D01*
X75314180Y-50380498D01*
X75194482Y-50344188D01*
X75070000Y-50331928D01*
X73430000Y-50331928D01*
X73305518Y-50344188D01*
X73185820Y-50380498D01*
X73075506Y-50439463D01*
X72978815Y-50518815D01*
X72899463Y-50615506D01*
X72840498Y-50725820D01*
X72804188Y-50845518D01*
X72791928Y-50970000D01*
X64799088Y-50970000D01*
X64800695Y-46790976D01*
X74210000Y-46790976D01*
X74210000Y-47049024D01*
X74260342Y-47302113D01*
X74359093Y-47540518D01*
X74502456Y-47755077D01*
X74684923Y-47937544D01*
X74899482Y-48080907D01*
X75137887Y-48179658D01*
X75390976Y-48230000D01*
X75649024Y-48230000D01*
X75902113Y-48179658D01*
X76140518Y-48080907D01*
X76355077Y-47937544D01*
X76537544Y-47755077D01*
X76680907Y-47540518D01*
X76779658Y-47302113D01*
X76830000Y-47049024D01*
X76830000Y-46790976D01*
X76779658Y-46537887D01*
X76680907Y-46299482D01*
X76537544Y-46084923D01*
X76355077Y-45902456D01*
X76140518Y-45759093D01*
X75902113Y-45660342D01*
X75649024Y-45610000D01*
X75390976Y-45610000D01*
X75137887Y-45660342D01*
X74899482Y-45759093D01*
X74684923Y-45902456D01*
X74502456Y-46084923D01*
X74359093Y-46299482D01*
X74260342Y-46537887D01*
X74210000Y-46790976D01*
X64800695Y-46790976D01*
X64801746Y-44060000D01*
X76567721Y-44060000D01*
X77151010Y-44117192D01*
G37*
X77151010Y-44117192D02*
X77681036Y-44277216D01*
X78169879Y-44537140D01*
X78598931Y-44887065D01*
X78951844Y-45313664D01*
X79215173Y-45800681D01*
X79378894Y-46329578D01*
X79440000Y-46910960D01*
X79440001Y-85967581D01*
X79440000Y-104867721D01*
X79382808Y-105451010D01*
X79222783Y-105981036D01*
X78962860Y-106469880D01*
X78612935Y-106898931D01*
X78186335Y-107251845D01*
X77699320Y-107515173D01*
X77170422Y-107678894D01*
X76589040Y-107740000D01*
X64777254Y-107740000D01*
X64778327Y-104950000D01*
X67311928Y-104950000D01*
X67311928Y-106650000D01*
X67324188Y-106774482D01*
X67360498Y-106894180D01*
X67419463Y-107004494D01*
X67498815Y-107101185D01*
X67595506Y-107180537D01*
X67705820Y-107239502D01*
X67825518Y-107275812D01*
X67950000Y-107288072D01*
X69650000Y-107288072D01*
X69774482Y-107275812D01*
X69894180Y-107239502D01*
X70004494Y-107180537D01*
X70101185Y-107101185D01*
X70180537Y-107004494D01*
X70239502Y-106894180D01*
X70275812Y-106774482D01*
X70288072Y-106650000D01*
X70288072Y-104950000D01*
X70275812Y-104825518D01*
X70265334Y-104790976D01*
X74210000Y-104790976D01*
X74210000Y-105049024D01*
X74260342Y-105302113D01*
X74359093Y-105540518D01*
X74502456Y-105755077D01*
X74684923Y-105937544D01*
X74899482Y-106080907D01*
X75137887Y-106179658D01*
X75390976Y-106230000D01*
X75649024Y-106230000D01*
X75902113Y-106179658D01*
X76140518Y-106080907D01*
X76355077Y-105937544D01*
X76537544Y-105755077D01*
X76680907Y-105540518D01*
X76779658Y-105302113D01*
X76830000Y-105049024D01*
X76830000Y-104790976D01*
X76779658Y-104537887D01*
X76680907Y-104299482D01*
X76537544Y-104084923D01*
X76355077Y-103902456D01*
X76140518Y-103759093D01*
X75902113Y-103660342D01*
X75649024Y-103610000D01*
X75390976Y-103610000D01*
X75137887Y-103660342D01*
X74899482Y-103759093D01*
X74684923Y-103902456D01*
X74502456Y-104084923D01*
X74359093Y-104299482D01*
X74260342Y-104537887D01*
X74210000Y-104790976D01*
X70265334Y-104790976D01*
X70239502Y-104705820D01*
X70180537Y-104595506D01*
X70101185Y-104498815D01*
X70004494Y-104419463D01*
X69894180Y-104360498D01*
X69774482Y-104324188D01*
X69650000Y-104311928D01*
X67950000Y-104311928D01*
X67825518Y-104324188D01*
X67705820Y-104360498D01*
X67595506Y-104419463D01*
X67498815Y-104498815D01*
X67419463Y-104595506D01*
X67360498Y-104705820D01*
X67324188Y-104825518D01*
X67311928Y-104950000D01*
X64778327Y-104950000D01*
X64799088Y-50970000D01*
X72791928Y-50970000D01*
X72791928Y-52610000D01*
X72804188Y-52734482D01*
X72840498Y-52854180D01*
X72899463Y-52964494D01*
X72978815Y-53061185D01*
X73075506Y-53140537D01*
X73185820Y-53199502D01*
X73290932Y-53231388D01*
X73119828Y-53402492D01*
X72960596Y-53640799D01*
X72850915Y-53905592D01*
X72795000Y-54186695D01*
X72795000Y-54473305D01*
X72850915Y-54754408D01*
X72960596Y-55019201D01*
X73119828Y-55257508D01*
X73322492Y-55460172D01*
X73531759Y-55600000D01*
X73322492Y-55739828D01*
X73119828Y-55942492D01*
X72960596Y-56180799D01*
X72850915Y-56445592D01*
X72795000Y-56726695D01*
X72795000Y-57013305D01*
X72850915Y-57294408D01*
X72960596Y-57559201D01*
X73119828Y-57797508D01*
X73322492Y-58000172D01*
X73531759Y-58140000D01*
X73322492Y-58279828D01*
X73119828Y-58482492D01*
X72960596Y-58720799D01*
X72850915Y-58985592D01*
X72795000Y-59266695D01*
X72795000Y-59553305D01*
X72850915Y-59834408D01*
X72960596Y-60099201D01*
X73119828Y-60337508D01*
X73322492Y-60540172D01*
X73560799Y-60699404D01*
X73825592Y-60809085D01*
X74106695Y-60865000D01*
X74393305Y-60865000D01*
X74674408Y-60809085D01*
X74939201Y-60699404D01*
X75177508Y-60540172D01*
X75380172Y-60337508D01*
X75520000Y-60128241D01*
X75659828Y-60337508D01*
X75862492Y-60540172D01*
X76071759Y-60680000D01*
X75862492Y-60819828D01*
X75659828Y-61022492D01*
X75500596Y-61260799D01*
X75390915Y-61525592D01*
X75335000Y-61806695D01*
X75335000Y-62093305D01*
X75390915Y-62374408D01*
X75500596Y-62639201D01*
X75659828Y-62877508D01*
X75862492Y-63080172D01*
X76071759Y-63220000D01*
X75862492Y-63359828D01*
X75659828Y-63562492D01*
X75520000Y-63771759D01*
X75380172Y-63562492D01*
X75177508Y-63359828D01*
X74939201Y-63200596D01*
X74674408Y-63090915D01*
X74393305Y-63035000D01*
X74106695Y-63035000D01*
X73825592Y-63090915D01*
X73560799Y-63200596D01*
X73322492Y-63359828D01*
X73119828Y-63562492D01*
X72960596Y-63800799D01*
X72850915Y-64065592D01*
X72795000Y-64346695D01*
X72795000Y-64633305D01*
X72850915Y-64914408D01*
X72960596Y-65179201D01*
X73119828Y-65417508D01*
X73322492Y-65620172D01*
X73531759Y-65760000D01*
X73322492Y-65899828D01*
X73119828Y-66102492D01*
X72960596Y-66340799D01*
X72850915Y-66605592D01*
X72795000Y-66886695D01*
X72795000Y-67173305D01*
X72850915Y-67454408D01*
X72960596Y-67719201D01*
X73119828Y-67957508D01*
X73322492Y-68160172D01*
X73531759Y-68300000D01*
X73322492Y-68439828D01*
X73119828Y-68642492D01*
X72960596Y-68880799D01*
X72850915Y-69145592D01*
X72795000Y-69426695D01*
X72795000Y-69713305D01*
X72850915Y-69994408D01*
X72960596Y-70259201D01*
X73119828Y-70497508D01*
X73322492Y-70700172D01*
X73531759Y-70840000D01*
X73322492Y-70979828D01*
X73119828Y-71182492D01*
X72960596Y-71420799D01*
X72850915Y-71685592D01*
X72795000Y-71966695D01*
X72795000Y-72253305D01*
X72850915Y-72534408D01*
X72960596Y-72799201D01*
X73119828Y-73037508D01*
X73322492Y-73240172D01*
X73531759Y-73380000D01*
X73322492Y-73519828D01*
X73119828Y-73722492D01*
X72960596Y-73960799D01*
X72850915Y-74225592D01*
X72795000Y-74506695D01*
X72795000Y-74793305D01*
X72850915Y-75074408D01*
X72960596Y-75339201D01*
X73119828Y-75577508D01*
X73322492Y-75780172D01*
X73531759Y-75920000D01*
X73322492Y-76059828D01*
X73119828Y-76262492D01*
X72960596Y-76500799D01*
X72850915Y-76765592D01*
X72795000Y-77046695D01*
X72795000Y-77333305D01*
X72850915Y-77614408D01*
X72960596Y-77879201D01*
X73119828Y-78117508D01*
X73322492Y-78320172D01*
X73531759Y-78460000D01*
X73322492Y-78599828D01*
X73119828Y-78802492D01*
X72960596Y-79040799D01*
X72850915Y-79305592D01*
X72795000Y-79586695D01*
X72795000Y-79873305D01*
X72850915Y-80154408D01*
X72960596Y-80419201D01*
X73119828Y-80657508D01*
X73322492Y-80860172D01*
X73560799Y-81019404D01*
X73825592Y-81129085D01*
X74106695Y-81185000D01*
X74393305Y-81185000D01*
X74674408Y-81129085D01*
X74939201Y-81019404D01*
X75177508Y-80860172D01*
X75380172Y-80657508D01*
X75520000Y-80448241D01*
X75659828Y-80657508D01*
X75862492Y-80860172D01*
X76071759Y-81000000D01*
X75862492Y-81139828D01*
X75659828Y-81342492D01*
X75500596Y-81580799D01*
X75390915Y-81845592D01*
X75335000Y-82126695D01*
X75335000Y-82413305D01*
X75390915Y-82694408D01*
X75500596Y-82959201D01*
X75659828Y-83197508D01*
X75862492Y-83400172D01*
X76071759Y-83540000D01*
X75862492Y-83679828D01*
X75659828Y-83882492D01*
X75520000Y-84091759D01*
X75380172Y-83882492D01*
X75177508Y-83679828D01*
X74939201Y-83520596D01*
X74674408Y-83410915D01*
X74393305Y-83355000D01*
X74106695Y-83355000D01*
X73825592Y-83410915D01*
X73560799Y-83520596D01*
X73322492Y-83679828D01*
X73119828Y-83882492D01*
X72960596Y-84120799D01*
X72850915Y-84385592D01*
X72795000Y-84666695D01*
X72795000Y-84953305D01*
X72850915Y-85234408D01*
X72960596Y-85499201D01*
X73119828Y-85737508D01*
X73322492Y-85940172D01*
X73531759Y-86080000D01*
X73322492Y-86219828D01*
X73119828Y-86422492D01*
X72960596Y-86660799D01*
X72850915Y-86925592D01*
X72795000Y-87206695D01*
X72795000Y-87493305D01*
X72850915Y-87774408D01*
X72960596Y-88039201D01*
X73119828Y-88277508D01*
X73322492Y-88480172D01*
X73531759Y-88620000D01*
X73322492Y-88759828D01*
X73119828Y-88962492D01*
X72960596Y-89200799D01*
X72850915Y-89465592D01*
X72795000Y-89746695D01*
X72795000Y-90033305D01*
X72850915Y-90314408D01*
X72960596Y-90579201D01*
X73119828Y-90817508D01*
X73322492Y-91020172D01*
X73531759Y-91160000D01*
X73322492Y-91299828D01*
X73119828Y-91502492D01*
X72960596Y-91740799D01*
X72850915Y-92005592D01*
X72795000Y-92286695D01*
X72795000Y-92573305D01*
X72850915Y-92854408D01*
X72960596Y-93119201D01*
X73119828Y-93357508D01*
X73322492Y-93560172D01*
X73531759Y-93700000D01*
X73322492Y-93839828D01*
X73119828Y-94042492D01*
X72960596Y-94280799D01*
X72850915Y-94545592D01*
X72795000Y-94826695D01*
X72795000Y-95113305D01*
X72850915Y-95394408D01*
X72960596Y-95659201D01*
X73119828Y-95897508D01*
X73322492Y-96100172D01*
X73531759Y-96240000D01*
X73322492Y-96379828D01*
X73119828Y-96582492D01*
X72960596Y-96820799D01*
X72850915Y-97085592D01*
X72795000Y-97366695D01*
X72795000Y-97653305D01*
X72850915Y-97934408D01*
X72960596Y-98199201D01*
X73119828Y-98437508D01*
X73322492Y-98640172D01*
X73560799Y-98799404D01*
X73825592Y-98909085D01*
X74106695Y-98965000D01*
X74393305Y-98965000D01*
X74674408Y-98909085D01*
X74939201Y-98799404D01*
X75177508Y-98640172D01*
X75380172Y-98437508D01*
X75520000Y-98228241D01*
X75659828Y-98437508D01*
X75862492Y-98640172D01*
X76071759Y-98780000D01*
X75862492Y-98919828D01*
X75659828Y-99122492D01*
X75500596Y-99360799D01*
X75390915Y-99625592D01*
X75335000Y-99906695D01*
X75335000Y-100193305D01*
X75390915Y-100474408D01*
X75500596Y-100739201D01*
X75659828Y-100977508D01*
X75862492Y-101180172D01*
X76100799Y-101339404D01*
X76365592Y-101449085D01*
X76646695Y-101505000D01*
X76933305Y-101505000D01*
X77214408Y-101449085D01*
X77479201Y-101339404D01*
X77717508Y-101180172D01*
X77920172Y-100977508D01*
X78079404Y-100739201D01*
X78189085Y-100474408D01*
X78245000Y-100193305D01*
X78245000Y-99906695D01*
X78189085Y-99625592D01*
X78079404Y-99360799D01*
X77920172Y-99122492D01*
X77717508Y-98919828D01*
X77508241Y-98780000D01*
X77717508Y-98640172D01*
X77920172Y-98437508D01*
X78079404Y-98199201D01*
X78189085Y-97934408D01*
X78245000Y-97653305D01*
X78245000Y-97366695D01*
X78189085Y-97085592D01*
X78079404Y-96820799D01*
X77920172Y-96582492D01*
X77717508Y-96379828D01*
X77508241Y-96240000D01*
X77717508Y-96100172D01*
X77920172Y-95897508D01*
X78079404Y-95659201D01*
X78189085Y-95394408D01*
X78245000Y-95113305D01*
X78245000Y-94826695D01*
X78189085Y-94545592D01*
X78079404Y-94280799D01*
X77920172Y-94042492D01*
X77717508Y-93839828D01*
X77479201Y-93680596D01*
X77214408Y-93570915D01*
X76933305Y-93515000D01*
X76646695Y-93515000D01*
X76365592Y-93570915D01*
X76100799Y-93680596D01*
X75862492Y-93839828D01*
X75659828Y-94042492D01*
X75520000Y-94251759D01*
X75380172Y-94042492D01*
X75177508Y-93839828D01*
X74968241Y-93700000D01*
X75177508Y-93560172D01*
X75380172Y-93357508D01*
X75539404Y-93119201D01*
X75649085Y-92854408D01*
X75705000Y-92573305D01*
X75705000Y-92286695D01*
X75649085Y-92005592D01*
X75539404Y-91740799D01*
X75380172Y-91502492D01*
X75177508Y-91299828D01*
X74968241Y-91160000D01*
X75177508Y-91020172D01*
X75380172Y-90817508D01*
X75520000Y-90608241D01*
X75659828Y-90817508D01*
X75862492Y-91020172D01*
X76100799Y-91179404D01*
X76365592Y-91289085D01*
X76646695Y-91345000D01*
X76933305Y-91345000D01*
X77214408Y-91289085D01*
X77479201Y-91179404D01*
X77717508Y-91020172D01*
X77920172Y-90817508D01*
X78079404Y-90579201D01*
X78189085Y-90314408D01*
X78245000Y-90033305D01*
X78245000Y-89746695D01*
X78189085Y-89465592D01*
X78079404Y-89200799D01*
X77920172Y-88962492D01*
X77717508Y-88759828D01*
X77479201Y-88600596D01*
X77214408Y-88490915D01*
X76933305Y-88435000D01*
X76646695Y-88435000D01*
X76365592Y-88490915D01*
X76100799Y-88600596D01*
X75862492Y-88759828D01*
X75659828Y-88962492D01*
X75520000Y-89171759D01*
X75380172Y-88962492D01*
X75177508Y-88759828D01*
X74968241Y-88620000D01*
X75177508Y-88480172D01*
X75380172Y-88277508D01*
X75539404Y-88039201D01*
X75649085Y-87774408D01*
X75705000Y-87493305D01*
X75705000Y-87206695D01*
X75649085Y-86925592D01*
X75539404Y-86660799D01*
X75380172Y-86422492D01*
X75177508Y-86219828D01*
X74968241Y-86080000D01*
X75177508Y-85940172D01*
X75380172Y-85737508D01*
X75520000Y-85528241D01*
X75659828Y-85737508D01*
X75862492Y-85940172D01*
X76100799Y-86099404D01*
X76365592Y-86209085D01*
X76646695Y-86265000D01*
X76933305Y-86265000D01*
X77214408Y-86209085D01*
X77479201Y-86099404D01*
X77717508Y-85940172D01*
X77920172Y-85737508D01*
X78079404Y-85499201D01*
X78189085Y-85234408D01*
X78245000Y-84953305D01*
X78245000Y-84666695D01*
X78189085Y-84385592D01*
X78079404Y-84120799D01*
X77920172Y-83882492D01*
X77717508Y-83679828D01*
X77508241Y-83540000D01*
X77717508Y-83400172D01*
X77920172Y-83197508D01*
X78079404Y-82959201D01*
X78189085Y-82694408D01*
X78245000Y-82413305D01*
X78245000Y-82126695D01*
X78189085Y-81845592D01*
X78079404Y-81580799D01*
X77920172Y-81342492D01*
X77717508Y-81139828D01*
X77508241Y-81000000D01*
X77717508Y-80860172D01*
X77920172Y-80657508D01*
X78079404Y-80419201D01*
X78189085Y-80154408D01*
X78245000Y-79873305D01*
X78245000Y-79586695D01*
X78189085Y-79305592D01*
X78079404Y-79040799D01*
X77920172Y-78802492D01*
X77717508Y-78599828D01*
X77508241Y-78460000D01*
X77717508Y-78320172D01*
X77920172Y-78117508D01*
X78079404Y-77879201D01*
X78189085Y-77614408D01*
X78245000Y-77333305D01*
X78245000Y-77046695D01*
X78189085Y-76765592D01*
X78079404Y-76500799D01*
X77920172Y-76262492D01*
X77717508Y-76059828D01*
X77479201Y-75900596D01*
X77214408Y-75790915D01*
X76933305Y-75735000D01*
X76646695Y-75735000D01*
X76365592Y-75790915D01*
X76100799Y-75900596D01*
X75862492Y-76059828D01*
X75659828Y-76262492D01*
X75520000Y-76471759D01*
X75380172Y-76262492D01*
X75177508Y-76059828D01*
X74968241Y-75920000D01*
X75177508Y-75780172D01*
X75380172Y-75577508D01*
X75539404Y-75339201D01*
X75649085Y-75074408D01*
X75705000Y-74793305D01*
X75705000Y-74506695D01*
X75649085Y-74225592D01*
X75539404Y-73960799D01*
X75380172Y-73722492D01*
X75177508Y-73519828D01*
X74968241Y-73380000D01*
X75177508Y-73240172D01*
X75380172Y-73037508D01*
X75520000Y-72828241D01*
X75659828Y-73037508D01*
X75862492Y-73240172D01*
X76100799Y-73399404D01*
X76365592Y-73509085D01*
X76646695Y-73565000D01*
X76933305Y-73565000D01*
X77214408Y-73509085D01*
X77479201Y-73399404D01*
X77717508Y-73240172D01*
X77920172Y-73037508D01*
X78079404Y-72799201D01*
X78189085Y-72534408D01*
X78245000Y-72253305D01*
X78245000Y-71966695D01*
X78189085Y-71685592D01*
X78079404Y-71420799D01*
X77920172Y-71182492D01*
X77717508Y-70979828D01*
X77508241Y-70840000D01*
X77717508Y-70700172D01*
X77920172Y-70497508D01*
X78079404Y-70259201D01*
X78189085Y-69994408D01*
X78245000Y-69713305D01*
X78245000Y-69426695D01*
X78189085Y-69145592D01*
X78079404Y-68880799D01*
X77920172Y-68642492D01*
X77717508Y-68439828D01*
X77479201Y-68280596D01*
X77214408Y-68170915D01*
X76933305Y-68115000D01*
X76646695Y-68115000D01*
X76365592Y-68170915D01*
X76100799Y-68280596D01*
X75862492Y-68439828D01*
X75659828Y-68642492D01*
X75520000Y-68851759D01*
X75380172Y-68642492D01*
X75177508Y-68439828D01*
X74968241Y-68300000D01*
X75177508Y-68160172D01*
X75380172Y-67957508D01*
X75539404Y-67719201D01*
X75649085Y-67454408D01*
X75705000Y-67173305D01*
X75705000Y-66886695D01*
X75649085Y-66605592D01*
X75539404Y-66340799D01*
X75380172Y-66102492D01*
X75177508Y-65899828D01*
X74968241Y-65760000D01*
X75177508Y-65620172D01*
X75380172Y-65417508D01*
X75520000Y-65208241D01*
X75659828Y-65417508D01*
X75862492Y-65620172D01*
X76100799Y-65779404D01*
X76365592Y-65889085D01*
X76646695Y-65945000D01*
X76933305Y-65945000D01*
X77214408Y-65889085D01*
X77479201Y-65779404D01*
X77717508Y-65620172D01*
X77920172Y-65417508D01*
X78079404Y-65179201D01*
X78189085Y-64914408D01*
X78245000Y-64633305D01*
X78245000Y-64346695D01*
X78189085Y-64065592D01*
X78079404Y-63800799D01*
X77920172Y-63562492D01*
X77717508Y-63359828D01*
X77508241Y-63220000D01*
X77717508Y-63080172D01*
X77920172Y-62877508D01*
X78079404Y-62639201D01*
X78189085Y-62374408D01*
X78245000Y-62093305D01*
X78245000Y-61806695D01*
X78189085Y-61525592D01*
X78079404Y-61260799D01*
X77920172Y-61022492D01*
X77717508Y-60819828D01*
X77508241Y-60680000D01*
X77717508Y-60540172D01*
X77920172Y-60337508D01*
X78079404Y-60099201D01*
X78189085Y-59834408D01*
X78245000Y-59553305D01*
X78245000Y-59266695D01*
X78189085Y-58985592D01*
X78079404Y-58720799D01*
X77920172Y-58482492D01*
X77717508Y-58279828D01*
X77479201Y-58120596D01*
X77214408Y-58010915D01*
X76933305Y-57955000D01*
X76646695Y-57955000D01*
X76365592Y-58010915D01*
X76100799Y-58120596D01*
X75862492Y-58279828D01*
X75659828Y-58482492D01*
X75520000Y-58691759D01*
X75380172Y-58482492D01*
X75177508Y-58279828D01*
X74968241Y-58140000D01*
X75177508Y-58000172D01*
X75380172Y-57797508D01*
X75539404Y-57559201D01*
X75649085Y-57294408D01*
X75705000Y-57013305D01*
X75705000Y-56726695D01*
X75649085Y-56445592D01*
X75539404Y-56180799D01*
X75380172Y-55942492D01*
X75177508Y-55739828D01*
X74968241Y-55600000D01*
X75177508Y-55460172D01*
X75380172Y-55257508D01*
X75520000Y-55048241D01*
X75659828Y-55257508D01*
X75862492Y-55460172D01*
X76100799Y-55619404D01*
X76365592Y-55729085D01*
X76646695Y-55785000D01*
X76933305Y-55785000D01*
X77214408Y-55729085D01*
X77479201Y-55619404D01*
X77717508Y-55460172D01*
X77920172Y-55257508D01*
X78079404Y-55019201D01*
X78189085Y-54754408D01*
X78245000Y-54473305D01*
X78245000Y-54186695D01*
X78189085Y-53905592D01*
X78079404Y-53640799D01*
X77920172Y-53402492D01*
X77717508Y-53199828D01*
X77508241Y-53060000D01*
X77717508Y-52920172D01*
X77920172Y-52717508D01*
X78079404Y-52479201D01*
X78189085Y-52214408D01*
X78245000Y-51933305D01*
X78245000Y-51646695D01*
X78189085Y-51365592D01*
X78079404Y-51100799D01*
X77920172Y-50862492D01*
X77717508Y-50659828D01*
X77479201Y-50500596D01*
X77214408Y-50390915D01*
X76933305Y-50335000D01*
X76646695Y-50335000D01*
X76365592Y-50390915D01*
X76100799Y-50500596D01*
X75862492Y-50659828D01*
X75691388Y-50830932D01*
X75659502Y-50725820D01*
X75600537Y-50615506D01*
X75521185Y-50518815D01*
X75424494Y-50439463D01*
X75314180Y-50380498D01*
X75194482Y-50344188D01*
X75070000Y-50331928D01*
X73430000Y-50331928D01*
X73305518Y-50344188D01*
X73185820Y-50380498D01*
X73075506Y-50439463D01*
X72978815Y-50518815D01*
X72899463Y-50615506D01*
X72840498Y-50725820D01*
X72804188Y-50845518D01*
X72791928Y-50970000D01*
X64799088Y-50970000D01*
X64800695Y-46790976D01*
X74210000Y-46790976D01*
X74210000Y-47049024D01*
X74260342Y-47302113D01*
X74359093Y-47540518D01*
X74502456Y-47755077D01*
X74684923Y-47937544D01*
X74899482Y-48080907D01*
X75137887Y-48179658D01*
X75390976Y-48230000D01*
X75649024Y-48230000D01*
X75902113Y-48179658D01*
X76140518Y-48080907D01*
X76355077Y-47937544D01*
X76537544Y-47755077D01*
X76680907Y-47540518D01*
X76779658Y-47302113D01*
X76830000Y-47049024D01*
X76830000Y-46790976D01*
X76779658Y-46537887D01*
X76680907Y-46299482D01*
X76537544Y-46084923D01*
X76355077Y-45902456D01*
X76140518Y-45759093D01*
X75902113Y-45660342D01*
X75649024Y-45610000D01*
X75390976Y-45610000D01*
X75137887Y-45660342D01*
X74899482Y-45759093D01*
X74684923Y-45902456D01*
X74502456Y-46084923D01*
X74359093Y-46299482D01*
X74260342Y-46537887D01*
X74210000Y-46790976D01*
X64800695Y-46790976D01*
X64801746Y-44060000D01*
X76567721Y-44060000D01*
X77151010Y-44117192D01*
%TD*%
M02*
