%TF.GenerationSoftware,KiCad,Pcbnew,5.1.5+dfsg1-2build2*%
%TF.CreationDate,2021-10-16T11:12:39+01:00*%
%TF.ProjectId,bluePillG,626c7565-5069-46c6-9c47-2e6b69636164,rev?*%
%TF.SameCoordinates,Original*%
%TF.FileFunction,Copper,L3,Inr*%
%TF.FilePolarity,Positive*%
%FSLAX46Y46*%
G04 Gerber Fmt 4.6, Leading zero omitted, Abs format (unit mm)*
G04 Created by KiCad (PCBNEW 5.1.5+dfsg1-2build2) date 2021-10-16 11:12:39*
%MOMM*%
%LPD*%
G04 APERTURE LIST*
%TA.AperFunction,ViaPad*%
%ADD10C,1.350000*%
%TD*%
%TA.AperFunction,ViaPad*%
%ADD11C,1.640000*%
%TD*%
%TA.AperFunction,ViaPad*%
%ADD12R,1.640000X1.640000*%
%TD*%
%TA.AperFunction,ViaPad*%
%ADD13O,1.700000X1.700000*%
%TD*%
%TA.AperFunction,ViaPad*%
%ADD14R,1.700000X1.700000*%
%TD*%
%TA.AperFunction,ViaPad*%
%ADD15C,1.320800*%
%TD*%
%TA.AperFunction,ViaPad*%
%ADD16C,1.676400*%
%TD*%
%TA.AperFunction,ViaPad*%
%ADD17C,2.000000*%
%TD*%
%TA.AperFunction,ViaPad*%
%ADD18C,0.800000*%
%TD*%
%TA.AperFunction,ViaPad*%
%ADD19C,0.600000*%
%TD*%
%TA.AperFunction,ViaPad*%
%ADD20C,1.400000*%
%TD*%
%TA.AperFunction,ViaPad*%
%ADD21C,1.300000*%
%TD*%
%TA.AperFunction,Conductor*%
%ADD22C,0.762000*%
%TD*%
%TA.AperFunction,Conductor*%
%ADD23C,0.254000*%
%TD*%
G04 APERTURE END LIST*
D10*
%TO.N,N/C*%
%TO.C,J4*%
X26520000Y-46920000D03*
X26520000Y-104920000D03*
X75520000Y-104920000D03*
X75520000Y-46920000D03*
D11*
%TO.N,Net-(J4-Pad40)*%
X76790000Y-100050000D03*
%TO.N,GND*%
X74250000Y-100050000D03*
%TO.N,Net-(J4-Pad38)*%
X76790000Y-97510000D03*
%TO.N,Net-(J4-Pad37)*%
X74250000Y-97510000D03*
%TO.N,Net-(J4-Pad36)*%
X76790000Y-94970000D03*
%TO.N,Net-(J4-Pad35)*%
X74250000Y-94970000D03*
%TO.N,GND*%
X76790000Y-92430000D03*
%TO.N,Net-(J4-Pad33)*%
X74250000Y-92430000D03*
%TO.N,Net-(J4-Pad32)*%
X76790000Y-89890000D03*
%TO.N,Net-(J4-Pad31)*%
X74250000Y-89890000D03*
%TO.N,GND*%
X76790000Y-87350000D03*
%TO.N,Net-(J4-Pad29)*%
X74250000Y-87350000D03*
%TO.N,Net-(J4-Pad28)*%
X76790000Y-84810000D03*
%TO.N,Net-(J4-Pad27)*%
X74250000Y-84810000D03*
%TO.N,Net-(J4-Pad26)*%
X76790000Y-82270000D03*
%TO.N,GND*%
X74250000Y-82270000D03*
%TO.N,Net-(J4-Pad24)*%
X76790000Y-79730000D03*
%TO.N,Net-(J4-Pad23)*%
X74250000Y-79730000D03*
%TO.N,Net-(J4-Pad22)*%
X76790000Y-77190000D03*
%TO.N,Net-(J4-Pad21)*%
X74250000Y-77190000D03*
%TO.N,GND*%
X76790000Y-74650000D03*
%TO.N,Net-(J4-Pad19)*%
X74250000Y-74650000D03*
%TO.N,Net-(J4-Pad18)*%
X76790000Y-72110000D03*
%TO.N,Net-(J4-Pad17)*%
X74250000Y-72110000D03*
%TO.N,Net-(J4-Pad16)*%
X76790000Y-69570000D03*
%TO.N,Net-(J4-Pad15)*%
X74250000Y-69570000D03*
%TO.N,GND*%
X76790000Y-67030000D03*
%TO.N,Net-(J4-Pad13)*%
X74250000Y-67030000D03*
%TO.N,Net-(J4-Pad12)*%
X76790000Y-64490000D03*
%TO.N,Net-(J4-Pad11)*%
X74250000Y-64490000D03*
%TO.N,PB6*%
X76790000Y-61950000D03*
%TO.N,GND*%
X74250000Y-61950000D03*
%TO.N,PB7*%
X76790000Y-59410000D03*
%TO.N,Net-(J4-Pad7)*%
X74250000Y-59410000D03*
%TO.N,GND*%
X76790000Y-56870000D03*
%TO.N,Net-(J4-Pad5)*%
X74250000Y-56870000D03*
%TO.N,+5V*%
X76790000Y-54330000D03*
%TO.N,Net-(J4-Pad3)*%
X74250000Y-54330000D03*
%TO.N,+5V*%
X76790000Y-51790000D03*
D12*
%TO.N,Net-(J4-Pad1)*%
X74250000Y-51790000D03*
%TD*%
D13*
%TO.N,Net-(J15-Pad9)*%
%TO.C,J15*%
X24700874Y-84420001D03*
%TO.N,Net-(J15-Pad8)*%
X24700874Y-81880001D03*
%TO.N,Net-(J15-Pad7)*%
X24700874Y-79340001D03*
%TO.N,Net-(J15-Pad6)*%
X24700874Y-76800001D03*
%TO.N,I2C_SDA*%
X24700874Y-74260001D03*
%TO.N,I2C_SCL*%
X24700874Y-71720001D03*
%TO.N,GND*%
X24700874Y-69180001D03*
%TO.N,+3V3*%
X24700874Y-66640001D03*
D14*
%TO.N,Net-(J15-Pad1)*%
X24700874Y-64100001D03*
%TD*%
D13*
%TO.N,I2C_SDA*%
%TO.C,J14*%
X53200000Y-106660000D03*
X53200000Y-104120000D03*
X53200000Y-101580000D03*
X53200000Y-99040000D03*
D14*
X53200000Y-96500000D03*
%TD*%
D13*
%TO.N,I2C_SCL*%
%TO.C,J13*%
X56800000Y-106660000D03*
X56800000Y-104120000D03*
X56800000Y-101580000D03*
X56800000Y-99040000D03*
D14*
X56800000Y-96500000D03*
%TD*%
D13*
%TO.N,GND*%
%TO.C,J12*%
X49620000Y-106540000D03*
%TO.N,PB1*%
X49620000Y-104000000D03*
%TO.N,GND*%
X47080000Y-106540000D03*
%TO.N,PB0*%
X47080000Y-104000000D03*
%TO.N,GND*%
X44540000Y-106540000D03*
%TO.N,PA11*%
X44540000Y-104000000D03*
%TO.N,GND*%
X42000000Y-106540000D03*
%TO.N,PA10*%
X42000000Y-104000000D03*
%TO.N,GND*%
X39460000Y-106540000D03*
%TO.N,PB5*%
X39460000Y-104000000D03*
%TO.N,GND*%
X36920000Y-106540000D03*
%TO.N,PB4*%
X36920000Y-104000000D03*
%TO.N,GND*%
X34380000Y-106540000D03*
%TO.N,PA9*%
X34380000Y-104000000D03*
%TO.N,GND*%
X31840000Y-106540000D03*
D14*
%TO.N,PA8*%
X31840000Y-104000000D03*
%TD*%
%TO.N,PA4*%
%TO.C,J11*%
X60300000Y-106700000D03*
%TD*%
D13*
%TO.N,PA7*%
%TO.C,J10*%
X62840000Y-103600000D03*
D14*
X60300000Y-103600000D03*
%TD*%
D13*
%TO.N,PA6*%
%TO.C,J9*%
X62840000Y-100000000D03*
D14*
X60300000Y-100000000D03*
%TD*%
D13*
%TO.N,PA5*%
%TO.C,J8*%
X62840000Y-96400000D03*
D14*
X60300000Y-96400000D03*
%TD*%
D13*
%TO.N,ADC3*%
%TO.C,J7*%
X24400000Y-95180000D03*
%TO.N,ADC2*%
X24400000Y-97720000D03*
%TO.N,ADC1*%
X24400000Y-100260000D03*
D14*
%TO.N,ADC0*%
X24400000Y-102800000D03*
%TD*%
D13*
%TO.N,GND*%
%TO.C,J6*%
X71340000Y-105800000D03*
D14*
%TO.N,+5V*%
X68800000Y-105800000D03*
%TD*%
D15*
%TO.N,Net-(C19-Pad1)*%
%TO.C,Y2*%
X53126000Y-85000000D03*
%TO.N,OSC_IN*%
X48300000Y-85000000D03*
%TD*%
D16*
%TO.N,OSC32_OUT*%
%TO.C,Y1*%
X44700000Y-82900000D03*
%TO.N,OSC32_IN*%
X44700000Y-80360000D03*
%TD*%
D17*
%TO.N,NRST*%
%TO.C,SW1*%
X53100000Y-59100000D03*
%TO.N,GND*%
X57600000Y-59100000D03*
%TO.N,NRST*%
X53100000Y-65600000D03*
%TO.N,GND*%
X57600000Y-65600000D03*
%TD*%
D13*
%TO.N,+3V3S*%
%TO.C,J3*%
X32600000Y-66720000D03*
%TO.N,+3V3*%
X32600000Y-69260000D03*
D14*
%TO.N,+3.3VP*%
X32600000Y-71800000D03*
%TD*%
D13*
%TO.N,GND*%
%TO.C,J2*%
X33120000Y-86900000D03*
%TO.N,Net-(J2-Pad2)*%
X35660000Y-86900000D03*
D14*
%TO.N,+3V3*%
X38200000Y-86900000D03*
%TD*%
D13*
%TO.N,+5V*%
%TO.C,J1*%
X39840000Y-59940000D03*
X37300000Y-59940000D03*
%TO.N,+3V3S*%
X39840000Y-62480000D03*
X37300000Y-62480000D03*
%TO.N,GND*%
X39840000Y-65020000D03*
X37300000Y-65020000D03*
%TO.N,PA13*%
X39840000Y-67560000D03*
%TO.N,SWIW*%
X37300000Y-67560000D03*
%TO.N,PA14*%
X39840000Y-70100000D03*
D14*
%TO.N,NRST*%
X37300000Y-70100000D03*
%TD*%
D18*
%TO.N,+3V3*%
X47700000Y-80300000D03*
X44500000Y-78500000D03*
X50600000Y-61400000D03*
X58300000Y-69700000D03*
X56100000Y-71300000D03*
X58700000Y-71300000D03*
X34500000Y-69300000D03*
X34500000Y-70500000D03*
X34500000Y-71700000D03*
X34500000Y-73100000D03*
X34500000Y-67900000D03*
X35300000Y-67900000D03*
X35300000Y-69300000D03*
X35300000Y-70500000D03*
X35300000Y-71700000D03*
X35300000Y-73100000D03*
X48100000Y-76887500D03*
X46900000Y-67200000D03*
X46900000Y-70400000D03*
D19*
X39889667Y-77700000D03*
X39250000Y-74250000D03*
X46500000Y-59500000D03*
X50900000Y-53600000D03*
D18*
X40500000Y-86700000D03*
%TO.N,GND*%
X45900000Y-78500000D03*
X40500000Y-80500000D03*
X40500000Y-82900000D03*
X40550000Y-78750000D03*
X40650000Y-77100000D03*
X53300000Y-72500000D03*
X53300000Y-74300000D03*
X55900000Y-67500000D03*
X57100000Y-67500000D03*
X60700000Y-71900000D03*
X45300000Y-70400000D03*
X45300000Y-67200000D03*
X29500000Y-65300000D03*
X35100000Y-78700000D03*
X35100000Y-79500000D03*
X36700000Y-80500000D03*
X37100000Y-77100000D03*
X38100000Y-77100000D03*
X38100000Y-78100000D03*
X38100000Y-79300000D03*
X38100000Y-80500000D03*
X38100000Y-81900000D03*
X35300000Y-80700000D03*
X35500000Y-82900000D03*
X37100000Y-76100000D03*
X38100000Y-76100000D03*
X35300000Y-81700000D03*
X34300000Y-80700000D03*
X34300000Y-81700000D03*
X50700000Y-87200000D03*
X50700000Y-89150000D03*
X42225000Y-63900000D03*
D19*
X28400000Y-72900000D03*
X54900000Y-81400000D03*
X47748544Y-71531093D03*
X45600000Y-57700000D03*
X50300000Y-57600000D03*
X47700000Y-52300000D03*
X44385113Y-77414558D03*
%TO.N,NRST*%
X51850000Y-72550000D03*
D18*
%TO.N,PC13*%
X49300000Y-76900000D03*
X43900000Y-85500000D03*
%TO.N,BOOT0*%
X43300874Y-75500001D03*
X40650000Y-76099997D03*
%TO.N,PB7*%
X61900000Y-77900000D03*
X51100000Y-74300000D03*
%TO.N,PB6*%
X62650000Y-78650000D03*
X49950000Y-73350000D03*
D19*
%TO.N,PB5*%
X44400874Y-74850001D03*
D18*
%TO.N,PB4*%
X43200874Y-73894221D03*
%TO.N,PB3*%
X47849502Y-73962000D03*
X42150001Y-91700001D03*
D20*
X44600874Y-91700001D03*
D19*
%TO.N,PA12*%
X49610070Y-71908540D03*
D21*
X63500874Y-59400001D03*
D18*
%TO.N,PA11*%
X48800000Y-68600000D03*
%TO.N,PA10*%
X49500000Y-67699997D03*
D19*
%TO.N,PA9*%
X48800000Y-66900000D03*
%TO.N,PA8*%
X48040154Y-66308660D03*
D21*
%TO.N,PB15*%
X62000874Y-60000001D03*
%TO.N,PB14*%
X63500874Y-61300001D03*
%TO.N,PB13*%
X62000874Y-62249998D03*
%TO.N,PB12*%
X63500874Y-63500001D03*
%TO.N,PB11*%
X61950872Y-64249999D03*
D18*
%TO.N,PB10*%
X56500000Y-72487000D03*
D21*
X61798330Y-65897457D03*
D19*
%TO.N,PB2*%
X56400874Y-74800001D03*
D21*
X63500874Y-65300001D03*
D19*
%TO.N,PB1*%
X57490380Y-80909620D03*
X56700000Y-78850000D03*
%TO.N,PB0*%
X53779995Y-75892806D03*
X57450000Y-82150000D03*
D18*
%TO.N,I2C_SDA*%
X39239667Y-75339667D03*
D19*
X50540380Y-94290380D03*
D18*
%TO.N,I2C_SCL*%
X42800000Y-66325000D03*
X47170000Y-58720000D03*
X48500000Y-72800000D03*
D19*
X59000000Y-84800000D03*
%TO.N,ADC3*%
X56065380Y-80184620D03*
%TO.N,ADC2*%
X52479994Y-76150000D03*
X42050001Y-95754518D03*
%TO.N,ADC1*%
X52389135Y-79959635D03*
X42050001Y-97600000D03*
%TO.N,ADC0*%
X51388640Y-79958269D03*
X55900874Y-90700001D03*
X42150000Y-100350000D03*
D18*
%TO.N,PA14*%
X42500000Y-69900000D03*
%TO.N,PA13*%
X42900000Y-68100000D03*
%TD*%
D22*
%TO.N,GND*%
X29972081Y-76100000D02*
X36534315Y-76100000D01*
X36534315Y-76100000D02*
X37100000Y-76100000D01*
%TD*%
D23*
%TO.N,GND*%
G36*
X77151010Y-44117192D02*
G01*
X77681036Y-44277216D01*
X78169879Y-44537140D01*
X78598931Y-44887065D01*
X78951844Y-45313664D01*
X79215173Y-45800681D01*
X79378894Y-46329578D01*
X79440000Y-46910960D01*
X79440001Y-85967581D01*
X79440000Y-104867721D01*
X79382808Y-105451010D01*
X79222783Y-105981036D01*
X78962860Y-106469880D01*
X78612935Y-106898931D01*
X78186335Y-107251845D01*
X77699320Y-107515173D01*
X77170422Y-107678894D01*
X76589040Y-107740000D01*
X61755937Y-107740000D01*
X61775812Y-107674482D01*
X61788072Y-107550000D01*
X61788072Y-105850000D01*
X61775812Y-105725518D01*
X61739502Y-105605820D01*
X61680537Y-105495506D01*
X61601185Y-105398815D01*
X61504494Y-105319463D01*
X61394180Y-105260498D01*
X61274482Y-105224188D01*
X61150000Y-105211928D01*
X59450000Y-105211928D01*
X59325518Y-105224188D01*
X59205820Y-105260498D01*
X59095506Y-105319463D01*
X58998815Y-105398815D01*
X58919463Y-105495506D01*
X58860498Y-105605820D01*
X58824188Y-105725518D01*
X58811928Y-105850000D01*
X58811928Y-107550000D01*
X58824188Y-107674482D01*
X58844063Y-107740000D01*
X57820107Y-107740000D01*
X57953475Y-107606632D01*
X58115990Y-107363411D01*
X58227932Y-107093158D01*
X58285000Y-106806260D01*
X58285000Y-106513740D01*
X58227932Y-106226842D01*
X58115990Y-105956589D01*
X57953475Y-105713368D01*
X57746632Y-105506525D01*
X57572240Y-105390000D01*
X57746632Y-105273475D01*
X57953475Y-105066632D01*
X58115990Y-104823411D01*
X58227932Y-104553158D01*
X58285000Y-104266260D01*
X58285000Y-103973740D01*
X58227932Y-103686842D01*
X58115990Y-103416589D01*
X57953475Y-103173368D01*
X57746632Y-102966525D01*
X57572240Y-102850000D01*
X57721900Y-102750000D01*
X58811928Y-102750000D01*
X58811928Y-104450000D01*
X58824188Y-104574482D01*
X58860498Y-104694180D01*
X58919463Y-104804494D01*
X58998815Y-104901185D01*
X59095506Y-104980537D01*
X59205820Y-105039502D01*
X59325518Y-105075812D01*
X59450000Y-105088072D01*
X61150000Y-105088072D01*
X61274482Y-105075812D01*
X61394180Y-105039502D01*
X61504494Y-104980537D01*
X61601185Y-104901185D01*
X61680537Y-104804494D01*
X61739502Y-104694180D01*
X61761513Y-104621620D01*
X61893368Y-104753475D01*
X62136589Y-104915990D01*
X62406842Y-105027932D01*
X62693740Y-105085000D01*
X62986260Y-105085000D01*
X63273158Y-105027932D01*
X63461303Y-104950000D01*
X67311928Y-104950000D01*
X67311928Y-106650000D01*
X67324188Y-106774482D01*
X67360498Y-106894180D01*
X67419463Y-107004494D01*
X67498815Y-107101185D01*
X67595506Y-107180537D01*
X67705820Y-107239502D01*
X67825518Y-107275812D01*
X67950000Y-107288072D01*
X69650000Y-107288072D01*
X69774482Y-107275812D01*
X69894180Y-107239502D01*
X70004494Y-107180537D01*
X70101185Y-107101185D01*
X70180537Y-107004494D01*
X70239502Y-106894180D01*
X70275812Y-106774482D01*
X70288072Y-106650000D01*
X70288072Y-104950000D01*
X70275812Y-104825518D01*
X70265334Y-104790976D01*
X74210000Y-104790976D01*
X74210000Y-105049024D01*
X74260342Y-105302113D01*
X74359093Y-105540518D01*
X74502456Y-105755077D01*
X74684923Y-105937544D01*
X74899482Y-106080907D01*
X75137887Y-106179658D01*
X75390976Y-106230000D01*
X75649024Y-106230000D01*
X75902113Y-106179658D01*
X76140518Y-106080907D01*
X76355077Y-105937544D01*
X76537544Y-105755077D01*
X76680907Y-105540518D01*
X76779658Y-105302113D01*
X76830000Y-105049024D01*
X76830000Y-104790976D01*
X76779658Y-104537887D01*
X76680907Y-104299482D01*
X76537544Y-104084923D01*
X76355077Y-103902456D01*
X76140518Y-103759093D01*
X75902113Y-103660342D01*
X75649024Y-103610000D01*
X75390976Y-103610000D01*
X75137887Y-103660342D01*
X74899482Y-103759093D01*
X74684923Y-103902456D01*
X74502456Y-104084923D01*
X74359093Y-104299482D01*
X74260342Y-104537887D01*
X74210000Y-104790976D01*
X70265334Y-104790976D01*
X70239502Y-104705820D01*
X70180537Y-104595506D01*
X70101185Y-104498815D01*
X70004494Y-104419463D01*
X69894180Y-104360498D01*
X69774482Y-104324188D01*
X69650000Y-104311928D01*
X67950000Y-104311928D01*
X67825518Y-104324188D01*
X67705820Y-104360498D01*
X67595506Y-104419463D01*
X67498815Y-104498815D01*
X67419463Y-104595506D01*
X67360498Y-104705820D01*
X67324188Y-104825518D01*
X67311928Y-104950000D01*
X63461303Y-104950000D01*
X63543411Y-104915990D01*
X63786632Y-104753475D01*
X63993475Y-104546632D01*
X64155990Y-104303411D01*
X64267932Y-104033158D01*
X64325000Y-103746260D01*
X64325000Y-103453740D01*
X64267932Y-103166842D01*
X64155990Y-102896589D01*
X63993475Y-102653368D01*
X63786632Y-102446525D01*
X63543411Y-102284010D01*
X63273158Y-102172068D01*
X62986260Y-102115000D01*
X62693740Y-102115000D01*
X62406842Y-102172068D01*
X62136589Y-102284010D01*
X61893368Y-102446525D01*
X61761513Y-102578380D01*
X61739502Y-102505820D01*
X61680537Y-102395506D01*
X61601185Y-102298815D01*
X61504494Y-102219463D01*
X61394180Y-102160498D01*
X61274482Y-102124188D01*
X61150000Y-102111928D01*
X59450000Y-102111928D01*
X59325518Y-102124188D01*
X59205820Y-102160498D01*
X59095506Y-102219463D01*
X58998815Y-102298815D01*
X58919463Y-102395506D01*
X58860498Y-102505820D01*
X58824188Y-102625518D01*
X58811928Y-102750000D01*
X57721900Y-102750000D01*
X57746632Y-102733475D01*
X57953475Y-102526632D01*
X58115990Y-102283411D01*
X58227932Y-102013158D01*
X58285000Y-101726260D01*
X58285000Y-101433740D01*
X58227932Y-101146842D01*
X58115990Y-100876589D01*
X57953475Y-100633368D01*
X57746632Y-100426525D01*
X57572240Y-100310000D01*
X57746632Y-100193475D01*
X57953475Y-99986632D01*
X58115990Y-99743411D01*
X58227932Y-99473158D01*
X58285000Y-99186260D01*
X58285000Y-99150000D01*
X58811928Y-99150000D01*
X58811928Y-100850000D01*
X58824188Y-100974482D01*
X58860498Y-101094180D01*
X58919463Y-101204494D01*
X58998815Y-101301185D01*
X59095506Y-101380537D01*
X59205820Y-101439502D01*
X59325518Y-101475812D01*
X59450000Y-101488072D01*
X61150000Y-101488072D01*
X61274482Y-101475812D01*
X61394180Y-101439502D01*
X61504494Y-101380537D01*
X61601185Y-101301185D01*
X61680537Y-101204494D01*
X61739502Y-101094180D01*
X61761513Y-101021620D01*
X61893368Y-101153475D01*
X62136589Y-101315990D01*
X62406842Y-101427932D01*
X62693740Y-101485000D01*
X62986260Y-101485000D01*
X63273158Y-101427932D01*
X63543411Y-101315990D01*
X63786632Y-101153475D01*
X63993475Y-100946632D01*
X64155990Y-100703411D01*
X64267932Y-100433158D01*
X64325000Y-100146260D01*
X64325000Y-99853740D01*
X64267932Y-99566842D01*
X64155990Y-99296589D01*
X63993475Y-99053368D01*
X63786632Y-98846525D01*
X63543411Y-98684010D01*
X63273158Y-98572068D01*
X62986260Y-98515000D01*
X62693740Y-98515000D01*
X62406842Y-98572068D01*
X62136589Y-98684010D01*
X61893368Y-98846525D01*
X61761513Y-98978380D01*
X61739502Y-98905820D01*
X61680537Y-98795506D01*
X61601185Y-98698815D01*
X61504494Y-98619463D01*
X61394180Y-98560498D01*
X61274482Y-98524188D01*
X61150000Y-98511928D01*
X59450000Y-98511928D01*
X59325518Y-98524188D01*
X59205820Y-98560498D01*
X59095506Y-98619463D01*
X58998815Y-98698815D01*
X58919463Y-98795506D01*
X58860498Y-98905820D01*
X58824188Y-99025518D01*
X58811928Y-99150000D01*
X58285000Y-99150000D01*
X58285000Y-98893740D01*
X58227932Y-98606842D01*
X58115990Y-98336589D01*
X57953475Y-98093368D01*
X57821620Y-97961513D01*
X57894180Y-97939502D01*
X58004494Y-97880537D01*
X58101185Y-97801185D01*
X58180537Y-97704494D01*
X58239502Y-97594180D01*
X58275812Y-97474482D01*
X58288072Y-97350000D01*
X58288072Y-95650000D01*
X58278224Y-95550000D01*
X58811928Y-95550000D01*
X58811928Y-97250000D01*
X58824188Y-97374482D01*
X58860498Y-97494180D01*
X58919463Y-97604494D01*
X58998815Y-97701185D01*
X59095506Y-97780537D01*
X59205820Y-97839502D01*
X59325518Y-97875812D01*
X59450000Y-97888072D01*
X61150000Y-97888072D01*
X61274482Y-97875812D01*
X61394180Y-97839502D01*
X61504494Y-97780537D01*
X61601185Y-97701185D01*
X61680537Y-97604494D01*
X61739502Y-97494180D01*
X61761513Y-97421620D01*
X61893368Y-97553475D01*
X62136589Y-97715990D01*
X62406842Y-97827932D01*
X62693740Y-97885000D01*
X62986260Y-97885000D01*
X63273158Y-97827932D01*
X63543411Y-97715990D01*
X63786632Y-97553475D01*
X63993475Y-97346632D01*
X64155990Y-97103411D01*
X64267932Y-96833158D01*
X64325000Y-96546260D01*
X64325000Y-96253740D01*
X64267932Y-95966842D01*
X64155990Y-95696589D01*
X63993475Y-95453368D01*
X63786632Y-95246525D01*
X63543411Y-95084010D01*
X63273158Y-94972068D01*
X62986260Y-94915000D01*
X62693740Y-94915000D01*
X62406842Y-94972068D01*
X62136589Y-95084010D01*
X61893368Y-95246525D01*
X61761513Y-95378380D01*
X61739502Y-95305820D01*
X61680537Y-95195506D01*
X61601185Y-95098815D01*
X61504494Y-95019463D01*
X61394180Y-94960498D01*
X61274482Y-94924188D01*
X61150000Y-94911928D01*
X59450000Y-94911928D01*
X59325518Y-94924188D01*
X59205820Y-94960498D01*
X59095506Y-95019463D01*
X58998815Y-95098815D01*
X58919463Y-95195506D01*
X58860498Y-95305820D01*
X58824188Y-95425518D01*
X58811928Y-95550000D01*
X58278224Y-95550000D01*
X58275812Y-95525518D01*
X58239502Y-95405820D01*
X58180537Y-95295506D01*
X58101185Y-95198815D01*
X58004494Y-95119463D01*
X57894180Y-95060498D01*
X57774482Y-95024188D01*
X57650000Y-95011928D01*
X57227000Y-95011928D01*
X57227000Y-84707911D01*
X58065000Y-84707911D01*
X58065000Y-84892089D01*
X58100932Y-85072729D01*
X58171414Y-85242889D01*
X58273738Y-85396028D01*
X58403972Y-85526262D01*
X58557111Y-85628586D01*
X58727271Y-85699068D01*
X58907911Y-85735000D01*
X59092089Y-85735000D01*
X59272729Y-85699068D01*
X59442889Y-85628586D01*
X59596028Y-85526262D01*
X59726262Y-85396028D01*
X59828586Y-85242889D01*
X59899068Y-85072729D01*
X59935000Y-84892089D01*
X59935000Y-84707911D01*
X59899068Y-84527271D01*
X59828586Y-84357111D01*
X59726262Y-84203972D01*
X59596028Y-84073738D01*
X59442889Y-83971414D01*
X59272729Y-83900932D01*
X59092089Y-83865000D01*
X58907911Y-83865000D01*
X58727271Y-83900932D01*
X58557111Y-83971414D01*
X58403972Y-84073738D01*
X58273738Y-84203972D01*
X58171414Y-84357111D01*
X58100932Y-84527271D01*
X58065000Y-84707911D01*
X57227000Y-84707911D01*
X57227000Y-83058960D01*
X57357911Y-83085000D01*
X57542089Y-83085000D01*
X57722729Y-83049068D01*
X57892889Y-82978586D01*
X58046028Y-82876262D01*
X58176262Y-82746028D01*
X58278586Y-82592889D01*
X58349068Y-82422729D01*
X58385000Y-82242089D01*
X58385000Y-82057911D01*
X58349068Y-81877271D01*
X58278586Y-81707111D01*
X58176262Y-81553972D01*
X58172290Y-81550000D01*
X58216642Y-81505648D01*
X58318966Y-81352509D01*
X58389448Y-81182349D01*
X58425380Y-81001709D01*
X58425380Y-80817531D01*
X58389448Y-80636891D01*
X58318966Y-80466731D01*
X58216642Y-80313592D01*
X58086408Y-80183358D01*
X57933269Y-80081034D01*
X57763109Y-80010552D01*
X57582469Y-79974620D01*
X57398291Y-79974620D01*
X57217651Y-80010552D01*
X57047491Y-80081034D01*
X57000380Y-80112512D01*
X57000380Y-80092531D01*
X56964448Y-79911891D01*
X56902769Y-79762984D01*
X56972729Y-79749068D01*
X57142889Y-79678586D01*
X57296028Y-79576262D01*
X57426262Y-79446028D01*
X57528586Y-79292889D01*
X57599068Y-79122729D01*
X57635000Y-78942089D01*
X57635000Y-78757911D01*
X57599068Y-78577271D01*
X57528586Y-78407111D01*
X57426262Y-78253972D01*
X57296028Y-78123738D01*
X57142889Y-78021414D01*
X56972729Y-77950932D01*
X56792089Y-77915000D01*
X56607911Y-77915000D01*
X56427271Y-77950932D01*
X56257111Y-78021414D01*
X56103972Y-78123738D01*
X55973738Y-78253972D01*
X55871414Y-78407111D01*
X55800932Y-78577271D01*
X55765000Y-78757911D01*
X55765000Y-78942089D01*
X55800932Y-79122729D01*
X55862611Y-79271636D01*
X55792651Y-79285552D01*
X55622491Y-79356034D01*
X55469352Y-79458358D01*
X55339118Y-79588592D01*
X55236794Y-79741731D01*
X55166312Y-79911891D01*
X55130380Y-80092531D01*
X55130380Y-80142172D01*
X53320895Y-80068013D01*
X53324135Y-80051724D01*
X53324135Y-79867546D01*
X53288203Y-79686906D01*
X53217721Y-79516746D01*
X53115397Y-79363607D01*
X52985163Y-79233373D01*
X52832024Y-79131049D01*
X52661864Y-79060567D01*
X52481224Y-79024635D01*
X52297046Y-79024635D01*
X52116406Y-79060567D01*
X51946246Y-79131049D01*
X51889910Y-79168692D01*
X51831529Y-79129683D01*
X51661369Y-79059201D01*
X51480729Y-79023269D01*
X51296551Y-79023269D01*
X51127000Y-79056995D01*
X51127000Y-77798061D01*
X60865000Y-77798061D01*
X60865000Y-78001939D01*
X60904774Y-78201898D01*
X60982795Y-78390256D01*
X61096063Y-78559774D01*
X61240226Y-78703937D01*
X61409744Y-78817205D01*
X61598102Y-78895226D01*
X61645372Y-78904628D01*
X61654774Y-78951898D01*
X61732795Y-79140256D01*
X61846063Y-79309774D01*
X61990226Y-79453937D01*
X62159744Y-79567205D01*
X62348102Y-79645226D01*
X62548061Y-79685000D01*
X62751939Y-79685000D01*
X62951898Y-79645226D01*
X63140256Y-79567205D01*
X63309774Y-79453937D01*
X63453937Y-79309774D01*
X63567205Y-79140256D01*
X63645226Y-78951898D01*
X63685000Y-78751939D01*
X63685000Y-78548061D01*
X63645226Y-78348102D01*
X63567205Y-78159744D01*
X63453937Y-77990226D01*
X63309774Y-77846063D01*
X63140256Y-77732795D01*
X62951898Y-77654774D01*
X62904628Y-77645372D01*
X62895226Y-77598102D01*
X62817205Y-77409744D01*
X62703937Y-77240226D01*
X62559774Y-77096063D01*
X62390256Y-76982795D01*
X62201898Y-76904774D01*
X62001939Y-76865000D01*
X61798061Y-76865000D01*
X61598102Y-76904774D01*
X61409744Y-76982795D01*
X61240226Y-77096063D01*
X61096063Y-77240226D01*
X60982795Y-77409744D01*
X60904774Y-77598102D01*
X60865000Y-77798061D01*
X51127000Y-77798061D01*
X51127000Y-77500000D01*
X51124560Y-77475224D01*
X51117333Y-77451399D01*
X51105597Y-77429443D01*
X51089803Y-77410197D01*
X51070557Y-77394403D01*
X51048601Y-77382667D01*
X51024776Y-77375440D01*
X51000000Y-77373000D01*
X50224353Y-77373000D01*
X50295226Y-77201898D01*
X50335000Y-77001939D01*
X50335000Y-76798061D01*
X50295226Y-76598102D01*
X50217205Y-76409744D01*
X50103937Y-76240226D01*
X49959774Y-76096063D01*
X49902676Y-76057911D01*
X51544994Y-76057911D01*
X51544994Y-76242089D01*
X51580926Y-76422729D01*
X51651408Y-76592889D01*
X51753732Y-76746028D01*
X51883966Y-76876262D01*
X52037105Y-76978586D01*
X52207265Y-77049068D01*
X52387905Y-77085000D01*
X52572083Y-77085000D01*
X52752723Y-77049068D01*
X52922883Y-76978586D01*
X53076022Y-76876262D01*
X53206256Y-76746028D01*
X53258024Y-76668551D01*
X53337106Y-76721392D01*
X53507266Y-76791874D01*
X53687906Y-76827806D01*
X53872084Y-76827806D01*
X54052724Y-76791874D01*
X54222884Y-76721392D01*
X54376023Y-76619068D01*
X54506257Y-76488834D01*
X54608581Y-76335695D01*
X54679063Y-76165535D01*
X54714995Y-75984895D01*
X54714995Y-75800717D01*
X54679063Y-75620077D01*
X54608581Y-75449917D01*
X54506257Y-75296778D01*
X54376023Y-75166544D01*
X54222884Y-75064220D01*
X54052724Y-74993738D01*
X53872084Y-74957806D01*
X53687906Y-74957806D01*
X53507266Y-74993738D01*
X53337106Y-75064220D01*
X53183967Y-75166544D01*
X53053733Y-75296778D01*
X53001965Y-75374255D01*
X52922883Y-75321414D01*
X52752723Y-75250932D01*
X52572083Y-75215000D01*
X52387905Y-75215000D01*
X52207265Y-75250932D01*
X52037105Y-75321414D01*
X51883966Y-75423738D01*
X51753732Y-75553972D01*
X51651408Y-75707111D01*
X51580926Y-75877271D01*
X51544994Y-76057911D01*
X49902676Y-76057911D01*
X49790256Y-75982795D01*
X49601898Y-75904774D01*
X49401939Y-75865000D01*
X49198061Y-75865000D01*
X48998102Y-75904774D01*
X48809744Y-75982795D01*
X48709354Y-76049873D01*
X48590256Y-75970295D01*
X48401898Y-75892274D01*
X48201939Y-75852500D01*
X47998061Y-75852500D01*
X47798102Y-75892274D01*
X47609744Y-75970295D01*
X47440226Y-76083563D01*
X47296063Y-76227726D01*
X47182795Y-76397244D01*
X47104774Y-76585602D01*
X47065000Y-76785561D01*
X47065000Y-76989439D01*
X47104774Y-77189398D01*
X47182795Y-77377756D01*
X47296063Y-77547274D01*
X47440226Y-77691437D01*
X47609744Y-77804705D01*
X47798102Y-77882726D01*
X47998061Y-77922500D01*
X48201939Y-77922500D01*
X48401898Y-77882726D01*
X48590256Y-77804705D01*
X48690646Y-77737627D01*
X48809744Y-77817205D01*
X48998102Y-77895226D01*
X49198061Y-77935000D01*
X49401939Y-77935000D01*
X49473000Y-77920865D01*
X49473000Y-81673000D01*
X45515355Y-81673000D01*
X45451001Y-81630000D01*
X45639110Y-81504309D01*
X45844309Y-81299110D01*
X46005533Y-81057822D01*
X46116586Y-80789717D01*
X46173200Y-80505098D01*
X46173200Y-80214902D01*
X46169851Y-80198061D01*
X46665000Y-80198061D01*
X46665000Y-80401939D01*
X46704774Y-80601898D01*
X46782795Y-80790256D01*
X46896063Y-80959774D01*
X47040226Y-81103937D01*
X47209744Y-81217205D01*
X47398102Y-81295226D01*
X47598061Y-81335000D01*
X47801939Y-81335000D01*
X48001898Y-81295226D01*
X48190256Y-81217205D01*
X48359774Y-81103937D01*
X48503937Y-80959774D01*
X48617205Y-80790256D01*
X48695226Y-80601898D01*
X48735000Y-80401939D01*
X48735000Y-80198061D01*
X48695226Y-79998102D01*
X48617205Y-79809744D01*
X48503937Y-79640226D01*
X48359774Y-79496063D01*
X48190256Y-79382795D01*
X48001898Y-79304774D01*
X47801939Y-79265000D01*
X47598061Y-79265000D01*
X47398102Y-79304774D01*
X47209744Y-79382795D01*
X47040226Y-79496063D01*
X46896063Y-79640226D01*
X46782795Y-79809744D01*
X46704774Y-79998102D01*
X46665000Y-80198061D01*
X46169851Y-80198061D01*
X46116586Y-79930283D01*
X46005533Y-79662178D01*
X45844309Y-79420890D01*
X45639110Y-79215691D01*
X45397822Y-79054467D01*
X45379399Y-79046836D01*
X45417205Y-78990256D01*
X45495226Y-78801898D01*
X45535000Y-78601939D01*
X45535000Y-78398061D01*
X45495226Y-78198102D01*
X45417205Y-78009744D01*
X45303937Y-77840226D01*
X45159774Y-77696063D01*
X44990256Y-77582795D01*
X44801898Y-77504774D01*
X44601939Y-77465000D01*
X44398061Y-77465000D01*
X44198102Y-77504774D01*
X44009744Y-77582795D01*
X43840226Y-77696063D01*
X43696063Y-77840226D01*
X43582795Y-78009744D01*
X43504774Y-78198102D01*
X43465000Y-78398061D01*
X43465000Y-78601939D01*
X43504774Y-78801898D01*
X43582795Y-78990256D01*
X43696063Y-79159774D01*
X43756435Y-79220146D01*
X43555691Y-79420890D01*
X43394467Y-79662178D01*
X43283414Y-79930283D01*
X43226800Y-80214902D01*
X43226800Y-80505098D01*
X43283414Y-80789717D01*
X43394467Y-81057822D01*
X43555691Y-81299110D01*
X43760890Y-81504309D01*
X43948999Y-81630000D01*
X43760890Y-81755691D01*
X43555691Y-81960890D01*
X43394467Y-82202178D01*
X43283414Y-82470283D01*
X43226800Y-82754902D01*
X43226800Y-83045098D01*
X43283414Y-83329717D01*
X43394467Y-83597822D01*
X43555691Y-83839110D01*
X43760890Y-84044309D01*
X44002178Y-84205533D01*
X44073000Y-84234869D01*
X44073000Y-84479135D01*
X44001939Y-84465000D01*
X43798061Y-84465000D01*
X43598102Y-84504774D01*
X43409744Y-84582795D01*
X43240226Y-84696063D01*
X43096063Y-84840226D01*
X42982795Y-85009744D01*
X42904774Y-85198102D01*
X42865000Y-85398061D01*
X42865000Y-85601939D01*
X42904774Y-85801898D01*
X42982795Y-85990256D01*
X43096063Y-86159774D01*
X43240226Y-86303937D01*
X43409744Y-86417205D01*
X43598102Y-86495226D01*
X43798061Y-86535000D01*
X44001939Y-86535000D01*
X44073000Y-86520865D01*
X44073000Y-90473661D01*
X43968515Y-90516940D01*
X43749861Y-90663039D01*
X43563912Y-90848988D01*
X43417813Y-91067642D01*
X43317178Y-91310596D01*
X43265874Y-91568515D01*
X43265874Y-91831487D01*
X43317178Y-92089406D01*
X43417813Y-92332360D01*
X43563912Y-92551014D01*
X43749861Y-92736963D01*
X43968515Y-92883062D01*
X44073000Y-92926341D01*
X44073000Y-102586086D01*
X43836589Y-102684010D01*
X43593368Y-102846525D01*
X43386525Y-103053368D01*
X43270000Y-103227760D01*
X43153475Y-103053368D01*
X42946632Y-102846525D01*
X42703411Y-102684010D01*
X42433158Y-102572068D01*
X42146260Y-102515000D01*
X41853740Y-102515000D01*
X41566842Y-102572068D01*
X41296589Y-102684010D01*
X41053368Y-102846525D01*
X40846525Y-103053368D01*
X40730000Y-103227760D01*
X40613475Y-103053368D01*
X40406632Y-102846525D01*
X40163411Y-102684010D01*
X39893158Y-102572068D01*
X39606260Y-102515000D01*
X39313740Y-102515000D01*
X39026842Y-102572068D01*
X38756589Y-102684010D01*
X38513368Y-102846525D01*
X38306525Y-103053368D01*
X38190000Y-103227760D01*
X38073475Y-103053368D01*
X37866632Y-102846525D01*
X37623411Y-102684010D01*
X37353158Y-102572068D01*
X37066260Y-102515000D01*
X36773740Y-102515000D01*
X36486842Y-102572068D01*
X36216589Y-102684010D01*
X35973368Y-102846525D01*
X35766525Y-103053368D01*
X35650000Y-103227760D01*
X35533475Y-103053368D01*
X35326632Y-102846525D01*
X35083411Y-102684010D01*
X34813158Y-102572068D01*
X34526260Y-102515000D01*
X34233740Y-102515000D01*
X33946842Y-102572068D01*
X33676589Y-102684010D01*
X33433368Y-102846525D01*
X33301513Y-102978380D01*
X33279502Y-102905820D01*
X33220537Y-102795506D01*
X33141185Y-102698815D01*
X33044494Y-102619463D01*
X32934180Y-102560498D01*
X32814482Y-102524188D01*
X32690000Y-102511928D01*
X30990000Y-102511928D01*
X30865518Y-102524188D01*
X30745820Y-102560498D01*
X30635506Y-102619463D01*
X30538815Y-102698815D01*
X30459463Y-102795506D01*
X30400498Y-102905820D01*
X30364188Y-103025518D01*
X30351928Y-103150000D01*
X30351928Y-104850000D01*
X30364188Y-104974482D01*
X30400498Y-105094180D01*
X30459463Y-105204494D01*
X30538815Y-105301185D01*
X30635506Y-105380537D01*
X30745820Y-105439502D01*
X30865518Y-105475812D01*
X30990000Y-105488072D01*
X32690000Y-105488072D01*
X32814482Y-105475812D01*
X32934180Y-105439502D01*
X33044494Y-105380537D01*
X33141185Y-105301185D01*
X33220537Y-105204494D01*
X33279502Y-105094180D01*
X33301513Y-105021620D01*
X33433368Y-105153475D01*
X33676589Y-105315990D01*
X33946842Y-105427932D01*
X34233740Y-105485000D01*
X34526260Y-105485000D01*
X34813158Y-105427932D01*
X35083411Y-105315990D01*
X35326632Y-105153475D01*
X35533475Y-104946632D01*
X35650000Y-104772240D01*
X35766525Y-104946632D01*
X35973368Y-105153475D01*
X36216589Y-105315990D01*
X36486842Y-105427932D01*
X36773740Y-105485000D01*
X37066260Y-105485000D01*
X37353158Y-105427932D01*
X37623411Y-105315990D01*
X37866632Y-105153475D01*
X38073475Y-104946632D01*
X38190000Y-104772240D01*
X38306525Y-104946632D01*
X38513368Y-105153475D01*
X38756589Y-105315990D01*
X39026842Y-105427932D01*
X39313740Y-105485000D01*
X39606260Y-105485000D01*
X39893158Y-105427932D01*
X40163411Y-105315990D01*
X40406632Y-105153475D01*
X40613475Y-104946632D01*
X40730000Y-104772240D01*
X40846525Y-104946632D01*
X41053368Y-105153475D01*
X41296589Y-105315990D01*
X41566842Y-105427932D01*
X41853740Y-105485000D01*
X42146260Y-105485000D01*
X42433158Y-105427932D01*
X42703411Y-105315990D01*
X42946632Y-105153475D01*
X43153475Y-104946632D01*
X43270000Y-104772240D01*
X43386525Y-104946632D01*
X43593368Y-105153475D01*
X43836589Y-105315990D01*
X44073000Y-105413914D01*
X44073000Y-107477702D01*
X37122097Y-107740000D01*
X26432279Y-107740000D01*
X25848990Y-107682808D01*
X25318964Y-107522783D01*
X24830120Y-107262860D01*
X24401069Y-106912935D01*
X24048155Y-106486335D01*
X23784827Y-105999320D01*
X23621106Y-105470422D01*
X23560000Y-104889038D01*
X23560010Y-104288072D01*
X25250000Y-104288072D01*
X25374482Y-104275812D01*
X25375017Y-104275650D01*
X25359093Y-104299482D01*
X25260342Y-104537887D01*
X25210000Y-104790976D01*
X25210000Y-105049024D01*
X25260342Y-105302113D01*
X25359093Y-105540518D01*
X25502456Y-105755077D01*
X25684923Y-105937544D01*
X25899482Y-106080907D01*
X26137887Y-106179658D01*
X26390976Y-106230000D01*
X26649024Y-106230000D01*
X26902113Y-106179658D01*
X27140518Y-106080907D01*
X27355077Y-105937544D01*
X27537544Y-105755077D01*
X27680907Y-105540518D01*
X27779658Y-105302113D01*
X27830000Y-105049024D01*
X27830000Y-104790976D01*
X27779658Y-104537887D01*
X27680907Y-104299482D01*
X27537544Y-104084923D01*
X27355077Y-103902456D01*
X27140518Y-103759093D01*
X26902113Y-103660342D01*
X26649024Y-103610000D01*
X26390976Y-103610000D01*
X26137887Y-103660342D01*
X25899482Y-103759093D01*
X25875650Y-103775017D01*
X25875812Y-103774482D01*
X25888072Y-103650000D01*
X25888072Y-101950000D01*
X25875812Y-101825518D01*
X25839502Y-101705820D01*
X25780537Y-101595506D01*
X25701185Y-101498815D01*
X25604494Y-101419463D01*
X25494180Y-101360498D01*
X25421620Y-101338487D01*
X25553475Y-101206632D01*
X25715990Y-100963411D01*
X25827932Y-100693158D01*
X25885000Y-100406260D01*
X25885000Y-100257911D01*
X41215000Y-100257911D01*
X41215000Y-100442089D01*
X41250932Y-100622729D01*
X41321414Y-100792889D01*
X41423738Y-100946028D01*
X41553972Y-101076262D01*
X41707111Y-101178586D01*
X41877271Y-101249068D01*
X42057911Y-101285000D01*
X42242089Y-101285000D01*
X42422729Y-101249068D01*
X42592889Y-101178586D01*
X42746028Y-101076262D01*
X42876262Y-100946028D01*
X42978586Y-100792889D01*
X43049068Y-100622729D01*
X43085000Y-100442089D01*
X43085000Y-100257911D01*
X43049068Y-100077271D01*
X42978586Y-99907111D01*
X42876262Y-99753972D01*
X42746028Y-99623738D01*
X42592889Y-99521414D01*
X42422729Y-99450932D01*
X42242089Y-99415000D01*
X42057911Y-99415000D01*
X41877271Y-99450932D01*
X41707111Y-99521414D01*
X41553972Y-99623738D01*
X41423738Y-99753972D01*
X41321414Y-99907111D01*
X41250932Y-100077271D01*
X41215000Y-100257911D01*
X25885000Y-100257911D01*
X25885000Y-100113740D01*
X25827932Y-99826842D01*
X25715990Y-99556589D01*
X25553475Y-99313368D01*
X25346632Y-99106525D01*
X25172240Y-98990000D01*
X25346632Y-98873475D01*
X25553475Y-98666632D01*
X25715990Y-98423411D01*
X25827932Y-98153158D01*
X25885000Y-97866260D01*
X25885000Y-97573740D01*
X25827932Y-97286842D01*
X25715990Y-97016589D01*
X25553475Y-96773368D01*
X25346632Y-96566525D01*
X25172240Y-96450000D01*
X25346632Y-96333475D01*
X25553475Y-96126632D01*
X25715990Y-95883411D01*
X25807523Y-95662429D01*
X41115001Y-95662429D01*
X41115001Y-95846607D01*
X41150933Y-96027247D01*
X41221415Y-96197407D01*
X41323739Y-96350546D01*
X41453973Y-96480780D01*
X41607112Y-96583104D01*
X41777272Y-96653586D01*
X41896283Y-96677259D01*
X41777272Y-96700932D01*
X41607112Y-96771414D01*
X41453973Y-96873738D01*
X41323739Y-97003972D01*
X41221415Y-97157111D01*
X41150933Y-97327271D01*
X41115001Y-97507911D01*
X41115001Y-97692089D01*
X41150933Y-97872729D01*
X41221415Y-98042889D01*
X41323739Y-98196028D01*
X41453973Y-98326262D01*
X41607112Y-98428586D01*
X41777272Y-98499068D01*
X41957912Y-98535000D01*
X42142090Y-98535000D01*
X42322730Y-98499068D01*
X42492890Y-98428586D01*
X42646029Y-98326262D01*
X42776263Y-98196028D01*
X42878587Y-98042889D01*
X42949069Y-97872729D01*
X42985001Y-97692089D01*
X42985001Y-97507911D01*
X42949069Y-97327271D01*
X42878587Y-97157111D01*
X42776263Y-97003972D01*
X42646029Y-96873738D01*
X42492890Y-96771414D01*
X42322730Y-96700932D01*
X42203719Y-96677259D01*
X42322730Y-96653586D01*
X42492890Y-96583104D01*
X42646029Y-96480780D01*
X42776263Y-96350546D01*
X42878587Y-96197407D01*
X42949069Y-96027247D01*
X42985001Y-95846607D01*
X42985001Y-95662429D01*
X42949069Y-95481789D01*
X42878587Y-95311629D01*
X42776263Y-95158490D01*
X42646029Y-95028256D01*
X42492890Y-94925932D01*
X42322730Y-94855450D01*
X42142090Y-94819518D01*
X41957912Y-94819518D01*
X41777272Y-94855450D01*
X41607112Y-94925932D01*
X41453973Y-95028256D01*
X41323739Y-95158490D01*
X41221415Y-95311629D01*
X41150933Y-95481789D01*
X41115001Y-95662429D01*
X25807523Y-95662429D01*
X25827932Y-95613158D01*
X25885000Y-95326260D01*
X25885000Y-95033740D01*
X25827932Y-94746842D01*
X25715990Y-94476589D01*
X25553475Y-94233368D01*
X25346632Y-94026525D01*
X25103411Y-93864010D01*
X24833158Y-93752068D01*
X24546260Y-93695000D01*
X24253740Y-93695000D01*
X23966842Y-93752068D01*
X23696589Y-93864010D01*
X23560188Y-93955150D01*
X23560228Y-91598062D01*
X41115001Y-91598062D01*
X41115001Y-91801940D01*
X41154775Y-92001899D01*
X41232796Y-92190257D01*
X41346064Y-92359775D01*
X41490227Y-92503938D01*
X41659745Y-92617206D01*
X41848103Y-92695227D01*
X42048062Y-92735001D01*
X42251940Y-92735001D01*
X42451899Y-92695227D01*
X42640257Y-92617206D01*
X42809775Y-92503938D01*
X42953938Y-92359775D01*
X43067206Y-92190257D01*
X43145227Y-92001899D01*
X43185001Y-91801940D01*
X43185001Y-91598062D01*
X43145227Y-91398103D01*
X43067206Y-91209745D01*
X42953938Y-91040227D01*
X42809775Y-90896064D01*
X42640257Y-90782796D01*
X42451899Y-90704775D01*
X42251940Y-90665001D01*
X42048062Y-90665001D01*
X41848103Y-90704775D01*
X41659745Y-90782796D01*
X41490227Y-90896064D01*
X41346064Y-91040227D01*
X41232796Y-91209745D01*
X41154775Y-91398103D01*
X41115001Y-91598062D01*
X23560228Y-91598062D01*
X23560312Y-86753740D01*
X34175000Y-86753740D01*
X34175000Y-87046260D01*
X34232068Y-87333158D01*
X34344010Y-87603411D01*
X34506525Y-87846632D01*
X34713368Y-88053475D01*
X34956589Y-88215990D01*
X35226842Y-88327932D01*
X35513740Y-88385000D01*
X35806260Y-88385000D01*
X36093158Y-88327932D01*
X36363411Y-88215990D01*
X36606632Y-88053475D01*
X36738487Y-87921620D01*
X36760498Y-87994180D01*
X36819463Y-88104494D01*
X36898815Y-88201185D01*
X36995506Y-88280537D01*
X37105820Y-88339502D01*
X37225518Y-88375812D01*
X37350000Y-88388072D01*
X39050000Y-88388072D01*
X39174482Y-88375812D01*
X39294180Y-88339502D01*
X39404494Y-88280537D01*
X39501185Y-88201185D01*
X39580537Y-88104494D01*
X39639502Y-87994180D01*
X39675812Y-87874482D01*
X39688072Y-87750000D01*
X39688072Y-87347815D01*
X39696063Y-87359774D01*
X39840226Y-87503937D01*
X40009744Y-87617205D01*
X40198102Y-87695226D01*
X40398061Y-87735000D01*
X40601939Y-87735000D01*
X40801898Y-87695226D01*
X40990256Y-87617205D01*
X41159774Y-87503937D01*
X41303937Y-87359774D01*
X41417205Y-87190256D01*
X41495226Y-87001898D01*
X41535000Y-86801939D01*
X41535000Y-86598061D01*
X41495226Y-86398102D01*
X41417205Y-86209744D01*
X41303937Y-86040226D01*
X41159774Y-85896063D01*
X40990256Y-85782795D01*
X40801898Y-85704774D01*
X40601939Y-85665000D01*
X40398061Y-85665000D01*
X40198102Y-85704774D01*
X40009744Y-85782795D01*
X39840226Y-85896063D01*
X39696063Y-86040226D01*
X39688072Y-86052185D01*
X39688072Y-86050000D01*
X39675812Y-85925518D01*
X39639502Y-85805820D01*
X39580537Y-85695506D01*
X39501185Y-85598815D01*
X39404494Y-85519463D01*
X39294180Y-85460498D01*
X39174482Y-85424188D01*
X39050000Y-85411928D01*
X37350000Y-85411928D01*
X37225518Y-85424188D01*
X37105820Y-85460498D01*
X36995506Y-85519463D01*
X36898815Y-85598815D01*
X36819463Y-85695506D01*
X36760498Y-85805820D01*
X36738487Y-85878380D01*
X36606632Y-85746525D01*
X36363411Y-85584010D01*
X36093158Y-85472068D01*
X35806260Y-85415000D01*
X35513740Y-85415000D01*
X35226842Y-85472068D01*
X34956589Y-85584010D01*
X34713368Y-85746525D01*
X34506525Y-85953368D01*
X34344010Y-86196589D01*
X34232068Y-86466842D01*
X34175000Y-86753740D01*
X23560312Y-86753740D01*
X23560336Y-85379570D01*
X23754242Y-85573476D01*
X23997463Y-85735991D01*
X24267716Y-85847933D01*
X24554614Y-85905001D01*
X24847134Y-85905001D01*
X25134032Y-85847933D01*
X25404285Y-85735991D01*
X25647506Y-85573476D01*
X25854349Y-85366633D01*
X26016864Y-85123412D01*
X26128806Y-84853159D01*
X26185874Y-84566261D01*
X26185874Y-84273741D01*
X26128806Y-83986843D01*
X26016864Y-83716590D01*
X25854349Y-83473369D01*
X25647506Y-83266526D01*
X25473114Y-83150001D01*
X25647506Y-83033476D01*
X25854349Y-82826633D01*
X26016864Y-82583412D01*
X26128806Y-82313159D01*
X26185874Y-82026261D01*
X26185874Y-81733741D01*
X26128806Y-81446843D01*
X26016864Y-81176590D01*
X25854349Y-80933369D01*
X25647506Y-80726526D01*
X25473114Y-80610001D01*
X25647506Y-80493476D01*
X25854349Y-80286633D01*
X26016864Y-80043412D01*
X26128806Y-79773159D01*
X26185874Y-79486261D01*
X26185874Y-79193741D01*
X26128806Y-78906843D01*
X26016864Y-78636590D01*
X25854349Y-78393369D01*
X25647506Y-78186526D01*
X25473114Y-78070001D01*
X25647506Y-77953476D01*
X25854349Y-77746633D01*
X26016864Y-77503412D01*
X26128806Y-77233159D01*
X26185874Y-76946261D01*
X26185874Y-76653741D01*
X26128806Y-76366843D01*
X26016864Y-76096590D01*
X25854349Y-75853369D01*
X25647506Y-75646526D01*
X25473114Y-75530001D01*
X25647506Y-75413476D01*
X25823254Y-75237728D01*
X38204667Y-75237728D01*
X38204667Y-75441606D01*
X38244441Y-75641565D01*
X38322462Y-75829923D01*
X38435730Y-75999441D01*
X38579893Y-76143604D01*
X38749411Y-76256872D01*
X38937769Y-76334893D01*
X39137728Y-76374667D01*
X39341606Y-76374667D01*
X39541565Y-76334893D01*
X39633844Y-76296670D01*
X39654774Y-76401895D01*
X39732795Y-76590253D01*
X39846063Y-76759771D01*
X39851292Y-76765000D01*
X39797578Y-76765000D01*
X39616938Y-76800932D01*
X39446778Y-76871414D01*
X39293639Y-76973738D01*
X39163405Y-77103972D01*
X39061081Y-77257111D01*
X38990599Y-77427271D01*
X38954667Y-77607911D01*
X38954667Y-77792089D01*
X38990599Y-77972729D01*
X39061081Y-78142889D01*
X39163405Y-78296028D01*
X39293639Y-78426262D01*
X39446778Y-78528586D01*
X39616938Y-78599068D01*
X39797578Y-78635000D01*
X39981756Y-78635000D01*
X40162396Y-78599068D01*
X40332556Y-78528586D01*
X40485695Y-78426262D01*
X40615929Y-78296028D01*
X40718253Y-78142889D01*
X40788735Y-77972729D01*
X40824667Y-77792089D01*
X40824667Y-77607911D01*
X40788735Y-77427271D01*
X40718253Y-77257111D01*
X40636659Y-77134997D01*
X40751939Y-77134997D01*
X40951898Y-77095223D01*
X41140256Y-77017202D01*
X41309774Y-76903934D01*
X41453937Y-76759771D01*
X41567205Y-76590253D01*
X41645226Y-76401895D01*
X41685000Y-76201936D01*
X41685000Y-75998058D01*
X41645226Y-75798099D01*
X41567205Y-75609741D01*
X41453937Y-75440223D01*
X41309774Y-75296060D01*
X41140256Y-75182792D01*
X40951898Y-75104771D01*
X40751939Y-75064997D01*
X40548061Y-75064997D01*
X40348102Y-75104771D01*
X40255823Y-75142994D01*
X40234893Y-75037769D01*
X40156872Y-74849411D01*
X40065437Y-74712568D01*
X40078586Y-74692889D01*
X40149068Y-74522729D01*
X40185000Y-74342089D01*
X40185000Y-74157911D01*
X40149068Y-73977271D01*
X40078586Y-73807111D01*
X40068678Y-73792282D01*
X42165874Y-73792282D01*
X42165874Y-73996160D01*
X42205648Y-74196119D01*
X42283669Y-74384477D01*
X42396937Y-74553995D01*
X42541100Y-74698158D01*
X42599790Y-74737374D01*
X42496937Y-74840227D01*
X42383669Y-75009745D01*
X42305648Y-75198103D01*
X42265874Y-75398062D01*
X42265874Y-75601940D01*
X42305648Y-75801899D01*
X42383669Y-75990257D01*
X42496937Y-76159775D01*
X42641100Y-76303938D01*
X42810618Y-76417206D01*
X42998976Y-76495227D01*
X43198935Y-76535001D01*
X43402813Y-76535001D01*
X43602772Y-76495227D01*
X43791130Y-76417206D01*
X43960648Y-76303938D01*
X44104811Y-76159775D01*
X44218079Y-75990257D01*
X44296100Y-75801899D01*
X44299816Y-75783217D01*
X44308785Y-75785001D01*
X44492963Y-75785001D01*
X44673603Y-75749069D01*
X44843763Y-75678587D01*
X44996902Y-75576263D01*
X45127136Y-75446029D01*
X45229460Y-75292890D01*
X45299942Y-75122730D01*
X45335874Y-74942090D01*
X45335874Y-74757912D01*
X45299942Y-74577272D01*
X45229460Y-74407112D01*
X45127136Y-74253973D01*
X44996902Y-74123739D01*
X44843763Y-74021415D01*
X44673603Y-73950933D01*
X44492963Y-73915001D01*
X44308785Y-73915001D01*
X44235874Y-73929504D01*
X44235874Y-73860061D01*
X46814502Y-73860061D01*
X46814502Y-74063939D01*
X46854276Y-74263898D01*
X46932297Y-74452256D01*
X47045565Y-74621774D01*
X47189728Y-74765937D01*
X47359246Y-74879205D01*
X47547604Y-74957226D01*
X47747563Y-74997000D01*
X47951441Y-74997000D01*
X48151400Y-74957226D01*
X48339758Y-74879205D01*
X48509276Y-74765937D01*
X48653439Y-74621774D01*
X48766707Y-74452256D01*
X48844728Y-74263898D01*
X48884502Y-74063939D01*
X48884502Y-73860061D01*
X48866299Y-73768550D01*
X48983060Y-73720186D01*
X49032795Y-73840256D01*
X49146063Y-74009774D01*
X49290226Y-74153937D01*
X49459744Y-74267205D01*
X49648102Y-74345226D01*
X49848061Y-74385000D01*
X50051939Y-74385000D01*
X50065000Y-74382402D01*
X50065000Y-74401939D01*
X50104774Y-74601898D01*
X50182795Y-74790256D01*
X50296063Y-74959774D01*
X50440226Y-75103937D01*
X50609744Y-75217205D01*
X50798102Y-75295226D01*
X50998061Y-75335000D01*
X51201939Y-75335000D01*
X51401898Y-75295226D01*
X51590256Y-75217205D01*
X51759774Y-75103937D01*
X51903937Y-74959774D01*
X52017205Y-74790256D01*
X52051313Y-74707912D01*
X55465874Y-74707912D01*
X55465874Y-74892090D01*
X55501806Y-75072730D01*
X55572288Y-75242890D01*
X55674612Y-75396029D01*
X55804846Y-75526263D01*
X55957985Y-75628587D01*
X56128145Y-75699069D01*
X56308785Y-75735001D01*
X56492963Y-75735001D01*
X56673603Y-75699069D01*
X56843763Y-75628587D01*
X56996902Y-75526263D01*
X57127136Y-75396029D01*
X57229460Y-75242890D01*
X57299942Y-75072730D01*
X57335874Y-74892090D01*
X57335874Y-74707912D01*
X57299942Y-74527272D01*
X57229460Y-74357112D01*
X57127136Y-74203973D01*
X56996902Y-74073739D01*
X56843763Y-73971415D01*
X56673603Y-73900933D01*
X56492963Y-73865001D01*
X56308785Y-73865001D01*
X56128145Y-73900933D01*
X55957985Y-73971415D01*
X55804846Y-74073739D01*
X55674612Y-74203973D01*
X55572288Y-74357112D01*
X55501806Y-74527272D01*
X55465874Y-74707912D01*
X52051313Y-74707912D01*
X52095226Y-74601898D01*
X52135000Y-74401939D01*
X52135000Y-74198061D01*
X52095226Y-73998102D01*
X52017205Y-73809744D01*
X51903937Y-73640226D01*
X51759774Y-73496063D01*
X51736988Y-73480838D01*
X51757911Y-73485000D01*
X51942089Y-73485000D01*
X52122729Y-73449068D01*
X52292889Y-73378586D01*
X52446028Y-73276262D01*
X52576262Y-73146028D01*
X52678586Y-72992889D01*
X52749068Y-72822729D01*
X52785000Y-72642089D01*
X52785000Y-72457911D01*
X52749068Y-72277271D01*
X52678586Y-72107111D01*
X52576262Y-71953972D01*
X52446028Y-71823738D01*
X52292889Y-71721414D01*
X52122729Y-71650932D01*
X51942089Y-71615000D01*
X51757911Y-71615000D01*
X51577271Y-71650932D01*
X51407111Y-71721414D01*
X51253972Y-71823738D01*
X51123738Y-71953972D01*
X51021414Y-72107111D01*
X50950932Y-72277271D01*
X50915000Y-72457911D01*
X50915000Y-72642089D01*
X50950932Y-72822729D01*
X51021414Y-72992889D01*
X51123738Y-73146028D01*
X51252833Y-73275123D01*
X51201939Y-73265000D01*
X50998061Y-73265000D01*
X50985000Y-73267598D01*
X50985000Y-73248061D01*
X50945226Y-73048102D01*
X50867205Y-72859744D01*
X50753937Y-72690226D01*
X50609774Y-72546063D01*
X50440256Y-72432795D01*
X50396421Y-72414638D01*
X50438656Y-72351429D01*
X50509138Y-72181269D01*
X50545070Y-72000629D01*
X50545070Y-71816451D01*
X50509138Y-71635811D01*
X50438656Y-71465651D01*
X50336332Y-71312512D01*
X50221881Y-71198061D01*
X55065000Y-71198061D01*
X55065000Y-71401939D01*
X55104774Y-71601898D01*
X55182795Y-71790256D01*
X55296063Y-71959774D01*
X55440226Y-72103937D01*
X55517114Y-72155312D01*
X55504774Y-72185102D01*
X55465000Y-72385061D01*
X55465000Y-72588939D01*
X55504774Y-72788898D01*
X55582795Y-72977256D01*
X55696063Y-73146774D01*
X55840226Y-73290937D01*
X56009744Y-73404205D01*
X56198102Y-73482226D01*
X56398061Y-73522000D01*
X56601939Y-73522000D01*
X56801898Y-73482226D01*
X56990256Y-73404205D01*
X57159774Y-73290937D01*
X57303937Y-73146774D01*
X57417205Y-72977256D01*
X57495226Y-72788898D01*
X57535000Y-72588939D01*
X57535000Y-72385061D01*
X57495226Y-72185102D01*
X57417205Y-71996744D01*
X57303937Y-71827226D01*
X57159774Y-71683063D01*
X57082886Y-71631688D01*
X57095226Y-71601898D01*
X57135000Y-71401939D01*
X57135000Y-71198061D01*
X57095226Y-70998102D01*
X57017205Y-70809744D01*
X56903937Y-70640226D01*
X56759774Y-70496063D01*
X56590256Y-70382795D01*
X56401898Y-70304774D01*
X56201939Y-70265000D01*
X55998061Y-70265000D01*
X55798102Y-70304774D01*
X55609744Y-70382795D01*
X55440226Y-70496063D01*
X55296063Y-70640226D01*
X55182795Y-70809744D01*
X55104774Y-70998102D01*
X55065000Y-71198061D01*
X50221881Y-71198061D01*
X50206098Y-71182278D01*
X50052959Y-71079954D01*
X49882799Y-71009472D01*
X49702159Y-70973540D01*
X49517981Y-70973540D01*
X49337341Y-71009472D01*
X49167181Y-71079954D01*
X49014042Y-71182278D01*
X48883808Y-71312512D01*
X48781484Y-71465651D01*
X48711002Y-71635811D01*
X48682131Y-71780951D01*
X48601939Y-71765000D01*
X48398061Y-71765000D01*
X48198102Y-71804774D01*
X48009744Y-71882795D01*
X47840226Y-71996063D01*
X47696063Y-72140226D01*
X47582795Y-72309744D01*
X47504774Y-72498102D01*
X47465000Y-72698061D01*
X47465000Y-72901939D01*
X47483203Y-72993450D01*
X47359246Y-73044795D01*
X47189728Y-73158063D01*
X47045565Y-73302226D01*
X46932297Y-73471744D01*
X46854276Y-73660102D01*
X46814502Y-73860061D01*
X44235874Y-73860061D01*
X44235874Y-73792282D01*
X44196100Y-73592323D01*
X44118079Y-73403965D01*
X44004811Y-73234447D01*
X43860648Y-73090284D01*
X43691130Y-72977016D01*
X43502772Y-72898995D01*
X43302813Y-72859221D01*
X43098935Y-72859221D01*
X42898976Y-72898995D01*
X42710618Y-72977016D01*
X42541100Y-73090284D01*
X42396937Y-73234447D01*
X42283669Y-73403965D01*
X42205648Y-73592323D01*
X42165874Y-73792282D01*
X40068678Y-73792282D01*
X39976262Y-73653972D01*
X39846028Y-73523738D01*
X39692889Y-73421414D01*
X39522729Y-73350932D01*
X39342089Y-73315000D01*
X39157911Y-73315000D01*
X38977271Y-73350932D01*
X38807111Y-73421414D01*
X38653972Y-73523738D01*
X38523738Y-73653972D01*
X38421414Y-73807111D01*
X38350932Y-73977271D01*
X38315000Y-74157911D01*
X38315000Y-74342089D01*
X38350932Y-74522729D01*
X38421414Y-74692889D01*
X38424230Y-74697104D01*
X38322462Y-74849411D01*
X38244441Y-75037769D01*
X38204667Y-75237728D01*
X25823254Y-75237728D01*
X25854349Y-75206633D01*
X26016864Y-74963412D01*
X26128806Y-74693159D01*
X26185874Y-74406261D01*
X26185874Y-74113741D01*
X26128806Y-73826843D01*
X26016864Y-73556590D01*
X25854349Y-73313369D01*
X25647506Y-73106526D01*
X25473114Y-72990001D01*
X25647506Y-72873476D01*
X25854349Y-72666633D01*
X26016864Y-72423412D01*
X26128806Y-72153159D01*
X26185874Y-71866261D01*
X26185874Y-71573741D01*
X26128806Y-71286843D01*
X26016864Y-71016590D01*
X25972371Y-70950000D01*
X31111928Y-70950000D01*
X31111928Y-72650000D01*
X31124188Y-72774482D01*
X31160498Y-72894180D01*
X31219463Y-73004494D01*
X31298815Y-73101185D01*
X31395506Y-73180537D01*
X31505820Y-73239502D01*
X31625518Y-73275812D01*
X31750000Y-73288072D01*
X33450000Y-73288072D01*
X33481515Y-73284968D01*
X33504774Y-73401898D01*
X33582795Y-73590256D01*
X33696063Y-73759774D01*
X33840226Y-73903937D01*
X34009744Y-74017205D01*
X34198102Y-74095226D01*
X34398061Y-74135000D01*
X34601939Y-74135000D01*
X34801898Y-74095226D01*
X34900000Y-74054591D01*
X34998102Y-74095226D01*
X35198061Y-74135000D01*
X35401939Y-74135000D01*
X35601898Y-74095226D01*
X35790256Y-74017205D01*
X35959774Y-73903937D01*
X36103937Y-73759774D01*
X36217205Y-73590256D01*
X36295226Y-73401898D01*
X36335000Y-73201939D01*
X36335000Y-72998061D01*
X36295226Y-72798102D01*
X36217205Y-72609744D01*
X36103937Y-72440226D01*
X36063711Y-72400000D01*
X36103937Y-72359774D01*
X36217205Y-72190256D01*
X36295226Y-72001898D01*
X36335000Y-71801939D01*
X36335000Y-71598061D01*
X36330675Y-71576320D01*
X36450000Y-71588072D01*
X38150000Y-71588072D01*
X38274482Y-71575812D01*
X38394180Y-71539502D01*
X38504494Y-71480537D01*
X38601185Y-71401185D01*
X38680537Y-71304494D01*
X38739502Y-71194180D01*
X38761513Y-71121620D01*
X38893368Y-71253475D01*
X39136589Y-71415990D01*
X39406842Y-71527932D01*
X39693740Y-71585000D01*
X39986260Y-71585000D01*
X40273158Y-71527932D01*
X40543411Y-71415990D01*
X40786632Y-71253475D01*
X40993475Y-71046632D01*
X41155990Y-70803411D01*
X41267932Y-70533158D01*
X41325000Y-70246260D01*
X41325000Y-69953740D01*
X41294034Y-69798061D01*
X41465000Y-69798061D01*
X41465000Y-70001939D01*
X41504774Y-70201898D01*
X41582795Y-70390256D01*
X41696063Y-70559774D01*
X41840226Y-70703937D01*
X42009744Y-70817205D01*
X42198102Y-70895226D01*
X42398061Y-70935000D01*
X42601939Y-70935000D01*
X42801898Y-70895226D01*
X42990256Y-70817205D01*
X43159774Y-70703937D01*
X43303937Y-70559774D01*
X43417205Y-70390256D01*
X43455393Y-70298061D01*
X45865000Y-70298061D01*
X45865000Y-70501939D01*
X45904774Y-70701898D01*
X45982795Y-70890256D01*
X46096063Y-71059774D01*
X46240226Y-71203937D01*
X46409744Y-71317205D01*
X46598102Y-71395226D01*
X46798061Y-71435000D01*
X47001939Y-71435000D01*
X47201898Y-71395226D01*
X47390256Y-71317205D01*
X47559774Y-71203937D01*
X47703937Y-71059774D01*
X47817205Y-70890256D01*
X47895226Y-70701898D01*
X47935000Y-70501939D01*
X47935000Y-70298061D01*
X47895226Y-70098102D01*
X47817205Y-69909744D01*
X47703937Y-69740226D01*
X47559774Y-69596063D01*
X47390256Y-69482795D01*
X47201898Y-69404774D01*
X47001939Y-69365000D01*
X46798061Y-69365000D01*
X46598102Y-69404774D01*
X46409744Y-69482795D01*
X46240226Y-69596063D01*
X46096063Y-69740226D01*
X45982795Y-69909744D01*
X45904774Y-70098102D01*
X45865000Y-70298061D01*
X43455393Y-70298061D01*
X43495226Y-70201898D01*
X43535000Y-70001939D01*
X43535000Y-69798061D01*
X43495226Y-69598102D01*
X43417205Y-69409744D01*
X43303937Y-69240226D01*
X43166065Y-69102354D01*
X43201898Y-69095226D01*
X43390256Y-69017205D01*
X43559774Y-68903937D01*
X43703937Y-68759774D01*
X43817205Y-68590256D01*
X43895226Y-68401898D01*
X43935000Y-68201939D01*
X43935000Y-67998061D01*
X43895226Y-67798102D01*
X43817205Y-67609744D01*
X43703937Y-67440226D01*
X43559774Y-67296063D01*
X43390256Y-67182795D01*
X43383412Y-67179960D01*
X43459774Y-67128937D01*
X43490650Y-67098061D01*
X45865000Y-67098061D01*
X45865000Y-67301939D01*
X45904774Y-67501898D01*
X45982795Y-67690256D01*
X46096063Y-67859774D01*
X46240226Y-68003937D01*
X46409744Y-68117205D01*
X46598102Y-68195226D01*
X46798061Y-68235000D01*
X47001939Y-68235000D01*
X47201898Y-68195226D01*
X47390256Y-68117205D01*
X47559774Y-68003937D01*
X47703937Y-67859774D01*
X47817205Y-67690256D01*
X47895226Y-67501898D01*
X47935000Y-67301939D01*
X47935000Y-67254977D01*
X47971414Y-67342889D01*
X48073738Y-67496028D01*
X48203972Y-67626262D01*
X48299162Y-67689866D01*
X48140226Y-67796063D01*
X47996063Y-67940226D01*
X47882795Y-68109744D01*
X47804774Y-68298102D01*
X47765000Y-68498061D01*
X47765000Y-68701939D01*
X47804774Y-68901898D01*
X47882795Y-69090256D01*
X47996063Y-69259774D01*
X48140226Y-69403937D01*
X48309744Y-69517205D01*
X48498102Y-69595226D01*
X48698061Y-69635000D01*
X48901939Y-69635000D01*
X49087645Y-69598061D01*
X57265000Y-69598061D01*
X57265000Y-69801939D01*
X57304774Y-70001898D01*
X57382795Y-70190256D01*
X57496063Y-70359774D01*
X57640226Y-70503937D01*
X57809744Y-70617205D01*
X57889399Y-70650199D01*
X57782795Y-70809744D01*
X57704774Y-70998102D01*
X57665000Y-71198061D01*
X57665000Y-71401939D01*
X57704774Y-71601898D01*
X57782795Y-71790256D01*
X57896063Y-71959774D01*
X58040226Y-72103937D01*
X58209744Y-72217205D01*
X58398102Y-72295226D01*
X58598061Y-72335000D01*
X58801939Y-72335000D01*
X59001898Y-72295226D01*
X59190256Y-72217205D01*
X59359774Y-72103937D01*
X59503937Y-71959774D01*
X59617205Y-71790256D01*
X59695226Y-71601898D01*
X59735000Y-71401939D01*
X59735000Y-71198061D01*
X59695226Y-70998102D01*
X59617205Y-70809744D01*
X59503937Y-70640226D01*
X59359774Y-70496063D01*
X59190256Y-70382795D01*
X59110601Y-70349801D01*
X59217205Y-70190256D01*
X59295226Y-70001898D01*
X59335000Y-69801939D01*
X59335000Y-69598061D01*
X59295226Y-69398102D01*
X59217205Y-69209744D01*
X59103937Y-69040226D01*
X58959774Y-68896063D01*
X58790256Y-68782795D01*
X58601898Y-68704774D01*
X58401939Y-68665000D01*
X58198061Y-68665000D01*
X57998102Y-68704774D01*
X57809744Y-68782795D01*
X57640226Y-68896063D01*
X57496063Y-69040226D01*
X57382795Y-69209744D01*
X57304774Y-69398102D01*
X57265000Y-69598061D01*
X49087645Y-69598061D01*
X49101898Y-69595226D01*
X49290256Y-69517205D01*
X49459774Y-69403937D01*
X49603937Y-69259774D01*
X49717205Y-69090256D01*
X49795226Y-68901898D01*
X49835000Y-68701939D01*
X49835000Y-68681512D01*
X49990256Y-68617202D01*
X50159774Y-68503934D01*
X50303937Y-68359771D01*
X50417205Y-68190253D01*
X50495226Y-68001895D01*
X50535000Y-67801936D01*
X50535000Y-67598058D01*
X50495226Y-67398099D01*
X50417205Y-67209741D01*
X50303937Y-67040223D01*
X50159774Y-66896060D01*
X49990256Y-66782792D01*
X49801898Y-66704771D01*
X49710883Y-66686667D01*
X49699068Y-66627271D01*
X49628586Y-66457111D01*
X49526262Y-66303972D01*
X49396028Y-66173738D01*
X49242889Y-66071414D01*
X49072729Y-66000932D01*
X48911436Y-65968848D01*
X48868740Y-65865771D01*
X48766416Y-65712632D01*
X48636182Y-65582398D01*
X48483043Y-65480074D01*
X48383802Y-65438967D01*
X51465000Y-65438967D01*
X51465000Y-65761033D01*
X51527832Y-66076912D01*
X51651082Y-66374463D01*
X51830013Y-66642252D01*
X52057748Y-66869987D01*
X52325537Y-67048918D01*
X52623088Y-67172168D01*
X52938967Y-67235000D01*
X53261033Y-67235000D01*
X53576912Y-67172168D01*
X53874463Y-67048918D01*
X54142252Y-66869987D01*
X54369987Y-66642252D01*
X54548918Y-66374463D01*
X54672168Y-66076912D01*
X54733038Y-65770896D01*
X60513330Y-65770896D01*
X60513330Y-66024018D01*
X60562711Y-66272278D01*
X60659577Y-66506133D01*
X60800205Y-66716597D01*
X60979190Y-66895582D01*
X61189654Y-67036210D01*
X61423509Y-67133076D01*
X61671769Y-67182457D01*
X61924891Y-67182457D01*
X62173151Y-67133076D01*
X62407006Y-67036210D01*
X62617470Y-66895582D01*
X62796455Y-66716597D01*
X62937083Y-66506133D01*
X62954332Y-66464491D01*
X63126053Y-66535620D01*
X63374313Y-66585001D01*
X63627435Y-66585001D01*
X63875695Y-66535620D01*
X64109550Y-66438754D01*
X64320014Y-66298126D01*
X64498999Y-66119141D01*
X64639627Y-65908677D01*
X64736493Y-65674822D01*
X64785874Y-65426562D01*
X64785874Y-65173440D01*
X64736493Y-64925180D01*
X64639627Y-64691325D01*
X64498999Y-64480861D01*
X64418139Y-64400001D01*
X64498999Y-64319141D01*
X64639627Y-64108677D01*
X64736493Y-63874822D01*
X64785874Y-63626562D01*
X64785874Y-63373440D01*
X64736493Y-63125180D01*
X64639627Y-62891325D01*
X64498999Y-62680861D01*
X64320014Y-62501876D01*
X64167548Y-62400001D01*
X64320014Y-62298126D01*
X64498999Y-62119141D01*
X64639627Y-61908677D01*
X64736493Y-61674822D01*
X64785874Y-61426562D01*
X64785874Y-61173440D01*
X64736493Y-60925180D01*
X64639627Y-60691325D01*
X64498999Y-60480861D01*
X64368139Y-60350001D01*
X64498999Y-60219141D01*
X64639627Y-60008677D01*
X64736493Y-59774822D01*
X64785874Y-59526562D01*
X64785874Y-59273440D01*
X64736493Y-59025180D01*
X64639627Y-58791325D01*
X64498999Y-58580861D01*
X64320014Y-58401876D01*
X64109550Y-58261248D01*
X63875695Y-58164382D01*
X63627435Y-58115001D01*
X63374313Y-58115001D01*
X63126053Y-58164382D01*
X62892198Y-58261248D01*
X62681734Y-58401876D01*
X62502749Y-58580861D01*
X62379164Y-58765819D01*
X62375695Y-58764382D01*
X62127435Y-58715001D01*
X61874313Y-58715001D01*
X61626053Y-58764382D01*
X61392198Y-58861248D01*
X61181734Y-59001876D01*
X61002749Y-59180861D01*
X60862121Y-59391325D01*
X60765255Y-59625180D01*
X60715874Y-59873440D01*
X60715874Y-60126562D01*
X60765255Y-60374822D01*
X60862121Y-60608677D01*
X61002749Y-60819141D01*
X61181734Y-60998126D01*
X61371613Y-61125000D01*
X61181734Y-61251873D01*
X61002749Y-61430858D01*
X60862121Y-61641322D01*
X60765255Y-61875177D01*
X60715874Y-62123437D01*
X60715874Y-62376559D01*
X60765255Y-62624819D01*
X60862121Y-62858674D01*
X61002749Y-63069138D01*
X61163955Y-63230344D01*
X61131732Y-63251874D01*
X60952747Y-63430859D01*
X60812119Y-63641323D01*
X60715253Y-63875178D01*
X60665872Y-64123438D01*
X60665872Y-64376560D01*
X60715253Y-64624820D01*
X60812119Y-64858675D01*
X60895323Y-64983199D01*
X60800205Y-65078317D01*
X60659577Y-65288781D01*
X60562711Y-65522636D01*
X60513330Y-65770896D01*
X54733038Y-65770896D01*
X54735000Y-65761033D01*
X54735000Y-65438967D01*
X54672168Y-65123088D01*
X54548918Y-64825537D01*
X54369987Y-64557748D01*
X54142252Y-64330013D01*
X53874463Y-64151082D01*
X53576912Y-64027832D01*
X53261033Y-63965000D01*
X52938967Y-63965000D01*
X52623088Y-64027832D01*
X52325537Y-64151082D01*
X52057748Y-64330013D01*
X51830013Y-64557748D01*
X51651082Y-64825537D01*
X51527832Y-65123088D01*
X51465000Y-65438967D01*
X48383802Y-65438967D01*
X48312883Y-65409592D01*
X48132243Y-65373660D01*
X47948065Y-65373660D01*
X47767425Y-65409592D01*
X47597265Y-65480074D01*
X47444126Y-65582398D01*
X47313892Y-65712632D01*
X47211568Y-65865771D01*
X47141086Y-66035931D01*
X47111093Y-66186712D01*
X47001939Y-66165000D01*
X46798061Y-66165000D01*
X46598102Y-66204774D01*
X46409744Y-66282795D01*
X46240226Y-66396063D01*
X46096063Y-66540226D01*
X45982795Y-66709744D01*
X45904774Y-66898102D01*
X45865000Y-67098061D01*
X43490650Y-67098061D01*
X43603937Y-66984774D01*
X43717205Y-66815256D01*
X43795226Y-66626898D01*
X43835000Y-66426939D01*
X43835000Y-66223061D01*
X43795226Y-66023102D01*
X43717205Y-65834744D01*
X43603937Y-65665226D01*
X43459774Y-65521063D01*
X43290256Y-65407795D01*
X43101898Y-65329774D01*
X42901939Y-65290000D01*
X42698061Y-65290000D01*
X42498102Y-65329774D01*
X42309744Y-65407795D01*
X42140226Y-65521063D01*
X41996063Y-65665226D01*
X41882795Y-65834744D01*
X41804774Y-66023102D01*
X41765000Y-66223061D01*
X41765000Y-66426939D01*
X41804774Y-66626898D01*
X41882795Y-66815256D01*
X41996063Y-66984774D01*
X42140226Y-67128937D01*
X42309744Y-67242205D01*
X42316588Y-67245040D01*
X42240226Y-67296063D01*
X42096063Y-67440226D01*
X41982795Y-67609744D01*
X41904774Y-67798102D01*
X41865000Y-67998061D01*
X41865000Y-68201939D01*
X41904774Y-68401898D01*
X41982795Y-68590256D01*
X42096063Y-68759774D01*
X42233935Y-68897646D01*
X42198102Y-68904774D01*
X42009744Y-68982795D01*
X41840226Y-69096063D01*
X41696063Y-69240226D01*
X41582795Y-69409744D01*
X41504774Y-69598102D01*
X41465000Y-69798061D01*
X41294034Y-69798061D01*
X41267932Y-69666842D01*
X41155990Y-69396589D01*
X40993475Y-69153368D01*
X40786632Y-68946525D01*
X40612240Y-68830000D01*
X40786632Y-68713475D01*
X40993475Y-68506632D01*
X41155990Y-68263411D01*
X41267932Y-67993158D01*
X41325000Y-67706260D01*
X41325000Y-67413740D01*
X41267932Y-67126842D01*
X41155990Y-66856589D01*
X40993475Y-66613368D01*
X40786632Y-66406525D01*
X40543411Y-66244010D01*
X40273158Y-66132068D01*
X39986260Y-66075000D01*
X39693740Y-66075000D01*
X39406842Y-66132068D01*
X39136589Y-66244010D01*
X38893368Y-66406525D01*
X38686525Y-66613368D01*
X38570000Y-66787760D01*
X38453475Y-66613368D01*
X38246632Y-66406525D01*
X38003411Y-66244010D01*
X37733158Y-66132068D01*
X37446260Y-66075000D01*
X37153740Y-66075000D01*
X36866842Y-66132068D01*
X36596589Y-66244010D01*
X36353368Y-66406525D01*
X36146525Y-66613368D01*
X35984010Y-66856589D01*
X35901066Y-67056835D01*
X35790256Y-66982795D01*
X35601898Y-66904774D01*
X35401939Y-66865000D01*
X35198061Y-66865000D01*
X34998102Y-66904774D01*
X34900000Y-66945409D01*
X34801898Y-66904774D01*
X34601939Y-66865000D01*
X34398061Y-66865000D01*
X34198102Y-66904774D01*
X34066496Y-66959288D01*
X34085000Y-66866260D01*
X34085000Y-66573740D01*
X34027932Y-66286842D01*
X33915990Y-66016589D01*
X33753475Y-65773368D01*
X33546632Y-65566525D01*
X33303411Y-65404010D01*
X33033158Y-65292068D01*
X32746260Y-65235000D01*
X32453740Y-65235000D01*
X32166842Y-65292068D01*
X31896589Y-65404010D01*
X31653368Y-65566525D01*
X31446525Y-65773368D01*
X31284010Y-66016589D01*
X31172068Y-66286842D01*
X31115000Y-66573740D01*
X31115000Y-66866260D01*
X31172068Y-67153158D01*
X31284010Y-67423411D01*
X31446525Y-67666632D01*
X31653368Y-67873475D01*
X31827760Y-67990000D01*
X31653368Y-68106525D01*
X31446525Y-68313368D01*
X31284010Y-68556589D01*
X31172068Y-68826842D01*
X31115000Y-69113740D01*
X31115000Y-69406260D01*
X31172068Y-69693158D01*
X31284010Y-69963411D01*
X31446525Y-70206632D01*
X31578380Y-70338487D01*
X31505820Y-70360498D01*
X31395506Y-70419463D01*
X31298815Y-70498815D01*
X31219463Y-70595506D01*
X31160498Y-70705820D01*
X31124188Y-70825518D01*
X31111928Y-70950000D01*
X25972371Y-70950000D01*
X25854349Y-70773369D01*
X25647506Y-70566526D01*
X25404285Y-70404011D01*
X25134032Y-70292069D01*
X24847134Y-70235001D01*
X24554614Y-70235001D01*
X24267716Y-70292069D01*
X23997463Y-70404011D01*
X23754242Y-70566526D01*
X23560588Y-70760180D01*
X23560643Y-67599877D01*
X23754242Y-67793476D01*
X23997463Y-67955991D01*
X24267716Y-68067933D01*
X24554614Y-68125001D01*
X24847134Y-68125001D01*
X25134032Y-68067933D01*
X25404285Y-67955991D01*
X25647506Y-67793476D01*
X25854349Y-67586633D01*
X26016864Y-67343412D01*
X26128806Y-67073159D01*
X26185874Y-66786261D01*
X26185874Y-66493741D01*
X26128806Y-66206843D01*
X26016864Y-65936590D01*
X25854349Y-65693369D01*
X25722494Y-65561514D01*
X25795054Y-65539503D01*
X25905368Y-65480538D01*
X26002059Y-65401186D01*
X26081411Y-65304495D01*
X26140376Y-65194181D01*
X26176686Y-65074483D01*
X26188946Y-64950001D01*
X26188946Y-63250001D01*
X26176686Y-63125519D01*
X26140376Y-63005821D01*
X26081411Y-62895507D01*
X26002059Y-62798816D01*
X25905368Y-62719464D01*
X25795054Y-62660499D01*
X25675356Y-62624189D01*
X25550874Y-62611929D01*
X23850874Y-62611929D01*
X23726392Y-62624189D01*
X23606694Y-62660499D01*
X23560727Y-62685069D01*
X23560776Y-59793740D01*
X35815000Y-59793740D01*
X35815000Y-60086260D01*
X35872068Y-60373158D01*
X35984010Y-60643411D01*
X36146525Y-60886632D01*
X36353368Y-61093475D01*
X36527760Y-61210000D01*
X36353368Y-61326525D01*
X36146525Y-61533368D01*
X35984010Y-61776589D01*
X35872068Y-62046842D01*
X35815000Y-62333740D01*
X35815000Y-62626260D01*
X35872068Y-62913158D01*
X35984010Y-63183411D01*
X36146525Y-63426632D01*
X36353368Y-63633475D01*
X36596589Y-63795990D01*
X36866842Y-63907932D01*
X37153740Y-63965000D01*
X37446260Y-63965000D01*
X37733158Y-63907932D01*
X38003411Y-63795990D01*
X38246632Y-63633475D01*
X38453475Y-63426632D01*
X38570000Y-63252240D01*
X38686525Y-63426632D01*
X38893368Y-63633475D01*
X39136589Y-63795990D01*
X39406842Y-63907932D01*
X39693740Y-63965000D01*
X39986260Y-63965000D01*
X40273158Y-63907932D01*
X40543411Y-63795990D01*
X40786632Y-63633475D01*
X40993475Y-63426632D01*
X41155990Y-63183411D01*
X41267932Y-62913158D01*
X41325000Y-62626260D01*
X41325000Y-62333740D01*
X41267932Y-62046842D01*
X41155990Y-61776589D01*
X40993475Y-61533368D01*
X40786632Y-61326525D01*
X40744033Y-61298061D01*
X49565000Y-61298061D01*
X49565000Y-61501939D01*
X49604774Y-61701898D01*
X49682795Y-61890256D01*
X49796063Y-62059774D01*
X49940226Y-62203937D01*
X50109744Y-62317205D01*
X50298102Y-62395226D01*
X50498061Y-62435000D01*
X50701939Y-62435000D01*
X50901898Y-62395226D01*
X51090256Y-62317205D01*
X51259774Y-62203937D01*
X51403937Y-62059774D01*
X51517205Y-61890256D01*
X51595226Y-61701898D01*
X51635000Y-61501939D01*
X51635000Y-61298061D01*
X51595226Y-61098102D01*
X51517205Y-60909744D01*
X51403937Y-60740226D01*
X51259774Y-60596063D01*
X51090256Y-60482795D01*
X50901898Y-60404774D01*
X50701939Y-60365000D01*
X50498061Y-60365000D01*
X50298102Y-60404774D01*
X50109744Y-60482795D01*
X49940226Y-60596063D01*
X49796063Y-60740226D01*
X49682795Y-60909744D01*
X49604774Y-61098102D01*
X49565000Y-61298061D01*
X40744033Y-61298061D01*
X40612240Y-61210000D01*
X40786632Y-61093475D01*
X40993475Y-60886632D01*
X41155990Y-60643411D01*
X41267932Y-60373158D01*
X41325000Y-60086260D01*
X41325000Y-59793740D01*
X41267932Y-59506842D01*
X41226954Y-59407911D01*
X45565000Y-59407911D01*
X45565000Y-59592089D01*
X45600932Y-59772729D01*
X45671414Y-59942889D01*
X45773738Y-60096028D01*
X45903972Y-60226262D01*
X46057111Y-60328586D01*
X46227271Y-60399068D01*
X46407911Y-60435000D01*
X46592089Y-60435000D01*
X46772729Y-60399068D01*
X46942889Y-60328586D01*
X47096028Y-60226262D01*
X47226262Y-60096028D01*
X47328586Y-59942889D01*
X47399068Y-59772729D01*
X47407977Y-59727941D01*
X47471898Y-59715226D01*
X47660256Y-59637205D01*
X47829774Y-59523937D01*
X47973937Y-59379774D01*
X48087205Y-59210256D01*
X48165226Y-59021898D01*
X48181721Y-58938967D01*
X51465000Y-58938967D01*
X51465000Y-59261033D01*
X51527832Y-59576912D01*
X51651082Y-59874463D01*
X51830013Y-60142252D01*
X52057748Y-60369987D01*
X52325537Y-60548918D01*
X52623088Y-60672168D01*
X52938967Y-60735000D01*
X53261033Y-60735000D01*
X53576912Y-60672168D01*
X53874463Y-60548918D01*
X54142252Y-60369987D01*
X54369987Y-60142252D01*
X54548918Y-59874463D01*
X54672168Y-59576912D01*
X54735000Y-59261033D01*
X54735000Y-58938967D01*
X54672168Y-58623088D01*
X54548918Y-58325537D01*
X54369987Y-58057748D01*
X54142252Y-57830013D01*
X53874463Y-57651082D01*
X53576912Y-57527832D01*
X53261033Y-57465000D01*
X52938967Y-57465000D01*
X52623088Y-57527832D01*
X52325537Y-57651082D01*
X52057748Y-57830013D01*
X51830013Y-58057748D01*
X51651082Y-58325537D01*
X51527832Y-58623088D01*
X51465000Y-58938967D01*
X48181721Y-58938967D01*
X48205000Y-58821939D01*
X48205000Y-58618061D01*
X48165226Y-58418102D01*
X48087205Y-58229744D01*
X47973937Y-58060226D01*
X47829774Y-57916063D01*
X47660256Y-57802795D01*
X47471898Y-57724774D01*
X47271939Y-57685000D01*
X47068061Y-57685000D01*
X46868102Y-57724774D01*
X46679744Y-57802795D01*
X46510226Y-57916063D01*
X46366063Y-58060226D01*
X46252795Y-58229744D01*
X46174774Y-58418102D01*
X46135000Y-58618061D01*
X46135000Y-58639152D01*
X46057111Y-58671414D01*
X45903972Y-58773738D01*
X45773738Y-58903972D01*
X45671414Y-59057111D01*
X45600932Y-59227271D01*
X45565000Y-59407911D01*
X41226954Y-59407911D01*
X41155990Y-59236589D01*
X40993475Y-58993368D01*
X40786632Y-58786525D01*
X40543411Y-58624010D01*
X40273158Y-58512068D01*
X39986260Y-58455000D01*
X39693740Y-58455000D01*
X39406842Y-58512068D01*
X39136589Y-58624010D01*
X38893368Y-58786525D01*
X38686525Y-58993368D01*
X38570000Y-59167760D01*
X38453475Y-58993368D01*
X38246632Y-58786525D01*
X38003411Y-58624010D01*
X37733158Y-58512068D01*
X37446260Y-58455000D01*
X37153740Y-58455000D01*
X36866842Y-58512068D01*
X36596589Y-58624010D01*
X36353368Y-58786525D01*
X36146525Y-58993368D01*
X35984010Y-59236589D01*
X35872068Y-59506842D01*
X35815000Y-59793740D01*
X23560776Y-59793740D01*
X23560884Y-53507911D01*
X49965000Y-53507911D01*
X49965000Y-53692089D01*
X50000932Y-53872729D01*
X50071414Y-54042889D01*
X50173738Y-54196028D01*
X50303972Y-54326262D01*
X50457111Y-54428586D01*
X50627271Y-54499068D01*
X50807911Y-54535000D01*
X50992089Y-54535000D01*
X51172729Y-54499068D01*
X51342889Y-54428586D01*
X51496028Y-54326262D01*
X51626262Y-54196028D01*
X51728586Y-54042889D01*
X51799068Y-53872729D01*
X51835000Y-53692089D01*
X51835000Y-53507911D01*
X51799068Y-53327271D01*
X51728586Y-53157111D01*
X51626262Y-53003972D01*
X51496028Y-52873738D01*
X51342889Y-52771414D01*
X51172729Y-52700932D01*
X50992089Y-52665000D01*
X50807911Y-52665000D01*
X50627271Y-52700932D01*
X50457111Y-52771414D01*
X50303972Y-52873738D01*
X50173738Y-53003972D01*
X50071414Y-53157111D01*
X50000932Y-53327271D01*
X49965000Y-53507911D01*
X23560884Y-53507911D01*
X23560928Y-50970000D01*
X72791928Y-50970000D01*
X72791928Y-52610000D01*
X72804188Y-52734482D01*
X72840498Y-52854180D01*
X72899463Y-52964494D01*
X72978815Y-53061185D01*
X73075506Y-53140537D01*
X73185820Y-53199502D01*
X73290932Y-53231388D01*
X73119828Y-53402492D01*
X72960596Y-53640799D01*
X72850915Y-53905592D01*
X72795000Y-54186695D01*
X72795000Y-54473305D01*
X72850915Y-54754408D01*
X72960596Y-55019201D01*
X73119828Y-55257508D01*
X73322492Y-55460172D01*
X73531759Y-55600000D01*
X73322492Y-55739828D01*
X73119828Y-55942492D01*
X72960596Y-56180799D01*
X72850915Y-56445592D01*
X72795000Y-56726695D01*
X72795000Y-57013305D01*
X72850915Y-57294408D01*
X72960596Y-57559201D01*
X73119828Y-57797508D01*
X73322492Y-58000172D01*
X73531759Y-58140000D01*
X73322492Y-58279828D01*
X73119828Y-58482492D01*
X72960596Y-58720799D01*
X72850915Y-58985592D01*
X72795000Y-59266695D01*
X72795000Y-59553305D01*
X72850915Y-59834408D01*
X72960596Y-60099201D01*
X73119828Y-60337508D01*
X73322492Y-60540172D01*
X73560799Y-60699404D01*
X73825592Y-60809085D01*
X74106695Y-60865000D01*
X74393305Y-60865000D01*
X74674408Y-60809085D01*
X74939201Y-60699404D01*
X75177508Y-60540172D01*
X75380172Y-60337508D01*
X75520000Y-60128241D01*
X75659828Y-60337508D01*
X75862492Y-60540172D01*
X76071759Y-60680000D01*
X75862492Y-60819828D01*
X75659828Y-61022492D01*
X75500596Y-61260799D01*
X75390915Y-61525592D01*
X75335000Y-61806695D01*
X75335000Y-62093305D01*
X75390915Y-62374408D01*
X75500596Y-62639201D01*
X75659828Y-62877508D01*
X75862492Y-63080172D01*
X76071759Y-63220000D01*
X75862492Y-63359828D01*
X75659828Y-63562492D01*
X75520000Y-63771759D01*
X75380172Y-63562492D01*
X75177508Y-63359828D01*
X74939201Y-63200596D01*
X74674408Y-63090915D01*
X74393305Y-63035000D01*
X74106695Y-63035000D01*
X73825592Y-63090915D01*
X73560799Y-63200596D01*
X73322492Y-63359828D01*
X73119828Y-63562492D01*
X72960596Y-63800799D01*
X72850915Y-64065592D01*
X72795000Y-64346695D01*
X72795000Y-64633305D01*
X72850915Y-64914408D01*
X72960596Y-65179201D01*
X73119828Y-65417508D01*
X73322492Y-65620172D01*
X73531759Y-65760000D01*
X73322492Y-65899828D01*
X73119828Y-66102492D01*
X72960596Y-66340799D01*
X72850915Y-66605592D01*
X72795000Y-66886695D01*
X72795000Y-67173305D01*
X72850915Y-67454408D01*
X72960596Y-67719201D01*
X73119828Y-67957508D01*
X73322492Y-68160172D01*
X73531759Y-68300000D01*
X73322492Y-68439828D01*
X73119828Y-68642492D01*
X72960596Y-68880799D01*
X72850915Y-69145592D01*
X72795000Y-69426695D01*
X72795000Y-69713305D01*
X72850915Y-69994408D01*
X72960596Y-70259201D01*
X73119828Y-70497508D01*
X73322492Y-70700172D01*
X73531759Y-70840000D01*
X73322492Y-70979828D01*
X73119828Y-71182492D01*
X72960596Y-71420799D01*
X72850915Y-71685592D01*
X72795000Y-71966695D01*
X72795000Y-72253305D01*
X72850915Y-72534408D01*
X72960596Y-72799201D01*
X73119828Y-73037508D01*
X73322492Y-73240172D01*
X73531759Y-73380000D01*
X73322492Y-73519828D01*
X73119828Y-73722492D01*
X72960596Y-73960799D01*
X72850915Y-74225592D01*
X72795000Y-74506695D01*
X72795000Y-74793305D01*
X72850915Y-75074408D01*
X72960596Y-75339201D01*
X73119828Y-75577508D01*
X73322492Y-75780172D01*
X73531759Y-75920000D01*
X73322492Y-76059828D01*
X73119828Y-76262492D01*
X72960596Y-76500799D01*
X72850915Y-76765592D01*
X72795000Y-77046695D01*
X72795000Y-77333305D01*
X72850915Y-77614408D01*
X72960596Y-77879201D01*
X73119828Y-78117508D01*
X73322492Y-78320172D01*
X73531759Y-78460000D01*
X73322492Y-78599828D01*
X73119828Y-78802492D01*
X72960596Y-79040799D01*
X72850915Y-79305592D01*
X72795000Y-79586695D01*
X72795000Y-79873305D01*
X72850915Y-80154408D01*
X72960596Y-80419201D01*
X73119828Y-80657508D01*
X73322492Y-80860172D01*
X73560799Y-81019404D01*
X73825592Y-81129085D01*
X74106695Y-81185000D01*
X74393305Y-81185000D01*
X74674408Y-81129085D01*
X74939201Y-81019404D01*
X75177508Y-80860172D01*
X75380172Y-80657508D01*
X75520000Y-80448241D01*
X75659828Y-80657508D01*
X75862492Y-80860172D01*
X76071759Y-81000000D01*
X75862492Y-81139828D01*
X75659828Y-81342492D01*
X75500596Y-81580799D01*
X75390915Y-81845592D01*
X75335000Y-82126695D01*
X75335000Y-82413305D01*
X75390915Y-82694408D01*
X75500596Y-82959201D01*
X75659828Y-83197508D01*
X75862492Y-83400172D01*
X76071759Y-83540000D01*
X75862492Y-83679828D01*
X75659828Y-83882492D01*
X75520000Y-84091759D01*
X75380172Y-83882492D01*
X75177508Y-83679828D01*
X74939201Y-83520596D01*
X74674408Y-83410915D01*
X74393305Y-83355000D01*
X74106695Y-83355000D01*
X73825592Y-83410915D01*
X73560799Y-83520596D01*
X73322492Y-83679828D01*
X73119828Y-83882492D01*
X72960596Y-84120799D01*
X72850915Y-84385592D01*
X72795000Y-84666695D01*
X72795000Y-84953305D01*
X72850915Y-85234408D01*
X72960596Y-85499201D01*
X73119828Y-85737508D01*
X73322492Y-85940172D01*
X73531759Y-86080000D01*
X73322492Y-86219828D01*
X73119828Y-86422492D01*
X72960596Y-86660799D01*
X72850915Y-86925592D01*
X72795000Y-87206695D01*
X72795000Y-87493305D01*
X72850915Y-87774408D01*
X72960596Y-88039201D01*
X73119828Y-88277508D01*
X73322492Y-88480172D01*
X73531759Y-88620000D01*
X73322492Y-88759828D01*
X73119828Y-88962492D01*
X72960596Y-89200799D01*
X72850915Y-89465592D01*
X72795000Y-89746695D01*
X72795000Y-90033305D01*
X72850915Y-90314408D01*
X72960596Y-90579201D01*
X73119828Y-90817508D01*
X73322492Y-91020172D01*
X73531759Y-91160000D01*
X73322492Y-91299828D01*
X73119828Y-91502492D01*
X72960596Y-91740799D01*
X72850915Y-92005592D01*
X72795000Y-92286695D01*
X72795000Y-92573305D01*
X72850915Y-92854408D01*
X72960596Y-93119201D01*
X73119828Y-93357508D01*
X73322492Y-93560172D01*
X73531759Y-93700000D01*
X73322492Y-93839828D01*
X73119828Y-94042492D01*
X72960596Y-94280799D01*
X72850915Y-94545592D01*
X72795000Y-94826695D01*
X72795000Y-95113305D01*
X72850915Y-95394408D01*
X72960596Y-95659201D01*
X73119828Y-95897508D01*
X73322492Y-96100172D01*
X73531759Y-96240000D01*
X73322492Y-96379828D01*
X73119828Y-96582492D01*
X72960596Y-96820799D01*
X72850915Y-97085592D01*
X72795000Y-97366695D01*
X72795000Y-97653305D01*
X72850915Y-97934408D01*
X72960596Y-98199201D01*
X73119828Y-98437508D01*
X73322492Y-98640172D01*
X73560799Y-98799404D01*
X73825592Y-98909085D01*
X74106695Y-98965000D01*
X74393305Y-98965000D01*
X74674408Y-98909085D01*
X74939201Y-98799404D01*
X75177508Y-98640172D01*
X75380172Y-98437508D01*
X75520000Y-98228241D01*
X75659828Y-98437508D01*
X75862492Y-98640172D01*
X76071759Y-98780000D01*
X75862492Y-98919828D01*
X75659828Y-99122492D01*
X75500596Y-99360799D01*
X75390915Y-99625592D01*
X75335000Y-99906695D01*
X75335000Y-100193305D01*
X75390915Y-100474408D01*
X75500596Y-100739201D01*
X75659828Y-100977508D01*
X75862492Y-101180172D01*
X76100799Y-101339404D01*
X76365592Y-101449085D01*
X76646695Y-101505000D01*
X76933305Y-101505000D01*
X77214408Y-101449085D01*
X77479201Y-101339404D01*
X77717508Y-101180172D01*
X77920172Y-100977508D01*
X78079404Y-100739201D01*
X78189085Y-100474408D01*
X78245000Y-100193305D01*
X78245000Y-99906695D01*
X78189085Y-99625592D01*
X78079404Y-99360799D01*
X77920172Y-99122492D01*
X77717508Y-98919828D01*
X77508241Y-98780000D01*
X77717508Y-98640172D01*
X77920172Y-98437508D01*
X78079404Y-98199201D01*
X78189085Y-97934408D01*
X78245000Y-97653305D01*
X78245000Y-97366695D01*
X78189085Y-97085592D01*
X78079404Y-96820799D01*
X77920172Y-96582492D01*
X77717508Y-96379828D01*
X77508241Y-96240000D01*
X77717508Y-96100172D01*
X77920172Y-95897508D01*
X78079404Y-95659201D01*
X78189085Y-95394408D01*
X78245000Y-95113305D01*
X78245000Y-94826695D01*
X78189085Y-94545592D01*
X78079404Y-94280799D01*
X77920172Y-94042492D01*
X77717508Y-93839828D01*
X77479201Y-93680596D01*
X77214408Y-93570915D01*
X76933305Y-93515000D01*
X76646695Y-93515000D01*
X76365592Y-93570915D01*
X76100799Y-93680596D01*
X75862492Y-93839828D01*
X75659828Y-94042492D01*
X75520000Y-94251759D01*
X75380172Y-94042492D01*
X75177508Y-93839828D01*
X74968241Y-93700000D01*
X75177508Y-93560172D01*
X75380172Y-93357508D01*
X75539404Y-93119201D01*
X75649085Y-92854408D01*
X75705000Y-92573305D01*
X75705000Y-92286695D01*
X75649085Y-92005592D01*
X75539404Y-91740799D01*
X75380172Y-91502492D01*
X75177508Y-91299828D01*
X74968241Y-91160000D01*
X75177508Y-91020172D01*
X75380172Y-90817508D01*
X75520000Y-90608241D01*
X75659828Y-90817508D01*
X75862492Y-91020172D01*
X76100799Y-91179404D01*
X76365592Y-91289085D01*
X76646695Y-91345000D01*
X76933305Y-91345000D01*
X77214408Y-91289085D01*
X77479201Y-91179404D01*
X77717508Y-91020172D01*
X77920172Y-90817508D01*
X78079404Y-90579201D01*
X78189085Y-90314408D01*
X78245000Y-90033305D01*
X78245000Y-89746695D01*
X78189085Y-89465592D01*
X78079404Y-89200799D01*
X77920172Y-88962492D01*
X77717508Y-88759828D01*
X77479201Y-88600596D01*
X77214408Y-88490915D01*
X76933305Y-88435000D01*
X76646695Y-88435000D01*
X76365592Y-88490915D01*
X76100799Y-88600596D01*
X75862492Y-88759828D01*
X75659828Y-88962492D01*
X75520000Y-89171759D01*
X75380172Y-88962492D01*
X75177508Y-88759828D01*
X74968241Y-88620000D01*
X75177508Y-88480172D01*
X75380172Y-88277508D01*
X75539404Y-88039201D01*
X75649085Y-87774408D01*
X75705000Y-87493305D01*
X75705000Y-87206695D01*
X75649085Y-86925592D01*
X75539404Y-86660799D01*
X75380172Y-86422492D01*
X75177508Y-86219828D01*
X74968241Y-86080000D01*
X75177508Y-85940172D01*
X75380172Y-85737508D01*
X75520000Y-85528241D01*
X75659828Y-85737508D01*
X75862492Y-85940172D01*
X76100799Y-86099404D01*
X76365592Y-86209085D01*
X76646695Y-86265000D01*
X76933305Y-86265000D01*
X77214408Y-86209085D01*
X77479201Y-86099404D01*
X77717508Y-85940172D01*
X77920172Y-85737508D01*
X78079404Y-85499201D01*
X78189085Y-85234408D01*
X78245000Y-84953305D01*
X78245000Y-84666695D01*
X78189085Y-84385592D01*
X78079404Y-84120799D01*
X77920172Y-83882492D01*
X77717508Y-83679828D01*
X77508241Y-83540000D01*
X77717508Y-83400172D01*
X77920172Y-83197508D01*
X78079404Y-82959201D01*
X78189085Y-82694408D01*
X78245000Y-82413305D01*
X78245000Y-82126695D01*
X78189085Y-81845592D01*
X78079404Y-81580799D01*
X77920172Y-81342492D01*
X77717508Y-81139828D01*
X77508241Y-81000000D01*
X77717508Y-80860172D01*
X77920172Y-80657508D01*
X78079404Y-80419201D01*
X78189085Y-80154408D01*
X78245000Y-79873305D01*
X78245000Y-79586695D01*
X78189085Y-79305592D01*
X78079404Y-79040799D01*
X77920172Y-78802492D01*
X77717508Y-78599828D01*
X77508241Y-78460000D01*
X77717508Y-78320172D01*
X77920172Y-78117508D01*
X78079404Y-77879201D01*
X78189085Y-77614408D01*
X78245000Y-77333305D01*
X78245000Y-77046695D01*
X78189085Y-76765592D01*
X78079404Y-76500799D01*
X77920172Y-76262492D01*
X77717508Y-76059828D01*
X77479201Y-75900596D01*
X77214408Y-75790915D01*
X76933305Y-75735000D01*
X76646695Y-75735000D01*
X76365592Y-75790915D01*
X76100799Y-75900596D01*
X75862492Y-76059828D01*
X75659828Y-76262492D01*
X75520000Y-76471759D01*
X75380172Y-76262492D01*
X75177508Y-76059828D01*
X74968241Y-75920000D01*
X75177508Y-75780172D01*
X75380172Y-75577508D01*
X75539404Y-75339201D01*
X75649085Y-75074408D01*
X75705000Y-74793305D01*
X75705000Y-74506695D01*
X75649085Y-74225592D01*
X75539404Y-73960799D01*
X75380172Y-73722492D01*
X75177508Y-73519828D01*
X74968241Y-73380000D01*
X75177508Y-73240172D01*
X75380172Y-73037508D01*
X75520000Y-72828241D01*
X75659828Y-73037508D01*
X75862492Y-73240172D01*
X76100799Y-73399404D01*
X76365592Y-73509085D01*
X76646695Y-73565000D01*
X76933305Y-73565000D01*
X77214408Y-73509085D01*
X77479201Y-73399404D01*
X77717508Y-73240172D01*
X77920172Y-73037508D01*
X78079404Y-72799201D01*
X78189085Y-72534408D01*
X78245000Y-72253305D01*
X78245000Y-71966695D01*
X78189085Y-71685592D01*
X78079404Y-71420799D01*
X77920172Y-71182492D01*
X77717508Y-70979828D01*
X77508241Y-70840000D01*
X77717508Y-70700172D01*
X77920172Y-70497508D01*
X78079404Y-70259201D01*
X78189085Y-69994408D01*
X78245000Y-69713305D01*
X78245000Y-69426695D01*
X78189085Y-69145592D01*
X78079404Y-68880799D01*
X77920172Y-68642492D01*
X77717508Y-68439828D01*
X77479201Y-68280596D01*
X77214408Y-68170915D01*
X76933305Y-68115000D01*
X76646695Y-68115000D01*
X76365592Y-68170915D01*
X76100799Y-68280596D01*
X75862492Y-68439828D01*
X75659828Y-68642492D01*
X75520000Y-68851759D01*
X75380172Y-68642492D01*
X75177508Y-68439828D01*
X74968241Y-68300000D01*
X75177508Y-68160172D01*
X75380172Y-67957508D01*
X75539404Y-67719201D01*
X75649085Y-67454408D01*
X75705000Y-67173305D01*
X75705000Y-66886695D01*
X75649085Y-66605592D01*
X75539404Y-66340799D01*
X75380172Y-66102492D01*
X75177508Y-65899828D01*
X74968241Y-65760000D01*
X75177508Y-65620172D01*
X75380172Y-65417508D01*
X75520000Y-65208241D01*
X75659828Y-65417508D01*
X75862492Y-65620172D01*
X76100799Y-65779404D01*
X76365592Y-65889085D01*
X76646695Y-65945000D01*
X76933305Y-65945000D01*
X77214408Y-65889085D01*
X77479201Y-65779404D01*
X77717508Y-65620172D01*
X77920172Y-65417508D01*
X78079404Y-65179201D01*
X78189085Y-64914408D01*
X78245000Y-64633305D01*
X78245000Y-64346695D01*
X78189085Y-64065592D01*
X78079404Y-63800799D01*
X77920172Y-63562492D01*
X77717508Y-63359828D01*
X77508241Y-63220000D01*
X77717508Y-63080172D01*
X77920172Y-62877508D01*
X78079404Y-62639201D01*
X78189085Y-62374408D01*
X78245000Y-62093305D01*
X78245000Y-61806695D01*
X78189085Y-61525592D01*
X78079404Y-61260799D01*
X77920172Y-61022492D01*
X77717508Y-60819828D01*
X77508241Y-60680000D01*
X77717508Y-60540172D01*
X77920172Y-60337508D01*
X78079404Y-60099201D01*
X78189085Y-59834408D01*
X78245000Y-59553305D01*
X78245000Y-59266695D01*
X78189085Y-58985592D01*
X78079404Y-58720799D01*
X77920172Y-58482492D01*
X77717508Y-58279828D01*
X77479201Y-58120596D01*
X77214408Y-58010915D01*
X76933305Y-57955000D01*
X76646695Y-57955000D01*
X76365592Y-58010915D01*
X76100799Y-58120596D01*
X75862492Y-58279828D01*
X75659828Y-58482492D01*
X75520000Y-58691759D01*
X75380172Y-58482492D01*
X75177508Y-58279828D01*
X74968241Y-58140000D01*
X75177508Y-58000172D01*
X75380172Y-57797508D01*
X75539404Y-57559201D01*
X75649085Y-57294408D01*
X75705000Y-57013305D01*
X75705000Y-56726695D01*
X75649085Y-56445592D01*
X75539404Y-56180799D01*
X75380172Y-55942492D01*
X75177508Y-55739828D01*
X74968241Y-55600000D01*
X75177508Y-55460172D01*
X75380172Y-55257508D01*
X75520000Y-55048241D01*
X75659828Y-55257508D01*
X75862492Y-55460172D01*
X76100799Y-55619404D01*
X76365592Y-55729085D01*
X76646695Y-55785000D01*
X76933305Y-55785000D01*
X77214408Y-55729085D01*
X77479201Y-55619404D01*
X77717508Y-55460172D01*
X77920172Y-55257508D01*
X78079404Y-55019201D01*
X78189085Y-54754408D01*
X78245000Y-54473305D01*
X78245000Y-54186695D01*
X78189085Y-53905592D01*
X78079404Y-53640799D01*
X77920172Y-53402492D01*
X77717508Y-53199828D01*
X77508241Y-53060000D01*
X77717508Y-52920172D01*
X77920172Y-52717508D01*
X78079404Y-52479201D01*
X78189085Y-52214408D01*
X78245000Y-51933305D01*
X78245000Y-51646695D01*
X78189085Y-51365592D01*
X78079404Y-51100799D01*
X77920172Y-50862492D01*
X77717508Y-50659828D01*
X77479201Y-50500596D01*
X77214408Y-50390915D01*
X76933305Y-50335000D01*
X76646695Y-50335000D01*
X76365592Y-50390915D01*
X76100799Y-50500596D01*
X75862492Y-50659828D01*
X75691388Y-50830932D01*
X75659502Y-50725820D01*
X75600537Y-50615506D01*
X75521185Y-50518815D01*
X75424494Y-50439463D01*
X75314180Y-50380498D01*
X75194482Y-50344188D01*
X75070000Y-50331928D01*
X73430000Y-50331928D01*
X73305518Y-50344188D01*
X73185820Y-50380498D01*
X73075506Y-50439463D01*
X72978815Y-50518815D01*
X72899463Y-50615506D01*
X72840498Y-50725820D01*
X72804188Y-50845518D01*
X72791928Y-50970000D01*
X23560928Y-50970000D01*
X23560999Y-46922090D01*
X23573854Y-46790976D01*
X25210000Y-46790976D01*
X25210000Y-47049024D01*
X25260342Y-47302113D01*
X25359093Y-47540518D01*
X25502456Y-47755077D01*
X25684923Y-47937544D01*
X25899482Y-48080907D01*
X26137887Y-48179658D01*
X26390976Y-48230000D01*
X26649024Y-48230000D01*
X26902113Y-48179658D01*
X27140518Y-48080907D01*
X27355077Y-47937544D01*
X27537544Y-47755077D01*
X27680907Y-47540518D01*
X27779658Y-47302113D01*
X27830000Y-47049024D01*
X27830000Y-46790976D01*
X74210000Y-46790976D01*
X74210000Y-47049024D01*
X74260342Y-47302113D01*
X74359093Y-47540518D01*
X74502456Y-47755077D01*
X74684923Y-47937544D01*
X74899482Y-48080907D01*
X75137887Y-48179658D01*
X75390976Y-48230000D01*
X75649024Y-48230000D01*
X75902113Y-48179658D01*
X76140518Y-48080907D01*
X76355077Y-47937544D01*
X76537544Y-47755077D01*
X76680907Y-47540518D01*
X76779658Y-47302113D01*
X76830000Y-47049024D01*
X76830000Y-46790976D01*
X76779658Y-46537887D01*
X76680907Y-46299482D01*
X76537544Y-46084923D01*
X76355077Y-45902456D01*
X76140518Y-45759093D01*
X75902113Y-45660342D01*
X75649024Y-45610000D01*
X75390976Y-45610000D01*
X75137887Y-45660342D01*
X74899482Y-45759093D01*
X74684923Y-45902456D01*
X74502456Y-46084923D01*
X74359093Y-46299482D01*
X74260342Y-46537887D01*
X74210000Y-46790976D01*
X27830000Y-46790976D01*
X27779658Y-46537887D01*
X27680907Y-46299482D01*
X27537544Y-46084923D01*
X27355077Y-45902456D01*
X27140518Y-45759093D01*
X26902113Y-45660342D01*
X26649024Y-45610000D01*
X26390976Y-45610000D01*
X26137887Y-45660342D01*
X25899482Y-45759093D01*
X25684923Y-45902456D01*
X25502456Y-46084923D01*
X25359093Y-46299482D01*
X25260342Y-46537887D01*
X25210000Y-46790976D01*
X23573854Y-46790976D01*
X23617192Y-46348990D01*
X23777216Y-45818964D01*
X24037140Y-45330121D01*
X24387065Y-44901069D01*
X24813664Y-44548156D01*
X25300681Y-44284827D01*
X25829578Y-44121106D01*
X26410960Y-44060000D01*
X76567721Y-44060000D01*
X77151010Y-44117192D01*
G37*
X77151010Y-44117192D02*
X77681036Y-44277216D01*
X78169879Y-44537140D01*
X78598931Y-44887065D01*
X78951844Y-45313664D01*
X79215173Y-45800681D01*
X79378894Y-46329578D01*
X79440000Y-46910960D01*
X79440001Y-85967581D01*
X79440000Y-104867721D01*
X79382808Y-105451010D01*
X79222783Y-105981036D01*
X78962860Y-106469880D01*
X78612935Y-106898931D01*
X78186335Y-107251845D01*
X77699320Y-107515173D01*
X77170422Y-107678894D01*
X76589040Y-107740000D01*
X61755937Y-107740000D01*
X61775812Y-107674482D01*
X61788072Y-107550000D01*
X61788072Y-105850000D01*
X61775812Y-105725518D01*
X61739502Y-105605820D01*
X61680537Y-105495506D01*
X61601185Y-105398815D01*
X61504494Y-105319463D01*
X61394180Y-105260498D01*
X61274482Y-105224188D01*
X61150000Y-105211928D01*
X59450000Y-105211928D01*
X59325518Y-105224188D01*
X59205820Y-105260498D01*
X59095506Y-105319463D01*
X58998815Y-105398815D01*
X58919463Y-105495506D01*
X58860498Y-105605820D01*
X58824188Y-105725518D01*
X58811928Y-105850000D01*
X58811928Y-107550000D01*
X58824188Y-107674482D01*
X58844063Y-107740000D01*
X57820107Y-107740000D01*
X57953475Y-107606632D01*
X58115990Y-107363411D01*
X58227932Y-107093158D01*
X58285000Y-106806260D01*
X58285000Y-106513740D01*
X58227932Y-106226842D01*
X58115990Y-105956589D01*
X57953475Y-105713368D01*
X57746632Y-105506525D01*
X57572240Y-105390000D01*
X57746632Y-105273475D01*
X57953475Y-105066632D01*
X58115990Y-104823411D01*
X58227932Y-104553158D01*
X58285000Y-104266260D01*
X58285000Y-103973740D01*
X58227932Y-103686842D01*
X58115990Y-103416589D01*
X57953475Y-103173368D01*
X57746632Y-102966525D01*
X57572240Y-102850000D01*
X57721900Y-102750000D01*
X58811928Y-102750000D01*
X58811928Y-104450000D01*
X58824188Y-104574482D01*
X58860498Y-104694180D01*
X58919463Y-104804494D01*
X58998815Y-104901185D01*
X59095506Y-104980537D01*
X59205820Y-105039502D01*
X59325518Y-105075812D01*
X59450000Y-105088072D01*
X61150000Y-105088072D01*
X61274482Y-105075812D01*
X61394180Y-105039502D01*
X61504494Y-104980537D01*
X61601185Y-104901185D01*
X61680537Y-104804494D01*
X61739502Y-104694180D01*
X61761513Y-104621620D01*
X61893368Y-104753475D01*
X62136589Y-104915990D01*
X62406842Y-105027932D01*
X62693740Y-105085000D01*
X62986260Y-105085000D01*
X63273158Y-105027932D01*
X63461303Y-104950000D01*
X67311928Y-104950000D01*
X67311928Y-106650000D01*
X67324188Y-106774482D01*
X67360498Y-106894180D01*
X67419463Y-107004494D01*
X67498815Y-107101185D01*
X67595506Y-107180537D01*
X67705820Y-107239502D01*
X67825518Y-107275812D01*
X67950000Y-107288072D01*
X69650000Y-107288072D01*
X69774482Y-107275812D01*
X69894180Y-107239502D01*
X70004494Y-107180537D01*
X70101185Y-107101185D01*
X70180537Y-107004494D01*
X70239502Y-106894180D01*
X70275812Y-106774482D01*
X70288072Y-106650000D01*
X70288072Y-104950000D01*
X70275812Y-104825518D01*
X70265334Y-104790976D01*
X74210000Y-104790976D01*
X74210000Y-105049024D01*
X74260342Y-105302113D01*
X74359093Y-105540518D01*
X74502456Y-105755077D01*
X74684923Y-105937544D01*
X74899482Y-106080907D01*
X75137887Y-106179658D01*
X75390976Y-106230000D01*
X75649024Y-106230000D01*
X75902113Y-106179658D01*
X76140518Y-106080907D01*
X76355077Y-105937544D01*
X76537544Y-105755077D01*
X76680907Y-105540518D01*
X76779658Y-105302113D01*
X76830000Y-105049024D01*
X76830000Y-104790976D01*
X76779658Y-104537887D01*
X76680907Y-104299482D01*
X76537544Y-104084923D01*
X76355077Y-103902456D01*
X76140518Y-103759093D01*
X75902113Y-103660342D01*
X75649024Y-103610000D01*
X75390976Y-103610000D01*
X75137887Y-103660342D01*
X74899482Y-103759093D01*
X74684923Y-103902456D01*
X74502456Y-104084923D01*
X74359093Y-104299482D01*
X74260342Y-104537887D01*
X74210000Y-104790976D01*
X70265334Y-104790976D01*
X70239502Y-104705820D01*
X70180537Y-104595506D01*
X70101185Y-104498815D01*
X70004494Y-104419463D01*
X69894180Y-104360498D01*
X69774482Y-104324188D01*
X69650000Y-104311928D01*
X67950000Y-104311928D01*
X67825518Y-104324188D01*
X67705820Y-104360498D01*
X67595506Y-104419463D01*
X67498815Y-104498815D01*
X67419463Y-104595506D01*
X67360498Y-104705820D01*
X67324188Y-104825518D01*
X67311928Y-104950000D01*
X63461303Y-104950000D01*
X63543411Y-104915990D01*
X63786632Y-104753475D01*
X63993475Y-104546632D01*
X64155990Y-104303411D01*
X64267932Y-104033158D01*
X64325000Y-103746260D01*
X64325000Y-103453740D01*
X64267932Y-103166842D01*
X64155990Y-102896589D01*
X63993475Y-102653368D01*
X63786632Y-102446525D01*
X63543411Y-102284010D01*
X63273158Y-102172068D01*
X62986260Y-102115000D01*
X62693740Y-102115000D01*
X62406842Y-102172068D01*
X62136589Y-102284010D01*
X61893368Y-102446525D01*
X61761513Y-102578380D01*
X61739502Y-102505820D01*
X61680537Y-102395506D01*
X61601185Y-102298815D01*
X61504494Y-102219463D01*
X61394180Y-102160498D01*
X61274482Y-102124188D01*
X61150000Y-102111928D01*
X59450000Y-102111928D01*
X59325518Y-102124188D01*
X59205820Y-102160498D01*
X59095506Y-102219463D01*
X58998815Y-102298815D01*
X58919463Y-102395506D01*
X58860498Y-102505820D01*
X58824188Y-102625518D01*
X58811928Y-102750000D01*
X57721900Y-102750000D01*
X57746632Y-102733475D01*
X57953475Y-102526632D01*
X58115990Y-102283411D01*
X58227932Y-102013158D01*
X58285000Y-101726260D01*
X58285000Y-101433740D01*
X58227932Y-101146842D01*
X58115990Y-100876589D01*
X57953475Y-100633368D01*
X57746632Y-100426525D01*
X57572240Y-100310000D01*
X57746632Y-100193475D01*
X57953475Y-99986632D01*
X58115990Y-99743411D01*
X58227932Y-99473158D01*
X58285000Y-99186260D01*
X58285000Y-99150000D01*
X58811928Y-99150000D01*
X58811928Y-100850000D01*
X58824188Y-100974482D01*
X58860498Y-101094180D01*
X58919463Y-101204494D01*
X58998815Y-101301185D01*
X59095506Y-101380537D01*
X59205820Y-101439502D01*
X59325518Y-101475812D01*
X59450000Y-101488072D01*
X61150000Y-101488072D01*
X61274482Y-101475812D01*
X61394180Y-101439502D01*
X61504494Y-101380537D01*
X61601185Y-101301185D01*
X61680537Y-101204494D01*
X61739502Y-101094180D01*
X61761513Y-101021620D01*
X61893368Y-101153475D01*
X62136589Y-101315990D01*
X62406842Y-101427932D01*
X62693740Y-101485000D01*
X62986260Y-101485000D01*
X63273158Y-101427932D01*
X63543411Y-101315990D01*
X63786632Y-101153475D01*
X63993475Y-100946632D01*
X64155990Y-100703411D01*
X64267932Y-100433158D01*
X64325000Y-100146260D01*
X64325000Y-99853740D01*
X64267932Y-99566842D01*
X64155990Y-99296589D01*
X63993475Y-99053368D01*
X63786632Y-98846525D01*
X63543411Y-98684010D01*
X63273158Y-98572068D01*
X62986260Y-98515000D01*
X62693740Y-98515000D01*
X62406842Y-98572068D01*
X62136589Y-98684010D01*
X61893368Y-98846525D01*
X61761513Y-98978380D01*
X61739502Y-98905820D01*
X61680537Y-98795506D01*
X61601185Y-98698815D01*
X61504494Y-98619463D01*
X61394180Y-98560498D01*
X61274482Y-98524188D01*
X61150000Y-98511928D01*
X59450000Y-98511928D01*
X59325518Y-98524188D01*
X59205820Y-98560498D01*
X59095506Y-98619463D01*
X58998815Y-98698815D01*
X58919463Y-98795506D01*
X58860498Y-98905820D01*
X58824188Y-99025518D01*
X58811928Y-99150000D01*
X58285000Y-99150000D01*
X58285000Y-98893740D01*
X58227932Y-98606842D01*
X58115990Y-98336589D01*
X57953475Y-98093368D01*
X57821620Y-97961513D01*
X57894180Y-97939502D01*
X58004494Y-97880537D01*
X58101185Y-97801185D01*
X58180537Y-97704494D01*
X58239502Y-97594180D01*
X58275812Y-97474482D01*
X58288072Y-97350000D01*
X58288072Y-95650000D01*
X58278224Y-95550000D01*
X58811928Y-95550000D01*
X58811928Y-97250000D01*
X58824188Y-97374482D01*
X58860498Y-97494180D01*
X58919463Y-97604494D01*
X58998815Y-97701185D01*
X59095506Y-97780537D01*
X59205820Y-97839502D01*
X59325518Y-97875812D01*
X59450000Y-97888072D01*
X61150000Y-97888072D01*
X61274482Y-97875812D01*
X61394180Y-97839502D01*
X61504494Y-97780537D01*
X61601185Y-97701185D01*
X61680537Y-97604494D01*
X61739502Y-97494180D01*
X61761513Y-97421620D01*
X61893368Y-97553475D01*
X62136589Y-97715990D01*
X62406842Y-97827932D01*
X62693740Y-97885000D01*
X62986260Y-97885000D01*
X63273158Y-97827932D01*
X63543411Y-97715990D01*
X63786632Y-97553475D01*
X63993475Y-97346632D01*
X64155990Y-97103411D01*
X64267932Y-96833158D01*
X64325000Y-96546260D01*
X64325000Y-96253740D01*
X64267932Y-95966842D01*
X64155990Y-95696589D01*
X63993475Y-95453368D01*
X63786632Y-95246525D01*
X63543411Y-95084010D01*
X63273158Y-94972068D01*
X62986260Y-94915000D01*
X62693740Y-94915000D01*
X62406842Y-94972068D01*
X62136589Y-95084010D01*
X61893368Y-95246525D01*
X61761513Y-95378380D01*
X61739502Y-95305820D01*
X61680537Y-95195506D01*
X61601185Y-95098815D01*
X61504494Y-95019463D01*
X61394180Y-94960498D01*
X61274482Y-94924188D01*
X61150000Y-94911928D01*
X59450000Y-94911928D01*
X59325518Y-94924188D01*
X59205820Y-94960498D01*
X59095506Y-95019463D01*
X58998815Y-95098815D01*
X58919463Y-95195506D01*
X58860498Y-95305820D01*
X58824188Y-95425518D01*
X58811928Y-95550000D01*
X58278224Y-95550000D01*
X58275812Y-95525518D01*
X58239502Y-95405820D01*
X58180537Y-95295506D01*
X58101185Y-95198815D01*
X58004494Y-95119463D01*
X57894180Y-95060498D01*
X57774482Y-95024188D01*
X57650000Y-95011928D01*
X57227000Y-95011928D01*
X57227000Y-84707911D01*
X58065000Y-84707911D01*
X58065000Y-84892089D01*
X58100932Y-85072729D01*
X58171414Y-85242889D01*
X58273738Y-85396028D01*
X58403972Y-85526262D01*
X58557111Y-85628586D01*
X58727271Y-85699068D01*
X58907911Y-85735000D01*
X59092089Y-85735000D01*
X59272729Y-85699068D01*
X59442889Y-85628586D01*
X59596028Y-85526262D01*
X59726262Y-85396028D01*
X59828586Y-85242889D01*
X59899068Y-85072729D01*
X59935000Y-84892089D01*
X59935000Y-84707911D01*
X59899068Y-84527271D01*
X59828586Y-84357111D01*
X59726262Y-84203972D01*
X59596028Y-84073738D01*
X59442889Y-83971414D01*
X59272729Y-83900932D01*
X59092089Y-83865000D01*
X58907911Y-83865000D01*
X58727271Y-83900932D01*
X58557111Y-83971414D01*
X58403972Y-84073738D01*
X58273738Y-84203972D01*
X58171414Y-84357111D01*
X58100932Y-84527271D01*
X58065000Y-84707911D01*
X57227000Y-84707911D01*
X57227000Y-83058960D01*
X57357911Y-83085000D01*
X57542089Y-83085000D01*
X57722729Y-83049068D01*
X57892889Y-82978586D01*
X58046028Y-82876262D01*
X58176262Y-82746028D01*
X58278586Y-82592889D01*
X58349068Y-82422729D01*
X58385000Y-82242089D01*
X58385000Y-82057911D01*
X58349068Y-81877271D01*
X58278586Y-81707111D01*
X58176262Y-81553972D01*
X58172290Y-81550000D01*
X58216642Y-81505648D01*
X58318966Y-81352509D01*
X58389448Y-81182349D01*
X58425380Y-81001709D01*
X58425380Y-80817531D01*
X58389448Y-80636891D01*
X58318966Y-80466731D01*
X58216642Y-80313592D01*
X58086408Y-80183358D01*
X57933269Y-80081034D01*
X57763109Y-80010552D01*
X57582469Y-79974620D01*
X57398291Y-79974620D01*
X57217651Y-80010552D01*
X57047491Y-80081034D01*
X57000380Y-80112512D01*
X57000380Y-80092531D01*
X56964448Y-79911891D01*
X56902769Y-79762984D01*
X56972729Y-79749068D01*
X57142889Y-79678586D01*
X57296028Y-79576262D01*
X57426262Y-79446028D01*
X57528586Y-79292889D01*
X57599068Y-79122729D01*
X57635000Y-78942089D01*
X57635000Y-78757911D01*
X57599068Y-78577271D01*
X57528586Y-78407111D01*
X57426262Y-78253972D01*
X57296028Y-78123738D01*
X57142889Y-78021414D01*
X56972729Y-77950932D01*
X56792089Y-77915000D01*
X56607911Y-77915000D01*
X56427271Y-77950932D01*
X56257111Y-78021414D01*
X56103972Y-78123738D01*
X55973738Y-78253972D01*
X55871414Y-78407111D01*
X55800932Y-78577271D01*
X55765000Y-78757911D01*
X55765000Y-78942089D01*
X55800932Y-79122729D01*
X55862611Y-79271636D01*
X55792651Y-79285552D01*
X55622491Y-79356034D01*
X55469352Y-79458358D01*
X55339118Y-79588592D01*
X55236794Y-79741731D01*
X55166312Y-79911891D01*
X55130380Y-80092531D01*
X55130380Y-80142172D01*
X53320895Y-80068013D01*
X53324135Y-80051724D01*
X53324135Y-79867546D01*
X53288203Y-79686906D01*
X53217721Y-79516746D01*
X53115397Y-79363607D01*
X52985163Y-79233373D01*
X52832024Y-79131049D01*
X52661864Y-79060567D01*
X52481224Y-79024635D01*
X52297046Y-79024635D01*
X52116406Y-79060567D01*
X51946246Y-79131049D01*
X51889910Y-79168692D01*
X51831529Y-79129683D01*
X51661369Y-79059201D01*
X51480729Y-79023269D01*
X51296551Y-79023269D01*
X51127000Y-79056995D01*
X51127000Y-77798061D01*
X60865000Y-77798061D01*
X60865000Y-78001939D01*
X60904774Y-78201898D01*
X60982795Y-78390256D01*
X61096063Y-78559774D01*
X61240226Y-78703937D01*
X61409744Y-78817205D01*
X61598102Y-78895226D01*
X61645372Y-78904628D01*
X61654774Y-78951898D01*
X61732795Y-79140256D01*
X61846063Y-79309774D01*
X61990226Y-79453937D01*
X62159744Y-79567205D01*
X62348102Y-79645226D01*
X62548061Y-79685000D01*
X62751939Y-79685000D01*
X62951898Y-79645226D01*
X63140256Y-79567205D01*
X63309774Y-79453937D01*
X63453937Y-79309774D01*
X63567205Y-79140256D01*
X63645226Y-78951898D01*
X63685000Y-78751939D01*
X63685000Y-78548061D01*
X63645226Y-78348102D01*
X63567205Y-78159744D01*
X63453937Y-77990226D01*
X63309774Y-77846063D01*
X63140256Y-77732795D01*
X62951898Y-77654774D01*
X62904628Y-77645372D01*
X62895226Y-77598102D01*
X62817205Y-77409744D01*
X62703937Y-77240226D01*
X62559774Y-77096063D01*
X62390256Y-76982795D01*
X62201898Y-76904774D01*
X62001939Y-76865000D01*
X61798061Y-76865000D01*
X61598102Y-76904774D01*
X61409744Y-76982795D01*
X61240226Y-77096063D01*
X61096063Y-77240226D01*
X60982795Y-77409744D01*
X60904774Y-77598102D01*
X60865000Y-77798061D01*
X51127000Y-77798061D01*
X51127000Y-77500000D01*
X51124560Y-77475224D01*
X51117333Y-77451399D01*
X51105597Y-77429443D01*
X51089803Y-77410197D01*
X51070557Y-77394403D01*
X51048601Y-77382667D01*
X51024776Y-77375440D01*
X51000000Y-77373000D01*
X50224353Y-77373000D01*
X50295226Y-77201898D01*
X50335000Y-77001939D01*
X50335000Y-76798061D01*
X50295226Y-76598102D01*
X50217205Y-76409744D01*
X50103937Y-76240226D01*
X49959774Y-76096063D01*
X49902676Y-76057911D01*
X51544994Y-76057911D01*
X51544994Y-76242089D01*
X51580926Y-76422729D01*
X51651408Y-76592889D01*
X51753732Y-76746028D01*
X51883966Y-76876262D01*
X52037105Y-76978586D01*
X52207265Y-77049068D01*
X52387905Y-77085000D01*
X52572083Y-77085000D01*
X52752723Y-77049068D01*
X52922883Y-76978586D01*
X53076022Y-76876262D01*
X53206256Y-76746028D01*
X53258024Y-76668551D01*
X53337106Y-76721392D01*
X53507266Y-76791874D01*
X53687906Y-76827806D01*
X53872084Y-76827806D01*
X54052724Y-76791874D01*
X54222884Y-76721392D01*
X54376023Y-76619068D01*
X54506257Y-76488834D01*
X54608581Y-76335695D01*
X54679063Y-76165535D01*
X54714995Y-75984895D01*
X54714995Y-75800717D01*
X54679063Y-75620077D01*
X54608581Y-75449917D01*
X54506257Y-75296778D01*
X54376023Y-75166544D01*
X54222884Y-75064220D01*
X54052724Y-74993738D01*
X53872084Y-74957806D01*
X53687906Y-74957806D01*
X53507266Y-74993738D01*
X53337106Y-75064220D01*
X53183967Y-75166544D01*
X53053733Y-75296778D01*
X53001965Y-75374255D01*
X52922883Y-75321414D01*
X52752723Y-75250932D01*
X52572083Y-75215000D01*
X52387905Y-75215000D01*
X52207265Y-75250932D01*
X52037105Y-75321414D01*
X51883966Y-75423738D01*
X51753732Y-75553972D01*
X51651408Y-75707111D01*
X51580926Y-75877271D01*
X51544994Y-76057911D01*
X49902676Y-76057911D01*
X49790256Y-75982795D01*
X49601898Y-75904774D01*
X49401939Y-75865000D01*
X49198061Y-75865000D01*
X48998102Y-75904774D01*
X48809744Y-75982795D01*
X48709354Y-76049873D01*
X48590256Y-75970295D01*
X48401898Y-75892274D01*
X48201939Y-75852500D01*
X47998061Y-75852500D01*
X47798102Y-75892274D01*
X47609744Y-75970295D01*
X47440226Y-76083563D01*
X47296063Y-76227726D01*
X47182795Y-76397244D01*
X47104774Y-76585602D01*
X47065000Y-76785561D01*
X47065000Y-76989439D01*
X47104774Y-77189398D01*
X47182795Y-77377756D01*
X47296063Y-77547274D01*
X47440226Y-77691437D01*
X47609744Y-77804705D01*
X47798102Y-77882726D01*
X47998061Y-77922500D01*
X48201939Y-77922500D01*
X48401898Y-77882726D01*
X48590256Y-77804705D01*
X48690646Y-77737627D01*
X48809744Y-77817205D01*
X48998102Y-77895226D01*
X49198061Y-77935000D01*
X49401939Y-77935000D01*
X49473000Y-77920865D01*
X49473000Y-81673000D01*
X45515355Y-81673000D01*
X45451001Y-81630000D01*
X45639110Y-81504309D01*
X45844309Y-81299110D01*
X46005533Y-81057822D01*
X46116586Y-80789717D01*
X46173200Y-80505098D01*
X46173200Y-80214902D01*
X46169851Y-80198061D01*
X46665000Y-80198061D01*
X46665000Y-80401939D01*
X46704774Y-80601898D01*
X46782795Y-80790256D01*
X46896063Y-80959774D01*
X47040226Y-81103937D01*
X47209744Y-81217205D01*
X47398102Y-81295226D01*
X47598061Y-81335000D01*
X47801939Y-81335000D01*
X48001898Y-81295226D01*
X48190256Y-81217205D01*
X48359774Y-81103937D01*
X48503937Y-80959774D01*
X48617205Y-80790256D01*
X48695226Y-80601898D01*
X48735000Y-80401939D01*
X48735000Y-80198061D01*
X48695226Y-79998102D01*
X48617205Y-79809744D01*
X48503937Y-79640226D01*
X48359774Y-79496063D01*
X48190256Y-79382795D01*
X48001898Y-79304774D01*
X47801939Y-79265000D01*
X47598061Y-79265000D01*
X47398102Y-79304774D01*
X47209744Y-79382795D01*
X47040226Y-79496063D01*
X46896063Y-79640226D01*
X46782795Y-79809744D01*
X46704774Y-79998102D01*
X46665000Y-80198061D01*
X46169851Y-80198061D01*
X46116586Y-79930283D01*
X46005533Y-79662178D01*
X45844309Y-79420890D01*
X45639110Y-79215691D01*
X45397822Y-79054467D01*
X45379399Y-79046836D01*
X45417205Y-78990256D01*
X45495226Y-78801898D01*
X45535000Y-78601939D01*
X45535000Y-78398061D01*
X45495226Y-78198102D01*
X45417205Y-78009744D01*
X45303937Y-77840226D01*
X45159774Y-77696063D01*
X44990256Y-77582795D01*
X44801898Y-77504774D01*
X44601939Y-77465000D01*
X44398061Y-77465000D01*
X44198102Y-77504774D01*
X44009744Y-77582795D01*
X43840226Y-77696063D01*
X43696063Y-77840226D01*
X43582795Y-78009744D01*
X43504774Y-78198102D01*
X43465000Y-78398061D01*
X43465000Y-78601939D01*
X43504774Y-78801898D01*
X43582795Y-78990256D01*
X43696063Y-79159774D01*
X43756435Y-79220146D01*
X43555691Y-79420890D01*
X43394467Y-79662178D01*
X43283414Y-79930283D01*
X43226800Y-80214902D01*
X43226800Y-80505098D01*
X43283414Y-80789717D01*
X43394467Y-81057822D01*
X43555691Y-81299110D01*
X43760890Y-81504309D01*
X43948999Y-81630000D01*
X43760890Y-81755691D01*
X43555691Y-81960890D01*
X43394467Y-82202178D01*
X43283414Y-82470283D01*
X43226800Y-82754902D01*
X43226800Y-83045098D01*
X43283414Y-83329717D01*
X43394467Y-83597822D01*
X43555691Y-83839110D01*
X43760890Y-84044309D01*
X44002178Y-84205533D01*
X44073000Y-84234869D01*
X44073000Y-84479135D01*
X44001939Y-84465000D01*
X43798061Y-84465000D01*
X43598102Y-84504774D01*
X43409744Y-84582795D01*
X43240226Y-84696063D01*
X43096063Y-84840226D01*
X42982795Y-85009744D01*
X42904774Y-85198102D01*
X42865000Y-85398061D01*
X42865000Y-85601939D01*
X42904774Y-85801898D01*
X42982795Y-85990256D01*
X43096063Y-86159774D01*
X43240226Y-86303937D01*
X43409744Y-86417205D01*
X43598102Y-86495226D01*
X43798061Y-86535000D01*
X44001939Y-86535000D01*
X44073000Y-86520865D01*
X44073000Y-90473661D01*
X43968515Y-90516940D01*
X43749861Y-90663039D01*
X43563912Y-90848988D01*
X43417813Y-91067642D01*
X43317178Y-91310596D01*
X43265874Y-91568515D01*
X43265874Y-91831487D01*
X43317178Y-92089406D01*
X43417813Y-92332360D01*
X43563912Y-92551014D01*
X43749861Y-92736963D01*
X43968515Y-92883062D01*
X44073000Y-92926341D01*
X44073000Y-102586086D01*
X43836589Y-102684010D01*
X43593368Y-102846525D01*
X43386525Y-103053368D01*
X43270000Y-103227760D01*
X43153475Y-103053368D01*
X42946632Y-102846525D01*
X42703411Y-102684010D01*
X42433158Y-102572068D01*
X42146260Y-102515000D01*
X41853740Y-102515000D01*
X41566842Y-102572068D01*
X41296589Y-102684010D01*
X41053368Y-102846525D01*
X40846525Y-103053368D01*
X40730000Y-103227760D01*
X40613475Y-103053368D01*
X40406632Y-102846525D01*
X40163411Y-102684010D01*
X39893158Y-102572068D01*
X39606260Y-102515000D01*
X39313740Y-102515000D01*
X39026842Y-102572068D01*
X38756589Y-102684010D01*
X38513368Y-102846525D01*
X38306525Y-103053368D01*
X38190000Y-103227760D01*
X38073475Y-103053368D01*
X37866632Y-102846525D01*
X37623411Y-102684010D01*
X37353158Y-102572068D01*
X37066260Y-102515000D01*
X36773740Y-102515000D01*
X36486842Y-102572068D01*
X36216589Y-102684010D01*
X35973368Y-102846525D01*
X35766525Y-103053368D01*
X35650000Y-103227760D01*
X35533475Y-103053368D01*
X35326632Y-102846525D01*
X35083411Y-102684010D01*
X34813158Y-102572068D01*
X34526260Y-102515000D01*
X34233740Y-102515000D01*
X33946842Y-102572068D01*
X33676589Y-102684010D01*
X33433368Y-102846525D01*
X33301513Y-102978380D01*
X33279502Y-102905820D01*
X33220537Y-102795506D01*
X33141185Y-102698815D01*
X33044494Y-102619463D01*
X32934180Y-102560498D01*
X32814482Y-102524188D01*
X32690000Y-102511928D01*
X30990000Y-102511928D01*
X30865518Y-102524188D01*
X30745820Y-102560498D01*
X30635506Y-102619463D01*
X30538815Y-102698815D01*
X30459463Y-102795506D01*
X30400498Y-102905820D01*
X30364188Y-103025518D01*
X30351928Y-103150000D01*
X30351928Y-104850000D01*
X30364188Y-104974482D01*
X30400498Y-105094180D01*
X30459463Y-105204494D01*
X30538815Y-105301185D01*
X30635506Y-105380537D01*
X30745820Y-105439502D01*
X30865518Y-105475812D01*
X30990000Y-105488072D01*
X32690000Y-105488072D01*
X32814482Y-105475812D01*
X32934180Y-105439502D01*
X33044494Y-105380537D01*
X33141185Y-105301185D01*
X33220537Y-105204494D01*
X33279502Y-105094180D01*
X33301513Y-105021620D01*
X33433368Y-105153475D01*
X33676589Y-105315990D01*
X33946842Y-105427932D01*
X34233740Y-105485000D01*
X34526260Y-105485000D01*
X34813158Y-105427932D01*
X35083411Y-105315990D01*
X35326632Y-105153475D01*
X35533475Y-104946632D01*
X35650000Y-104772240D01*
X35766525Y-104946632D01*
X35973368Y-105153475D01*
X36216589Y-105315990D01*
X36486842Y-105427932D01*
X36773740Y-105485000D01*
X37066260Y-105485000D01*
X37353158Y-105427932D01*
X37623411Y-105315990D01*
X37866632Y-105153475D01*
X38073475Y-104946632D01*
X38190000Y-104772240D01*
X38306525Y-104946632D01*
X38513368Y-105153475D01*
X38756589Y-105315990D01*
X39026842Y-105427932D01*
X39313740Y-105485000D01*
X39606260Y-105485000D01*
X39893158Y-105427932D01*
X40163411Y-105315990D01*
X40406632Y-105153475D01*
X40613475Y-104946632D01*
X40730000Y-104772240D01*
X40846525Y-104946632D01*
X41053368Y-105153475D01*
X41296589Y-105315990D01*
X41566842Y-105427932D01*
X41853740Y-105485000D01*
X42146260Y-105485000D01*
X42433158Y-105427932D01*
X42703411Y-105315990D01*
X42946632Y-105153475D01*
X43153475Y-104946632D01*
X43270000Y-104772240D01*
X43386525Y-104946632D01*
X43593368Y-105153475D01*
X43836589Y-105315990D01*
X44073000Y-105413914D01*
X44073000Y-107477702D01*
X37122097Y-107740000D01*
X26432279Y-107740000D01*
X25848990Y-107682808D01*
X25318964Y-107522783D01*
X24830120Y-107262860D01*
X24401069Y-106912935D01*
X24048155Y-106486335D01*
X23784827Y-105999320D01*
X23621106Y-105470422D01*
X23560000Y-104889038D01*
X23560010Y-104288072D01*
X25250000Y-104288072D01*
X25374482Y-104275812D01*
X25375017Y-104275650D01*
X25359093Y-104299482D01*
X25260342Y-104537887D01*
X25210000Y-104790976D01*
X25210000Y-105049024D01*
X25260342Y-105302113D01*
X25359093Y-105540518D01*
X25502456Y-105755077D01*
X25684923Y-105937544D01*
X25899482Y-106080907D01*
X26137887Y-106179658D01*
X26390976Y-106230000D01*
X26649024Y-106230000D01*
X26902113Y-106179658D01*
X27140518Y-106080907D01*
X27355077Y-105937544D01*
X27537544Y-105755077D01*
X27680907Y-105540518D01*
X27779658Y-105302113D01*
X27830000Y-105049024D01*
X27830000Y-104790976D01*
X27779658Y-104537887D01*
X27680907Y-104299482D01*
X27537544Y-104084923D01*
X27355077Y-103902456D01*
X27140518Y-103759093D01*
X26902113Y-103660342D01*
X26649024Y-103610000D01*
X26390976Y-103610000D01*
X26137887Y-103660342D01*
X25899482Y-103759093D01*
X25875650Y-103775017D01*
X25875812Y-103774482D01*
X25888072Y-103650000D01*
X25888072Y-101950000D01*
X25875812Y-101825518D01*
X25839502Y-101705820D01*
X25780537Y-101595506D01*
X25701185Y-101498815D01*
X25604494Y-101419463D01*
X25494180Y-101360498D01*
X25421620Y-101338487D01*
X25553475Y-101206632D01*
X25715990Y-100963411D01*
X25827932Y-100693158D01*
X25885000Y-100406260D01*
X25885000Y-100257911D01*
X41215000Y-100257911D01*
X41215000Y-100442089D01*
X41250932Y-100622729D01*
X41321414Y-100792889D01*
X41423738Y-100946028D01*
X41553972Y-101076262D01*
X41707111Y-101178586D01*
X41877271Y-101249068D01*
X42057911Y-101285000D01*
X42242089Y-101285000D01*
X42422729Y-101249068D01*
X42592889Y-101178586D01*
X42746028Y-101076262D01*
X42876262Y-100946028D01*
X42978586Y-100792889D01*
X43049068Y-100622729D01*
X43085000Y-100442089D01*
X43085000Y-100257911D01*
X43049068Y-100077271D01*
X42978586Y-99907111D01*
X42876262Y-99753972D01*
X42746028Y-99623738D01*
X42592889Y-99521414D01*
X42422729Y-99450932D01*
X42242089Y-99415000D01*
X42057911Y-99415000D01*
X41877271Y-99450932D01*
X41707111Y-99521414D01*
X41553972Y-99623738D01*
X41423738Y-99753972D01*
X41321414Y-99907111D01*
X41250932Y-100077271D01*
X41215000Y-100257911D01*
X25885000Y-100257911D01*
X25885000Y-100113740D01*
X25827932Y-99826842D01*
X25715990Y-99556589D01*
X25553475Y-99313368D01*
X25346632Y-99106525D01*
X25172240Y-98990000D01*
X25346632Y-98873475D01*
X25553475Y-98666632D01*
X25715990Y-98423411D01*
X25827932Y-98153158D01*
X25885000Y-97866260D01*
X25885000Y-97573740D01*
X25827932Y-97286842D01*
X25715990Y-97016589D01*
X25553475Y-96773368D01*
X25346632Y-96566525D01*
X25172240Y-96450000D01*
X25346632Y-96333475D01*
X25553475Y-96126632D01*
X25715990Y-95883411D01*
X25807523Y-95662429D01*
X41115001Y-95662429D01*
X41115001Y-95846607D01*
X41150933Y-96027247D01*
X41221415Y-96197407D01*
X41323739Y-96350546D01*
X41453973Y-96480780D01*
X41607112Y-96583104D01*
X41777272Y-96653586D01*
X41896283Y-96677259D01*
X41777272Y-96700932D01*
X41607112Y-96771414D01*
X41453973Y-96873738D01*
X41323739Y-97003972D01*
X41221415Y-97157111D01*
X41150933Y-97327271D01*
X41115001Y-97507911D01*
X41115001Y-97692089D01*
X41150933Y-97872729D01*
X41221415Y-98042889D01*
X41323739Y-98196028D01*
X41453973Y-98326262D01*
X41607112Y-98428586D01*
X41777272Y-98499068D01*
X41957912Y-98535000D01*
X42142090Y-98535000D01*
X42322730Y-98499068D01*
X42492890Y-98428586D01*
X42646029Y-98326262D01*
X42776263Y-98196028D01*
X42878587Y-98042889D01*
X42949069Y-97872729D01*
X42985001Y-97692089D01*
X42985001Y-97507911D01*
X42949069Y-97327271D01*
X42878587Y-97157111D01*
X42776263Y-97003972D01*
X42646029Y-96873738D01*
X42492890Y-96771414D01*
X42322730Y-96700932D01*
X42203719Y-96677259D01*
X42322730Y-96653586D01*
X42492890Y-96583104D01*
X42646029Y-96480780D01*
X42776263Y-96350546D01*
X42878587Y-96197407D01*
X42949069Y-96027247D01*
X42985001Y-95846607D01*
X42985001Y-95662429D01*
X42949069Y-95481789D01*
X42878587Y-95311629D01*
X42776263Y-95158490D01*
X42646029Y-95028256D01*
X42492890Y-94925932D01*
X42322730Y-94855450D01*
X42142090Y-94819518D01*
X41957912Y-94819518D01*
X41777272Y-94855450D01*
X41607112Y-94925932D01*
X41453973Y-95028256D01*
X41323739Y-95158490D01*
X41221415Y-95311629D01*
X41150933Y-95481789D01*
X41115001Y-95662429D01*
X25807523Y-95662429D01*
X25827932Y-95613158D01*
X25885000Y-95326260D01*
X25885000Y-95033740D01*
X25827932Y-94746842D01*
X25715990Y-94476589D01*
X25553475Y-94233368D01*
X25346632Y-94026525D01*
X25103411Y-93864010D01*
X24833158Y-93752068D01*
X24546260Y-93695000D01*
X24253740Y-93695000D01*
X23966842Y-93752068D01*
X23696589Y-93864010D01*
X23560188Y-93955150D01*
X23560228Y-91598062D01*
X41115001Y-91598062D01*
X41115001Y-91801940D01*
X41154775Y-92001899D01*
X41232796Y-92190257D01*
X41346064Y-92359775D01*
X41490227Y-92503938D01*
X41659745Y-92617206D01*
X41848103Y-92695227D01*
X42048062Y-92735001D01*
X42251940Y-92735001D01*
X42451899Y-92695227D01*
X42640257Y-92617206D01*
X42809775Y-92503938D01*
X42953938Y-92359775D01*
X43067206Y-92190257D01*
X43145227Y-92001899D01*
X43185001Y-91801940D01*
X43185001Y-91598062D01*
X43145227Y-91398103D01*
X43067206Y-91209745D01*
X42953938Y-91040227D01*
X42809775Y-90896064D01*
X42640257Y-90782796D01*
X42451899Y-90704775D01*
X42251940Y-90665001D01*
X42048062Y-90665001D01*
X41848103Y-90704775D01*
X41659745Y-90782796D01*
X41490227Y-90896064D01*
X41346064Y-91040227D01*
X41232796Y-91209745D01*
X41154775Y-91398103D01*
X41115001Y-91598062D01*
X23560228Y-91598062D01*
X23560312Y-86753740D01*
X34175000Y-86753740D01*
X34175000Y-87046260D01*
X34232068Y-87333158D01*
X34344010Y-87603411D01*
X34506525Y-87846632D01*
X34713368Y-88053475D01*
X34956589Y-88215990D01*
X35226842Y-88327932D01*
X35513740Y-88385000D01*
X35806260Y-88385000D01*
X36093158Y-88327932D01*
X36363411Y-88215990D01*
X36606632Y-88053475D01*
X36738487Y-87921620D01*
X36760498Y-87994180D01*
X36819463Y-88104494D01*
X36898815Y-88201185D01*
X36995506Y-88280537D01*
X37105820Y-88339502D01*
X37225518Y-88375812D01*
X37350000Y-88388072D01*
X39050000Y-88388072D01*
X39174482Y-88375812D01*
X39294180Y-88339502D01*
X39404494Y-88280537D01*
X39501185Y-88201185D01*
X39580537Y-88104494D01*
X39639502Y-87994180D01*
X39675812Y-87874482D01*
X39688072Y-87750000D01*
X39688072Y-87347815D01*
X39696063Y-87359774D01*
X39840226Y-87503937D01*
X40009744Y-87617205D01*
X40198102Y-87695226D01*
X40398061Y-87735000D01*
X40601939Y-87735000D01*
X40801898Y-87695226D01*
X40990256Y-87617205D01*
X41159774Y-87503937D01*
X41303937Y-87359774D01*
X41417205Y-87190256D01*
X41495226Y-87001898D01*
X41535000Y-86801939D01*
X41535000Y-86598061D01*
X41495226Y-86398102D01*
X41417205Y-86209744D01*
X41303937Y-86040226D01*
X41159774Y-85896063D01*
X40990256Y-85782795D01*
X40801898Y-85704774D01*
X40601939Y-85665000D01*
X40398061Y-85665000D01*
X40198102Y-85704774D01*
X40009744Y-85782795D01*
X39840226Y-85896063D01*
X39696063Y-86040226D01*
X39688072Y-86052185D01*
X39688072Y-86050000D01*
X39675812Y-85925518D01*
X39639502Y-85805820D01*
X39580537Y-85695506D01*
X39501185Y-85598815D01*
X39404494Y-85519463D01*
X39294180Y-85460498D01*
X39174482Y-85424188D01*
X39050000Y-85411928D01*
X37350000Y-85411928D01*
X37225518Y-85424188D01*
X37105820Y-85460498D01*
X36995506Y-85519463D01*
X36898815Y-85598815D01*
X36819463Y-85695506D01*
X36760498Y-85805820D01*
X36738487Y-85878380D01*
X36606632Y-85746525D01*
X36363411Y-85584010D01*
X36093158Y-85472068D01*
X35806260Y-85415000D01*
X35513740Y-85415000D01*
X35226842Y-85472068D01*
X34956589Y-85584010D01*
X34713368Y-85746525D01*
X34506525Y-85953368D01*
X34344010Y-86196589D01*
X34232068Y-86466842D01*
X34175000Y-86753740D01*
X23560312Y-86753740D01*
X23560336Y-85379570D01*
X23754242Y-85573476D01*
X23997463Y-85735991D01*
X24267716Y-85847933D01*
X24554614Y-85905001D01*
X24847134Y-85905001D01*
X25134032Y-85847933D01*
X25404285Y-85735991D01*
X25647506Y-85573476D01*
X25854349Y-85366633D01*
X26016864Y-85123412D01*
X26128806Y-84853159D01*
X26185874Y-84566261D01*
X26185874Y-84273741D01*
X26128806Y-83986843D01*
X26016864Y-83716590D01*
X25854349Y-83473369D01*
X25647506Y-83266526D01*
X25473114Y-83150001D01*
X25647506Y-83033476D01*
X25854349Y-82826633D01*
X26016864Y-82583412D01*
X26128806Y-82313159D01*
X26185874Y-82026261D01*
X26185874Y-81733741D01*
X26128806Y-81446843D01*
X26016864Y-81176590D01*
X25854349Y-80933369D01*
X25647506Y-80726526D01*
X25473114Y-80610001D01*
X25647506Y-80493476D01*
X25854349Y-80286633D01*
X26016864Y-80043412D01*
X26128806Y-79773159D01*
X26185874Y-79486261D01*
X26185874Y-79193741D01*
X26128806Y-78906843D01*
X26016864Y-78636590D01*
X25854349Y-78393369D01*
X25647506Y-78186526D01*
X25473114Y-78070001D01*
X25647506Y-77953476D01*
X25854349Y-77746633D01*
X26016864Y-77503412D01*
X26128806Y-77233159D01*
X26185874Y-76946261D01*
X26185874Y-76653741D01*
X26128806Y-76366843D01*
X26016864Y-76096590D01*
X25854349Y-75853369D01*
X25647506Y-75646526D01*
X25473114Y-75530001D01*
X25647506Y-75413476D01*
X25823254Y-75237728D01*
X38204667Y-75237728D01*
X38204667Y-75441606D01*
X38244441Y-75641565D01*
X38322462Y-75829923D01*
X38435730Y-75999441D01*
X38579893Y-76143604D01*
X38749411Y-76256872D01*
X38937769Y-76334893D01*
X39137728Y-76374667D01*
X39341606Y-76374667D01*
X39541565Y-76334893D01*
X39633844Y-76296670D01*
X39654774Y-76401895D01*
X39732795Y-76590253D01*
X39846063Y-76759771D01*
X39851292Y-76765000D01*
X39797578Y-76765000D01*
X39616938Y-76800932D01*
X39446778Y-76871414D01*
X39293639Y-76973738D01*
X39163405Y-77103972D01*
X39061081Y-77257111D01*
X38990599Y-77427271D01*
X38954667Y-77607911D01*
X38954667Y-77792089D01*
X38990599Y-77972729D01*
X39061081Y-78142889D01*
X39163405Y-78296028D01*
X39293639Y-78426262D01*
X39446778Y-78528586D01*
X39616938Y-78599068D01*
X39797578Y-78635000D01*
X39981756Y-78635000D01*
X40162396Y-78599068D01*
X40332556Y-78528586D01*
X40485695Y-78426262D01*
X40615929Y-78296028D01*
X40718253Y-78142889D01*
X40788735Y-77972729D01*
X40824667Y-77792089D01*
X40824667Y-77607911D01*
X40788735Y-77427271D01*
X40718253Y-77257111D01*
X40636659Y-77134997D01*
X40751939Y-77134997D01*
X40951898Y-77095223D01*
X41140256Y-77017202D01*
X41309774Y-76903934D01*
X41453937Y-76759771D01*
X41567205Y-76590253D01*
X41645226Y-76401895D01*
X41685000Y-76201936D01*
X41685000Y-75998058D01*
X41645226Y-75798099D01*
X41567205Y-75609741D01*
X41453937Y-75440223D01*
X41309774Y-75296060D01*
X41140256Y-75182792D01*
X40951898Y-75104771D01*
X40751939Y-75064997D01*
X40548061Y-75064997D01*
X40348102Y-75104771D01*
X40255823Y-75142994D01*
X40234893Y-75037769D01*
X40156872Y-74849411D01*
X40065437Y-74712568D01*
X40078586Y-74692889D01*
X40149068Y-74522729D01*
X40185000Y-74342089D01*
X40185000Y-74157911D01*
X40149068Y-73977271D01*
X40078586Y-73807111D01*
X40068678Y-73792282D01*
X42165874Y-73792282D01*
X42165874Y-73996160D01*
X42205648Y-74196119D01*
X42283669Y-74384477D01*
X42396937Y-74553995D01*
X42541100Y-74698158D01*
X42599790Y-74737374D01*
X42496937Y-74840227D01*
X42383669Y-75009745D01*
X42305648Y-75198103D01*
X42265874Y-75398062D01*
X42265874Y-75601940D01*
X42305648Y-75801899D01*
X42383669Y-75990257D01*
X42496937Y-76159775D01*
X42641100Y-76303938D01*
X42810618Y-76417206D01*
X42998976Y-76495227D01*
X43198935Y-76535001D01*
X43402813Y-76535001D01*
X43602772Y-76495227D01*
X43791130Y-76417206D01*
X43960648Y-76303938D01*
X44104811Y-76159775D01*
X44218079Y-75990257D01*
X44296100Y-75801899D01*
X44299816Y-75783217D01*
X44308785Y-75785001D01*
X44492963Y-75785001D01*
X44673603Y-75749069D01*
X44843763Y-75678587D01*
X44996902Y-75576263D01*
X45127136Y-75446029D01*
X45229460Y-75292890D01*
X45299942Y-75122730D01*
X45335874Y-74942090D01*
X45335874Y-74757912D01*
X45299942Y-74577272D01*
X45229460Y-74407112D01*
X45127136Y-74253973D01*
X44996902Y-74123739D01*
X44843763Y-74021415D01*
X44673603Y-73950933D01*
X44492963Y-73915001D01*
X44308785Y-73915001D01*
X44235874Y-73929504D01*
X44235874Y-73860061D01*
X46814502Y-73860061D01*
X46814502Y-74063939D01*
X46854276Y-74263898D01*
X46932297Y-74452256D01*
X47045565Y-74621774D01*
X47189728Y-74765937D01*
X47359246Y-74879205D01*
X47547604Y-74957226D01*
X47747563Y-74997000D01*
X47951441Y-74997000D01*
X48151400Y-74957226D01*
X48339758Y-74879205D01*
X48509276Y-74765937D01*
X48653439Y-74621774D01*
X48766707Y-74452256D01*
X48844728Y-74263898D01*
X48884502Y-74063939D01*
X48884502Y-73860061D01*
X48866299Y-73768550D01*
X48983060Y-73720186D01*
X49032795Y-73840256D01*
X49146063Y-74009774D01*
X49290226Y-74153937D01*
X49459744Y-74267205D01*
X49648102Y-74345226D01*
X49848061Y-74385000D01*
X50051939Y-74385000D01*
X50065000Y-74382402D01*
X50065000Y-74401939D01*
X50104774Y-74601898D01*
X50182795Y-74790256D01*
X50296063Y-74959774D01*
X50440226Y-75103937D01*
X50609744Y-75217205D01*
X50798102Y-75295226D01*
X50998061Y-75335000D01*
X51201939Y-75335000D01*
X51401898Y-75295226D01*
X51590256Y-75217205D01*
X51759774Y-75103937D01*
X51903937Y-74959774D01*
X52017205Y-74790256D01*
X52051313Y-74707912D01*
X55465874Y-74707912D01*
X55465874Y-74892090D01*
X55501806Y-75072730D01*
X55572288Y-75242890D01*
X55674612Y-75396029D01*
X55804846Y-75526263D01*
X55957985Y-75628587D01*
X56128145Y-75699069D01*
X56308785Y-75735001D01*
X56492963Y-75735001D01*
X56673603Y-75699069D01*
X56843763Y-75628587D01*
X56996902Y-75526263D01*
X57127136Y-75396029D01*
X57229460Y-75242890D01*
X57299942Y-75072730D01*
X57335874Y-74892090D01*
X57335874Y-74707912D01*
X57299942Y-74527272D01*
X57229460Y-74357112D01*
X57127136Y-74203973D01*
X56996902Y-74073739D01*
X56843763Y-73971415D01*
X56673603Y-73900933D01*
X56492963Y-73865001D01*
X56308785Y-73865001D01*
X56128145Y-73900933D01*
X55957985Y-73971415D01*
X55804846Y-74073739D01*
X55674612Y-74203973D01*
X55572288Y-74357112D01*
X55501806Y-74527272D01*
X55465874Y-74707912D01*
X52051313Y-74707912D01*
X52095226Y-74601898D01*
X52135000Y-74401939D01*
X52135000Y-74198061D01*
X52095226Y-73998102D01*
X52017205Y-73809744D01*
X51903937Y-73640226D01*
X51759774Y-73496063D01*
X51736988Y-73480838D01*
X51757911Y-73485000D01*
X51942089Y-73485000D01*
X52122729Y-73449068D01*
X52292889Y-73378586D01*
X52446028Y-73276262D01*
X52576262Y-73146028D01*
X52678586Y-72992889D01*
X52749068Y-72822729D01*
X52785000Y-72642089D01*
X52785000Y-72457911D01*
X52749068Y-72277271D01*
X52678586Y-72107111D01*
X52576262Y-71953972D01*
X52446028Y-71823738D01*
X52292889Y-71721414D01*
X52122729Y-71650932D01*
X51942089Y-71615000D01*
X51757911Y-71615000D01*
X51577271Y-71650932D01*
X51407111Y-71721414D01*
X51253972Y-71823738D01*
X51123738Y-71953972D01*
X51021414Y-72107111D01*
X50950932Y-72277271D01*
X50915000Y-72457911D01*
X50915000Y-72642089D01*
X50950932Y-72822729D01*
X51021414Y-72992889D01*
X51123738Y-73146028D01*
X51252833Y-73275123D01*
X51201939Y-73265000D01*
X50998061Y-73265000D01*
X50985000Y-73267598D01*
X50985000Y-73248061D01*
X50945226Y-73048102D01*
X50867205Y-72859744D01*
X50753937Y-72690226D01*
X50609774Y-72546063D01*
X50440256Y-72432795D01*
X50396421Y-72414638D01*
X50438656Y-72351429D01*
X50509138Y-72181269D01*
X50545070Y-72000629D01*
X50545070Y-71816451D01*
X50509138Y-71635811D01*
X50438656Y-71465651D01*
X50336332Y-71312512D01*
X50221881Y-71198061D01*
X55065000Y-71198061D01*
X55065000Y-71401939D01*
X55104774Y-71601898D01*
X55182795Y-71790256D01*
X55296063Y-71959774D01*
X55440226Y-72103937D01*
X55517114Y-72155312D01*
X55504774Y-72185102D01*
X55465000Y-72385061D01*
X55465000Y-72588939D01*
X55504774Y-72788898D01*
X55582795Y-72977256D01*
X55696063Y-73146774D01*
X55840226Y-73290937D01*
X56009744Y-73404205D01*
X56198102Y-73482226D01*
X56398061Y-73522000D01*
X56601939Y-73522000D01*
X56801898Y-73482226D01*
X56990256Y-73404205D01*
X57159774Y-73290937D01*
X57303937Y-73146774D01*
X57417205Y-72977256D01*
X57495226Y-72788898D01*
X57535000Y-72588939D01*
X57535000Y-72385061D01*
X57495226Y-72185102D01*
X57417205Y-71996744D01*
X57303937Y-71827226D01*
X57159774Y-71683063D01*
X57082886Y-71631688D01*
X57095226Y-71601898D01*
X57135000Y-71401939D01*
X57135000Y-71198061D01*
X57095226Y-70998102D01*
X57017205Y-70809744D01*
X56903937Y-70640226D01*
X56759774Y-70496063D01*
X56590256Y-70382795D01*
X56401898Y-70304774D01*
X56201939Y-70265000D01*
X55998061Y-70265000D01*
X55798102Y-70304774D01*
X55609744Y-70382795D01*
X55440226Y-70496063D01*
X55296063Y-70640226D01*
X55182795Y-70809744D01*
X55104774Y-70998102D01*
X55065000Y-71198061D01*
X50221881Y-71198061D01*
X50206098Y-71182278D01*
X50052959Y-71079954D01*
X49882799Y-71009472D01*
X49702159Y-70973540D01*
X49517981Y-70973540D01*
X49337341Y-71009472D01*
X49167181Y-71079954D01*
X49014042Y-71182278D01*
X48883808Y-71312512D01*
X48781484Y-71465651D01*
X48711002Y-71635811D01*
X48682131Y-71780951D01*
X48601939Y-71765000D01*
X48398061Y-71765000D01*
X48198102Y-71804774D01*
X48009744Y-71882795D01*
X47840226Y-71996063D01*
X47696063Y-72140226D01*
X47582795Y-72309744D01*
X47504774Y-72498102D01*
X47465000Y-72698061D01*
X47465000Y-72901939D01*
X47483203Y-72993450D01*
X47359246Y-73044795D01*
X47189728Y-73158063D01*
X47045565Y-73302226D01*
X46932297Y-73471744D01*
X46854276Y-73660102D01*
X46814502Y-73860061D01*
X44235874Y-73860061D01*
X44235874Y-73792282D01*
X44196100Y-73592323D01*
X44118079Y-73403965D01*
X44004811Y-73234447D01*
X43860648Y-73090284D01*
X43691130Y-72977016D01*
X43502772Y-72898995D01*
X43302813Y-72859221D01*
X43098935Y-72859221D01*
X42898976Y-72898995D01*
X42710618Y-72977016D01*
X42541100Y-73090284D01*
X42396937Y-73234447D01*
X42283669Y-73403965D01*
X42205648Y-73592323D01*
X42165874Y-73792282D01*
X40068678Y-73792282D01*
X39976262Y-73653972D01*
X39846028Y-73523738D01*
X39692889Y-73421414D01*
X39522729Y-73350932D01*
X39342089Y-73315000D01*
X39157911Y-73315000D01*
X38977271Y-73350932D01*
X38807111Y-73421414D01*
X38653972Y-73523738D01*
X38523738Y-73653972D01*
X38421414Y-73807111D01*
X38350932Y-73977271D01*
X38315000Y-74157911D01*
X38315000Y-74342089D01*
X38350932Y-74522729D01*
X38421414Y-74692889D01*
X38424230Y-74697104D01*
X38322462Y-74849411D01*
X38244441Y-75037769D01*
X38204667Y-75237728D01*
X25823254Y-75237728D01*
X25854349Y-75206633D01*
X26016864Y-74963412D01*
X26128806Y-74693159D01*
X26185874Y-74406261D01*
X26185874Y-74113741D01*
X26128806Y-73826843D01*
X26016864Y-73556590D01*
X25854349Y-73313369D01*
X25647506Y-73106526D01*
X25473114Y-72990001D01*
X25647506Y-72873476D01*
X25854349Y-72666633D01*
X26016864Y-72423412D01*
X26128806Y-72153159D01*
X26185874Y-71866261D01*
X26185874Y-71573741D01*
X26128806Y-71286843D01*
X26016864Y-71016590D01*
X25972371Y-70950000D01*
X31111928Y-70950000D01*
X31111928Y-72650000D01*
X31124188Y-72774482D01*
X31160498Y-72894180D01*
X31219463Y-73004494D01*
X31298815Y-73101185D01*
X31395506Y-73180537D01*
X31505820Y-73239502D01*
X31625518Y-73275812D01*
X31750000Y-73288072D01*
X33450000Y-73288072D01*
X33481515Y-73284968D01*
X33504774Y-73401898D01*
X33582795Y-73590256D01*
X33696063Y-73759774D01*
X33840226Y-73903937D01*
X34009744Y-74017205D01*
X34198102Y-74095226D01*
X34398061Y-74135000D01*
X34601939Y-74135000D01*
X34801898Y-74095226D01*
X34900000Y-74054591D01*
X34998102Y-74095226D01*
X35198061Y-74135000D01*
X35401939Y-74135000D01*
X35601898Y-74095226D01*
X35790256Y-74017205D01*
X35959774Y-73903937D01*
X36103937Y-73759774D01*
X36217205Y-73590256D01*
X36295226Y-73401898D01*
X36335000Y-73201939D01*
X36335000Y-72998061D01*
X36295226Y-72798102D01*
X36217205Y-72609744D01*
X36103937Y-72440226D01*
X36063711Y-72400000D01*
X36103937Y-72359774D01*
X36217205Y-72190256D01*
X36295226Y-72001898D01*
X36335000Y-71801939D01*
X36335000Y-71598061D01*
X36330675Y-71576320D01*
X36450000Y-71588072D01*
X38150000Y-71588072D01*
X38274482Y-71575812D01*
X38394180Y-71539502D01*
X38504494Y-71480537D01*
X38601185Y-71401185D01*
X38680537Y-71304494D01*
X38739502Y-71194180D01*
X38761513Y-71121620D01*
X38893368Y-71253475D01*
X39136589Y-71415990D01*
X39406842Y-71527932D01*
X39693740Y-71585000D01*
X39986260Y-71585000D01*
X40273158Y-71527932D01*
X40543411Y-71415990D01*
X40786632Y-71253475D01*
X40993475Y-71046632D01*
X41155990Y-70803411D01*
X41267932Y-70533158D01*
X41325000Y-70246260D01*
X41325000Y-69953740D01*
X41294034Y-69798061D01*
X41465000Y-69798061D01*
X41465000Y-70001939D01*
X41504774Y-70201898D01*
X41582795Y-70390256D01*
X41696063Y-70559774D01*
X41840226Y-70703937D01*
X42009744Y-70817205D01*
X42198102Y-70895226D01*
X42398061Y-70935000D01*
X42601939Y-70935000D01*
X42801898Y-70895226D01*
X42990256Y-70817205D01*
X43159774Y-70703937D01*
X43303937Y-70559774D01*
X43417205Y-70390256D01*
X43455393Y-70298061D01*
X45865000Y-70298061D01*
X45865000Y-70501939D01*
X45904774Y-70701898D01*
X45982795Y-70890256D01*
X46096063Y-71059774D01*
X46240226Y-71203937D01*
X46409744Y-71317205D01*
X46598102Y-71395226D01*
X46798061Y-71435000D01*
X47001939Y-71435000D01*
X47201898Y-71395226D01*
X47390256Y-71317205D01*
X47559774Y-71203937D01*
X47703937Y-71059774D01*
X47817205Y-70890256D01*
X47895226Y-70701898D01*
X47935000Y-70501939D01*
X47935000Y-70298061D01*
X47895226Y-70098102D01*
X47817205Y-69909744D01*
X47703937Y-69740226D01*
X47559774Y-69596063D01*
X47390256Y-69482795D01*
X47201898Y-69404774D01*
X47001939Y-69365000D01*
X46798061Y-69365000D01*
X46598102Y-69404774D01*
X46409744Y-69482795D01*
X46240226Y-69596063D01*
X46096063Y-69740226D01*
X45982795Y-69909744D01*
X45904774Y-70098102D01*
X45865000Y-70298061D01*
X43455393Y-70298061D01*
X43495226Y-70201898D01*
X43535000Y-70001939D01*
X43535000Y-69798061D01*
X43495226Y-69598102D01*
X43417205Y-69409744D01*
X43303937Y-69240226D01*
X43166065Y-69102354D01*
X43201898Y-69095226D01*
X43390256Y-69017205D01*
X43559774Y-68903937D01*
X43703937Y-68759774D01*
X43817205Y-68590256D01*
X43895226Y-68401898D01*
X43935000Y-68201939D01*
X43935000Y-67998061D01*
X43895226Y-67798102D01*
X43817205Y-67609744D01*
X43703937Y-67440226D01*
X43559774Y-67296063D01*
X43390256Y-67182795D01*
X43383412Y-67179960D01*
X43459774Y-67128937D01*
X43490650Y-67098061D01*
X45865000Y-67098061D01*
X45865000Y-67301939D01*
X45904774Y-67501898D01*
X45982795Y-67690256D01*
X46096063Y-67859774D01*
X46240226Y-68003937D01*
X46409744Y-68117205D01*
X46598102Y-68195226D01*
X46798061Y-68235000D01*
X47001939Y-68235000D01*
X47201898Y-68195226D01*
X47390256Y-68117205D01*
X47559774Y-68003937D01*
X47703937Y-67859774D01*
X47817205Y-67690256D01*
X47895226Y-67501898D01*
X47935000Y-67301939D01*
X47935000Y-67254977D01*
X47971414Y-67342889D01*
X48073738Y-67496028D01*
X48203972Y-67626262D01*
X48299162Y-67689866D01*
X48140226Y-67796063D01*
X47996063Y-67940226D01*
X47882795Y-68109744D01*
X47804774Y-68298102D01*
X47765000Y-68498061D01*
X47765000Y-68701939D01*
X47804774Y-68901898D01*
X47882795Y-69090256D01*
X47996063Y-69259774D01*
X48140226Y-69403937D01*
X48309744Y-69517205D01*
X48498102Y-69595226D01*
X48698061Y-69635000D01*
X48901939Y-69635000D01*
X49087645Y-69598061D01*
X57265000Y-69598061D01*
X57265000Y-69801939D01*
X57304774Y-70001898D01*
X57382795Y-70190256D01*
X57496063Y-70359774D01*
X57640226Y-70503937D01*
X57809744Y-70617205D01*
X57889399Y-70650199D01*
X57782795Y-70809744D01*
X57704774Y-70998102D01*
X57665000Y-71198061D01*
X57665000Y-71401939D01*
X57704774Y-71601898D01*
X57782795Y-71790256D01*
X57896063Y-71959774D01*
X58040226Y-72103937D01*
X58209744Y-72217205D01*
X58398102Y-72295226D01*
X58598061Y-72335000D01*
X58801939Y-72335000D01*
X59001898Y-72295226D01*
X59190256Y-72217205D01*
X59359774Y-72103937D01*
X59503937Y-71959774D01*
X59617205Y-71790256D01*
X59695226Y-71601898D01*
X59735000Y-71401939D01*
X59735000Y-71198061D01*
X59695226Y-70998102D01*
X59617205Y-70809744D01*
X59503937Y-70640226D01*
X59359774Y-70496063D01*
X59190256Y-70382795D01*
X59110601Y-70349801D01*
X59217205Y-70190256D01*
X59295226Y-70001898D01*
X59335000Y-69801939D01*
X59335000Y-69598061D01*
X59295226Y-69398102D01*
X59217205Y-69209744D01*
X59103937Y-69040226D01*
X58959774Y-68896063D01*
X58790256Y-68782795D01*
X58601898Y-68704774D01*
X58401939Y-68665000D01*
X58198061Y-68665000D01*
X57998102Y-68704774D01*
X57809744Y-68782795D01*
X57640226Y-68896063D01*
X57496063Y-69040226D01*
X57382795Y-69209744D01*
X57304774Y-69398102D01*
X57265000Y-69598061D01*
X49087645Y-69598061D01*
X49101898Y-69595226D01*
X49290256Y-69517205D01*
X49459774Y-69403937D01*
X49603937Y-69259774D01*
X49717205Y-69090256D01*
X49795226Y-68901898D01*
X49835000Y-68701939D01*
X49835000Y-68681512D01*
X49990256Y-68617202D01*
X50159774Y-68503934D01*
X50303937Y-68359771D01*
X50417205Y-68190253D01*
X50495226Y-68001895D01*
X50535000Y-67801936D01*
X50535000Y-67598058D01*
X50495226Y-67398099D01*
X50417205Y-67209741D01*
X50303937Y-67040223D01*
X50159774Y-66896060D01*
X49990256Y-66782792D01*
X49801898Y-66704771D01*
X49710883Y-66686667D01*
X49699068Y-66627271D01*
X49628586Y-66457111D01*
X49526262Y-66303972D01*
X49396028Y-66173738D01*
X49242889Y-66071414D01*
X49072729Y-66000932D01*
X48911436Y-65968848D01*
X48868740Y-65865771D01*
X48766416Y-65712632D01*
X48636182Y-65582398D01*
X48483043Y-65480074D01*
X48383802Y-65438967D01*
X51465000Y-65438967D01*
X51465000Y-65761033D01*
X51527832Y-66076912D01*
X51651082Y-66374463D01*
X51830013Y-66642252D01*
X52057748Y-66869987D01*
X52325537Y-67048918D01*
X52623088Y-67172168D01*
X52938967Y-67235000D01*
X53261033Y-67235000D01*
X53576912Y-67172168D01*
X53874463Y-67048918D01*
X54142252Y-66869987D01*
X54369987Y-66642252D01*
X54548918Y-66374463D01*
X54672168Y-66076912D01*
X54733038Y-65770896D01*
X60513330Y-65770896D01*
X60513330Y-66024018D01*
X60562711Y-66272278D01*
X60659577Y-66506133D01*
X60800205Y-66716597D01*
X60979190Y-66895582D01*
X61189654Y-67036210D01*
X61423509Y-67133076D01*
X61671769Y-67182457D01*
X61924891Y-67182457D01*
X62173151Y-67133076D01*
X62407006Y-67036210D01*
X62617470Y-66895582D01*
X62796455Y-66716597D01*
X62937083Y-66506133D01*
X62954332Y-66464491D01*
X63126053Y-66535620D01*
X63374313Y-66585001D01*
X63627435Y-66585001D01*
X63875695Y-66535620D01*
X64109550Y-66438754D01*
X64320014Y-66298126D01*
X64498999Y-66119141D01*
X64639627Y-65908677D01*
X64736493Y-65674822D01*
X64785874Y-65426562D01*
X64785874Y-65173440D01*
X64736493Y-64925180D01*
X64639627Y-64691325D01*
X64498999Y-64480861D01*
X64418139Y-64400001D01*
X64498999Y-64319141D01*
X64639627Y-64108677D01*
X64736493Y-63874822D01*
X64785874Y-63626562D01*
X64785874Y-63373440D01*
X64736493Y-63125180D01*
X64639627Y-62891325D01*
X64498999Y-62680861D01*
X64320014Y-62501876D01*
X64167548Y-62400001D01*
X64320014Y-62298126D01*
X64498999Y-62119141D01*
X64639627Y-61908677D01*
X64736493Y-61674822D01*
X64785874Y-61426562D01*
X64785874Y-61173440D01*
X64736493Y-60925180D01*
X64639627Y-60691325D01*
X64498999Y-60480861D01*
X64368139Y-60350001D01*
X64498999Y-60219141D01*
X64639627Y-60008677D01*
X64736493Y-59774822D01*
X64785874Y-59526562D01*
X64785874Y-59273440D01*
X64736493Y-59025180D01*
X64639627Y-58791325D01*
X64498999Y-58580861D01*
X64320014Y-58401876D01*
X64109550Y-58261248D01*
X63875695Y-58164382D01*
X63627435Y-58115001D01*
X63374313Y-58115001D01*
X63126053Y-58164382D01*
X62892198Y-58261248D01*
X62681734Y-58401876D01*
X62502749Y-58580861D01*
X62379164Y-58765819D01*
X62375695Y-58764382D01*
X62127435Y-58715001D01*
X61874313Y-58715001D01*
X61626053Y-58764382D01*
X61392198Y-58861248D01*
X61181734Y-59001876D01*
X61002749Y-59180861D01*
X60862121Y-59391325D01*
X60765255Y-59625180D01*
X60715874Y-59873440D01*
X60715874Y-60126562D01*
X60765255Y-60374822D01*
X60862121Y-60608677D01*
X61002749Y-60819141D01*
X61181734Y-60998126D01*
X61371613Y-61125000D01*
X61181734Y-61251873D01*
X61002749Y-61430858D01*
X60862121Y-61641322D01*
X60765255Y-61875177D01*
X60715874Y-62123437D01*
X60715874Y-62376559D01*
X60765255Y-62624819D01*
X60862121Y-62858674D01*
X61002749Y-63069138D01*
X61163955Y-63230344D01*
X61131732Y-63251874D01*
X60952747Y-63430859D01*
X60812119Y-63641323D01*
X60715253Y-63875178D01*
X60665872Y-64123438D01*
X60665872Y-64376560D01*
X60715253Y-64624820D01*
X60812119Y-64858675D01*
X60895323Y-64983199D01*
X60800205Y-65078317D01*
X60659577Y-65288781D01*
X60562711Y-65522636D01*
X60513330Y-65770896D01*
X54733038Y-65770896D01*
X54735000Y-65761033D01*
X54735000Y-65438967D01*
X54672168Y-65123088D01*
X54548918Y-64825537D01*
X54369987Y-64557748D01*
X54142252Y-64330013D01*
X53874463Y-64151082D01*
X53576912Y-64027832D01*
X53261033Y-63965000D01*
X52938967Y-63965000D01*
X52623088Y-64027832D01*
X52325537Y-64151082D01*
X52057748Y-64330013D01*
X51830013Y-64557748D01*
X51651082Y-64825537D01*
X51527832Y-65123088D01*
X51465000Y-65438967D01*
X48383802Y-65438967D01*
X48312883Y-65409592D01*
X48132243Y-65373660D01*
X47948065Y-65373660D01*
X47767425Y-65409592D01*
X47597265Y-65480074D01*
X47444126Y-65582398D01*
X47313892Y-65712632D01*
X47211568Y-65865771D01*
X47141086Y-66035931D01*
X47111093Y-66186712D01*
X47001939Y-66165000D01*
X46798061Y-66165000D01*
X46598102Y-66204774D01*
X46409744Y-66282795D01*
X46240226Y-66396063D01*
X46096063Y-66540226D01*
X45982795Y-66709744D01*
X45904774Y-66898102D01*
X45865000Y-67098061D01*
X43490650Y-67098061D01*
X43603937Y-66984774D01*
X43717205Y-66815256D01*
X43795226Y-66626898D01*
X43835000Y-66426939D01*
X43835000Y-66223061D01*
X43795226Y-66023102D01*
X43717205Y-65834744D01*
X43603937Y-65665226D01*
X43459774Y-65521063D01*
X43290256Y-65407795D01*
X43101898Y-65329774D01*
X42901939Y-65290000D01*
X42698061Y-65290000D01*
X42498102Y-65329774D01*
X42309744Y-65407795D01*
X42140226Y-65521063D01*
X41996063Y-65665226D01*
X41882795Y-65834744D01*
X41804774Y-66023102D01*
X41765000Y-66223061D01*
X41765000Y-66426939D01*
X41804774Y-66626898D01*
X41882795Y-66815256D01*
X41996063Y-66984774D01*
X42140226Y-67128937D01*
X42309744Y-67242205D01*
X42316588Y-67245040D01*
X42240226Y-67296063D01*
X42096063Y-67440226D01*
X41982795Y-67609744D01*
X41904774Y-67798102D01*
X41865000Y-67998061D01*
X41865000Y-68201939D01*
X41904774Y-68401898D01*
X41982795Y-68590256D01*
X42096063Y-68759774D01*
X42233935Y-68897646D01*
X42198102Y-68904774D01*
X42009744Y-68982795D01*
X41840226Y-69096063D01*
X41696063Y-69240226D01*
X41582795Y-69409744D01*
X41504774Y-69598102D01*
X41465000Y-69798061D01*
X41294034Y-69798061D01*
X41267932Y-69666842D01*
X41155990Y-69396589D01*
X40993475Y-69153368D01*
X40786632Y-68946525D01*
X40612240Y-68830000D01*
X40786632Y-68713475D01*
X40993475Y-68506632D01*
X41155990Y-68263411D01*
X41267932Y-67993158D01*
X41325000Y-67706260D01*
X41325000Y-67413740D01*
X41267932Y-67126842D01*
X41155990Y-66856589D01*
X40993475Y-66613368D01*
X40786632Y-66406525D01*
X40543411Y-66244010D01*
X40273158Y-66132068D01*
X39986260Y-66075000D01*
X39693740Y-66075000D01*
X39406842Y-66132068D01*
X39136589Y-66244010D01*
X38893368Y-66406525D01*
X38686525Y-66613368D01*
X38570000Y-66787760D01*
X38453475Y-66613368D01*
X38246632Y-66406525D01*
X38003411Y-66244010D01*
X37733158Y-66132068D01*
X37446260Y-66075000D01*
X37153740Y-66075000D01*
X36866842Y-66132068D01*
X36596589Y-66244010D01*
X36353368Y-66406525D01*
X36146525Y-66613368D01*
X35984010Y-66856589D01*
X35901066Y-67056835D01*
X35790256Y-66982795D01*
X35601898Y-66904774D01*
X35401939Y-66865000D01*
X35198061Y-66865000D01*
X34998102Y-66904774D01*
X34900000Y-66945409D01*
X34801898Y-66904774D01*
X34601939Y-66865000D01*
X34398061Y-66865000D01*
X34198102Y-66904774D01*
X34066496Y-66959288D01*
X34085000Y-66866260D01*
X34085000Y-66573740D01*
X34027932Y-66286842D01*
X33915990Y-66016589D01*
X33753475Y-65773368D01*
X33546632Y-65566525D01*
X33303411Y-65404010D01*
X33033158Y-65292068D01*
X32746260Y-65235000D01*
X32453740Y-65235000D01*
X32166842Y-65292068D01*
X31896589Y-65404010D01*
X31653368Y-65566525D01*
X31446525Y-65773368D01*
X31284010Y-66016589D01*
X31172068Y-66286842D01*
X31115000Y-66573740D01*
X31115000Y-66866260D01*
X31172068Y-67153158D01*
X31284010Y-67423411D01*
X31446525Y-67666632D01*
X31653368Y-67873475D01*
X31827760Y-67990000D01*
X31653368Y-68106525D01*
X31446525Y-68313368D01*
X31284010Y-68556589D01*
X31172068Y-68826842D01*
X31115000Y-69113740D01*
X31115000Y-69406260D01*
X31172068Y-69693158D01*
X31284010Y-69963411D01*
X31446525Y-70206632D01*
X31578380Y-70338487D01*
X31505820Y-70360498D01*
X31395506Y-70419463D01*
X31298815Y-70498815D01*
X31219463Y-70595506D01*
X31160498Y-70705820D01*
X31124188Y-70825518D01*
X31111928Y-70950000D01*
X25972371Y-70950000D01*
X25854349Y-70773369D01*
X25647506Y-70566526D01*
X25404285Y-70404011D01*
X25134032Y-70292069D01*
X24847134Y-70235001D01*
X24554614Y-70235001D01*
X24267716Y-70292069D01*
X23997463Y-70404011D01*
X23754242Y-70566526D01*
X23560588Y-70760180D01*
X23560643Y-67599877D01*
X23754242Y-67793476D01*
X23997463Y-67955991D01*
X24267716Y-68067933D01*
X24554614Y-68125001D01*
X24847134Y-68125001D01*
X25134032Y-68067933D01*
X25404285Y-67955991D01*
X25647506Y-67793476D01*
X25854349Y-67586633D01*
X26016864Y-67343412D01*
X26128806Y-67073159D01*
X26185874Y-66786261D01*
X26185874Y-66493741D01*
X26128806Y-66206843D01*
X26016864Y-65936590D01*
X25854349Y-65693369D01*
X25722494Y-65561514D01*
X25795054Y-65539503D01*
X25905368Y-65480538D01*
X26002059Y-65401186D01*
X26081411Y-65304495D01*
X26140376Y-65194181D01*
X26176686Y-65074483D01*
X26188946Y-64950001D01*
X26188946Y-63250001D01*
X26176686Y-63125519D01*
X26140376Y-63005821D01*
X26081411Y-62895507D01*
X26002059Y-62798816D01*
X25905368Y-62719464D01*
X25795054Y-62660499D01*
X25675356Y-62624189D01*
X25550874Y-62611929D01*
X23850874Y-62611929D01*
X23726392Y-62624189D01*
X23606694Y-62660499D01*
X23560727Y-62685069D01*
X23560776Y-59793740D01*
X35815000Y-59793740D01*
X35815000Y-60086260D01*
X35872068Y-60373158D01*
X35984010Y-60643411D01*
X36146525Y-60886632D01*
X36353368Y-61093475D01*
X36527760Y-61210000D01*
X36353368Y-61326525D01*
X36146525Y-61533368D01*
X35984010Y-61776589D01*
X35872068Y-62046842D01*
X35815000Y-62333740D01*
X35815000Y-62626260D01*
X35872068Y-62913158D01*
X35984010Y-63183411D01*
X36146525Y-63426632D01*
X36353368Y-63633475D01*
X36596589Y-63795990D01*
X36866842Y-63907932D01*
X37153740Y-63965000D01*
X37446260Y-63965000D01*
X37733158Y-63907932D01*
X38003411Y-63795990D01*
X38246632Y-63633475D01*
X38453475Y-63426632D01*
X38570000Y-63252240D01*
X38686525Y-63426632D01*
X38893368Y-63633475D01*
X39136589Y-63795990D01*
X39406842Y-63907932D01*
X39693740Y-63965000D01*
X39986260Y-63965000D01*
X40273158Y-63907932D01*
X40543411Y-63795990D01*
X40786632Y-63633475D01*
X40993475Y-63426632D01*
X41155990Y-63183411D01*
X41267932Y-62913158D01*
X41325000Y-62626260D01*
X41325000Y-62333740D01*
X41267932Y-62046842D01*
X41155990Y-61776589D01*
X40993475Y-61533368D01*
X40786632Y-61326525D01*
X40744033Y-61298061D01*
X49565000Y-61298061D01*
X49565000Y-61501939D01*
X49604774Y-61701898D01*
X49682795Y-61890256D01*
X49796063Y-62059774D01*
X49940226Y-62203937D01*
X50109744Y-62317205D01*
X50298102Y-62395226D01*
X50498061Y-62435000D01*
X50701939Y-62435000D01*
X50901898Y-62395226D01*
X51090256Y-62317205D01*
X51259774Y-62203937D01*
X51403937Y-62059774D01*
X51517205Y-61890256D01*
X51595226Y-61701898D01*
X51635000Y-61501939D01*
X51635000Y-61298061D01*
X51595226Y-61098102D01*
X51517205Y-60909744D01*
X51403937Y-60740226D01*
X51259774Y-60596063D01*
X51090256Y-60482795D01*
X50901898Y-60404774D01*
X50701939Y-60365000D01*
X50498061Y-60365000D01*
X50298102Y-60404774D01*
X50109744Y-60482795D01*
X49940226Y-60596063D01*
X49796063Y-60740226D01*
X49682795Y-60909744D01*
X49604774Y-61098102D01*
X49565000Y-61298061D01*
X40744033Y-61298061D01*
X40612240Y-61210000D01*
X40786632Y-61093475D01*
X40993475Y-60886632D01*
X41155990Y-60643411D01*
X41267932Y-60373158D01*
X41325000Y-60086260D01*
X41325000Y-59793740D01*
X41267932Y-59506842D01*
X41226954Y-59407911D01*
X45565000Y-59407911D01*
X45565000Y-59592089D01*
X45600932Y-59772729D01*
X45671414Y-59942889D01*
X45773738Y-60096028D01*
X45903972Y-60226262D01*
X46057111Y-60328586D01*
X46227271Y-60399068D01*
X46407911Y-60435000D01*
X46592089Y-60435000D01*
X46772729Y-60399068D01*
X46942889Y-60328586D01*
X47096028Y-60226262D01*
X47226262Y-60096028D01*
X47328586Y-59942889D01*
X47399068Y-59772729D01*
X47407977Y-59727941D01*
X47471898Y-59715226D01*
X47660256Y-59637205D01*
X47829774Y-59523937D01*
X47973937Y-59379774D01*
X48087205Y-59210256D01*
X48165226Y-59021898D01*
X48181721Y-58938967D01*
X51465000Y-58938967D01*
X51465000Y-59261033D01*
X51527832Y-59576912D01*
X51651082Y-59874463D01*
X51830013Y-60142252D01*
X52057748Y-60369987D01*
X52325537Y-60548918D01*
X52623088Y-60672168D01*
X52938967Y-60735000D01*
X53261033Y-60735000D01*
X53576912Y-60672168D01*
X53874463Y-60548918D01*
X54142252Y-60369987D01*
X54369987Y-60142252D01*
X54548918Y-59874463D01*
X54672168Y-59576912D01*
X54735000Y-59261033D01*
X54735000Y-58938967D01*
X54672168Y-58623088D01*
X54548918Y-58325537D01*
X54369987Y-58057748D01*
X54142252Y-57830013D01*
X53874463Y-57651082D01*
X53576912Y-57527832D01*
X53261033Y-57465000D01*
X52938967Y-57465000D01*
X52623088Y-57527832D01*
X52325537Y-57651082D01*
X52057748Y-57830013D01*
X51830013Y-58057748D01*
X51651082Y-58325537D01*
X51527832Y-58623088D01*
X51465000Y-58938967D01*
X48181721Y-58938967D01*
X48205000Y-58821939D01*
X48205000Y-58618061D01*
X48165226Y-58418102D01*
X48087205Y-58229744D01*
X47973937Y-58060226D01*
X47829774Y-57916063D01*
X47660256Y-57802795D01*
X47471898Y-57724774D01*
X47271939Y-57685000D01*
X47068061Y-57685000D01*
X46868102Y-57724774D01*
X46679744Y-57802795D01*
X46510226Y-57916063D01*
X46366063Y-58060226D01*
X46252795Y-58229744D01*
X46174774Y-58418102D01*
X46135000Y-58618061D01*
X46135000Y-58639152D01*
X46057111Y-58671414D01*
X45903972Y-58773738D01*
X45773738Y-58903972D01*
X45671414Y-59057111D01*
X45600932Y-59227271D01*
X45565000Y-59407911D01*
X41226954Y-59407911D01*
X41155990Y-59236589D01*
X40993475Y-58993368D01*
X40786632Y-58786525D01*
X40543411Y-58624010D01*
X40273158Y-58512068D01*
X39986260Y-58455000D01*
X39693740Y-58455000D01*
X39406842Y-58512068D01*
X39136589Y-58624010D01*
X38893368Y-58786525D01*
X38686525Y-58993368D01*
X38570000Y-59167760D01*
X38453475Y-58993368D01*
X38246632Y-58786525D01*
X38003411Y-58624010D01*
X37733158Y-58512068D01*
X37446260Y-58455000D01*
X37153740Y-58455000D01*
X36866842Y-58512068D01*
X36596589Y-58624010D01*
X36353368Y-58786525D01*
X36146525Y-58993368D01*
X35984010Y-59236589D01*
X35872068Y-59506842D01*
X35815000Y-59793740D01*
X23560776Y-59793740D01*
X23560884Y-53507911D01*
X49965000Y-53507911D01*
X49965000Y-53692089D01*
X50000932Y-53872729D01*
X50071414Y-54042889D01*
X50173738Y-54196028D01*
X50303972Y-54326262D01*
X50457111Y-54428586D01*
X50627271Y-54499068D01*
X50807911Y-54535000D01*
X50992089Y-54535000D01*
X51172729Y-54499068D01*
X51342889Y-54428586D01*
X51496028Y-54326262D01*
X51626262Y-54196028D01*
X51728586Y-54042889D01*
X51799068Y-53872729D01*
X51835000Y-53692089D01*
X51835000Y-53507911D01*
X51799068Y-53327271D01*
X51728586Y-53157111D01*
X51626262Y-53003972D01*
X51496028Y-52873738D01*
X51342889Y-52771414D01*
X51172729Y-52700932D01*
X50992089Y-52665000D01*
X50807911Y-52665000D01*
X50627271Y-52700932D01*
X50457111Y-52771414D01*
X50303972Y-52873738D01*
X50173738Y-53003972D01*
X50071414Y-53157111D01*
X50000932Y-53327271D01*
X49965000Y-53507911D01*
X23560884Y-53507911D01*
X23560928Y-50970000D01*
X72791928Y-50970000D01*
X72791928Y-52610000D01*
X72804188Y-52734482D01*
X72840498Y-52854180D01*
X72899463Y-52964494D01*
X72978815Y-53061185D01*
X73075506Y-53140537D01*
X73185820Y-53199502D01*
X73290932Y-53231388D01*
X73119828Y-53402492D01*
X72960596Y-53640799D01*
X72850915Y-53905592D01*
X72795000Y-54186695D01*
X72795000Y-54473305D01*
X72850915Y-54754408D01*
X72960596Y-55019201D01*
X73119828Y-55257508D01*
X73322492Y-55460172D01*
X73531759Y-55600000D01*
X73322492Y-55739828D01*
X73119828Y-55942492D01*
X72960596Y-56180799D01*
X72850915Y-56445592D01*
X72795000Y-56726695D01*
X72795000Y-57013305D01*
X72850915Y-57294408D01*
X72960596Y-57559201D01*
X73119828Y-57797508D01*
X73322492Y-58000172D01*
X73531759Y-58140000D01*
X73322492Y-58279828D01*
X73119828Y-58482492D01*
X72960596Y-58720799D01*
X72850915Y-58985592D01*
X72795000Y-59266695D01*
X72795000Y-59553305D01*
X72850915Y-59834408D01*
X72960596Y-60099201D01*
X73119828Y-60337508D01*
X73322492Y-60540172D01*
X73560799Y-60699404D01*
X73825592Y-60809085D01*
X74106695Y-60865000D01*
X74393305Y-60865000D01*
X74674408Y-60809085D01*
X74939201Y-60699404D01*
X75177508Y-60540172D01*
X75380172Y-60337508D01*
X75520000Y-60128241D01*
X75659828Y-60337508D01*
X75862492Y-60540172D01*
X76071759Y-60680000D01*
X75862492Y-60819828D01*
X75659828Y-61022492D01*
X75500596Y-61260799D01*
X75390915Y-61525592D01*
X75335000Y-61806695D01*
X75335000Y-62093305D01*
X75390915Y-62374408D01*
X75500596Y-62639201D01*
X75659828Y-62877508D01*
X75862492Y-63080172D01*
X76071759Y-63220000D01*
X75862492Y-63359828D01*
X75659828Y-63562492D01*
X75520000Y-63771759D01*
X75380172Y-63562492D01*
X75177508Y-63359828D01*
X74939201Y-63200596D01*
X74674408Y-63090915D01*
X74393305Y-63035000D01*
X74106695Y-63035000D01*
X73825592Y-63090915D01*
X73560799Y-63200596D01*
X73322492Y-63359828D01*
X73119828Y-63562492D01*
X72960596Y-63800799D01*
X72850915Y-64065592D01*
X72795000Y-64346695D01*
X72795000Y-64633305D01*
X72850915Y-64914408D01*
X72960596Y-65179201D01*
X73119828Y-65417508D01*
X73322492Y-65620172D01*
X73531759Y-65760000D01*
X73322492Y-65899828D01*
X73119828Y-66102492D01*
X72960596Y-66340799D01*
X72850915Y-66605592D01*
X72795000Y-66886695D01*
X72795000Y-67173305D01*
X72850915Y-67454408D01*
X72960596Y-67719201D01*
X73119828Y-67957508D01*
X73322492Y-68160172D01*
X73531759Y-68300000D01*
X73322492Y-68439828D01*
X73119828Y-68642492D01*
X72960596Y-68880799D01*
X72850915Y-69145592D01*
X72795000Y-69426695D01*
X72795000Y-69713305D01*
X72850915Y-69994408D01*
X72960596Y-70259201D01*
X73119828Y-70497508D01*
X73322492Y-70700172D01*
X73531759Y-70840000D01*
X73322492Y-70979828D01*
X73119828Y-71182492D01*
X72960596Y-71420799D01*
X72850915Y-71685592D01*
X72795000Y-71966695D01*
X72795000Y-72253305D01*
X72850915Y-72534408D01*
X72960596Y-72799201D01*
X73119828Y-73037508D01*
X73322492Y-73240172D01*
X73531759Y-73380000D01*
X73322492Y-73519828D01*
X73119828Y-73722492D01*
X72960596Y-73960799D01*
X72850915Y-74225592D01*
X72795000Y-74506695D01*
X72795000Y-74793305D01*
X72850915Y-75074408D01*
X72960596Y-75339201D01*
X73119828Y-75577508D01*
X73322492Y-75780172D01*
X73531759Y-75920000D01*
X73322492Y-76059828D01*
X73119828Y-76262492D01*
X72960596Y-76500799D01*
X72850915Y-76765592D01*
X72795000Y-77046695D01*
X72795000Y-77333305D01*
X72850915Y-77614408D01*
X72960596Y-77879201D01*
X73119828Y-78117508D01*
X73322492Y-78320172D01*
X73531759Y-78460000D01*
X73322492Y-78599828D01*
X73119828Y-78802492D01*
X72960596Y-79040799D01*
X72850915Y-79305592D01*
X72795000Y-79586695D01*
X72795000Y-79873305D01*
X72850915Y-80154408D01*
X72960596Y-80419201D01*
X73119828Y-80657508D01*
X73322492Y-80860172D01*
X73560799Y-81019404D01*
X73825592Y-81129085D01*
X74106695Y-81185000D01*
X74393305Y-81185000D01*
X74674408Y-81129085D01*
X74939201Y-81019404D01*
X75177508Y-80860172D01*
X75380172Y-80657508D01*
X75520000Y-80448241D01*
X75659828Y-80657508D01*
X75862492Y-80860172D01*
X76071759Y-81000000D01*
X75862492Y-81139828D01*
X75659828Y-81342492D01*
X75500596Y-81580799D01*
X75390915Y-81845592D01*
X75335000Y-82126695D01*
X75335000Y-82413305D01*
X75390915Y-82694408D01*
X75500596Y-82959201D01*
X75659828Y-83197508D01*
X75862492Y-83400172D01*
X76071759Y-83540000D01*
X75862492Y-83679828D01*
X75659828Y-83882492D01*
X75520000Y-84091759D01*
X75380172Y-83882492D01*
X75177508Y-83679828D01*
X74939201Y-83520596D01*
X74674408Y-83410915D01*
X74393305Y-83355000D01*
X74106695Y-83355000D01*
X73825592Y-83410915D01*
X73560799Y-83520596D01*
X73322492Y-83679828D01*
X73119828Y-83882492D01*
X72960596Y-84120799D01*
X72850915Y-84385592D01*
X72795000Y-84666695D01*
X72795000Y-84953305D01*
X72850915Y-85234408D01*
X72960596Y-85499201D01*
X73119828Y-85737508D01*
X73322492Y-85940172D01*
X73531759Y-86080000D01*
X73322492Y-86219828D01*
X73119828Y-86422492D01*
X72960596Y-86660799D01*
X72850915Y-86925592D01*
X72795000Y-87206695D01*
X72795000Y-87493305D01*
X72850915Y-87774408D01*
X72960596Y-88039201D01*
X73119828Y-88277508D01*
X73322492Y-88480172D01*
X73531759Y-88620000D01*
X73322492Y-88759828D01*
X73119828Y-88962492D01*
X72960596Y-89200799D01*
X72850915Y-89465592D01*
X72795000Y-89746695D01*
X72795000Y-90033305D01*
X72850915Y-90314408D01*
X72960596Y-90579201D01*
X73119828Y-90817508D01*
X73322492Y-91020172D01*
X73531759Y-91160000D01*
X73322492Y-91299828D01*
X73119828Y-91502492D01*
X72960596Y-91740799D01*
X72850915Y-92005592D01*
X72795000Y-92286695D01*
X72795000Y-92573305D01*
X72850915Y-92854408D01*
X72960596Y-93119201D01*
X73119828Y-93357508D01*
X73322492Y-93560172D01*
X73531759Y-93700000D01*
X73322492Y-93839828D01*
X73119828Y-94042492D01*
X72960596Y-94280799D01*
X72850915Y-94545592D01*
X72795000Y-94826695D01*
X72795000Y-95113305D01*
X72850915Y-95394408D01*
X72960596Y-95659201D01*
X73119828Y-95897508D01*
X73322492Y-96100172D01*
X73531759Y-96240000D01*
X73322492Y-96379828D01*
X73119828Y-96582492D01*
X72960596Y-96820799D01*
X72850915Y-97085592D01*
X72795000Y-97366695D01*
X72795000Y-97653305D01*
X72850915Y-97934408D01*
X72960596Y-98199201D01*
X73119828Y-98437508D01*
X73322492Y-98640172D01*
X73560799Y-98799404D01*
X73825592Y-98909085D01*
X74106695Y-98965000D01*
X74393305Y-98965000D01*
X74674408Y-98909085D01*
X74939201Y-98799404D01*
X75177508Y-98640172D01*
X75380172Y-98437508D01*
X75520000Y-98228241D01*
X75659828Y-98437508D01*
X75862492Y-98640172D01*
X76071759Y-98780000D01*
X75862492Y-98919828D01*
X75659828Y-99122492D01*
X75500596Y-99360799D01*
X75390915Y-99625592D01*
X75335000Y-99906695D01*
X75335000Y-100193305D01*
X75390915Y-100474408D01*
X75500596Y-100739201D01*
X75659828Y-100977508D01*
X75862492Y-101180172D01*
X76100799Y-101339404D01*
X76365592Y-101449085D01*
X76646695Y-101505000D01*
X76933305Y-101505000D01*
X77214408Y-101449085D01*
X77479201Y-101339404D01*
X77717508Y-101180172D01*
X77920172Y-100977508D01*
X78079404Y-100739201D01*
X78189085Y-100474408D01*
X78245000Y-100193305D01*
X78245000Y-99906695D01*
X78189085Y-99625592D01*
X78079404Y-99360799D01*
X77920172Y-99122492D01*
X77717508Y-98919828D01*
X77508241Y-98780000D01*
X77717508Y-98640172D01*
X77920172Y-98437508D01*
X78079404Y-98199201D01*
X78189085Y-97934408D01*
X78245000Y-97653305D01*
X78245000Y-97366695D01*
X78189085Y-97085592D01*
X78079404Y-96820799D01*
X77920172Y-96582492D01*
X77717508Y-96379828D01*
X77508241Y-96240000D01*
X77717508Y-96100172D01*
X77920172Y-95897508D01*
X78079404Y-95659201D01*
X78189085Y-95394408D01*
X78245000Y-95113305D01*
X78245000Y-94826695D01*
X78189085Y-94545592D01*
X78079404Y-94280799D01*
X77920172Y-94042492D01*
X77717508Y-93839828D01*
X77479201Y-93680596D01*
X77214408Y-93570915D01*
X76933305Y-93515000D01*
X76646695Y-93515000D01*
X76365592Y-93570915D01*
X76100799Y-93680596D01*
X75862492Y-93839828D01*
X75659828Y-94042492D01*
X75520000Y-94251759D01*
X75380172Y-94042492D01*
X75177508Y-93839828D01*
X74968241Y-93700000D01*
X75177508Y-93560172D01*
X75380172Y-93357508D01*
X75539404Y-93119201D01*
X75649085Y-92854408D01*
X75705000Y-92573305D01*
X75705000Y-92286695D01*
X75649085Y-92005592D01*
X75539404Y-91740799D01*
X75380172Y-91502492D01*
X75177508Y-91299828D01*
X74968241Y-91160000D01*
X75177508Y-91020172D01*
X75380172Y-90817508D01*
X75520000Y-90608241D01*
X75659828Y-90817508D01*
X75862492Y-91020172D01*
X76100799Y-91179404D01*
X76365592Y-91289085D01*
X76646695Y-91345000D01*
X76933305Y-91345000D01*
X77214408Y-91289085D01*
X77479201Y-91179404D01*
X77717508Y-91020172D01*
X77920172Y-90817508D01*
X78079404Y-90579201D01*
X78189085Y-90314408D01*
X78245000Y-90033305D01*
X78245000Y-89746695D01*
X78189085Y-89465592D01*
X78079404Y-89200799D01*
X77920172Y-88962492D01*
X77717508Y-88759828D01*
X77479201Y-88600596D01*
X77214408Y-88490915D01*
X76933305Y-88435000D01*
X76646695Y-88435000D01*
X76365592Y-88490915D01*
X76100799Y-88600596D01*
X75862492Y-88759828D01*
X75659828Y-88962492D01*
X75520000Y-89171759D01*
X75380172Y-88962492D01*
X75177508Y-88759828D01*
X74968241Y-88620000D01*
X75177508Y-88480172D01*
X75380172Y-88277508D01*
X75539404Y-88039201D01*
X75649085Y-87774408D01*
X75705000Y-87493305D01*
X75705000Y-87206695D01*
X75649085Y-86925592D01*
X75539404Y-86660799D01*
X75380172Y-86422492D01*
X75177508Y-86219828D01*
X74968241Y-86080000D01*
X75177508Y-85940172D01*
X75380172Y-85737508D01*
X75520000Y-85528241D01*
X75659828Y-85737508D01*
X75862492Y-85940172D01*
X76100799Y-86099404D01*
X76365592Y-86209085D01*
X76646695Y-86265000D01*
X76933305Y-86265000D01*
X77214408Y-86209085D01*
X77479201Y-86099404D01*
X77717508Y-85940172D01*
X77920172Y-85737508D01*
X78079404Y-85499201D01*
X78189085Y-85234408D01*
X78245000Y-84953305D01*
X78245000Y-84666695D01*
X78189085Y-84385592D01*
X78079404Y-84120799D01*
X77920172Y-83882492D01*
X77717508Y-83679828D01*
X77508241Y-83540000D01*
X77717508Y-83400172D01*
X77920172Y-83197508D01*
X78079404Y-82959201D01*
X78189085Y-82694408D01*
X78245000Y-82413305D01*
X78245000Y-82126695D01*
X78189085Y-81845592D01*
X78079404Y-81580799D01*
X77920172Y-81342492D01*
X77717508Y-81139828D01*
X77508241Y-81000000D01*
X77717508Y-80860172D01*
X77920172Y-80657508D01*
X78079404Y-80419201D01*
X78189085Y-80154408D01*
X78245000Y-79873305D01*
X78245000Y-79586695D01*
X78189085Y-79305592D01*
X78079404Y-79040799D01*
X77920172Y-78802492D01*
X77717508Y-78599828D01*
X77508241Y-78460000D01*
X77717508Y-78320172D01*
X77920172Y-78117508D01*
X78079404Y-77879201D01*
X78189085Y-77614408D01*
X78245000Y-77333305D01*
X78245000Y-77046695D01*
X78189085Y-76765592D01*
X78079404Y-76500799D01*
X77920172Y-76262492D01*
X77717508Y-76059828D01*
X77479201Y-75900596D01*
X77214408Y-75790915D01*
X76933305Y-75735000D01*
X76646695Y-75735000D01*
X76365592Y-75790915D01*
X76100799Y-75900596D01*
X75862492Y-76059828D01*
X75659828Y-76262492D01*
X75520000Y-76471759D01*
X75380172Y-76262492D01*
X75177508Y-76059828D01*
X74968241Y-75920000D01*
X75177508Y-75780172D01*
X75380172Y-75577508D01*
X75539404Y-75339201D01*
X75649085Y-75074408D01*
X75705000Y-74793305D01*
X75705000Y-74506695D01*
X75649085Y-74225592D01*
X75539404Y-73960799D01*
X75380172Y-73722492D01*
X75177508Y-73519828D01*
X74968241Y-73380000D01*
X75177508Y-73240172D01*
X75380172Y-73037508D01*
X75520000Y-72828241D01*
X75659828Y-73037508D01*
X75862492Y-73240172D01*
X76100799Y-73399404D01*
X76365592Y-73509085D01*
X76646695Y-73565000D01*
X76933305Y-73565000D01*
X77214408Y-73509085D01*
X77479201Y-73399404D01*
X77717508Y-73240172D01*
X77920172Y-73037508D01*
X78079404Y-72799201D01*
X78189085Y-72534408D01*
X78245000Y-72253305D01*
X78245000Y-71966695D01*
X78189085Y-71685592D01*
X78079404Y-71420799D01*
X77920172Y-71182492D01*
X77717508Y-70979828D01*
X77508241Y-70840000D01*
X77717508Y-70700172D01*
X77920172Y-70497508D01*
X78079404Y-70259201D01*
X78189085Y-69994408D01*
X78245000Y-69713305D01*
X78245000Y-69426695D01*
X78189085Y-69145592D01*
X78079404Y-68880799D01*
X77920172Y-68642492D01*
X77717508Y-68439828D01*
X77479201Y-68280596D01*
X77214408Y-68170915D01*
X76933305Y-68115000D01*
X76646695Y-68115000D01*
X76365592Y-68170915D01*
X76100799Y-68280596D01*
X75862492Y-68439828D01*
X75659828Y-68642492D01*
X75520000Y-68851759D01*
X75380172Y-68642492D01*
X75177508Y-68439828D01*
X74968241Y-68300000D01*
X75177508Y-68160172D01*
X75380172Y-67957508D01*
X75539404Y-67719201D01*
X75649085Y-67454408D01*
X75705000Y-67173305D01*
X75705000Y-66886695D01*
X75649085Y-66605592D01*
X75539404Y-66340799D01*
X75380172Y-66102492D01*
X75177508Y-65899828D01*
X74968241Y-65760000D01*
X75177508Y-65620172D01*
X75380172Y-65417508D01*
X75520000Y-65208241D01*
X75659828Y-65417508D01*
X75862492Y-65620172D01*
X76100799Y-65779404D01*
X76365592Y-65889085D01*
X76646695Y-65945000D01*
X76933305Y-65945000D01*
X77214408Y-65889085D01*
X77479201Y-65779404D01*
X77717508Y-65620172D01*
X77920172Y-65417508D01*
X78079404Y-65179201D01*
X78189085Y-64914408D01*
X78245000Y-64633305D01*
X78245000Y-64346695D01*
X78189085Y-64065592D01*
X78079404Y-63800799D01*
X77920172Y-63562492D01*
X77717508Y-63359828D01*
X77508241Y-63220000D01*
X77717508Y-63080172D01*
X77920172Y-62877508D01*
X78079404Y-62639201D01*
X78189085Y-62374408D01*
X78245000Y-62093305D01*
X78245000Y-61806695D01*
X78189085Y-61525592D01*
X78079404Y-61260799D01*
X77920172Y-61022492D01*
X77717508Y-60819828D01*
X77508241Y-60680000D01*
X77717508Y-60540172D01*
X77920172Y-60337508D01*
X78079404Y-60099201D01*
X78189085Y-59834408D01*
X78245000Y-59553305D01*
X78245000Y-59266695D01*
X78189085Y-58985592D01*
X78079404Y-58720799D01*
X77920172Y-58482492D01*
X77717508Y-58279828D01*
X77479201Y-58120596D01*
X77214408Y-58010915D01*
X76933305Y-57955000D01*
X76646695Y-57955000D01*
X76365592Y-58010915D01*
X76100799Y-58120596D01*
X75862492Y-58279828D01*
X75659828Y-58482492D01*
X75520000Y-58691759D01*
X75380172Y-58482492D01*
X75177508Y-58279828D01*
X74968241Y-58140000D01*
X75177508Y-58000172D01*
X75380172Y-57797508D01*
X75539404Y-57559201D01*
X75649085Y-57294408D01*
X75705000Y-57013305D01*
X75705000Y-56726695D01*
X75649085Y-56445592D01*
X75539404Y-56180799D01*
X75380172Y-55942492D01*
X75177508Y-55739828D01*
X74968241Y-55600000D01*
X75177508Y-55460172D01*
X75380172Y-55257508D01*
X75520000Y-55048241D01*
X75659828Y-55257508D01*
X75862492Y-55460172D01*
X76100799Y-55619404D01*
X76365592Y-55729085D01*
X76646695Y-55785000D01*
X76933305Y-55785000D01*
X77214408Y-55729085D01*
X77479201Y-55619404D01*
X77717508Y-55460172D01*
X77920172Y-55257508D01*
X78079404Y-55019201D01*
X78189085Y-54754408D01*
X78245000Y-54473305D01*
X78245000Y-54186695D01*
X78189085Y-53905592D01*
X78079404Y-53640799D01*
X77920172Y-53402492D01*
X77717508Y-53199828D01*
X77508241Y-53060000D01*
X77717508Y-52920172D01*
X77920172Y-52717508D01*
X78079404Y-52479201D01*
X78189085Y-52214408D01*
X78245000Y-51933305D01*
X78245000Y-51646695D01*
X78189085Y-51365592D01*
X78079404Y-51100799D01*
X77920172Y-50862492D01*
X77717508Y-50659828D01*
X77479201Y-50500596D01*
X77214408Y-50390915D01*
X76933305Y-50335000D01*
X76646695Y-50335000D01*
X76365592Y-50390915D01*
X76100799Y-50500596D01*
X75862492Y-50659828D01*
X75691388Y-50830932D01*
X75659502Y-50725820D01*
X75600537Y-50615506D01*
X75521185Y-50518815D01*
X75424494Y-50439463D01*
X75314180Y-50380498D01*
X75194482Y-50344188D01*
X75070000Y-50331928D01*
X73430000Y-50331928D01*
X73305518Y-50344188D01*
X73185820Y-50380498D01*
X73075506Y-50439463D01*
X72978815Y-50518815D01*
X72899463Y-50615506D01*
X72840498Y-50725820D01*
X72804188Y-50845518D01*
X72791928Y-50970000D01*
X23560928Y-50970000D01*
X23560999Y-46922090D01*
X23573854Y-46790976D01*
X25210000Y-46790976D01*
X25210000Y-47049024D01*
X25260342Y-47302113D01*
X25359093Y-47540518D01*
X25502456Y-47755077D01*
X25684923Y-47937544D01*
X25899482Y-48080907D01*
X26137887Y-48179658D01*
X26390976Y-48230000D01*
X26649024Y-48230000D01*
X26902113Y-48179658D01*
X27140518Y-48080907D01*
X27355077Y-47937544D01*
X27537544Y-47755077D01*
X27680907Y-47540518D01*
X27779658Y-47302113D01*
X27830000Y-47049024D01*
X27830000Y-46790976D01*
X74210000Y-46790976D01*
X74210000Y-47049024D01*
X74260342Y-47302113D01*
X74359093Y-47540518D01*
X74502456Y-47755077D01*
X74684923Y-47937544D01*
X74899482Y-48080907D01*
X75137887Y-48179658D01*
X75390976Y-48230000D01*
X75649024Y-48230000D01*
X75902113Y-48179658D01*
X76140518Y-48080907D01*
X76355077Y-47937544D01*
X76537544Y-47755077D01*
X76680907Y-47540518D01*
X76779658Y-47302113D01*
X76830000Y-47049024D01*
X76830000Y-46790976D01*
X76779658Y-46537887D01*
X76680907Y-46299482D01*
X76537544Y-46084923D01*
X76355077Y-45902456D01*
X76140518Y-45759093D01*
X75902113Y-45660342D01*
X75649024Y-45610000D01*
X75390976Y-45610000D01*
X75137887Y-45660342D01*
X74899482Y-45759093D01*
X74684923Y-45902456D01*
X74502456Y-46084923D01*
X74359093Y-46299482D01*
X74260342Y-46537887D01*
X74210000Y-46790976D01*
X27830000Y-46790976D01*
X27779658Y-46537887D01*
X27680907Y-46299482D01*
X27537544Y-46084923D01*
X27355077Y-45902456D01*
X27140518Y-45759093D01*
X26902113Y-45660342D01*
X26649024Y-45610000D01*
X26390976Y-45610000D01*
X26137887Y-45660342D01*
X25899482Y-45759093D01*
X25684923Y-45902456D01*
X25502456Y-46084923D01*
X25359093Y-46299482D01*
X25260342Y-46537887D01*
X25210000Y-46790976D01*
X23573854Y-46790976D01*
X23617192Y-46348990D01*
X23777216Y-45818964D01*
X24037140Y-45330121D01*
X24387065Y-44901069D01*
X24813664Y-44548156D01*
X25300681Y-44284827D01*
X25829578Y-44121106D01*
X26410960Y-44060000D01*
X76567721Y-44060000D01*
X77151010Y-44117192D01*
G36*
X57181219Y-95011928D02*
G01*
X55950000Y-95011928D01*
X55825518Y-95024188D01*
X55705820Y-95060498D01*
X55595506Y-95119463D01*
X55498815Y-95198815D01*
X55419463Y-95295506D01*
X55360498Y-95405820D01*
X55324188Y-95525518D01*
X55311928Y-95650000D01*
X55311928Y-97350000D01*
X55324188Y-97474482D01*
X55360498Y-97594180D01*
X55419463Y-97704494D01*
X55498815Y-97801185D01*
X55595506Y-97880537D01*
X55705820Y-97939502D01*
X55778380Y-97961513D01*
X55646525Y-98093368D01*
X55484010Y-98336589D01*
X55372068Y-98606842D01*
X55315000Y-98893740D01*
X55315000Y-99186260D01*
X55372068Y-99473158D01*
X55484010Y-99743411D01*
X55646525Y-99986632D01*
X55853368Y-100193475D01*
X56027760Y-100310000D01*
X55853368Y-100426525D01*
X55646525Y-100633368D01*
X55484010Y-100876589D01*
X55372068Y-101146842D01*
X55315000Y-101433740D01*
X55315000Y-101726260D01*
X55372068Y-102013158D01*
X55484010Y-102283411D01*
X55646525Y-102526632D01*
X55853368Y-102733475D01*
X56027760Y-102850000D01*
X55853368Y-102966525D01*
X55646525Y-103173368D01*
X55484010Y-103416589D01*
X55372068Y-103686842D01*
X55315000Y-103973740D01*
X55315000Y-104266260D01*
X55372068Y-104553158D01*
X55484010Y-104823411D01*
X55646525Y-105066632D01*
X55853368Y-105273475D01*
X56027760Y-105390000D01*
X55853368Y-105506525D01*
X55646525Y-105713368D01*
X55484010Y-105956589D01*
X55372068Y-106226842D01*
X55315000Y-106513740D01*
X55315000Y-106806260D01*
X55372068Y-107093158D01*
X55484010Y-107363411D01*
X55646525Y-107606632D01*
X55779893Y-107740000D01*
X54220107Y-107740000D01*
X54353475Y-107606632D01*
X54515990Y-107363411D01*
X54627932Y-107093158D01*
X54685000Y-106806260D01*
X54685000Y-106513740D01*
X54627932Y-106226842D01*
X54515990Y-105956589D01*
X54353475Y-105713368D01*
X54146632Y-105506525D01*
X53972240Y-105390000D01*
X54146632Y-105273475D01*
X54353475Y-105066632D01*
X54515990Y-104823411D01*
X54627932Y-104553158D01*
X54685000Y-104266260D01*
X54685000Y-103973740D01*
X54627932Y-103686842D01*
X54515990Y-103416589D01*
X54353475Y-103173368D01*
X54146632Y-102966525D01*
X53972240Y-102850000D01*
X54146632Y-102733475D01*
X54353475Y-102526632D01*
X54515990Y-102283411D01*
X54627932Y-102013158D01*
X54685000Y-101726260D01*
X54685000Y-101433740D01*
X54627932Y-101146842D01*
X54515990Y-100876589D01*
X54353475Y-100633368D01*
X54146632Y-100426525D01*
X53972240Y-100310000D01*
X54146632Y-100193475D01*
X54353475Y-99986632D01*
X54515990Y-99743411D01*
X54627932Y-99473158D01*
X54685000Y-99186260D01*
X54685000Y-98893740D01*
X54627932Y-98606842D01*
X54515990Y-98336589D01*
X54353475Y-98093368D01*
X54221620Y-97961513D01*
X54294180Y-97939502D01*
X54404494Y-97880537D01*
X54501185Y-97801185D01*
X54580537Y-97704494D01*
X54639502Y-97594180D01*
X54675812Y-97474482D01*
X54688072Y-97350000D01*
X54688072Y-95650000D01*
X54675812Y-95525518D01*
X54639502Y-95405820D01*
X54580537Y-95295506D01*
X54501185Y-95198815D01*
X54404494Y-95119463D01*
X54294180Y-95060498D01*
X54174482Y-95024188D01*
X54050000Y-95011928D01*
X52350000Y-95011928D01*
X52225518Y-95024188D01*
X52105820Y-95060498D01*
X51995506Y-95119463D01*
X51898815Y-95198815D01*
X51819463Y-95295506D01*
X51760498Y-95405820D01*
X51724188Y-95525518D01*
X51711928Y-95650000D01*
X51711928Y-97350000D01*
X51724188Y-97474482D01*
X51760498Y-97594180D01*
X51819463Y-97704494D01*
X51898815Y-97801185D01*
X51995506Y-97880537D01*
X52105820Y-97939502D01*
X52178380Y-97961513D01*
X52046525Y-98093368D01*
X51884010Y-98336589D01*
X51772068Y-98606842D01*
X51715000Y-98893740D01*
X51715000Y-99186260D01*
X51772068Y-99473158D01*
X51884010Y-99743411D01*
X52046525Y-99986632D01*
X52253368Y-100193475D01*
X52427760Y-100310000D01*
X52253368Y-100426525D01*
X52046525Y-100633368D01*
X51884010Y-100876589D01*
X51772068Y-101146842D01*
X51715000Y-101433740D01*
X51715000Y-101726260D01*
X51772068Y-102013158D01*
X51884010Y-102283411D01*
X52046525Y-102526632D01*
X52253368Y-102733475D01*
X52427760Y-102850000D01*
X52253368Y-102966525D01*
X52046525Y-103173368D01*
X51884010Y-103416589D01*
X51772068Y-103686842D01*
X51715000Y-103973740D01*
X51715000Y-104266260D01*
X51772068Y-104553158D01*
X51884010Y-104823411D01*
X52046525Y-105066632D01*
X52253368Y-105273475D01*
X52427760Y-105390000D01*
X52253368Y-105506525D01*
X52046525Y-105713368D01*
X51884010Y-105956589D01*
X51772068Y-106226842D01*
X51715000Y-106513740D01*
X51715000Y-106806260D01*
X51772068Y-107093158D01*
X51884010Y-107363411D01*
X52046525Y-107606632D01*
X52179893Y-107740000D01*
X44228651Y-107740000D01*
X44234368Y-105453299D01*
X44393740Y-105485000D01*
X44686260Y-105485000D01*
X44973158Y-105427932D01*
X45243411Y-105315990D01*
X45486632Y-105153475D01*
X45693475Y-104946632D01*
X45810000Y-104772240D01*
X45926525Y-104946632D01*
X46133368Y-105153475D01*
X46376589Y-105315990D01*
X46646842Y-105427932D01*
X46933740Y-105485000D01*
X47226260Y-105485000D01*
X47513158Y-105427932D01*
X47783411Y-105315990D01*
X48026632Y-105153475D01*
X48233475Y-104946632D01*
X48350000Y-104772240D01*
X48466525Y-104946632D01*
X48673368Y-105153475D01*
X48916589Y-105315990D01*
X49186842Y-105427932D01*
X49473740Y-105485000D01*
X49766260Y-105485000D01*
X50053158Y-105427932D01*
X50323411Y-105315990D01*
X50566632Y-105153475D01*
X50773475Y-104946632D01*
X50935990Y-104703411D01*
X51047932Y-104433158D01*
X51105000Y-104146260D01*
X51105000Y-103853740D01*
X51047932Y-103566842D01*
X50935990Y-103296589D01*
X50773475Y-103053368D01*
X50566632Y-102846525D01*
X50323411Y-102684010D01*
X50053158Y-102572068D01*
X49766260Y-102515000D01*
X49473740Y-102515000D01*
X49186842Y-102572068D01*
X48916589Y-102684010D01*
X48673368Y-102846525D01*
X48466525Y-103053368D01*
X48350000Y-103227760D01*
X48233475Y-103053368D01*
X48026632Y-102846525D01*
X47783411Y-102684010D01*
X47513158Y-102572068D01*
X47226260Y-102515000D01*
X46933740Y-102515000D01*
X46646842Y-102572068D01*
X46376589Y-102684010D01*
X46133368Y-102846525D01*
X45926525Y-103053368D01*
X45810000Y-103227760D01*
X45693475Y-103053368D01*
X45486632Y-102846525D01*
X45243411Y-102684010D01*
X44973158Y-102572068D01*
X44686260Y-102515000D01*
X44393740Y-102515000D01*
X44241638Y-102545255D01*
X44262505Y-94198291D01*
X49605380Y-94198291D01*
X49605380Y-94382469D01*
X49641312Y-94563109D01*
X49711794Y-94733269D01*
X49814118Y-94886408D01*
X49944352Y-95016642D01*
X50097491Y-95118966D01*
X50267651Y-95189448D01*
X50448291Y-95225380D01*
X50632469Y-95225380D01*
X50813109Y-95189448D01*
X50983269Y-95118966D01*
X51136408Y-95016642D01*
X51266642Y-94886408D01*
X51368966Y-94733269D01*
X51439448Y-94563109D01*
X51475380Y-94382469D01*
X51475380Y-94198291D01*
X51439448Y-94017651D01*
X51368966Y-93847491D01*
X51266642Y-93694352D01*
X51136408Y-93564118D01*
X50983269Y-93461794D01*
X50813109Y-93391312D01*
X50632469Y-93355380D01*
X50448291Y-93355380D01*
X50267651Y-93391312D01*
X50097491Y-93461794D01*
X49944352Y-93564118D01*
X49814118Y-93694352D01*
X49711794Y-93847491D01*
X49641312Y-94017651D01*
X49605380Y-94198291D01*
X44262505Y-94198291D01*
X44265515Y-92994448D01*
X44469388Y-93035001D01*
X44732360Y-93035001D01*
X44990279Y-92983697D01*
X45233233Y-92883062D01*
X45451887Y-92736963D01*
X45637836Y-92551014D01*
X45783935Y-92332360D01*
X45884570Y-92089406D01*
X45935874Y-91831487D01*
X45935874Y-91568515D01*
X45884570Y-91310596D01*
X45783935Y-91067642D01*
X45637836Y-90848988D01*
X45451887Y-90663039D01*
X45369384Y-90607912D01*
X54965874Y-90607912D01*
X54965874Y-90792090D01*
X55001806Y-90972730D01*
X55072288Y-91142890D01*
X55174612Y-91296029D01*
X55304846Y-91426263D01*
X55457985Y-91528587D01*
X55628145Y-91599069D01*
X55808785Y-91635001D01*
X55992963Y-91635001D01*
X56173603Y-91599069D01*
X56343763Y-91528587D01*
X56496902Y-91426263D01*
X56627136Y-91296029D01*
X56729460Y-91142890D01*
X56799942Y-90972730D01*
X56835874Y-90792090D01*
X56835874Y-90607912D01*
X56799942Y-90427272D01*
X56729460Y-90257112D01*
X56627136Y-90103973D01*
X56496902Y-89973739D01*
X56343763Y-89871415D01*
X56173603Y-89800933D01*
X55992963Y-89765001D01*
X55808785Y-89765001D01*
X55628145Y-89800933D01*
X55457985Y-89871415D01*
X55304846Y-89973739D01*
X55174612Y-90103973D01*
X55072288Y-90257112D01*
X55001806Y-90427272D01*
X54965874Y-90607912D01*
X45369384Y-90607912D01*
X45233233Y-90516940D01*
X44990279Y-90416305D01*
X44732360Y-90365001D01*
X44469388Y-90365001D01*
X44271990Y-90404266D01*
X44276686Y-88526042D01*
X57197679Y-88427970D01*
X57181219Y-95011928D01*
G37*
X57181219Y-95011928D02*
X55950000Y-95011928D01*
X55825518Y-95024188D01*
X55705820Y-95060498D01*
X55595506Y-95119463D01*
X55498815Y-95198815D01*
X55419463Y-95295506D01*
X55360498Y-95405820D01*
X55324188Y-95525518D01*
X55311928Y-95650000D01*
X55311928Y-97350000D01*
X55324188Y-97474482D01*
X55360498Y-97594180D01*
X55419463Y-97704494D01*
X55498815Y-97801185D01*
X55595506Y-97880537D01*
X55705820Y-97939502D01*
X55778380Y-97961513D01*
X55646525Y-98093368D01*
X55484010Y-98336589D01*
X55372068Y-98606842D01*
X55315000Y-98893740D01*
X55315000Y-99186260D01*
X55372068Y-99473158D01*
X55484010Y-99743411D01*
X55646525Y-99986632D01*
X55853368Y-100193475D01*
X56027760Y-100310000D01*
X55853368Y-100426525D01*
X55646525Y-100633368D01*
X55484010Y-100876589D01*
X55372068Y-101146842D01*
X55315000Y-101433740D01*
X55315000Y-101726260D01*
X55372068Y-102013158D01*
X55484010Y-102283411D01*
X55646525Y-102526632D01*
X55853368Y-102733475D01*
X56027760Y-102850000D01*
X55853368Y-102966525D01*
X55646525Y-103173368D01*
X55484010Y-103416589D01*
X55372068Y-103686842D01*
X55315000Y-103973740D01*
X55315000Y-104266260D01*
X55372068Y-104553158D01*
X55484010Y-104823411D01*
X55646525Y-105066632D01*
X55853368Y-105273475D01*
X56027760Y-105390000D01*
X55853368Y-105506525D01*
X55646525Y-105713368D01*
X55484010Y-105956589D01*
X55372068Y-106226842D01*
X55315000Y-106513740D01*
X55315000Y-106806260D01*
X55372068Y-107093158D01*
X55484010Y-107363411D01*
X55646525Y-107606632D01*
X55779893Y-107740000D01*
X54220107Y-107740000D01*
X54353475Y-107606632D01*
X54515990Y-107363411D01*
X54627932Y-107093158D01*
X54685000Y-106806260D01*
X54685000Y-106513740D01*
X54627932Y-106226842D01*
X54515990Y-105956589D01*
X54353475Y-105713368D01*
X54146632Y-105506525D01*
X53972240Y-105390000D01*
X54146632Y-105273475D01*
X54353475Y-105066632D01*
X54515990Y-104823411D01*
X54627932Y-104553158D01*
X54685000Y-104266260D01*
X54685000Y-103973740D01*
X54627932Y-103686842D01*
X54515990Y-103416589D01*
X54353475Y-103173368D01*
X54146632Y-102966525D01*
X53972240Y-102850000D01*
X54146632Y-102733475D01*
X54353475Y-102526632D01*
X54515990Y-102283411D01*
X54627932Y-102013158D01*
X54685000Y-101726260D01*
X54685000Y-101433740D01*
X54627932Y-101146842D01*
X54515990Y-100876589D01*
X54353475Y-100633368D01*
X54146632Y-100426525D01*
X53972240Y-100310000D01*
X54146632Y-100193475D01*
X54353475Y-99986632D01*
X54515990Y-99743411D01*
X54627932Y-99473158D01*
X54685000Y-99186260D01*
X54685000Y-98893740D01*
X54627932Y-98606842D01*
X54515990Y-98336589D01*
X54353475Y-98093368D01*
X54221620Y-97961513D01*
X54294180Y-97939502D01*
X54404494Y-97880537D01*
X54501185Y-97801185D01*
X54580537Y-97704494D01*
X54639502Y-97594180D01*
X54675812Y-97474482D01*
X54688072Y-97350000D01*
X54688072Y-95650000D01*
X54675812Y-95525518D01*
X54639502Y-95405820D01*
X54580537Y-95295506D01*
X54501185Y-95198815D01*
X54404494Y-95119463D01*
X54294180Y-95060498D01*
X54174482Y-95024188D01*
X54050000Y-95011928D01*
X52350000Y-95011928D01*
X52225518Y-95024188D01*
X52105820Y-95060498D01*
X51995506Y-95119463D01*
X51898815Y-95198815D01*
X51819463Y-95295506D01*
X51760498Y-95405820D01*
X51724188Y-95525518D01*
X51711928Y-95650000D01*
X51711928Y-97350000D01*
X51724188Y-97474482D01*
X51760498Y-97594180D01*
X51819463Y-97704494D01*
X51898815Y-97801185D01*
X51995506Y-97880537D01*
X52105820Y-97939502D01*
X52178380Y-97961513D01*
X52046525Y-98093368D01*
X51884010Y-98336589D01*
X51772068Y-98606842D01*
X51715000Y-98893740D01*
X51715000Y-99186260D01*
X51772068Y-99473158D01*
X51884010Y-99743411D01*
X52046525Y-99986632D01*
X52253368Y-100193475D01*
X52427760Y-100310000D01*
X52253368Y-100426525D01*
X52046525Y-100633368D01*
X51884010Y-100876589D01*
X51772068Y-101146842D01*
X51715000Y-101433740D01*
X51715000Y-101726260D01*
X51772068Y-102013158D01*
X51884010Y-102283411D01*
X52046525Y-102526632D01*
X52253368Y-102733475D01*
X52427760Y-102850000D01*
X52253368Y-102966525D01*
X52046525Y-103173368D01*
X51884010Y-103416589D01*
X51772068Y-103686842D01*
X51715000Y-103973740D01*
X51715000Y-104266260D01*
X51772068Y-104553158D01*
X51884010Y-104823411D01*
X52046525Y-105066632D01*
X52253368Y-105273475D01*
X52427760Y-105390000D01*
X52253368Y-105506525D01*
X52046525Y-105713368D01*
X51884010Y-105956589D01*
X51772068Y-106226842D01*
X51715000Y-106513740D01*
X51715000Y-106806260D01*
X51772068Y-107093158D01*
X51884010Y-107363411D01*
X52046525Y-107606632D01*
X52179893Y-107740000D01*
X44228651Y-107740000D01*
X44234368Y-105453299D01*
X44393740Y-105485000D01*
X44686260Y-105485000D01*
X44973158Y-105427932D01*
X45243411Y-105315990D01*
X45486632Y-105153475D01*
X45693475Y-104946632D01*
X45810000Y-104772240D01*
X45926525Y-104946632D01*
X46133368Y-105153475D01*
X46376589Y-105315990D01*
X46646842Y-105427932D01*
X46933740Y-105485000D01*
X47226260Y-105485000D01*
X47513158Y-105427932D01*
X47783411Y-105315990D01*
X48026632Y-105153475D01*
X48233475Y-104946632D01*
X48350000Y-104772240D01*
X48466525Y-104946632D01*
X48673368Y-105153475D01*
X48916589Y-105315990D01*
X49186842Y-105427932D01*
X49473740Y-105485000D01*
X49766260Y-105485000D01*
X50053158Y-105427932D01*
X50323411Y-105315990D01*
X50566632Y-105153475D01*
X50773475Y-104946632D01*
X50935990Y-104703411D01*
X51047932Y-104433158D01*
X51105000Y-104146260D01*
X51105000Y-103853740D01*
X51047932Y-103566842D01*
X50935990Y-103296589D01*
X50773475Y-103053368D01*
X50566632Y-102846525D01*
X50323411Y-102684010D01*
X50053158Y-102572068D01*
X49766260Y-102515000D01*
X49473740Y-102515000D01*
X49186842Y-102572068D01*
X48916589Y-102684010D01*
X48673368Y-102846525D01*
X48466525Y-103053368D01*
X48350000Y-103227760D01*
X48233475Y-103053368D01*
X48026632Y-102846525D01*
X47783411Y-102684010D01*
X47513158Y-102572068D01*
X47226260Y-102515000D01*
X46933740Y-102515000D01*
X46646842Y-102572068D01*
X46376589Y-102684010D01*
X46133368Y-102846525D01*
X45926525Y-103053368D01*
X45810000Y-103227760D01*
X45693475Y-103053368D01*
X45486632Y-102846525D01*
X45243411Y-102684010D01*
X44973158Y-102572068D01*
X44686260Y-102515000D01*
X44393740Y-102515000D01*
X44241638Y-102545255D01*
X44262505Y-94198291D01*
X49605380Y-94198291D01*
X49605380Y-94382469D01*
X49641312Y-94563109D01*
X49711794Y-94733269D01*
X49814118Y-94886408D01*
X49944352Y-95016642D01*
X50097491Y-95118966D01*
X50267651Y-95189448D01*
X50448291Y-95225380D01*
X50632469Y-95225380D01*
X50813109Y-95189448D01*
X50983269Y-95118966D01*
X51136408Y-95016642D01*
X51266642Y-94886408D01*
X51368966Y-94733269D01*
X51439448Y-94563109D01*
X51475380Y-94382469D01*
X51475380Y-94198291D01*
X51439448Y-94017651D01*
X51368966Y-93847491D01*
X51266642Y-93694352D01*
X51136408Y-93564118D01*
X50983269Y-93461794D01*
X50813109Y-93391312D01*
X50632469Y-93355380D01*
X50448291Y-93355380D01*
X50267651Y-93391312D01*
X50097491Y-93461794D01*
X49944352Y-93564118D01*
X49814118Y-93694352D01*
X49711794Y-93847491D01*
X49641312Y-94017651D01*
X49605380Y-94198291D01*
X44262505Y-94198291D01*
X44265515Y-92994448D01*
X44469388Y-93035001D01*
X44732360Y-93035001D01*
X44990279Y-92983697D01*
X45233233Y-92883062D01*
X45451887Y-92736963D01*
X45637836Y-92551014D01*
X45783935Y-92332360D01*
X45884570Y-92089406D01*
X45935874Y-91831487D01*
X45935874Y-91568515D01*
X45884570Y-91310596D01*
X45783935Y-91067642D01*
X45637836Y-90848988D01*
X45451887Y-90663039D01*
X45369384Y-90607912D01*
X54965874Y-90607912D01*
X54965874Y-90792090D01*
X55001806Y-90972730D01*
X55072288Y-91142890D01*
X55174612Y-91296029D01*
X55304846Y-91426263D01*
X55457985Y-91528587D01*
X55628145Y-91599069D01*
X55808785Y-91635001D01*
X55992963Y-91635001D01*
X56173603Y-91599069D01*
X56343763Y-91528587D01*
X56496902Y-91426263D01*
X56627136Y-91296029D01*
X56729460Y-91142890D01*
X56799942Y-90972730D01*
X56835874Y-90792090D01*
X56835874Y-90607912D01*
X56799942Y-90427272D01*
X56729460Y-90257112D01*
X56627136Y-90103973D01*
X56496902Y-89973739D01*
X56343763Y-89871415D01*
X56173603Y-89800933D01*
X55992963Y-89765001D01*
X55808785Y-89765001D01*
X55628145Y-89800933D01*
X55457985Y-89871415D01*
X55304846Y-89973739D01*
X55174612Y-90103973D01*
X55072288Y-90257112D01*
X55001806Y-90427272D01*
X54965874Y-90607912D01*
X45369384Y-90607912D01*
X45233233Y-90516940D01*
X44990279Y-90416305D01*
X44732360Y-90365001D01*
X44469388Y-90365001D01*
X44271990Y-90404266D01*
X44276686Y-88526042D01*
X57197679Y-88427970D01*
X57181219Y-95011928D01*
%TD*%
M02*
