%TF.GenerationSoftware,KiCad,Pcbnew,5.1.5+dfsg1-2build2*%
%TF.CreationDate,2021-10-16T11:12:39+01:00*%
%TF.ProjectId,bluePillG,626c7565-5069-46c6-9c47-2e6b69636164,rev?*%
%TF.SameCoordinates,Original*%
%TF.FileFunction,Legend,Top*%
%TF.FilePolarity,Positive*%
%FSLAX46Y46*%
G04 Gerber Fmt 4.6, Leading zero omitted, Abs format (unit mm)*
G04 Created by KiCad (PCBNEW 5.1.5+dfsg1-2build2) date 2021-10-16 11:12:39*
%MOMM*%
%LPD*%
G04 APERTURE LIST*
%ADD10C,0.150000*%
%ADD11C,0.120000*%
%ADD12C,0.010000*%
%ADD13C,0.254000*%
%ADD14C,0.200000*%
%ADD15C,0.100000*%
%ADD16C,0.152400*%
%ADD17C,0.203200*%
%ADD18C,0.066040*%
%ADD19C,0.127000*%
G04 APERTURE END LIST*
D10*
X31746826Y-46347024D02*
X31323493Y-45742262D01*
X31021112Y-46347024D02*
X31021112Y-45077024D01*
X31504921Y-45077024D01*
X31625874Y-45137501D01*
X31686350Y-45197977D01*
X31746826Y-45318929D01*
X31746826Y-45500358D01*
X31686350Y-45621310D01*
X31625874Y-45681786D01*
X31504921Y-45742262D01*
X31021112Y-45742262D01*
X32472540Y-46347024D02*
X32351588Y-46286548D01*
X32291112Y-46226072D01*
X32230635Y-46105120D01*
X32230635Y-45742262D01*
X32291112Y-45621310D01*
X32351588Y-45560834D01*
X32472540Y-45500358D01*
X32653969Y-45500358D01*
X32774921Y-45560834D01*
X32835397Y-45621310D01*
X32895874Y-45742262D01*
X32895874Y-46105120D01*
X32835397Y-46226072D01*
X32774921Y-46286548D01*
X32653969Y-46347024D01*
X32472540Y-46347024D01*
X33440159Y-46347024D02*
X33440159Y-45077024D01*
X33440159Y-45560834D02*
X33561112Y-45500358D01*
X33803016Y-45500358D01*
X33923969Y-45560834D01*
X33984445Y-45621310D01*
X34044921Y-45742262D01*
X34044921Y-46105120D01*
X33984445Y-46226072D01*
X33923969Y-46286548D01*
X33803016Y-46347024D01*
X33561112Y-46347024D01*
X33440159Y-46286548D01*
X34770635Y-46347024D02*
X34649683Y-46286548D01*
X34589207Y-46226072D01*
X34528731Y-46105120D01*
X34528731Y-45742262D01*
X34589207Y-45621310D01*
X34649683Y-45560834D01*
X34770635Y-45500358D01*
X34952064Y-45500358D01*
X35073016Y-45560834D01*
X35133493Y-45621310D01*
X35193969Y-45742262D01*
X35193969Y-46105120D01*
X35133493Y-46226072D01*
X35073016Y-46286548D01*
X34952064Y-46347024D01*
X34770635Y-46347024D01*
X35677778Y-46286548D02*
X35859207Y-46347024D01*
X36161588Y-46347024D01*
X36282540Y-46286548D01*
X36343016Y-46226072D01*
X36403493Y-46105120D01*
X36403493Y-45984167D01*
X36343016Y-45863215D01*
X36282540Y-45802739D01*
X36161588Y-45742262D01*
X35919683Y-45681786D01*
X35798731Y-45621310D01*
X35738254Y-45560834D01*
X35677778Y-45439881D01*
X35677778Y-45318929D01*
X35738254Y-45197977D01*
X35798731Y-45137501D01*
X35919683Y-45077024D01*
X36222064Y-45077024D01*
X36403493Y-45137501D01*
X37129207Y-46347024D02*
X37008254Y-46286548D01*
X36947778Y-46226072D01*
X36887302Y-46105120D01*
X36887302Y-45742262D01*
X36947778Y-45621310D01*
X37008254Y-45560834D01*
X37129207Y-45500358D01*
X37310635Y-45500358D01*
X37431588Y-45560834D01*
X37492064Y-45621310D01*
X37552540Y-45742262D01*
X37552540Y-46105120D01*
X37492064Y-46226072D01*
X37431588Y-46286548D01*
X37310635Y-46347024D01*
X37129207Y-46347024D01*
X38641112Y-46286548D02*
X38520159Y-46347024D01*
X38278254Y-46347024D01*
X38157302Y-46286548D01*
X38096826Y-46226072D01*
X38036350Y-46105120D01*
X38036350Y-45742262D01*
X38096826Y-45621310D01*
X38157302Y-45560834D01*
X38278254Y-45500358D01*
X38520159Y-45500358D01*
X38641112Y-45560834D01*
X30144207Y-48402024D02*
X29720874Y-47797262D01*
X29418493Y-48402024D02*
X29418493Y-47132024D01*
X29902302Y-47132024D01*
X30023254Y-47192501D01*
X30083731Y-47252977D01*
X30144207Y-47373929D01*
X30144207Y-47555358D01*
X30083731Y-47676310D01*
X30023254Y-47736786D01*
X29902302Y-47797262D01*
X29418493Y-47797262D01*
X30930397Y-47132024D02*
X31172302Y-47132024D01*
X31293254Y-47192501D01*
X31414207Y-47313453D01*
X31474683Y-47555358D01*
X31474683Y-47978691D01*
X31414207Y-48220596D01*
X31293254Y-48341548D01*
X31172302Y-48402024D01*
X30930397Y-48402024D01*
X30809445Y-48341548D01*
X30688493Y-48220596D01*
X30628016Y-47978691D01*
X30628016Y-47555358D01*
X30688493Y-47313453D01*
X30809445Y-47192501D01*
X30930397Y-47132024D01*
X31837540Y-47132024D02*
X32260874Y-48402024D01*
X32684207Y-47132024D01*
X34075159Y-48402024D02*
X34075159Y-47132024D01*
X34558969Y-47132024D01*
X34679921Y-47192501D01*
X34740397Y-47252977D01*
X34800874Y-47373929D01*
X34800874Y-47555358D01*
X34740397Y-47676310D01*
X34679921Y-47736786D01*
X34558969Y-47797262D01*
X34075159Y-47797262D01*
X35345159Y-48402024D02*
X35345159Y-47555358D01*
X35345159Y-47797262D02*
X35405635Y-47676310D01*
X35466112Y-47615834D01*
X35587064Y-47555358D01*
X35708016Y-47555358D01*
X36312778Y-48402024D02*
X36191826Y-48341548D01*
X36131350Y-48281072D01*
X36070874Y-48160120D01*
X36070874Y-47797262D01*
X36131350Y-47676310D01*
X36191826Y-47615834D01*
X36312778Y-47555358D01*
X36494207Y-47555358D01*
X36615159Y-47615834D01*
X36675635Y-47676310D01*
X36736112Y-47797262D01*
X36736112Y-48160120D01*
X36675635Y-48281072D01*
X36615159Y-48341548D01*
X36494207Y-48402024D01*
X36312778Y-48402024D01*
X37280397Y-47555358D02*
X37280397Y-48643929D01*
X37219921Y-48764881D01*
X37098969Y-48825358D01*
X37038493Y-48825358D01*
X37280397Y-47132024D02*
X37219921Y-47192501D01*
X37280397Y-47252977D01*
X37340874Y-47192501D01*
X37280397Y-47132024D01*
X37280397Y-47252977D01*
X38368969Y-48341548D02*
X38248016Y-48402024D01*
X38006112Y-48402024D01*
X37885159Y-48341548D01*
X37824683Y-48220596D01*
X37824683Y-47736786D01*
X37885159Y-47615834D01*
X38006112Y-47555358D01*
X38248016Y-47555358D01*
X38368969Y-47615834D01*
X38429445Y-47736786D01*
X38429445Y-47857739D01*
X37824683Y-47978691D01*
X39518016Y-48341548D02*
X39397064Y-48402024D01*
X39155159Y-48402024D01*
X39034207Y-48341548D01*
X38973731Y-48281072D01*
X38913254Y-48160120D01*
X38913254Y-47797262D01*
X38973731Y-47676310D01*
X39034207Y-47615834D01*
X39155159Y-47555358D01*
X39397064Y-47555358D01*
X39518016Y-47615834D01*
X39880874Y-47555358D02*
X40364683Y-47555358D01*
X40062302Y-47132024D02*
X40062302Y-48220596D01*
X40122778Y-48341548D01*
X40243731Y-48402024D01*
X40364683Y-48402024D01*
X22177619Y-72233333D02*
X22177619Y-72042857D01*
X22130000Y-71947619D01*
X22082380Y-71900000D01*
X21939523Y-71804761D01*
X21749047Y-71757142D01*
X21368095Y-71757142D01*
X21272857Y-71804761D01*
X21225238Y-71852380D01*
X21177619Y-71947619D01*
X21177619Y-72138095D01*
X21225238Y-72233333D01*
X21272857Y-72280952D01*
X21368095Y-72328571D01*
X21606190Y-72328571D01*
X21701428Y-72280952D01*
X21749047Y-72233333D01*
X21796666Y-72138095D01*
X21796666Y-71947619D01*
X21749047Y-71852380D01*
X21701428Y-71804761D01*
X21606190Y-71757142D01*
X22177619Y-73233333D02*
X22177619Y-72757142D01*
X21701428Y-72709523D01*
X21749047Y-72757142D01*
X21796666Y-72852380D01*
X21796666Y-73090476D01*
X21749047Y-73185714D01*
X21701428Y-73233333D01*
X21606190Y-73280952D01*
X21368095Y-73280952D01*
X21272857Y-73233333D01*
X21225238Y-73185714D01*
X21177619Y-73090476D01*
X21177619Y-72852380D01*
X21225238Y-72757142D01*
X21272857Y-72709523D01*
X21225238Y-73757142D02*
X21177619Y-73757142D01*
X21082380Y-73709523D01*
X21034761Y-73661904D01*
X22177619Y-74376190D02*
X22177619Y-74471428D01*
X22130000Y-74566666D01*
X22082380Y-74614285D01*
X21987142Y-74661904D01*
X21796666Y-74709523D01*
X21558571Y-74709523D01*
X21368095Y-74661904D01*
X21272857Y-74614285D01*
X21225238Y-74566666D01*
X21177619Y-74471428D01*
X21177619Y-74376190D01*
X21225238Y-74280952D01*
X21272857Y-74233333D01*
X21368095Y-74185714D01*
X21558571Y-74138095D01*
X21796666Y-74138095D01*
X21987142Y-74185714D01*
X22082380Y-74233333D01*
X22130000Y-74280952D01*
X22177619Y-74376190D01*
X22177619Y-75328571D02*
X22177619Y-75423809D01*
X22130000Y-75519047D01*
X22082380Y-75566666D01*
X21987142Y-75614285D01*
X21796666Y-75661904D01*
X21558571Y-75661904D01*
X21368095Y-75614285D01*
X21272857Y-75566666D01*
X21225238Y-75519047D01*
X21177619Y-75423809D01*
X21177619Y-75328571D01*
X21225238Y-75233333D01*
X21272857Y-75185714D01*
X21368095Y-75138095D01*
X21558571Y-75090476D01*
X21796666Y-75090476D01*
X21987142Y-75138095D01*
X22082380Y-75185714D01*
X22130000Y-75233333D01*
X22177619Y-75328571D01*
X22177619Y-76280952D02*
X22177619Y-76376190D01*
X22130000Y-76471428D01*
X22082380Y-76519047D01*
X21987142Y-76566666D01*
X21796666Y-76614285D01*
X21558571Y-76614285D01*
X21368095Y-76566666D01*
X21272857Y-76519047D01*
X21225238Y-76471428D01*
X21177619Y-76376190D01*
X21177619Y-76280952D01*
X21225238Y-76185714D01*
X21272857Y-76138095D01*
X21368095Y-76090476D01*
X21558571Y-76042857D01*
X21796666Y-76042857D01*
X21987142Y-76090476D01*
X22082380Y-76138095D01*
X22130000Y-76185714D01*
X22177619Y-76280952D01*
X21177619Y-77804761D02*
X21844285Y-77804761D01*
X21749047Y-77804761D02*
X21796666Y-77852380D01*
X21844285Y-77947619D01*
X21844285Y-78090476D01*
X21796666Y-78185714D01*
X21701428Y-78233333D01*
X21177619Y-78233333D01*
X21701428Y-78233333D02*
X21796666Y-78280952D01*
X21844285Y-78376190D01*
X21844285Y-78519047D01*
X21796666Y-78614285D01*
X21701428Y-78661904D01*
X21177619Y-78661904D01*
X21177619Y-79138095D02*
X21844285Y-79138095D01*
X21749047Y-79138095D02*
X21796666Y-79185714D01*
X21844285Y-79280952D01*
X21844285Y-79423809D01*
X21796666Y-79519047D01*
X21701428Y-79566666D01*
X21177619Y-79566666D01*
X21701428Y-79566666D02*
X21796666Y-79614285D01*
X21844285Y-79709523D01*
X21844285Y-79852380D01*
X21796666Y-79947619D01*
X21701428Y-79995238D01*
X21177619Y-79995238D01*
D11*
X22900000Y-43400000D02*
X22900000Y-108400000D01*
X22900000Y-43400000D02*
X22313579Y-43400000D01*
X22900000Y-108400000D02*
X22313579Y-108400000D01*
X22900000Y-108400000D02*
X22313579Y-107273496D01*
X22900000Y-108400000D02*
X23486421Y-107273496D01*
X22900000Y-43400000D02*
X22313579Y-44526504D01*
X22900000Y-43400000D02*
X23486421Y-44526504D01*
D10*
X47885009Y-41126057D02*
X47408819Y-41125225D01*
X47360368Y-41601331D01*
X47408070Y-41553796D01*
X47503391Y-41506343D01*
X47741486Y-41506759D01*
X47836641Y-41554545D01*
X47884176Y-41602247D01*
X47931629Y-41697568D01*
X47931213Y-41935663D01*
X47883427Y-42030818D01*
X47835725Y-42078354D01*
X47740404Y-42125806D01*
X47502309Y-42125390D01*
X47407154Y-42077604D01*
X47359618Y-42029902D01*
X48265961Y-41126723D02*
X48932626Y-41127889D01*
X48502307Y-42127138D01*
X49359532Y-42081018D02*
X49359449Y-42128637D01*
X49311663Y-42223791D01*
X49263961Y-42271327D01*
X49741982Y-41224542D02*
X49789685Y-41177006D01*
X49885006Y-41129554D01*
X50123101Y-41129970D01*
X50218255Y-41177756D01*
X50265791Y-41225458D01*
X50313244Y-41320779D01*
X50313077Y-41416017D01*
X50265208Y-41558791D01*
X49692782Y-42129219D01*
X50311828Y-42130302D01*
X50932623Y-41131385D02*
X51027861Y-41131552D01*
X51123016Y-41179337D01*
X51170552Y-41227039D01*
X51218004Y-41322361D01*
X51265290Y-41512920D01*
X51264874Y-41751015D01*
X51216922Y-41941407D01*
X51169136Y-42036562D01*
X51121434Y-42084098D01*
X51026113Y-42131550D01*
X50930875Y-42131384D01*
X50835720Y-42083598D01*
X50788185Y-42035896D01*
X50740732Y-41940575D01*
X50693446Y-41750016D01*
X50693862Y-41511921D01*
X50741814Y-41321528D01*
X50789600Y-41226373D01*
X50837302Y-41178838D01*
X50932623Y-41131385D01*
X51885003Y-41133050D02*
X51980241Y-41133217D01*
X52075395Y-41181002D01*
X52122931Y-41228704D01*
X52170384Y-41324026D01*
X52217669Y-41514585D01*
X52217253Y-41752680D01*
X52169301Y-41943072D01*
X52121516Y-42038227D01*
X52073814Y-42085763D01*
X51978492Y-42133215D01*
X51883254Y-42133049D01*
X51788100Y-42085263D01*
X51740564Y-42037561D01*
X51693112Y-41942240D01*
X51645826Y-41751681D01*
X51646242Y-41513586D01*
X51694194Y-41323193D01*
X51741979Y-41228038D01*
X51789681Y-41180503D01*
X51885003Y-41133050D01*
X53407062Y-42135713D02*
X53408227Y-41469047D01*
X53408061Y-41564285D02*
X53455763Y-41516749D01*
X53551084Y-41469297D01*
X53693941Y-41469547D01*
X53789096Y-41517332D01*
X53836548Y-41612653D01*
X53835632Y-42136462D01*
X53836548Y-41612653D02*
X53884334Y-41517499D01*
X53979655Y-41470046D01*
X54122512Y-41470296D01*
X54217666Y-41518081D01*
X54265119Y-41613403D01*
X54264203Y-42137211D01*
X54740393Y-42138044D02*
X54741558Y-41471378D01*
X54741392Y-41566616D02*
X54789094Y-41519080D01*
X54884415Y-41471628D01*
X55027272Y-41471878D01*
X55122427Y-41519663D01*
X55169879Y-41614984D01*
X55168964Y-42138793D01*
X55169879Y-41614984D02*
X55217665Y-41519830D01*
X55312986Y-41472377D01*
X55455843Y-41472627D01*
X55550998Y-41520412D01*
X55598450Y-41615734D01*
X55597534Y-42139542D01*
D11*
X80100874Y-43000001D02*
X22900874Y-42900001D01*
X80100000Y-43500000D02*
X80101899Y-42413581D01*
X22900000Y-43400000D02*
X22901899Y-42313581D01*
X22900874Y-42900001D02*
X24028401Y-42315551D01*
X22900874Y-42900001D02*
X24026351Y-43488390D01*
X80100874Y-43000001D02*
X78975397Y-42411612D01*
X80100874Y-43000001D02*
X78973347Y-43584451D01*
D12*
%TO.C,G\002A\002A\002A*%
G36*
X35481686Y-51748506D02*
G01*
X35581217Y-51760287D01*
X35599924Y-51763857D01*
X35644484Y-51774063D01*
X35685812Y-51786330D01*
X35729667Y-51802932D01*
X35781804Y-51826144D01*
X35847980Y-51858241D01*
X35882663Y-51875580D01*
X35929178Y-51903514D01*
X35982575Y-51942509D01*
X36036368Y-51987066D01*
X36084073Y-52031684D01*
X36119204Y-52070863D01*
X36128442Y-52084035D01*
X36151832Y-52118078D01*
X36174550Y-52145486D01*
X36177724Y-52148634D01*
X36194995Y-52170763D01*
X36217777Y-52207490D01*
X36238582Y-52245951D01*
X36298790Y-52384683D01*
X36336130Y-52518646D01*
X36351457Y-52652140D01*
X36346044Y-52785790D01*
X36338850Y-52841551D01*
X36330806Y-52889696D01*
X36323162Y-52923270D01*
X36319631Y-52932909D01*
X36309161Y-52956211D01*
X36293219Y-52995535D01*
X36274978Y-53043020D01*
X36272113Y-53050702D01*
X36242996Y-53114134D01*
X36201495Y-53185283D01*
X36152796Y-53256644D01*
X36102089Y-53320711D01*
X36054560Y-53369977D01*
X36046836Y-53376618D01*
X35986557Y-53429256D01*
X35930278Y-53483464D01*
X35882421Y-53534605D01*
X35847409Y-53578043D01*
X35833465Y-53600281D01*
X35814077Y-53661114D01*
X35809158Y-53732030D01*
X35818681Y-53802253D01*
X35834043Y-53845468D01*
X35865672Y-53894611D01*
X35912277Y-53947741D01*
X35966232Y-53997258D01*
X36019911Y-54035562D01*
X36031035Y-54041787D01*
X36100737Y-54064442D01*
X36152374Y-54068400D01*
X36197805Y-54064456D01*
X36242445Y-54051139D01*
X36290243Y-54026223D01*
X36345151Y-53987482D01*
X36411117Y-53932690D01*
X36442423Y-53904938D01*
X36520546Y-53836173D01*
X36586370Y-53782281D01*
X36645264Y-53739891D01*
X36702599Y-53705628D01*
X36763744Y-53676122D01*
X36834071Y-53647999D01*
X36875324Y-53633058D01*
X36931565Y-53614708D01*
X36982425Y-53602460D01*
X37037085Y-53594735D01*
X37104722Y-53589955D01*
X37133323Y-53588679D01*
X37226523Y-53587788D01*
X37312120Y-53592438D01*
X37385056Y-53602080D01*
X37440270Y-53616161D01*
X37458544Y-53624094D01*
X37479976Y-53633590D01*
X37517733Y-53648611D01*
X37564215Y-53666150D01*
X37571330Y-53668760D01*
X37666205Y-53712702D01*
X37761248Y-53775911D01*
X37859424Y-53860483D01*
X37901540Y-53902093D01*
X37958146Y-53954821D01*
X38017224Y-54001015D01*
X38073842Y-54037466D01*
X38123072Y-54060969D01*
X38157181Y-54068401D01*
X38178006Y-54073511D01*
X38179135Y-54090626D01*
X38172034Y-54116399D01*
X38161978Y-54154321D01*
X38158287Y-54168506D01*
X38147090Y-54207339D01*
X38136274Y-54237986D01*
X38133228Y-54244706D01*
X38125044Y-54264518D01*
X38110911Y-54302718D01*
X38092896Y-54353593D01*
X38075257Y-54404951D01*
X38053245Y-54467359D01*
X38030677Y-54526996D01*
X38010563Y-54576120D01*
X37998698Y-54601801D01*
X37979302Y-54641128D01*
X37954383Y-54693602D01*
X37928710Y-54749150D01*
X37923721Y-54760148D01*
X37900978Y-54808502D01*
X37880126Y-54849386D01*
X37864657Y-54876063D01*
X37861161Y-54880798D01*
X37847378Y-54901014D01*
X37826228Y-54936799D01*
X37801856Y-54981082D01*
X37797300Y-54989689D01*
X37771429Y-55036964D01*
X37746587Y-55079124D01*
X37727651Y-55107938D01*
X37725826Y-55110339D01*
X37705702Y-55137609D01*
X37678261Y-55176738D01*
X37654721Y-55211401D01*
X37583248Y-55311852D01*
X37497154Y-55422187D01*
X37401579Y-55536334D01*
X37301664Y-55648218D01*
X37202549Y-55751765D01*
X37171067Y-55782901D01*
X37046450Y-55901235D01*
X36930209Y-56004618D01*
X36815594Y-56098504D01*
X36695855Y-56188349D01*
X36564243Y-56279606D01*
X36520174Y-56308905D01*
X36469832Y-56340886D01*
X36409940Y-56377107D01*
X36346703Y-56414005D01*
X36286330Y-56448021D01*
X36235028Y-56475592D01*
X36199038Y-56493144D01*
X36163086Y-56509221D01*
X36112984Y-56532300D01*
X36057458Y-56558344D01*
X36035669Y-56568695D01*
X35987199Y-56591325D01*
X35947216Y-56609078D01*
X35921313Y-56619515D01*
X35915019Y-56621257D01*
X35899464Y-56625469D01*
X35865251Y-56636803D01*
X35817521Y-56653503D01*
X35764524Y-56672672D01*
X35698166Y-56695545D01*
X35622955Y-56719074D01*
X35544089Y-56741884D01*
X35466767Y-56762601D01*
X35396190Y-56779851D01*
X35337556Y-56792260D01*
X35296065Y-56798454D01*
X35286878Y-56798901D01*
X35251322Y-56787281D01*
X35230313Y-56764132D01*
X35212591Y-56741405D01*
X35181465Y-56705649D01*
X35141412Y-56661873D01*
X35099391Y-56617646D01*
X35053701Y-56569320D01*
X35011496Y-56522665D01*
X34977762Y-56483313D01*
X34958787Y-56458826D01*
X34934650Y-56425351D01*
X34913515Y-56398553D01*
X34908476Y-56392882D01*
X34888761Y-56363657D01*
X34865172Y-56315685D01*
X34840171Y-56254819D01*
X34816220Y-56186907D01*
X34801451Y-56138501D01*
X34779134Y-56022164D01*
X34773099Y-55894401D01*
X34782614Y-55762642D01*
X34806949Y-55634320D01*
X34845371Y-55516867D01*
X34867360Y-55468955D01*
X34918013Y-55385875D01*
X34987665Y-55296076D01*
X35072550Y-55204099D01*
X35140550Y-55139470D01*
X35202926Y-55080789D01*
X35247257Y-55031830D01*
X35276340Y-54987800D01*
X35292973Y-54943905D01*
X35299955Y-54895350D01*
X35300695Y-54865068D01*
X35293543Y-54799832D01*
X35270864Y-54739816D01*
X35229949Y-54679713D01*
X35176871Y-54622699D01*
X35133898Y-54582957D01*
X35099055Y-54557581D01*
X35064078Y-54541533D01*
X35026763Y-54531159D01*
X34942576Y-54522057D01*
X34863177Y-54533456D01*
X34815170Y-54552715D01*
X34796677Y-54566066D01*
X34763880Y-54593079D01*
X34721064Y-54630104D01*
X34672514Y-54673494D01*
X34661204Y-54683791D01*
X34533697Y-54788862D01*
X34404774Y-54872863D01*
X34276897Y-54934313D01*
X34202424Y-54959539D01*
X34100928Y-54980235D01*
X33988214Y-54989539D01*
X33870814Y-54987941D01*
X33755260Y-54975932D01*
X33648085Y-54954000D01*
X33555821Y-54922638D01*
X33526991Y-54908857D01*
X33428997Y-54853964D01*
X33349820Y-54801830D01*
X33283784Y-54748490D01*
X33247629Y-54713771D01*
X33147782Y-54597501D01*
X33071909Y-54476264D01*
X33019092Y-54347602D01*
X32988411Y-54209053D01*
X32978948Y-54058160D01*
X32980615Y-53999208D01*
X32991784Y-53879411D01*
X33013842Y-53771804D01*
X33048813Y-53672511D01*
X33098722Y-53577655D01*
X33165592Y-53483362D01*
X33170439Y-53477851D01*
X34203337Y-53477851D01*
X34204005Y-53542859D01*
X34206012Y-53589432D01*
X34210732Y-53624532D01*
X34219543Y-53655123D01*
X34233820Y-53688168D01*
X34252239Y-53725285D01*
X34306841Y-53821995D01*
X34360265Y-53893481D01*
X34412619Y-53939886D01*
X34417493Y-53942965D01*
X34449169Y-53960681D01*
X34470736Y-53965335D01*
X34493148Y-53958063D01*
X34504883Y-53952026D01*
X34542731Y-53925473D01*
X34560486Y-53894883D01*
X34558073Y-53857375D01*
X34535415Y-53810067D01*
X34499808Y-53759514D01*
X34449424Y-53684933D01*
X34418033Y-53612841D01*
X34402468Y-53533917D01*
X34399274Y-53463608D01*
X34410197Y-53357707D01*
X34442862Y-53264919D01*
X34497107Y-53185497D01*
X34572774Y-53119689D01*
X34646293Y-53078095D01*
X34691429Y-53058567D01*
X34730147Y-53046989D01*
X34772462Y-53041378D01*
X34828390Y-53039751D01*
X34840069Y-53039728D01*
X34897675Y-53040709D01*
X34939236Y-53044926D01*
X34974076Y-53054344D01*
X35011518Y-53070924D01*
X35027924Y-53079281D01*
X35077607Y-53108642D01*
X35126542Y-53143298D01*
X35154924Y-53167314D01*
X35201288Y-53206018D01*
X35239506Y-53223512D01*
X35274052Y-53220630D01*
X35309401Y-53198205D01*
X35311438Y-53196438D01*
X35342007Y-53160405D01*
X35351615Y-53128947D01*
X35340494Y-53094270D01*
X35310252Y-53052997D01*
X35265128Y-53008512D01*
X35209358Y-52964199D01*
X35147181Y-52923443D01*
X35082832Y-52889628D01*
X35023704Y-52867060D01*
X34963815Y-52854502D01*
X34889524Y-52846918D01*
X34837424Y-52845246D01*
X34733110Y-52850361D01*
X34641968Y-52868097D01*
X34557554Y-52900912D01*
X34473424Y-52951268D01*
X34389515Y-53016226D01*
X34367565Y-53038817D01*
X34339735Y-53072925D01*
X34310526Y-53112255D01*
X34284436Y-53150514D01*
X34265967Y-53181408D01*
X34259574Y-53197979D01*
X34254556Y-53212553D01*
X34241696Y-53242214D01*
X34230999Y-53265264D01*
X34218474Y-53294774D01*
X34210265Y-53324505D01*
X34205551Y-53360746D01*
X34203515Y-53409789D01*
X34203337Y-53477851D01*
X33170439Y-53477851D01*
X33251446Y-53385755D01*
X33353151Y-53285761D01*
X33412551Y-53230122D01*
X33471410Y-53174609D01*
X33524706Y-53123988D01*
X33567412Y-53083023D01*
X33585823Y-53065101D01*
X33619628Y-53032424D01*
X33667161Y-52987236D01*
X33723457Y-52934221D01*
X33783548Y-52878064D01*
X33821473Y-52842851D01*
X33877474Y-52790870D01*
X33929132Y-52742678D01*
X33972650Y-52701835D01*
X34004229Y-52671902D01*
X34018051Y-52658500D01*
X34040266Y-52636902D01*
X34075835Y-52602989D01*
X34119511Y-52561741D01*
X34157974Y-52525677D01*
X34199036Y-52487127D01*
X34254154Y-52435118D01*
X34319014Y-52373733D01*
X34389305Y-52307057D01*
X34460714Y-52239174D01*
X34493041Y-52208388D01*
X34557228Y-52147521D01*
X34616593Y-52091781D01*
X34668271Y-52043816D01*
X34709395Y-52006273D01*
X34737099Y-51981799D01*
X34747041Y-51973814D01*
X34773948Y-51953843D01*
X34807521Y-51926695D01*
X34816387Y-51919174D01*
X34861543Y-51887650D01*
X34924092Y-51853683D01*
X34996675Y-51820526D01*
X35071931Y-51791433D01*
X35142501Y-51769657D01*
X35168289Y-51763616D01*
X35263895Y-51750164D01*
X35372136Y-51745129D01*
X35481686Y-51748506D01*
G37*
X35481686Y-51748506D02*
X35581217Y-51760287D01*
X35599924Y-51763857D01*
X35644484Y-51774063D01*
X35685812Y-51786330D01*
X35729667Y-51802932D01*
X35781804Y-51826144D01*
X35847980Y-51858241D01*
X35882663Y-51875580D01*
X35929178Y-51903514D01*
X35982575Y-51942509D01*
X36036368Y-51987066D01*
X36084073Y-52031684D01*
X36119204Y-52070863D01*
X36128442Y-52084035D01*
X36151832Y-52118078D01*
X36174550Y-52145486D01*
X36177724Y-52148634D01*
X36194995Y-52170763D01*
X36217777Y-52207490D01*
X36238582Y-52245951D01*
X36298790Y-52384683D01*
X36336130Y-52518646D01*
X36351457Y-52652140D01*
X36346044Y-52785790D01*
X36338850Y-52841551D01*
X36330806Y-52889696D01*
X36323162Y-52923270D01*
X36319631Y-52932909D01*
X36309161Y-52956211D01*
X36293219Y-52995535D01*
X36274978Y-53043020D01*
X36272113Y-53050702D01*
X36242996Y-53114134D01*
X36201495Y-53185283D01*
X36152796Y-53256644D01*
X36102089Y-53320711D01*
X36054560Y-53369977D01*
X36046836Y-53376618D01*
X35986557Y-53429256D01*
X35930278Y-53483464D01*
X35882421Y-53534605D01*
X35847409Y-53578043D01*
X35833465Y-53600281D01*
X35814077Y-53661114D01*
X35809158Y-53732030D01*
X35818681Y-53802253D01*
X35834043Y-53845468D01*
X35865672Y-53894611D01*
X35912277Y-53947741D01*
X35966232Y-53997258D01*
X36019911Y-54035562D01*
X36031035Y-54041787D01*
X36100737Y-54064442D01*
X36152374Y-54068400D01*
X36197805Y-54064456D01*
X36242445Y-54051139D01*
X36290243Y-54026223D01*
X36345151Y-53987482D01*
X36411117Y-53932690D01*
X36442423Y-53904938D01*
X36520546Y-53836173D01*
X36586370Y-53782281D01*
X36645264Y-53739891D01*
X36702599Y-53705628D01*
X36763744Y-53676122D01*
X36834071Y-53647999D01*
X36875324Y-53633058D01*
X36931565Y-53614708D01*
X36982425Y-53602460D01*
X37037085Y-53594735D01*
X37104722Y-53589955D01*
X37133323Y-53588679D01*
X37226523Y-53587788D01*
X37312120Y-53592438D01*
X37385056Y-53602080D01*
X37440270Y-53616161D01*
X37458544Y-53624094D01*
X37479976Y-53633590D01*
X37517733Y-53648611D01*
X37564215Y-53666150D01*
X37571330Y-53668760D01*
X37666205Y-53712702D01*
X37761248Y-53775911D01*
X37859424Y-53860483D01*
X37901540Y-53902093D01*
X37958146Y-53954821D01*
X38017224Y-54001015D01*
X38073842Y-54037466D01*
X38123072Y-54060969D01*
X38157181Y-54068401D01*
X38178006Y-54073511D01*
X38179135Y-54090626D01*
X38172034Y-54116399D01*
X38161978Y-54154321D01*
X38158287Y-54168506D01*
X38147090Y-54207339D01*
X38136274Y-54237986D01*
X38133228Y-54244706D01*
X38125044Y-54264518D01*
X38110911Y-54302718D01*
X38092896Y-54353593D01*
X38075257Y-54404951D01*
X38053245Y-54467359D01*
X38030677Y-54526996D01*
X38010563Y-54576120D01*
X37998698Y-54601801D01*
X37979302Y-54641128D01*
X37954383Y-54693602D01*
X37928710Y-54749150D01*
X37923721Y-54760148D01*
X37900978Y-54808502D01*
X37880126Y-54849386D01*
X37864657Y-54876063D01*
X37861161Y-54880798D01*
X37847378Y-54901014D01*
X37826228Y-54936799D01*
X37801856Y-54981082D01*
X37797300Y-54989689D01*
X37771429Y-55036964D01*
X37746587Y-55079124D01*
X37727651Y-55107938D01*
X37725826Y-55110339D01*
X37705702Y-55137609D01*
X37678261Y-55176738D01*
X37654721Y-55211401D01*
X37583248Y-55311852D01*
X37497154Y-55422187D01*
X37401579Y-55536334D01*
X37301664Y-55648218D01*
X37202549Y-55751765D01*
X37171067Y-55782901D01*
X37046450Y-55901235D01*
X36930209Y-56004618D01*
X36815594Y-56098504D01*
X36695855Y-56188349D01*
X36564243Y-56279606D01*
X36520174Y-56308905D01*
X36469832Y-56340886D01*
X36409940Y-56377107D01*
X36346703Y-56414005D01*
X36286330Y-56448021D01*
X36235028Y-56475592D01*
X36199038Y-56493144D01*
X36163086Y-56509221D01*
X36112984Y-56532300D01*
X36057458Y-56558344D01*
X36035669Y-56568695D01*
X35987199Y-56591325D01*
X35947216Y-56609078D01*
X35921313Y-56619515D01*
X35915019Y-56621257D01*
X35899464Y-56625469D01*
X35865251Y-56636803D01*
X35817521Y-56653503D01*
X35764524Y-56672672D01*
X35698166Y-56695545D01*
X35622955Y-56719074D01*
X35544089Y-56741884D01*
X35466767Y-56762601D01*
X35396190Y-56779851D01*
X35337556Y-56792260D01*
X35296065Y-56798454D01*
X35286878Y-56798901D01*
X35251322Y-56787281D01*
X35230313Y-56764132D01*
X35212591Y-56741405D01*
X35181465Y-56705649D01*
X35141412Y-56661873D01*
X35099391Y-56617646D01*
X35053701Y-56569320D01*
X35011496Y-56522665D01*
X34977762Y-56483313D01*
X34958787Y-56458826D01*
X34934650Y-56425351D01*
X34913515Y-56398553D01*
X34908476Y-56392882D01*
X34888761Y-56363657D01*
X34865172Y-56315685D01*
X34840171Y-56254819D01*
X34816220Y-56186907D01*
X34801451Y-56138501D01*
X34779134Y-56022164D01*
X34773099Y-55894401D01*
X34782614Y-55762642D01*
X34806949Y-55634320D01*
X34845371Y-55516867D01*
X34867360Y-55468955D01*
X34918013Y-55385875D01*
X34987665Y-55296076D01*
X35072550Y-55204099D01*
X35140550Y-55139470D01*
X35202926Y-55080789D01*
X35247257Y-55031830D01*
X35276340Y-54987800D01*
X35292973Y-54943905D01*
X35299955Y-54895350D01*
X35300695Y-54865068D01*
X35293543Y-54799832D01*
X35270864Y-54739816D01*
X35229949Y-54679713D01*
X35176871Y-54622699D01*
X35133898Y-54582957D01*
X35099055Y-54557581D01*
X35064078Y-54541533D01*
X35026763Y-54531159D01*
X34942576Y-54522057D01*
X34863177Y-54533456D01*
X34815170Y-54552715D01*
X34796677Y-54566066D01*
X34763880Y-54593079D01*
X34721064Y-54630104D01*
X34672514Y-54673494D01*
X34661204Y-54683791D01*
X34533697Y-54788862D01*
X34404774Y-54872863D01*
X34276897Y-54934313D01*
X34202424Y-54959539D01*
X34100928Y-54980235D01*
X33988214Y-54989539D01*
X33870814Y-54987941D01*
X33755260Y-54975932D01*
X33648085Y-54954000D01*
X33555821Y-54922638D01*
X33526991Y-54908857D01*
X33428997Y-54853964D01*
X33349820Y-54801830D01*
X33283784Y-54748490D01*
X33247629Y-54713771D01*
X33147782Y-54597501D01*
X33071909Y-54476264D01*
X33019092Y-54347602D01*
X32988411Y-54209053D01*
X32978948Y-54058160D01*
X32980615Y-53999208D01*
X32991784Y-53879411D01*
X33013842Y-53771804D01*
X33048813Y-53672511D01*
X33098722Y-53577655D01*
X33165592Y-53483362D01*
X33170439Y-53477851D01*
X34203337Y-53477851D01*
X34204005Y-53542859D01*
X34206012Y-53589432D01*
X34210732Y-53624532D01*
X34219543Y-53655123D01*
X34233820Y-53688168D01*
X34252239Y-53725285D01*
X34306841Y-53821995D01*
X34360265Y-53893481D01*
X34412619Y-53939886D01*
X34417493Y-53942965D01*
X34449169Y-53960681D01*
X34470736Y-53965335D01*
X34493148Y-53958063D01*
X34504883Y-53952026D01*
X34542731Y-53925473D01*
X34560486Y-53894883D01*
X34558073Y-53857375D01*
X34535415Y-53810067D01*
X34499808Y-53759514D01*
X34449424Y-53684933D01*
X34418033Y-53612841D01*
X34402468Y-53533917D01*
X34399274Y-53463608D01*
X34410197Y-53357707D01*
X34442862Y-53264919D01*
X34497107Y-53185497D01*
X34572774Y-53119689D01*
X34646293Y-53078095D01*
X34691429Y-53058567D01*
X34730147Y-53046989D01*
X34772462Y-53041378D01*
X34828390Y-53039751D01*
X34840069Y-53039728D01*
X34897675Y-53040709D01*
X34939236Y-53044926D01*
X34974076Y-53054344D01*
X35011518Y-53070924D01*
X35027924Y-53079281D01*
X35077607Y-53108642D01*
X35126542Y-53143298D01*
X35154924Y-53167314D01*
X35201288Y-53206018D01*
X35239506Y-53223512D01*
X35274052Y-53220630D01*
X35309401Y-53198205D01*
X35311438Y-53196438D01*
X35342007Y-53160405D01*
X35351615Y-53128947D01*
X35340494Y-53094270D01*
X35310252Y-53052997D01*
X35265128Y-53008512D01*
X35209358Y-52964199D01*
X35147181Y-52923443D01*
X35082832Y-52889628D01*
X35023704Y-52867060D01*
X34963815Y-52854502D01*
X34889524Y-52846918D01*
X34837424Y-52845246D01*
X34733110Y-52850361D01*
X34641968Y-52868097D01*
X34557554Y-52900912D01*
X34473424Y-52951268D01*
X34389515Y-53016226D01*
X34367565Y-53038817D01*
X34339735Y-53072925D01*
X34310526Y-53112255D01*
X34284436Y-53150514D01*
X34265967Y-53181408D01*
X34259574Y-53197979D01*
X34254556Y-53212553D01*
X34241696Y-53242214D01*
X34230999Y-53265264D01*
X34218474Y-53294774D01*
X34210265Y-53324505D01*
X34205551Y-53360746D01*
X34203515Y-53409789D01*
X34203337Y-53477851D01*
X33170439Y-53477851D01*
X33251446Y-53385755D01*
X33353151Y-53285761D01*
X33412551Y-53230122D01*
X33471410Y-53174609D01*
X33524706Y-53123988D01*
X33567412Y-53083023D01*
X33585823Y-53065101D01*
X33619628Y-53032424D01*
X33667161Y-52987236D01*
X33723457Y-52934221D01*
X33783548Y-52878064D01*
X33821473Y-52842851D01*
X33877474Y-52790870D01*
X33929132Y-52742678D01*
X33972650Y-52701835D01*
X34004229Y-52671902D01*
X34018051Y-52658500D01*
X34040266Y-52636902D01*
X34075835Y-52602989D01*
X34119511Y-52561741D01*
X34157974Y-52525677D01*
X34199036Y-52487127D01*
X34254154Y-52435118D01*
X34319014Y-52373733D01*
X34389305Y-52307057D01*
X34460714Y-52239174D01*
X34493041Y-52208388D01*
X34557228Y-52147521D01*
X34616593Y-52091781D01*
X34668271Y-52043816D01*
X34709395Y-52006273D01*
X34737099Y-51981799D01*
X34747041Y-51973814D01*
X34773948Y-51953843D01*
X34807521Y-51926695D01*
X34816387Y-51919174D01*
X34861543Y-51887650D01*
X34924092Y-51853683D01*
X34996675Y-51820526D01*
X35071931Y-51791433D01*
X35142501Y-51769657D01*
X35168289Y-51763616D01*
X35263895Y-51750164D01*
X35372136Y-51745129D01*
X35481686Y-51748506D01*
G36*
X34646156Y-49265295D02*
G01*
X34737201Y-49266925D01*
X34817302Y-49269411D01*
X34881941Y-49272753D01*
X34926604Y-49276950D01*
X34932674Y-49277880D01*
X34984291Y-49286578D01*
X35049310Y-49297444D01*
X35116066Y-49308531D01*
X35135874Y-49311806D01*
X35427883Y-49369666D01*
X35701386Y-49443928D01*
X35957593Y-49534981D01*
X36197718Y-49643216D01*
X36253474Y-49671996D01*
X36309153Y-49702492D01*
X36370347Y-49737651D01*
X36431560Y-49774135D01*
X36487296Y-49808607D01*
X36532059Y-49837729D01*
X36560353Y-49858161D01*
X36561334Y-49858977D01*
X36588175Y-49879212D01*
X36607537Y-49889695D01*
X36609877Y-49890100D01*
X36626385Y-49897903D01*
X36658788Y-49919525D01*
X36703668Y-49952283D01*
X36757610Y-49993498D01*
X36817198Y-50040488D01*
X36879013Y-50090573D01*
X36939640Y-50141070D01*
X36995661Y-50189301D01*
X37028174Y-50218333D01*
X37160169Y-50342139D01*
X37278483Y-50461777D01*
X37390484Y-50585157D01*
X37503540Y-50720186D01*
X37550605Y-50779101D01*
X37610252Y-50858823D01*
X37674544Y-50951979D01*
X37739921Y-51052796D01*
X37802822Y-51155502D01*
X37859688Y-51254322D01*
X37906960Y-51343484D01*
X37934350Y-51401401D01*
X37959381Y-51456879D01*
X37986914Y-51515459D01*
X38005680Y-51553801D01*
X38026669Y-51600699D01*
X38052478Y-51666309D01*
X38081151Y-51744864D01*
X38110732Y-51830597D01*
X38139264Y-51917740D01*
X38164792Y-52000526D01*
X38185359Y-52073188D01*
X38195219Y-52112601D01*
X38208567Y-52175076D01*
X38223007Y-52250107D01*
X38236158Y-52325091D01*
X38240781Y-52353901D01*
X38250633Y-52414536D01*
X38260557Y-52470457D01*
X38269138Y-52513935D01*
X38273283Y-52531701D01*
X38281477Y-52574982D01*
X38289053Y-52638379D01*
X38295821Y-52716999D01*
X38301590Y-52805952D01*
X38306169Y-52900343D01*
X38309367Y-52995282D01*
X38310993Y-53085875D01*
X38310857Y-53167232D01*
X38308769Y-53234459D01*
X38304536Y-53282665D01*
X38302936Y-53292113D01*
X38293493Y-53319480D01*
X38281420Y-53331717D01*
X38280711Y-53331762D01*
X38265421Y-53324491D01*
X38234628Y-53304763D01*
X38192921Y-53275662D01*
X38148674Y-53243119D01*
X38093130Y-53203163D01*
X38036275Y-53165345D01*
X37985906Y-53134708D01*
X37958174Y-53119991D01*
X37916667Y-53099340D01*
X37882707Y-53080750D01*
X37866374Y-53070208D01*
X37839186Y-53055420D01*
X37792660Y-53037262D01*
X37732350Y-53017394D01*
X37663815Y-52997477D01*
X37592611Y-52979175D01*
X37524296Y-52964148D01*
X37491724Y-52958175D01*
X37430794Y-52947654D01*
X37372942Y-52937138D01*
X37326902Y-52928237D01*
X37310566Y-52924789D01*
X37258290Y-52916915D01*
X37197465Y-52913367D01*
X37137048Y-52914114D01*
X37085995Y-52919124D01*
X37059205Y-52925673D01*
X37022511Y-52931199D01*
X37000279Y-52916526D01*
X36995080Y-52883900D01*
X36997116Y-52871446D01*
X37002180Y-52830617D01*
X37004637Y-52770915D01*
X37004668Y-52698714D01*
X37002457Y-52620388D01*
X36998184Y-52542310D01*
X36992034Y-52470855D01*
X36984187Y-52412395D01*
X36983952Y-52411051D01*
X36936824Y-52214066D01*
X36866650Y-52027752D01*
X36773470Y-51852193D01*
X36657326Y-51687472D01*
X36583674Y-51601526D01*
X36516650Y-51534342D01*
X36437843Y-51464975D01*
X36354781Y-51399474D01*
X36274995Y-51343891D01*
X36228074Y-51315737D01*
X36184754Y-51291135D01*
X36148490Y-51269172D01*
X36126700Y-51254352D01*
X36125913Y-51253703D01*
X36103777Y-51241180D01*
X36063164Y-51223553D01*
X36009949Y-51202942D01*
X35950005Y-51181465D01*
X35889207Y-51161244D01*
X35833428Y-51144396D01*
X35796274Y-51134751D01*
X35755501Y-51124169D01*
X35724572Y-51113966D01*
X35713551Y-51108574D01*
X35696508Y-51103560D01*
X35659551Y-51097333D01*
X35608088Y-51090679D01*
X35547527Y-51084384D01*
X35546258Y-51084267D01*
X35477790Y-51079987D01*
X35400707Y-51078466D01*
X35320134Y-51079447D01*
X35241192Y-51082672D01*
X35169005Y-51087885D01*
X35108697Y-51094829D01*
X35065389Y-51103244D01*
X35049047Y-51109237D01*
X35028307Y-51117295D01*
X34989310Y-51129829D01*
X34938369Y-51144875D01*
X34900924Y-51155323D01*
X34820056Y-51178555D01*
X34754144Y-51201024D01*
X34694387Y-51226506D01*
X34631985Y-51258783D01*
X34558137Y-51301631D01*
X34552958Y-51304736D01*
X34496499Y-51339551D01*
X34445285Y-51373575D01*
X34395683Y-51409759D01*
X34344060Y-51451056D01*
X34286783Y-51500417D01*
X34220219Y-51560794D01*
X34140734Y-51635139D01*
X34107174Y-51666920D01*
X34038885Y-51731631D01*
X33967624Y-51798974D01*
X33898740Y-51863907D01*
X33837580Y-51921387D01*
X33789674Y-51966206D01*
X33730352Y-52021752D01*
X33661849Y-52086304D01*
X33593281Y-52151251D01*
X33541692Y-52200398D01*
X33483708Y-52255511D01*
X33414866Y-52320434D01*
X33343012Y-52387793D01*
X33275994Y-52450216D01*
X33263438Y-52461851D01*
X33205299Y-52515890D01*
X33147298Y-52570192D01*
X33094868Y-52619644D01*
X33053442Y-52659134D01*
X33040753Y-52671401D01*
X33005820Y-52705395D01*
X32957987Y-52751931D01*
X32902565Y-52805844D01*
X32844865Y-52861968D01*
X32820532Y-52885633D01*
X32678261Y-53037915D01*
X32560160Y-53194929D01*
X32465189Y-53358294D01*
X32392311Y-53529632D01*
X32375661Y-53579451D01*
X32342036Y-53715005D01*
X32321301Y-53863209D01*
X32313232Y-54018465D01*
X32317603Y-54175178D01*
X32334191Y-54327751D01*
X32362772Y-54470587D01*
X32403119Y-54598089D01*
X32417947Y-54633551D01*
X32449371Y-54702805D01*
X32479347Y-54766968D01*
X32505928Y-54822044D01*
X32527164Y-54864038D01*
X32541109Y-54888956D01*
X32544915Y-54893901D01*
X32555947Y-54906854D01*
X32576814Y-54935177D01*
X32603280Y-54973095D01*
X32607040Y-54978618D01*
X32676678Y-55068621D01*
X32764646Y-55162610D01*
X32865450Y-55255762D01*
X32973599Y-55343254D01*
X33083598Y-55420260D01*
X33165492Y-55469043D01*
X33214555Y-55492660D01*
X33280892Y-55520343D01*
X33357276Y-55549477D01*
X33436476Y-55577445D01*
X33511263Y-55601633D01*
X33574406Y-55619425D01*
X33593527Y-55623897D01*
X33649780Y-55633176D01*
X33724855Y-55641425D01*
X33812179Y-55648045D01*
X33905178Y-55652433D01*
X33906013Y-55652461D01*
X34117602Y-55659347D01*
X34110714Y-55825899D01*
X34113271Y-56015021D01*
X34135888Y-56201296D01*
X34172836Y-56360751D01*
X34188635Y-56407590D01*
X34211464Y-56465637D01*
X34238996Y-56529945D01*
X34268908Y-56595563D01*
X34298875Y-56657544D01*
X34326572Y-56710941D01*
X34349674Y-56750804D01*
X34365857Y-56772185D01*
X34366315Y-56772576D01*
X34385172Y-56793866D01*
X34405327Y-56824224D01*
X34420447Y-56853276D01*
X34424674Y-56868120D01*
X34412851Y-56871919D01*
X34380744Y-56873911D01*
X34333391Y-56874249D01*
X34275830Y-56873087D01*
X34213101Y-56870580D01*
X34150243Y-56866883D01*
X34092294Y-56862150D01*
X34044295Y-56856535D01*
X34043674Y-56856444D01*
X33933896Y-56839313D01*
X33821886Y-56819887D01*
X33711594Y-56799011D01*
X33606967Y-56777526D01*
X33511954Y-56756275D01*
X33430504Y-56736103D01*
X33366565Y-56717850D01*
X33326124Y-56703271D01*
X33297587Y-56691943D01*
X33252433Y-56675316D01*
X33198143Y-56656113D01*
X33167374Y-56645531D01*
X33033809Y-56594351D01*
X32887160Y-56527811D01*
X32732356Y-56448456D01*
X32574328Y-56358832D01*
X32418007Y-56261485D01*
X32397411Y-56247961D01*
X32295436Y-56176047D01*
X32183227Y-56089077D01*
X32066363Y-55991876D01*
X31950419Y-55889267D01*
X31840972Y-55786076D01*
X31743599Y-55687126D01*
X31721251Y-55663021D01*
X31677000Y-55614621D01*
X31633641Y-55567218D01*
X31597371Y-55527585D01*
X31581128Y-55509851D01*
X31552719Y-55476718D01*
X31514154Y-55428877D01*
X31469746Y-55371994D01*
X31423811Y-55311732D01*
X31380663Y-55253758D01*
X31344617Y-55203736D01*
X31319987Y-55167331D01*
X31318764Y-55165377D01*
X31295483Y-55128794D01*
X31268117Y-55086974D01*
X31261118Y-55076477D01*
X31213774Y-55000579D01*
X31161044Y-54906794D01*
X31106218Y-54801109D01*
X31077043Y-54741501D01*
X31050147Y-54685770D01*
X31024719Y-54633751D01*
X31004376Y-54592808D01*
X30995998Y-54576401D01*
X30982510Y-54546204D01*
X30963948Y-54498827D01*
X30942972Y-54441281D01*
X30926114Y-54392251D01*
X30905828Y-54332544D01*
X30886744Y-54278178D01*
X30871230Y-54235794D01*
X30862750Y-54214451D01*
X30848963Y-54174675D01*
X30832509Y-54113594D01*
X30814156Y-54035070D01*
X30794673Y-53942964D01*
X30774826Y-53841137D01*
X30755383Y-53733451D01*
X30737114Y-53623768D01*
X30720784Y-53515949D01*
X30713749Y-53465151D01*
X30709234Y-53416004D01*
X30705716Y-53346840D01*
X30703193Y-53262633D01*
X30701664Y-53168357D01*
X30701128Y-53068986D01*
X30701584Y-52969492D01*
X30703031Y-52874851D01*
X30705467Y-52790036D01*
X30708891Y-52720020D01*
X30713303Y-52669778D01*
X30713936Y-52665051D01*
X30734676Y-52526402D01*
X30756758Y-52392834D01*
X30779434Y-52268209D01*
X30801958Y-52156388D01*
X30823581Y-52061235D01*
X30843558Y-51986611D01*
X30847795Y-51972901D01*
X30876807Y-51884713D01*
X30908080Y-51794180D01*
X30939568Y-51706883D01*
X30969222Y-51628405D01*
X30994994Y-51564326D01*
X31010863Y-51528401D01*
X31037651Y-51471830D01*
X31066696Y-51410570D01*
X31086122Y-51369651D01*
X31135415Y-51274103D01*
X31197711Y-51166089D01*
X31268933Y-51051943D01*
X31345002Y-50937995D01*
X31421840Y-50830579D01*
X31489698Y-50742978D01*
X31531999Y-50690871D01*
X31572644Y-50640753D01*
X31606580Y-50598858D01*
X31626255Y-50574518D01*
X31657043Y-50539200D01*
X31702287Y-50490946D01*
X31757722Y-50433984D01*
X31819080Y-50372540D01*
X31882093Y-50310840D01*
X31942496Y-50253111D01*
X31996019Y-50203582D01*
X32037074Y-50167583D01*
X32189834Y-50043323D01*
X32331519Y-49936104D01*
X32466645Y-49842915D01*
X32599727Y-49760742D01*
X32735281Y-49686574D01*
X32824474Y-49642368D01*
X32880225Y-49615535D01*
X32932259Y-49590140D01*
X32973203Y-49569797D01*
X32989574Y-49561419D01*
X33019732Y-49547831D01*
X33067045Y-49529054D01*
X33124520Y-49507780D01*
X33173724Y-49490563D01*
X33231675Y-49470631D01*
X33282665Y-49452706D01*
X33320745Y-49438905D01*
X33338824Y-49431861D01*
X33376630Y-49417365D01*
X33425850Y-49402386D01*
X33488431Y-49386523D01*
X33566320Y-49369370D01*
X33661464Y-49350524D01*
X33775812Y-49329582D01*
X33911310Y-49306140D01*
X34069907Y-49279794D01*
X34081774Y-49277855D01*
X34122971Y-49273491D01*
X34184839Y-49269985D01*
X34262861Y-49267334D01*
X34352519Y-49265540D01*
X34449299Y-49264602D01*
X34548684Y-49264521D01*
X34646156Y-49265295D01*
G37*
X34646156Y-49265295D02*
X34737201Y-49266925D01*
X34817302Y-49269411D01*
X34881941Y-49272753D01*
X34926604Y-49276950D01*
X34932674Y-49277880D01*
X34984291Y-49286578D01*
X35049310Y-49297444D01*
X35116066Y-49308531D01*
X35135874Y-49311806D01*
X35427883Y-49369666D01*
X35701386Y-49443928D01*
X35957593Y-49534981D01*
X36197718Y-49643216D01*
X36253474Y-49671996D01*
X36309153Y-49702492D01*
X36370347Y-49737651D01*
X36431560Y-49774135D01*
X36487296Y-49808607D01*
X36532059Y-49837729D01*
X36560353Y-49858161D01*
X36561334Y-49858977D01*
X36588175Y-49879212D01*
X36607537Y-49889695D01*
X36609877Y-49890100D01*
X36626385Y-49897903D01*
X36658788Y-49919525D01*
X36703668Y-49952283D01*
X36757610Y-49993498D01*
X36817198Y-50040488D01*
X36879013Y-50090573D01*
X36939640Y-50141070D01*
X36995661Y-50189301D01*
X37028174Y-50218333D01*
X37160169Y-50342139D01*
X37278483Y-50461777D01*
X37390484Y-50585157D01*
X37503540Y-50720186D01*
X37550605Y-50779101D01*
X37610252Y-50858823D01*
X37674544Y-50951979D01*
X37739921Y-51052796D01*
X37802822Y-51155502D01*
X37859688Y-51254322D01*
X37906960Y-51343484D01*
X37934350Y-51401401D01*
X37959381Y-51456879D01*
X37986914Y-51515459D01*
X38005680Y-51553801D01*
X38026669Y-51600699D01*
X38052478Y-51666309D01*
X38081151Y-51744864D01*
X38110732Y-51830597D01*
X38139264Y-51917740D01*
X38164792Y-52000526D01*
X38185359Y-52073188D01*
X38195219Y-52112601D01*
X38208567Y-52175076D01*
X38223007Y-52250107D01*
X38236158Y-52325091D01*
X38240781Y-52353901D01*
X38250633Y-52414536D01*
X38260557Y-52470457D01*
X38269138Y-52513935D01*
X38273283Y-52531701D01*
X38281477Y-52574982D01*
X38289053Y-52638379D01*
X38295821Y-52716999D01*
X38301590Y-52805952D01*
X38306169Y-52900343D01*
X38309367Y-52995282D01*
X38310993Y-53085875D01*
X38310857Y-53167232D01*
X38308769Y-53234459D01*
X38304536Y-53282665D01*
X38302936Y-53292113D01*
X38293493Y-53319480D01*
X38281420Y-53331717D01*
X38280711Y-53331762D01*
X38265421Y-53324491D01*
X38234628Y-53304763D01*
X38192921Y-53275662D01*
X38148674Y-53243119D01*
X38093130Y-53203163D01*
X38036275Y-53165345D01*
X37985906Y-53134708D01*
X37958174Y-53119991D01*
X37916667Y-53099340D01*
X37882707Y-53080750D01*
X37866374Y-53070208D01*
X37839186Y-53055420D01*
X37792660Y-53037262D01*
X37732350Y-53017394D01*
X37663815Y-52997477D01*
X37592611Y-52979175D01*
X37524296Y-52964148D01*
X37491724Y-52958175D01*
X37430794Y-52947654D01*
X37372942Y-52937138D01*
X37326902Y-52928237D01*
X37310566Y-52924789D01*
X37258290Y-52916915D01*
X37197465Y-52913367D01*
X37137048Y-52914114D01*
X37085995Y-52919124D01*
X37059205Y-52925673D01*
X37022511Y-52931199D01*
X37000279Y-52916526D01*
X36995080Y-52883900D01*
X36997116Y-52871446D01*
X37002180Y-52830617D01*
X37004637Y-52770915D01*
X37004668Y-52698714D01*
X37002457Y-52620388D01*
X36998184Y-52542310D01*
X36992034Y-52470855D01*
X36984187Y-52412395D01*
X36983952Y-52411051D01*
X36936824Y-52214066D01*
X36866650Y-52027752D01*
X36773470Y-51852193D01*
X36657326Y-51687472D01*
X36583674Y-51601526D01*
X36516650Y-51534342D01*
X36437843Y-51464975D01*
X36354781Y-51399474D01*
X36274995Y-51343891D01*
X36228074Y-51315737D01*
X36184754Y-51291135D01*
X36148490Y-51269172D01*
X36126700Y-51254352D01*
X36125913Y-51253703D01*
X36103777Y-51241180D01*
X36063164Y-51223553D01*
X36009949Y-51202942D01*
X35950005Y-51181465D01*
X35889207Y-51161244D01*
X35833428Y-51144396D01*
X35796274Y-51134751D01*
X35755501Y-51124169D01*
X35724572Y-51113966D01*
X35713551Y-51108574D01*
X35696508Y-51103560D01*
X35659551Y-51097333D01*
X35608088Y-51090679D01*
X35547527Y-51084384D01*
X35546258Y-51084267D01*
X35477790Y-51079987D01*
X35400707Y-51078466D01*
X35320134Y-51079447D01*
X35241192Y-51082672D01*
X35169005Y-51087885D01*
X35108697Y-51094829D01*
X35065389Y-51103244D01*
X35049047Y-51109237D01*
X35028307Y-51117295D01*
X34989310Y-51129829D01*
X34938369Y-51144875D01*
X34900924Y-51155323D01*
X34820056Y-51178555D01*
X34754144Y-51201024D01*
X34694387Y-51226506D01*
X34631985Y-51258783D01*
X34558137Y-51301631D01*
X34552958Y-51304736D01*
X34496499Y-51339551D01*
X34445285Y-51373575D01*
X34395683Y-51409759D01*
X34344060Y-51451056D01*
X34286783Y-51500417D01*
X34220219Y-51560794D01*
X34140734Y-51635139D01*
X34107174Y-51666920D01*
X34038885Y-51731631D01*
X33967624Y-51798974D01*
X33898740Y-51863907D01*
X33837580Y-51921387D01*
X33789674Y-51966206D01*
X33730352Y-52021752D01*
X33661849Y-52086304D01*
X33593281Y-52151251D01*
X33541692Y-52200398D01*
X33483708Y-52255511D01*
X33414866Y-52320434D01*
X33343012Y-52387793D01*
X33275994Y-52450216D01*
X33263438Y-52461851D01*
X33205299Y-52515890D01*
X33147298Y-52570192D01*
X33094868Y-52619644D01*
X33053442Y-52659134D01*
X33040753Y-52671401D01*
X33005820Y-52705395D01*
X32957987Y-52751931D01*
X32902565Y-52805844D01*
X32844865Y-52861968D01*
X32820532Y-52885633D01*
X32678261Y-53037915D01*
X32560160Y-53194929D01*
X32465189Y-53358294D01*
X32392311Y-53529632D01*
X32375661Y-53579451D01*
X32342036Y-53715005D01*
X32321301Y-53863209D01*
X32313232Y-54018465D01*
X32317603Y-54175178D01*
X32334191Y-54327751D01*
X32362772Y-54470587D01*
X32403119Y-54598089D01*
X32417947Y-54633551D01*
X32449371Y-54702805D01*
X32479347Y-54766968D01*
X32505928Y-54822044D01*
X32527164Y-54864038D01*
X32541109Y-54888956D01*
X32544915Y-54893901D01*
X32555947Y-54906854D01*
X32576814Y-54935177D01*
X32603280Y-54973095D01*
X32607040Y-54978618D01*
X32676678Y-55068621D01*
X32764646Y-55162610D01*
X32865450Y-55255762D01*
X32973599Y-55343254D01*
X33083598Y-55420260D01*
X33165492Y-55469043D01*
X33214555Y-55492660D01*
X33280892Y-55520343D01*
X33357276Y-55549477D01*
X33436476Y-55577445D01*
X33511263Y-55601633D01*
X33574406Y-55619425D01*
X33593527Y-55623897D01*
X33649780Y-55633176D01*
X33724855Y-55641425D01*
X33812179Y-55648045D01*
X33905178Y-55652433D01*
X33906013Y-55652461D01*
X34117602Y-55659347D01*
X34110714Y-55825899D01*
X34113271Y-56015021D01*
X34135888Y-56201296D01*
X34172836Y-56360751D01*
X34188635Y-56407590D01*
X34211464Y-56465637D01*
X34238996Y-56529945D01*
X34268908Y-56595563D01*
X34298875Y-56657544D01*
X34326572Y-56710941D01*
X34349674Y-56750804D01*
X34365857Y-56772185D01*
X34366315Y-56772576D01*
X34385172Y-56793866D01*
X34405327Y-56824224D01*
X34420447Y-56853276D01*
X34424674Y-56868120D01*
X34412851Y-56871919D01*
X34380744Y-56873911D01*
X34333391Y-56874249D01*
X34275830Y-56873087D01*
X34213101Y-56870580D01*
X34150243Y-56866883D01*
X34092294Y-56862150D01*
X34044295Y-56856535D01*
X34043674Y-56856444D01*
X33933896Y-56839313D01*
X33821886Y-56819887D01*
X33711594Y-56799011D01*
X33606967Y-56777526D01*
X33511954Y-56756275D01*
X33430504Y-56736103D01*
X33366565Y-56717850D01*
X33326124Y-56703271D01*
X33297587Y-56691943D01*
X33252433Y-56675316D01*
X33198143Y-56656113D01*
X33167374Y-56645531D01*
X33033809Y-56594351D01*
X32887160Y-56527811D01*
X32732356Y-56448456D01*
X32574328Y-56358832D01*
X32418007Y-56261485D01*
X32397411Y-56247961D01*
X32295436Y-56176047D01*
X32183227Y-56089077D01*
X32066363Y-55991876D01*
X31950419Y-55889267D01*
X31840972Y-55786076D01*
X31743599Y-55687126D01*
X31721251Y-55663021D01*
X31677000Y-55614621D01*
X31633641Y-55567218D01*
X31597371Y-55527585D01*
X31581128Y-55509851D01*
X31552719Y-55476718D01*
X31514154Y-55428877D01*
X31469746Y-55371994D01*
X31423811Y-55311732D01*
X31380663Y-55253758D01*
X31344617Y-55203736D01*
X31319987Y-55167331D01*
X31318764Y-55165377D01*
X31295483Y-55128794D01*
X31268117Y-55086974D01*
X31261118Y-55076477D01*
X31213774Y-55000579D01*
X31161044Y-54906794D01*
X31106218Y-54801109D01*
X31077043Y-54741501D01*
X31050147Y-54685770D01*
X31024719Y-54633751D01*
X31004376Y-54592808D01*
X30995998Y-54576401D01*
X30982510Y-54546204D01*
X30963948Y-54498827D01*
X30942972Y-54441281D01*
X30926114Y-54392251D01*
X30905828Y-54332544D01*
X30886744Y-54278178D01*
X30871230Y-54235794D01*
X30862750Y-54214451D01*
X30848963Y-54174675D01*
X30832509Y-54113594D01*
X30814156Y-54035070D01*
X30794673Y-53942964D01*
X30774826Y-53841137D01*
X30755383Y-53733451D01*
X30737114Y-53623768D01*
X30720784Y-53515949D01*
X30713749Y-53465151D01*
X30709234Y-53416004D01*
X30705716Y-53346840D01*
X30703193Y-53262633D01*
X30701664Y-53168357D01*
X30701128Y-53068986D01*
X30701584Y-52969492D01*
X30703031Y-52874851D01*
X30705467Y-52790036D01*
X30708891Y-52720020D01*
X30713303Y-52669778D01*
X30713936Y-52665051D01*
X30734676Y-52526402D01*
X30756758Y-52392834D01*
X30779434Y-52268209D01*
X30801958Y-52156388D01*
X30823581Y-52061235D01*
X30843558Y-51986611D01*
X30847795Y-51972901D01*
X30876807Y-51884713D01*
X30908080Y-51794180D01*
X30939568Y-51706883D01*
X30969222Y-51628405D01*
X30994994Y-51564326D01*
X31010863Y-51528401D01*
X31037651Y-51471830D01*
X31066696Y-51410570D01*
X31086122Y-51369651D01*
X31135415Y-51274103D01*
X31197711Y-51166089D01*
X31268933Y-51051943D01*
X31345002Y-50937995D01*
X31421840Y-50830579D01*
X31489698Y-50742978D01*
X31531999Y-50690871D01*
X31572644Y-50640753D01*
X31606580Y-50598858D01*
X31626255Y-50574518D01*
X31657043Y-50539200D01*
X31702287Y-50490946D01*
X31757722Y-50433984D01*
X31819080Y-50372540D01*
X31882093Y-50310840D01*
X31942496Y-50253111D01*
X31996019Y-50203582D01*
X32037074Y-50167583D01*
X32189834Y-50043323D01*
X32331519Y-49936104D01*
X32466645Y-49842915D01*
X32599727Y-49760742D01*
X32735281Y-49686574D01*
X32824474Y-49642368D01*
X32880225Y-49615535D01*
X32932259Y-49590140D01*
X32973203Y-49569797D01*
X32989574Y-49561419D01*
X33019732Y-49547831D01*
X33067045Y-49529054D01*
X33124520Y-49507780D01*
X33173724Y-49490563D01*
X33231675Y-49470631D01*
X33282665Y-49452706D01*
X33320745Y-49438905D01*
X33338824Y-49431861D01*
X33376630Y-49417365D01*
X33425850Y-49402386D01*
X33488431Y-49386523D01*
X33566320Y-49369370D01*
X33661464Y-49350524D01*
X33775812Y-49329582D01*
X33911310Y-49306140D01*
X34069907Y-49279794D01*
X34081774Y-49277855D01*
X34122971Y-49273491D01*
X34184839Y-49269985D01*
X34262861Y-49267334D01*
X34352519Y-49265540D01*
X34449299Y-49264602D01*
X34548684Y-49264521D01*
X34646156Y-49265295D01*
D11*
%TO.C,D1*%
X26700874Y-64950001D02*
X28700874Y-64950001D01*
X28700874Y-64950001D02*
X28700874Y-61050001D01*
X26700874Y-64950001D02*
X26700874Y-61050001D01*
D13*
%TO.C,IC1*%
X47375000Y-79187000D02*
G75*
G03X47375000Y-79187000I-125000J0D01*
G01*
D14*
X53900000Y-77612000D02*
X47600000Y-77612000D01*
X53900000Y-71312000D02*
X53900000Y-77612000D01*
X47600000Y-71312000D02*
X53900000Y-71312000D01*
X47600000Y-77612000D02*
X47600000Y-71312000D01*
D11*
%TO.C,R7*%
X40824721Y-74710000D02*
X41150279Y-74710000D01*
X40824721Y-73690000D02*
X41150279Y-73690000D01*
%TO.C,R6*%
X40812221Y-73235000D02*
X41137779Y-73235000D01*
X40812221Y-72215000D02*
X41137779Y-72215000D01*
%TO.C,J15*%
X24700874Y-62770001D02*
X26030874Y-62770001D01*
X26030874Y-62770001D02*
X26030874Y-64100001D01*
X26030874Y-65370001D02*
X26030874Y-85750001D01*
X23370874Y-85750001D02*
X26030874Y-85750001D01*
X23370874Y-65370001D02*
X23370874Y-85750001D01*
X23370874Y-65370001D02*
X26030874Y-65370001D01*
%TO.C,J14*%
X53200000Y-95170000D02*
X54530000Y-95170000D01*
X54530000Y-95170000D02*
X54530000Y-96500000D01*
X54530000Y-97770000D02*
X54530000Y-107990000D01*
X51870000Y-107990000D02*
X54530000Y-107990000D01*
X51870000Y-97770000D02*
X51870000Y-107990000D01*
X51870000Y-97770000D02*
X54530000Y-97770000D01*
%TO.C,J13*%
X56800000Y-95170000D02*
X58130000Y-95170000D01*
X58130000Y-95170000D02*
X58130000Y-96500000D01*
X58130000Y-97770000D02*
X58130000Y-107990000D01*
X55470000Y-107990000D02*
X58130000Y-107990000D01*
X55470000Y-97770000D02*
X55470000Y-107990000D01*
X55470000Y-97770000D02*
X58130000Y-97770000D01*
%TO.C,J12*%
X30510000Y-104000000D02*
X30510000Y-102670000D01*
X30510000Y-102670000D02*
X31840000Y-102670000D01*
X30510000Y-105270000D02*
X33110000Y-105270000D01*
X33110000Y-105270000D02*
X33110000Y-102670000D01*
X33110000Y-102670000D02*
X50950000Y-102670000D01*
X50950000Y-107870000D02*
X50950000Y-102670000D01*
X30510000Y-107870000D02*
X50950000Y-107870000D01*
X30510000Y-107870000D02*
X30510000Y-105270000D01*
%TO.C,J11*%
X60300000Y-105370000D02*
X61630000Y-105370000D01*
X61630000Y-105370000D02*
X61630000Y-106700000D01*
X61630000Y-107910000D02*
X61630000Y-108030000D01*
X58970000Y-107910000D02*
X58970000Y-108030000D01*
X58970000Y-108030000D02*
X61630000Y-108030000D01*
%TO.C,J10*%
X58970000Y-103600000D02*
X58970000Y-102270000D01*
X58970000Y-102270000D02*
X60300000Y-102270000D01*
X61570000Y-102270000D02*
X64170000Y-102270000D01*
X64170000Y-104930000D02*
X64170000Y-102270000D01*
X61570000Y-104930000D02*
X64170000Y-104930000D01*
X61570000Y-104930000D02*
X61570000Y-102270000D01*
%TO.C,J9*%
X58970000Y-100000000D02*
X58970000Y-98670000D01*
X58970000Y-98670000D02*
X60300000Y-98670000D01*
X61570000Y-98670000D02*
X64170000Y-98670000D01*
X64170000Y-101330000D02*
X64170000Y-98670000D01*
X61570000Y-101330000D02*
X64170000Y-101330000D01*
X61570000Y-101330000D02*
X61570000Y-98670000D01*
%TO.C,J8*%
X58970000Y-96400000D02*
X58970000Y-95070000D01*
X58970000Y-95070000D02*
X60300000Y-95070000D01*
X61570000Y-95070000D02*
X64170000Y-95070000D01*
X64170000Y-97730000D02*
X64170000Y-95070000D01*
X61570000Y-97730000D02*
X64170000Y-97730000D01*
X61570000Y-97730000D02*
X61570000Y-95070000D01*
%TO.C,J7*%
X24400000Y-104130000D02*
X23070000Y-104130000D01*
X23070000Y-104130000D02*
X23070000Y-102800000D01*
X23070000Y-101530000D02*
X23070000Y-93850000D01*
X25730000Y-93850000D02*
X23070000Y-93850000D01*
X25730000Y-101530000D02*
X25730000Y-93850000D01*
X25730000Y-101530000D02*
X23070000Y-101530000D01*
%TO.C,J6*%
X67470000Y-105800000D02*
X67470000Y-104470000D01*
X67470000Y-104470000D02*
X68800000Y-104470000D01*
X70070000Y-104470000D02*
X72670000Y-104470000D01*
X72670000Y-107130000D02*
X72670000Y-104470000D01*
X70070000Y-107130000D02*
X72670000Y-107130000D01*
X70070000Y-107130000D02*
X70070000Y-104470000D01*
D15*
%TO.C,IC3*%
X43200000Y-58900000D02*
G75*
G03X43200000Y-58800000I0J50000D01*
G01*
X43200000Y-58800000D02*
G75*
G03X43200000Y-58900000I0J-50000D01*
G01*
X43200000Y-58800000D02*
X43200000Y-58800000D01*
X43200000Y-58900000D02*
X43200000Y-58900000D01*
X46950000Y-59500000D02*
X46950000Y-60500000D01*
X46615000Y-59500000D02*
X46950000Y-59500000D01*
X42450000Y-59500000D02*
X42785000Y-59500000D01*
X42450000Y-60500000D02*
X42450000Y-59500000D01*
X46950000Y-62500000D02*
X46950000Y-61500000D01*
X46700000Y-62500000D02*
X46950000Y-62500000D01*
X42450000Y-61500000D02*
X42450000Y-61500000D01*
X42450000Y-62500000D02*
X42450000Y-61500000D01*
X42785000Y-62500000D02*
X42450000Y-62500000D01*
%TO.C,IC2*%
X48100000Y-53650000D02*
G75*
G02X48000000Y-53650000I-50000J0D01*
G01*
X48000000Y-53650000D02*
G75*
G02X48100000Y-53650000I50000J0D01*
G01*
X48000000Y-53650000D02*
X48000000Y-53650000D01*
X48100000Y-53650000D02*
X48100000Y-53650000D01*
D11*
%TO.C,C25*%
X52790000Y-54837221D02*
X52790000Y-55162779D01*
X53810000Y-54837221D02*
X53810000Y-55162779D01*
%TO.C,C24*%
X51290000Y-54837221D02*
X51290000Y-55162779D01*
X52310000Y-54837221D02*
X52310000Y-55162779D01*
%TO.C,C23*%
X49462779Y-51490000D02*
X49137221Y-51490000D01*
X49462779Y-52510000D02*
X49137221Y-52510000D01*
%TO.C,C22*%
X44875279Y-63390000D02*
X44549721Y-63390000D01*
X44875279Y-64410000D02*
X44549721Y-64410000D01*
%TO.C,C21*%
X44657221Y-59040000D02*
X44982779Y-59040000D01*
X44657221Y-58020000D02*
X44982779Y-58020000D01*
%TO.C,C20*%
X49337221Y-57310000D02*
X49662779Y-57310000D01*
X49337221Y-56290000D02*
X49662779Y-56290000D01*
%TO.C,C2*%
X57090874Y-74949721D02*
X57090874Y-75275279D01*
X58110874Y-74949721D02*
X58110874Y-75275279D01*
%TO.C,C7*%
X42562779Y-77610000D02*
X42237221Y-77610000D01*
X42562779Y-76590000D02*
X42237221Y-76590000D01*
D16*
%TO.C,Y2*%
X47792000Y-83222000D02*
G75*
G03X47792000Y-86778000I0J-1778000D01*
G01*
D17*
X47792000Y-82714000D02*
G75*
G03X47792000Y-87286000I0J-2286000D01*
G01*
X53634000Y-87286000D02*
G75*
G03X53634000Y-82714000I0J2286000D01*
G01*
D16*
X53634000Y-86778000D02*
G75*
G03X53634000Y-83222000I0J1778000D01*
G01*
D17*
X47792000Y-87286000D02*
X53634000Y-87286000D01*
X47792000Y-82714000D02*
X53634000Y-82714000D01*
D16*
X47792000Y-86778000D02*
X53634000Y-86778000D01*
X53634000Y-83222000D02*
X47792000Y-83222000D01*
X50459000Y-84111000D02*
X50967000Y-84111000D01*
X50967000Y-84111000D02*
X50967000Y-85889000D01*
X50967000Y-85889000D02*
X50459000Y-85889000D01*
X50459000Y-85889000D02*
X50459000Y-84111000D01*
X51348000Y-84111000D02*
X51348000Y-85000000D01*
X51348000Y-85000000D02*
X51348000Y-85889000D01*
X50078000Y-84111000D02*
X50078000Y-85000000D01*
X50078000Y-85000000D02*
X50078000Y-85889000D01*
X51348000Y-85000000D02*
X51983000Y-85000000D01*
X50078000Y-85000000D02*
X49443000Y-85000000D01*
D11*
%TO.C,U1*%
X29390000Y-82160000D02*
X30650000Y-82160000D01*
X36210000Y-82160000D02*
X34950000Y-82160000D01*
X29390000Y-78400000D02*
X29390000Y-82160000D01*
X36210000Y-76150000D02*
X36210000Y-82160000D01*
%TO.C,SW1*%
X58600000Y-64600000D02*
X58600000Y-60100000D01*
X54600000Y-65850000D02*
X56100000Y-65850000D01*
X52100000Y-60100000D02*
X52100000Y-64600000D01*
X56100000Y-58850000D02*
X54600000Y-58850000D01*
%TO.C,R5*%
X41537221Y-84390000D02*
X41862779Y-84390000D01*
X41537221Y-85410000D02*
X41862779Y-85410000D01*
%TO.C,R4*%
X38150279Y-84810000D02*
X37824721Y-84810000D01*
X38150279Y-83790000D02*
X37824721Y-83790000D01*
%TO.C,R3*%
X51549721Y-80890000D02*
X51875279Y-80890000D01*
X51549721Y-81910000D02*
X51875279Y-81910000D01*
%TO.C,R1*%
X28990000Y-67275279D02*
X28990000Y-66949721D01*
X30010000Y-67275279D02*
X30010000Y-66949721D01*
%TO.C,J3*%
X33930000Y-70530000D02*
X31270000Y-70530000D01*
X33930000Y-70530000D02*
X33930000Y-65390000D01*
X33930000Y-65390000D02*
X31270000Y-65390000D01*
X31270000Y-70530000D02*
X31270000Y-65390000D01*
X31270000Y-73130000D02*
X31270000Y-71800000D01*
X32600000Y-73130000D02*
X31270000Y-73130000D01*
%TO.C,J2*%
X36930000Y-85570000D02*
X36930000Y-88230000D01*
X36930000Y-85570000D02*
X31790000Y-85570000D01*
X31790000Y-85570000D02*
X31790000Y-88230000D01*
X36930000Y-88230000D02*
X31790000Y-88230000D01*
X39530000Y-88230000D02*
X38200000Y-88230000D01*
X39530000Y-86900000D02*
X39530000Y-88230000D01*
%TO.C,J1*%
X41170000Y-71430000D02*
X38570000Y-71430000D01*
X41170000Y-71430000D02*
X41170000Y-58610000D01*
X41170000Y-58610000D02*
X35970000Y-58610000D01*
X35970000Y-68830000D02*
X35970000Y-58610000D01*
X38570000Y-68830000D02*
X35970000Y-68830000D01*
X38570000Y-71430000D02*
X38570000Y-68830000D01*
X35970000Y-71430000D02*
X35970000Y-70100000D01*
X37300000Y-71430000D02*
X35970000Y-71430000D01*
D18*
%TO.C,FB2*%
X57899720Y-72198121D02*
X57899720Y-71801881D01*
X57899720Y-71801881D02*
X57300280Y-71801881D01*
X57300280Y-72198121D02*
X57300280Y-71801881D01*
X57899720Y-72198121D02*
X57300280Y-72198121D01*
%TO.C,FB1*%
X29098120Y-74800280D02*
X28701880Y-74800280D01*
X28701880Y-74800280D02*
X28701880Y-75399720D01*
X29098120Y-75399720D02*
X28701880Y-75399720D01*
X29098120Y-74800280D02*
X29098120Y-75399720D01*
%TO.C,F1*%
X27999654Y-68247660D02*
X27999654Y-67851420D01*
X27999654Y-67851420D02*
X27202094Y-67851420D01*
X27202094Y-68247660D02*
X27202094Y-67851420D01*
X27999654Y-68247660D02*
X27202094Y-68247660D01*
D11*
%TO.C,D3*%
X41540000Y-86437500D02*
X41540000Y-89122500D01*
X41540000Y-89122500D02*
X43460000Y-89122500D01*
X43460000Y-89122500D02*
X43460000Y-86437500D01*
%TO.C,D2*%
X30660874Y-71837500D02*
X30660874Y-69152500D01*
X30660874Y-69152500D02*
X28740874Y-69152500D01*
X28740874Y-69152500D02*
X28740874Y-71837500D01*
%TO.C,C17*%
X42250279Y-83410000D02*
X41924721Y-83410000D01*
X42250279Y-82390000D02*
X41924721Y-82390000D01*
%TO.C,C16*%
X42250279Y-81010000D02*
X41924721Y-81010000D01*
X42250279Y-79990000D02*
X41924721Y-79990000D01*
%TO.C,C14*%
X29724721Y-84890000D02*
X30050279Y-84890000D01*
X29724721Y-85910000D02*
X30050279Y-85910000D01*
%TO.C,C13*%
X29275279Y-74010000D02*
X28949721Y-74010000D01*
X29275279Y-72990000D02*
X28949721Y-72990000D01*
%TO.C,C12*%
X46262779Y-70010000D02*
X45937221Y-70010000D01*
X46262779Y-68990000D02*
X45937221Y-68990000D01*
%TO.C,C11*%
X46275279Y-68610000D02*
X45949721Y-68610000D01*
X46275279Y-67590000D02*
X45949721Y-67590000D01*
%TO.C,C10*%
X55090000Y-69262779D02*
X55090000Y-68937221D01*
X56110000Y-69262779D02*
X56110000Y-68937221D01*
%TO.C,C9*%
X56590000Y-69250279D02*
X56590000Y-68924721D01*
X57610000Y-69250279D02*
X57610000Y-68924721D01*
%TO.C,C8*%
X42550279Y-79310000D02*
X42224721Y-79310000D01*
X42550279Y-78290000D02*
X42224721Y-78290000D01*
%TO.C,C6*%
X46190000Y-79475279D02*
X46190000Y-79149721D01*
X47210000Y-79475279D02*
X47210000Y-79149721D01*
%TO.C,C4*%
X59737221Y-72290000D02*
X60062779Y-72290000D01*
X59737221Y-73310000D02*
X60062779Y-73310000D01*
%TO.C,C3*%
X59737221Y-73790000D02*
X60062779Y-73790000D01*
X59737221Y-74810000D02*
X60062779Y-74810000D01*
%TO.C,C1*%
X59737221Y-75290000D02*
X60062779Y-75290000D01*
X59737221Y-76310000D02*
X60062779Y-76310000D01*
%TO.C,D1*%
D10*
X26153254Y-63438096D02*
X25153254Y-63438096D01*
X25153254Y-63200001D01*
X25200874Y-63057143D01*
X25296112Y-62961905D01*
X25391350Y-62914286D01*
X25581826Y-62866667D01*
X25724683Y-62866667D01*
X25915159Y-62914286D01*
X26010397Y-62961905D01*
X26105635Y-63057143D01*
X26153254Y-63200001D01*
X26153254Y-63438096D01*
X26153254Y-61914286D02*
X26153254Y-62485715D01*
X26153254Y-62200001D02*
X25153254Y-62200001D01*
X25296112Y-62295239D01*
X25391350Y-62390477D01*
X25438969Y-62485715D01*
%TO.C,IC1*%
D13*
X51324523Y-75701761D02*
X50054523Y-75701761D01*
X51203571Y-74371285D02*
X51264047Y-74431761D01*
X51324523Y-74613190D01*
X51324523Y-74734142D01*
X51264047Y-74915571D01*
X51143095Y-75036523D01*
X51022142Y-75097000D01*
X50780238Y-75157476D01*
X50598809Y-75157476D01*
X50356904Y-75097000D01*
X50235952Y-75036523D01*
X50115000Y-74915571D01*
X50054523Y-74734142D01*
X50054523Y-74613190D01*
X50115000Y-74431761D01*
X50175476Y-74371285D01*
X51324523Y-73161761D02*
X51324523Y-73887476D01*
X51324523Y-73524619D02*
X50054523Y-73524619D01*
X50235952Y-73645571D01*
X50356904Y-73766523D01*
X50417380Y-73887476D01*
%TO.C,R7*%
D10*
X40820833Y-73222380D02*
X40487500Y-72746190D01*
X40249404Y-73222380D02*
X40249404Y-72222380D01*
X40630357Y-72222380D01*
X40725595Y-72270000D01*
X40773214Y-72317619D01*
X40820833Y-72412857D01*
X40820833Y-72555714D01*
X40773214Y-72650952D01*
X40725595Y-72698571D01*
X40630357Y-72746190D01*
X40249404Y-72746190D01*
X41154166Y-72222380D02*
X41820833Y-72222380D01*
X41392261Y-73222380D01*
%TO.C,R6*%
X40808333Y-71747380D02*
X40475000Y-71271190D01*
X40236904Y-71747380D02*
X40236904Y-70747380D01*
X40617857Y-70747380D01*
X40713095Y-70795000D01*
X40760714Y-70842619D01*
X40808333Y-70937857D01*
X40808333Y-71080714D01*
X40760714Y-71175952D01*
X40713095Y-71223571D01*
X40617857Y-71271190D01*
X40236904Y-71271190D01*
X41665476Y-70747380D02*
X41475000Y-70747380D01*
X41379761Y-70795000D01*
X41332142Y-70842619D01*
X41236904Y-70985476D01*
X41189285Y-71175952D01*
X41189285Y-71556904D01*
X41236904Y-71652142D01*
X41284523Y-71699761D01*
X41379761Y-71747380D01*
X41570238Y-71747380D01*
X41665476Y-71699761D01*
X41713095Y-71652142D01*
X41760714Y-71556904D01*
X41760714Y-71318809D01*
X41713095Y-71223571D01*
X41665476Y-71175952D01*
X41570238Y-71128333D01*
X41379761Y-71128333D01*
X41284523Y-71175952D01*
X41236904Y-71223571D01*
X41189285Y-71318809D01*
%TO.C,J15*%
X23891350Y-60782381D02*
X23891350Y-61496667D01*
X23843731Y-61639524D01*
X23748493Y-61734762D01*
X23605635Y-61782381D01*
X23510397Y-61782381D01*
X24891350Y-61782381D02*
X24319921Y-61782381D01*
X24605635Y-61782381D02*
X24605635Y-60782381D01*
X24510397Y-60925239D01*
X24415159Y-61020477D01*
X24319921Y-61068096D01*
X25796112Y-60782381D02*
X25319921Y-60782381D01*
X25272302Y-61258572D01*
X25319921Y-61210953D01*
X25415159Y-61163334D01*
X25653254Y-61163334D01*
X25748493Y-61210953D01*
X25796112Y-61258572D01*
X25843731Y-61353810D01*
X25843731Y-61591905D01*
X25796112Y-61687143D01*
X25748493Y-61734762D01*
X25653254Y-61782381D01*
X25415159Y-61782381D01*
X25319921Y-61734762D01*
X25272302Y-61687143D01*
%TO.C,J14*%
X52390476Y-93182380D02*
X52390476Y-93896666D01*
X52342857Y-94039523D01*
X52247619Y-94134761D01*
X52104761Y-94182380D01*
X52009523Y-94182380D01*
X53390476Y-94182380D02*
X52819047Y-94182380D01*
X53104761Y-94182380D02*
X53104761Y-93182380D01*
X53009523Y-93325238D01*
X52914285Y-93420476D01*
X52819047Y-93468095D01*
X54247619Y-93515714D02*
X54247619Y-94182380D01*
X54009523Y-93134761D02*
X53771428Y-93849047D01*
X54390476Y-93849047D01*
%TO.C,J13*%
X55990476Y-93182380D02*
X55990476Y-93896666D01*
X55942857Y-94039523D01*
X55847619Y-94134761D01*
X55704761Y-94182380D01*
X55609523Y-94182380D01*
X56990476Y-94182380D02*
X56419047Y-94182380D01*
X56704761Y-94182380D02*
X56704761Y-93182380D01*
X56609523Y-93325238D01*
X56514285Y-93420476D01*
X56419047Y-93468095D01*
X57323809Y-93182380D02*
X57942857Y-93182380D01*
X57609523Y-93563333D01*
X57752380Y-93563333D01*
X57847619Y-93610952D01*
X57895238Y-93658571D01*
X57942857Y-93753809D01*
X57942857Y-93991904D01*
X57895238Y-94087142D01*
X57847619Y-94134761D01*
X57752380Y-94182380D01*
X57466666Y-94182380D01*
X57371428Y-94134761D01*
X57323809Y-94087142D01*
%TO.C,J12*%
X28522380Y-106079523D02*
X29236666Y-106079523D01*
X29379523Y-106127142D01*
X29474761Y-106222380D01*
X29522380Y-106365238D01*
X29522380Y-106460476D01*
X29522380Y-105079523D02*
X29522380Y-105650952D01*
X29522380Y-105365238D02*
X28522380Y-105365238D01*
X28665238Y-105460476D01*
X28760476Y-105555714D01*
X28808095Y-105650952D01*
X28617619Y-104698571D02*
X28570000Y-104650952D01*
X28522380Y-104555714D01*
X28522380Y-104317619D01*
X28570000Y-104222380D01*
X28617619Y-104174761D01*
X28712857Y-104127142D01*
X28808095Y-104127142D01*
X28950952Y-104174761D01*
X29522380Y-104746190D01*
X29522380Y-104127142D01*
%TO.C,J11*%
X59490476Y-103382380D02*
X59490476Y-104096666D01*
X59442857Y-104239523D01*
X59347619Y-104334761D01*
X59204761Y-104382380D01*
X59109523Y-104382380D01*
X60490476Y-104382380D02*
X59919047Y-104382380D01*
X60204761Y-104382380D02*
X60204761Y-103382380D01*
X60109523Y-103525238D01*
X60014285Y-103620476D01*
X59919047Y-103668095D01*
X61442857Y-104382380D02*
X60871428Y-104382380D01*
X61157142Y-104382380D02*
X61157142Y-103382380D01*
X61061904Y-103525238D01*
X60966666Y-103620476D01*
X60871428Y-103668095D01*
%TO.C,J10*%
X56982380Y-104409523D02*
X57696666Y-104409523D01*
X57839523Y-104457142D01*
X57934761Y-104552380D01*
X57982380Y-104695238D01*
X57982380Y-104790476D01*
X57982380Y-103409523D02*
X57982380Y-103980952D01*
X57982380Y-103695238D02*
X56982380Y-103695238D01*
X57125238Y-103790476D01*
X57220476Y-103885714D01*
X57268095Y-103980952D01*
X56982380Y-102790476D02*
X56982380Y-102695238D01*
X57030000Y-102600000D01*
X57077619Y-102552380D01*
X57172857Y-102504761D01*
X57363333Y-102457142D01*
X57601428Y-102457142D01*
X57791904Y-102504761D01*
X57887142Y-102552380D01*
X57934761Y-102600000D01*
X57982380Y-102695238D01*
X57982380Y-102790476D01*
X57934761Y-102885714D01*
X57887142Y-102933333D01*
X57791904Y-102980952D01*
X57601428Y-103028571D01*
X57363333Y-103028571D01*
X57172857Y-102980952D01*
X57077619Y-102933333D01*
X57030000Y-102885714D01*
X56982380Y-102790476D01*
%TO.C,J9*%
X56982380Y-100333333D02*
X57696666Y-100333333D01*
X57839523Y-100380952D01*
X57934761Y-100476190D01*
X57982380Y-100619047D01*
X57982380Y-100714285D01*
X57982380Y-99809523D02*
X57982380Y-99619047D01*
X57934761Y-99523809D01*
X57887142Y-99476190D01*
X57744285Y-99380952D01*
X57553809Y-99333333D01*
X57172857Y-99333333D01*
X57077619Y-99380952D01*
X57030000Y-99428571D01*
X56982380Y-99523809D01*
X56982380Y-99714285D01*
X57030000Y-99809523D01*
X57077619Y-99857142D01*
X57172857Y-99904761D01*
X57410952Y-99904761D01*
X57506190Y-99857142D01*
X57553809Y-99809523D01*
X57601428Y-99714285D01*
X57601428Y-99523809D01*
X57553809Y-99428571D01*
X57506190Y-99380952D01*
X57410952Y-99333333D01*
%TO.C,J8*%
X56982380Y-96733333D02*
X57696666Y-96733333D01*
X57839523Y-96780952D01*
X57934761Y-96876190D01*
X57982380Y-97019047D01*
X57982380Y-97114285D01*
X57410952Y-96114285D02*
X57363333Y-96209523D01*
X57315714Y-96257142D01*
X57220476Y-96304761D01*
X57172857Y-96304761D01*
X57077619Y-96257142D01*
X57030000Y-96209523D01*
X56982380Y-96114285D01*
X56982380Y-95923809D01*
X57030000Y-95828571D01*
X57077619Y-95780952D01*
X57172857Y-95733333D01*
X57220476Y-95733333D01*
X57315714Y-95780952D01*
X57363333Y-95828571D01*
X57410952Y-95923809D01*
X57410952Y-96114285D01*
X57458571Y-96209523D01*
X57506190Y-96257142D01*
X57601428Y-96304761D01*
X57791904Y-96304761D01*
X57887142Y-96257142D01*
X57934761Y-96209523D01*
X57982380Y-96114285D01*
X57982380Y-95923809D01*
X57934761Y-95828571D01*
X57887142Y-95780952D01*
X57791904Y-95733333D01*
X57601428Y-95733333D01*
X57506190Y-95780952D01*
X57458571Y-95828571D01*
X57410952Y-95923809D01*
%TO.C,J7*%
X24066666Y-105022380D02*
X24066666Y-105736666D01*
X24019047Y-105879523D01*
X23923809Y-105974761D01*
X23780952Y-106022380D01*
X23685714Y-106022380D01*
X24447619Y-105022380D02*
X25114285Y-105022380D01*
X24685714Y-106022380D01*
%TO.C,J6*%
X65482380Y-106133333D02*
X66196666Y-106133333D01*
X66339523Y-106180952D01*
X66434761Y-106276190D01*
X66482380Y-106419047D01*
X66482380Y-106514285D01*
X65482380Y-105228571D02*
X65482380Y-105419047D01*
X65530000Y-105514285D01*
X65577619Y-105561904D01*
X65720476Y-105657142D01*
X65910952Y-105704761D01*
X66291904Y-105704761D01*
X66387142Y-105657142D01*
X66434761Y-105609523D01*
X66482380Y-105514285D01*
X66482380Y-105323809D01*
X66434761Y-105228571D01*
X66387142Y-105180952D01*
X66291904Y-105133333D01*
X66053809Y-105133333D01*
X65958571Y-105180952D01*
X65910952Y-105228571D01*
X65863333Y-105323809D01*
X65863333Y-105514285D01*
X65910952Y-105609523D01*
X65958571Y-105657142D01*
X66053809Y-105704761D01*
%TO.C,IC3*%
D13*
X43460238Y-61574523D02*
X43460238Y-60304523D01*
X44790714Y-61453571D02*
X44730238Y-61514047D01*
X44548809Y-61574523D01*
X44427857Y-61574523D01*
X44246428Y-61514047D01*
X44125476Y-61393095D01*
X44065000Y-61272142D01*
X44004523Y-61030238D01*
X44004523Y-60848809D01*
X44065000Y-60606904D01*
X44125476Y-60485952D01*
X44246428Y-60365000D01*
X44427857Y-60304523D01*
X44548809Y-60304523D01*
X44730238Y-60365000D01*
X44790714Y-60425476D01*
X45214047Y-60304523D02*
X46000238Y-60304523D01*
X45576904Y-60788333D01*
X45758333Y-60788333D01*
X45879285Y-60848809D01*
X45939761Y-60909285D01*
X46000238Y-61030238D01*
X46000238Y-61332619D01*
X45939761Y-61453571D01*
X45879285Y-61514047D01*
X45758333Y-61574523D01*
X45395476Y-61574523D01*
X45274523Y-61514047D01*
X45214047Y-61453571D01*
%TO.C,IC2*%
X48160238Y-54974523D02*
X48160238Y-53704523D01*
X49490714Y-54853571D02*
X49430238Y-54914047D01*
X49248809Y-54974523D01*
X49127857Y-54974523D01*
X48946428Y-54914047D01*
X48825476Y-54793095D01*
X48765000Y-54672142D01*
X48704523Y-54430238D01*
X48704523Y-54248809D01*
X48765000Y-54006904D01*
X48825476Y-53885952D01*
X48946428Y-53765000D01*
X49127857Y-53704523D01*
X49248809Y-53704523D01*
X49430238Y-53765000D01*
X49490714Y-53825476D01*
X49974523Y-53825476D02*
X50035000Y-53765000D01*
X50155952Y-53704523D01*
X50458333Y-53704523D01*
X50579285Y-53765000D01*
X50639761Y-53825476D01*
X50700238Y-53946428D01*
X50700238Y-54067380D01*
X50639761Y-54248809D01*
X49914047Y-54974523D01*
X50700238Y-54974523D01*
%TO.C,C25*%
D10*
X55457142Y-55642857D02*
X55504761Y-55690476D01*
X55552380Y-55833333D01*
X55552380Y-55928571D01*
X55504761Y-56071428D01*
X55409523Y-56166666D01*
X55314285Y-56214285D01*
X55123809Y-56261904D01*
X54980952Y-56261904D01*
X54790476Y-56214285D01*
X54695238Y-56166666D01*
X54600000Y-56071428D01*
X54552380Y-55928571D01*
X54552380Y-55833333D01*
X54600000Y-55690476D01*
X54647619Y-55642857D01*
X54647619Y-55261904D02*
X54600000Y-55214285D01*
X54552380Y-55119047D01*
X54552380Y-54880952D01*
X54600000Y-54785714D01*
X54647619Y-54738095D01*
X54742857Y-54690476D01*
X54838095Y-54690476D01*
X54980952Y-54738095D01*
X55552380Y-55309523D01*
X55552380Y-54690476D01*
X54552380Y-53785714D02*
X54552380Y-54261904D01*
X55028571Y-54309523D01*
X54980952Y-54261904D01*
X54933333Y-54166666D01*
X54933333Y-53928571D01*
X54980952Y-53833333D01*
X55028571Y-53785714D01*
X55123809Y-53738095D01*
X55361904Y-53738095D01*
X55457142Y-53785714D01*
X55504761Y-53833333D01*
X55552380Y-53928571D01*
X55552380Y-54166666D01*
X55504761Y-54261904D01*
X55457142Y-54309523D01*
%TO.C,C24*%
X53587142Y-55642857D02*
X53634761Y-55690476D01*
X53682380Y-55833333D01*
X53682380Y-55928571D01*
X53634761Y-56071428D01*
X53539523Y-56166666D01*
X53444285Y-56214285D01*
X53253809Y-56261904D01*
X53110952Y-56261904D01*
X52920476Y-56214285D01*
X52825238Y-56166666D01*
X52730000Y-56071428D01*
X52682380Y-55928571D01*
X52682380Y-55833333D01*
X52730000Y-55690476D01*
X52777619Y-55642857D01*
X52777619Y-55261904D02*
X52730000Y-55214285D01*
X52682380Y-55119047D01*
X52682380Y-54880952D01*
X52730000Y-54785714D01*
X52777619Y-54738095D01*
X52872857Y-54690476D01*
X52968095Y-54690476D01*
X53110952Y-54738095D01*
X53682380Y-55309523D01*
X53682380Y-54690476D01*
X53015714Y-53833333D02*
X53682380Y-53833333D01*
X52634761Y-54071428D02*
X53349047Y-54309523D01*
X53349047Y-53690476D01*
%TO.C,C23*%
X48557142Y-50857142D02*
X48509523Y-50904761D01*
X48366666Y-50952380D01*
X48271428Y-50952380D01*
X48128571Y-50904761D01*
X48033333Y-50809523D01*
X47985714Y-50714285D01*
X47938095Y-50523809D01*
X47938095Y-50380952D01*
X47985714Y-50190476D01*
X48033333Y-50095238D01*
X48128571Y-50000000D01*
X48271428Y-49952380D01*
X48366666Y-49952380D01*
X48509523Y-50000000D01*
X48557142Y-50047619D01*
X48938095Y-50047619D02*
X48985714Y-50000000D01*
X49080952Y-49952380D01*
X49319047Y-49952380D01*
X49414285Y-50000000D01*
X49461904Y-50047619D01*
X49509523Y-50142857D01*
X49509523Y-50238095D01*
X49461904Y-50380952D01*
X48890476Y-50952380D01*
X49509523Y-50952380D01*
X49842857Y-49952380D02*
X50461904Y-49952380D01*
X50128571Y-50333333D01*
X50271428Y-50333333D01*
X50366666Y-50380952D01*
X50414285Y-50428571D01*
X50461904Y-50523809D01*
X50461904Y-50761904D01*
X50414285Y-50857142D01*
X50366666Y-50904761D01*
X50271428Y-50952380D01*
X49985714Y-50952380D01*
X49890476Y-50904761D01*
X49842857Y-50857142D01*
%TO.C,C22*%
X44069642Y-65687142D02*
X44022023Y-65734761D01*
X43879166Y-65782380D01*
X43783928Y-65782380D01*
X43641071Y-65734761D01*
X43545833Y-65639523D01*
X43498214Y-65544285D01*
X43450595Y-65353809D01*
X43450595Y-65210952D01*
X43498214Y-65020476D01*
X43545833Y-64925238D01*
X43641071Y-64830000D01*
X43783928Y-64782380D01*
X43879166Y-64782380D01*
X44022023Y-64830000D01*
X44069642Y-64877619D01*
X44450595Y-64877619D02*
X44498214Y-64830000D01*
X44593452Y-64782380D01*
X44831547Y-64782380D01*
X44926785Y-64830000D01*
X44974404Y-64877619D01*
X45022023Y-64972857D01*
X45022023Y-65068095D01*
X44974404Y-65210952D01*
X44402976Y-65782380D01*
X45022023Y-65782380D01*
X45402976Y-64877619D02*
X45450595Y-64830000D01*
X45545833Y-64782380D01*
X45783928Y-64782380D01*
X45879166Y-64830000D01*
X45926785Y-64877619D01*
X45974404Y-64972857D01*
X45974404Y-65068095D01*
X45926785Y-65210952D01*
X45355357Y-65782380D01*
X45974404Y-65782380D01*
%TO.C,C21*%
X44489642Y-57387142D02*
X44442023Y-57434761D01*
X44299166Y-57482380D01*
X44203928Y-57482380D01*
X44061071Y-57434761D01*
X43965833Y-57339523D01*
X43918214Y-57244285D01*
X43870595Y-57053809D01*
X43870595Y-56910952D01*
X43918214Y-56720476D01*
X43965833Y-56625238D01*
X44061071Y-56530000D01*
X44203928Y-56482380D01*
X44299166Y-56482380D01*
X44442023Y-56530000D01*
X44489642Y-56577619D01*
X44870595Y-56577619D02*
X44918214Y-56530000D01*
X45013452Y-56482380D01*
X45251547Y-56482380D01*
X45346785Y-56530000D01*
X45394404Y-56577619D01*
X45442023Y-56672857D01*
X45442023Y-56768095D01*
X45394404Y-56910952D01*
X44822976Y-57482380D01*
X45442023Y-57482380D01*
X46394404Y-57482380D02*
X45822976Y-57482380D01*
X46108690Y-57482380D02*
X46108690Y-56482380D01*
X46013452Y-56625238D01*
X45918214Y-56720476D01*
X45822976Y-56768095D01*
%TO.C,C20*%
X48757142Y-58557142D02*
X48709523Y-58604761D01*
X48566666Y-58652380D01*
X48471428Y-58652380D01*
X48328571Y-58604761D01*
X48233333Y-58509523D01*
X48185714Y-58414285D01*
X48138095Y-58223809D01*
X48138095Y-58080952D01*
X48185714Y-57890476D01*
X48233333Y-57795238D01*
X48328571Y-57700000D01*
X48471428Y-57652380D01*
X48566666Y-57652380D01*
X48709523Y-57700000D01*
X48757142Y-57747619D01*
X49138095Y-57747619D02*
X49185714Y-57700000D01*
X49280952Y-57652380D01*
X49519047Y-57652380D01*
X49614285Y-57700000D01*
X49661904Y-57747619D01*
X49709523Y-57842857D01*
X49709523Y-57938095D01*
X49661904Y-58080952D01*
X49090476Y-58652380D01*
X49709523Y-58652380D01*
X50328571Y-57652380D02*
X50423809Y-57652380D01*
X50519047Y-57700000D01*
X50566666Y-57747619D01*
X50614285Y-57842857D01*
X50661904Y-58033333D01*
X50661904Y-58271428D01*
X50614285Y-58461904D01*
X50566666Y-58557142D01*
X50519047Y-58604761D01*
X50423809Y-58652380D01*
X50328571Y-58652380D01*
X50233333Y-58604761D01*
X50185714Y-58557142D01*
X50138095Y-58461904D01*
X50090476Y-58271428D01*
X50090476Y-58033333D01*
X50138095Y-57842857D01*
X50185714Y-57747619D01*
X50233333Y-57700000D01*
X50328571Y-57652380D01*
%TO.C,C2*%
X59388016Y-75279166D02*
X59435635Y-75326785D01*
X59483254Y-75469642D01*
X59483254Y-75564880D01*
X59435635Y-75707738D01*
X59340397Y-75802976D01*
X59245159Y-75850595D01*
X59054683Y-75898214D01*
X58911826Y-75898214D01*
X58721350Y-75850595D01*
X58626112Y-75802976D01*
X58530874Y-75707738D01*
X58483254Y-75564880D01*
X58483254Y-75469642D01*
X58530874Y-75326785D01*
X58578493Y-75279166D01*
X58578493Y-74898214D02*
X58530874Y-74850595D01*
X58483254Y-74755357D01*
X58483254Y-74517261D01*
X58530874Y-74422023D01*
X58578493Y-74374404D01*
X58673731Y-74326785D01*
X58768969Y-74326785D01*
X58911826Y-74374404D01*
X59483254Y-74945833D01*
X59483254Y-74326785D01*
%TO.C,C7*%
X42233333Y-78887142D02*
X42185714Y-78934761D01*
X42042857Y-78982380D01*
X41947619Y-78982380D01*
X41804761Y-78934761D01*
X41709523Y-78839523D01*
X41661904Y-78744285D01*
X41614285Y-78553809D01*
X41614285Y-78410952D01*
X41661904Y-78220476D01*
X41709523Y-78125238D01*
X41804761Y-78030000D01*
X41947619Y-77982380D01*
X42042857Y-77982380D01*
X42185714Y-78030000D01*
X42233333Y-78077619D01*
X42566666Y-77982380D02*
X43233333Y-77982380D01*
X42804761Y-78982380D01*
%TO.C,Y2*%
D19*
X50509714Y-81685485D02*
X50509714Y-81975771D01*
X50306514Y-81366171D02*
X50509714Y-81685485D01*
X50712914Y-81366171D01*
X50887085Y-81424228D02*
X50916114Y-81395200D01*
X50974171Y-81366171D01*
X51119314Y-81366171D01*
X51177371Y-81395200D01*
X51206400Y-81424228D01*
X51235428Y-81482285D01*
X51235428Y-81540342D01*
X51206400Y-81627428D01*
X50858057Y-81975771D01*
X51235428Y-81975771D01*
X49334142Y-88153228D02*
X49363171Y-88124200D01*
X49421228Y-88095171D01*
X49566371Y-88095171D01*
X49624428Y-88124200D01*
X49653457Y-88153228D01*
X49682485Y-88211285D01*
X49682485Y-88269342D01*
X49653457Y-88356428D01*
X49305114Y-88704771D01*
X49682485Y-88704771D01*
X50205000Y-88298371D02*
X50205000Y-88704771D01*
X50059857Y-88066142D02*
X49914714Y-88501571D01*
X50292085Y-88501571D01*
X50524314Y-88704771D02*
X50524314Y-88095171D01*
X50727514Y-88530600D01*
X50930714Y-88095171D01*
X50930714Y-88704771D01*
X51221000Y-88704771D02*
X51221000Y-88095171D01*
X51221000Y-88385457D02*
X51569342Y-88385457D01*
X51569342Y-88704771D02*
X51569342Y-88095171D01*
X51801571Y-88298371D02*
X52120885Y-88298371D01*
X51801571Y-88704771D01*
X52120885Y-88704771D01*
%TO.C,U1*%
D10*
X36752380Y-81011904D02*
X37561904Y-81011904D01*
X37657142Y-80964285D01*
X37704761Y-80916666D01*
X37752380Y-80821428D01*
X37752380Y-80630952D01*
X37704761Y-80535714D01*
X37657142Y-80488095D01*
X37561904Y-80440476D01*
X36752380Y-80440476D01*
X37752380Y-79440476D02*
X37752380Y-80011904D01*
X37752380Y-79726190D02*
X36752380Y-79726190D01*
X36895238Y-79821428D01*
X36990476Y-79916666D01*
X37038095Y-80011904D01*
%TO.C,SW1*%
X55665361Y-63722633D02*
X55712980Y-63579776D01*
X55712980Y-63341680D01*
X55665361Y-63246442D01*
X55617742Y-63198823D01*
X55522504Y-63151204D01*
X55427266Y-63151204D01*
X55332028Y-63198823D01*
X55284409Y-63246442D01*
X55236790Y-63341680D01*
X55189171Y-63532157D01*
X55141552Y-63627395D01*
X55093933Y-63675014D01*
X54998695Y-63722633D01*
X54903457Y-63722633D01*
X54808219Y-63675014D01*
X54760600Y-63627395D01*
X54712980Y-63532157D01*
X54712980Y-63294061D01*
X54760600Y-63151204D01*
X54712980Y-62817871D02*
X55712980Y-62579776D01*
X54998695Y-62389300D01*
X55712980Y-62198823D01*
X54712980Y-61960728D01*
X55712980Y-61055966D02*
X55712980Y-61627395D01*
X55712980Y-61341680D02*
X54712980Y-61341680D01*
X54855838Y-61436919D01*
X54951076Y-61532157D01*
X54998695Y-61627395D01*
%TO.C,R5*%
X41533333Y-83922380D02*
X41200000Y-83446190D01*
X40961904Y-83922380D02*
X40961904Y-82922380D01*
X41342857Y-82922380D01*
X41438095Y-82970000D01*
X41485714Y-83017619D01*
X41533333Y-83112857D01*
X41533333Y-83255714D01*
X41485714Y-83350952D01*
X41438095Y-83398571D01*
X41342857Y-83446190D01*
X40961904Y-83446190D01*
X42438095Y-82922380D02*
X41961904Y-82922380D01*
X41914285Y-83398571D01*
X41961904Y-83350952D01*
X42057142Y-83303333D01*
X42295238Y-83303333D01*
X42390476Y-83350952D01*
X42438095Y-83398571D01*
X42485714Y-83493809D01*
X42485714Y-83731904D01*
X42438095Y-83827142D01*
X42390476Y-83874761D01*
X42295238Y-83922380D01*
X42057142Y-83922380D01*
X41961904Y-83874761D01*
X41914285Y-83827142D01*
%TO.C,R4*%
X37820833Y-86182380D02*
X37487500Y-85706190D01*
X37249404Y-86182380D02*
X37249404Y-85182380D01*
X37630357Y-85182380D01*
X37725595Y-85230000D01*
X37773214Y-85277619D01*
X37820833Y-85372857D01*
X37820833Y-85515714D01*
X37773214Y-85610952D01*
X37725595Y-85658571D01*
X37630357Y-85706190D01*
X37249404Y-85706190D01*
X38677976Y-85515714D02*
X38677976Y-86182380D01*
X38439880Y-85134761D02*
X38201785Y-85849047D01*
X38820833Y-85849047D01*
%TO.C,R3*%
X51545833Y-80422380D02*
X51212500Y-79946190D01*
X50974404Y-80422380D02*
X50974404Y-79422380D01*
X51355357Y-79422380D01*
X51450595Y-79470000D01*
X51498214Y-79517619D01*
X51545833Y-79612857D01*
X51545833Y-79755714D01*
X51498214Y-79850952D01*
X51450595Y-79898571D01*
X51355357Y-79946190D01*
X50974404Y-79946190D01*
X51879166Y-79422380D02*
X52498214Y-79422380D01*
X52164880Y-79803333D01*
X52307738Y-79803333D01*
X52402976Y-79850952D01*
X52450595Y-79898571D01*
X52498214Y-79993809D01*
X52498214Y-80231904D01*
X52450595Y-80327142D01*
X52402976Y-80374761D01*
X52307738Y-80422380D01*
X52022023Y-80422380D01*
X51926785Y-80374761D01*
X51879166Y-80327142D01*
%TO.C,R1*%
X28522380Y-67279166D02*
X28046190Y-67612500D01*
X28522380Y-67850595D02*
X27522380Y-67850595D01*
X27522380Y-67469642D01*
X27570000Y-67374404D01*
X27617619Y-67326785D01*
X27712857Y-67279166D01*
X27855714Y-67279166D01*
X27950952Y-67326785D01*
X27998571Y-67374404D01*
X28046190Y-67469642D01*
X28046190Y-67850595D01*
X28522380Y-66326785D02*
X28522380Y-66898214D01*
X28522380Y-66612500D02*
X27522380Y-66612500D01*
X27665238Y-66707738D01*
X27760476Y-66802976D01*
X27808095Y-66898214D01*
%TO.C,J3*%
X32266666Y-74022380D02*
X32266666Y-74736666D01*
X32219047Y-74879523D01*
X32123809Y-74974761D01*
X31980952Y-75022380D01*
X31885714Y-75022380D01*
X32647619Y-74022380D02*
X33266666Y-74022380D01*
X32933333Y-74403333D01*
X33076190Y-74403333D01*
X33171428Y-74450952D01*
X33219047Y-74498571D01*
X33266666Y-74593809D01*
X33266666Y-74831904D01*
X33219047Y-74927142D01*
X33171428Y-74974761D01*
X33076190Y-75022380D01*
X32790476Y-75022380D01*
X32695238Y-74974761D01*
X32647619Y-74927142D01*
%TO.C,J2*%
X40422380Y-87233333D02*
X41136666Y-87233333D01*
X41279523Y-87280952D01*
X41374761Y-87376190D01*
X41422380Y-87519047D01*
X41422380Y-87614285D01*
X40517619Y-86804761D02*
X40470000Y-86757142D01*
X40422380Y-86661904D01*
X40422380Y-86423809D01*
X40470000Y-86328571D01*
X40517619Y-86280952D01*
X40612857Y-86233333D01*
X40708095Y-86233333D01*
X40850952Y-86280952D01*
X41422380Y-86852380D01*
X41422380Y-86233333D01*
%TO.C,J1*%
X38236666Y-72322380D02*
X38236666Y-73036666D01*
X38189047Y-73179523D01*
X38093809Y-73274761D01*
X37950952Y-73322380D01*
X37855714Y-73322380D01*
X39236666Y-73322380D02*
X38665238Y-73322380D01*
X38950952Y-73322380D02*
X38950952Y-72322380D01*
X38855714Y-72465238D01*
X38760476Y-72560476D01*
X38665238Y-72608095D01*
%TO.C,FB2*%
D19*
X56286457Y-72508001D02*
X56286457Y-72711201D01*
X56605771Y-72711201D02*
X55996171Y-72711201D01*
X55996171Y-72420915D01*
X56286457Y-71985486D02*
X56315485Y-71898401D01*
X56344514Y-71869372D01*
X56402571Y-71840343D01*
X56489657Y-71840343D01*
X56547714Y-71869372D01*
X56576742Y-71898401D01*
X56605771Y-71956458D01*
X56605771Y-72188686D01*
X55996171Y-72188686D01*
X55996171Y-71985486D01*
X56025200Y-71927429D01*
X56054228Y-71898401D01*
X56112285Y-71869372D01*
X56170342Y-71869372D01*
X56228400Y-71898401D01*
X56257428Y-71927429D01*
X56286457Y-71985486D01*
X56286457Y-72188686D01*
X56054228Y-71608115D02*
X56025200Y-71579086D01*
X55996171Y-71521029D01*
X55996171Y-71375886D01*
X56025200Y-71317829D01*
X56054228Y-71288801D01*
X56112285Y-71259772D01*
X56170342Y-71259772D01*
X56257428Y-71288801D01*
X56605771Y-71637143D01*
X56605771Y-71259772D01*
X59145771Y-76049486D02*
X59145771Y-76397829D01*
X59145771Y-76223658D02*
X58536171Y-76223658D01*
X58623257Y-76281715D01*
X58681314Y-76339772D01*
X58710342Y-76397829D01*
X58536171Y-75672115D02*
X58536171Y-75614058D01*
X58565200Y-75556001D01*
X58594228Y-75526972D01*
X58652285Y-75497943D01*
X58768400Y-75468915D01*
X58913542Y-75468915D01*
X59029657Y-75497943D01*
X59087714Y-75526972D01*
X59116742Y-75556001D01*
X59145771Y-75614058D01*
X59145771Y-75672115D01*
X59116742Y-75730172D01*
X59087714Y-75759201D01*
X59029657Y-75788229D01*
X58913542Y-75817258D01*
X58768400Y-75817258D01*
X58652285Y-75788229D01*
X58594228Y-75759201D01*
X58565200Y-75730172D01*
X58536171Y-75672115D01*
X58536171Y-75091543D02*
X58536171Y-75033486D01*
X58565200Y-74975429D01*
X58594228Y-74946401D01*
X58652285Y-74917372D01*
X58768400Y-74888343D01*
X58913542Y-74888343D01*
X59029657Y-74917372D01*
X59087714Y-74946401D01*
X59116742Y-74975429D01*
X59145771Y-75033486D01*
X59145771Y-75091543D01*
X59116742Y-75149601D01*
X59087714Y-75178629D01*
X59029657Y-75207658D01*
X58913542Y-75236686D01*
X58768400Y-75236686D01*
X58652285Y-75207658D01*
X58594228Y-75178629D01*
X58565200Y-75149601D01*
X58536171Y-75091543D01*
X58536171Y-74510972D02*
X58536171Y-74394858D01*
X58565200Y-74336801D01*
X58623257Y-74278743D01*
X58739371Y-74249715D01*
X58942571Y-74249715D01*
X59058685Y-74278743D01*
X59116742Y-74336801D01*
X59145771Y-74394858D01*
X59145771Y-74510972D01*
X59116742Y-74569029D01*
X59058685Y-74627086D01*
X58942571Y-74656115D01*
X58739371Y-74656115D01*
X58623257Y-74627086D01*
X58565200Y-74569029D01*
X58536171Y-74510972D01*
X59145771Y-73988458D02*
X58536171Y-73988458D01*
X59145771Y-73727201D02*
X58826457Y-73727201D01*
X58768400Y-73756229D01*
X58739371Y-73814286D01*
X58739371Y-73901372D01*
X58768400Y-73959429D01*
X58797428Y-73988458D01*
X59145771Y-73436915D02*
X58739371Y-73436915D01*
X58797428Y-73436915D02*
X58768400Y-73407886D01*
X58739371Y-73349829D01*
X58739371Y-73262743D01*
X58768400Y-73204686D01*
X58826457Y-73175658D01*
X59145771Y-73175658D01*
X58826457Y-73175658D02*
X58768400Y-73146629D01*
X58739371Y-73088572D01*
X58739371Y-73001486D01*
X58768400Y-72943429D01*
X58826457Y-72914401D01*
X59145771Y-72914401D01*
X58855485Y-71782286D02*
X58826457Y-71811315D01*
X58797428Y-71869372D01*
X58797428Y-71927429D01*
X58826457Y-71985486D01*
X58855485Y-72014515D01*
X58913542Y-72043543D01*
X58971600Y-72043543D01*
X59029657Y-72014515D01*
X59058685Y-71985486D01*
X59087714Y-71927429D01*
X59087714Y-71869372D01*
X59058685Y-71811315D01*
X59029657Y-71782286D01*
X58797428Y-71782286D02*
X59029657Y-71782286D01*
X59058685Y-71753258D01*
X59058685Y-71724229D01*
X59029657Y-71666172D01*
X58971600Y-71637143D01*
X58826457Y-71637143D01*
X58739371Y-71695201D01*
X58681314Y-71782286D01*
X58652285Y-71898401D01*
X58681314Y-72014515D01*
X58739371Y-72101601D01*
X58826457Y-72159658D01*
X58942571Y-72188686D01*
X59058685Y-72159658D01*
X59145771Y-72101601D01*
X59203828Y-72014515D01*
X59232857Y-71898401D01*
X59203828Y-71782286D01*
X59145771Y-71695201D01*
X59145771Y-70592115D02*
X59145771Y-70940458D01*
X59145771Y-70766286D02*
X58536171Y-70766286D01*
X58623257Y-70824343D01*
X58681314Y-70882401D01*
X58710342Y-70940458D01*
X58536171Y-70214743D02*
X58536171Y-70156686D01*
X58565200Y-70098629D01*
X58594228Y-70069601D01*
X58652285Y-70040572D01*
X58768400Y-70011543D01*
X58913542Y-70011543D01*
X59029657Y-70040572D01*
X59087714Y-70069601D01*
X59116742Y-70098629D01*
X59145771Y-70156686D01*
X59145771Y-70214743D01*
X59116742Y-70272801D01*
X59087714Y-70301829D01*
X59029657Y-70330858D01*
X58913542Y-70359886D01*
X58768400Y-70359886D01*
X58652285Y-70330858D01*
X58594228Y-70301829D01*
X58565200Y-70272801D01*
X58536171Y-70214743D01*
X58536171Y-69634172D02*
X58536171Y-69576115D01*
X58565200Y-69518058D01*
X58594228Y-69489029D01*
X58652285Y-69460001D01*
X58768400Y-69430972D01*
X58913542Y-69430972D01*
X59029657Y-69460001D01*
X59087714Y-69489029D01*
X59116742Y-69518058D01*
X59145771Y-69576115D01*
X59145771Y-69634172D01*
X59116742Y-69692229D01*
X59087714Y-69721258D01*
X59029657Y-69750286D01*
X58913542Y-69779315D01*
X58768400Y-69779315D01*
X58652285Y-69750286D01*
X58594228Y-69721258D01*
X58565200Y-69692229D01*
X58536171Y-69634172D01*
X59145771Y-69169715D02*
X58536171Y-69169715D01*
X58971600Y-68966515D01*
X58536171Y-68763315D01*
X59145771Y-68763315D01*
X59145771Y-68473029D02*
X58536171Y-68473029D01*
X58826457Y-68473029D02*
X58826457Y-68124686D01*
X59145771Y-68124686D02*
X58536171Y-68124686D01*
X58739371Y-67892458D02*
X58739371Y-67573143D01*
X59145771Y-67892458D01*
X59145771Y-67573143D01*
%TO.C,FB1*%
X28392000Y-76326457D02*
X28188800Y-76326457D01*
X28188800Y-76645771D02*
X28188800Y-76036171D01*
X28479085Y-76036171D01*
X28914514Y-76326457D02*
X29001600Y-76355485D01*
X29030628Y-76384514D01*
X29059657Y-76442571D01*
X29059657Y-76529657D01*
X29030628Y-76587714D01*
X29001600Y-76616742D01*
X28943542Y-76645771D01*
X28711314Y-76645771D01*
X28711314Y-76036171D01*
X28914514Y-76036171D01*
X28972571Y-76065200D01*
X29001600Y-76094228D01*
X29030628Y-76152285D01*
X29030628Y-76210342D01*
X29001600Y-76268400D01*
X28972571Y-76297428D01*
X28914514Y-76326457D01*
X28711314Y-76326457D01*
X29640228Y-76645771D02*
X29291885Y-76645771D01*
X29466057Y-76645771D02*
X29466057Y-76036171D01*
X29408000Y-76123257D01*
X29349942Y-76181314D01*
X29291885Y-76210342D01*
X24850514Y-74105771D02*
X24502171Y-74105771D01*
X24676342Y-74105771D02*
X24676342Y-73496171D01*
X24618285Y-73583257D01*
X24560228Y-73641314D01*
X24502171Y-73670342D01*
X25227885Y-73496171D02*
X25285942Y-73496171D01*
X25344000Y-73525200D01*
X25373028Y-73554228D01*
X25402057Y-73612285D01*
X25431085Y-73728400D01*
X25431085Y-73873542D01*
X25402057Y-73989657D01*
X25373028Y-74047714D01*
X25344000Y-74076742D01*
X25285942Y-74105771D01*
X25227885Y-74105771D01*
X25169828Y-74076742D01*
X25140800Y-74047714D01*
X25111771Y-73989657D01*
X25082742Y-73873542D01*
X25082742Y-73728400D01*
X25111771Y-73612285D01*
X25140800Y-73554228D01*
X25169828Y-73525200D01*
X25227885Y-73496171D01*
X25808457Y-73496171D02*
X25866514Y-73496171D01*
X25924571Y-73525200D01*
X25953600Y-73554228D01*
X25982628Y-73612285D01*
X26011657Y-73728400D01*
X26011657Y-73873542D01*
X25982628Y-73989657D01*
X25953600Y-74047714D01*
X25924571Y-74076742D01*
X25866514Y-74105771D01*
X25808457Y-74105771D01*
X25750400Y-74076742D01*
X25721371Y-74047714D01*
X25692342Y-73989657D01*
X25663314Y-73873542D01*
X25663314Y-73728400D01*
X25692342Y-73612285D01*
X25721371Y-73554228D01*
X25750400Y-73525200D01*
X25808457Y-73496171D01*
X26389028Y-73496171D02*
X26505142Y-73496171D01*
X26563200Y-73525200D01*
X26621257Y-73583257D01*
X26650285Y-73699371D01*
X26650285Y-73902571D01*
X26621257Y-74018685D01*
X26563200Y-74076742D01*
X26505142Y-74105771D01*
X26389028Y-74105771D01*
X26330971Y-74076742D01*
X26272914Y-74018685D01*
X26243885Y-73902571D01*
X26243885Y-73699371D01*
X26272914Y-73583257D01*
X26330971Y-73525200D01*
X26389028Y-73496171D01*
X26911542Y-74105771D02*
X26911542Y-73496171D01*
X27172800Y-74105771D02*
X27172800Y-73786457D01*
X27143771Y-73728400D01*
X27085714Y-73699371D01*
X26998628Y-73699371D01*
X26940571Y-73728400D01*
X26911542Y-73757428D01*
X27463085Y-74105771D02*
X27463085Y-73699371D01*
X27463085Y-73757428D02*
X27492114Y-73728400D01*
X27550171Y-73699371D01*
X27637257Y-73699371D01*
X27695314Y-73728400D01*
X27724342Y-73786457D01*
X27724342Y-74105771D01*
X27724342Y-73786457D02*
X27753371Y-73728400D01*
X27811428Y-73699371D01*
X27898514Y-73699371D01*
X27956571Y-73728400D01*
X27985600Y-73786457D01*
X27985600Y-74105771D01*
X29117714Y-73815485D02*
X29088685Y-73786457D01*
X29030628Y-73757428D01*
X28972571Y-73757428D01*
X28914514Y-73786457D01*
X28885485Y-73815485D01*
X28856457Y-73873542D01*
X28856457Y-73931600D01*
X28885485Y-73989657D01*
X28914514Y-74018685D01*
X28972571Y-74047714D01*
X29030628Y-74047714D01*
X29088685Y-74018685D01*
X29117714Y-73989657D01*
X29117714Y-73757428D02*
X29117714Y-73989657D01*
X29146742Y-74018685D01*
X29175771Y-74018685D01*
X29233828Y-73989657D01*
X29262857Y-73931600D01*
X29262857Y-73786457D01*
X29204800Y-73699371D01*
X29117714Y-73641314D01*
X29001600Y-73612285D01*
X28885485Y-73641314D01*
X28798400Y-73699371D01*
X28740342Y-73786457D01*
X28711314Y-73902571D01*
X28740342Y-74018685D01*
X28798400Y-74105771D01*
X28885485Y-74163828D01*
X29001600Y-74192857D01*
X29117714Y-74163828D01*
X29204800Y-74105771D01*
X30307885Y-74105771D02*
X29959542Y-74105771D01*
X30133714Y-74105771D02*
X30133714Y-73496171D01*
X30075657Y-73583257D01*
X30017599Y-73641314D01*
X29959542Y-73670342D01*
X30685257Y-73496171D02*
X30743314Y-73496171D01*
X30801371Y-73525200D01*
X30830399Y-73554228D01*
X30859428Y-73612285D01*
X30888457Y-73728400D01*
X30888457Y-73873542D01*
X30859428Y-73989657D01*
X30830399Y-74047714D01*
X30801371Y-74076742D01*
X30743314Y-74105771D01*
X30685257Y-74105771D01*
X30627199Y-74076742D01*
X30598171Y-74047714D01*
X30569142Y-73989657D01*
X30540114Y-73873542D01*
X30540114Y-73728400D01*
X30569142Y-73612285D01*
X30598171Y-73554228D01*
X30627199Y-73525200D01*
X30685257Y-73496171D01*
X31265828Y-73496171D02*
X31323885Y-73496171D01*
X31381942Y-73525200D01*
X31410971Y-73554228D01*
X31439999Y-73612285D01*
X31469028Y-73728400D01*
X31469028Y-73873542D01*
X31439999Y-73989657D01*
X31410971Y-74047714D01*
X31381942Y-74076742D01*
X31323885Y-74105771D01*
X31265828Y-74105771D01*
X31207771Y-74076742D01*
X31178742Y-74047714D01*
X31149714Y-73989657D01*
X31120685Y-73873542D01*
X31120685Y-73728400D01*
X31149714Y-73612285D01*
X31178742Y-73554228D01*
X31207771Y-73525200D01*
X31265828Y-73496171D01*
X31730285Y-74105771D02*
X31730285Y-73496171D01*
X31933485Y-73931600D01*
X32136685Y-73496171D01*
X32136685Y-74105771D01*
X32426971Y-74105771D02*
X32426971Y-73496171D01*
X32426971Y-73786457D02*
X32775314Y-73786457D01*
X32775314Y-74105771D02*
X32775314Y-73496171D01*
X33007542Y-73699371D02*
X33326857Y-73699371D01*
X33007542Y-74105771D01*
X33326857Y-74105771D01*
%TO.C,F1*%
X25906331Y-68252740D02*
X25906331Y-68455940D01*
X26225645Y-68455940D02*
X25616045Y-68455940D01*
X25616045Y-68165654D01*
X26225645Y-67614111D02*
X26225645Y-67962454D01*
X26225645Y-67788282D02*
X25616045Y-67788282D01*
X25703131Y-67846340D01*
X25761188Y-67904397D01*
X25790216Y-67962454D01*
X28918045Y-69384854D02*
X28918045Y-69675140D01*
X29208331Y-69704168D01*
X29179302Y-69675140D01*
X29150274Y-69617082D01*
X29150274Y-69471940D01*
X29179302Y-69413882D01*
X29208331Y-69384854D01*
X29266388Y-69355825D01*
X29411531Y-69355825D01*
X29469588Y-69384854D01*
X29498616Y-69413882D01*
X29527645Y-69471940D01*
X29527645Y-69617082D01*
X29498616Y-69675140D01*
X29469588Y-69704168D01*
X28918045Y-68978454D02*
X28918045Y-68920397D01*
X28947074Y-68862340D01*
X28976102Y-68833311D01*
X29034159Y-68804282D01*
X29150274Y-68775254D01*
X29295416Y-68775254D01*
X29411531Y-68804282D01*
X29469588Y-68833311D01*
X29498616Y-68862340D01*
X29527645Y-68920397D01*
X29527645Y-68978454D01*
X29498616Y-69036511D01*
X29469588Y-69065540D01*
X29411531Y-69094568D01*
X29295416Y-69123597D01*
X29150274Y-69123597D01*
X29034159Y-69094568D01*
X28976102Y-69065540D01*
X28947074Y-69036511D01*
X28918045Y-68978454D01*
X28918045Y-68397882D02*
X28918045Y-68339825D01*
X28947074Y-68281768D01*
X28976102Y-68252740D01*
X29034159Y-68223711D01*
X29150274Y-68194682D01*
X29295416Y-68194682D01*
X29411531Y-68223711D01*
X29469588Y-68252740D01*
X29498616Y-68281768D01*
X29527645Y-68339825D01*
X29527645Y-68397882D01*
X29498616Y-68455940D01*
X29469588Y-68484968D01*
X29411531Y-68513997D01*
X29295416Y-68543025D01*
X29150274Y-68543025D01*
X29034159Y-68513997D01*
X28976102Y-68484968D01*
X28947074Y-68455940D01*
X28918045Y-68397882D01*
X29527645Y-67468968D02*
X29121245Y-67468968D01*
X29179302Y-67468968D02*
X29150274Y-67439940D01*
X29121245Y-67381882D01*
X29121245Y-67294797D01*
X29150274Y-67236740D01*
X29208331Y-67207711D01*
X29527645Y-67207711D01*
X29208331Y-67207711D02*
X29150274Y-67178682D01*
X29121245Y-67120625D01*
X29121245Y-67033540D01*
X29150274Y-66975482D01*
X29208331Y-66946454D01*
X29527645Y-66946454D01*
X29353474Y-66685197D02*
X29353474Y-66394911D01*
X29527645Y-66743254D02*
X28918045Y-66540054D01*
X29527645Y-66336854D01*
%TO.C,D3*%
D10*
X41302380Y-88175595D02*
X40302380Y-88175595D01*
X40302380Y-87937500D01*
X40350000Y-87794642D01*
X40445238Y-87699404D01*
X40540476Y-87651785D01*
X40730952Y-87604166D01*
X40873809Y-87604166D01*
X41064285Y-87651785D01*
X41159523Y-87699404D01*
X41254761Y-87794642D01*
X41302380Y-87937500D01*
X41302380Y-88175595D01*
X40302380Y-87270833D02*
X40302380Y-86651785D01*
X40683333Y-86985119D01*
X40683333Y-86842261D01*
X40730952Y-86747023D01*
X40778571Y-86699404D01*
X40873809Y-86651785D01*
X41111904Y-86651785D01*
X41207142Y-86699404D01*
X41254761Y-86747023D01*
X41302380Y-86842261D01*
X41302380Y-87127976D01*
X41254761Y-87223214D01*
X41207142Y-87270833D01*
%TO.C,D2*%
X31803254Y-71575595D02*
X30803254Y-71575595D01*
X30803254Y-71337500D01*
X30850874Y-71194642D01*
X30946112Y-71099404D01*
X31041350Y-71051785D01*
X31231826Y-71004166D01*
X31374683Y-71004166D01*
X31565159Y-71051785D01*
X31660397Y-71099404D01*
X31755635Y-71194642D01*
X31803254Y-71337500D01*
X31803254Y-71575595D01*
X30898493Y-70623214D02*
X30850874Y-70575595D01*
X30803254Y-70480357D01*
X30803254Y-70242261D01*
X30850874Y-70147023D01*
X30898493Y-70099404D01*
X30993731Y-70051785D01*
X31088969Y-70051785D01*
X31231826Y-70099404D01*
X31803254Y-70670833D01*
X31803254Y-70051785D01*
%TO.C,C17*%
X41444642Y-84687142D02*
X41397023Y-84734761D01*
X41254166Y-84782380D01*
X41158928Y-84782380D01*
X41016071Y-84734761D01*
X40920833Y-84639523D01*
X40873214Y-84544285D01*
X40825595Y-84353809D01*
X40825595Y-84210952D01*
X40873214Y-84020476D01*
X40920833Y-83925238D01*
X41016071Y-83830000D01*
X41158928Y-83782380D01*
X41254166Y-83782380D01*
X41397023Y-83830000D01*
X41444642Y-83877619D01*
X42397023Y-84782380D02*
X41825595Y-84782380D01*
X42111309Y-84782380D02*
X42111309Y-83782380D01*
X42016071Y-83925238D01*
X41920833Y-84020476D01*
X41825595Y-84068095D01*
X42730357Y-83782380D02*
X43397023Y-83782380D01*
X42968452Y-84782380D01*
%TO.C,C16*%
X41444642Y-79457142D02*
X41397023Y-79504761D01*
X41254166Y-79552380D01*
X41158928Y-79552380D01*
X41016071Y-79504761D01*
X40920833Y-79409523D01*
X40873214Y-79314285D01*
X40825595Y-79123809D01*
X40825595Y-78980952D01*
X40873214Y-78790476D01*
X40920833Y-78695238D01*
X41016071Y-78600000D01*
X41158928Y-78552380D01*
X41254166Y-78552380D01*
X41397023Y-78600000D01*
X41444642Y-78647619D01*
X42397023Y-79552380D02*
X41825595Y-79552380D01*
X42111309Y-79552380D02*
X42111309Y-78552380D01*
X42016071Y-78695238D01*
X41920833Y-78790476D01*
X41825595Y-78838095D01*
X43254166Y-78552380D02*
X43063690Y-78552380D01*
X42968452Y-78600000D01*
X42920833Y-78647619D01*
X42825595Y-78790476D01*
X42777976Y-78980952D01*
X42777976Y-79361904D01*
X42825595Y-79457142D01*
X42873214Y-79504761D01*
X42968452Y-79552380D01*
X43158928Y-79552380D01*
X43254166Y-79504761D01*
X43301785Y-79457142D01*
X43349404Y-79361904D01*
X43349404Y-79123809D01*
X43301785Y-79028571D01*
X43254166Y-78980952D01*
X43158928Y-78933333D01*
X42968452Y-78933333D01*
X42873214Y-78980952D01*
X42825595Y-79028571D01*
X42777976Y-79123809D01*
%TO.C,C14*%
X29244642Y-84327142D02*
X29197023Y-84374761D01*
X29054166Y-84422380D01*
X28958928Y-84422380D01*
X28816071Y-84374761D01*
X28720833Y-84279523D01*
X28673214Y-84184285D01*
X28625595Y-83993809D01*
X28625595Y-83850952D01*
X28673214Y-83660476D01*
X28720833Y-83565238D01*
X28816071Y-83470000D01*
X28958928Y-83422380D01*
X29054166Y-83422380D01*
X29197023Y-83470000D01*
X29244642Y-83517619D01*
X30197023Y-84422380D02*
X29625595Y-84422380D01*
X29911309Y-84422380D02*
X29911309Y-83422380D01*
X29816071Y-83565238D01*
X29720833Y-83660476D01*
X29625595Y-83708095D01*
X31054166Y-83755714D02*
X31054166Y-84422380D01*
X30816071Y-83374761D02*
X30577976Y-84089047D01*
X31197023Y-84089047D01*
%TO.C,C13*%
X28469642Y-75287142D02*
X28422023Y-75334761D01*
X28279166Y-75382380D01*
X28183928Y-75382380D01*
X28041071Y-75334761D01*
X27945833Y-75239523D01*
X27898214Y-75144285D01*
X27850595Y-74953809D01*
X27850595Y-74810952D01*
X27898214Y-74620476D01*
X27945833Y-74525238D01*
X28041071Y-74430000D01*
X28183928Y-74382380D01*
X28279166Y-74382380D01*
X28422023Y-74430000D01*
X28469642Y-74477619D01*
X29422023Y-75382380D02*
X28850595Y-75382380D01*
X29136309Y-75382380D02*
X29136309Y-74382380D01*
X29041071Y-74525238D01*
X28945833Y-74620476D01*
X28850595Y-74668095D01*
X29755357Y-74382380D02*
X30374404Y-74382380D01*
X30041071Y-74763333D01*
X30183928Y-74763333D01*
X30279166Y-74810952D01*
X30326785Y-74858571D01*
X30374404Y-74953809D01*
X30374404Y-75191904D01*
X30326785Y-75287142D01*
X30279166Y-75334761D01*
X30183928Y-75382380D01*
X29898214Y-75382380D01*
X29802976Y-75334761D01*
X29755357Y-75287142D01*
%TO.C,C12*%
X45457142Y-71287142D02*
X45409523Y-71334761D01*
X45266666Y-71382380D01*
X45171428Y-71382380D01*
X45028571Y-71334761D01*
X44933333Y-71239523D01*
X44885714Y-71144285D01*
X44838095Y-70953809D01*
X44838095Y-70810952D01*
X44885714Y-70620476D01*
X44933333Y-70525238D01*
X45028571Y-70430000D01*
X45171428Y-70382380D01*
X45266666Y-70382380D01*
X45409523Y-70430000D01*
X45457142Y-70477619D01*
X46409523Y-71382380D02*
X45838095Y-71382380D01*
X46123809Y-71382380D02*
X46123809Y-70382380D01*
X46028571Y-70525238D01*
X45933333Y-70620476D01*
X45838095Y-70668095D01*
X46790476Y-70477619D02*
X46838095Y-70430000D01*
X46933333Y-70382380D01*
X47171428Y-70382380D01*
X47266666Y-70430000D01*
X47314285Y-70477619D01*
X47361904Y-70572857D01*
X47361904Y-70668095D01*
X47314285Y-70810952D01*
X46742857Y-71382380D01*
X47361904Y-71382380D01*
%TO.C,C11*%
X45469642Y-69887142D02*
X45422023Y-69934761D01*
X45279166Y-69982380D01*
X45183928Y-69982380D01*
X45041071Y-69934761D01*
X44945833Y-69839523D01*
X44898214Y-69744285D01*
X44850595Y-69553809D01*
X44850595Y-69410952D01*
X44898214Y-69220476D01*
X44945833Y-69125238D01*
X45041071Y-69030000D01*
X45183928Y-68982380D01*
X45279166Y-68982380D01*
X45422023Y-69030000D01*
X45469642Y-69077619D01*
X46422023Y-69982380D02*
X45850595Y-69982380D01*
X46136309Y-69982380D02*
X46136309Y-68982380D01*
X46041071Y-69125238D01*
X45945833Y-69220476D01*
X45850595Y-69268095D01*
X47374404Y-69982380D02*
X46802976Y-69982380D01*
X47088690Y-69982380D02*
X47088690Y-68982380D01*
X46993452Y-69125238D01*
X46898214Y-69220476D01*
X46802976Y-69268095D01*
%TO.C,C10*%
X54527142Y-69742857D02*
X54574761Y-69790476D01*
X54622380Y-69933333D01*
X54622380Y-70028571D01*
X54574761Y-70171428D01*
X54479523Y-70266666D01*
X54384285Y-70314285D01*
X54193809Y-70361904D01*
X54050952Y-70361904D01*
X53860476Y-70314285D01*
X53765238Y-70266666D01*
X53670000Y-70171428D01*
X53622380Y-70028571D01*
X53622380Y-69933333D01*
X53670000Y-69790476D01*
X53717619Y-69742857D01*
X54622380Y-68790476D02*
X54622380Y-69361904D01*
X54622380Y-69076190D02*
X53622380Y-69076190D01*
X53765238Y-69171428D01*
X53860476Y-69266666D01*
X53908095Y-69361904D01*
X53622380Y-68171428D02*
X53622380Y-68076190D01*
X53670000Y-67980952D01*
X53717619Y-67933333D01*
X53812857Y-67885714D01*
X54003333Y-67838095D01*
X54241428Y-67838095D01*
X54431904Y-67885714D01*
X54527142Y-67933333D01*
X54574761Y-67980952D01*
X54622380Y-68076190D01*
X54622380Y-68171428D01*
X54574761Y-68266666D01*
X54527142Y-68314285D01*
X54431904Y-68361904D01*
X54241428Y-68409523D01*
X54003333Y-68409523D01*
X53812857Y-68361904D01*
X53717619Y-68314285D01*
X53670000Y-68266666D01*
X53622380Y-68171428D01*
%TO.C,C9*%
X56027142Y-69254166D02*
X56074761Y-69301785D01*
X56122380Y-69444642D01*
X56122380Y-69539880D01*
X56074761Y-69682738D01*
X55979523Y-69777976D01*
X55884285Y-69825595D01*
X55693809Y-69873214D01*
X55550952Y-69873214D01*
X55360476Y-69825595D01*
X55265238Y-69777976D01*
X55170000Y-69682738D01*
X55122380Y-69539880D01*
X55122380Y-69444642D01*
X55170000Y-69301785D01*
X55217619Y-69254166D01*
X56122380Y-68777976D02*
X56122380Y-68587500D01*
X56074761Y-68492261D01*
X56027142Y-68444642D01*
X55884285Y-68349404D01*
X55693809Y-68301785D01*
X55312857Y-68301785D01*
X55217619Y-68349404D01*
X55170000Y-68397023D01*
X55122380Y-68492261D01*
X55122380Y-68682738D01*
X55170000Y-68777976D01*
X55217619Y-68825595D01*
X55312857Y-68873214D01*
X55550952Y-68873214D01*
X55646190Y-68825595D01*
X55693809Y-68777976D01*
X55741428Y-68682738D01*
X55741428Y-68492261D01*
X55693809Y-68397023D01*
X55646190Y-68349404D01*
X55550952Y-68301785D01*
%TO.C,C8*%
X42220833Y-80587142D02*
X42173214Y-80634761D01*
X42030357Y-80682380D01*
X41935119Y-80682380D01*
X41792261Y-80634761D01*
X41697023Y-80539523D01*
X41649404Y-80444285D01*
X41601785Y-80253809D01*
X41601785Y-80110952D01*
X41649404Y-79920476D01*
X41697023Y-79825238D01*
X41792261Y-79730000D01*
X41935119Y-79682380D01*
X42030357Y-79682380D01*
X42173214Y-79730000D01*
X42220833Y-79777619D01*
X42792261Y-80110952D02*
X42697023Y-80063333D01*
X42649404Y-80015714D01*
X42601785Y-79920476D01*
X42601785Y-79872857D01*
X42649404Y-79777619D01*
X42697023Y-79730000D01*
X42792261Y-79682380D01*
X42982738Y-79682380D01*
X43077976Y-79730000D01*
X43125595Y-79777619D01*
X43173214Y-79872857D01*
X43173214Y-79920476D01*
X43125595Y-80015714D01*
X43077976Y-80063333D01*
X42982738Y-80110952D01*
X42792261Y-80110952D01*
X42697023Y-80158571D01*
X42649404Y-80206190D01*
X42601785Y-80301428D01*
X42601785Y-80491904D01*
X42649404Y-80587142D01*
X42697023Y-80634761D01*
X42792261Y-80682380D01*
X42982738Y-80682380D01*
X43077976Y-80634761D01*
X43125595Y-80587142D01*
X43173214Y-80491904D01*
X43173214Y-80301428D01*
X43125595Y-80206190D01*
X43077976Y-80158571D01*
X42982738Y-80110952D01*
%TO.C,C6*%
X45627142Y-79479166D02*
X45674761Y-79526785D01*
X45722380Y-79669642D01*
X45722380Y-79764880D01*
X45674761Y-79907738D01*
X45579523Y-80002976D01*
X45484285Y-80050595D01*
X45293809Y-80098214D01*
X45150952Y-80098214D01*
X44960476Y-80050595D01*
X44865238Y-80002976D01*
X44770000Y-79907738D01*
X44722380Y-79764880D01*
X44722380Y-79669642D01*
X44770000Y-79526785D01*
X44817619Y-79479166D01*
X44722380Y-78622023D02*
X44722380Y-78812500D01*
X44770000Y-78907738D01*
X44817619Y-78955357D01*
X44960476Y-79050595D01*
X45150952Y-79098214D01*
X45531904Y-79098214D01*
X45627142Y-79050595D01*
X45674761Y-79002976D01*
X45722380Y-78907738D01*
X45722380Y-78717261D01*
X45674761Y-78622023D01*
X45627142Y-78574404D01*
X45531904Y-78526785D01*
X45293809Y-78526785D01*
X45198571Y-78574404D01*
X45150952Y-78622023D01*
X45103333Y-78717261D01*
X45103333Y-78907738D01*
X45150952Y-79002976D01*
X45198571Y-79050595D01*
X45293809Y-79098214D01*
%TO.C,C4*%
X59733333Y-71727142D02*
X59685714Y-71774761D01*
X59542857Y-71822380D01*
X59447619Y-71822380D01*
X59304761Y-71774761D01*
X59209523Y-71679523D01*
X59161904Y-71584285D01*
X59114285Y-71393809D01*
X59114285Y-71250952D01*
X59161904Y-71060476D01*
X59209523Y-70965238D01*
X59304761Y-70870000D01*
X59447619Y-70822380D01*
X59542857Y-70822380D01*
X59685714Y-70870000D01*
X59733333Y-70917619D01*
X60590476Y-71155714D02*
X60590476Y-71822380D01*
X60352380Y-70774761D02*
X60114285Y-71489047D01*
X60733333Y-71489047D01*
%TO.C,C3*%
X59733333Y-73227142D02*
X59685714Y-73274761D01*
X59542857Y-73322380D01*
X59447619Y-73322380D01*
X59304761Y-73274761D01*
X59209523Y-73179523D01*
X59161904Y-73084285D01*
X59114285Y-72893809D01*
X59114285Y-72750952D01*
X59161904Y-72560476D01*
X59209523Y-72465238D01*
X59304761Y-72370000D01*
X59447619Y-72322380D01*
X59542857Y-72322380D01*
X59685714Y-72370000D01*
X59733333Y-72417619D01*
X60066666Y-72322380D02*
X60685714Y-72322380D01*
X60352380Y-72703333D01*
X60495238Y-72703333D01*
X60590476Y-72750952D01*
X60638095Y-72798571D01*
X60685714Y-72893809D01*
X60685714Y-73131904D01*
X60638095Y-73227142D01*
X60590476Y-73274761D01*
X60495238Y-73322380D01*
X60209523Y-73322380D01*
X60114285Y-73274761D01*
X60066666Y-73227142D01*
%TO.C,C1*%
X59733333Y-74727142D02*
X59685714Y-74774761D01*
X59542857Y-74822380D01*
X59447619Y-74822380D01*
X59304761Y-74774761D01*
X59209523Y-74679523D01*
X59161904Y-74584285D01*
X59114285Y-74393809D01*
X59114285Y-74250952D01*
X59161904Y-74060476D01*
X59209523Y-73965238D01*
X59304761Y-73870000D01*
X59447619Y-73822380D01*
X59542857Y-73822380D01*
X59685714Y-73870000D01*
X59733333Y-73917619D01*
X60685714Y-74822380D02*
X60114285Y-74822380D01*
X60400000Y-74822380D02*
X60400000Y-73822380D01*
X60304761Y-73965238D01*
X60209523Y-74060476D01*
X60114285Y-74108095D01*
%TD*%
M02*
