%TF.GenerationSoftware,KiCad,Pcbnew,5.1.5+dfsg1-2build2*%
%TF.CreationDate,2021-10-16T11:12:39+01:00*%
%TF.ProjectId,bluePillG,626c7565-5069-46c6-9c47-2e6b69636164,rev?*%
%TF.SameCoordinates,Original*%
%TF.FileFunction,Paste,Top*%
%TF.FilePolarity,Positive*%
%FSLAX46Y46*%
G04 Gerber Fmt 4.6, Leading zero omitted, Abs format (unit mm)*
G04 Created by KiCad (PCBNEW 5.1.5+dfsg1-2build2) date 2021-10-16 11:12:39*
%MOMM*%
%LPD*%
G04 APERTURE LIST*
%ADD10R,1.200000X0.900000*%
%ADD11R,1.475000X0.300000*%
%ADD12R,0.300000X1.475000*%
%ADD13C,0.100000*%
%ADD14R,0.675000X0.250000*%
%ADD15R,0.250000X0.675000*%
%ADD16R,0.300000X0.350000*%
%ADD17R,0.350000X0.300000*%
%ADD18R,1.500000X2.000000*%
%ADD19R,3.800000X2.000000*%
%ADD20R,0.998220X1.099820*%
%ADD21R,1.099820X0.998220*%
%ADD22R,1.798320X1.597660*%
G04 APERTURE END LIST*
D10*
%TO.C,D1*%
X27700874Y-61050001D03*
X27700874Y-64350001D03*
%TD*%
D11*
%TO.C,IC1*%
X46512000Y-77212000D03*
X46512000Y-76712000D03*
X46512000Y-76212000D03*
X46512000Y-75712000D03*
X46512000Y-75212000D03*
X46512000Y-74712000D03*
X46512000Y-74212000D03*
X46512000Y-73712000D03*
X46512000Y-73212000D03*
X46512000Y-72712000D03*
X46512000Y-72212000D03*
X46512000Y-71712000D03*
D12*
X48000000Y-70224000D03*
X48500000Y-70224000D03*
X49000000Y-70224000D03*
X49500000Y-70224000D03*
X50000000Y-70224000D03*
X50500000Y-70224000D03*
X51000000Y-70224000D03*
X51500000Y-70224000D03*
X52000000Y-70224000D03*
X52500000Y-70224000D03*
X53000000Y-70224000D03*
X53500000Y-70224000D03*
D11*
X54988000Y-71712000D03*
X54988000Y-72212000D03*
X54988000Y-72712000D03*
X54988000Y-73212000D03*
X54988000Y-73712000D03*
X54988000Y-74212000D03*
X54988000Y-74712000D03*
X54988000Y-75212000D03*
X54988000Y-75712000D03*
X54988000Y-76212000D03*
X54988000Y-76712000D03*
X54988000Y-77212000D03*
D12*
X53500000Y-78700000D03*
X53000000Y-78700000D03*
X52500000Y-78700000D03*
X52000000Y-78700000D03*
X51500000Y-78700000D03*
X51000000Y-78700000D03*
X50500000Y-78700000D03*
X50000000Y-78700000D03*
X49500000Y-78700000D03*
X49000000Y-78700000D03*
X48500000Y-78700000D03*
X48000000Y-78700000D03*
%TD*%
D13*
%TO.C,R7*%
G36*
X42015191Y-73726053D02*
G01*
X42036426Y-73729203D01*
X42057250Y-73734419D01*
X42077462Y-73741651D01*
X42096868Y-73750830D01*
X42115281Y-73761866D01*
X42132524Y-73774654D01*
X42148430Y-73789070D01*
X42162846Y-73804976D01*
X42175634Y-73822219D01*
X42186670Y-73840632D01*
X42195849Y-73860038D01*
X42203081Y-73880250D01*
X42208297Y-73901074D01*
X42211447Y-73922309D01*
X42212500Y-73943750D01*
X42212500Y-74456250D01*
X42211447Y-74477691D01*
X42208297Y-74498926D01*
X42203081Y-74519750D01*
X42195849Y-74539962D01*
X42186670Y-74559368D01*
X42175634Y-74577781D01*
X42162846Y-74595024D01*
X42148430Y-74610930D01*
X42132524Y-74625346D01*
X42115281Y-74638134D01*
X42096868Y-74649170D01*
X42077462Y-74658349D01*
X42057250Y-74665581D01*
X42036426Y-74670797D01*
X42015191Y-74673947D01*
X41993750Y-74675000D01*
X41556250Y-74675000D01*
X41534809Y-74673947D01*
X41513574Y-74670797D01*
X41492750Y-74665581D01*
X41472538Y-74658349D01*
X41453132Y-74649170D01*
X41434719Y-74638134D01*
X41417476Y-74625346D01*
X41401570Y-74610930D01*
X41387154Y-74595024D01*
X41374366Y-74577781D01*
X41363330Y-74559368D01*
X41354151Y-74539962D01*
X41346919Y-74519750D01*
X41341703Y-74498926D01*
X41338553Y-74477691D01*
X41337500Y-74456250D01*
X41337500Y-73943750D01*
X41338553Y-73922309D01*
X41341703Y-73901074D01*
X41346919Y-73880250D01*
X41354151Y-73860038D01*
X41363330Y-73840632D01*
X41374366Y-73822219D01*
X41387154Y-73804976D01*
X41401570Y-73789070D01*
X41417476Y-73774654D01*
X41434719Y-73761866D01*
X41453132Y-73750830D01*
X41472538Y-73741651D01*
X41492750Y-73734419D01*
X41513574Y-73729203D01*
X41534809Y-73726053D01*
X41556250Y-73725000D01*
X41993750Y-73725000D01*
X42015191Y-73726053D01*
G37*
G36*
X40440191Y-73726053D02*
G01*
X40461426Y-73729203D01*
X40482250Y-73734419D01*
X40502462Y-73741651D01*
X40521868Y-73750830D01*
X40540281Y-73761866D01*
X40557524Y-73774654D01*
X40573430Y-73789070D01*
X40587846Y-73804976D01*
X40600634Y-73822219D01*
X40611670Y-73840632D01*
X40620849Y-73860038D01*
X40628081Y-73880250D01*
X40633297Y-73901074D01*
X40636447Y-73922309D01*
X40637500Y-73943750D01*
X40637500Y-74456250D01*
X40636447Y-74477691D01*
X40633297Y-74498926D01*
X40628081Y-74519750D01*
X40620849Y-74539962D01*
X40611670Y-74559368D01*
X40600634Y-74577781D01*
X40587846Y-74595024D01*
X40573430Y-74610930D01*
X40557524Y-74625346D01*
X40540281Y-74638134D01*
X40521868Y-74649170D01*
X40502462Y-74658349D01*
X40482250Y-74665581D01*
X40461426Y-74670797D01*
X40440191Y-74673947D01*
X40418750Y-74675000D01*
X39981250Y-74675000D01*
X39959809Y-74673947D01*
X39938574Y-74670797D01*
X39917750Y-74665581D01*
X39897538Y-74658349D01*
X39878132Y-74649170D01*
X39859719Y-74638134D01*
X39842476Y-74625346D01*
X39826570Y-74610930D01*
X39812154Y-74595024D01*
X39799366Y-74577781D01*
X39788330Y-74559368D01*
X39779151Y-74539962D01*
X39771919Y-74519750D01*
X39766703Y-74498926D01*
X39763553Y-74477691D01*
X39762500Y-74456250D01*
X39762500Y-73943750D01*
X39763553Y-73922309D01*
X39766703Y-73901074D01*
X39771919Y-73880250D01*
X39779151Y-73860038D01*
X39788330Y-73840632D01*
X39799366Y-73822219D01*
X39812154Y-73804976D01*
X39826570Y-73789070D01*
X39842476Y-73774654D01*
X39859719Y-73761866D01*
X39878132Y-73750830D01*
X39897538Y-73741651D01*
X39917750Y-73734419D01*
X39938574Y-73729203D01*
X39959809Y-73726053D01*
X39981250Y-73725000D01*
X40418750Y-73725000D01*
X40440191Y-73726053D01*
G37*
%TD*%
%TO.C,R6*%
G36*
X42002691Y-72251053D02*
G01*
X42023926Y-72254203D01*
X42044750Y-72259419D01*
X42064962Y-72266651D01*
X42084368Y-72275830D01*
X42102781Y-72286866D01*
X42120024Y-72299654D01*
X42135930Y-72314070D01*
X42150346Y-72329976D01*
X42163134Y-72347219D01*
X42174170Y-72365632D01*
X42183349Y-72385038D01*
X42190581Y-72405250D01*
X42195797Y-72426074D01*
X42198947Y-72447309D01*
X42200000Y-72468750D01*
X42200000Y-72981250D01*
X42198947Y-73002691D01*
X42195797Y-73023926D01*
X42190581Y-73044750D01*
X42183349Y-73064962D01*
X42174170Y-73084368D01*
X42163134Y-73102781D01*
X42150346Y-73120024D01*
X42135930Y-73135930D01*
X42120024Y-73150346D01*
X42102781Y-73163134D01*
X42084368Y-73174170D01*
X42064962Y-73183349D01*
X42044750Y-73190581D01*
X42023926Y-73195797D01*
X42002691Y-73198947D01*
X41981250Y-73200000D01*
X41543750Y-73200000D01*
X41522309Y-73198947D01*
X41501074Y-73195797D01*
X41480250Y-73190581D01*
X41460038Y-73183349D01*
X41440632Y-73174170D01*
X41422219Y-73163134D01*
X41404976Y-73150346D01*
X41389070Y-73135930D01*
X41374654Y-73120024D01*
X41361866Y-73102781D01*
X41350830Y-73084368D01*
X41341651Y-73064962D01*
X41334419Y-73044750D01*
X41329203Y-73023926D01*
X41326053Y-73002691D01*
X41325000Y-72981250D01*
X41325000Y-72468750D01*
X41326053Y-72447309D01*
X41329203Y-72426074D01*
X41334419Y-72405250D01*
X41341651Y-72385038D01*
X41350830Y-72365632D01*
X41361866Y-72347219D01*
X41374654Y-72329976D01*
X41389070Y-72314070D01*
X41404976Y-72299654D01*
X41422219Y-72286866D01*
X41440632Y-72275830D01*
X41460038Y-72266651D01*
X41480250Y-72259419D01*
X41501074Y-72254203D01*
X41522309Y-72251053D01*
X41543750Y-72250000D01*
X41981250Y-72250000D01*
X42002691Y-72251053D01*
G37*
G36*
X40427691Y-72251053D02*
G01*
X40448926Y-72254203D01*
X40469750Y-72259419D01*
X40489962Y-72266651D01*
X40509368Y-72275830D01*
X40527781Y-72286866D01*
X40545024Y-72299654D01*
X40560930Y-72314070D01*
X40575346Y-72329976D01*
X40588134Y-72347219D01*
X40599170Y-72365632D01*
X40608349Y-72385038D01*
X40615581Y-72405250D01*
X40620797Y-72426074D01*
X40623947Y-72447309D01*
X40625000Y-72468750D01*
X40625000Y-72981250D01*
X40623947Y-73002691D01*
X40620797Y-73023926D01*
X40615581Y-73044750D01*
X40608349Y-73064962D01*
X40599170Y-73084368D01*
X40588134Y-73102781D01*
X40575346Y-73120024D01*
X40560930Y-73135930D01*
X40545024Y-73150346D01*
X40527781Y-73163134D01*
X40509368Y-73174170D01*
X40489962Y-73183349D01*
X40469750Y-73190581D01*
X40448926Y-73195797D01*
X40427691Y-73198947D01*
X40406250Y-73200000D01*
X39968750Y-73200000D01*
X39947309Y-73198947D01*
X39926074Y-73195797D01*
X39905250Y-73190581D01*
X39885038Y-73183349D01*
X39865632Y-73174170D01*
X39847219Y-73163134D01*
X39829976Y-73150346D01*
X39814070Y-73135930D01*
X39799654Y-73120024D01*
X39786866Y-73102781D01*
X39775830Y-73084368D01*
X39766651Y-73064962D01*
X39759419Y-73044750D01*
X39754203Y-73023926D01*
X39751053Y-73002691D01*
X39750000Y-72981250D01*
X39750000Y-72468750D01*
X39751053Y-72447309D01*
X39754203Y-72426074D01*
X39759419Y-72405250D01*
X39766651Y-72385038D01*
X39775830Y-72365632D01*
X39786866Y-72347219D01*
X39799654Y-72329976D01*
X39814070Y-72314070D01*
X39829976Y-72299654D01*
X39847219Y-72286866D01*
X39865632Y-72275830D01*
X39885038Y-72266651D01*
X39905250Y-72259419D01*
X39926074Y-72254203D01*
X39947309Y-72251053D01*
X39968750Y-72250000D01*
X40406250Y-72250000D01*
X40427691Y-72251053D01*
G37*
%TD*%
D14*
%TO.C,IC3*%
X42785000Y-61000000D03*
D15*
X43200000Y-62165000D03*
X43700000Y-62165000D03*
X44200000Y-62165000D03*
X44700000Y-62165000D03*
X45200000Y-62165000D03*
X45700000Y-62165000D03*
X46200000Y-62165000D03*
D14*
X46615000Y-61000000D03*
D15*
X46200000Y-59835000D03*
X45700000Y-59835000D03*
X45200000Y-59835000D03*
X44700000Y-59835000D03*
X44200000Y-59835000D03*
X43700000Y-59835000D03*
X43200000Y-59835000D03*
%TD*%
D16*
%TO.C,IC2*%
X49150000Y-53650000D03*
X49650000Y-53650000D03*
D17*
X50150000Y-53650000D03*
X50150000Y-54150000D03*
X50150000Y-54650000D03*
X50150000Y-55150000D03*
D16*
X49650000Y-55150000D03*
X49150000Y-55150000D03*
D17*
X48650000Y-55150000D03*
X48650000Y-54650000D03*
X48650000Y-54150000D03*
X48650000Y-53650000D03*
%TD*%
D13*
%TO.C,C25*%
G36*
X53577691Y-55351053D02*
G01*
X53598926Y-55354203D01*
X53619750Y-55359419D01*
X53639962Y-55366651D01*
X53659368Y-55375830D01*
X53677781Y-55386866D01*
X53695024Y-55399654D01*
X53710930Y-55414070D01*
X53725346Y-55429976D01*
X53738134Y-55447219D01*
X53749170Y-55465632D01*
X53758349Y-55485038D01*
X53765581Y-55505250D01*
X53770797Y-55526074D01*
X53773947Y-55547309D01*
X53775000Y-55568750D01*
X53775000Y-56006250D01*
X53773947Y-56027691D01*
X53770797Y-56048926D01*
X53765581Y-56069750D01*
X53758349Y-56089962D01*
X53749170Y-56109368D01*
X53738134Y-56127781D01*
X53725346Y-56145024D01*
X53710930Y-56160930D01*
X53695024Y-56175346D01*
X53677781Y-56188134D01*
X53659368Y-56199170D01*
X53639962Y-56208349D01*
X53619750Y-56215581D01*
X53598926Y-56220797D01*
X53577691Y-56223947D01*
X53556250Y-56225000D01*
X53043750Y-56225000D01*
X53022309Y-56223947D01*
X53001074Y-56220797D01*
X52980250Y-56215581D01*
X52960038Y-56208349D01*
X52940632Y-56199170D01*
X52922219Y-56188134D01*
X52904976Y-56175346D01*
X52889070Y-56160930D01*
X52874654Y-56145024D01*
X52861866Y-56127781D01*
X52850830Y-56109368D01*
X52841651Y-56089962D01*
X52834419Y-56069750D01*
X52829203Y-56048926D01*
X52826053Y-56027691D01*
X52825000Y-56006250D01*
X52825000Y-55568750D01*
X52826053Y-55547309D01*
X52829203Y-55526074D01*
X52834419Y-55505250D01*
X52841651Y-55485038D01*
X52850830Y-55465632D01*
X52861866Y-55447219D01*
X52874654Y-55429976D01*
X52889070Y-55414070D01*
X52904976Y-55399654D01*
X52922219Y-55386866D01*
X52940632Y-55375830D01*
X52960038Y-55366651D01*
X52980250Y-55359419D01*
X53001074Y-55354203D01*
X53022309Y-55351053D01*
X53043750Y-55350000D01*
X53556250Y-55350000D01*
X53577691Y-55351053D01*
G37*
G36*
X53577691Y-53776053D02*
G01*
X53598926Y-53779203D01*
X53619750Y-53784419D01*
X53639962Y-53791651D01*
X53659368Y-53800830D01*
X53677781Y-53811866D01*
X53695024Y-53824654D01*
X53710930Y-53839070D01*
X53725346Y-53854976D01*
X53738134Y-53872219D01*
X53749170Y-53890632D01*
X53758349Y-53910038D01*
X53765581Y-53930250D01*
X53770797Y-53951074D01*
X53773947Y-53972309D01*
X53775000Y-53993750D01*
X53775000Y-54431250D01*
X53773947Y-54452691D01*
X53770797Y-54473926D01*
X53765581Y-54494750D01*
X53758349Y-54514962D01*
X53749170Y-54534368D01*
X53738134Y-54552781D01*
X53725346Y-54570024D01*
X53710930Y-54585930D01*
X53695024Y-54600346D01*
X53677781Y-54613134D01*
X53659368Y-54624170D01*
X53639962Y-54633349D01*
X53619750Y-54640581D01*
X53598926Y-54645797D01*
X53577691Y-54648947D01*
X53556250Y-54650000D01*
X53043750Y-54650000D01*
X53022309Y-54648947D01*
X53001074Y-54645797D01*
X52980250Y-54640581D01*
X52960038Y-54633349D01*
X52940632Y-54624170D01*
X52922219Y-54613134D01*
X52904976Y-54600346D01*
X52889070Y-54585930D01*
X52874654Y-54570024D01*
X52861866Y-54552781D01*
X52850830Y-54534368D01*
X52841651Y-54514962D01*
X52834419Y-54494750D01*
X52829203Y-54473926D01*
X52826053Y-54452691D01*
X52825000Y-54431250D01*
X52825000Y-53993750D01*
X52826053Y-53972309D01*
X52829203Y-53951074D01*
X52834419Y-53930250D01*
X52841651Y-53910038D01*
X52850830Y-53890632D01*
X52861866Y-53872219D01*
X52874654Y-53854976D01*
X52889070Y-53839070D01*
X52904976Y-53824654D01*
X52922219Y-53811866D01*
X52940632Y-53800830D01*
X52960038Y-53791651D01*
X52980250Y-53784419D01*
X53001074Y-53779203D01*
X53022309Y-53776053D01*
X53043750Y-53775000D01*
X53556250Y-53775000D01*
X53577691Y-53776053D01*
G37*
%TD*%
%TO.C,C24*%
G36*
X52077691Y-55351053D02*
G01*
X52098926Y-55354203D01*
X52119750Y-55359419D01*
X52139962Y-55366651D01*
X52159368Y-55375830D01*
X52177781Y-55386866D01*
X52195024Y-55399654D01*
X52210930Y-55414070D01*
X52225346Y-55429976D01*
X52238134Y-55447219D01*
X52249170Y-55465632D01*
X52258349Y-55485038D01*
X52265581Y-55505250D01*
X52270797Y-55526074D01*
X52273947Y-55547309D01*
X52275000Y-55568750D01*
X52275000Y-56006250D01*
X52273947Y-56027691D01*
X52270797Y-56048926D01*
X52265581Y-56069750D01*
X52258349Y-56089962D01*
X52249170Y-56109368D01*
X52238134Y-56127781D01*
X52225346Y-56145024D01*
X52210930Y-56160930D01*
X52195024Y-56175346D01*
X52177781Y-56188134D01*
X52159368Y-56199170D01*
X52139962Y-56208349D01*
X52119750Y-56215581D01*
X52098926Y-56220797D01*
X52077691Y-56223947D01*
X52056250Y-56225000D01*
X51543750Y-56225000D01*
X51522309Y-56223947D01*
X51501074Y-56220797D01*
X51480250Y-56215581D01*
X51460038Y-56208349D01*
X51440632Y-56199170D01*
X51422219Y-56188134D01*
X51404976Y-56175346D01*
X51389070Y-56160930D01*
X51374654Y-56145024D01*
X51361866Y-56127781D01*
X51350830Y-56109368D01*
X51341651Y-56089962D01*
X51334419Y-56069750D01*
X51329203Y-56048926D01*
X51326053Y-56027691D01*
X51325000Y-56006250D01*
X51325000Y-55568750D01*
X51326053Y-55547309D01*
X51329203Y-55526074D01*
X51334419Y-55505250D01*
X51341651Y-55485038D01*
X51350830Y-55465632D01*
X51361866Y-55447219D01*
X51374654Y-55429976D01*
X51389070Y-55414070D01*
X51404976Y-55399654D01*
X51422219Y-55386866D01*
X51440632Y-55375830D01*
X51460038Y-55366651D01*
X51480250Y-55359419D01*
X51501074Y-55354203D01*
X51522309Y-55351053D01*
X51543750Y-55350000D01*
X52056250Y-55350000D01*
X52077691Y-55351053D01*
G37*
G36*
X52077691Y-53776053D02*
G01*
X52098926Y-53779203D01*
X52119750Y-53784419D01*
X52139962Y-53791651D01*
X52159368Y-53800830D01*
X52177781Y-53811866D01*
X52195024Y-53824654D01*
X52210930Y-53839070D01*
X52225346Y-53854976D01*
X52238134Y-53872219D01*
X52249170Y-53890632D01*
X52258349Y-53910038D01*
X52265581Y-53930250D01*
X52270797Y-53951074D01*
X52273947Y-53972309D01*
X52275000Y-53993750D01*
X52275000Y-54431250D01*
X52273947Y-54452691D01*
X52270797Y-54473926D01*
X52265581Y-54494750D01*
X52258349Y-54514962D01*
X52249170Y-54534368D01*
X52238134Y-54552781D01*
X52225346Y-54570024D01*
X52210930Y-54585930D01*
X52195024Y-54600346D01*
X52177781Y-54613134D01*
X52159368Y-54624170D01*
X52139962Y-54633349D01*
X52119750Y-54640581D01*
X52098926Y-54645797D01*
X52077691Y-54648947D01*
X52056250Y-54650000D01*
X51543750Y-54650000D01*
X51522309Y-54648947D01*
X51501074Y-54645797D01*
X51480250Y-54640581D01*
X51460038Y-54633349D01*
X51440632Y-54624170D01*
X51422219Y-54613134D01*
X51404976Y-54600346D01*
X51389070Y-54585930D01*
X51374654Y-54570024D01*
X51361866Y-54552781D01*
X51350830Y-54534368D01*
X51341651Y-54514962D01*
X51334419Y-54494750D01*
X51329203Y-54473926D01*
X51326053Y-54452691D01*
X51325000Y-54431250D01*
X51325000Y-53993750D01*
X51326053Y-53972309D01*
X51329203Y-53951074D01*
X51334419Y-53930250D01*
X51341651Y-53910038D01*
X51350830Y-53890632D01*
X51361866Y-53872219D01*
X51374654Y-53854976D01*
X51389070Y-53839070D01*
X51404976Y-53824654D01*
X51422219Y-53811866D01*
X51440632Y-53800830D01*
X51460038Y-53791651D01*
X51480250Y-53784419D01*
X51501074Y-53779203D01*
X51522309Y-53776053D01*
X51543750Y-53775000D01*
X52056250Y-53775000D01*
X52077691Y-53776053D01*
G37*
%TD*%
%TO.C,C23*%
G36*
X48752691Y-51526053D02*
G01*
X48773926Y-51529203D01*
X48794750Y-51534419D01*
X48814962Y-51541651D01*
X48834368Y-51550830D01*
X48852781Y-51561866D01*
X48870024Y-51574654D01*
X48885930Y-51589070D01*
X48900346Y-51604976D01*
X48913134Y-51622219D01*
X48924170Y-51640632D01*
X48933349Y-51660038D01*
X48940581Y-51680250D01*
X48945797Y-51701074D01*
X48948947Y-51722309D01*
X48950000Y-51743750D01*
X48950000Y-52256250D01*
X48948947Y-52277691D01*
X48945797Y-52298926D01*
X48940581Y-52319750D01*
X48933349Y-52339962D01*
X48924170Y-52359368D01*
X48913134Y-52377781D01*
X48900346Y-52395024D01*
X48885930Y-52410930D01*
X48870024Y-52425346D01*
X48852781Y-52438134D01*
X48834368Y-52449170D01*
X48814962Y-52458349D01*
X48794750Y-52465581D01*
X48773926Y-52470797D01*
X48752691Y-52473947D01*
X48731250Y-52475000D01*
X48293750Y-52475000D01*
X48272309Y-52473947D01*
X48251074Y-52470797D01*
X48230250Y-52465581D01*
X48210038Y-52458349D01*
X48190632Y-52449170D01*
X48172219Y-52438134D01*
X48154976Y-52425346D01*
X48139070Y-52410930D01*
X48124654Y-52395024D01*
X48111866Y-52377781D01*
X48100830Y-52359368D01*
X48091651Y-52339962D01*
X48084419Y-52319750D01*
X48079203Y-52298926D01*
X48076053Y-52277691D01*
X48075000Y-52256250D01*
X48075000Y-51743750D01*
X48076053Y-51722309D01*
X48079203Y-51701074D01*
X48084419Y-51680250D01*
X48091651Y-51660038D01*
X48100830Y-51640632D01*
X48111866Y-51622219D01*
X48124654Y-51604976D01*
X48139070Y-51589070D01*
X48154976Y-51574654D01*
X48172219Y-51561866D01*
X48190632Y-51550830D01*
X48210038Y-51541651D01*
X48230250Y-51534419D01*
X48251074Y-51529203D01*
X48272309Y-51526053D01*
X48293750Y-51525000D01*
X48731250Y-51525000D01*
X48752691Y-51526053D01*
G37*
G36*
X50327691Y-51526053D02*
G01*
X50348926Y-51529203D01*
X50369750Y-51534419D01*
X50389962Y-51541651D01*
X50409368Y-51550830D01*
X50427781Y-51561866D01*
X50445024Y-51574654D01*
X50460930Y-51589070D01*
X50475346Y-51604976D01*
X50488134Y-51622219D01*
X50499170Y-51640632D01*
X50508349Y-51660038D01*
X50515581Y-51680250D01*
X50520797Y-51701074D01*
X50523947Y-51722309D01*
X50525000Y-51743750D01*
X50525000Y-52256250D01*
X50523947Y-52277691D01*
X50520797Y-52298926D01*
X50515581Y-52319750D01*
X50508349Y-52339962D01*
X50499170Y-52359368D01*
X50488134Y-52377781D01*
X50475346Y-52395024D01*
X50460930Y-52410930D01*
X50445024Y-52425346D01*
X50427781Y-52438134D01*
X50409368Y-52449170D01*
X50389962Y-52458349D01*
X50369750Y-52465581D01*
X50348926Y-52470797D01*
X50327691Y-52473947D01*
X50306250Y-52475000D01*
X49868750Y-52475000D01*
X49847309Y-52473947D01*
X49826074Y-52470797D01*
X49805250Y-52465581D01*
X49785038Y-52458349D01*
X49765632Y-52449170D01*
X49747219Y-52438134D01*
X49729976Y-52425346D01*
X49714070Y-52410930D01*
X49699654Y-52395024D01*
X49686866Y-52377781D01*
X49675830Y-52359368D01*
X49666651Y-52339962D01*
X49659419Y-52319750D01*
X49654203Y-52298926D01*
X49651053Y-52277691D01*
X49650000Y-52256250D01*
X49650000Y-51743750D01*
X49651053Y-51722309D01*
X49654203Y-51701074D01*
X49659419Y-51680250D01*
X49666651Y-51660038D01*
X49675830Y-51640632D01*
X49686866Y-51622219D01*
X49699654Y-51604976D01*
X49714070Y-51589070D01*
X49729976Y-51574654D01*
X49747219Y-51561866D01*
X49765632Y-51550830D01*
X49785038Y-51541651D01*
X49805250Y-51534419D01*
X49826074Y-51529203D01*
X49847309Y-51526053D01*
X49868750Y-51525000D01*
X50306250Y-51525000D01*
X50327691Y-51526053D01*
G37*
%TD*%
%TO.C,C22*%
G36*
X44165191Y-63426053D02*
G01*
X44186426Y-63429203D01*
X44207250Y-63434419D01*
X44227462Y-63441651D01*
X44246868Y-63450830D01*
X44265281Y-63461866D01*
X44282524Y-63474654D01*
X44298430Y-63489070D01*
X44312846Y-63504976D01*
X44325634Y-63522219D01*
X44336670Y-63540632D01*
X44345849Y-63560038D01*
X44353081Y-63580250D01*
X44358297Y-63601074D01*
X44361447Y-63622309D01*
X44362500Y-63643750D01*
X44362500Y-64156250D01*
X44361447Y-64177691D01*
X44358297Y-64198926D01*
X44353081Y-64219750D01*
X44345849Y-64239962D01*
X44336670Y-64259368D01*
X44325634Y-64277781D01*
X44312846Y-64295024D01*
X44298430Y-64310930D01*
X44282524Y-64325346D01*
X44265281Y-64338134D01*
X44246868Y-64349170D01*
X44227462Y-64358349D01*
X44207250Y-64365581D01*
X44186426Y-64370797D01*
X44165191Y-64373947D01*
X44143750Y-64375000D01*
X43706250Y-64375000D01*
X43684809Y-64373947D01*
X43663574Y-64370797D01*
X43642750Y-64365581D01*
X43622538Y-64358349D01*
X43603132Y-64349170D01*
X43584719Y-64338134D01*
X43567476Y-64325346D01*
X43551570Y-64310930D01*
X43537154Y-64295024D01*
X43524366Y-64277781D01*
X43513330Y-64259368D01*
X43504151Y-64239962D01*
X43496919Y-64219750D01*
X43491703Y-64198926D01*
X43488553Y-64177691D01*
X43487500Y-64156250D01*
X43487500Y-63643750D01*
X43488553Y-63622309D01*
X43491703Y-63601074D01*
X43496919Y-63580250D01*
X43504151Y-63560038D01*
X43513330Y-63540632D01*
X43524366Y-63522219D01*
X43537154Y-63504976D01*
X43551570Y-63489070D01*
X43567476Y-63474654D01*
X43584719Y-63461866D01*
X43603132Y-63450830D01*
X43622538Y-63441651D01*
X43642750Y-63434419D01*
X43663574Y-63429203D01*
X43684809Y-63426053D01*
X43706250Y-63425000D01*
X44143750Y-63425000D01*
X44165191Y-63426053D01*
G37*
G36*
X45740191Y-63426053D02*
G01*
X45761426Y-63429203D01*
X45782250Y-63434419D01*
X45802462Y-63441651D01*
X45821868Y-63450830D01*
X45840281Y-63461866D01*
X45857524Y-63474654D01*
X45873430Y-63489070D01*
X45887846Y-63504976D01*
X45900634Y-63522219D01*
X45911670Y-63540632D01*
X45920849Y-63560038D01*
X45928081Y-63580250D01*
X45933297Y-63601074D01*
X45936447Y-63622309D01*
X45937500Y-63643750D01*
X45937500Y-64156250D01*
X45936447Y-64177691D01*
X45933297Y-64198926D01*
X45928081Y-64219750D01*
X45920849Y-64239962D01*
X45911670Y-64259368D01*
X45900634Y-64277781D01*
X45887846Y-64295024D01*
X45873430Y-64310930D01*
X45857524Y-64325346D01*
X45840281Y-64338134D01*
X45821868Y-64349170D01*
X45802462Y-64358349D01*
X45782250Y-64365581D01*
X45761426Y-64370797D01*
X45740191Y-64373947D01*
X45718750Y-64375000D01*
X45281250Y-64375000D01*
X45259809Y-64373947D01*
X45238574Y-64370797D01*
X45217750Y-64365581D01*
X45197538Y-64358349D01*
X45178132Y-64349170D01*
X45159719Y-64338134D01*
X45142476Y-64325346D01*
X45126570Y-64310930D01*
X45112154Y-64295024D01*
X45099366Y-64277781D01*
X45088330Y-64259368D01*
X45079151Y-64239962D01*
X45071919Y-64219750D01*
X45066703Y-64198926D01*
X45063553Y-64177691D01*
X45062500Y-64156250D01*
X45062500Y-63643750D01*
X45063553Y-63622309D01*
X45066703Y-63601074D01*
X45071919Y-63580250D01*
X45079151Y-63560038D01*
X45088330Y-63540632D01*
X45099366Y-63522219D01*
X45112154Y-63504976D01*
X45126570Y-63489070D01*
X45142476Y-63474654D01*
X45159719Y-63461866D01*
X45178132Y-63450830D01*
X45197538Y-63441651D01*
X45217750Y-63434419D01*
X45238574Y-63429203D01*
X45259809Y-63426053D01*
X45281250Y-63425000D01*
X45718750Y-63425000D01*
X45740191Y-63426053D01*
G37*
%TD*%
%TO.C,C21*%
G36*
X45847691Y-58056053D02*
G01*
X45868926Y-58059203D01*
X45889750Y-58064419D01*
X45909962Y-58071651D01*
X45929368Y-58080830D01*
X45947781Y-58091866D01*
X45965024Y-58104654D01*
X45980930Y-58119070D01*
X45995346Y-58134976D01*
X46008134Y-58152219D01*
X46019170Y-58170632D01*
X46028349Y-58190038D01*
X46035581Y-58210250D01*
X46040797Y-58231074D01*
X46043947Y-58252309D01*
X46045000Y-58273750D01*
X46045000Y-58786250D01*
X46043947Y-58807691D01*
X46040797Y-58828926D01*
X46035581Y-58849750D01*
X46028349Y-58869962D01*
X46019170Y-58889368D01*
X46008134Y-58907781D01*
X45995346Y-58925024D01*
X45980930Y-58940930D01*
X45965024Y-58955346D01*
X45947781Y-58968134D01*
X45929368Y-58979170D01*
X45909962Y-58988349D01*
X45889750Y-58995581D01*
X45868926Y-59000797D01*
X45847691Y-59003947D01*
X45826250Y-59005000D01*
X45388750Y-59005000D01*
X45367309Y-59003947D01*
X45346074Y-59000797D01*
X45325250Y-58995581D01*
X45305038Y-58988349D01*
X45285632Y-58979170D01*
X45267219Y-58968134D01*
X45249976Y-58955346D01*
X45234070Y-58940930D01*
X45219654Y-58925024D01*
X45206866Y-58907781D01*
X45195830Y-58889368D01*
X45186651Y-58869962D01*
X45179419Y-58849750D01*
X45174203Y-58828926D01*
X45171053Y-58807691D01*
X45170000Y-58786250D01*
X45170000Y-58273750D01*
X45171053Y-58252309D01*
X45174203Y-58231074D01*
X45179419Y-58210250D01*
X45186651Y-58190038D01*
X45195830Y-58170632D01*
X45206866Y-58152219D01*
X45219654Y-58134976D01*
X45234070Y-58119070D01*
X45249976Y-58104654D01*
X45267219Y-58091866D01*
X45285632Y-58080830D01*
X45305038Y-58071651D01*
X45325250Y-58064419D01*
X45346074Y-58059203D01*
X45367309Y-58056053D01*
X45388750Y-58055000D01*
X45826250Y-58055000D01*
X45847691Y-58056053D01*
G37*
G36*
X44272691Y-58056053D02*
G01*
X44293926Y-58059203D01*
X44314750Y-58064419D01*
X44334962Y-58071651D01*
X44354368Y-58080830D01*
X44372781Y-58091866D01*
X44390024Y-58104654D01*
X44405930Y-58119070D01*
X44420346Y-58134976D01*
X44433134Y-58152219D01*
X44444170Y-58170632D01*
X44453349Y-58190038D01*
X44460581Y-58210250D01*
X44465797Y-58231074D01*
X44468947Y-58252309D01*
X44470000Y-58273750D01*
X44470000Y-58786250D01*
X44468947Y-58807691D01*
X44465797Y-58828926D01*
X44460581Y-58849750D01*
X44453349Y-58869962D01*
X44444170Y-58889368D01*
X44433134Y-58907781D01*
X44420346Y-58925024D01*
X44405930Y-58940930D01*
X44390024Y-58955346D01*
X44372781Y-58968134D01*
X44354368Y-58979170D01*
X44334962Y-58988349D01*
X44314750Y-58995581D01*
X44293926Y-59000797D01*
X44272691Y-59003947D01*
X44251250Y-59005000D01*
X43813750Y-59005000D01*
X43792309Y-59003947D01*
X43771074Y-59000797D01*
X43750250Y-58995581D01*
X43730038Y-58988349D01*
X43710632Y-58979170D01*
X43692219Y-58968134D01*
X43674976Y-58955346D01*
X43659070Y-58940930D01*
X43644654Y-58925024D01*
X43631866Y-58907781D01*
X43620830Y-58889368D01*
X43611651Y-58869962D01*
X43604419Y-58849750D01*
X43599203Y-58828926D01*
X43596053Y-58807691D01*
X43595000Y-58786250D01*
X43595000Y-58273750D01*
X43596053Y-58252309D01*
X43599203Y-58231074D01*
X43604419Y-58210250D01*
X43611651Y-58190038D01*
X43620830Y-58170632D01*
X43631866Y-58152219D01*
X43644654Y-58134976D01*
X43659070Y-58119070D01*
X43674976Y-58104654D01*
X43692219Y-58091866D01*
X43710632Y-58080830D01*
X43730038Y-58071651D01*
X43750250Y-58064419D01*
X43771074Y-58059203D01*
X43792309Y-58056053D01*
X43813750Y-58055000D01*
X44251250Y-58055000D01*
X44272691Y-58056053D01*
G37*
%TD*%
%TO.C,C20*%
G36*
X50527691Y-56326053D02*
G01*
X50548926Y-56329203D01*
X50569750Y-56334419D01*
X50589962Y-56341651D01*
X50609368Y-56350830D01*
X50627781Y-56361866D01*
X50645024Y-56374654D01*
X50660930Y-56389070D01*
X50675346Y-56404976D01*
X50688134Y-56422219D01*
X50699170Y-56440632D01*
X50708349Y-56460038D01*
X50715581Y-56480250D01*
X50720797Y-56501074D01*
X50723947Y-56522309D01*
X50725000Y-56543750D01*
X50725000Y-57056250D01*
X50723947Y-57077691D01*
X50720797Y-57098926D01*
X50715581Y-57119750D01*
X50708349Y-57139962D01*
X50699170Y-57159368D01*
X50688134Y-57177781D01*
X50675346Y-57195024D01*
X50660930Y-57210930D01*
X50645024Y-57225346D01*
X50627781Y-57238134D01*
X50609368Y-57249170D01*
X50589962Y-57258349D01*
X50569750Y-57265581D01*
X50548926Y-57270797D01*
X50527691Y-57273947D01*
X50506250Y-57275000D01*
X50068750Y-57275000D01*
X50047309Y-57273947D01*
X50026074Y-57270797D01*
X50005250Y-57265581D01*
X49985038Y-57258349D01*
X49965632Y-57249170D01*
X49947219Y-57238134D01*
X49929976Y-57225346D01*
X49914070Y-57210930D01*
X49899654Y-57195024D01*
X49886866Y-57177781D01*
X49875830Y-57159368D01*
X49866651Y-57139962D01*
X49859419Y-57119750D01*
X49854203Y-57098926D01*
X49851053Y-57077691D01*
X49850000Y-57056250D01*
X49850000Y-56543750D01*
X49851053Y-56522309D01*
X49854203Y-56501074D01*
X49859419Y-56480250D01*
X49866651Y-56460038D01*
X49875830Y-56440632D01*
X49886866Y-56422219D01*
X49899654Y-56404976D01*
X49914070Y-56389070D01*
X49929976Y-56374654D01*
X49947219Y-56361866D01*
X49965632Y-56350830D01*
X49985038Y-56341651D01*
X50005250Y-56334419D01*
X50026074Y-56329203D01*
X50047309Y-56326053D01*
X50068750Y-56325000D01*
X50506250Y-56325000D01*
X50527691Y-56326053D01*
G37*
G36*
X48952691Y-56326053D02*
G01*
X48973926Y-56329203D01*
X48994750Y-56334419D01*
X49014962Y-56341651D01*
X49034368Y-56350830D01*
X49052781Y-56361866D01*
X49070024Y-56374654D01*
X49085930Y-56389070D01*
X49100346Y-56404976D01*
X49113134Y-56422219D01*
X49124170Y-56440632D01*
X49133349Y-56460038D01*
X49140581Y-56480250D01*
X49145797Y-56501074D01*
X49148947Y-56522309D01*
X49150000Y-56543750D01*
X49150000Y-57056250D01*
X49148947Y-57077691D01*
X49145797Y-57098926D01*
X49140581Y-57119750D01*
X49133349Y-57139962D01*
X49124170Y-57159368D01*
X49113134Y-57177781D01*
X49100346Y-57195024D01*
X49085930Y-57210930D01*
X49070024Y-57225346D01*
X49052781Y-57238134D01*
X49034368Y-57249170D01*
X49014962Y-57258349D01*
X48994750Y-57265581D01*
X48973926Y-57270797D01*
X48952691Y-57273947D01*
X48931250Y-57275000D01*
X48493750Y-57275000D01*
X48472309Y-57273947D01*
X48451074Y-57270797D01*
X48430250Y-57265581D01*
X48410038Y-57258349D01*
X48390632Y-57249170D01*
X48372219Y-57238134D01*
X48354976Y-57225346D01*
X48339070Y-57210930D01*
X48324654Y-57195024D01*
X48311866Y-57177781D01*
X48300830Y-57159368D01*
X48291651Y-57139962D01*
X48284419Y-57119750D01*
X48279203Y-57098926D01*
X48276053Y-57077691D01*
X48275000Y-57056250D01*
X48275000Y-56543750D01*
X48276053Y-56522309D01*
X48279203Y-56501074D01*
X48284419Y-56480250D01*
X48291651Y-56460038D01*
X48300830Y-56440632D01*
X48311866Y-56422219D01*
X48324654Y-56404976D01*
X48339070Y-56389070D01*
X48354976Y-56374654D01*
X48372219Y-56361866D01*
X48390632Y-56350830D01*
X48410038Y-56341651D01*
X48430250Y-56334419D01*
X48451074Y-56329203D01*
X48472309Y-56326053D01*
X48493750Y-56325000D01*
X48931250Y-56325000D01*
X48952691Y-56326053D01*
G37*
%TD*%
%TO.C,C2*%
G36*
X57878565Y-75463553D02*
G01*
X57899800Y-75466703D01*
X57920624Y-75471919D01*
X57940836Y-75479151D01*
X57960242Y-75488330D01*
X57978655Y-75499366D01*
X57995898Y-75512154D01*
X58011804Y-75526570D01*
X58026220Y-75542476D01*
X58039008Y-75559719D01*
X58050044Y-75578132D01*
X58059223Y-75597538D01*
X58066455Y-75617750D01*
X58071671Y-75638574D01*
X58074821Y-75659809D01*
X58075874Y-75681250D01*
X58075874Y-76118750D01*
X58074821Y-76140191D01*
X58071671Y-76161426D01*
X58066455Y-76182250D01*
X58059223Y-76202462D01*
X58050044Y-76221868D01*
X58039008Y-76240281D01*
X58026220Y-76257524D01*
X58011804Y-76273430D01*
X57995898Y-76287846D01*
X57978655Y-76300634D01*
X57960242Y-76311670D01*
X57940836Y-76320849D01*
X57920624Y-76328081D01*
X57899800Y-76333297D01*
X57878565Y-76336447D01*
X57857124Y-76337500D01*
X57344624Y-76337500D01*
X57323183Y-76336447D01*
X57301948Y-76333297D01*
X57281124Y-76328081D01*
X57260912Y-76320849D01*
X57241506Y-76311670D01*
X57223093Y-76300634D01*
X57205850Y-76287846D01*
X57189944Y-76273430D01*
X57175528Y-76257524D01*
X57162740Y-76240281D01*
X57151704Y-76221868D01*
X57142525Y-76202462D01*
X57135293Y-76182250D01*
X57130077Y-76161426D01*
X57126927Y-76140191D01*
X57125874Y-76118750D01*
X57125874Y-75681250D01*
X57126927Y-75659809D01*
X57130077Y-75638574D01*
X57135293Y-75617750D01*
X57142525Y-75597538D01*
X57151704Y-75578132D01*
X57162740Y-75559719D01*
X57175528Y-75542476D01*
X57189944Y-75526570D01*
X57205850Y-75512154D01*
X57223093Y-75499366D01*
X57241506Y-75488330D01*
X57260912Y-75479151D01*
X57281124Y-75471919D01*
X57301948Y-75466703D01*
X57323183Y-75463553D01*
X57344624Y-75462500D01*
X57857124Y-75462500D01*
X57878565Y-75463553D01*
G37*
G36*
X57878565Y-73888553D02*
G01*
X57899800Y-73891703D01*
X57920624Y-73896919D01*
X57940836Y-73904151D01*
X57960242Y-73913330D01*
X57978655Y-73924366D01*
X57995898Y-73937154D01*
X58011804Y-73951570D01*
X58026220Y-73967476D01*
X58039008Y-73984719D01*
X58050044Y-74003132D01*
X58059223Y-74022538D01*
X58066455Y-74042750D01*
X58071671Y-74063574D01*
X58074821Y-74084809D01*
X58075874Y-74106250D01*
X58075874Y-74543750D01*
X58074821Y-74565191D01*
X58071671Y-74586426D01*
X58066455Y-74607250D01*
X58059223Y-74627462D01*
X58050044Y-74646868D01*
X58039008Y-74665281D01*
X58026220Y-74682524D01*
X58011804Y-74698430D01*
X57995898Y-74712846D01*
X57978655Y-74725634D01*
X57960242Y-74736670D01*
X57940836Y-74745849D01*
X57920624Y-74753081D01*
X57899800Y-74758297D01*
X57878565Y-74761447D01*
X57857124Y-74762500D01*
X57344624Y-74762500D01*
X57323183Y-74761447D01*
X57301948Y-74758297D01*
X57281124Y-74753081D01*
X57260912Y-74745849D01*
X57241506Y-74736670D01*
X57223093Y-74725634D01*
X57205850Y-74712846D01*
X57189944Y-74698430D01*
X57175528Y-74682524D01*
X57162740Y-74665281D01*
X57151704Y-74646868D01*
X57142525Y-74627462D01*
X57135293Y-74607250D01*
X57130077Y-74586426D01*
X57126927Y-74565191D01*
X57125874Y-74543750D01*
X57125874Y-74106250D01*
X57126927Y-74084809D01*
X57130077Y-74063574D01*
X57135293Y-74042750D01*
X57142525Y-74022538D01*
X57151704Y-74003132D01*
X57162740Y-73984719D01*
X57175528Y-73967476D01*
X57189944Y-73951570D01*
X57205850Y-73937154D01*
X57223093Y-73924366D01*
X57241506Y-73913330D01*
X57260912Y-73904151D01*
X57281124Y-73896919D01*
X57301948Y-73891703D01*
X57323183Y-73888553D01*
X57344624Y-73887500D01*
X57857124Y-73887500D01*
X57878565Y-73888553D01*
G37*
%TD*%
%TO.C,C7*%
G36*
X41852691Y-76626053D02*
G01*
X41873926Y-76629203D01*
X41894750Y-76634419D01*
X41914962Y-76641651D01*
X41934368Y-76650830D01*
X41952781Y-76661866D01*
X41970024Y-76674654D01*
X41985930Y-76689070D01*
X42000346Y-76704976D01*
X42013134Y-76722219D01*
X42024170Y-76740632D01*
X42033349Y-76760038D01*
X42040581Y-76780250D01*
X42045797Y-76801074D01*
X42048947Y-76822309D01*
X42050000Y-76843750D01*
X42050000Y-77356250D01*
X42048947Y-77377691D01*
X42045797Y-77398926D01*
X42040581Y-77419750D01*
X42033349Y-77439962D01*
X42024170Y-77459368D01*
X42013134Y-77477781D01*
X42000346Y-77495024D01*
X41985930Y-77510930D01*
X41970024Y-77525346D01*
X41952781Y-77538134D01*
X41934368Y-77549170D01*
X41914962Y-77558349D01*
X41894750Y-77565581D01*
X41873926Y-77570797D01*
X41852691Y-77573947D01*
X41831250Y-77575000D01*
X41393750Y-77575000D01*
X41372309Y-77573947D01*
X41351074Y-77570797D01*
X41330250Y-77565581D01*
X41310038Y-77558349D01*
X41290632Y-77549170D01*
X41272219Y-77538134D01*
X41254976Y-77525346D01*
X41239070Y-77510930D01*
X41224654Y-77495024D01*
X41211866Y-77477781D01*
X41200830Y-77459368D01*
X41191651Y-77439962D01*
X41184419Y-77419750D01*
X41179203Y-77398926D01*
X41176053Y-77377691D01*
X41175000Y-77356250D01*
X41175000Y-76843750D01*
X41176053Y-76822309D01*
X41179203Y-76801074D01*
X41184419Y-76780250D01*
X41191651Y-76760038D01*
X41200830Y-76740632D01*
X41211866Y-76722219D01*
X41224654Y-76704976D01*
X41239070Y-76689070D01*
X41254976Y-76674654D01*
X41272219Y-76661866D01*
X41290632Y-76650830D01*
X41310038Y-76641651D01*
X41330250Y-76634419D01*
X41351074Y-76629203D01*
X41372309Y-76626053D01*
X41393750Y-76625000D01*
X41831250Y-76625000D01*
X41852691Y-76626053D01*
G37*
G36*
X43427691Y-76626053D02*
G01*
X43448926Y-76629203D01*
X43469750Y-76634419D01*
X43489962Y-76641651D01*
X43509368Y-76650830D01*
X43527781Y-76661866D01*
X43545024Y-76674654D01*
X43560930Y-76689070D01*
X43575346Y-76704976D01*
X43588134Y-76722219D01*
X43599170Y-76740632D01*
X43608349Y-76760038D01*
X43615581Y-76780250D01*
X43620797Y-76801074D01*
X43623947Y-76822309D01*
X43625000Y-76843750D01*
X43625000Y-77356250D01*
X43623947Y-77377691D01*
X43620797Y-77398926D01*
X43615581Y-77419750D01*
X43608349Y-77439962D01*
X43599170Y-77459368D01*
X43588134Y-77477781D01*
X43575346Y-77495024D01*
X43560930Y-77510930D01*
X43545024Y-77525346D01*
X43527781Y-77538134D01*
X43509368Y-77549170D01*
X43489962Y-77558349D01*
X43469750Y-77565581D01*
X43448926Y-77570797D01*
X43427691Y-77573947D01*
X43406250Y-77575000D01*
X42968750Y-77575000D01*
X42947309Y-77573947D01*
X42926074Y-77570797D01*
X42905250Y-77565581D01*
X42885038Y-77558349D01*
X42865632Y-77549170D01*
X42847219Y-77538134D01*
X42829976Y-77525346D01*
X42814070Y-77510930D01*
X42799654Y-77495024D01*
X42786866Y-77477781D01*
X42775830Y-77459368D01*
X42766651Y-77439962D01*
X42759419Y-77419750D01*
X42754203Y-77398926D01*
X42751053Y-77377691D01*
X42750000Y-77356250D01*
X42750000Y-76843750D01*
X42751053Y-76822309D01*
X42754203Y-76801074D01*
X42759419Y-76780250D01*
X42766651Y-76760038D01*
X42775830Y-76740632D01*
X42786866Y-76722219D01*
X42799654Y-76704976D01*
X42814070Y-76689070D01*
X42829976Y-76674654D01*
X42847219Y-76661866D01*
X42865632Y-76650830D01*
X42885038Y-76641651D01*
X42905250Y-76634419D01*
X42926074Y-76629203D01*
X42947309Y-76626053D01*
X42968750Y-76625000D01*
X43406250Y-76625000D01*
X43427691Y-76626053D01*
G37*
%TD*%
D18*
%TO.C,U1*%
X35100000Y-77100000D03*
X30500000Y-77100000D03*
X32800000Y-77100000D03*
D19*
X32800000Y-83400000D03*
%TD*%
D13*
%TO.C,R5*%
G36*
X42727691Y-84426053D02*
G01*
X42748926Y-84429203D01*
X42769750Y-84434419D01*
X42789962Y-84441651D01*
X42809368Y-84450830D01*
X42827781Y-84461866D01*
X42845024Y-84474654D01*
X42860930Y-84489070D01*
X42875346Y-84504976D01*
X42888134Y-84522219D01*
X42899170Y-84540632D01*
X42908349Y-84560038D01*
X42915581Y-84580250D01*
X42920797Y-84601074D01*
X42923947Y-84622309D01*
X42925000Y-84643750D01*
X42925000Y-85156250D01*
X42923947Y-85177691D01*
X42920797Y-85198926D01*
X42915581Y-85219750D01*
X42908349Y-85239962D01*
X42899170Y-85259368D01*
X42888134Y-85277781D01*
X42875346Y-85295024D01*
X42860930Y-85310930D01*
X42845024Y-85325346D01*
X42827781Y-85338134D01*
X42809368Y-85349170D01*
X42789962Y-85358349D01*
X42769750Y-85365581D01*
X42748926Y-85370797D01*
X42727691Y-85373947D01*
X42706250Y-85375000D01*
X42268750Y-85375000D01*
X42247309Y-85373947D01*
X42226074Y-85370797D01*
X42205250Y-85365581D01*
X42185038Y-85358349D01*
X42165632Y-85349170D01*
X42147219Y-85338134D01*
X42129976Y-85325346D01*
X42114070Y-85310930D01*
X42099654Y-85295024D01*
X42086866Y-85277781D01*
X42075830Y-85259368D01*
X42066651Y-85239962D01*
X42059419Y-85219750D01*
X42054203Y-85198926D01*
X42051053Y-85177691D01*
X42050000Y-85156250D01*
X42050000Y-84643750D01*
X42051053Y-84622309D01*
X42054203Y-84601074D01*
X42059419Y-84580250D01*
X42066651Y-84560038D01*
X42075830Y-84540632D01*
X42086866Y-84522219D01*
X42099654Y-84504976D01*
X42114070Y-84489070D01*
X42129976Y-84474654D01*
X42147219Y-84461866D01*
X42165632Y-84450830D01*
X42185038Y-84441651D01*
X42205250Y-84434419D01*
X42226074Y-84429203D01*
X42247309Y-84426053D01*
X42268750Y-84425000D01*
X42706250Y-84425000D01*
X42727691Y-84426053D01*
G37*
G36*
X41152691Y-84426053D02*
G01*
X41173926Y-84429203D01*
X41194750Y-84434419D01*
X41214962Y-84441651D01*
X41234368Y-84450830D01*
X41252781Y-84461866D01*
X41270024Y-84474654D01*
X41285930Y-84489070D01*
X41300346Y-84504976D01*
X41313134Y-84522219D01*
X41324170Y-84540632D01*
X41333349Y-84560038D01*
X41340581Y-84580250D01*
X41345797Y-84601074D01*
X41348947Y-84622309D01*
X41350000Y-84643750D01*
X41350000Y-85156250D01*
X41348947Y-85177691D01*
X41345797Y-85198926D01*
X41340581Y-85219750D01*
X41333349Y-85239962D01*
X41324170Y-85259368D01*
X41313134Y-85277781D01*
X41300346Y-85295024D01*
X41285930Y-85310930D01*
X41270024Y-85325346D01*
X41252781Y-85338134D01*
X41234368Y-85349170D01*
X41214962Y-85358349D01*
X41194750Y-85365581D01*
X41173926Y-85370797D01*
X41152691Y-85373947D01*
X41131250Y-85375000D01*
X40693750Y-85375000D01*
X40672309Y-85373947D01*
X40651074Y-85370797D01*
X40630250Y-85365581D01*
X40610038Y-85358349D01*
X40590632Y-85349170D01*
X40572219Y-85338134D01*
X40554976Y-85325346D01*
X40539070Y-85310930D01*
X40524654Y-85295024D01*
X40511866Y-85277781D01*
X40500830Y-85259368D01*
X40491651Y-85239962D01*
X40484419Y-85219750D01*
X40479203Y-85198926D01*
X40476053Y-85177691D01*
X40475000Y-85156250D01*
X40475000Y-84643750D01*
X40476053Y-84622309D01*
X40479203Y-84601074D01*
X40484419Y-84580250D01*
X40491651Y-84560038D01*
X40500830Y-84540632D01*
X40511866Y-84522219D01*
X40524654Y-84504976D01*
X40539070Y-84489070D01*
X40554976Y-84474654D01*
X40572219Y-84461866D01*
X40590632Y-84450830D01*
X40610038Y-84441651D01*
X40630250Y-84434419D01*
X40651074Y-84429203D01*
X40672309Y-84426053D01*
X40693750Y-84425000D01*
X41131250Y-84425000D01*
X41152691Y-84426053D01*
G37*
%TD*%
%TO.C,R4*%
G36*
X37440191Y-83826053D02*
G01*
X37461426Y-83829203D01*
X37482250Y-83834419D01*
X37502462Y-83841651D01*
X37521868Y-83850830D01*
X37540281Y-83861866D01*
X37557524Y-83874654D01*
X37573430Y-83889070D01*
X37587846Y-83904976D01*
X37600634Y-83922219D01*
X37611670Y-83940632D01*
X37620849Y-83960038D01*
X37628081Y-83980250D01*
X37633297Y-84001074D01*
X37636447Y-84022309D01*
X37637500Y-84043750D01*
X37637500Y-84556250D01*
X37636447Y-84577691D01*
X37633297Y-84598926D01*
X37628081Y-84619750D01*
X37620849Y-84639962D01*
X37611670Y-84659368D01*
X37600634Y-84677781D01*
X37587846Y-84695024D01*
X37573430Y-84710930D01*
X37557524Y-84725346D01*
X37540281Y-84738134D01*
X37521868Y-84749170D01*
X37502462Y-84758349D01*
X37482250Y-84765581D01*
X37461426Y-84770797D01*
X37440191Y-84773947D01*
X37418750Y-84775000D01*
X36981250Y-84775000D01*
X36959809Y-84773947D01*
X36938574Y-84770797D01*
X36917750Y-84765581D01*
X36897538Y-84758349D01*
X36878132Y-84749170D01*
X36859719Y-84738134D01*
X36842476Y-84725346D01*
X36826570Y-84710930D01*
X36812154Y-84695024D01*
X36799366Y-84677781D01*
X36788330Y-84659368D01*
X36779151Y-84639962D01*
X36771919Y-84619750D01*
X36766703Y-84598926D01*
X36763553Y-84577691D01*
X36762500Y-84556250D01*
X36762500Y-84043750D01*
X36763553Y-84022309D01*
X36766703Y-84001074D01*
X36771919Y-83980250D01*
X36779151Y-83960038D01*
X36788330Y-83940632D01*
X36799366Y-83922219D01*
X36812154Y-83904976D01*
X36826570Y-83889070D01*
X36842476Y-83874654D01*
X36859719Y-83861866D01*
X36878132Y-83850830D01*
X36897538Y-83841651D01*
X36917750Y-83834419D01*
X36938574Y-83829203D01*
X36959809Y-83826053D01*
X36981250Y-83825000D01*
X37418750Y-83825000D01*
X37440191Y-83826053D01*
G37*
G36*
X39015191Y-83826053D02*
G01*
X39036426Y-83829203D01*
X39057250Y-83834419D01*
X39077462Y-83841651D01*
X39096868Y-83850830D01*
X39115281Y-83861866D01*
X39132524Y-83874654D01*
X39148430Y-83889070D01*
X39162846Y-83904976D01*
X39175634Y-83922219D01*
X39186670Y-83940632D01*
X39195849Y-83960038D01*
X39203081Y-83980250D01*
X39208297Y-84001074D01*
X39211447Y-84022309D01*
X39212500Y-84043750D01*
X39212500Y-84556250D01*
X39211447Y-84577691D01*
X39208297Y-84598926D01*
X39203081Y-84619750D01*
X39195849Y-84639962D01*
X39186670Y-84659368D01*
X39175634Y-84677781D01*
X39162846Y-84695024D01*
X39148430Y-84710930D01*
X39132524Y-84725346D01*
X39115281Y-84738134D01*
X39096868Y-84749170D01*
X39077462Y-84758349D01*
X39057250Y-84765581D01*
X39036426Y-84770797D01*
X39015191Y-84773947D01*
X38993750Y-84775000D01*
X38556250Y-84775000D01*
X38534809Y-84773947D01*
X38513574Y-84770797D01*
X38492750Y-84765581D01*
X38472538Y-84758349D01*
X38453132Y-84749170D01*
X38434719Y-84738134D01*
X38417476Y-84725346D01*
X38401570Y-84710930D01*
X38387154Y-84695024D01*
X38374366Y-84677781D01*
X38363330Y-84659368D01*
X38354151Y-84639962D01*
X38346919Y-84619750D01*
X38341703Y-84598926D01*
X38338553Y-84577691D01*
X38337500Y-84556250D01*
X38337500Y-84043750D01*
X38338553Y-84022309D01*
X38341703Y-84001074D01*
X38346919Y-83980250D01*
X38354151Y-83960038D01*
X38363330Y-83940632D01*
X38374366Y-83922219D01*
X38387154Y-83904976D01*
X38401570Y-83889070D01*
X38417476Y-83874654D01*
X38434719Y-83861866D01*
X38453132Y-83850830D01*
X38472538Y-83841651D01*
X38492750Y-83834419D01*
X38513574Y-83829203D01*
X38534809Y-83826053D01*
X38556250Y-83825000D01*
X38993750Y-83825000D01*
X39015191Y-83826053D01*
G37*
%TD*%
%TO.C,R3*%
G36*
X52740191Y-80926053D02*
G01*
X52761426Y-80929203D01*
X52782250Y-80934419D01*
X52802462Y-80941651D01*
X52821868Y-80950830D01*
X52840281Y-80961866D01*
X52857524Y-80974654D01*
X52873430Y-80989070D01*
X52887846Y-81004976D01*
X52900634Y-81022219D01*
X52911670Y-81040632D01*
X52920849Y-81060038D01*
X52928081Y-81080250D01*
X52933297Y-81101074D01*
X52936447Y-81122309D01*
X52937500Y-81143750D01*
X52937500Y-81656250D01*
X52936447Y-81677691D01*
X52933297Y-81698926D01*
X52928081Y-81719750D01*
X52920849Y-81739962D01*
X52911670Y-81759368D01*
X52900634Y-81777781D01*
X52887846Y-81795024D01*
X52873430Y-81810930D01*
X52857524Y-81825346D01*
X52840281Y-81838134D01*
X52821868Y-81849170D01*
X52802462Y-81858349D01*
X52782250Y-81865581D01*
X52761426Y-81870797D01*
X52740191Y-81873947D01*
X52718750Y-81875000D01*
X52281250Y-81875000D01*
X52259809Y-81873947D01*
X52238574Y-81870797D01*
X52217750Y-81865581D01*
X52197538Y-81858349D01*
X52178132Y-81849170D01*
X52159719Y-81838134D01*
X52142476Y-81825346D01*
X52126570Y-81810930D01*
X52112154Y-81795024D01*
X52099366Y-81777781D01*
X52088330Y-81759368D01*
X52079151Y-81739962D01*
X52071919Y-81719750D01*
X52066703Y-81698926D01*
X52063553Y-81677691D01*
X52062500Y-81656250D01*
X52062500Y-81143750D01*
X52063553Y-81122309D01*
X52066703Y-81101074D01*
X52071919Y-81080250D01*
X52079151Y-81060038D01*
X52088330Y-81040632D01*
X52099366Y-81022219D01*
X52112154Y-81004976D01*
X52126570Y-80989070D01*
X52142476Y-80974654D01*
X52159719Y-80961866D01*
X52178132Y-80950830D01*
X52197538Y-80941651D01*
X52217750Y-80934419D01*
X52238574Y-80929203D01*
X52259809Y-80926053D01*
X52281250Y-80925000D01*
X52718750Y-80925000D01*
X52740191Y-80926053D01*
G37*
G36*
X51165191Y-80926053D02*
G01*
X51186426Y-80929203D01*
X51207250Y-80934419D01*
X51227462Y-80941651D01*
X51246868Y-80950830D01*
X51265281Y-80961866D01*
X51282524Y-80974654D01*
X51298430Y-80989070D01*
X51312846Y-81004976D01*
X51325634Y-81022219D01*
X51336670Y-81040632D01*
X51345849Y-81060038D01*
X51353081Y-81080250D01*
X51358297Y-81101074D01*
X51361447Y-81122309D01*
X51362500Y-81143750D01*
X51362500Y-81656250D01*
X51361447Y-81677691D01*
X51358297Y-81698926D01*
X51353081Y-81719750D01*
X51345849Y-81739962D01*
X51336670Y-81759368D01*
X51325634Y-81777781D01*
X51312846Y-81795024D01*
X51298430Y-81810930D01*
X51282524Y-81825346D01*
X51265281Y-81838134D01*
X51246868Y-81849170D01*
X51227462Y-81858349D01*
X51207250Y-81865581D01*
X51186426Y-81870797D01*
X51165191Y-81873947D01*
X51143750Y-81875000D01*
X50706250Y-81875000D01*
X50684809Y-81873947D01*
X50663574Y-81870797D01*
X50642750Y-81865581D01*
X50622538Y-81858349D01*
X50603132Y-81849170D01*
X50584719Y-81838134D01*
X50567476Y-81825346D01*
X50551570Y-81810930D01*
X50537154Y-81795024D01*
X50524366Y-81777781D01*
X50513330Y-81759368D01*
X50504151Y-81739962D01*
X50496919Y-81719750D01*
X50491703Y-81698926D01*
X50488553Y-81677691D01*
X50487500Y-81656250D01*
X50487500Y-81143750D01*
X50488553Y-81122309D01*
X50491703Y-81101074D01*
X50496919Y-81080250D01*
X50504151Y-81060038D01*
X50513330Y-81040632D01*
X50524366Y-81022219D01*
X50537154Y-81004976D01*
X50551570Y-80989070D01*
X50567476Y-80974654D01*
X50584719Y-80961866D01*
X50603132Y-80950830D01*
X50622538Y-80941651D01*
X50642750Y-80934419D01*
X50663574Y-80929203D01*
X50684809Y-80926053D01*
X50706250Y-80925000D01*
X51143750Y-80925000D01*
X51165191Y-80926053D01*
G37*
%TD*%
%TO.C,R1*%
G36*
X29777691Y-65888553D02*
G01*
X29798926Y-65891703D01*
X29819750Y-65896919D01*
X29839962Y-65904151D01*
X29859368Y-65913330D01*
X29877781Y-65924366D01*
X29895024Y-65937154D01*
X29910930Y-65951570D01*
X29925346Y-65967476D01*
X29938134Y-65984719D01*
X29949170Y-66003132D01*
X29958349Y-66022538D01*
X29965581Y-66042750D01*
X29970797Y-66063574D01*
X29973947Y-66084809D01*
X29975000Y-66106250D01*
X29975000Y-66543750D01*
X29973947Y-66565191D01*
X29970797Y-66586426D01*
X29965581Y-66607250D01*
X29958349Y-66627462D01*
X29949170Y-66646868D01*
X29938134Y-66665281D01*
X29925346Y-66682524D01*
X29910930Y-66698430D01*
X29895024Y-66712846D01*
X29877781Y-66725634D01*
X29859368Y-66736670D01*
X29839962Y-66745849D01*
X29819750Y-66753081D01*
X29798926Y-66758297D01*
X29777691Y-66761447D01*
X29756250Y-66762500D01*
X29243750Y-66762500D01*
X29222309Y-66761447D01*
X29201074Y-66758297D01*
X29180250Y-66753081D01*
X29160038Y-66745849D01*
X29140632Y-66736670D01*
X29122219Y-66725634D01*
X29104976Y-66712846D01*
X29089070Y-66698430D01*
X29074654Y-66682524D01*
X29061866Y-66665281D01*
X29050830Y-66646868D01*
X29041651Y-66627462D01*
X29034419Y-66607250D01*
X29029203Y-66586426D01*
X29026053Y-66565191D01*
X29025000Y-66543750D01*
X29025000Y-66106250D01*
X29026053Y-66084809D01*
X29029203Y-66063574D01*
X29034419Y-66042750D01*
X29041651Y-66022538D01*
X29050830Y-66003132D01*
X29061866Y-65984719D01*
X29074654Y-65967476D01*
X29089070Y-65951570D01*
X29104976Y-65937154D01*
X29122219Y-65924366D01*
X29140632Y-65913330D01*
X29160038Y-65904151D01*
X29180250Y-65896919D01*
X29201074Y-65891703D01*
X29222309Y-65888553D01*
X29243750Y-65887500D01*
X29756250Y-65887500D01*
X29777691Y-65888553D01*
G37*
G36*
X29777691Y-67463553D02*
G01*
X29798926Y-67466703D01*
X29819750Y-67471919D01*
X29839962Y-67479151D01*
X29859368Y-67488330D01*
X29877781Y-67499366D01*
X29895024Y-67512154D01*
X29910930Y-67526570D01*
X29925346Y-67542476D01*
X29938134Y-67559719D01*
X29949170Y-67578132D01*
X29958349Y-67597538D01*
X29965581Y-67617750D01*
X29970797Y-67638574D01*
X29973947Y-67659809D01*
X29975000Y-67681250D01*
X29975000Y-68118750D01*
X29973947Y-68140191D01*
X29970797Y-68161426D01*
X29965581Y-68182250D01*
X29958349Y-68202462D01*
X29949170Y-68221868D01*
X29938134Y-68240281D01*
X29925346Y-68257524D01*
X29910930Y-68273430D01*
X29895024Y-68287846D01*
X29877781Y-68300634D01*
X29859368Y-68311670D01*
X29839962Y-68320849D01*
X29819750Y-68328081D01*
X29798926Y-68333297D01*
X29777691Y-68336447D01*
X29756250Y-68337500D01*
X29243750Y-68337500D01*
X29222309Y-68336447D01*
X29201074Y-68333297D01*
X29180250Y-68328081D01*
X29160038Y-68320849D01*
X29140632Y-68311670D01*
X29122219Y-68300634D01*
X29104976Y-68287846D01*
X29089070Y-68273430D01*
X29074654Y-68257524D01*
X29061866Y-68240281D01*
X29050830Y-68221868D01*
X29041651Y-68202462D01*
X29034419Y-68182250D01*
X29029203Y-68161426D01*
X29026053Y-68140191D01*
X29025000Y-68118750D01*
X29025000Y-67681250D01*
X29026053Y-67659809D01*
X29029203Y-67638574D01*
X29034419Y-67617750D01*
X29041651Y-67597538D01*
X29050830Y-67578132D01*
X29061866Y-67559719D01*
X29074654Y-67542476D01*
X29089070Y-67526570D01*
X29104976Y-67512154D01*
X29122219Y-67499366D01*
X29140632Y-67488330D01*
X29160038Y-67479151D01*
X29180250Y-67471919D01*
X29201074Y-67466703D01*
X29222309Y-67463553D01*
X29243750Y-67462500D01*
X29756250Y-67462500D01*
X29777691Y-67463553D01*
G37*
%TD*%
D20*
%TO.C,FB2*%
X57600000Y-71151641D03*
X57600000Y-72848361D03*
%TD*%
D21*
%TO.C,FB1*%
X28051640Y-75100000D03*
X29748360Y-75100000D03*
%TD*%
D22*
%TO.C,F1*%
X27600874Y-66650000D03*
X27600874Y-69449080D03*
%TD*%
D13*
%TO.C,D3*%
G36*
X42980142Y-86013674D02*
G01*
X43003803Y-86017184D01*
X43027007Y-86022996D01*
X43049529Y-86031054D01*
X43071153Y-86041282D01*
X43091670Y-86053579D01*
X43110883Y-86067829D01*
X43128607Y-86083893D01*
X43144671Y-86101617D01*
X43158921Y-86120830D01*
X43171218Y-86141347D01*
X43181446Y-86162971D01*
X43189504Y-86185493D01*
X43195316Y-86208697D01*
X43198826Y-86232358D01*
X43200000Y-86256250D01*
X43200000Y-86743750D01*
X43198826Y-86767642D01*
X43195316Y-86791303D01*
X43189504Y-86814507D01*
X43181446Y-86837029D01*
X43171218Y-86858653D01*
X43158921Y-86879170D01*
X43144671Y-86898383D01*
X43128607Y-86916107D01*
X43110883Y-86932171D01*
X43091670Y-86946421D01*
X43071153Y-86958718D01*
X43049529Y-86968946D01*
X43027007Y-86977004D01*
X43003803Y-86982816D01*
X42980142Y-86986326D01*
X42956250Y-86987500D01*
X42043750Y-86987500D01*
X42019858Y-86986326D01*
X41996197Y-86982816D01*
X41972993Y-86977004D01*
X41950471Y-86968946D01*
X41928847Y-86958718D01*
X41908330Y-86946421D01*
X41889117Y-86932171D01*
X41871393Y-86916107D01*
X41855329Y-86898383D01*
X41841079Y-86879170D01*
X41828782Y-86858653D01*
X41818554Y-86837029D01*
X41810496Y-86814507D01*
X41804684Y-86791303D01*
X41801174Y-86767642D01*
X41800000Y-86743750D01*
X41800000Y-86256250D01*
X41801174Y-86232358D01*
X41804684Y-86208697D01*
X41810496Y-86185493D01*
X41818554Y-86162971D01*
X41828782Y-86141347D01*
X41841079Y-86120830D01*
X41855329Y-86101617D01*
X41871393Y-86083893D01*
X41889117Y-86067829D01*
X41908330Y-86053579D01*
X41928847Y-86041282D01*
X41950471Y-86031054D01*
X41972993Y-86022996D01*
X41996197Y-86017184D01*
X42019858Y-86013674D01*
X42043750Y-86012500D01*
X42956250Y-86012500D01*
X42980142Y-86013674D01*
G37*
G36*
X42980142Y-87888674D02*
G01*
X43003803Y-87892184D01*
X43027007Y-87897996D01*
X43049529Y-87906054D01*
X43071153Y-87916282D01*
X43091670Y-87928579D01*
X43110883Y-87942829D01*
X43128607Y-87958893D01*
X43144671Y-87976617D01*
X43158921Y-87995830D01*
X43171218Y-88016347D01*
X43181446Y-88037971D01*
X43189504Y-88060493D01*
X43195316Y-88083697D01*
X43198826Y-88107358D01*
X43200000Y-88131250D01*
X43200000Y-88618750D01*
X43198826Y-88642642D01*
X43195316Y-88666303D01*
X43189504Y-88689507D01*
X43181446Y-88712029D01*
X43171218Y-88733653D01*
X43158921Y-88754170D01*
X43144671Y-88773383D01*
X43128607Y-88791107D01*
X43110883Y-88807171D01*
X43091670Y-88821421D01*
X43071153Y-88833718D01*
X43049529Y-88843946D01*
X43027007Y-88852004D01*
X43003803Y-88857816D01*
X42980142Y-88861326D01*
X42956250Y-88862500D01*
X42043750Y-88862500D01*
X42019858Y-88861326D01*
X41996197Y-88857816D01*
X41972993Y-88852004D01*
X41950471Y-88843946D01*
X41928847Y-88833718D01*
X41908330Y-88821421D01*
X41889117Y-88807171D01*
X41871393Y-88791107D01*
X41855329Y-88773383D01*
X41841079Y-88754170D01*
X41828782Y-88733653D01*
X41818554Y-88712029D01*
X41810496Y-88689507D01*
X41804684Y-88666303D01*
X41801174Y-88642642D01*
X41800000Y-88618750D01*
X41800000Y-88131250D01*
X41801174Y-88107358D01*
X41804684Y-88083697D01*
X41810496Y-88060493D01*
X41818554Y-88037971D01*
X41828782Y-88016347D01*
X41841079Y-87995830D01*
X41855329Y-87976617D01*
X41871393Y-87958893D01*
X41889117Y-87942829D01*
X41908330Y-87928579D01*
X41928847Y-87916282D01*
X41950471Y-87906054D01*
X41972993Y-87897996D01*
X41996197Y-87892184D01*
X42019858Y-87888674D01*
X42043750Y-87887500D01*
X42956250Y-87887500D01*
X42980142Y-87888674D01*
G37*
%TD*%
%TO.C,D2*%
G36*
X30181016Y-71288674D02*
G01*
X30204677Y-71292184D01*
X30227881Y-71297996D01*
X30250403Y-71306054D01*
X30272027Y-71316282D01*
X30292544Y-71328579D01*
X30311757Y-71342829D01*
X30329481Y-71358893D01*
X30345545Y-71376617D01*
X30359795Y-71395830D01*
X30372092Y-71416347D01*
X30382320Y-71437971D01*
X30390378Y-71460493D01*
X30396190Y-71483697D01*
X30399700Y-71507358D01*
X30400874Y-71531250D01*
X30400874Y-72018750D01*
X30399700Y-72042642D01*
X30396190Y-72066303D01*
X30390378Y-72089507D01*
X30382320Y-72112029D01*
X30372092Y-72133653D01*
X30359795Y-72154170D01*
X30345545Y-72173383D01*
X30329481Y-72191107D01*
X30311757Y-72207171D01*
X30292544Y-72221421D01*
X30272027Y-72233718D01*
X30250403Y-72243946D01*
X30227881Y-72252004D01*
X30204677Y-72257816D01*
X30181016Y-72261326D01*
X30157124Y-72262500D01*
X29244624Y-72262500D01*
X29220732Y-72261326D01*
X29197071Y-72257816D01*
X29173867Y-72252004D01*
X29151345Y-72243946D01*
X29129721Y-72233718D01*
X29109204Y-72221421D01*
X29089991Y-72207171D01*
X29072267Y-72191107D01*
X29056203Y-72173383D01*
X29041953Y-72154170D01*
X29029656Y-72133653D01*
X29019428Y-72112029D01*
X29011370Y-72089507D01*
X29005558Y-72066303D01*
X29002048Y-72042642D01*
X29000874Y-72018750D01*
X29000874Y-71531250D01*
X29002048Y-71507358D01*
X29005558Y-71483697D01*
X29011370Y-71460493D01*
X29019428Y-71437971D01*
X29029656Y-71416347D01*
X29041953Y-71395830D01*
X29056203Y-71376617D01*
X29072267Y-71358893D01*
X29089991Y-71342829D01*
X29109204Y-71328579D01*
X29129721Y-71316282D01*
X29151345Y-71306054D01*
X29173867Y-71297996D01*
X29197071Y-71292184D01*
X29220732Y-71288674D01*
X29244624Y-71287500D01*
X30157124Y-71287500D01*
X30181016Y-71288674D01*
G37*
G36*
X30181016Y-69413674D02*
G01*
X30204677Y-69417184D01*
X30227881Y-69422996D01*
X30250403Y-69431054D01*
X30272027Y-69441282D01*
X30292544Y-69453579D01*
X30311757Y-69467829D01*
X30329481Y-69483893D01*
X30345545Y-69501617D01*
X30359795Y-69520830D01*
X30372092Y-69541347D01*
X30382320Y-69562971D01*
X30390378Y-69585493D01*
X30396190Y-69608697D01*
X30399700Y-69632358D01*
X30400874Y-69656250D01*
X30400874Y-70143750D01*
X30399700Y-70167642D01*
X30396190Y-70191303D01*
X30390378Y-70214507D01*
X30382320Y-70237029D01*
X30372092Y-70258653D01*
X30359795Y-70279170D01*
X30345545Y-70298383D01*
X30329481Y-70316107D01*
X30311757Y-70332171D01*
X30292544Y-70346421D01*
X30272027Y-70358718D01*
X30250403Y-70368946D01*
X30227881Y-70377004D01*
X30204677Y-70382816D01*
X30181016Y-70386326D01*
X30157124Y-70387500D01*
X29244624Y-70387500D01*
X29220732Y-70386326D01*
X29197071Y-70382816D01*
X29173867Y-70377004D01*
X29151345Y-70368946D01*
X29129721Y-70358718D01*
X29109204Y-70346421D01*
X29089991Y-70332171D01*
X29072267Y-70316107D01*
X29056203Y-70298383D01*
X29041953Y-70279170D01*
X29029656Y-70258653D01*
X29019428Y-70237029D01*
X29011370Y-70214507D01*
X29005558Y-70191303D01*
X29002048Y-70167642D01*
X29000874Y-70143750D01*
X29000874Y-69656250D01*
X29002048Y-69632358D01*
X29005558Y-69608697D01*
X29011370Y-69585493D01*
X29019428Y-69562971D01*
X29029656Y-69541347D01*
X29041953Y-69520830D01*
X29056203Y-69501617D01*
X29072267Y-69483893D01*
X29089991Y-69467829D01*
X29109204Y-69453579D01*
X29129721Y-69441282D01*
X29151345Y-69431054D01*
X29173867Y-69422996D01*
X29197071Y-69417184D01*
X29220732Y-69413674D01*
X29244624Y-69412500D01*
X30157124Y-69412500D01*
X30181016Y-69413674D01*
G37*
%TD*%
%TO.C,C17*%
G36*
X41540191Y-82426053D02*
G01*
X41561426Y-82429203D01*
X41582250Y-82434419D01*
X41602462Y-82441651D01*
X41621868Y-82450830D01*
X41640281Y-82461866D01*
X41657524Y-82474654D01*
X41673430Y-82489070D01*
X41687846Y-82504976D01*
X41700634Y-82522219D01*
X41711670Y-82540632D01*
X41720849Y-82560038D01*
X41728081Y-82580250D01*
X41733297Y-82601074D01*
X41736447Y-82622309D01*
X41737500Y-82643750D01*
X41737500Y-83156250D01*
X41736447Y-83177691D01*
X41733297Y-83198926D01*
X41728081Y-83219750D01*
X41720849Y-83239962D01*
X41711670Y-83259368D01*
X41700634Y-83277781D01*
X41687846Y-83295024D01*
X41673430Y-83310930D01*
X41657524Y-83325346D01*
X41640281Y-83338134D01*
X41621868Y-83349170D01*
X41602462Y-83358349D01*
X41582250Y-83365581D01*
X41561426Y-83370797D01*
X41540191Y-83373947D01*
X41518750Y-83375000D01*
X41081250Y-83375000D01*
X41059809Y-83373947D01*
X41038574Y-83370797D01*
X41017750Y-83365581D01*
X40997538Y-83358349D01*
X40978132Y-83349170D01*
X40959719Y-83338134D01*
X40942476Y-83325346D01*
X40926570Y-83310930D01*
X40912154Y-83295024D01*
X40899366Y-83277781D01*
X40888330Y-83259368D01*
X40879151Y-83239962D01*
X40871919Y-83219750D01*
X40866703Y-83198926D01*
X40863553Y-83177691D01*
X40862500Y-83156250D01*
X40862500Y-82643750D01*
X40863553Y-82622309D01*
X40866703Y-82601074D01*
X40871919Y-82580250D01*
X40879151Y-82560038D01*
X40888330Y-82540632D01*
X40899366Y-82522219D01*
X40912154Y-82504976D01*
X40926570Y-82489070D01*
X40942476Y-82474654D01*
X40959719Y-82461866D01*
X40978132Y-82450830D01*
X40997538Y-82441651D01*
X41017750Y-82434419D01*
X41038574Y-82429203D01*
X41059809Y-82426053D01*
X41081250Y-82425000D01*
X41518750Y-82425000D01*
X41540191Y-82426053D01*
G37*
G36*
X43115191Y-82426053D02*
G01*
X43136426Y-82429203D01*
X43157250Y-82434419D01*
X43177462Y-82441651D01*
X43196868Y-82450830D01*
X43215281Y-82461866D01*
X43232524Y-82474654D01*
X43248430Y-82489070D01*
X43262846Y-82504976D01*
X43275634Y-82522219D01*
X43286670Y-82540632D01*
X43295849Y-82560038D01*
X43303081Y-82580250D01*
X43308297Y-82601074D01*
X43311447Y-82622309D01*
X43312500Y-82643750D01*
X43312500Y-83156250D01*
X43311447Y-83177691D01*
X43308297Y-83198926D01*
X43303081Y-83219750D01*
X43295849Y-83239962D01*
X43286670Y-83259368D01*
X43275634Y-83277781D01*
X43262846Y-83295024D01*
X43248430Y-83310930D01*
X43232524Y-83325346D01*
X43215281Y-83338134D01*
X43196868Y-83349170D01*
X43177462Y-83358349D01*
X43157250Y-83365581D01*
X43136426Y-83370797D01*
X43115191Y-83373947D01*
X43093750Y-83375000D01*
X42656250Y-83375000D01*
X42634809Y-83373947D01*
X42613574Y-83370797D01*
X42592750Y-83365581D01*
X42572538Y-83358349D01*
X42553132Y-83349170D01*
X42534719Y-83338134D01*
X42517476Y-83325346D01*
X42501570Y-83310930D01*
X42487154Y-83295024D01*
X42474366Y-83277781D01*
X42463330Y-83259368D01*
X42454151Y-83239962D01*
X42446919Y-83219750D01*
X42441703Y-83198926D01*
X42438553Y-83177691D01*
X42437500Y-83156250D01*
X42437500Y-82643750D01*
X42438553Y-82622309D01*
X42441703Y-82601074D01*
X42446919Y-82580250D01*
X42454151Y-82560038D01*
X42463330Y-82540632D01*
X42474366Y-82522219D01*
X42487154Y-82504976D01*
X42501570Y-82489070D01*
X42517476Y-82474654D01*
X42534719Y-82461866D01*
X42553132Y-82450830D01*
X42572538Y-82441651D01*
X42592750Y-82434419D01*
X42613574Y-82429203D01*
X42634809Y-82426053D01*
X42656250Y-82425000D01*
X43093750Y-82425000D01*
X43115191Y-82426053D01*
G37*
%TD*%
%TO.C,C16*%
G36*
X41540191Y-80026053D02*
G01*
X41561426Y-80029203D01*
X41582250Y-80034419D01*
X41602462Y-80041651D01*
X41621868Y-80050830D01*
X41640281Y-80061866D01*
X41657524Y-80074654D01*
X41673430Y-80089070D01*
X41687846Y-80104976D01*
X41700634Y-80122219D01*
X41711670Y-80140632D01*
X41720849Y-80160038D01*
X41728081Y-80180250D01*
X41733297Y-80201074D01*
X41736447Y-80222309D01*
X41737500Y-80243750D01*
X41737500Y-80756250D01*
X41736447Y-80777691D01*
X41733297Y-80798926D01*
X41728081Y-80819750D01*
X41720849Y-80839962D01*
X41711670Y-80859368D01*
X41700634Y-80877781D01*
X41687846Y-80895024D01*
X41673430Y-80910930D01*
X41657524Y-80925346D01*
X41640281Y-80938134D01*
X41621868Y-80949170D01*
X41602462Y-80958349D01*
X41582250Y-80965581D01*
X41561426Y-80970797D01*
X41540191Y-80973947D01*
X41518750Y-80975000D01*
X41081250Y-80975000D01*
X41059809Y-80973947D01*
X41038574Y-80970797D01*
X41017750Y-80965581D01*
X40997538Y-80958349D01*
X40978132Y-80949170D01*
X40959719Y-80938134D01*
X40942476Y-80925346D01*
X40926570Y-80910930D01*
X40912154Y-80895024D01*
X40899366Y-80877781D01*
X40888330Y-80859368D01*
X40879151Y-80839962D01*
X40871919Y-80819750D01*
X40866703Y-80798926D01*
X40863553Y-80777691D01*
X40862500Y-80756250D01*
X40862500Y-80243750D01*
X40863553Y-80222309D01*
X40866703Y-80201074D01*
X40871919Y-80180250D01*
X40879151Y-80160038D01*
X40888330Y-80140632D01*
X40899366Y-80122219D01*
X40912154Y-80104976D01*
X40926570Y-80089070D01*
X40942476Y-80074654D01*
X40959719Y-80061866D01*
X40978132Y-80050830D01*
X40997538Y-80041651D01*
X41017750Y-80034419D01*
X41038574Y-80029203D01*
X41059809Y-80026053D01*
X41081250Y-80025000D01*
X41518750Y-80025000D01*
X41540191Y-80026053D01*
G37*
G36*
X43115191Y-80026053D02*
G01*
X43136426Y-80029203D01*
X43157250Y-80034419D01*
X43177462Y-80041651D01*
X43196868Y-80050830D01*
X43215281Y-80061866D01*
X43232524Y-80074654D01*
X43248430Y-80089070D01*
X43262846Y-80104976D01*
X43275634Y-80122219D01*
X43286670Y-80140632D01*
X43295849Y-80160038D01*
X43303081Y-80180250D01*
X43308297Y-80201074D01*
X43311447Y-80222309D01*
X43312500Y-80243750D01*
X43312500Y-80756250D01*
X43311447Y-80777691D01*
X43308297Y-80798926D01*
X43303081Y-80819750D01*
X43295849Y-80839962D01*
X43286670Y-80859368D01*
X43275634Y-80877781D01*
X43262846Y-80895024D01*
X43248430Y-80910930D01*
X43232524Y-80925346D01*
X43215281Y-80938134D01*
X43196868Y-80949170D01*
X43177462Y-80958349D01*
X43157250Y-80965581D01*
X43136426Y-80970797D01*
X43115191Y-80973947D01*
X43093750Y-80975000D01*
X42656250Y-80975000D01*
X42634809Y-80973947D01*
X42613574Y-80970797D01*
X42592750Y-80965581D01*
X42572538Y-80958349D01*
X42553132Y-80949170D01*
X42534719Y-80938134D01*
X42517476Y-80925346D01*
X42501570Y-80910930D01*
X42487154Y-80895024D01*
X42474366Y-80877781D01*
X42463330Y-80859368D01*
X42454151Y-80839962D01*
X42446919Y-80819750D01*
X42441703Y-80798926D01*
X42438553Y-80777691D01*
X42437500Y-80756250D01*
X42437500Y-80243750D01*
X42438553Y-80222309D01*
X42441703Y-80201074D01*
X42446919Y-80180250D01*
X42454151Y-80160038D01*
X42463330Y-80140632D01*
X42474366Y-80122219D01*
X42487154Y-80104976D01*
X42501570Y-80089070D01*
X42517476Y-80074654D01*
X42534719Y-80061866D01*
X42553132Y-80050830D01*
X42572538Y-80041651D01*
X42592750Y-80034419D01*
X42613574Y-80029203D01*
X42634809Y-80026053D01*
X42656250Y-80025000D01*
X43093750Y-80025000D01*
X43115191Y-80026053D01*
G37*
%TD*%
%TO.C,C14*%
G36*
X30915191Y-84926053D02*
G01*
X30936426Y-84929203D01*
X30957250Y-84934419D01*
X30977462Y-84941651D01*
X30996868Y-84950830D01*
X31015281Y-84961866D01*
X31032524Y-84974654D01*
X31048430Y-84989070D01*
X31062846Y-85004976D01*
X31075634Y-85022219D01*
X31086670Y-85040632D01*
X31095849Y-85060038D01*
X31103081Y-85080250D01*
X31108297Y-85101074D01*
X31111447Y-85122309D01*
X31112500Y-85143750D01*
X31112500Y-85656250D01*
X31111447Y-85677691D01*
X31108297Y-85698926D01*
X31103081Y-85719750D01*
X31095849Y-85739962D01*
X31086670Y-85759368D01*
X31075634Y-85777781D01*
X31062846Y-85795024D01*
X31048430Y-85810930D01*
X31032524Y-85825346D01*
X31015281Y-85838134D01*
X30996868Y-85849170D01*
X30977462Y-85858349D01*
X30957250Y-85865581D01*
X30936426Y-85870797D01*
X30915191Y-85873947D01*
X30893750Y-85875000D01*
X30456250Y-85875000D01*
X30434809Y-85873947D01*
X30413574Y-85870797D01*
X30392750Y-85865581D01*
X30372538Y-85858349D01*
X30353132Y-85849170D01*
X30334719Y-85838134D01*
X30317476Y-85825346D01*
X30301570Y-85810930D01*
X30287154Y-85795024D01*
X30274366Y-85777781D01*
X30263330Y-85759368D01*
X30254151Y-85739962D01*
X30246919Y-85719750D01*
X30241703Y-85698926D01*
X30238553Y-85677691D01*
X30237500Y-85656250D01*
X30237500Y-85143750D01*
X30238553Y-85122309D01*
X30241703Y-85101074D01*
X30246919Y-85080250D01*
X30254151Y-85060038D01*
X30263330Y-85040632D01*
X30274366Y-85022219D01*
X30287154Y-85004976D01*
X30301570Y-84989070D01*
X30317476Y-84974654D01*
X30334719Y-84961866D01*
X30353132Y-84950830D01*
X30372538Y-84941651D01*
X30392750Y-84934419D01*
X30413574Y-84929203D01*
X30434809Y-84926053D01*
X30456250Y-84925000D01*
X30893750Y-84925000D01*
X30915191Y-84926053D01*
G37*
G36*
X29340191Y-84926053D02*
G01*
X29361426Y-84929203D01*
X29382250Y-84934419D01*
X29402462Y-84941651D01*
X29421868Y-84950830D01*
X29440281Y-84961866D01*
X29457524Y-84974654D01*
X29473430Y-84989070D01*
X29487846Y-85004976D01*
X29500634Y-85022219D01*
X29511670Y-85040632D01*
X29520849Y-85060038D01*
X29528081Y-85080250D01*
X29533297Y-85101074D01*
X29536447Y-85122309D01*
X29537500Y-85143750D01*
X29537500Y-85656250D01*
X29536447Y-85677691D01*
X29533297Y-85698926D01*
X29528081Y-85719750D01*
X29520849Y-85739962D01*
X29511670Y-85759368D01*
X29500634Y-85777781D01*
X29487846Y-85795024D01*
X29473430Y-85810930D01*
X29457524Y-85825346D01*
X29440281Y-85838134D01*
X29421868Y-85849170D01*
X29402462Y-85858349D01*
X29382250Y-85865581D01*
X29361426Y-85870797D01*
X29340191Y-85873947D01*
X29318750Y-85875000D01*
X28881250Y-85875000D01*
X28859809Y-85873947D01*
X28838574Y-85870797D01*
X28817750Y-85865581D01*
X28797538Y-85858349D01*
X28778132Y-85849170D01*
X28759719Y-85838134D01*
X28742476Y-85825346D01*
X28726570Y-85810930D01*
X28712154Y-85795024D01*
X28699366Y-85777781D01*
X28688330Y-85759368D01*
X28679151Y-85739962D01*
X28671919Y-85719750D01*
X28666703Y-85698926D01*
X28663553Y-85677691D01*
X28662500Y-85656250D01*
X28662500Y-85143750D01*
X28663553Y-85122309D01*
X28666703Y-85101074D01*
X28671919Y-85080250D01*
X28679151Y-85060038D01*
X28688330Y-85040632D01*
X28699366Y-85022219D01*
X28712154Y-85004976D01*
X28726570Y-84989070D01*
X28742476Y-84974654D01*
X28759719Y-84961866D01*
X28778132Y-84950830D01*
X28797538Y-84941651D01*
X28817750Y-84934419D01*
X28838574Y-84929203D01*
X28859809Y-84926053D01*
X28881250Y-84925000D01*
X29318750Y-84925000D01*
X29340191Y-84926053D01*
G37*
%TD*%
%TO.C,C13*%
G36*
X28565191Y-73026053D02*
G01*
X28586426Y-73029203D01*
X28607250Y-73034419D01*
X28627462Y-73041651D01*
X28646868Y-73050830D01*
X28665281Y-73061866D01*
X28682524Y-73074654D01*
X28698430Y-73089070D01*
X28712846Y-73104976D01*
X28725634Y-73122219D01*
X28736670Y-73140632D01*
X28745849Y-73160038D01*
X28753081Y-73180250D01*
X28758297Y-73201074D01*
X28761447Y-73222309D01*
X28762500Y-73243750D01*
X28762500Y-73756250D01*
X28761447Y-73777691D01*
X28758297Y-73798926D01*
X28753081Y-73819750D01*
X28745849Y-73839962D01*
X28736670Y-73859368D01*
X28725634Y-73877781D01*
X28712846Y-73895024D01*
X28698430Y-73910930D01*
X28682524Y-73925346D01*
X28665281Y-73938134D01*
X28646868Y-73949170D01*
X28627462Y-73958349D01*
X28607250Y-73965581D01*
X28586426Y-73970797D01*
X28565191Y-73973947D01*
X28543750Y-73975000D01*
X28106250Y-73975000D01*
X28084809Y-73973947D01*
X28063574Y-73970797D01*
X28042750Y-73965581D01*
X28022538Y-73958349D01*
X28003132Y-73949170D01*
X27984719Y-73938134D01*
X27967476Y-73925346D01*
X27951570Y-73910930D01*
X27937154Y-73895024D01*
X27924366Y-73877781D01*
X27913330Y-73859368D01*
X27904151Y-73839962D01*
X27896919Y-73819750D01*
X27891703Y-73798926D01*
X27888553Y-73777691D01*
X27887500Y-73756250D01*
X27887500Y-73243750D01*
X27888553Y-73222309D01*
X27891703Y-73201074D01*
X27896919Y-73180250D01*
X27904151Y-73160038D01*
X27913330Y-73140632D01*
X27924366Y-73122219D01*
X27937154Y-73104976D01*
X27951570Y-73089070D01*
X27967476Y-73074654D01*
X27984719Y-73061866D01*
X28003132Y-73050830D01*
X28022538Y-73041651D01*
X28042750Y-73034419D01*
X28063574Y-73029203D01*
X28084809Y-73026053D01*
X28106250Y-73025000D01*
X28543750Y-73025000D01*
X28565191Y-73026053D01*
G37*
G36*
X30140191Y-73026053D02*
G01*
X30161426Y-73029203D01*
X30182250Y-73034419D01*
X30202462Y-73041651D01*
X30221868Y-73050830D01*
X30240281Y-73061866D01*
X30257524Y-73074654D01*
X30273430Y-73089070D01*
X30287846Y-73104976D01*
X30300634Y-73122219D01*
X30311670Y-73140632D01*
X30320849Y-73160038D01*
X30328081Y-73180250D01*
X30333297Y-73201074D01*
X30336447Y-73222309D01*
X30337500Y-73243750D01*
X30337500Y-73756250D01*
X30336447Y-73777691D01*
X30333297Y-73798926D01*
X30328081Y-73819750D01*
X30320849Y-73839962D01*
X30311670Y-73859368D01*
X30300634Y-73877781D01*
X30287846Y-73895024D01*
X30273430Y-73910930D01*
X30257524Y-73925346D01*
X30240281Y-73938134D01*
X30221868Y-73949170D01*
X30202462Y-73958349D01*
X30182250Y-73965581D01*
X30161426Y-73970797D01*
X30140191Y-73973947D01*
X30118750Y-73975000D01*
X29681250Y-73975000D01*
X29659809Y-73973947D01*
X29638574Y-73970797D01*
X29617750Y-73965581D01*
X29597538Y-73958349D01*
X29578132Y-73949170D01*
X29559719Y-73938134D01*
X29542476Y-73925346D01*
X29526570Y-73910930D01*
X29512154Y-73895024D01*
X29499366Y-73877781D01*
X29488330Y-73859368D01*
X29479151Y-73839962D01*
X29471919Y-73819750D01*
X29466703Y-73798926D01*
X29463553Y-73777691D01*
X29462500Y-73756250D01*
X29462500Y-73243750D01*
X29463553Y-73222309D01*
X29466703Y-73201074D01*
X29471919Y-73180250D01*
X29479151Y-73160038D01*
X29488330Y-73140632D01*
X29499366Y-73122219D01*
X29512154Y-73104976D01*
X29526570Y-73089070D01*
X29542476Y-73074654D01*
X29559719Y-73061866D01*
X29578132Y-73050830D01*
X29597538Y-73041651D01*
X29617750Y-73034419D01*
X29638574Y-73029203D01*
X29659809Y-73026053D01*
X29681250Y-73025000D01*
X30118750Y-73025000D01*
X30140191Y-73026053D01*
G37*
%TD*%
%TO.C,C12*%
G36*
X45552691Y-69026053D02*
G01*
X45573926Y-69029203D01*
X45594750Y-69034419D01*
X45614962Y-69041651D01*
X45634368Y-69050830D01*
X45652781Y-69061866D01*
X45670024Y-69074654D01*
X45685930Y-69089070D01*
X45700346Y-69104976D01*
X45713134Y-69122219D01*
X45724170Y-69140632D01*
X45733349Y-69160038D01*
X45740581Y-69180250D01*
X45745797Y-69201074D01*
X45748947Y-69222309D01*
X45750000Y-69243750D01*
X45750000Y-69756250D01*
X45748947Y-69777691D01*
X45745797Y-69798926D01*
X45740581Y-69819750D01*
X45733349Y-69839962D01*
X45724170Y-69859368D01*
X45713134Y-69877781D01*
X45700346Y-69895024D01*
X45685930Y-69910930D01*
X45670024Y-69925346D01*
X45652781Y-69938134D01*
X45634368Y-69949170D01*
X45614962Y-69958349D01*
X45594750Y-69965581D01*
X45573926Y-69970797D01*
X45552691Y-69973947D01*
X45531250Y-69975000D01*
X45093750Y-69975000D01*
X45072309Y-69973947D01*
X45051074Y-69970797D01*
X45030250Y-69965581D01*
X45010038Y-69958349D01*
X44990632Y-69949170D01*
X44972219Y-69938134D01*
X44954976Y-69925346D01*
X44939070Y-69910930D01*
X44924654Y-69895024D01*
X44911866Y-69877781D01*
X44900830Y-69859368D01*
X44891651Y-69839962D01*
X44884419Y-69819750D01*
X44879203Y-69798926D01*
X44876053Y-69777691D01*
X44875000Y-69756250D01*
X44875000Y-69243750D01*
X44876053Y-69222309D01*
X44879203Y-69201074D01*
X44884419Y-69180250D01*
X44891651Y-69160038D01*
X44900830Y-69140632D01*
X44911866Y-69122219D01*
X44924654Y-69104976D01*
X44939070Y-69089070D01*
X44954976Y-69074654D01*
X44972219Y-69061866D01*
X44990632Y-69050830D01*
X45010038Y-69041651D01*
X45030250Y-69034419D01*
X45051074Y-69029203D01*
X45072309Y-69026053D01*
X45093750Y-69025000D01*
X45531250Y-69025000D01*
X45552691Y-69026053D01*
G37*
G36*
X47127691Y-69026053D02*
G01*
X47148926Y-69029203D01*
X47169750Y-69034419D01*
X47189962Y-69041651D01*
X47209368Y-69050830D01*
X47227781Y-69061866D01*
X47245024Y-69074654D01*
X47260930Y-69089070D01*
X47275346Y-69104976D01*
X47288134Y-69122219D01*
X47299170Y-69140632D01*
X47308349Y-69160038D01*
X47315581Y-69180250D01*
X47320797Y-69201074D01*
X47323947Y-69222309D01*
X47325000Y-69243750D01*
X47325000Y-69756250D01*
X47323947Y-69777691D01*
X47320797Y-69798926D01*
X47315581Y-69819750D01*
X47308349Y-69839962D01*
X47299170Y-69859368D01*
X47288134Y-69877781D01*
X47275346Y-69895024D01*
X47260930Y-69910930D01*
X47245024Y-69925346D01*
X47227781Y-69938134D01*
X47209368Y-69949170D01*
X47189962Y-69958349D01*
X47169750Y-69965581D01*
X47148926Y-69970797D01*
X47127691Y-69973947D01*
X47106250Y-69975000D01*
X46668750Y-69975000D01*
X46647309Y-69973947D01*
X46626074Y-69970797D01*
X46605250Y-69965581D01*
X46585038Y-69958349D01*
X46565632Y-69949170D01*
X46547219Y-69938134D01*
X46529976Y-69925346D01*
X46514070Y-69910930D01*
X46499654Y-69895024D01*
X46486866Y-69877781D01*
X46475830Y-69859368D01*
X46466651Y-69839962D01*
X46459419Y-69819750D01*
X46454203Y-69798926D01*
X46451053Y-69777691D01*
X46450000Y-69756250D01*
X46450000Y-69243750D01*
X46451053Y-69222309D01*
X46454203Y-69201074D01*
X46459419Y-69180250D01*
X46466651Y-69160038D01*
X46475830Y-69140632D01*
X46486866Y-69122219D01*
X46499654Y-69104976D01*
X46514070Y-69089070D01*
X46529976Y-69074654D01*
X46547219Y-69061866D01*
X46565632Y-69050830D01*
X46585038Y-69041651D01*
X46605250Y-69034419D01*
X46626074Y-69029203D01*
X46647309Y-69026053D01*
X46668750Y-69025000D01*
X47106250Y-69025000D01*
X47127691Y-69026053D01*
G37*
%TD*%
%TO.C,C11*%
G36*
X45565191Y-67626053D02*
G01*
X45586426Y-67629203D01*
X45607250Y-67634419D01*
X45627462Y-67641651D01*
X45646868Y-67650830D01*
X45665281Y-67661866D01*
X45682524Y-67674654D01*
X45698430Y-67689070D01*
X45712846Y-67704976D01*
X45725634Y-67722219D01*
X45736670Y-67740632D01*
X45745849Y-67760038D01*
X45753081Y-67780250D01*
X45758297Y-67801074D01*
X45761447Y-67822309D01*
X45762500Y-67843750D01*
X45762500Y-68356250D01*
X45761447Y-68377691D01*
X45758297Y-68398926D01*
X45753081Y-68419750D01*
X45745849Y-68439962D01*
X45736670Y-68459368D01*
X45725634Y-68477781D01*
X45712846Y-68495024D01*
X45698430Y-68510930D01*
X45682524Y-68525346D01*
X45665281Y-68538134D01*
X45646868Y-68549170D01*
X45627462Y-68558349D01*
X45607250Y-68565581D01*
X45586426Y-68570797D01*
X45565191Y-68573947D01*
X45543750Y-68575000D01*
X45106250Y-68575000D01*
X45084809Y-68573947D01*
X45063574Y-68570797D01*
X45042750Y-68565581D01*
X45022538Y-68558349D01*
X45003132Y-68549170D01*
X44984719Y-68538134D01*
X44967476Y-68525346D01*
X44951570Y-68510930D01*
X44937154Y-68495024D01*
X44924366Y-68477781D01*
X44913330Y-68459368D01*
X44904151Y-68439962D01*
X44896919Y-68419750D01*
X44891703Y-68398926D01*
X44888553Y-68377691D01*
X44887500Y-68356250D01*
X44887500Y-67843750D01*
X44888553Y-67822309D01*
X44891703Y-67801074D01*
X44896919Y-67780250D01*
X44904151Y-67760038D01*
X44913330Y-67740632D01*
X44924366Y-67722219D01*
X44937154Y-67704976D01*
X44951570Y-67689070D01*
X44967476Y-67674654D01*
X44984719Y-67661866D01*
X45003132Y-67650830D01*
X45022538Y-67641651D01*
X45042750Y-67634419D01*
X45063574Y-67629203D01*
X45084809Y-67626053D01*
X45106250Y-67625000D01*
X45543750Y-67625000D01*
X45565191Y-67626053D01*
G37*
G36*
X47140191Y-67626053D02*
G01*
X47161426Y-67629203D01*
X47182250Y-67634419D01*
X47202462Y-67641651D01*
X47221868Y-67650830D01*
X47240281Y-67661866D01*
X47257524Y-67674654D01*
X47273430Y-67689070D01*
X47287846Y-67704976D01*
X47300634Y-67722219D01*
X47311670Y-67740632D01*
X47320849Y-67760038D01*
X47328081Y-67780250D01*
X47333297Y-67801074D01*
X47336447Y-67822309D01*
X47337500Y-67843750D01*
X47337500Y-68356250D01*
X47336447Y-68377691D01*
X47333297Y-68398926D01*
X47328081Y-68419750D01*
X47320849Y-68439962D01*
X47311670Y-68459368D01*
X47300634Y-68477781D01*
X47287846Y-68495024D01*
X47273430Y-68510930D01*
X47257524Y-68525346D01*
X47240281Y-68538134D01*
X47221868Y-68549170D01*
X47202462Y-68558349D01*
X47182250Y-68565581D01*
X47161426Y-68570797D01*
X47140191Y-68573947D01*
X47118750Y-68575000D01*
X46681250Y-68575000D01*
X46659809Y-68573947D01*
X46638574Y-68570797D01*
X46617750Y-68565581D01*
X46597538Y-68558349D01*
X46578132Y-68549170D01*
X46559719Y-68538134D01*
X46542476Y-68525346D01*
X46526570Y-68510930D01*
X46512154Y-68495024D01*
X46499366Y-68477781D01*
X46488330Y-68459368D01*
X46479151Y-68439962D01*
X46471919Y-68419750D01*
X46466703Y-68398926D01*
X46463553Y-68377691D01*
X46462500Y-68356250D01*
X46462500Y-67843750D01*
X46463553Y-67822309D01*
X46466703Y-67801074D01*
X46471919Y-67780250D01*
X46479151Y-67760038D01*
X46488330Y-67740632D01*
X46499366Y-67722219D01*
X46512154Y-67704976D01*
X46526570Y-67689070D01*
X46542476Y-67674654D01*
X46559719Y-67661866D01*
X46578132Y-67650830D01*
X46597538Y-67641651D01*
X46617750Y-67634419D01*
X46638574Y-67629203D01*
X46659809Y-67626053D01*
X46681250Y-67625000D01*
X47118750Y-67625000D01*
X47140191Y-67626053D01*
G37*
%TD*%
%TO.C,C10*%
G36*
X55877691Y-67876053D02*
G01*
X55898926Y-67879203D01*
X55919750Y-67884419D01*
X55939962Y-67891651D01*
X55959368Y-67900830D01*
X55977781Y-67911866D01*
X55995024Y-67924654D01*
X56010930Y-67939070D01*
X56025346Y-67954976D01*
X56038134Y-67972219D01*
X56049170Y-67990632D01*
X56058349Y-68010038D01*
X56065581Y-68030250D01*
X56070797Y-68051074D01*
X56073947Y-68072309D01*
X56075000Y-68093750D01*
X56075000Y-68531250D01*
X56073947Y-68552691D01*
X56070797Y-68573926D01*
X56065581Y-68594750D01*
X56058349Y-68614962D01*
X56049170Y-68634368D01*
X56038134Y-68652781D01*
X56025346Y-68670024D01*
X56010930Y-68685930D01*
X55995024Y-68700346D01*
X55977781Y-68713134D01*
X55959368Y-68724170D01*
X55939962Y-68733349D01*
X55919750Y-68740581D01*
X55898926Y-68745797D01*
X55877691Y-68748947D01*
X55856250Y-68750000D01*
X55343750Y-68750000D01*
X55322309Y-68748947D01*
X55301074Y-68745797D01*
X55280250Y-68740581D01*
X55260038Y-68733349D01*
X55240632Y-68724170D01*
X55222219Y-68713134D01*
X55204976Y-68700346D01*
X55189070Y-68685930D01*
X55174654Y-68670024D01*
X55161866Y-68652781D01*
X55150830Y-68634368D01*
X55141651Y-68614962D01*
X55134419Y-68594750D01*
X55129203Y-68573926D01*
X55126053Y-68552691D01*
X55125000Y-68531250D01*
X55125000Y-68093750D01*
X55126053Y-68072309D01*
X55129203Y-68051074D01*
X55134419Y-68030250D01*
X55141651Y-68010038D01*
X55150830Y-67990632D01*
X55161866Y-67972219D01*
X55174654Y-67954976D01*
X55189070Y-67939070D01*
X55204976Y-67924654D01*
X55222219Y-67911866D01*
X55240632Y-67900830D01*
X55260038Y-67891651D01*
X55280250Y-67884419D01*
X55301074Y-67879203D01*
X55322309Y-67876053D01*
X55343750Y-67875000D01*
X55856250Y-67875000D01*
X55877691Y-67876053D01*
G37*
G36*
X55877691Y-69451053D02*
G01*
X55898926Y-69454203D01*
X55919750Y-69459419D01*
X55939962Y-69466651D01*
X55959368Y-69475830D01*
X55977781Y-69486866D01*
X55995024Y-69499654D01*
X56010930Y-69514070D01*
X56025346Y-69529976D01*
X56038134Y-69547219D01*
X56049170Y-69565632D01*
X56058349Y-69585038D01*
X56065581Y-69605250D01*
X56070797Y-69626074D01*
X56073947Y-69647309D01*
X56075000Y-69668750D01*
X56075000Y-70106250D01*
X56073947Y-70127691D01*
X56070797Y-70148926D01*
X56065581Y-70169750D01*
X56058349Y-70189962D01*
X56049170Y-70209368D01*
X56038134Y-70227781D01*
X56025346Y-70245024D01*
X56010930Y-70260930D01*
X55995024Y-70275346D01*
X55977781Y-70288134D01*
X55959368Y-70299170D01*
X55939962Y-70308349D01*
X55919750Y-70315581D01*
X55898926Y-70320797D01*
X55877691Y-70323947D01*
X55856250Y-70325000D01*
X55343750Y-70325000D01*
X55322309Y-70323947D01*
X55301074Y-70320797D01*
X55280250Y-70315581D01*
X55260038Y-70308349D01*
X55240632Y-70299170D01*
X55222219Y-70288134D01*
X55204976Y-70275346D01*
X55189070Y-70260930D01*
X55174654Y-70245024D01*
X55161866Y-70227781D01*
X55150830Y-70209368D01*
X55141651Y-70189962D01*
X55134419Y-70169750D01*
X55129203Y-70148926D01*
X55126053Y-70127691D01*
X55125000Y-70106250D01*
X55125000Y-69668750D01*
X55126053Y-69647309D01*
X55129203Y-69626074D01*
X55134419Y-69605250D01*
X55141651Y-69585038D01*
X55150830Y-69565632D01*
X55161866Y-69547219D01*
X55174654Y-69529976D01*
X55189070Y-69514070D01*
X55204976Y-69499654D01*
X55222219Y-69486866D01*
X55240632Y-69475830D01*
X55260038Y-69466651D01*
X55280250Y-69459419D01*
X55301074Y-69454203D01*
X55322309Y-69451053D01*
X55343750Y-69450000D01*
X55856250Y-69450000D01*
X55877691Y-69451053D01*
G37*
%TD*%
%TO.C,C9*%
G36*
X57377691Y-67863553D02*
G01*
X57398926Y-67866703D01*
X57419750Y-67871919D01*
X57439962Y-67879151D01*
X57459368Y-67888330D01*
X57477781Y-67899366D01*
X57495024Y-67912154D01*
X57510930Y-67926570D01*
X57525346Y-67942476D01*
X57538134Y-67959719D01*
X57549170Y-67978132D01*
X57558349Y-67997538D01*
X57565581Y-68017750D01*
X57570797Y-68038574D01*
X57573947Y-68059809D01*
X57575000Y-68081250D01*
X57575000Y-68518750D01*
X57573947Y-68540191D01*
X57570797Y-68561426D01*
X57565581Y-68582250D01*
X57558349Y-68602462D01*
X57549170Y-68621868D01*
X57538134Y-68640281D01*
X57525346Y-68657524D01*
X57510930Y-68673430D01*
X57495024Y-68687846D01*
X57477781Y-68700634D01*
X57459368Y-68711670D01*
X57439962Y-68720849D01*
X57419750Y-68728081D01*
X57398926Y-68733297D01*
X57377691Y-68736447D01*
X57356250Y-68737500D01*
X56843750Y-68737500D01*
X56822309Y-68736447D01*
X56801074Y-68733297D01*
X56780250Y-68728081D01*
X56760038Y-68720849D01*
X56740632Y-68711670D01*
X56722219Y-68700634D01*
X56704976Y-68687846D01*
X56689070Y-68673430D01*
X56674654Y-68657524D01*
X56661866Y-68640281D01*
X56650830Y-68621868D01*
X56641651Y-68602462D01*
X56634419Y-68582250D01*
X56629203Y-68561426D01*
X56626053Y-68540191D01*
X56625000Y-68518750D01*
X56625000Y-68081250D01*
X56626053Y-68059809D01*
X56629203Y-68038574D01*
X56634419Y-68017750D01*
X56641651Y-67997538D01*
X56650830Y-67978132D01*
X56661866Y-67959719D01*
X56674654Y-67942476D01*
X56689070Y-67926570D01*
X56704976Y-67912154D01*
X56722219Y-67899366D01*
X56740632Y-67888330D01*
X56760038Y-67879151D01*
X56780250Y-67871919D01*
X56801074Y-67866703D01*
X56822309Y-67863553D01*
X56843750Y-67862500D01*
X57356250Y-67862500D01*
X57377691Y-67863553D01*
G37*
G36*
X57377691Y-69438553D02*
G01*
X57398926Y-69441703D01*
X57419750Y-69446919D01*
X57439962Y-69454151D01*
X57459368Y-69463330D01*
X57477781Y-69474366D01*
X57495024Y-69487154D01*
X57510930Y-69501570D01*
X57525346Y-69517476D01*
X57538134Y-69534719D01*
X57549170Y-69553132D01*
X57558349Y-69572538D01*
X57565581Y-69592750D01*
X57570797Y-69613574D01*
X57573947Y-69634809D01*
X57575000Y-69656250D01*
X57575000Y-70093750D01*
X57573947Y-70115191D01*
X57570797Y-70136426D01*
X57565581Y-70157250D01*
X57558349Y-70177462D01*
X57549170Y-70196868D01*
X57538134Y-70215281D01*
X57525346Y-70232524D01*
X57510930Y-70248430D01*
X57495024Y-70262846D01*
X57477781Y-70275634D01*
X57459368Y-70286670D01*
X57439962Y-70295849D01*
X57419750Y-70303081D01*
X57398926Y-70308297D01*
X57377691Y-70311447D01*
X57356250Y-70312500D01*
X56843750Y-70312500D01*
X56822309Y-70311447D01*
X56801074Y-70308297D01*
X56780250Y-70303081D01*
X56760038Y-70295849D01*
X56740632Y-70286670D01*
X56722219Y-70275634D01*
X56704976Y-70262846D01*
X56689070Y-70248430D01*
X56674654Y-70232524D01*
X56661866Y-70215281D01*
X56650830Y-70196868D01*
X56641651Y-70177462D01*
X56634419Y-70157250D01*
X56629203Y-70136426D01*
X56626053Y-70115191D01*
X56625000Y-70093750D01*
X56625000Y-69656250D01*
X56626053Y-69634809D01*
X56629203Y-69613574D01*
X56634419Y-69592750D01*
X56641651Y-69572538D01*
X56650830Y-69553132D01*
X56661866Y-69534719D01*
X56674654Y-69517476D01*
X56689070Y-69501570D01*
X56704976Y-69487154D01*
X56722219Y-69474366D01*
X56740632Y-69463330D01*
X56760038Y-69454151D01*
X56780250Y-69446919D01*
X56801074Y-69441703D01*
X56822309Y-69438553D01*
X56843750Y-69437500D01*
X57356250Y-69437500D01*
X57377691Y-69438553D01*
G37*
%TD*%
%TO.C,C8*%
G36*
X41840191Y-78326053D02*
G01*
X41861426Y-78329203D01*
X41882250Y-78334419D01*
X41902462Y-78341651D01*
X41921868Y-78350830D01*
X41940281Y-78361866D01*
X41957524Y-78374654D01*
X41973430Y-78389070D01*
X41987846Y-78404976D01*
X42000634Y-78422219D01*
X42011670Y-78440632D01*
X42020849Y-78460038D01*
X42028081Y-78480250D01*
X42033297Y-78501074D01*
X42036447Y-78522309D01*
X42037500Y-78543750D01*
X42037500Y-79056250D01*
X42036447Y-79077691D01*
X42033297Y-79098926D01*
X42028081Y-79119750D01*
X42020849Y-79139962D01*
X42011670Y-79159368D01*
X42000634Y-79177781D01*
X41987846Y-79195024D01*
X41973430Y-79210930D01*
X41957524Y-79225346D01*
X41940281Y-79238134D01*
X41921868Y-79249170D01*
X41902462Y-79258349D01*
X41882250Y-79265581D01*
X41861426Y-79270797D01*
X41840191Y-79273947D01*
X41818750Y-79275000D01*
X41381250Y-79275000D01*
X41359809Y-79273947D01*
X41338574Y-79270797D01*
X41317750Y-79265581D01*
X41297538Y-79258349D01*
X41278132Y-79249170D01*
X41259719Y-79238134D01*
X41242476Y-79225346D01*
X41226570Y-79210930D01*
X41212154Y-79195024D01*
X41199366Y-79177781D01*
X41188330Y-79159368D01*
X41179151Y-79139962D01*
X41171919Y-79119750D01*
X41166703Y-79098926D01*
X41163553Y-79077691D01*
X41162500Y-79056250D01*
X41162500Y-78543750D01*
X41163553Y-78522309D01*
X41166703Y-78501074D01*
X41171919Y-78480250D01*
X41179151Y-78460038D01*
X41188330Y-78440632D01*
X41199366Y-78422219D01*
X41212154Y-78404976D01*
X41226570Y-78389070D01*
X41242476Y-78374654D01*
X41259719Y-78361866D01*
X41278132Y-78350830D01*
X41297538Y-78341651D01*
X41317750Y-78334419D01*
X41338574Y-78329203D01*
X41359809Y-78326053D01*
X41381250Y-78325000D01*
X41818750Y-78325000D01*
X41840191Y-78326053D01*
G37*
G36*
X43415191Y-78326053D02*
G01*
X43436426Y-78329203D01*
X43457250Y-78334419D01*
X43477462Y-78341651D01*
X43496868Y-78350830D01*
X43515281Y-78361866D01*
X43532524Y-78374654D01*
X43548430Y-78389070D01*
X43562846Y-78404976D01*
X43575634Y-78422219D01*
X43586670Y-78440632D01*
X43595849Y-78460038D01*
X43603081Y-78480250D01*
X43608297Y-78501074D01*
X43611447Y-78522309D01*
X43612500Y-78543750D01*
X43612500Y-79056250D01*
X43611447Y-79077691D01*
X43608297Y-79098926D01*
X43603081Y-79119750D01*
X43595849Y-79139962D01*
X43586670Y-79159368D01*
X43575634Y-79177781D01*
X43562846Y-79195024D01*
X43548430Y-79210930D01*
X43532524Y-79225346D01*
X43515281Y-79238134D01*
X43496868Y-79249170D01*
X43477462Y-79258349D01*
X43457250Y-79265581D01*
X43436426Y-79270797D01*
X43415191Y-79273947D01*
X43393750Y-79275000D01*
X42956250Y-79275000D01*
X42934809Y-79273947D01*
X42913574Y-79270797D01*
X42892750Y-79265581D01*
X42872538Y-79258349D01*
X42853132Y-79249170D01*
X42834719Y-79238134D01*
X42817476Y-79225346D01*
X42801570Y-79210930D01*
X42787154Y-79195024D01*
X42774366Y-79177781D01*
X42763330Y-79159368D01*
X42754151Y-79139962D01*
X42746919Y-79119750D01*
X42741703Y-79098926D01*
X42738553Y-79077691D01*
X42737500Y-79056250D01*
X42737500Y-78543750D01*
X42738553Y-78522309D01*
X42741703Y-78501074D01*
X42746919Y-78480250D01*
X42754151Y-78460038D01*
X42763330Y-78440632D01*
X42774366Y-78422219D01*
X42787154Y-78404976D01*
X42801570Y-78389070D01*
X42817476Y-78374654D01*
X42834719Y-78361866D01*
X42853132Y-78350830D01*
X42872538Y-78341651D01*
X42892750Y-78334419D01*
X42913574Y-78329203D01*
X42934809Y-78326053D01*
X42956250Y-78325000D01*
X43393750Y-78325000D01*
X43415191Y-78326053D01*
G37*
%TD*%
%TO.C,C6*%
G36*
X46977691Y-78088553D02*
G01*
X46998926Y-78091703D01*
X47019750Y-78096919D01*
X47039962Y-78104151D01*
X47059368Y-78113330D01*
X47077781Y-78124366D01*
X47095024Y-78137154D01*
X47110930Y-78151570D01*
X47125346Y-78167476D01*
X47138134Y-78184719D01*
X47149170Y-78203132D01*
X47158349Y-78222538D01*
X47165581Y-78242750D01*
X47170797Y-78263574D01*
X47173947Y-78284809D01*
X47175000Y-78306250D01*
X47175000Y-78743750D01*
X47173947Y-78765191D01*
X47170797Y-78786426D01*
X47165581Y-78807250D01*
X47158349Y-78827462D01*
X47149170Y-78846868D01*
X47138134Y-78865281D01*
X47125346Y-78882524D01*
X47110930Y-78898430D01*
X47095024Y-78912846D01*
X47077781Y-78925634D01*
X47059368Y-78936670D01*
X47039962Y-78945849D01*
X47019750Y-78953081D01*
X46998926Y-78958297D01*
X46977691Y-78961447D01*
X46956250Y-78962500D01*
X46443750Y-78962500D01*
X46422309Y-78961447D01*
X46401074Y-78958297D01*
X46380250Y-78953081D01*
X46360038Y-78945849D01*
X46340632Y-78936670D01*
X46322219Y-78925634D01*
X46304976Y-78912846D01*
X46289070Y-78898430D01*
X46274654Y-78882524D01*
X46261866Y-78865281D01*
X46250830Y-78846868D01*
X46241651Y-78827462D01*
X46234419Y-78807250D01*
X46229203Y-78786426D01*
X46226053Y-78765191D01*
X46225000Y-78743750D01*
X46225000Y-78306250D01*
X46226053Y-78284809D01*
X46229203Y-78263574D01*
X46234419Y-78242750D01*
X46241651Y-78222538D01*
X46250830Y-78203132D01*
X46261866Y-78184719D01*
X46274654Y-78167476D01*
X46289070Y-78151570D01*
X46304976Y-78137154D01*
X46322219Y-78124366D01*
X46340632Y-78113330D01*
X46360038Y-78104151D01*
X46380250Y-78096919D01*
X46401074Y-78091703D01*
X46422309Y-78088553D01*
X46443750Y-78087500D01*
X46956250Y-78087500D01*
X46977691Y-78088553D01*
G37*
G36*
X46977691Y-79663553D02*
G01*
X46998926Y-79666703D01*
X47019750Y-79671919D01*
X47039962Y-79679151D01*
X47059368Y-79688330D01*
X47077781Y-79699366D01*
X47095024Y-79712154D01*
X47110930Y-79726570D01*
X47125346Y-79742476D01*
X47138134Y-79759719D01*
X47149170Y-79778132D01*
X47158349Y-79797538D01*
X47165581Y-79817750D01*
X47170797Y-79838574D01*
X47173947Y-79859809D01*
X47175000Y-79881250D01*
X47175000Y-80318750D01*
X47173947Y-80340191D01*
X47170797Y-80361426D01*
X47165581Y-80382250D01*
X47158349Y-80402462D01*
X47149170Y-80421868D01*
X47138134Y-80440281D01*
X47125346Y-80457524D01*
X47110930Y-80473430D01*
X47095024Y-80487846D01*
X47077781Y-80500634D01*
X47059368Y-80511670D01*
X47039962Y-80520849D01*
X47019750Y-80528081D01*
X46998926Y-80533297D01*
X46977691Y-80536447D01*
X46956250Y-80537500D01*
X46443750Y-80537500D01*
X46422309Y-80536447D01*
X46401074Y-80533297D01*
X46380250Y-80528081D01*
X46360038Y-80520849D01*
X46340632Y-80511670D01*
X46322219Y-80500634D01*
X46304976Y-80487846D01*
X46289070Y-80473430D01*
X46274654Y-80457524D01*
X46261866Y-80440281D01*
X46250830Y-80421868D01*
X46241651Y-80402462D01*
X46234419Y-80382250D01*
X46229203Y-80361426D01*
X46226053Y-80340191D01*
X46225000Y-80318750D01*
X46225000Y-79881250D01*
X46226053Y-79859809D01*
X46229203Y-79838574D01*
X46234419Y-79817750D01*
X46241651Y-79797538D01*
X46250830Y-79778132D01*
X46261866Y-79759719D01*
X46274654Y-79742476D01*
X46289070Y-79726570D01*
X46304976Y-79712154D01*
X46322219Y-79699366D01*
X46340632Y-79688330D01*
X46360038Y-79679151D01*
X46380250Y-79671919D01*
X46401074Y-79666703D01*
X46422309Y-79663553D01*
X46443750Y-79662500D01*
X46956250Y-79662500D01*
X46977691Y-79663553D01*
G37*
%TD*%
%TO.C,C4*%
G36*
X60927691Y-72326053D02*
G01*
X60948926Y-72329203D01*
X60969750Y-72334419D01*
X60989962Y-72341651D01*
X61009368Y-72350830D01*
X61027781Y-72361866D01*
X61045024Y-72374654D01*
X61060930Y-72389070D01*
X61075346Y-72404976D01*
X61088134Y-72422219D01*
X61099170Y-72440632D01*
X61108349Y-72460038D01*
X61115581Y-72480250D01*
X61120797Y-72501074D01*
X61123947Y-72522309D01*
X61125000Y-72543750D01*
X61125000Y-73056250D01*
X61123947Y-73077691D01*
X61120797Y-73098926D01*
X61115581Y-73119750D01*
X61108349Y-73139962D01*
X61099170Y-73159368D01*
X61088134Y-73177781D01*
X61075346Y-73195024D01*
X61060930Y-73210930D01*
X61045024Y-73225346D01*
X61027781Y-73238134D01*
X61009368Y-73249170D01*
X60989962Y-73258349D01*
X60969750Y-73265581D01*
X60948926Y-73270797D01*
X60927691Y-73273947D01*
X60906250Y-73275000D01*
X60468750Y-73275000D01*
X60447309Y-73273947D01*
X60426074Y-73270797D01*
X60405250Y-73265581D01*
X60385038Y-73258349D01*
X60365632Y-73249170D01*
X60347219Y-73238134D01*
X60329976Y-73225346D01*
X60314070Y-73210930D01*
X60299654Y-73195024D01*
X60286866Y-73177781D01*
X60275830Y-73159368D01*
X60266651Y-73139962D01*
X60259419Y-73119750D01*
X60254203Y-73098926D01*
X60251053Y-73077691D01*
X60250000Y-73056250D01*
X60250000Y-72543750D01*
X60251053Y-72522309D01*
X60254203Y-72501074D01*
X60259419Y-72480250D01*
X60266651Y-72460038D01*
X60275830Y-72440632D01*
X60286866Y-72422219D01*
X60299654Y-72404976D01*
X60314070Y-72389070D01*
X60329976Y-72374654D01*
X60347219Y-72361866D01*
X60365632Y-72350830D01*
X60385038Y-72341651D01*
X60405250Y-72334419D01*
X60426074Y-72329203D01*
X60447309Y-72326053D01*
X60468750Y-72325000D01*
X60906250Y-72325000D01*
X60927691Y-72326053D01*
G37*
G36*
X59352691Y-72326053D02*
G01*
X59373926Y-72329203D01*
X59394750Y-72334419D01*
X59414962Y-72341651D01*
X59434368Y-72350830D01*
X59452781Y-72361866D01*
X59470024Y-72374654D01*
X59485930Y-72389070D01*
X59500346Y-72404976D01*
X59513134Y-72422219D01*
X59524170Y-72440632D01*
X59533349Y-72460038D01*
X59540581Y-72480250D01*
X59545797Y-72501074D01*
X59548947Y-72522309D01*
X59550000Y-72543750D01*
X59550000Y-73056250D01*
X59548947Y-73077691D01*
X59545797Y-73098926D01*
X59540581Y-73119750D01*
X59533349Y-73139962D01*
X59524170Y-73159368D01*
X59513134Y-73177781D01*
X59500346Y-73195024D01*
X59485930Y-73210930D01*
X59470024Y-73225346D01*
X59452781Y-73238134D01*
X59434368Y-73249170D01*
X59414962Y-73258349D01*
X59394750Y-73265581D01*
X59373926Y-73270797D01*
X59352691Y-73273947D01*
X59331250Y-73275000D01*
X58893750Y-73275000D01*
X58872309Y-73273947D01*
X58851074Y-73270797D01*
X58830250Y-73265581D01*
X58810038Y-73258349D01*
X58790632Y-73249170D01*
X58772219Y-73238134D01*
X58754976Y-73225346D01*
X58739070Y-73210930D01*
X58724654Y-73195024D01*
X58711866Y-73177781D01*
X58700830Y-73159368D01*
X58691651Y-73139962D01*
X58684419Y-73119750D01*
X58679203Y-73098926D01*
X58676053Y-73077691D01*
X58675000Y-73056250D01*
X58675000Y-72543750D01*
X58676053Y-72522309D01*
X58679203Y-72501074D01*
X58684419Y-72480250D01*
X58691651Y-72460038D01*
X58700830Y-72440632D01*
X58711866Y-72422219D01*
X58724654Y-72404976D01*
X58739070Y-72389070D01*
X58754976Y-72374654D01*
X58772219Y-72361866D01*
X58790632Y-72350830D01*
X58810038Y-72341651D01*
X58830250Y-72334419D01*
X58851074Y-72329203D01*
X58872309Y-72326053D01*
X58893750Y-72325000D01*
X59331250Y-72325000D01*
X59352691Y-72326053D01*
G37*
%TD*%
%TO.C,C3*%
G36*
X60927691Y-73826053D02*
G01*
X60948926Y-73829203D01*
X60969750Y-73834419D01*
X60989962Y-73841651D01*
X61009368Y-73850830D01*
X61027781Y-73861866D01*
X61045024Y-73874654D01*
X61060930Y-73889070D01*
X61075346Y-73904976D01*
X61088134Y-73922219D01*
X61099170Y-73940632D01*
X61108349Y-73960038D01*
X61115581Y-73980250D01*
X61120797Y-74001074D01*
X61123947Y-74022309D01*
X61125000Y-74043750D01*
X61125000Y-74556250D01*
X61123947Y-74577691D01*
X61120797Y-74598926D01*
X61115581Y-74619750D01*
X61108349Y-74639962D01*
X61099170Y-74659368D01*
X61088134Y-74677781D01*
X61075346Y-74695024D01*
X61060930Y-74710930D01*
X61045024Y-74725346D01*
X61027781Y-74738134D01*
X61009368Y-74749170D01*
X60989962Y-74758349D01*
X60969750Y-74765581D01*
X60948926Y-74770797D01*
X60927691Y-74773947D01*
X60906250Y-74775000D01*
X60468750Y-74775000D01*
X60447309Y-74773947D01*
X60426074Y-74770797D01*
X60405250Y-74765581D01*
X60385038Y-74758349D01*
X60365632Y-74749170D01*
X60347219Y-74738134D01*
X60329976Y-74725346D01*
X60314070Y-74710930D01*
X60299654Y-74695024D01*
X60286866Y-74677781D01*
X60275830Y-74659368D01*
X60266651Y-74639962D01*
X60259419Y-74619750D01*
X60254203Y-74598926D01*
X60251053Y-74577691D01*
X60250000Y-74556250D01*
X60250000Y-74043750D01*
X60251053Y-74022309D01*
X60254203Y-74001074D01*
X60259419Y-73980250D01*
X60266651Y-73960038D01*
X60275830Y-73940632D01*
X60286866Y-73922219D01*
X60299654Y-73904976D01*
X60314070Y-73889070D01*
X60329976Y-73874654D01*
X60347219Y-73861866D01*
X60365632Y-73850830D01*
X60385038Y-73841651D01*
X60405250Y-73834419D01*
X60426074Y-73829203D01*
X60447309Y-73826053D01*
X60468750Y-73825000D01*
X60906250Y-73825000D01*
X60927691Y-73826053D01*
G37*
G36*
X59352691Y-73826053D02*
G01*
X59373926Y-73829203D01*
X59394750Y-73834419D01*
X59414962Y-73841651D01*
X59434368Y-73850830D01*
X59452781Y-73861866D01*
X59470024Y-73874654D01*
X59485930Y-73889070D01*
X59500346Y-73904976D01*
X59513134Y-73922219D01*
X59524170Y-73940632D01*
X59533349Y-73960038D01*
X59540581Y-73980250D01*
X59545797Y-74001074D01*
X59548947Y-74022309D01*
X59550000Y-74043750D01*
X59550000Y-74556250D01*
X59548947Y-74577691D01*
X59545797Y-74598926D01*
X59540581Y-74619750D01*
X59533349Y-74639962D01*
X59524170Y-74659368D01*
X59513134Y-74677781D01*
X59500346Y-74695024D01*
X59485930Y-74710930D01*
X59470024Y-74725346D01*
X59452781Y-74738134D01*
X59434368Y-74749170D01*
X59414962Y-74758349D01*
X59394750Y-74765581D01*
X59373926Y-74770797D01*
X59352691Y-74773947D01*
X59331250Y-74775000D01*
X58893750Y-74775000D01*
X58872309Y-74773947D01*
X58851074Y-74770797D01*
X58830250Y-74765581D01*
X58810038Y-74758349D01*
X58790632Y-74749170D01*
X58772219Y-74738134D01*
X58754976Y-74725346D01*
X58739070Y-74710930D01*
X58724654Y-74695024D01*
X58711866Y-74677781D01*
X58700830Y-74659368D01*
X58691651Y-74639962D01*
X58684419Y-74619750D01*
X58679203Y-74598926D01*
X58676053Y-74577691D01*
X58675000Y-74556250D01*
X58675000Y-74043750D01*
X58676053Y-74022309D01*
X58679203Y-74001074D01*
X58684419Y-73980250D01*
X58691651Y-73960038D01*
X58700830Y-73940632D01*
X58711866Y-73922219D01*
X58724654Y-73904976D01*
X58739070Y-73889070D01*
X58754976Y-73874654D01*
X58772219Y-73861866D01*
X58790632Y-73850830D01*
X58810038Y-73841651D01*
X58830250Y-73834419D01*
X58851074Y-73829203D01*
X58872309Y-73826053D01*
X58893750Y-73825000D01*
X59331250Y-73825000D01*
X59352691Y-73826053D01*
G37*
%TD*%
%TO.C,C1*%
G36*
X60927691Y-75326053D02*
G01*
X60948926Y-75329203D01*
X60969750Y-75334419D01*
X60989962Y-75341651D01*
X61009368Y-75350830D01*
X61027781Y-75361866D01*
X61045024Y-75374654D01*
X61060930Y-75389070D01*
X61075346Y-75404976D01*
X61088134Y-75422219D01*
X61099170Y-75440632D01*
X61108349Y-75460038D01*
X61115581Y-75480250D01*
X61120797Y-75501074D01*
X61123947Y-75522309D01*
X61125000Y-75543750D01*
X61125000Y-76056250D01*
X61123947Y-76077691D01*
X61120797Y-76098926D01*
X61115581Y-76119750D01*
X61108349Y-76139962D01*
X61099170Y-76159368D01*
X61088134Y-76177781D01*
X61075346Y-76195024D01*
X61060930Y-76210930D01*
X61045024Y-76225346D01*
X61027781Y-76238134D01*
X61009368Y-76249170D01*
X60989962Y-76258349D01*
X60969750Y-76265581D01*
X60948926Y-76270797D01*
X60927691Y-76273947D01*
X60906250Y-76275000D01*
X60468750Y-76275000D01*
X60447309Y-76273947D01*
X60426074Y-76270797D01*
X60405250Y-76265581D01*
X60385038Y-76258349D01*
X60365632Y-76249170D01*
X60347219Y-76238134D01*
X60329976Y-76225346D01*
X60314070Y-76210930D01*
X60299654Y-76195024D01*
X60286866Y-76177781D01*
X60275830Y-76159368D01*
X60266651Y-76139962D01*
X60259419Y-76119750D01*
X60254203Y-76098926D01*
X60251053Y-76077691D01*
X60250000Y-76056250D01*
X60250000Y-75543750D01*
X60251053Y-75522309D01*
X60254203Y-75501074D01*
X60259419Y-75480250D01*
X60266651Y-75460038D01*
X60275830Y-75440632D01*
X60286866Y-75422219D01*
X60299654Y-75404976D01*
X60314070Y-75389070D01*
X60329976Y-75374654D01*
X60347219Y-75361866D01*
X60365632Y-75350830D01*
X60385038Y-75341651D01*
X60405250Y-75334419D01*
X60426074Y-75329203D01*
X60447309Y-75326053D01*
X60468750Y-75325000D01*
X60906250Y-75325000D01*
X60927691Y-75326053D01*
G37*
G36*
X59352691Y-75326053D02*
G01*
X59373926Y-75329203D01*
X59394750Y-75334419D01*
X59414962Y-75341651D01*
X59434368Y-75350830D01*
X59452781Y-75361866D01*
X59470024Y-75374654D01*
X59485930Y-75389070D01*
X59500346Y-75404976D01*
X59513134Y-75422219D01*
X59524170Y-75440632D01*
X59533349Y-75460038D01*
X59540581Y-75480250D01*
X59545797Y-75501074D01*
X59548947Y-75522309D01*
X59550000Y-75543750D01*
X59550000Y-76056250D01*
X59548947Y-76077691D01*
X59545797Y-76098926D01*
X59540581Y-76119750D01*
X59533349Y-76139962D01*
X59524170Y-76159368D01*
X59513134Y-76177781D01*
X59500346Y-76195024D01*
X59485930Y-76210930D01*
X59470024Y-76225346D01*
X59452781Y-76238134D01*
X59434368Y-76249170D01*
X59414962Y-76258349D01*
X59394750Y-76265581D01*
X59373926Y-76270797D01*
X59352691Y-76273947D01*
X59331250Y-76275000D01*
X58893750Y-76275000D01*
X58872309Y-76273947D01*
X58851074Y-76270797D01*
X58830250Y-76265581D01*
X58810038Y-76258349D01*
X58790632Y-76249170D01*
X58772219Y-76238134D01*
X58754976Y-76225346D01*
X58739070Y-76210930D01*
X58724654Y-76195024D01*
X58711866Y-76177781D01*
X58700830Y-76159368D01*
X58691651Y-76139962D01*
X58684419Y-76119750D01*
X58679203Y-76098926D01*
X58676053Y-76077691D01*
X58675000Y-76056250D01*
X58675000Y-75543750D01*
X58676053Y-75522309D01*
X58679203Y-75501074D01*
X58684419Y-75480250D01*
X58691651Y-75460038D01*
X58700830Y-75440632D01*
X58711866Y-75422219D01*
X58724654Y-75404976D01*
X58739070Y-75389070D01*
X58754976Y-75374654D01*
X58772219Y-75361866D01*
X58790632Y-75350830D01*
X58810038Y-75341651D01*
X58830250Y-75334419D01*
X58851074Y-75329203D01*
X58872309Y-75326053D01*
X58893750Y-75325000D01*
X59331250Y-75325000D01*
X59352691Y-75326053D01*
G37*
%TD*%
M02*
