G04 #@! TF.GenerationSoftware,KiCad,Pcbnew,5.1.5+dfsg1-2build2*
G04 #@! TF.CreationDate,2021-10-19T23:33:07+01:00*
G04 #@! TF.ProjectId,radiation_sensor,72616469-6174-4696-9f6e-5f73656e736f,rev?*
G04 #@! TF.SameCoordinates,Original*
G04 #@! TF.FileFunction,Paste,Bot*
G04 #@! TF.FilePolarity,Positive*
%FSLAX46Y46*%
G04 Gerber Fmt 4.6, Leading zero omitted, Abs format (unit mm)*
G04 Created by KiCad (PCBNEW 5.1.5+dfsg1-2build2) date 2021-10-19 23:33:07*
%MOMM*%
%LPD*%
G04 APERTURE LIST*
%ADD10C,0.100000*%
G04 APERTURE END LIST*
D10*
G36*
X132649505Y-63251204D02*
G01*
X132673773Y-63254804D01*
X132697572Y-63260765D01*
X132720671Y-63269030D01*
X132742850Y-63279520D01*
X132763893Y-63292132D01*
X132783599Y-63306747D01*
X132801777Y-63323223D01*
X132818253Y-63341401D01*
X132832868Y-63361107D01*
X132845480Y-63382150D01*
X132855970Y-63404329D01*
X132864235Y-63427428D01*
X132870196Y-63451227D01*
X132873796Y-63475495D01*
X132875000Y-63499999D01*
X132875000Y-64400001D01*
X132873796Y-64424505D01*
X132870196Y-64448773D01*
X132864235Y-64472572D01*
X132855970Y-64495671D01*
X132845480Y-64517850D01*
X132832868Y-64538893D01*
X132818253Y-64558599D01*
X132801777Y-64576777D01*
X132783599Y-64593253D01*
X132763893Y-64607868D01*
X132742850Y-64620480D01*
X132720671Y-64630970D01*
X132697572Y-64639235D01*
X132673773Y-64645196D01*
X132649505Y-64648796D01*
X132625001Y-64650000D01*
X131974999Y-64650000D01*
X131950495Y-64648796D01*
X131926227Y-64645196D01*
X131902428Y-64639235D01*
X131879329Y-64630970D01*
X131857150Y-64620480D01*
X131836107Y-64607868D01*
X131816401Y-64593253D01*
X131798223Y-64576777D01*
X131781747Y-64558599D01*
X131767132Y-64538893D01*
X131754520Y-64517850D01*
X131744030Y-64495671D01*
X131735765Y-64472572D01*
X131729804Y-64448773D01*
X131726204Y-64424505D01*
X131725000Y-64400001D01*
X131725000Y-63499999D01*
X131726204Y-63475495D01*
X131729804Y-63451227D01*
X131735765Y-63427428D01*
X131744030Y-63404329D01*
X131754520Y-63382150D01*
X131767132Y-63361107D01*
X131781747Y-63341401D01*
X131798223Y-63323223D01*
X131816401Y-63306747D01*
X131836107Y-63292132D01*
X131857150Y-63279520D01*
X131879329Y-63269030D01*
X131902428Y-63260765D01*
X131926227Y-63254804D01*
X131950495Y-63251204D01*
X131974999Y-63250000D01*
X132625001Y-63250000D01*
X132649505Y-63251204D01*
G37*
G36*
X130599505Y-63251204D02*
G01*
X130623773Y-63254804D01*
X130647572Y-63260765D01*
X130670671Y-63269030D01*
X130692850Y-63279520D01*
X130713893Y-63292132D01*
X130733599Y-63306747D01*
X130751777Y-63323223D01*
X130768253Y-63341401D01*
X130782868Y-63361107D01*
X130795480Y-63382150D01*
X130805970Y-63404329D01*
X130814235Y-63427428D01*
X130820196Y-63451227D01*
X130823796Y-63475495D01*
X130825000Y-63499999D01*
X130825000Y-64400001D01*
X130823796Y-64424505D01*
X130820196Y-64448773D01*
X130814235Y-64472572D01*
X130805970Y-64495671D01*
X130795480Y-64517850D01*
X130782868Y-64538893D01*
X130768253Y-64558599D01*
X130751777Y-64576777D01*
X130733599Y-64593253D01*
X130713893Y-64607868D01*
X130692850Y-64620480D01*
X130670671Y-64630970D01*
X130647572Y-64639235D01*
X130623773Y-64645196D01*
X130599505Y-64648796D01*
X130575001Y-64650000D01*
X129924999Y-64650000D01*
X129900495Y-64648796D01*
X129876227Y-64645196D01*
X129852428Y-64639235D01*
X129829329Y-64630970D01*
X129807150Y-64620480D01*
X129786107Y-64607868D01*
X129766401Y-64593253D01*
X129748223Y-64576777D01*
X129731747Y-64558599D01*
X129717132Y-64538893D01*
X129704520Y-64517850D01*
X129694030Y-64495671D01*
X129685765Y-64472572D01*
X129679804Y-64448773D01*
X129676204Y-64424505D01*
X129675000Y-64400001D01*
X129675000Y-63499999D01*
X129676204Y-63475495D01*
X129679804Y-63451227D01*
X129685765Y-63427428D01*
X129694030Y-63404329D01*
X129704520Y-63382150D01*
X129717132Y-63361107D01*
X129731747Y-63341401D01*
X129748223Y-63323223D01*
X129766401Y-63306747D01*
X129786107Y-63292132D01*
X129807150Y-63279520D01*
X129829329Y-63269030D01*
X129852428Y-63260765D01*
X129876227Y-63254804D01*
X129900495Y-63251204D01*
X129924999Y-63250000D01*
X130575001Y-63250000D01*
X130599505Y-63251204D01*
G37*
G36*
X132560779Y-61651144D02*
G01*
X132583834Y-61654563D01*
X132606443Y-61660227D01*
X132628387Y-61668079D01*
X132649457Y-61678044D01*
X132669448Y-61690026D01*
X132688168Y-61703910D01*
X132705438Y-61719562D01*
X132721090Y-61736832D01*
X132734974Y-61755552D01*
X132746956Y-61775543D01*
X132756921Y-61796613D01*
X132764773Y-61818557D01*
X132770437Y-61841166D01*
X132773856Y-61864221D01*
X132775000Y-61887500D01*
X132775000Y-62462500D01*
X132773856Y-62485779D01*
X132770437Y-62508834D01*
X132764773Y-62531443D01*
X132756921Y-62553387D01*
X132746956Y-62574457D01*
X132734974Y-62594448D01*
X132721090Y-62613168D01*
X132705438Y-62630438D01*
X132688168Y-62646090D01*
X132669448Y-62659974D01*
X132649457Y-62671956D01*
X132628387Y-62681921D01*
X132606443Y-62689773D01*
X132583834Y-62695437D01*
X132560779Y-62698856D01*
X132537500Y-62700000D01*
X132062500Y-62700000D01*
X132039221Y-62698856D01*
X132016166Y-62695437D01*
X131993557Y-62689773D01*
X131971613Y-62681921D01*
X131950543Y-62671956D01*
X131930552Y-62659974D01*
X131911832Y-62646090D01*
X131894562Y-62630438D01*
X131878910Y-62613168D01*
X131865026Y-62594448D01*
X131853044Y-62574457D01*
X131843079Y-62553387D01*
X131835227Y-62531443D01*
X131829563Y-62508834D01*
X131826144Y-62485779D01*
X131825000Y-62462500D01*
X131825000Y-61887500D01*
X131826144Y-61864221D01*
X131829563Y-61841166D01*
X131835227Y-61818557D01*
X131843079Y-61796613D01*
X131853044Y-61775543D01*
X131865026Y-61755552D01*
X131878910Y-61736832D01*
X131894562Y-61719562D01*
X131911832Y-61703910D01*
X131930552Y-61690026D01*
X131950543Y-61678044D01*
X131971613Y-61668079D01*
X131993557Y-61660227D01*
X132016166Y-61654563D01*
X132039221Y-61651144D01*
X132062500Y-61650000D01*
X132537500Y-61650000D01*
X132560779Y-61651144D01*
G37*
G36*
X132560779Y-59901144D02*
G01*
X132583834Y-59904563D01*
X132606443Y-59910227D01*
X132628387Y-59918079D01*
X132649457Y-59928044D01*
X132669448Y-59940026D01*
X132688168Y-59953910D01*
X132705438Y-59969562D01*
X132721090Y-59986832D01*
X132734974Y-60005552D01*
X132746956Y-60025543D01*
X132756921Y-60046613D01*
X132764773Y-60068557D01*
X132770437Y-60091166D01*
X132773856Y-60114221D01*
X132775000Y-60137500D01*
X132775000Y-60712500D01*
X132773856Y-60735779D01*
X132770437Y-60758834D01*
X132764773Y-60781443D01*
X132756921Y-60803387D01*
X132746956Y-60824457D01*
X132734974Y-60844448D01*
X132721090Y-60863168D01*
X132705438Y-60880438D01*
X132688168Y-60896090D01*
X132669448Y-60909974D01*
X132649457Y-60921956D01*
X132628387Y-60931921D01*
X132606443Y-60939773D01*
X132583834Y-60945437D01*
X132560779Y-60948856D01*
X132537500Y-60950000D01*
X132062500Y-60950000D01*
X132039221Y-60948856D01*
X132016166Y-60945437D01*
X131993557Y-60939773D01*
X131971613Y-60931921D01*
X131950543Y-60921956D01*
X131930552Y-60909974D01*
X131911832Y-60896090D01*
X131894562Y-60880438D01*
X131878910Y-60863168D01*
X131865026Y-60844448D01*
X131853044Y-60824457D01*
X131843079Y-60803387D01*
X131835227Y-60781443D01*
X131829563Y-60758834D01*
X131826144Y-60735779D01*
X131825000Y-60712500D01*
X131825000Y-60137500D01*
X131826144Y-60114221D01*
X131829563Y-60091166D01*
X131835227Y-60068557D01*
X131843079Y-60046613D01*
X131853044Y-60025543D01*
X131865026Y-60005552D01*
X131878910Y-59986832D01*
X131894562Y-59969562D01*
X131911832Y-59953910D01*
X131930552Y-59940026D01*
X131950543Y-59928044D01*
X131971613Y-59918079D01*
X131993557Y-59910227D01*
X132016166Y-59904563D01*
X132039221Y-59901144D01*
X132062500Y-59900000D01*
X132537500Y-59900000D01*
X132560779Y-59901144D01*
G37*
G36*
X130260779Y-58801144D02*
G01*
X130283834Y-58804563D01*
X130306443Y-58810227D01*
X130328387Y-58818079D01*
X130349457Y-58828044D01*
X130369448Y-58840026D01*
X130388168Y-58853910D01*
X130405438Y-58869562D01*
X130421090Y-58886832D01*
X130434974Y-58905552D01*
X130446956Y-58925543D01*
X130456921Y-58946613D01*
X130464773Y-58968557D01*
X130470437Y-58991166D01*
X130473856Y-59014221D01*
X130475000Y-59037500D01*
X130475000Y-59612500D01*
X130473856Y-59635779D01*
X130470437Y-59658834D01*
X130464773Y-59681443D01*
X130456921Y-59703387D01*
X130446956Y-59724457D01*
X130434974Y-59744448D01*
X130421090Y-59763168D01*
X130405438Y-59780438D01*
X130388168Y-59796090D01*
X130369448Y-59809974D01*
X130349457Y-59821956D01*
X130328387Y-59831921D01*
X130306443Y-59839773D01*
X130283834Y-59845437D01*
X130260779Y-59848856D01*
X130237500Y-59850000D01*
X129762500Y-59850000D01*
X129739221Y-59848856D01*
X129716166Y-59845437D01*
X129693557Y-59839773D01*
X129671613Y-59831921D01*
X129650543Y-59821956D01*
X129630552Y-59809974D01*
X129611832Y-59796090D01*
X129594562Y-59780438D01*
X129578910Y-59763168D01*
X129565026Y-59744448D01*
X129553044Y-59724457D01*
X129543079Y-59703387D01*
X129535227Y-59681443D01*
X129529563Y-59658834D01*
X129526144Y-59635779D01*
X129525000Y-59612500D01*
X129525000Y-59037500D01*
X129526144Y-59014221D01*
X129529563Y-58991166D01*
X129535227Y-58968557D01*
X129543079Y-58946613D01*
X129553044Y-58925543D01*
X129565026Y-58905552D01*
X129578910Y-58886832D01*
X129594562Y-58869562D01*
X129611832Y-58853910D01*
X129630552Y-58840026D01*
X129650543Y-58828044D01*
X129671613Y-58818079D01*
X129693557Y-58810227D01*
X129716166Y-58804563D01*
X129739221Y-58801144D01*
X129762500Y-58800000D01*
X130237500Y-58800000D01*
X130260779Y-58801144D01*
G37*
G36*
X130260779Y-60551144D02*
G01*
X130283834Y-60554563D01*
X130306443Y-60560227D01*
X130328387Y-60568079D01*
X130349457Y-60578044D01*
X130369448Y-60590026D01*
X130388168Y-60603910D01*
X130405438Y-60619562D01*
X130421090Y-60636832D01*
X130434974Y-60655552D01*
X130446956Y-60675543D01*
X130456921Y-60696613D01*
X130464773Y-60718557D01*
X130470437Y-60741166D01*
X130473856Y-60764221D01*
X130475000Y-60787500D01*
X130475000Y-61362500D01*
X130473856Y-61385779D01*
X130470437Y-61408834D01*
X130464773Y-61431443D01*
X130456921Y-61453387D01*
X130446956Y-61474457D01*
X130434974Y-61494448D01*
X130421090Y-61513168D01*
X130405438Y-61530438D01*
X130388168Y-61546090D01*
X130369448Y-61559974D01*
X130349457Y-61571956D01*
X130328387Y-61581921D01*
X130306443Y-61589773D01*
X130283834Y-61595437D01*
X130260779Y-61598856D01*
X130237500Y-61600000D01*
X129762500Y-61600000D01*
X129739221Y-61598856D01*
X129716166Y-61595437D01*
X129693557Y-61589773D01*
X129671613Y-61581921D01*
X129650543Y-61571956D01*
X129630552Y-61559974D01*
X129611832Y-61546090D01*
X129594562Y-61530438D01*
X129578910Y-61513168D01*
X129565026Y-61494448D01*
X129553044Y-61474457D01*
X129543079Y-61453387D01*
X129535227Y-61431443D01*
X129529563Y-61408834D01*
X129526144Y-61385779D01*
X129525000Y-61362500D01*
X129525000Y-60787500D01*
X129526144Y-60764221D01*
X129529563Y-60741166D01*
X129535227Y-60718557D01*
X129543079Y-60696613D01*
X129553044Y-60675543D01*
X129565026Y-60655552D01*
X129578910Y-60636832D01*
X129594562Y-60619562D01*
X129611832Y-60603910D01*
X129630552Y-60590026D01*
X129650543Y-60578044D01*
X129671613Y-60568079D01*
X129693557Y-60560227D01*
X129716166Y-60554563D01*
X129739221Y-60551144D01*
X129762500Y-60550000D01*
X130237500Y-60550000D01*
X130260779Y-60551144D01*
G37*
G36*
X138949504Y-60501204D02*
G01*
X138973773Y-60504804D01*
X138997571Y-60510765D01*
X139020671Y-60519030D01*
X139042849Y-60529520D01*
X139063893Y-60542133D01*
X139083598Y-60556747D01*
X139101777Y-60573223D01*
X139118253Y-60591402D01*
X139132867Y-60611107D01*
X139145480Y-60632151D01*
X139155970Y-60654329D01*
X139164235Y-60677429D01*
X139170196Y-60701227D01*
X139173796Y-60725496D01*
X139175000Y-60750000D01*
X139175000Y-63650000D01*
X139173796Y-63674504D01*
X139170196Y-63698773D01*
X139164235Y-63722571D01*
X139155970Y-63745671D01*
X139145480Y-63767849D01*
X139132867Y-63788893D01*
X139118253Y-63808598D01*
X139101777Y-63826777D01*
X139083598Y-63843253D01*
X139063893Y-63857867D01*
X139042849Y-63870480D01*
X139020671Y-63880970D01*
X138997571Y-63889235D01*
X138973773Y-63895196D01*
X138949504Y-63898796D01*
X138925000Y-63900000D01*
X138125000Y-63900000D01*
X138100496Y-63898796D01*
X138076227Y-63895196D01*
X138052429Y-63889235D01*
X138029329Y-63880970D01*
X138007151Y-63870480D01*
X137986107Y-63857867D01*
X137966402Y-63843253D01*
X137948223Y-63826777D01*
X137931747Y-63808598D01*
X137917133Y-63788893D01*
X137904520Y-63767849D01*
X137894030Y-63745671D01*
X137885765Y-63722571D01*
X137879804Y-63698773D01*
X137876204Y-63674504D01*
X137875000Y-63650000D01*
X137875000Y-60750000D01*
X137876204Y-60725496D01*
X137879804Y-60701227D01*
X137885765Y-60677429D01*
X137894030Y-60654329D01*
X137904520Y-60632151D01*
X137917133Y-60611107D01*
X137931747Y-60591402D01*
X137948223Y-60573223D01*
X137966402Y-60556747D01*
X137986107Y-60542133D01*
X138007151Y-60529520D01*
X138029329Y-60519030D01*
X138052429Y-60510765D01*
X138076227Y-60504804D01*
X138100496Y-60501204D01*
X138125000Y-60500000D01*
X138925000Y-60500000D01*
X138949504Y-60501204D01*
G37*
G36*
X134499504Y-60501204D02*
G01*
X134523773Y-60504804D01*
X134547571Y-60510765D01*
X134570671Y-60519030D01*
X134592849Y-60529520D01*
X134613893Y-60542133D01*
X134633598Y-60556747D01*
X134651777Y-60573223D01*
X134668253Y-60591402D01*
X134682867Y-60611107D01*
X134695480Y-60632151D01*
X134705970Y-60654329D01*
X134714235Y-60677429D01*
X134720196Y-60701227D01*
X134723796Y-60725496D01*
X134725000Y-60750000D01*
X134725000Y-63650000D01*
X134723796Y-63674504D01*
X134720196Y-63698773D01*
X134714235Y-63722571D01*
X134705970Y-63745671D01*
X134695480Y-63767849D01*
X134682867Y-63788893D01*
X134668253Y-63808598D01*
X134651777Y-63826777D01*
X134633598Y-63843253D01*
X134613893Y-63857867D01*
X134592849Y-63870480D01*
X134570671Y-63880970D01*
X134547571Y-63889235D01*
X134523773Y-63895196D01*
X134499504Y-63898796D01*
X134475000Y-63900000D01*
X133675000Y-63900000D01*
X133650496Y-63898796D01*
X133626227Y-63895196D01*
X133602429Y-63889235D01*
X133579329Y-63880970D01*
X133557151Y-63870480D01*
X133536107Y-63857867D01*
X133516402Y-63843253D01*
X133498223Y-63826777D01*
X133481747Y-63808598D01*
X133467133Y-63788893D01*
X133454520Y-63767849D01*
X133444030Y-63745671D01*
X133435765Y-63722571D01*
X133429804Y-63698773D01*
X133426204Y-63674504D01*
X133425000Y-63650000D01*
X133425000Y-60750000D01*
X133426204Y-60725496D01*
X133429804Y-60701227D01*
X133435765Y-60677429D01*
X133444030Y-60654329D01*
X133454520Y-60632151D01*
X133467133Y-60611107D01*
X133481747Y-60591402D01*
X133498223Y-60573223D01*
X133516402Y-60556747D01*
X133536107Y-60542133D01*
X133557151Y-60529520D01*
X133579329Y-60519030D01*
X133602429Y-60510765D01*
X133626227Y-60504804D01*
X133650496Y-60501204D01*
X133675000Y-60500000D01*
X134475000Y-60500000D01*
X134499504Y-60501204D01*
G37*
G36*
X133885779Y-67676144D02*
G01*
X133908834Y-67679563D01*
X133931443Y-67685227D01*
X133953387Y-67693079D01*
X133974457Y-67703044D01*
X133994448Y-67715026D01*
X134013168Y-67728910D01*
X134030438Y-67744562D01*
X134046090Y-67761832D01*
X134059974Y-67780552D01*
X134071956Y-67800543D01*
X134081921Y-67821613D01*
X134089773Y-67843557D01*
X134095437Y-67866166D01*
X134098856Y-67889221D01*
X134100000Y-67912500D01*
X134100000Y-68387500D01*
X134098856Y-68410779D01*
X134095437Y-68433834D01*
X134089773Y-68456443D01*
X134081921Y-68478387D01*
X134071956Y-68499457D01*
X134059974Y-68519448D01*
X134046090Y-68538168D01*
X134030438Y-68555438D01*
X134013168Y-68571090D01*
X133994448Y-68584974D01*
X133974457Y-68596956D01*
X133953387Y-68606921D01*
X133931443Y-68614773D01*
X133908834Y-68620437D01*
X133885779Y-68623856D01*
X133862500Y-68625000D01*
X133287500Y-68625000D01*
X133264221Y-68623856D01*
X133241166Y-68620437D01*
X133218557Y-68614773D01*
X133196613Y-68606921D01*
X133175543Y-68596956D01*
X133155552Y-68584974D01*
X133136832Y-68571090D01*
X133119562Y-68555438D01*
X133103910Y-68538168D01*
X133090026Y-68519448D01*
X133078044Y-68499457D01*
X133068079Y-68478387D01*
X133060227Y-68456443D01*
X133054563Y-68433834D01*
X133051144Y-68410779D01*
X133050000Y-68387500D01*
X133050000Y-67912500D01*
X133051144Y-67889221D01*
X133054563Y-67866166D01*
X133060227Y-67843557D01*
X133068079Y-67821613D01*
X133078044Y-67800543D01*
X133090026Y-67780552D01*
X133103910Y-67761832D01*
X133119562Y-67744562D01*
X133136832Y-67728910D01*
X133155552Y-67715026D01*
X133175543Y-67703044D01*
X133196613Y-67693079D01*
X133218557Y-67685227D01*
X133241166Y-67679563D01*
X133264221Y-67676144D01*
X133287500Y-67675000D01*
X133862500Y-67675000D01*
X133885779Y-67676144D01*
G37*
G36*
X135635779Y-67676144D02*
G01*
X135658834Y-67679563D01*
X135681443Y-67685227D01*
X135703387Y-67693079D01*
X135724457Y-67703044D01*
X135744448Y-67715026D01*
X135763168Y-67728910D01*
X135780438Y-67744562D01*
X135796090Y-67761832D01*
X135809974Y-67780552D01*
X135821956Y-67800543D01*
X135831921Y-67821613D01*
X135839773Y-67843557D01*
X135845437Y-67866166D01*
X135848856Y-67889221D01*
X135850000Y-67912500D01*
X135850000Y-68387500D01*
X135848856Y-68410779D01*
X135845437Y-68433834D01*
X135839773Y-68456443D01*
X135831921Y-68478387D01*
X135821956Y-68499457D01*
X135809974Y-68519448D01*
X135796090Y-68538168D01*
X135780438Y-68555438D01*
X135763168Y-68571090D01*
X135744448Y-68584974D01*
X135724457Y-68596956D01*
X135703387Y-68606921D01*
X135681443Y-68614773D01*
X135658834Y-68620437D01*
X135635779Y-68623856D01*
X135612500Y-68625000D01*
X135037500Y-68625000D01*
X135014221Y-68623856D01*
X134991166Y-68620437D01*
X134968557Y-68614773D01*
X134946613Y-68606921D01*
X134925543Y-68596956D01*
X134905552Y-68584974D01*
X134886832Y-68571090D01*
X134869562Y-68555438D01*
X134853910Y-68538168D01*
X134840026Y-68519448D01*
X134828044Y-68499457D01*
X134818079Y-68478387D01*
X134810227Y-68456443D01*
X134804563Y-68433834D01*
X134801144Y-68410779D01*
X134800000Y-68387500D01*
X134800000Y-67912500D01*
X134801144Y-67889221D01*
X134804563Y-67866166D01*
X134810227Y-67843557D01*
X134818079Y-67821613D01*
X134828044Y-67800543D01*
X134840026Y-67780552D01*
X134853910Y-67761832D01*
X134869562Y-67744562D01*
X134886832Y-67728910D01*
X134905552Y-67715026D01*
X134925543Y-67703044D01*
X134946613Y-67693079D01*
X134968557Y-67685227D01*
X134991166Y-67679563D01*
X135014221Y-67676144D01*
X135037500Y-67675000D01*
X135612500Y-67675000D01*
X135635779Y-67676144D01*
G37*
G36*
X133885779Y-69176144D02*
G01*
X133908834Y-69179563D01*
X133931443Y-69185227D01*
X133953387Y-69193079D01*
X133974457Y-69203044D01*
X133994448Y-69215026D01*
X134013168Y-69228910D01*
X134030438Y-69244562D01*
X134046090Y-69261832D01*
X134059974Y-69280552D01*
X134071956Y-69300543D01*
X134081921Y-69321613D01*
X134089773Y-69343557D01*
X134095437Y-69366166D01*
X134098856Y-69389221D01*
X134100000Y-69412500D01*
X134100000Y-69887500D01*
X134098856Y-69910779D01*
X134095437Y-69933834D01*
X134089773Y-69956443D01*
X134081921Y-69978387D01*
X134071956Y-69999457D01*
X134059974Y-70019448D01*
X134046090Y-70038168D01*
X134030438Y-70055438D01*
X134013168Y-70071090D01*
X133994448Y-70084974D01*
X133974457Y-70096956D01*
X133953387Y-70106921D01*
X133931443Y-70114773D01*
X133908834Y-70120437D01*
X133885779Y-70123856D01*
X133862500Y-70125000D01*
X133287500Y-70125000D01*
X133264221Y-70123856D01*
X133241166Y-70120437D01*
X133218557Y-70114773D01*
X133196613Y-70106921D01*
X133175543Y-70096956D01*
X133155552Y-70084974D01*
X133136832Y-70071090D01*
X133119562Y-70055438D01*
X133103910Y-70038168D01*
X133090026Y-70019448D01*
X133078044Y-69999457D01*
X133068079Y-69978387D01*
X133060227Y-69956443D01*
X133054563Y-69933834D01*
X133051144Y-69910779D01*
X133050000Y-69887500D01*
X133050000Y-69412500D01*
X133051144Y-69389221D01*
X133054563Y-69366166D01*
X133060227Y-69343557D01*
X133068079Y-69321613D01*
X133078044Y-69300543D01*
X133090026Y-69280552D01*
X133103910Y-69261832D01*
X133119562Y-69244562D01*
X133136832Y-69228910D01*
X133155552Y-69215026D01*
X133175543Y-69203044D01*
X133196613Y-69193079D01*
X133218557Y-69185227D01*
X133241166Y-69179563D01*
X133264221Y-69176144D01*
X133287500Y-69175000D01*
X133862500Y-69175000D01*
X133885779Y-69176144D01*
G37*
G36*
X135635779Y-69176144D02*
G01*
X135658834Y-69179563D01*
X135681443Y-69185227D01*
X135703387Y-69193079D01*
X135724457Y-69203044D01*
X135744448Y-69215026D01*
X135763168Y-69228910D01*
X135780438Y-69244562D01*
X135796090Y-69261832D01*
X135809974Y-69280552D01*
X135821956Y-69300543D01*
X135831921Y-69321613D01*
X135839773Y-69343557D01*
X135845437Y-69366166D01*
X135848856Y-69389221D01*
X135850000Y-69412500D01*
X135850000Y-69887500D01*
X135848856Y-69910779D01*
X135845437Y-69933834D01*
X135839773Y-69956443D01*
X135831921Y-69978387D01*
X135821956Y-69999457D01*
X135809974Y-70019448D01*
X135796090Y-70038168D01*
X135780438Y-70055438D01*
X135763168Y-70071090D01*
X135744448Y-70084974D01*
X135724457Y-70096956D01*
X135703387Y-70106921D01*
X135681443Y-70114773D01*
X135658834Y-70120437D01*
X135635779Y-70123856D01*
X135612500Y-70125000D01*
X135037500Y-70125000D01*
X135014221Y-70123856D01*
X134991166Y-70120437D01*
X134968557Y-70114773D01*
X134946613Y-70106921D01*
X134925543Y-70096956D01*
X134905552Y-70084974D01*
X134886832Y-70071090D01*
X134869562Y-70055438D01*
X134853910Y-70038168D01*
X134840026Y-70019448D01*
X134828044Y-69999457D01*
X134818079Y-69978387D01*
X134810227Y-69956443D01*
X134804563Y-69933834D01*
X134801144Y-69910779D01*
X134800000Y-69887500D01*
X134800000Y-69412500D01*
X134801144Y-69389221D01*
X134804563Y-69366166D01*
X134810227Y-69343557D01*
X134818079Y-69321613D01*
X134828044Y-69300543D01*
X134840026Y-69280552D01*
X134853910Y-69261832D01*
X134869562Y-69244562D01*
X134886832Y-69228910D01*
X134905552Y-69215026D01*
X134925543Y-69203044D01*
X134946613Y-69193079D01*
X134968557Y-69185227D01*
X134991166Y-69179563D01*
X135014221Y-69176144D01*
X135037500Y-69175000D01*
X135612500Y-69175000D01*
X135635779Y-69176144D01*
G37*
M02*
