G04 #@! TF.GenerationSoftware,KiCad,Pcbnew,5.1.5+dfsg1-2build2*
G04 #@! TF.CreationDate,2021-10-19T23:33:07+01:00*
G04 #@! TF.ProjectId,radiation_sensor,72616469-6174-4696-9f6e-5f73656e736f,rev?*
G04 #@! TF.SameCoordinates,Original*
G04 #@! TF.FileFunction,Legend,Top*
G04 #@! TF.FilePolarity,Positive*
%FSLAX46Y46*%
G04 Gerber Fmt 4.6, Leading zero omitted, Abs format (unit mm)*
G04 Created by KiCad (PCBNEW 5.1.5+dfsg1-2build2) date 2021-10-19 23:33:07*
%MOMM*%
%LPD*%
G04 APERTURE LIST*
%ADD10C,0.200000*%
%ADD11C,0.120000*%
%ADD12C,0.150000*%
%ADD13C,0.254000*%
G04 APERTURE END LIST*
D10*
X140035714Y-59202380D02*
X139702380Y-58726190D01*
X139464285Y-59202380D02*
X139464285Y-58202380D01*
X139845238Y-58202380D01*
X139940476Y-58250000D01*
X139988095Y-58297619D01*
X140035714Y-58392857D01*
X140035714Y-58535714D01*
X139988095Y-58630952D01*
X139940476Y-58678571D01*
X139845238Y-58726190D01*
X139464285Y-58726190D01*
X140892857Y-59202380D02*
X140892857Y-58678571D01*
X140845238Y-58583333D01*
X140750000Y-58535714D01*
X140559523Y-58535714D01*
X140464285Y-58583333D01*
X140892857Y-59154761D02*
X140797619Y-59202380D01*
X140559523Y-59202380D01*
X140464285Y-59154761D01*
X140416666Y-59059523D01*
X140416666Y-58964285D01*
X140464285Y-58869047D01*
X140559523Y-58821428D01*
X140797619Y-58821428D01*
X140892857Y-58773809D01*
X141797619Y-59202380D02*
X141797619Y-58202380D01*
X141797619Y-59154761D02*
X141702380Y-59202380D01*
X141511904Y-59202380D01*
X141416666Y-59154761D01*
X141369047Y-59107142D01*
X141321428Y-59011904D01*
X141321428Y-58726190D01*
X141369047Y-58630952D01*
X141416666Y-58583333D01*
X141511904Y-58535714D01*
X141702380Y-58535714D01*
X141797619Y-58583333D01*
X142273809Y-59202380D02*
X142273809Y-58535714D01*
X142273809Y-58202380D02*
X142226190Y-58250000D01*
X142273809Y-58297619D01*
X142321428Y-58250000D01*
X142273809Y-58202380D01*
X142273809Y-58297619D01*
X143178571Y-59202380D02*
X143178571Y-58678571D01*
X143130952Y-58583333D01*
X143035714Y-58535714D01*
X142845238Y-58535714D01*
X142750000Y-58583333D01*
X143178571Y-59154761D02*
X143083333Y-59202380D01*
X142845238Y-59202380D01*
X142750000Y-59154761D01*
X142702380Y-59059523D01*
X142702380Y-58964285D01*
X142750000Y-58869047D01*
X142845238Y-58821428D01*
X143083333Y-58821428D01*
X143178571Y-58773809D01*
X143511904Y-58535714D02*
X143892857Y-58535714D01*
X143654761Y-58202380D02*
X143654761Y-59059523D01*
X143702380Y-59154761D01*
X143797619Y-59202380D01*
X143892857Y-59202380D01*
X144226190Y-59202380D02*
X144226190Y-58535714D01*
X144226190Y-58202380D02*
X144178571Y-58250000D01*
X144226190Y-58297619D01*
X144273809Y-58250000D01*
X144226190Y-58202380D01*
X144226190Y-58297619D01*
X144845238Y-59202380D02*
X144750000Y-59154761D01*
X144702380Y-59107142D01*
X144654761Y-59011904D01*
X144654761Y-58726190D01*
X144702380Y-58630952D01*
X144750000Y-58583333D01*
X144845238Y-58535714D01*
X144988095Y-58535714D01*
X145083333Y-58583333D01*
X145130952Y-58630952D01*
X145178571Y-58726190D01*
X145178571Y-59011904D01*
X145130952Y-59107142D01*
X145083333Y-59154761D01*
X144988095Y-59202380D01*
X144845238Y-59202380D01*
X145607142Y-58535714D02*
X145607142Y-59202380D01*
X145607142Y-58630952D02*
X145654761Y-58583333D01*
X145750000Y-58535714D01*
X145892857Y-58535714D01*
X145988095Y-58583333D01*
X146035714Y-58678571D01*
X146035714Y-59202380D01*
X147273809Y-59202380D02*
X147273809Y-58202380D01*
X147511904Y-58202380D01*
X147654761Y-58250000D01*
X147750000Y-58345238D01*
X147797619Y-58440476D01*
X147845238Y-58630952D01*
X147845238Y-58773809D01*
X147797619Y-58964285D01*
X147750000Y-59059523D01*
X147654761Y-59154761D01*
X147511904Y-59202380D01*
X147273809Y-59202380D01*
X148654761Y-59154761D02*
X148559523Y-59202380D01*
X148369047Y-59202380D01*
X148273809Y-59154761D01*
X148226190Y-59059523D01*
X148226190Y-58678571D01*
X148273809Y-58583333D01*
X148369047Y-58535714D01*
X148559523Y-58535714D01*
X148654761Y-58583333D01*
X148702380Y-58678571D01*
X148702380Y-58773809D01*
X148226190Y-58869047D01*
X148988095Y-58535714D02*
X149369047Y-58535714D01*
X149130952Y-58202380D02*
X149130952Y-59059523D01*
X149178571Y-59154761D01*
X149273809Y-59202380D01*
X149369047Y-59202380D01*
X150083333Y-59154761D02*
X149988095Y-59202380D01*
X149797619Y-59202380D01*
X149702380Y-59154761D01*
X149654761Y-59059523D01*
X149654761Y-58678571D01*
X149702380Y-58583333D01*
X149797619Y-58535714D01*
X149988095Y-58535714D01*
X150083333Y-58583333D01*
X150130952Y-58678571D01*
X150130952Y-58773809D01*
X149654761Y-58869047D01*
X150988095Y-59154761D02*
X150892857Y-59202380D01*
X150702380Y-59202380D01*
X150607142Y-59154761D01*
X150559523Y-59107142D01*
X150511904Y-59011904D01*
X150511904Y-58726190D01*
X150559523Y-58630952D01*
X150607142Y-58583333D01*
X150702380Y-58535714D01*
X150892857Y-58535714D01*
X150988095Y-58583333D01*
X151273809Y-58535714D02*
X151654761Y-58535714D01*
X151416666Y-58202380D02*
X151416666Y-59059523D01*
X151464285Y-59154761D01*
X151559523Y-59202380D01*
X151654761Y-59202380D01*
X152130952Y-59202380D02*
X152035714Y-59154761D01*
X151988095Y-59107142D01*
X151940476Y-59011904D01*
X151940476Y-58726190D01*
X151988095Y-58630952D01*
X152035714Y-58583333D01*
X152130952Y-58535714D01*
X152273809Y-58535714D01*
X152369047Y-58583333D01*
X152416666Y-58630952D01*
X152464285Y-58726190D01*
X152464285Y-59011904D01*
X152416666Y-59107142D01*
X152369047Y-59154761D01*
X152273809Y-59202380D01*
X152130952Y-59202380D01*
X152892857Y-59202380D02*
X152892857Y-58535714D01*
X152892857Y-58726190D02*
X152940476Y-58630952D01*
X152988095Y-58583333D01*
X153083333Y-58535714D01*
X153178571Y-58535714D01*
D11*
X129890000Y-64228733D02*
X129890000Y-64571267D01*
X130910000Y-64228733D02*
X130910000Y-64571267D01*
X138462779Y-68340000D02*
X138137221Y-68340000D01*
X138462779Y-69360000D02*
X138137221Y-69360000D01*
X144825000Y-64675000D02*
X141375000Y-64675000D01*
X144825000Y-64675000D02*
X146775000Y-64675000D01*
X144825000Y-69795000D02*
X142875000Y-69795000D01*
X144825000Y-69795000D02*
X146775000Y-69795000D01*
X153395000Y-71720000D02*
X153395000Y-78060000D01*
X143625000Y-71720000D02*
X143625000Y-78060000D01*
X143625000Y-78060000D02*
X153395000Y-78060000D01*
X143625000Y-71720000D02*
X153395000Y-71720000D01*
X146678733Y-71260000D02*
X147021267Y-71260000D01*
X146678733Y-70240000D02*
X147021267Y-70240000D01*
X148990000Y-69528733D02*
X148990000Y-69871267D01*
X150010000Y-69528733D02*
X150010000Y-69871267D01*
X139410000Y-65096267D02*
X139410000Y-64753733D01*
X138390000Y-65096267D02*
X138390000Y-64753733D01*
X136910000Y-57871267D02*
X136910000Y-57528733D01*
X135890000Y-57871267D02*
X135890000Y-57528733D01*
X137910000Y-61796267D02*
X137910000Y-61453733D01*
X136890000Y-61796267D02*
X136890000Y-61453733D01*
X133910000Y-57846267D02*
X133910000Y-57503733D01*
X132890000Y-57846267D02*
X132890000Y-57503733D01*
X129490000Y-59828733D02*
X129490000Y-60171267D01*
X130510000Y-59828733D02*
X130510000Y-60171267D01*
X128313748Y-69860000D02*
X128836252Y-69860000D01*
X128313748Y-68440000D02*
X128836252Y-68440000D01*
X126410000Y-70436252D02*
X126410000Y-69913748D01*
X124990000Y-70436252D02*
X124990000Y-69913748D01*
X124230000Y-74080000D02*
X122900000Y-74080000D01*
X124230000Y-72750000D02*
X124230000Y-74080000D01*
X124230000Y-71480000D02*
X121570000Y-71480000D01*
X121570000Y-71480000D02*
X121570000Y-63800000D01*
X124230000Y-71480000D02*
X124230000Y-63800000D01*
X124230000Y-63800000D02*
X121570000Y-63800000D01*
D10*
X131112000Y-67213000D02*
X131112000Y-65688000D01*
X136347000Y-65338000D02*
X131457000Y-65338000D01*
X136347000Y-62138000D02*
X136347000Y-65338000D01*
X131457000Y-62138000D02*
X136347000Y-62138000D01*
X131457000Y-65338000D02*
X131457000Y-62138000D01*
D11*
X130910000Y-71640000D02*
X130910000Y-70460000D01*
X131710000Y-71640000D02*
X130910000Y-71640000D01*
X131710000Y-76360000D02*
X131710000Y-71640000D01*
X130910000Y-76360000D02*
X131710000Y-76360000D01*
X127490000Y-76360000D02*
X128290000Y-76360000D01*
X127490000Y-71640000D02*
X127490000Y-76360000D01*
X128290000Y-71640000D02*
X127490000Y-71640000D01*
X128290000Y-70410000D02*
X128290000Y-71640000D01*
X135410000Y-71640000D02*
X135410000Y-70460000D01*
X136210000Y-71640000D02*
X135410000Y-71640000D01*
X136210000Y-76360000D02*
X136210000Y-71640000D01*
X135410000Y-76360000D02*
X136210000Y-76360000D01*
X131990000Y-76360000D02*
X132790000Y-76360000D01*
X131990000Y-71640000D02*
X131990000Y-76360000D01*
X132790000Y-71640000D02*
X131990000Y-71640000D01*
X132790000Y-70410000D02*
X132790000Y-71640000D01*
X139910000Y-71640000D02*
X139910000Y-70460000D01*
X140710000Y-71640000D02*
X139910000Y-71640000D01*
X140710000Y-76360000D02*
X140710000Y-71640000D01*
X139910000Y-76360000D02*
X140710000Y-76360000D01*
X136490000Y-76360000D02*
X137290000Y-76360000D01*
X136490000Y-71640000D02*
X136490000Y-76360000D01*
X137290000Y-71640000D02*
X136490000Y-71640000D01*
X137290000Y-70410000D02*
X137290000Y-71640000D01*
X151753733Y-71160000D02*
X152096267Y-71160000D01*
X151753733Y-70140000D02*
X152096267Y-70140000D01*
X140885000Y-63371267D02*
X140885000Y-63028733D01*
X139865000Y-63371267D02*
X139865000Y-63028733D01*
X134390000Y-57528733D02*
X134390000Y-57871267D01*
X135410000Y-57528733D02*
X135410000Y-57871267D01*
X139410000Y-61771267D02*
X139410000Y-61428733D01*
X138390000Y-61771267D02*
X138390000Y-61428733D01*
X132410000Y-57871267D02*
X132410000Y-57528733D01*
X131390000Y-57871267D02*
X131390000Y-57528733D01*
X138521267Y-66840000D02*
X138178733Y-66840000D01*
X138521267Y-67860000D02*
X138178733Y-67860000D01*
X133421267Y-68840000D02*
X133078733Y-68840000D01*
X133421267Y-69860000D02*
X133078733Y-69860000D01*
X126846267Y-66840000D02*
X126503733Y-66840000D01*
X126846267Y-67860000D02*
X126503733Y-67860000D01*
X146278733Y-64210000D02*
X146621267Y-64210000D01*
X146278733Y-63190000D02*
X146621267Y-63190000D01*
D12*
X132187142Y-65042857D02*
X132234761Y-65090476D01*
X132282380Y-65233333D01*
X132282380Y-65328571D01*
X132234761Y-65471428D01*
X132139523Y-65566666D01*
X132044285Y-65614285D01*
X131853809Y-65661904D01*
X131710952Y-65661904D01*
X131520476Y-65614285D01*
X131425238Y-65566666D01*
X131330000Y-65471428D01*
X131282380Y-65328571D01*
X131282380Y-65233333D01*
X131330000Y-65090476D01*
X131377619Y-65042857D01*
X132282380Y-64090476D02*
X132282380Y-64661904D01*
X132282380Y-64376190D02*
X131282380Y-64376190D01*
X131425238Y-64471428D01*
X131520476Y-64566666D01*
X131568095Y-64661904D01*
X131282380Y-63471428D02*
X131282380Y-63376190D01*
X131330000Y-63280952D01*
X131377619Y-63233333D01*
X131472857Y-63185714D01*
X131663333Y-63138095D01*
X131901428Y-63138095D01*
X132091904Y-63185714D01*
X132187142Y-63233333D01*
X132234761Y-63280952D01*
X132282380Y-63376190D01*
X132282380Y-63471428D01*
X132234761Y-63566666D01*
X132187142Y-63614285D01*
X132091904Y-63661904D01*
X131901428Y-63709523D01*
X131663333Y-63709523D01*
X131472857Y-63661904D01*
X131377619Y-63614285D01*
X131330000Y-63566666D01*
X131282380Y-63471428D01*
X138133333Y-70732380D02*
X137800000Y-70256190D01*
X137561904Y-70732380D02*
X137561904Y-69732380D01*
X137942857Y-69732380D01*
X138038095Y-69780000D01*
X138085714Y-69827619D01*
X138133333Y-69922857D01*
X138133333Y-70065714D01*
X138085714Y-70160952D01*
X138038095Y-70208571D01*
X137942857Y-70256190D01*
X137561904Y-70256190D01*
X138466666Y-69732380D02*
X139085714Y-69732380D01*
X138752380Y-70113333D01*
X138895238Y-70113333D01*
X138990476Y-70160952D01*
X139038095Y-70208571D01*
X139085714Y-70303809D01*
X139085714Y-70541904D01*
X139038095Y-70637142D01*
X138990476Y-70684761D01*
X138895238Y-70732380D01*
X138609523Y-70732380D01*
X138514285Y-70684761D01*
X138466666Y-70637142D01*
X144063095Y-63287380D02*
X144063095Y-64096904D01*
X144110714Y-64192142D01*
X144158333Y-64239761D01*
X144253571Y-64287380D01*
X144444047Y-64287380D01*
X144539285Y-64239761D01*
X144586904Y-64192142D01*
X144634523Y-64096904D01*
X144634523Y-63287380D01*
X145634523Y-64287380D02*
X145063095Y-64287380D01*
X145348809Y-64287380D02*
X145348809Y-63287380D01*
X145253571Y-63430238D01*
X145158333Y-63525476D01*
X145063095Y-63573095D01*
X147914761Y-71042380D02*
X147581428Y-70566190D01*
X147343333Y-71042380D02*
X147343333Y-70042380D01*
X147724285Y-70042380D01*
X147819523Y-70090000D01*
X147867142Y-70137619D01*
X147914761Y-70232857D01*
X147914761Y-70375714D01*
X147867142Y-70470952D01*
X147819523Y-70518571D01*
X147724285Y-70566190D01*
X147343333Y-70566190D01*
X148200476Y-70042380D02*
X148533809Y-71042380D01*
X148867142Y-70042380D01*
X149724285Y-71042380D02*
X149152857Y-71042380D01*
X149438571Y-71042380D02*
X149438571Y-70042380D01*
X149343333Y-70185238D01*
X149248095Y-70280476D01*
X149152857Y-70328095D01*
X146207142Y-69772380D02*
X145873809Y-69296190D01*
X145635714Y-69772380D02*
X145635714Y-68772380D01*
X146016666Y-68772380D01*
X146111904Y-68820000D01*
X146159523Y-68867619D01*
X146207142Y-68962857D01*
X146207142Y-69105714D01*
X146159523Y-69200952D01*
X146111904Y-69248571D01*
X146016666Y-69296190D01*
X145635714Y-69296190D01*
X147159523Y-69772380D02*
X146588095Y-69772380D01*
X146873809Y-69772380D02*
X146873809Y-68772380D01*
X146778571Y-68915238D01*
X146683333Y-69010476D01*
X146588095Y-69058095D01*
X148111904Y-69772380D02*
X147540476Y-69772380D01*
X147826190Y-69772380D02*
X147826190Y-68772380D01*
X147730952Y-68915238D01*
X147635714Y-69010476D01*
X147540476Y-69058095D01*
X151382380Y-70342857D02*
X150906190Y-70676190D01*
X151382380Y-70914285D02*
X150382380Y-70914285D01*
X150382380Y-70533333D01*
X150430000Y-70438095D01*
X150477619Y-70390476D01*
X150572857Y-70342857D01*
X150715714Y-70342857D01*
X150810952Y-70390476D01*
X150858571Y-70438095D01*
X150906190Y-70533333D01*
X150906190Y-70914285D01*
X151382380Y-69390476D02*
X151382380Y-69961904D01*
X151382380Y-69676190D02*
X150382380Y-69676190D01*
X150525238Y-69771428D01*
X150620476Y-69866666D01*
X150668095Y-69961904D01*
X150382380Y-68771428D02*
X150382380Y-68676190D01*
X150430000Y-68580952D01*
X150477619Y-68533333D01*
X150572857Y-68485714D01*
X150763333Y-68438095D01*
X151001428Y-68438095D01*
X151191904Y-68485714D01*
X151287142Y-68533333D01*
X151334761Y-68580952D01*
X151382380Y-68676190D01*
X151382380Y-68771428D01*
X151334761Y-68866666D01*
X151287142Y-68914285D01*
X151191904Y-68961904D01*
X151001428Y-69009523D01*
X150763333Y-69009523D01*
X150572857Y-68961904D01*
X150477619Y-68914285D01*
X150430000Y-68866666D01*
X150382380Y-68771428D01*
X137922380Y-65091666D02*
X137446190Y-65425000D01*
X137922380Y-65663095D02*
X136922380Y-65663095D01*
X136922380Y-65282142D01*
X136970000Y-65186904D01*
X137017619Y-65139285D01*
X137112857Y-65091666D01*
X137255714Y-65091666D01*
X137350952Y-65139285D01*
X137398571Y-65186904D01*
X137446190Y-65282142D01*
X137446190Y-65663095D01*
X137922380Y-64615476D02*
X137922380Y-64425000D01*
X137874761Y-64329761D01*
X137827142Y-64282142D01*
X137684285Y-64186904D01*
X137493809Y-64139285D01*
X137112857Y-64139285D01*
X137017619Y-64186904D01*
X136970000Y-64234523D01*
X136922380Y-64329761D01*
X136922380Y-64520238D01*
X136970000Y-64615476D01*
X137017619Y-64663095D01*
X137112857Y-64710714D01*
X137350952Y-64710714D01*
X137446190Y-64663095D01*
X137493809Y-64615476D01*
X137541428Y-64520238D01*
X137541428Y-64329761D01*
X137493809Y-64234523D01*
X137446190Y-64186904D01*
X137350952Y-64139285D01*
X135422380Y-57866666D02*
X134946190Y-58200000D01*
X135422380Y-58438095D02*
X134422380Y-58438095D01*
X134422380Y-58057142D01*
X134470000Y-57961904D01*
X134517619Y-57914285D01*
X134612857Y-57866666D01*
X134755714Y-57866666D01*
X134850952Y-57914285D01*
X134898571Y-57961904D01*
X134946190Y-58057142D01*
X134946190Y-58438095D01*
X134850952Y-57295238D02*
X134803333Y-57390476D01*
X134755714Y-57438095D01*
X134660476Y-57485714D01*
X134612857Y-57485714D01*
X134517619Y-57438095D01*
X134470000Y-57390476D01*
X134422380Y-57295238D01*
X134422380Y-57104761D01*
X134470000Y-57009523D01*
X134517619Y-56961904D01*
X134612857Y-56914285D01*
X134660476Y-56914285D01*
X134755714Y-56961904D01*
X134803333Y-57009523D01*
X134850952Y-57104761D01*
X134850952Y-57295238D01*
X134898571Y-57390476D01*
X134946190Y-57438095D01*
X135041428Y-57485714D01*
X135231904Y-57485714D01*
X135327142Y-57438095D01*
X135374761Y-57390476D01*
X135422380Y-57295238D01*
X135422380Y-57104761D01*
X135374761Y-57009523D01*
X135327142Y-56961904D01*
X135231904Y-56914285D01*
X135041428Y-56914285D01*
X134946190Y-56961904D01*
X134898571Y-57009523D01*
X134850952Y-57104761D01*
X136422380Y-61791666D02*
X135946190Y-62125000D01*
X136422380Y-62363095D02*
X135422380Y-62363095D01*
X135422380Y-61982142D01*
X135470000Y-61886904D01*
X135517619Y-61839285D01*
X135612857Y-61791666D01*
X135755714Y-61791666D01*
X135850952Y-61839285D01*
X135898571Y-61886904D01*
X135946190Y-61982142D01*
X135946190Y-62363095D01*
X135422380Y-61458333D02*
X135422380Y-60791666D01*
X136422380Y-61220238D01*
X132422380Y-57841666D02*
X131946190Y-58175000D01*
X132422380Y-58413095D02*
X131422380Y-58413095D01*
X131422380Y-58032142D01*
X131470000Y-57936904D01*
X131517619Y-57889285D01*
X131612857Y-57841666D01*
X131755714Y-57841666D01*
X131850952Y-57889285D01*
X131898571Y-57936904D01*
X131946190Y-58032142D01*
X131946190Y-58413095D01*
X131422380Y-56984523D02*
X131422380Y-57175000D01*
X131470000Y-57270238D01*
X131517619Y-57317857D01*
X131660476Y-57413095D01*
X131850952Y-57460714D01*
X132231904Y-57460714D01*
X132327142Y-57413095D01*
X132374761Y-57365476D01*
X132422380Y-57270238D01*
X132422380Y-57079761D01*
X132374761Y-56984523D01*
X132327142Y-56936904D01*
X132231904Y-56889285D01*
X131993809Y-56889285D01*
X131898571Y-56936904D01*
X131850952Y-56984523D01*
X131803333Y-57079761D01*
X131803333Y-57270238D01*
X131850952Y-57365476D01*
X131898571Y-57413095D01*
X131993809Y-57460714D01*
X131882380Y-60166666D02*
X131406190Y-60500000D01*
X131882380Y-60738095D02*
X130882380Y-60738095D01*
X130882380Y-60357142D01*
X130930000Y-60261904D01*
X130977619Y-60214285D01*
X131072857Y-60166666D01*
X131215714Y-60166666D01*
X131310952Y-60214285D01*
X131358571Y-60261904D01*
X131406190Y-60357142D01*
X131406190Y-60738095D01*
X130882380Y-59261904D02*
X130882380Y-59738095D01*
X131358571Y-59785714D01*
X131310952Y-59738095D01*
X131263333Y-59642857D01*
X131263333Y-59404761D01*
X131310952Y-59309523D01*
X131358571Y-59261904D01*
X131453809Y-59214285D01*
X131691904Y-59214285D01*
X131787142Y-59261904D01*
X131834761Y-59309523D01*
X131882380Y-59404761D01*
X131882380Y-59642857D01*
X131834761Y-59738095D01*
X131787142Y-59785714D01*
X128408333Y-67952380D02*
X128075000Y-67476190D01*
X127836904Y-67952380D02*
X127836904Y-66952380D01*
X128217857Y-66952380D01*
X128313095Y-67000000D01*
X128360714Y-67047619D01*
X128408333Y-67142857D01*
X128408333Y-67285714D01*
X128360714Y-67380952D01*
X128313095Y-67428571D01*
X128217857Y-67476190D01*
X127836904Y-67476190D01*
X128789285Y-67047619D02*
X128836904Y-67000000D01*
X128932142Y-66952380D01*
X129170238Y-66952380D01*
X129265476Y-67000000D01*
X129313095Y-67047619D01*
X129360714Y-67142857D01*
X129360714Y-67238095D01*
X129313095Y-67380952D01*
X128741666Y-67952380D01*
X129360714Y-67952380D01*
X124502380Y-70341666D02*
X124026190Y-70675000D01*
X124502380Y-70913095D02*
X123502380Y-70913095D01*
X123502380Y-70532142D01*
X123550000Y-70436904D01*
X123597619Y-70389285D01*
X123692857Y-70341666D01*
X123835714Y-70341666D01*
X123930952Y-70389285D01*
X123978571Y-70436904D01*
X124026190Y-70532142D01*
X124026190Y-70913095D01*
X124502380Y-69389285D02*
X124502380Y-69960714D01*
X124502380Y-69675000D02*
X123502380Y-69675000D01*
X123645238Y-69770238D01*
X123740476Y-69865476D01*
X123788095Y-69960714D01*
X122566666Y-74532380D02*
X122566666Y-75246666D01*
X122519047Y-75389523D01*
X122423809Y-75484761D01*
X122280952Y-75532380D01*
X122185714Y-75532380D01*
X123566666Y-75532380D02*
X122995238Y-75532380D01*
X123280952Y-75532380D02*
X123280952Y-74532380D01*
X123185714Y-74675238D01*
X123090476Y-74770476D01*
X122995238Y-74818095D01*
D13*
X134476523Y-64977761D02*
X133206523Y-64977761D01*
X134355571Y-63647285D02*
X134416047Y-63707761D01*
X134476523Y-63889190D01*
X134476523Y-64010142D01*
X134416047Y-64191571D01*
X134295095Y-64312523D01*
X134174142Y-64373000D01*
X133932238Y-64433476D01*
X133750809Y-64433476D01*
X133508904Y-64373000D01*
X133387952Y-64312523D01*
X133267000Y-64191571D01*
X133206523Y-64010142D01*
X133206523Y-63889190D01*
X133267000Y-63707761D01*
X133327476Y-63647285D01*
X134476523Y-62437761D02*
X134476523Y-63163476D01*
X134476523Y-62800619D02*
X133206523Y-62800619D01*
X133387952Y-62921571D01*
X133508904Y-63042523D01*
X133569380Y-63163476D01*
D12*
X133252380Y-74748095D02*
X132252380Y-74748095D01*
X132252380Y-74510000D01*
X132300000Y-74367142D01*
X132395238Y-74271904D01*
X132490476Y-74224285D01*
X132680952Y-74176666D01*
X132823809Y-74176666D01*
X133014285Y-74224285D01*
X133109523Y-74271904D01*
X133204761Y-74367142D01*
X133252380Y-74510000D01*
X133252380Y-74748095D01*
X132252380Y-73843333D02*
X132252380Y-73224285D01*
X132633333Y-73557619D01*
X132633333Y-73414761D01*
X132680952Y-73319523D01*
X132728571Y-73271904D01*
X132823809Y-73224285D01*
X133061904Y-73224285D01*
X133157142Y-73271904D01*
X133204761Y-73319523D01*
X133252380Y-73414761D01*
X133252380Y-73700476D01*
X133204761Y-73795714D01*
X133157142Y-73843333D01*
X137752380Y-74748095D02*
X136752380Y-74748095D01*
X136752380Y-74510000D01*
X136800000Y-74367142D01*
X136895238Y-74271904D01*
X136990476Y-74224285D01*
X137180952Y-74176666D01*
X137323809Y-74176666D01*
X137514285Y-74224285D01*
X137609523Y-74271904D01*
X137704761Y-74367142D01*
X137752380Y-74510000D01*
X137752380Y-74748095D01*
X136847619Y-73795714D02*
X136800000Y-73748095D01*
X136752380Y-73652857D01*
X136752380Y-73414761D01*
X136800000Y-73319523D01*
X136847619Y-73271904D01*
X136942857Y-73224285D01*
X137038095Y-73224285D01*
X137180952Y-73271904D01*
X137752380Y-73843333D01*
X137752380Y-73224285D01*
X142252380Y-74748095D02*
X141252380Y-74748095D01*
X141252380Y-74510000D01*
X141300000Y-74367142D01*
X141395238Y-74271904D01*
X141490476Y-74224285D01*
X141680952Y-74176666D01*
X141823809Y-74176666D01*
X142014285Y-74224285D01*
X142109523Y-74271904D01*
X142204761Y-74367142D01*
X142252380Y-74510000D01*
X142252380Y-74748095D01*
X142252380Y-73224285D02*
X142252380Y-73795714D01*
X142252380Y-73510000D02*
X141252380Y-73510000D01*
X141395238Y-73605238D01*
X141490476Y-73700476D01*
X141538095Y-73795714D01*
X151282142Y-69577142D02*
X151234523Y-69624761D01*
X151091666Y-69672380D01*
X150996428Y-69672380D01*
X150853571Y-69624761D01*
X150758333Y-69529523D01*
X150710714Y-69434285D01*
X150663095Y-69243809D01*
X150663095Y-69100952D01*
X150710714Y-68910476D01*
X150758333Y-68815238D01*
X150853571Y-68720000D01*
X150996428Y-68672380D01*
X151091666Y-68672380D01*
X151234523Y-68720000D01*
X151282142Y-68767619D01*
X152234523Y-69672380D02*
X151663095Y-69672380D01*
X151948809Y-69672380D02*
X151948809Y-68672380D01*
X151853571Y-68815238D01*
X151758333Y-68910476D01*
X151663095Y-68958095D01*
X153139285Y-68672380D02*
X152663095Y-68672380D01*
X152615476Y-69148571D01*
X152663095Y-69100952D01*
X152758333Y-69053333D01*
X152996428Y-69053333D01*
X153091666Y-69100952D01*
X153139285Y-69148571D01*
X153186904Y-69243809D01*
X153186904Y-69481904D01*
X153139285Y-69577142D01*
X153091666Y-69624761D01*
X152996428Y-69672380D01*
X152758333Y-69672380D01*
X152663095Y-69624761D01*
X152615476Y-69577142D01*
X139302142Y-63842857D02*
X139349761Y-63890476D01*
X139397380Y-64033333D01*
X139397380Y-64128571D01*
X139349761Y-64271428D01*
X139254523Y-64366666D01*
X139159285Y-64414285D01*
X138968809Y-64461904D01*
X138825952Y-64461904D01*
X138635476Y-64414285D01*
X138540238Y-64366666D01*
X138445000Y-64271428D01*
X138397380Y-64128571D01*
X138397380Y-64033333D01*
X138445000Y-63890476D01*
X138492619Y-63842857D01*
X139397380Y-62890476D02*
X139397380Y-63461904D01*
X139397380Y-63176190D02*
X138397380Y-63176190D01*
X138540238Y-63271428D01*
X138635476Y-63366666D01*
X138683095Y-63461904D01*
X138730714Y-62033333D02*
X139397380Y-62033333D01*
X138349761Y-62271428D02*
X139064047Y-62509523D01*
X139064047Y-61890476D01*
X136687142Y-58342857D02*
X136734761Y-58390476D01*
X136782380Y-58533333D01*
X136782380Y-58628571D01*
X136734761Y-58771428D01*
X136639523Y-58866666D01*
X136544285Y-58914285D01*
X136353809Y-58961904D01*
X136210952Y-58961904D01*
X136020476Y-58914285D01*
X135925238Y-58866666D01*
X135830000Y-58771428D01*
X135782380Y-58628571D01*
X135782380Y-58533333D01*
X135830000Y-58390476D01*
X135877619Y-58342857D01*
X136782380Y-57390476D02*
X136782380Y-57961904D01*
X136782380Y-57676190D02*
X135782380Y-57676190D01*
X135925238Y-57771428D01*
X136020476Y-57866666D01*
X136068095Y-57961904D01*
X135782380Y-57057142D02*
X135782380Y-56438095D01*
X136163333Y-56771428D01*
X136163333Y-56628571D01*
X136210952Y-56533333D01*
X136258571Y-56485714D01*
X136353809Y-56438095D01*
X136591904Y-56438095D01*
X136687142Y-56485714D01*
X136734761Y-56533333D01*
X136782380Y-56628571D01*
X136782380Y-56914285D01*
X136734761Y-57009523D01*
X136687142Y-57057142D01*
X137827142Y-62242857D02*
X137874761Y-62290476D01*
X137922380Y-62433333D01*
X137922380Y-62528571D01*
X137874761Y-62671428D01*
X137779523Y-62766666D01*
X137684285Y-62814285D01*
X137493809Y-62861904D01*
X137350952Y-62861904D01*
X137160476Y-62814285D01*
X137065238Y-62766666D01*
X136970000Y-62671428D01*
X136922380Y-62528571D01*
X136922380Y-62433333D01*
X136970000Y-62290476D01*
X137017619Y-62242857D01*
X137922380Y-61290476D02*
X137922380Y-61861904D01*
X137922380Y-61576190D02*
X136922380Y-61576190D01*
X137065238Y-61671428D01*
X137160476Y-61766666D01*
X137208095Y-61861904D01*
X137017619Y-60909523D02*
X136970000Y-60861904D01*
X136922380Y-60766666D01*
X136922380Y-60528571D01*
X136970000Y-60433333D01*
X137017619Y-60385714D01*
X137112857Y-60338095D01*
X137208095Y-60338095D01*
X137350952Y-60385714D01*
X137922380Y-60957142D01*
X137922380Y-60338095D01*
X130827142Y-58342857D02*
X130874761Y-58390476D01*
X130922380Y-58533333D01*
X130922380Y-58628571D01*
X130874761Y-58771428D01*
X130779523Y-58866666D01*
X130684285Y-58914285D01*
X130493809Y-58961904D01*
X130350952Y-58961904D01*
X130160476Y-58914285D01*
X130065238Y-58866666D01*
X129970000Y-58771428D01*
X129922380Y-58628571D01*
X129922380Y-58533333D01*
X129970000Y-58390476D01*
X130017619Y-58342857D01*
X130922380Y-57390476D02*
X130922380Y-57961904D01*
X130922380Y-57676190D02*
X129922380Y-57676190D01*
X130065238Y-57771428D01*
X130160476Y-57866666D01*
X130208095Y-57961904D01*
X130922380Y-56438095D02*
X130922380Y-57009523D01*
X130922380Y-56723809D02*
X129922380Y-56723809D01*
X130065238Y-56819047D01*
X130160476Y-56914285D01*
X130208095Y-57009523D01*
X138183333Y-69137142D02*
X138135714Y-69184761D01*
X137992857Y-69232380D01*
X137897619Y-69232380D01*
X137754761Y-69184761D01*
X137659523Y-69089523D01*
X137611904Y-68994285D01*
X137564285Y-68803809D01*
X137564285Y-68660952D01*
X137611904Y-68470476D01*
X137659523Y-68375238D01*
X137754761Y-68280000D01*
X137897619Y-68232380D01*
X137992857Y-68232380D01*
X138135714Y-68280000D01*
X138183333Y-68327619D01*
X138659523Y-69232380D02*
X138850000Y-69232380D01*
X138945238Y-69184761D01*
X138992857Y-69137142D01*
X139088095Y-68994285D01*
X139135714Y-68803809D01*
X139135714Y-68422857D01*
X139088095Y-68327619D01*
X139040476Y-68280000D01*
X138945238Y-68232380D01*
X138754761Y-68232380D01*
X138659523Y-68280000D01*
X138611904Y-68327619D01*
X138564285Y-68422857D01*
X138564285Y-68660952D01*
X138611904Y-68756190D01*
X138659523Y-68803809D01*
X138754761Y-68851428D01*
X138945238Y-68851428D01*
X139040476Y-68803809D01*
X139088095Y-68756190D01*
X139135714Y-68660952D01*
X133083333Y-71137142D02*
X133035714Y-71184761D01*
X132892857Y-71232380D01*
X132797619Y-71232380D01*
X132654761Y-71184761D01*
X132559523Y-71089523D01*
X132511904Y-70994285D01*
X132464285Y-70803809D01*
X132464285Y-70660952D01*
X132511904Y-70470476D01*
X132559523Y-70375238D01*
X132654761Y-70280000D01*
X132797619Y-70232380D01*
X132892857Y-70232380D01*
X133035714Y-70280000D01*
X133083333Y-70327619D01*
X133940476Y-70232380D02*
X133750000Y-70232380D01*
X133654761Y-70280000D01*
X133607142Y-70327619D01*
X133511904Y-70470476D01*
X133464285Y-70660952D01*
X133464285Y-71041904D01*
X133511904Y-71137142D01*
X133559523Y-71184761D01*
X133654761Y-71232380D01*
X133845238Y-71232380D01*
X133940476Y-71184761D01*
X133988095Y-71137142D01*
X134035714Y-71041904D01*
X134035714Y-70803809D01*
X133988095Y-70708571D01*
X133940476Y-70660952D01*
X133845238Y-70613333D01*
X133654761Y-70613333D01*
X133559523Y-70660952D01*
X133511904Y-70708571D01*
X133464285Y-70803809D01*
X126508333Y-69137142D02*
X126460714Y-69184761D01*
X126317857Y-69232380D01*
X126222619Y-69232380D01*
X126079761Y-69184761D01*
X125984523Y-69089523D01*
X125936904Y-68994285D01*
X125889285Y-68803809D01*
X125889285Y-68660952D01*
X125936904Y-68470476D01*
X125984523Y-68375238D01*
X126079761Y-68280000D01*
X126222619Y-68232380D01*
X126317857Y-68232380D01*
X126460714Y-68280000D01*
X126508333Y-68327619D01*
X126841666Y-68232380D02*
X127460714Y-68232380D01*
X127127380Y-68613333D01*
X127270238Y-68613333D01*
X127365476Y-68660952D01*
X127413095Y-68708571D01*
X127460714Y-68803809D01*
X127460714Y-69041904D01*
X127413095Y-69137142D01*
X127365476Y-69184761D01*
X127270238Y-69232380D01*
X126984523Y-69232380D01*
X126889285Y-69184761D01*
X126841666Y-69137142D01*
X146283333Y-62627142D02*
X146235714Y-62674761D01*
X146092857Y-62722380D01*
X145997619Y-62722380D01*
X145854761Y-62674761D01*
X145759523Y-62579523D01*
X145711904Y-62484285D01*
X145664285Y-62293809D01*
X145664285Y-62150952D01*
X145711904Y-61960476D01*
X145759523Y-61865238D01*
X145854761Y-61770000D01*
X145997619Y-61722380D01*
X146092857Y-61722380D01*
X146235714Y-61770000D01*
X146283333Y-61817619D01*
X146664285Y-61817619D02*
X146711904Y-61770000D01*
X146807142Y-61722380D01*
X147045238Y-61722380D01*
X147140476Y-61770000D01*
X147188095Y-61817619D01*
X147235714Y-61912857D01*
X147235714Y-62008095D01*
X147188095Y-62150952D01*
X146616666Y-62722380D01*
X147235714Y-62722380D01*
M02*
