G04 #@! TF.GenerationSoftware,KiCad,Pcbnew,5.1.5+dfsg1-2build2*
G04 #@! TF.CreationDate,2021-10-19T23:33:07+01:00*
G04 #@! TF.ProjectId,radiation_sensor,72616469-6174-4696-9f6e-5f73656e736f,rev?*
G04 #@! TF.SameCoordinates,Original*
G04 #@! TF.FileFunction,Copper,L2,Bot*
G04 #@! TF.FilePolarity,Positive*
%FSLAX46Y46*%
G04 Gerber Fmt 4.6, Leading zero omitted, Abs format (unit mm)*
G04 Created by KiCad (PCBNEW 5.1.5+dfsg1-2build2) date 2021-10-19 23:33:07*
%MOMM*%
%LPD*%
G04 APERTURE LIST*
%ADD10C,1.440000*%
%ADD11C,0.100000*%
%ADD12O,1.700000X1.700000*%
%ADD13R,1.700000X1.700000*%
%ADD14C,0.800000*%
%ADD15C,0.600000*%
%ADD16C,1.400000*%
%ADD17C,0.300000*%
%ADD18C,0.500000*%
%ADD19C,1.000000*%
%ADD20C,0.250000*%
%ADD21C,0.254000*%
G04 APERTURE END LIST*
D10*
X145970000Y-73750000D03*
X148510000Y-73750000D03*
X151050000Y-73750000D03*
G04 #@! TA.AperFunction,SMDPad,CuDef*
D11*
G36*
X132649505Y-63251204D02*
G01*
X132673773Y-63254804D01*
X132697572Y-63260765D01*
X132720671Y-63269030D01*
X132742850Y-63279520D01*
X132763893Y-63292132D01*
X132783599Y-63306747D01*
X132801777Y-63323223D01*
X132818253Y-63341401D01*
X132832868Y-63361107D01*
X132845480Y-63382150D01*
X132855970Y-63404329D01*
X132864235Y-63427428D01*
X132870196Y-63451227D01*
X132873796Y-63475495D01*
X132875000Y-63499999D01*
X132875000Y-64400001D01*
X132873796Y-64424505D01*
X132870196Y-64448773D01*
X132864235Y-64472572D01*
X132855970Y-64495671D01*
X132845480Y-64517850D01*
X132832868Y-64538893D01*
X132818253Y-64558599D01*
X132801777Y-64576777D01*
X132783599Y-64593253D01*
X132763893Y-64607868D01*
X132742850Y-64620480D01*
X132720671Y-64630970D01*
X132697572Y-64639235D01*
X132673773Y-64645196D01*
X132649505Y-64648796D01*
X132625001Y-64650000D01*
X131974999Y-64650000D01*
X131950495Y-64648796D01*
X131926227Y-64645196D01*
X131902428Y-64639235D01*
X131879329Y-64630970D01*
X131857150Y-64620480D01*
X131836107Y-64607868D01*
X131816401Y-64593253D01*
X131798223Y-64576777D01*
X131781747Y-64558599D01*
X131767132Y-64538893D01*
X131754520Y-64517850D01*
X131744030Y-64495671D01*
X131735765Y-64472572D01*
X131729804Y-64448773D01*
X131726204Y-64424505D01*
X131725000Y-64400001D01*
X131725000Y-63499999D01*
X131726204Y-63475495D01*
X131729804Y-63451227D01*
X131735765Y-63427428D01*
X131744030Y-63404329D01*
X131754520Y-63382150D01*
X131767132Y-63361107D01*
X131781747Y-63341401D01*
X131798223Y-63323223D01*
X131816401Y-63306747D01*
X131836107Y-63292132D01*
X131857150Y-63279520D01*
X131879329Y-63269030D01*
X131902428Y-63260765D01*
X131926227Y-63254804D01*
X131950495Y-63251204D01*
X131974999Y-63250000D01*
X132625001Y-63250000D01*
X132649505Y-63251204D01*
G37*
G04 #@! TD.AperFunction*
G04 #@! TA.AperFunction,SMDPad,CuDef*
G36*
X130599505Y-63251204D02*
G01*
X130623773Y-63254804D01*
X130647572Y-63260765D01*
X130670671Y-63269030D01*
X130692850Y-63279520D01*
X130713893Y-63292132D01*
X130733599Y-63306747D01*
X130751777Y-63323223D01*
X130768253Y-63341401D01*
X130782868Y-63361107D01*
X130795480Y-63382150D01*
X130805970Y-63404329D01*
X130814235Y-63427428D01*
X130820196Y-63451227D01*
X130823796Y-63475495D01*
X130825000Y-63499999D01*
X130825000Y-64400001D01*
X130823796Y-64424505D01*
X130820196Y-64448773D01*
X130814235Y-64472572D01*
X130805970Y-64495671D01*
X130795480Y-64517850D01*
X130782868Y-64538893D01*
X130768253Y-64558599D01*
X130751777Y-64576777D01*
X130733599Y-64593253D01*
X130713893Y-64607868D01*
X130692850Y-64620480D01*
X130670671Y-64630970D01*
X130647572Y-64639235D01*
X130623773Y-64645196D01*
X130599505Y-64648796D01*
X130575001Y-64650000D01*
X129924999Y-64650000D01*
X129900495Y-64648796D01*
X129876227Y-64645196D01*
X129852428Y-64639235D01*
X129829329Y-64630970D01*
X129807150Y-64620480D01*
X129786107Y-64607868D01*
X129766401Y-64593253D01*
X129748223Y-64576777D01*
X129731747Y-64558599D01*
X129717132Y-64538893D01*
X129704520Y-64517850D01*
X129694030Y-64495671D01*
X129685765Y-64472572D01*
X129679804Y-64448773D01*
X129676204Y-64424505D01*
X129675000Y-64400001D01*
X129675000Y-63499999D01*
X129676204Y-63475495D01*
X129679804Y-63451227D01*
X129685765Y-63427428D01*
X129694030Y-63404329D01*
X129704520Y-63382150D01*
X129717132Y-63361107D01*
X129731747Y-63341401D01*
X129748223Y-63323223D01*
X129766401Y-63306747D01*
X129786107Y-63292132D01*
X129807150Y-63279520D01*
X129829329Y-63269030D01*
X129852428Y-63260765D01*
X129876227Y-63254804D01*
X129900495Y-63251204D01*
X129924999Y-63250000D01*
X130575001Y-63250000D01*
X130599505Y-63251204D01*
G37*
G04 #@! TD.AperFunction*
D12*
X122900000Y-65130000D03*
X122900000Y-67670000D03*
X122900000Y-70210000D03*
D13*
X122900000Y-72750000D03*
G04 #@! TA.AperFunction,SMDPad,CuDef*
D11*
G36*
X132560779Y-61651144D02*
G01*
X132583834Y-61654563D01*
X132606443Y-61660227D01*
X132628387Y-61668079D01*
X132649457Y-61678044D01*
X132669448Y-61690026D01*
X132688168Y-61703910D01*
X132705438Y-61719562D01*
X132721090Y-61736832D01*
X132734974Y-61755552D01*
X132746956Y-61775543D01*
X132756921Y-61796613D01*
X132764773Y-61818557D01*
X132770437Y-61841166D01*
X132773856Y-61864221D01*
X132775000Y-61887500D01*
X132775000Y-62462500D01*
X132773856Y-62485779D01*
X132770437Y-62508834D01*
X132764773Y-62531443D01*
X132756921Y-62553387D01*
X132746956Y-62574457D01*
X132734974Y-62594448D01*
X132721090Y-62613168D01*
X132705438Y-62630438D01*
X132688168Y-62646090D01*
X132669448Y-62659974D01*
X132649457Y-62671956D01*
X132628387Y-62681921D01*
X132606443Y-62689773D01*
X132583834Y-62695437D01*
X132560779Y-62698856D01*
X132537500Y-62700000D01*
X132062500Y-62700000D01*
X132039221Y-62698856D01*
X132016166Y-62695437D01*
X131993557Y-62689773D01*
X131971613Y-62681921D01*
X131950543Y-62671956D01*
X131930552Y-62659974D01*
X131911832Y-62646090D01*
X131894562Y-62630438D01*
X131878910Y-62613168D01*
X131865026Y-62594448D01*
X131853044Y-62574457D01*
X131843079Y-62553387D01*
X131835227Y-62531443D01*
X131829563Y-62508834D01*
X131826144Y-62485779D01*
X131825000Y-62462500D01*
X131825000Y-61887500D01*
X131826144Y-61864221D01*
X131829563Y-61841166D01*
X131835227Y-61818557D01*
X131843079Y-61796613D01*
X131853044Y-61775543D01*
X131865026Y-61755552D01*
X131878910Y-61736832D01*
X131894562Y-61719562D01*
X131911832Y-61703910D01*
X131930552Y-61690026D01*
X131950543Y-61678044D01*
X131971613Y-61668079D01*
X131993557Y-61660227D01*
X132016166Y-61654563D01*
X132039221Y-61651144D01*
X132062500Y-61650000D01*
X132537500Y-61650000D01*
X132560779Y-61651144D01*
G37*
G04 #@! TD.AperFunction*
G04 #@! TA.AperFunction,SMDPad,CuDef*
G36*
X132560779Y-59901144D02*
G01*
X132583834Y-59904563D01*
X132606443Y-59910227D01*
X132628387Y-59918079D01*
X132649457Y-59928044D01*
X132669448Y-59940026D01*
X132688168Y-59953910D01*
X132705438Y-59969562D01*
X132721090Y-59986832D01*
X132734974Y-60005552D01*
X132746956Y-60025543D01*
X132756921Y-60046613D01*
X132764773Y-60068557D01*
X132770437Y-60091166D01*
X132773856Y-60114221D01*
X132775000Y-60137500D01*
X132775000Y-60712500D01*
X132773856Y-60735779D01*
X132770437Y-60758834D01*
X132764773Y-60781443D01*
X132756921Y-60803387D01*
X132746956Y-60824457D01*
X132734974Y-60844448D01*
X132721090Y-60863168D01*
X132705438Y-60880438D01*
X132688168Y-60896090D01*
X132669448Y-60909974D01*
X132649457Y-60921956D01*
X132628387Y-60931921D01*
X132606443Y-60939773D01*
X132583834Y-60945437D01*
X132560779Y-60948856D01*
X132537500Y-60950000D01*
X132062500Y-60950000D01*
X132039221Y-60948856D01*
X132016166Y-60945437D01*
X131993557Y-60939773D01*
X131971613Y-60931921D01*
X131950543Y-60921956D01*
X131930552Y-60909974D01*
X131911832Y-60896090D01*
X131894562Y-60880438D01*
X131878910Y-60863168D01*
X131865026Y-60844448D01*
X131853044Y-60824457D01*
X131843079Y-60803387D01*
X131835227Y-60781443D01*
X131829563Y-60758834D01*
X131826144Y-60735779D01*
X131825000Y-60712500D01*
X131825000Y-60137500D01*
X131826144Y-60114221D01*
X131829563Y-60091166D01*
X131835227Y-60068557D01*
X131843079Y-60046613D01*
X131853044Y-60025543D01*
X131865026Y-60005552D01*
X131878910Y-59986832D01*
X131894562Y-59969562D01*
X131911832Y-59953910D01*
X131930552Y-59940026D01*
X131950543Y-59928044D01*
X131971613Y-59918079D01*
X131993557Y-59910227D01*
X132016166Y-59904563D01*
X132039221Y-59901144D01*
X132062500Y-59900000D01*
X132537500Y-59900000D01*
X132560779Y-59901144D01*
G37*
G04 #@! TD.AperFunction*
G04 #@! TA.AperFunction,SMDPad,CuDef*
G36*
X130260779Y-58801144D02*
G01*
X130283834Y-58804563D01*
X130306443Y-58810227D01*
X130328387Y-58818079D01*
X130349457Y-58828044D01*
X130369448Y-58840026D01*
X130388168Y-58853910D01*
X130405438Y-58869562D01*
X130421090Y-58886832D01*
X130434974Y-58905552D01*
X130446956Y-58925543D01*
X130456921Y-58946613D01*
X130464773Y-58968557D01*
X130470437Y-58991166D01*
X130473856Y-59014221D01*
X130475000Y-59037500D01*
X130475000Y-59612500D01*
X130473856Y-59635779D01*
X130470437Y-59658834D01*
X130464773Y-59681443D01*
X130456921Y-59703387D01*
X130446956Y-59724457D01*
X130434974Y-59744448D01*
X130421090Y-59763168D01*
X130405438Y-59780438D01*
X130388168Y-59796090D01*
X130369448Y-59809974D01*
X130349457Y-59821956D01*
X130328387Y-59831921D01*
X130306443Y-59839773D01*
X130283834Y-59845437D01*
X130260779Y-59848856D01*
X130237500Y-59850000D01*
X129762500Y-59850000D01*
X129739221Y-59848856D01*
X129716166Y-59845437D01*
X129693557Y-59839773D01*
X129671613Y-59831921D01*
X129650543Y-59821956D01*
X129630552Y-59809974D01*
X129611832Y-59796090D01*
X129594562Y-59780438D01*
X129578910Y-59763168D01*
X129565026Y-59744448D01*
X129553044Y-59724457D01*
X129543079Y-59703387D01*
X129535227Y-59681443D01*
X129529563Y-59658834D01*
X129526144Y-59635779D01*
X129525000Y-59612500D01*
X129525000Y-59037500D01*
X129526144Y-59014221D01*
X129529563Y-58991166D01*
X129535227Y-58968557D01*
X129543079Y-58946613D01*
X129553044Y-58925543D01*
X129565026Y-58905552D01*
X129578910Y-58886832D01*
X129594562Y-58869562D01*
X129611832Y-58853910D01*
X129630552Y-58840026D01*
X129650543Y-58828044D01*
X129671613Y-58818079D01*
X129693557Y-58810227D01*
X129716166Y-58804563D01*
X129739221Y-58801144D01*
X129762500Y-58800000D01*
X130237500Y-58800000D01*
X130260779Y-58801144D01*
G37*
G04 #@! TD.AperFunction*
G04 #@! TA.AperFunction,SMDPad,CuDef*
G36*
X130260779Y-60551144D02*
G01*
X130283834Y-60554563D01*
X130306443Y-60560227D01*
X130328387Y-60568079D01*
X130349457Y-60578044D01*
X130369448Y-60590026D01*
X130388168Y-60603910D01*
X130405438Y-60619562D01*
X130421090Y-60636832D01*
X130434974Y-60655552D01*
X130446956Y-60675543D01*
X130456921Y-60696613D01*
X130464773Y-60718557D01*
X130470437Y-60741166D01*
X130473856Y-60764221D01*
X130475000Y-60787500D01*
X130475000Y-61362500D01*
X130473856Y-61385779D01*
X130470437Y-61408834D01*
X130464773Y-61431443D01*
X130456921Y-61453387D01*
X130446956Y-61474457D01*
X130434974Y-61494448D01*
X130421090Y-61513168D01*
X130405438Y-61530438D01*
X130388168Y-61546090D01*
X130369448Y-61559974D01*
X130349457Y-61571956D01*
X130328387Y-61581921D01*
X130306443Y-61589773D01*
X130283834Y-61595437D01*
X130260779Y-61598856D01*
X130237500Y-61600000D01*
X129762500Y-61600000D01*
X129739221Y-61598856D01*
X129716166Y-61595437D01*
X129693557Y-61589773D01*
X129671613Y-61581921D01*
X129650543Y-61571956D01*
X129630552Y-61559974D01*
X129611832Y-61546090D01*
X129594562Y-61530438D01*
X129578910Y-61513168D01*
X129565026Y-61494448D01*
X129553044Y-61474457D01*
X129543079Y-61453387D01*
X129535227Y-61431443D01*
X129529563Y-61408834D01*
X129526144Y-61385779D01*
X129525000Y-61362500D01*
X129525000Y-60787500D01*
X129526144Y-60764221D01*
X129529563Y-60741166D01*
X129535227Y-60718557D01*
X129543079Y-60696613D01*
X129553044Y-60675543D01*
X129565026Y-60655552D01*
X129578910Y-60636832D01*
X129594562Y-60619562D01*
X129611832Y-60603910D01*
X129630552Y-60590026D01*
X129650543Y-60578044D01*
X129671613Y-60568079D01*
X129693557Y-60560227D01*
X129716166Y-60554563D01*
X129739221Y-60551144D01*
X129762500Y-60550000D01*
X130237500Y-60550000D01*
X130260779Y-60551144D01*
G37*
G04 #@! TD.AperFunction*
G04 #@! TA.AperFunction,SMDPad,CuDef*
G36*
X138949504Y-60501204D02*
G01*
X138973773Y-60504804D01*
X138997571Y-60510765D01*
X139020671Y-60519030D01*
X139042849Y-60529520D01*
X139063893Y-60542133D01*
X139083598Y-60556747D01*
X139101777Y-60573223D01*
X139118253Y-60591402D01*
X139132867Y-60611107D01*
X139145480Y-60632151D01*
X139155970Y-60654329D01*
X139164235Y-60677429D01*
X139170196Y-60701227D01*
X139173796Y-60725496D01*
X139175000Y-60750000D01*
X139175000Y-63650000D01*
X139173796Y-63674504D01*
X139170196Y-63698773D01*
X139164235Y-63722571D01*
X139155970Y-63745671D01*
X139145480Y-63767849D01*
X139132867Y-63788893D01*
X139118253Y-63808598D01*
X139101777Y-63826777D01*
X139083598Y-63843253D01*
X139063893Y-63857867D01*
X139042849Y-63870480D01*
X139020671Y-63880970D01*
X138997571Y-63889235D01*
X138973773Y-63895196D01*
X138949504Y-63898796D01*
X138925000Y-63900000D01*
X138125000Y-63900000D01*
X138100496Y-63898796D01*
X138076227Y-63895196D01*
X138052429Y-63889235D01*
X138029329Y-63880970D01*
X138007151Y-63870480D01*
X137986107Y-63857867D01*
X137966402Y-63843253D01*
X137948223Y-63826777D01*
X137931747Y-63808598D01*
X137917133Y-63788893D01*
X137904520Y-63767849D01*
X137894030Y-63745671D01*
X137885765Y-63722571D01*
X137879804Y-63698773D01*
X137876204Y-63674504D01*
X137875000Y-63650000D01*
X137875000Y-60750000D01*
X137876204Y-60725496D01*
X137879804Y-60701227D01*
X137885765Y-60677429D01*
X137894030Y-60654329D01*
X137904520Y-60632151D01*
X137917133Y-60611107D01*
X137931747Y-60591402D01*
X137948223Y-60573223D01*
X137966402Y-60556747D01*
X137986107Y-60542133D01*
X138007151Y-60529520D01*
X138029329Y-60519030D01*
X138052429Y-60510765D01*
X138076227Y-60504804D01*
X138100496Y-60501204D01*
X138125000Y-60500000D01*
X138925000Y-60500000D01*
X138949504Y-60501204D01*
G37*
G04 #@! TD.AperFunction*
G04 #@! TA.AperFunction,SMDPad,CuDef*
G36*
X134499504Y-60501204D02*
G01*
X134523773Y-60504804D01*
X134547571Y-60510765D01*
X134570671Y-60519030D01*
X134592849Y-60529520D01*
X134613893Y-60542133D01*
X134633598Y-60556747D01*
X134651777Y-60573223D01*
X134668253Y-60591402D01*
X134682867Y-60611107D01*
X134695480Y-60632151D01*
X134705970Y-60654329D01*
X134714235Y-60677429D01*
X134720196Y-60701227D01*
X134723796Y-60725496D01*
X134725000Y-60750000D01*
X134725000Y-63650000D01*
X134723796Y-63674504D01*
X134720196Y-63698773D01*
X134714235Y-63722571D01*
X134705970Y-63745671D01*
X134695480Y-63767849D01*
X134682867Y-63788893D01*
X134668253Y-63808598D01*
X134651777Y-63826777D01*
X134633598Y-63843253D01*
X134613893Y-63857867D01*
X134592849Y-63870480D01*
X134570671Y-63880970D01*
X134547571Y-63889235D01*
X134523773Y-63895196D01*
X134499504Y-63898796D01*
X134475000Y-63900000D01*
X133675000Y-63900000D01*
X133650496Y-63898796D01*
X133626227Y-63895196D01*
X133602429Y-63889235D01*
X133579329Y-63880970D01*
X133557151Y-63870480D01*
X133536107Y-63857867D01*
X133516402Y-63843253D01*
X133498223Y-63826777D01*
X133481747Y-63808598D01*
X133467133Y-63788893D01*
X133454520Y-63767849D01*
X133444030Y-63745671D01*
X133435765Y-63722571D01*
X133429804Y-63698773D01*
X133426204Y-63674504D01*
X133425000Y-63650000D01*
X133425000Y-60750000D01*
X133426204Y-60725496D01*
X133429804Y-60701227D01*
X133435765Y-60677429D01*
X133444030Y-60654329D01*
X133454520Y-60632151D01*
X133467133Y-60611107D01*
X133481747Y-60591402D01*
X133498223Y-60573223D01*
X133516402Y-60556747D01*
X133536107Y-60542133D01*
X133557151Y-60529520D01*
X133579329Y-60519030D01*
X133602429Y-60510765D01*
X133626227Y-60504804D01*
X133650496Y-60501204D01*
X133675000Y-60500000D01*
X134475000Y-60500000D01*
X134499504Y-60501204D01*
G37*
G04 #@! TD.AperFunction*
G04 #@! TA.AperFunction,SMDPad,CuDef*
G36*
X133885779Y-67676144D02*
G01*
X133908834Y-67679563D01*
X133931443Y-67685227D01*
X133953387Y-67693079D01*
X133974457Y-67703044D01*
X133994448Y-67715026D01*
X134013168Y-67728910D01*
X134030438Y-67744562D01*
X134046090Y-67761832D01*
X134059974Y-67780552D01*
X134071956Y-67800543D01*
X134081921Y-67821613D01*
X134089773Y-67843557D01*
X134095437Y-67866166D01*
X134098856Y-67889221D01*
X134100000Y-67912500D01*
X134100000Y-68387500D01*
X134098856Y-68410779D01*
X134095437Y-68433834D01*
X134089773Y-68456443D01*
X134081921Y-68478387D01*
X134071956Y-68499457D01*
X134059974Y-68519448D01*
X134046090Y-68538168D01*
X134030438Y-68555438D01*
X134013168Y-68571090D01*
X133994448Y-68584974D01*
X133974457Y-68596956D01*
X133953387Y-68606921D01*
X133931443Y-68614773D01*
X133908834Y-68620437D01*
X133885779Y-68623856D01*
X133862500Y-68625000D01*
X133287500Y-68625000D01*
X133264221Y-68623856D01*
X133241166Y-68620437D01*
X133218557Y-68614773D01*
X133196613Y-68606921D01*
X133175543Y-68596956D01*
X133155552Y-68584974D01*
X133136832Y-68571090D01*
X133119562Y-68555438D01*
X133103910Y-68538168D01*
X133090026Y-68519448D01*
X133078044Y-68499457D01*
X133068079Y-68478387D01*
X133060227Y-68456443D01*
X133054563Y-68433834D01*
X133051144Y-68410779D01*
X133050000Y-68387500D01*
X133050000Y-67912500D01*
X133051144Y-67889221D01*
X133054563Y-67866166D01*
X133060227Y-67843557D01*
X133068079Y-67821613D01*
X133078044Y-67800543D01*
X133090026Y-67780552D01*
X133103910Y-67761832D01*
X133119562Y-67744562D01*
X133136832Y-67728910D01*
X133155552Y-67715026D01*
X133175543Y-67703044D01*
X133196613Y-67693079D01*
X133218557Y-67685227D01*
X133241166Y-67679563D01*
X133264221Y-67676144D01*
X133287500Y-67675000D01*
X133862500Y-67675000D01*
X133885779Y-67676144D01*
G37*
G04 #@! TD.AperFunction*
G04 #@! TA.AperFunction,SMDPad,CuDef*
G36*
X135635779Y-67676144D02*
G01*
X135658834Y-67679563D01*
X135681443Y-67685227D01*
X135703387Y-67693079D01*
X135724457Y-67703044D01*
X135744448Y-67715026D01*
X135763168Y-67728910D01*
X135780438Y-67744562D01*
X135796090Y-67761832D01*
X135809974Y-67780552D01*
X135821956Y-67800543D01*
X135831921Y-67821613D01*
X135839773Y-67843557D01*
X135845437Y-67866166D01*
X135848856Y-67889221D01*
X135850000Y-67912500D01*
X135850000Y-68387500D01*
X135848856Y-68410779D01*
X135845437Y-68433834D01*
X135839773Y-68456443D01*
X135831921Y-68478387D01*
X135821956Y-68499457D01*
X135809974Y-68519448D01*
X135796090Y-68538168D01*
X135780438Y-68555438D01*
X135763168Y-68571090D01*
X135744448Y-68584974D01*
X135724457Y-68596956D01*
X135703387Y-68606921D01*
X135681443Y-68614773D01*
X135658834Y-68620437D01*
X135635779Y-68623856D01*
X135612500Y-68625000D01*
X135037500Y-68625000D01*
X135014221Y-68623856D01*
X134991166Y-68620437D01*
X134968557Y-68614773D01*
X134946613Y-68606921D01*
X134925543Y-68596956D01*
X134905552Y-68584974D01*
X134886832Y-68571090D01*
X134869562Y-68555438D01*
X134853910Y-68538168D01*
X134840026Y-68519448D01*
X134828044Y-68499457D01*
X134818079Y-68478387D01*
X134810227Y-68456443D01*
X134804563Y-68433834D01*
X134801144Y-68410779D01*
X134800000Y-68387500D01*
X134800000Y-67912500D01*
X134801144Y-67889221D01*
X134804563Y-67866166D01*
X134810227Y-67843557D01*
X134818079Y-67821613D01*
X134828044Y-67800543D01*
X134840026Y-67780552D01*
X134853910Y-67761832D01*
X134869562Y-67744562D01*
X134886832Y-67728910D01*
X134905552Y-67715026D01*
X134925543Y-67703044D01*
X134946613Y-67693079D01*
X134968557Y-67685227D01*
X134991166Y-67679563D01*
X135014221Y-67676144D01*
X135037500Y-67675000D01*
X135612500Y-67675000D01*
X135635779Y-67676144D01*
G37*
G04 #@! TD.AperFunction*
G04 #@! TA.AperFunction,SMDPad,CuDef*
G36*
X133885779Y-69176144D02*
G01*
X133908834Y-69179563D01*
X133931443Y-69185227D01*
X133953387Y-69193079D01*
X133974457Y-69203044D01*
X133994448Y-69215026D01*
X134013168Y-69228910D01*
X134030438Y-69244562D01*
X134046090Y-69261832D01*
X134059974Y-69280552D01*
X134071956Y-69300543D01*
X134081921Y-69321613D01*
X134089773Y-69343557D01*
X134095437Y-69366166D01*
X134098856Y-69389221D01*
X134100000Y-69412500D01*
X134100000Y-69887500D01*
X134098856Y-69910779D01*
X134095437Y-69933834D01*
X134089773Y-69956443D01*
X134081921Y-69978387D01*
X134071956Y-69999457D01*
X134059974Y-70019448D01*
X134046090Y-70038168D01*
X134030438Y-70055438D01*
X134013168Y-70071090D01*
X133994448Y-70084974D01*
X133974457Y-70096956D01*
X133953387Y-70106921D01*
X133931443Y-70114773D01*
X133908834Y-70120437D01*
X133885779Y-70123856D01*
X133862500Y-70125000D01*
X133287500Y-70125000D01*
X133264221Y-70123856D01*
X133241166Y-70120437D01*
X133218557Y-70114773D01*
X133196613Y-70106921D01*
X133175543Y-70096956D01*
X133155552Y-70084974D01*
X133136832Y-70071090D01*
X133119562Y-70055438D01*
X133103910Y-70038168D01*
X133090026Y-70019448D01*
X133078044Y-69999457D01*
X133068079Y-69978387D01*
X133060227Y-69956443D01*
X133054563Y-69933834D01*
X133051144Y-69910779D01*
X133050000Y-69887500D01*
X133050000Y-69412500D01*
X133051144Y-69389221D01*
X133054563Y-69366166D01*
X133060227Y-69343557D01*
X133068079Y-69321613D01*
X133078044Y-69300543D01*
X133090026Y-69280552D01*
X133103910Y-69261832D01*
X133119562Y-69244562D01*
X133136832Y-69228910D01*
X133155552Y-69215026D01*
X133175543Y-69203044D01*
X133196613Y-69193079D01*
X133218557Y-69185227D01*
X133241166Y-69179563D01*
X133264221Y-69176144D01*
X133287500Y-69175000D01*
X133862500Y-69175000D01*
X133885779Y-69176144D01*
G37*
G04 #@! TD.AperFunction*
G04 #@! TA.AperFunction,SMDPad,CuDef*
G36*
X135635779Y-69176144D02*
G01*
X135658834Y-69179563D01*
X135681443Y-69185227D01*
X135703387Y-69193079D01*
X135724457Y-69203044D01*
X135744448Y-69215026D01*
X135763168Y-69228910D01*
X135780438Y-69244562D01*
X135796090Y-69261832D01*
X135809974Y-69280552D01*
X135821956Y-69300543D01*
X135831921Y-69321613D01*
X135839773Y-69343557D01*
X135845437Y-69366166D01*
X135848856Y-69389221D01*
X135850000Y-69412500D01*
X135850000Y-69887500D01*
X135848856Y-69910779D01*
X135845437Y-69933834D01*
X135839773Y-69956443D01*
X135831921Y-69978387D01*
X135821956Y-69999457D01*
X135809974Y-70019448D01*
X135796090Y-70038168D01*
X135780438Y-70055438D01*
X135763168Y-70071090D01*
X135744448Y-70084974D01*
X135724457Y-70096956D01*
X135703387Y-70106921D01*
X135681443Y-70114773D01*
X135658834Y-70120437D01*
X135635779Y-70123856D01*
X135612500Y-70125000D01*
X135037500Y-70125000D01*
X135014221Y-70123856D01*
X134991166Y-70120437D01*
X134968557Y-70114773D01*
X134946613Y-70106921D01*
X134925543Y-70096956D01*
X134905552Y-70084974D01*
X134886832Y-70071090D01*
X134869562Y-70055438D01*
X134853910Y-70038168D01*
X134840026Y-70019448D01*
X134828044Y-69999457D01*
X134818079Y-69978387D01*
X134810227Y-69956443D01*
X134804563Y-69933834D01*
X134801144Y-69910779D01*
X134800000Y-69887500D01*
X134800000Y-69412500D01*
X134801144Y-69389221D01*
X134804563Y-69366166D01*
X134810227Y-69343557D01*
X134818079Y-69321613D01*
X134828044Y-69300543D01*
X134840026Y-69280552D01*
X134853910Y-69261832D01*
X134869562Y-69244562D01*
X134886832Y-69228910D01*
X134905552Y-69215026D01*
X134925543Y-69203044D01*
X134946613Y-69193079D01*
X134968557Y-69185227D01*
X134991166Y-69179563D01*
X135014221Y-69176144D01*
X135037500Y-69175000D01*
X135612500Y-69175000D01*
X135635779Y-69176144D01*
G37*
G04 #@! TD.AperFunction*
D14*
X133585199Y-67644117D03*
X150100000Y-67400000D03*
X150300000Y-72000000D03*
X152800000Y-71800000D03*
X145500000Y-62300000D03*
X142900000Y-70000000D03*
X136900000Y-76500000D03*
X135800000Y-76600000D03*
X132400000Y-76500000D03*
X131300000Y-76500000D03*
X126800000Y-76500000D03*
X134100000Y-59600000D03*
D15*
X122500000Y-75000000D03*
X122500000Y-77500000D03*
X122500000Y-62500000D03*
X122500000Y-60000000D03*
X122500000Y-57500000D03*
X125000000Y-57500000D03*
X127500000Y-57500000D03*
X125000000Y-60000000D03*
X142500000Y-57500000D03*
X145000000Y-57500000D03*
X150000000Y-57500000D03*
X147500000Y-57500000D03*
X150000000Y-57500000D03*
X152500000Y-57500000D03*
X152500000Y-60000000D03*
X150000000Y-60000000D03*
X147500000Y-60000000D03*
X145000000Y-60000000D03*
X150000000Y-62500000D03*
X152500000Y-62500000D03*
X152500000Y-65000000D03*
X150000000Y-65000000D03*
X152500000Y-67500000D03*
X142500000Y-75000000D03*
X142500000Y-72500000D03*
D14*
X132300000Y-65000000D03*
X130800000Y-66700000D03*
D16*
X140400000Y-65700000D03*
D14*
X131100000Y-60500000D03*
X130500000Y-57000000D03*
X140400000Y-68200000D03*
X134582468Y-64659417D03*
X139200000Y-57400000D03*
X144800000Y-70900000D03*
X144100000Y-67100000D03*
D17*
X133575000Y-68150000D02*
X133575000Y-69650000D01*
X133585199Y-68139801D02*
X133575000Y-68150000D01*
X133585199Y-67644117D02*
X133585199Y-68139801D01*
X124800000Y-75610002D02*
X127089998Y-77900000D01*
X133575000Y-70125000D02*
X133575000Y-69650000D01*
X133575000Y-76435002D02*
X133575000Y-70125000D01*
X127089998Y-77900000D02*
X132110002Y-77900000D01*
X132110002Y-77900000D02*
X141600000Y-77900000D01*
X141600000Y-77900000D02*
X147100000Y-77900000D01*
X147100000Y-77900000D02*
X149700000Y-75300000D01*
X149700000Y-75300000D02*
X149649999Y-75249999D01*
X149549999Y-67950001D02*
X149700001Y-67799999D01*
X149549999Y-72360001D02*
X149549999Y-67950001D01*
X149700000Y-72510002D02*
X149549999Y-72360001D01*
X149700000Y-75300000D02*
X149700000Y-72510002D01*
D18*
X124800000Y-72110000D02*
X124800000Y-72200000D01*
X122900000Y-70210000D02*
X124800000Y-72110000D01*
D17*
X124800000Y-72200000D02*
X124800000Y-75610002D01*
D18*
X126941998Y-77900000D02*
X147100000Y-77900000D01*
X124800000Y-75758002D02*
X126941998Y-77900000D01*
X124800000Y-72200000D02*
X124800000Y-75758002D01*
X147100000Y-77900000D02*
X147600000Y-77900000D01*
X133575000Y-76583002D02*
X133575000Y-68625000D01*
X132453001Y-77705001D02*
X133575000Y-76583002D01*
X132305001Y-77705001D02*
X132453001Y-77705001D01*
D17*
X132110002Y-77900000D02*
X132305001Y-77705001D01*
D18*
X133575000Y-68625000D02*
X133575000Y-68150000D01*
D17*
X132305001Y-77705001D02*
X133575000Y-76435002D01*
D19*
X124800000Y-70907919D02*
X124800000Y-75758002D01*
X124102081Y-70210000D02*
X124800000Y-70907919D01*
X122900000Y-70210000D02*
X124102081Y-70210000D01*
X147725010Y-77774990D02*
X149800000Y-75700000D01*
X124800000Y-75758002D02*
X124800000Y-76104978D01*
X124800000Y-76104978D02*
X126470012Y-77774990D01*
D18*
X147600000Y-77900000D02*
X149800000Y-75700000D01*
D19*
X132774990Y-77774990D02*
X133575000Y-76974980D01*
X133575000Y-76974980D02*
X133575000Y-68150000D01*
X126470012Y-77774990D02*
X132774990Y-77774990D01*
X132774990Y-77774990D02*
X147725010Y-77774990D01*
D18*
X149700001Y-67799999D02*
X150100000Y-67400000D01*
X149449999Y-68050001D02*
X149700001Y-67799999D01*
X149449999Y-72408001D02*
X149449999Y-68050001D01*
X149800000Y-72758002D02*
X149449999Y-72408001D01*
X149800000Y-75700000D02*
X149800000Y-72758002D01*
D17*
X135850000Y-68150000D02*
X135325000Y-68150000D01*
X152800000Y-71800000D02*
X150400000Y-71800000D01*
D18*
X126800000Y-76500000D02*
X126800000Y-71570000D01*
D19*
X126800000Y-76407908D02*
X126846046Y-76453954D01*
X126800000Y-70367919D02*
X126800000Y-76407908D01*
X124102081Y-67670000D02*
X126800000Y-70367919D01*
X122900000Y-67670000D02*
X124102081Y-67670000D01*
X136900000Y-71225000D02*
X135325000Y-69650000D01*
X135675000Y-70000000D02*
X135325000Y-69650000D01*
X142900000Y-70000000D02*
X135675000Y-70000000D01*
X135325000Y-69650000D02*
X135325000Y-68150000D01*
X145400000Y-62200000D02*
X145500000Y-62300000D01*
X138525000Y-62200000D02*
X145400000Y-62200000D01*
X135925000Y-59600000D02*
X134100000Y-59600000D01*
X138525000Y-62200000D02*
X135925000Y-59600000D01*
X136900000Y-76500000D02*
X136900000Y-71225000D01*
D17*
X132300000Y-60425000D02*
X132300000Y-59700000D01*
X132300000Y-59700000D02*
X132200000Y-59600000D01*
X132200000Y-59600000D02*
X132300000Y-59625000D01*
X130400000Y-59625000D02*
X132200000Y-59600000D01*
X134075000Y-62200000D02*
X132300000Y-60425000D01*
X132300000Y-63950000D02*
X132300000Y-65000000D01*
D18*
X132300000Y-62175000D02*
X132300000Y-63950000D01*
X132300000Y-65000000D02*
X132300000Y-62175000D01*
D17*
X130250000Y-65950000D02*
X131000000Y-66700000D01*
X130250000Y-63950000D02*
X130250000Y-65950000D01*
D18*
X130000000Y-63700000D02*
X130250000Y-63950000D01*
X130000000Y-61075000D02*
X130000000Y-63700000D01*
X130250000Y-66150000D02*
X130800000Y-66700000D01*
X130250000Y-63950000D02*
X130250000Y-66150000D01*
D20*
X129199990Y-59845500D02*
X129199990Y-58804500D01*
X129529500Y-60175010D02*
X129199990Y-59845500D01*
X130775010Y-60175010D02*
X129529500Y-60175010D01*
X131100000Y-60500000D02*
X130775010Y-60175010D01*
D17*
X130500000Y-57500000D02*
X130500000Y-56800000D01*
X130502245Y-57502245D02*
X130500000Y-57500000D01*
D20*
X129199990Y-58804500D02*
X130502245Y-57502245D01*
X130502245Y-57502245D02*
X130604490Y-57400000D01*
D17*
X138123051Y-68200000D02*
X134582468Y-64659417D01*
X140400000Y-68200000D02*
X138123051Y-68200000D01*
D18*
X122900000Y-65130000D02*
X128100000Y-59930000D01*
X138800001Y-57000001D02*
X139200000Y-57400000D01*
X137949999Y-56149999D02*
X138800001Y-57000001D01*
X130091999Y-56149999D02*
X137949999Y-56149999D01*
X128100000Y-58141998D02*
X130091999Y-56149999D01*
X128100000Y-59930000D02*
X128100000Y-58141998D01*
D17*
X145970000Y-72070000D02*
X145970000Y-73750000D01*
X144800000Y-70900000D02*
X145970000Y-72070000D01*
X148510000Y-71510000D02*
X148510000Y-73750000D01*
X144100000Y-67100000D02*
X148510000Y-71510000D01*
D21*
G36*
X121695506Y-74130537D02*
G01*
X121805820Y-74189502D01*
X121925518Y-74225812D01*
X122050000Y-74238072D01*
X123665001Y-74238072D01*
X123665001Y-75702241D01*
X123665000Y-75702251D01*
X123665000Y-76049227D01*
X123659509Y-76104978D01*
X123665000Y-76160729D01*
X123665000Y-76160730D01*
X123681423Y-76327477D01*
X123746324Y-76541425D01*
X123851717Y-76738601D01*
X123993552Y-76911427D01*
X124036860Y-76946969D01*
X124929890Y-77840000D01*
X121660000Y-77840000D01*
X121660000Y-74101398D01*
X121695506Y-74130537D01*
G37*
X121695506Y-74130537D02*
X121805820Y-74189502D01*
X121925518Y-74225812D01*
X122050000Y-74238072D01*
X123665001Y-74238072D01*
X123665001Y-75702241D01*
X123665000Y-75702251D01*
X123665000Y-76049227D01*
X123659509Y-76104978D01*
X123665000Y-76160729D01*
X123665000Y-76160730D01*
X123681423Y-76327477D01*
X123746324Y-76541425D01*
X123851717Y-76738601D01*
X123993552Y-76911427D01*
X124036860Y-76946969D01*
X124929890Y-77840000D01*
X121660000Y-77840000D01*
X121660000Y-74101398D01*
X121695506Y-74130537D01*
G36*
X153340000Y-77840000D02*
G01*
X149265131Y-77840000D01*
X150641988Y-76463144D01*
X150748283Y-76333623D01*
X150853676Y-76136447D01*
X150918577Y-75922499D01*
X150940491Y-75700000D01*
X150918577Y-75477502D01*
X150853676Y-75263554D01*
X150751365Y-75072144D01*
X150916544Y-75105000D01*
X151183456Y-75105000D01*
X151445239Y-75052928D01*
X151691833Y-74950785D01*
X151913762Y-74802497D01*
X152102497Y-74613762D01*
X152250785Y-74391833D01*
X152352928Y-74145239D01*
X152405000Y-73883456D01*
X152405000Y-73616544D01*
X152352928Y-73354761D01*
X152250785Y-73108167D01*
X152102497Y-72886238D01*
X151913762Y-72697503D01*
X151691833Y-72549215D01*
X151445239Y-72447072D01*
X151183456Y-72395000D01*
X150916544Y-72395000D01*
X150654761Y-72447072D01*
X150633210Y-72455999D01*
X150621589Y-72417689D01*
X150539411Y-72263943D01*
X150428817Y-72129185D01*
X150395044Y-72101468D01*
X150334999Y-72041423D01*
X150334999Y-68416579D01*
X150345043Y-68406535D01*
X150401898Y-68395226D01*
X150590256Y-68317205D01*
X150759774Y-68203937D01*
X150903937Y-68059774D01*
X151017205Y-67890256D01*
X151095226Y-67701898D01*
X151135000Y-67501939D01*
X151135000Y-67298061D01*
X151095226Y-67098102D01*
X151017205Y-66909744D01*
X150903937Y-66740226D01*
X150759774Y-66596063D01*
X150590256Y-66482795D01*
X150401898Y-66404774D01*
X150201939Y-66365000D01*
X149998061Y-66365000D01*
X149798102Y-66404774D01*
X149609744Y-66482795D01*
X149440226Y-66596063D01*
X149296063Y-66740226D01*
X149182795Y-66909744D01*
X149104774Y-67098102D01*
X149093465Y-67154957D01*
X148854951Y-67393471D01*
X148821183Y-67421184D01*
X148793470Y-67454952D01*
X148793467Y-67454955D01*
X148710589Y-67555942D01*
X148628411Y-67709688D01*
X148577804Y-67876511D01*
X148560718Y-68050001D01*
X148565000Y-68093480D01*
X148564999Y-70454842D01*
X145135000Y-67024843D01*
X145135000Y-66998061D01*
X145095226Y-66798102D01*
X145017205Y-66609744D01*
X144903937Y-66440226D01*
X144759774Y-66296063D01*
X144590256Y-66182795D01*
X144401898Y-66104774D01*
X144201939Y-66065000D01*
X143998061Y-66065000D01*
X143798102Y-66104774D01*
X143609744Y-66182795D01*
X143440226Y-66296063D01*
X143296063Y-66440226D01*
X143182795Y-66609744D01*
X143104774Y-66798102D01*
X143065000Y-66998061D01*
X143065000Y-67201939D01*
X143104774Y-67401898D01*
X143182795Y-67590256D01*
X143296063Y-67759774D01*
X143440226Y-67903937D01*
X143609744Y-68017205D01*
X143798102Y-68095226D01*
X143998061Y-68135000D01*
X144024843Y-68135000D01*
X147725000Y-71835157D01*
X147725001Y-72644876D01*
X147646238Y-72697503D01*
X147457503Y-72886238D01*
X147309215Y-73108167D01*
X147240000Y-73275266D01*
X147170785Y-73108167D01*
X147022497Y-72886238D01*
X146833762Y-72697503D01*
X146755000Y-72644876D01*
X146755000Y-72108556D01*
X146758797Y-72070000D01*
X146755000Y-72031440D01*
X146755000Y-72031439D01*
X146748121Y-71961595D01*
X146743642Y-71916113D01*
X146698754Y-71768140D01*
X146673666Y-71721204D01*
X146625862Y-71631767D01*
X146527764Y-71512236D01*
X146497811Y-71487654D01*
X145835000Y-70824843D01*
X145835000Y-70798061D01*
X145795226Y-70598102D01*
X145717205Y-70409744D01*
X145603937Y-70240226D01*
X145459774Y-70096063D01*
X145290256Y-69982795D01*
X145101898Y-69904774D01*
X144901939Y-69865000D01*
X144698061Y-69865000D01*
X144498102Y-69904774D01*
X144309744Y-69982795D01*
X144140226Y-70096063D01*
X143996063Y-70240226D01*
X143882795Y-70409744D01*
X143804774Y-70598102D01*
X143765000Y-70798061D01*
X143765000Y-71001939D01*
X143804774Y-71201898D01*
X143882795Y-71390256D01*
X143996063Y-71559774D01*
X144140226Y-71703937D01*
X144309744Y-71817205D01*
X144498102Y-71895226D01*
X144698061Y-71935000D01*
X144724843Y-71935000D01*
X145185000Y-72395157D01*
X145185000Y-72644876D01*
X145106238Y-72697503D01*
X144917503Y-72886238D01*
X144769215Y-73108167D01*
X144667072Y-73354761D01*
X144615000Y-73616544D01*
X144615000Y-73883456D01*
X144667072Y-74145239D01*
X144769215Y-74391833D01*
X144917503Y-74613762D01*
X145106238Y-74802497D01*
X145328167Y-74950785D01*
X145574761Y-75052928D01*
X145836544Y-75105000D01*
X146103456Y-75105000D01*
X146365239Y-75052928D01*
X146611833Y-74950785D01*
X146833762Y-74802497D01*
X147022497Y-74613762D01*
X147170785Y-74391833D01*
X147240000Y-74224734D01*
X147309215Y-74391833D01*
X147457503Y-74613762D01*
X147646238Y-74802497D01*
X147868167Y-74950785D01*
X148114761Y-75052928D01*
X148376544Y-75105000D01*
X148643456Y-75105000D01*
X148819949Y-75069893D01*
X147249853Y-76639990D01*
X134710000Y-76639990D01*
X134710000Y-70095396D01*
X134721248Y-70058316D01*
X134738072Y-69887500D01*
X134738072Y-69412500D01*
X134721248Y-69241684D01*
X134710000Y-69204604D01*
X134710000Y-68595396D01*
X134721248Y-68558316D01*
X134738072Y-68387500D01*
X134738072Y-67912500D01*
X134721248Y-67741684D01*
X134671423Y-67577433D01*
X134601007Y-67445693D01*
X134580425Y-67342219D01*
X134502404Y-67153861D01*
X134389136Y-66984343D01*
X134244973Y-66840180D01*
X134075455Y-66726912D01*
X133887097Y-66648891D01*
X133687138Y-66609117D01*
X133483260Y-66609117D01*
X133283301Y-66648891D01*
X133094943Y-66726912D01*
X132925425Y-66840180D01*
X132781262Y-66984343D01*
X132667994Y-67153861D01*
X132589973Y-67342219D01*
X132577714Y-67403850D01*
X132559488Y-67426058D01*
X132478577Y-67577433D01*
X132428752Y-67741684D01*
X132411928Y-67912500D01*
X132411928Y-68387500D01*
X132428752Y-68558316D01*
X132440001Y-68595399D01*
X132440001Y-69204601D01*
X132428752Y-69241684D01*
X132411928Y-69412500D01*
X132411928Y-69887500D01*
X132428752Y-70058316D01*
X132440001Y-70095398D01*
X132440000Y-76459845D01*
X132259855Y-76639990D01*
X126940146Y-76639990D01*
X125935000Y-75634845D01*
X125935000Y-70963671D01*
X125940491Y-70907919D01*
X125918577Y-70685420D01*
X125853676Y-70471472D01*
X125748284Y-70274296D01*
X125641989Y-70144776D01*
X125606449Y-70101470D01*
X125563140Y-70065927D01*
X124944076Y-69446864D01*
X124908530Y-69403551D01*
X124735704Y-69261716D01*
X124538528Y-69156324D01*
X124324580Y-69091423D01*
X124157833Y-69075000D01*
X124157832Y-69075000D01*
X124102081Y-69069509D01*
X124046330Y-69075000D01*
X123865107Y-69075000D01*
X123846632Y-69056525D01*
X123664466Y-68934805D01*
X123781355Y-68865178D01*
X123997588Y-68670269D01*
X124171641Y-68436920D01*
X124296825Y-68174099D01*
X124341476Y-68026890D01*
X124220155Y-67797000D01*
X123027000Y-67797000D01*
X123027000Y-67817000D01*
X122773000Y-67817000D01*
X122773000Y-67797000D01*
X122753000Y-67797000D01*
X122753000Y-67543000D01*
X122773000Y-67543000D01*
X122773000Y-67523000D01*
X123027000Y-67523000D01*
X123027000Y-67543000D01*
X124220155Y-67543000D01*
X124341476Y-67313110D01*
X124296825Y-67165901D01*
X124171641Y-66903080D01*
X123997588Y-66669731D01*
X123781355Y-66474822D01*
X123664466Y-66405195D01*
X123846632Y-66283475D01*
X124053475Y-66076632D01*
X124215990Y-65833411D01*
X124327932Y-65563158D01*
X124385000Y-65276260D01*
X124385000Y-64983740D01*
X124370539Y-64911039D01*
X128695051Y-60586528D01*
X128728817Y-60558817D01*
X128778260Y-60498571D01*
X128903090Y-60623401D01*
X128886928Y-60787500D01*
X128886928Y-61362500D01*
X128903752Y-61533316D01*
X128953577Y-61697567D01*
X129034488Y-61848942D01*
X129115000Y-61947046D01*
X129115001Y-63140556D01*
X129104528Y-63160149D01*
X129053992Y-63326745D01*
X129036928Y-63499999D01*
X129036928Y-64400001D01*
X129053992Y-64573255D01*
X129104528Y-64739851D01*
X129186595Y-64893387D01*
X129297038Y-65027962D01*
X129365001Y-65083737D01*
X129365001Y-66106521D01*
X129360719Y-66150000D01*
X129377805Y-66323490D01*
X129428412Y-66490313D01*
X129510590Y-66644059D01*
X129593468Y-66745046D01*
X129593471Y-66745049D01*
X129621184Y-66778817D01*
X129654952Y-66806530D01*
X129793465Y-66945043D01*
X129804774Y-67001898D01*
X129882795Y-67190256D01*
X129996063Y-67359774D01*
X130140226Y-67503937D01*
X130309744Y-67617205D01*
X130498102Y-67695226D01*
X130698061Y-67735000D01*
X130901939Y-67735000D01*
X131101898Y-67695226D01*
X131290256Y-67617205D01*
X131459774Y-67503937D01*
X131603937Y-67359774D01*
X131717205Y-67190256D01*
X131795226Y-67001898D01*
X131835000Y-66801939D01*
X131835000Y-66598061D01*
X131795226Y-66398102D01*
X131717205Y-66209744D01*
X131603937Y-66040226D01*
X131459774Y-65896063D01*
X131290256Y-65782795D01*
X131135000Y-65718485D01*
X131135000Y-65083737D01*
X131202962Y-65027962D01*
X131265000Y-64952369D01*
X131265000Y-65101939D01*
X131304774Y-65301898D01*
X131382795Y-65490256D01*
X131496063Y-65659774D01*
X131640226Y-65803937D01*
X131809744Y-65917205D01*
X131998102Y-65995226D01*
X132198061Y-66035000D01*
X132401939Y-66035000D01*
X132601898Y-65995226D01*
X132790256Y-65917205D01*
X132959774Y-65803937D01*
X133103937Y-65659774D01*
X133217205Y-65490256D01*
X133295226Y-65301898D01*
X133335000Y-65101939D01*
X133335000Y-64927999D01*
X133363405Y-64893387D01*
X133445472Y-64739851D01*
X133496008Y-64573255D01*
X133501171Y-64520834D01*
X133501746Y-64521008D01*
X133553704Y-64526125D01*
X133547468Y-64557478D01*
X133547468Y-64761356D01*
X133587242Y-64961315D01*
X133665263Y-65149673D01*
X133778531Y-65319191D01*
X133922694Y-65463354D01*
X134092212Y-65576622D01*
X134280570Y-65654643D01*
X134480529Y-65694417D01*
X134507311Y-65694417D01*
X137540709Y-68727816D01*
X137565287Y-68757764D01*
X137595235Y-68782342D01*
X137595238Y-68782345D01*
X137603848Y-68789411D01*
X137684818Y-68855862D01*
X137821191Y-68928754D01*
X137934723Y-68963194D01*
X137969163Y-68973641D01*
X137983541Y-68975057D01*
X138084490Y-68985000D01*
X138084497Y-68985000D01*
X138123050Y-68988797D01*
X138161603Y-68985000D01*
X139721289Y-68985000D01*
X139740226Y-69003937D01*
X139909744Y-69117205D01*
X140098102Y-69195226D01*
X140298061Y-69235000D01*
X140501939Y-69235000D01*
X140701898Y-69195226D01*
X140890256Y-69117205D01*
X141059774Y-69003937D01*
X141203937Y-68859774D01*
X141317205Y-68690256D01*
X141395226Y-68501898D01*
X141435000Y-68301939D01*
X141435000Y-68098061D01*
X141395226Y-67898102D01*
X141317205Y-67709744D01*
X141203937Y-67540226D01*
X141059774Y-67396063D01*
X140890256Y-67282795D01*
X140701898Y-67204774D01*
X140501939Y-67165000D01*
X140298061Y-67165000D01*
X140098102Y-67204774D01*
X139909744Y-67282795D01*
X139740226Y-67396063D01*
X139721289Y-67415000D01*
X138448209Y-67415000D01*
X136601723Y-65568514D01*
X139065000Y-65568514D01*
X139065000Y-65831486D01*
X139116304Y-66089405D01*
X139216939Y-66332359D01*
X139363038Y-66551013D01*
X139548987Y-66736962D01*
X139767641Y-66883061D01*
X140010595Y-66983696D01*
X140268514Y-67035000D01*
X140531486Y-67035000D01*
X140789405Y-66983696D01*
X141032359Y-66883061D01*
X141251013Y-66736962D01*
X141436962Y-66551013D01*
X141583061Y-66332359D01*
X141683696Y-66089405D01*
X141735000Y-65831486D01*
X141735000Y-65568514D01*
X141683696Y-65310595D01*
X141583061Y-65067641D01*
X141436962Y-64848987D01*
X141251013Y-64663038D01*
X141032359Y-64516939D01*
X140789405Y-64416304D01*
X140531486Y-64365000D01*
X140268514Y-64365000D01*
X140010595Y-64416304D01*
X139767641Y-64516939D01*
X139548987Y-64663038D01*
X139363038Y-64848987D01*
X139216939Y-65067641D01*
X139116304Y-65310595D01*
X139065000Y-65568514D01*
X136601723Y-65568514D01*
X135617468Y-64584260D01*
X135617468Y-64557478D01*
X135577694Y-64357519D01*
X135499673Y-64169161D01*
X135386405Y-63999643D01*
X135314357Y-63927595D01*
X135346008Y-63823254D01*
X135363072Y-63650000D01*
X135363072Y-60750000D01*
X135346008Y-60576746D01*
X135295472Y-60410150D01*
X135213405Y-60256614D01*
X135102962Y-60122038D01*
X134968386Y-60011595D01*
X134814850Y-59929528D01*
X134648254Y-59878992D01*
X134475000Y-59861928D01*
X133675000Y-59861928D01*
X133501746Y-59878992D01*
X133380778Y-59915687D01*
X133346423Y-59802433D01*
X133265512Y-59651058D01*
X133156623Y-59518377D01*
X133063380Y-59441854D01*
X133042567Y-59358922D01*
X132976388Y-59219168D01*
X132884218Y-59095008D01*
X132769596Y-58991217D01*
X132636928Y-58911782D01*
X132527800Y-58872791D01*
X132409251Y-58843154D01*
X132353886Y-58826359D01*
X132348411Y-58825820D01*
X132343128Y-58824297D01*
X132290552Y-58819855D01*
X132238343Y-58812135D01*
X132219134Y-58813087D01*
X132200000Y-58811203D01*
X132156003Y-58815536D01*
X131085244Y-58830408D01*
X131046423Y-58702433D01*
X130965512Y-58551058D01*
X130856623Y-58418377D01*
X130749131Y-58330160D01*
X130899034Y-58180258D01*
X130940477Y-58158106D01*
X131060009Y-58060009D01*
X131158106Y-57940477D01*
X131184268Y-57891532D01*
X131239463Y-57824276D01*
X131310036Y-57692246D01*
X131333146Y-57616059D01*
X131417205Y-57490256D01*
X131495226Y-57301898D01*
X131535000Y-57101939D01*
X131535000Y-57034999D01*
X137583421Y-57034999D01*
X138193465Y-57645044D01*
X138204774Y-57701898D01*
X138282795Y-57890256D01*
X138396063Y-58059774D01*
X138540226Y-58203937D01*
X138709744Y-58317205D01*
X138898102Y-58395226D01*
X139098061Y-58435000D01*
X139301939Y-58435000D01*
X139501898Y-58395226D01*
X139690256Y-58317205D01*
X139859774Y-58203937D01*
X140003937Y-58059774D01*
X140117205Y-57890256D01*
X140195226Y-57701898D01*
X140235000Y-57501939D01*
X140235000Y-57298061D01*
X140195226Y-57098102D01*
X140117205Y-56909744D01*
X140003937Y-56740226D01*
X139859774Y-56596063D01*
X139690256Y-56482795D01*
X139501898Y-56404774D01*
X139445044Y-56393465D01*
X139211579Y-56160000D01*
X153340001Y-56160000D01*
X153340000Y-77840000D01*
G37*
X153340000Y-77840000D02*
X149265131Y-77840000D01*
X150641988Y-76463144D01*
X150748283Y-76333623D01*
X150853676Y-76136447D01*
X150918577Y-75922499D01*
X150940491Y-75700000D01*
X150918577Y-75477502D01*
X150853676Y-75263554D01*
X150751365Y-75072144D01*
X150916544Y-75105000D01*
X151183456Y-75105000D01*
X151445239Y-75052928D01*
X151691833Y-74950785D01*
X151913762Y-74802497D01*
X152102497Y-74613762D01*
X152250785Y-74391833D01*
X152352928Y-74145239D01*
X152405000Y-73883456D01*
X152405000Y-73616544D01*
X152352928Y-73354761D01*
X152250785Y-73108167D01*
X152102497Y-72886238D01*
X151913762Y-72697503D01*
X151691833Y-72549215D01*
X151445239Y-72447072D01*
X151183456Y-72395000D01*
X150916544Y-72395000D01*
X150654761Y-72447072D01*
X150633210Y-72455999D01*
X150621589Y-72417689D01*
X150539411Y-72263943D01*
X150428817Y-72129185D01*
X150395044Y-72101468D01*
X150334999Y-72041423D01*
X150334999Y-68416579D01*
X150345043Y-68406535D01*
X150401898Y-68395226D01*
X150590256Y-68317205D01*
X150759774Y-68203937D01*
X150903937Y-68059774D01*
X151017205Y-67890256D01*
X151095226Y-67701898D01*
X151135000Y-67501939D01*
X151135000Y-67298061D01*
X151095226Y-67098102D01*
X151017205Y-66909744D01*
X150903937Y-66740226D01*
X150759774Y-66596063D01*
X150590256Y-66482795D01*
X150401898Y-66404774D01*
X150201939Y-66365000D01*
X149998061Y-66365000D01*
X149798102Y-66404774D01*
X149609744Y-66482795D01*
X149440226Y-66596063D01*
X149296063Y-66740226D01*
X149182795Y-66909744D01*
X149104774Y-67098102D01*
X149093465Y-67154957D01*
X148854951Y-67393471D01*
X148821183Y-67421184D01*
X148793470Y-67454952D01*
X148793467Y-67454955D01*
X148710589Y-67555942D01*
X148628411Y-67709688D01*
X148577804Y-67876511D01*
X148560718Y-68050001D01*
X148565000Y-68093480D01*
X148564999Y-70454842D01*
X145135000Y-67024843D01*
X145135000Y-66998061D01*
X145095226Y-66798102D01*
X145017205Y-66609744D01*
X144903937Y-66440226D01*
X144759774Y-66296063D01*
X144590256Y-66182795D01*
X144401898Y-66104774D01*
X144201939Y-66065000D01*
X143998061Y-66065000D01*
X143798102Y-66104774D01*
X143609744Y-66182795D01*
X143440226Y-66296063D01*
X143296063Y-66440226D01*
X143182795Y-66609744D01*
X143104774Y-66798102D01*
X143065000Y-66998061D01*
X143065000Y-67201939D01*
X143104774Y-67401898D01*
X143182795Y-67590256D01*
X143296063Y-67759774D01*
X143440226Y-67903937D01*
X143609744Y-68017205D01*
X143798102Y-68095226D01*
X143998061Y-68135000D01*
X144024843Y-68135000D01*
X147725000Y-71835157D01*
X147725001Y-72644876D01*
X147646238Y-72697503D01*
X147457503Y-72886238D01*
X147309215Y-73108167D01*
X147240000Y-73275266D01*
X147170785Y-73108167D01*
X147022497Y-72886238D01*
X146833762Y-72697503D01*
X146755000Y-72644876D01*
X146755000Y-72108556D01*
X146758797Y-72070000D01*
X146755000Y-72031440D01*
X146755000Y-72031439D01*
X146748121Y-71961595D01*
X146743642Y-71916113D01*
X146698754Y-71768140D01*
X146673666Y-71721204D01*
X146625862Y-71631767D01*
X146527764Y-71512236D01*
X146497811Y-71487654D01*
X145835000Y-70824843D01*
X145835000Y-70798061D01*
X145795226Y-70598102D01*
X145717205Y-70409744D01*
X145603937Y-70240226D01*
X145459774Y-70096063D01*
X145290256Y-69982795D01*
X145101898Y-69904774D01*
X144901939Y-69865000D01*
X144698061Y-69865000D01*
X144498102Y-69904774D01*
X144309744Y-69982795D01*
X144140226Y-70096063D01*
X143996063Y-70240226D01*
X143882795Y-70409744D01*
X143804774Y-70598102D01*
X143765000Y-70798061D01*
X143765000Y-71001939D01*
X143804774Y-71201898D01*
X143882795Y-71390256D01*
X143996063Y-71559774D01*
X144140226Y-71703937D01*
X144309744Y-71817205D01*
X144498102Y-71895226D01*
X144698061Y-71935000D01*
X144724843Y-71935000D01*
X145185000Y-72395157D01*
X145185000Y-72644876D01*
X145106238Y-72697503D01*
X144917503Y-72886238D01*
X144769215Y-73108167D01*
X144667072Y-73354761D01*
X144615000Y-73616544D01*
X144615000Y-73883456D01*
X144667072Y-74145239D01*
X144769215Y-74391833D01*
X144917503Y-74613762D01*
X145106238Y-74802497D01*
X145328167Y-74950785D01*
X145574761Y-75052928D01*
X145836544Y-75105000D01*
X146103456Y-75105000D01*
X146365239Y-75052928D01*
X146611833Y-74950785D01*
X146833762Y-74802497D01*
X147022497Y-74613762D01*
X147170785Y-74391833D01*
X147240000Y-74224734D01*
X147309215Y-74391833D01*
X147457503Y-74613762D01*
X147646238Y-74802497D01*
X147868167Y-74950785D01*
X148114761Y-75052928D01*
X148376544Y-75105000D01*
X148643456Y-75105000D01*
X148819949Y-75069893D01*
X147249853Y-76639990D01*
X134710000Y-76639990D01*
X134710000Y-70095396D01*
X134721248Y-70058316D01*
X134738072Y-69887500D01*
X134738072Y-69412500D01*
X134721248Y-69241684D01*
X134710000Y-69204604D01*
X134710000Y-68595396D01*
X134721248Y-68558316D01*
X134738072Y-68387500D01*
X134738072Y-67912500D01*
X134721248Y-67741684D01*
X134671423Y-67577433D01*
X134601007Y-67445693D01*
X134580425Y-67342219D01*
X134502404Y-67153861D01*
X134389136Y-66984343D01*
X134244973Y-66840180D01*
X134075455Y-66726912D01*
X133887097Y-66648891D01*
X133687138Y-66609117D01*
X133483260Y-66609117D01*
X133283301Y-66648891D01*
X133094943Y-66726912D01*
X132925425Y-66840180D01*
X132781262Y-66984343D01*
X132667994Y-67153861D01*
X132589973Y-67342219D01*
X132577714Y-67403850D01*
X132559488Y-67426058D01*
X132478577Y-67577433D01*
X132428752Y-67741684D01*
X132411928Y-67912500D01*
X132411928Y-68387500D01*
X132428752Y-68558316D01*
X132440001Y-68595399D01*
X132440001Y-69204601D01*
X132428752Y-69241684D01*
X132411928Y-69412500D01*
X132411928Y-69887500D01*
X132428752Y-70058316D01*
X132440001Y-70095398D01*
X132440000Y-76459845D01*
X132259855Y-76639990D01*
X126940146Y-76639990D01*
X125935000Y-75634845D01*
X125935000Y-70963671D01*
X125940491Y-70907919D01*
X125918577Y-70685420D01*
X125853676Y-70471472D01*
X125748284Y-70274296D01*
X125641989Y-70144776D01*
X125606449Y-70101470D01*
X125563140Y-70065927D01*
X124944076Y-69446864D01*
X124908530Y-69403551D01*
X124735704Y-69261716D01*
X124538528Y-69156324D01*
X124324580Y-69091423D01*
X124157833Y-69075000D01*
X124157832Y-69075000D01*
X124102081Y-69069509D01*
X124046330Y-69075000D01*
X123865107Y-69075000D01*
X123846632Y-69056525D01*
X123664466Y-68934805D01*
X123781355Y-68865178D01*
X123997588Y-68670269D01*
X124171641Y-68436920D01*
X124296825Y-68174099D01*
X124341476Y-68026890D01*
X124220155Y-67797000D01*
X123027000Y-67797000D01*
X123027000Y-67817000D01*
X122773000Y-67817000D01*
X122773000Y-67797000D01*
X122753000Y-67797000D01*
X122753000Y-67543000D01*
X122773000Y-67543000D01*
X122773000Y-67523000D01*
X123027000Y-67523000D01*
X123027000Y-67543000D01*
X124220155Y-67543000D01*
X124341476Y-67313110D01*
X124296825Y-67165901D01*
X124171641Y-66903080D01*
X123997588Y-66669731D01*
X123781355Y-66474822D01*
X123664466Y-66405195D01*
X123846632Y-66283475D01*
X124053475Y-66076632D01*
X124215990Y-65833411D01*
X124327932Y-65563158D01*
X124385000Y-65276260D01*
X124385000Y-64983740D01*
X124370539Y-64911039D01*
X128695051Y-60586528D01*
X128728817Y-60558817D01*
X128778260Y-60498571D01*
X128903090Y-60623401D01*
X128886928Y-60787500D01*
X128886928Y-61362500D01*
X128903752Y-61533316D01*
X128953577Y-61697567D01*
X129034488Y-61848942D01*
X129115000Y-61947046D01*
X129115001Y-63140556D01*
X129104528Y-63160149D01*
X129053992Y-63326745D01*
X129036928Y-63499999D01*
X129036928Y-64400001D01*
X129053992Y-64573255D01*
X129104528Y-64739851D01*
X129186595Y-64893387D01*
X129297038Y-65027962D01*
X129365001Y-65083737D01*
X129365001Y-66106521D01*
X129360719Y-66150000D01*
X129377805Y-66323490D01*
X129428412Y-66490313D01*
X129510590Y-66644059D01*
X129593468Y-66745046D01*
X129593471Y-66745049D01*
X129621184Y-66778817D01*
X129654952Y-66806530D01*
X129793465Y-66945043D01*
X129804774Y-67001898D01*
X129882795Y-67190256D01*
X129996063Y-67359774D01*
X130140226Y-67503937D01*
X130309744Y-67617205D01*
X130498102Y-67695226D01*
X130698061Y-67735000D01*
X130901939Y-67735000D01*
X131101898Y-67695226D01*
X131290256Y-67617205D01*
X131459774Y-67503937D01*
X131603937Y-67359774D01*
X131717205Y-67190256D01*
X131795226Y-67001898D01*
X131835000Y-66801939D01*
X131835000Y-66598061D01*
X131795226Y-66398102D01*
X131717205Y-66209744D01*
X131603937Y-66040226D01*
X131459774Y-65896063D01*
X131290256Y-65782795D01*
X131135000Y-65718485D01*
X131135000Y-65083737D01*
X131202962Y-65027962D01*
X131265000Y-64952369D01*
X131265000Y-65101939D01*
X131304774Y-65301898D01*
X131382795Y-65490256D01*
X131496063Y-65659774D01*
X131640226Y-65803937D01*
X131809744Y-65917205D01*
X131998102Y-65995226D01*
X132198061Y-66035000D01*
X132401939Y-66035000D01*
X132601898Y-65995226D01*
X132790256Y-65917205D01*
X132959774Y-65803937D01*
X133103937Y-65659774D01*
X133217205Y-65490256D01*
X133295226Y-65301898D01*
X133335000Y-65101939D01*
X133335000Y-64927999D01*
X133363405Y-64893387D01*
X133445472Y-64739851D01*
X133496008Y-64573255D01*
X133501171Y-64520834D01*
X133501746Y-64521008D01*
X133553704Y-64526125D01*
X133547468Y-64557478D01*
X133547468Y-64761356D01*
X133587242Y-64961315D01*
X133665263Y-65149673D01*
X133778531Y-65319191D01*
X133922694Y-65463354D01*
X134092212Y-65576622D01*
X134280570Y-65654643D01*
X134480529Y-65694417D01*
X134507311Y-65694417D01*
X137540709Y-68727816D01*
X137565287Y-68757764D01*
X137595235Y-68782342D01*
X137595238Y-68782345D01*
X137603848Y-68789411D01*
X137684818Y-68855862D01*
X137821191Y-68928754D01*
X137934723Y-68963194D01*
X137969163Y-68973641D01*
X137983541Y-68975057D01*
X138084490Y-68985000D01*
X138084497Y-68985000D01*
X138123050Y-68988797D01*
X138161603Y-68985000D01*
X139721289Y-68985000D01*
X139740226Y-69003937D01*
X139909744Y-69117205D01*
X140098102Y-69195226D01*
X140298061Y-69235000D01*
X140501939Y-69235000D01*
X140701898Y-69195226D01*
X140890256Y-69117205D01*
X141059774Y-69003937D01*
X141203937Y-68859774D01*
X141317205Y-68690256D01*
X141395226Y-68501898D01*
X141435000Y-68301939D01*
X141435000Y-68098061D01*
X141395226Y-67898102D01*
X141317205Y-67709744D01*
X141203937Y-67540226D01*
X141059774Y-67396063D01*
X140890256Y-67282795D01*
X140701898Y-67204774D01*
X140501939Y-67165000D01*
X140298061Y-67165000D01*
X140098102Y-67204774D01*
X139909744Y-67282795D01*
X139740226Y-67396063D01*
X139721289Y-67415000D01*
X138448209Y-67415000D01*
X136601723Y-65568514D01*
X139065000Y-65568514D01*
X139065000Y-65831486D01*
X139116304Y-66089405D01*
X139216939Y-66332359D01*
X139363038Y-66551013D01*
X139548987Y-66736962D01*
X139767641Y-66883061D01*
X140010595Y-66983696D01*
X140268514Y-67035000D01*
X140531486Y-67035000D01*
X140789405Y-66983696D01*
X141032359Y-66883061D01*
X141251013Y-66736962D01*
X141436962Y-66551013D01*
X141583061Y-66332359D01*
X141683696Y-66089405D01*
X141735000Y-65831486D01*
X141735000Y-65568514D01*
X141683696Y-65310595D01*
X141583061Y-65067641D01*
X141436962Y-64848987D01*
X141251013Y-64663038D01*
X141032359Y-64516939D01*
X140789405Y-64416304D01*
X140531486Y-64365000D01*
X140268514Y-64365000D01*
X140010595Y-64416304D01*
X139767641Y-64516939D01*
X139548987Y-64663038D01*
X139363038Y-64848987D01*
X139216939Y-65067641D01*
X139116304Y-65310595D01*
X139065000Y-65568514D01*
X136601723Y-65568514D01*
X135617468Y-64584260D01*
X135617468Y-64557478D01*
X135577694Y-64357519D01*
X135499673Y-64169161D01*
X135386405Y-63999643D01*
X135314357Y-63927595D01*
X135346008Y-63823254D01*
X135363072Y-63650000D01*
X135363072Y-60750000D01*
X135346008Y-60576746D01*
X135295472Y-60410150D01*
X135213405Y-60256614D01*
X135102962Y-60122038D01*
X134968386Y-60011595D01*
X134814850Y-59929528D01*
X134648254Y-59878992D01*
X134475000Y-59861928D01*
X133675000Y-59861928D01*
X133501746Y-59878992D01*
X133380778Y-59915687D01*
X133346423Y-59802433D01*
X133265512Y-59651058D01*
X133156623Y-59518377D01*
X133063380Y-59441854D01*
X133042567Y-59358922D01*
X132976388Y-59219168D01*
X132884218Y-59095008D01*
X132769596Y-58991217D01*
X132636928Y-58911782D01*
X132527800Y-58872791D01*
X132409251Y-58843154D01*
X132353886Y-58826359D01*
X132348411Y-58825820D01*
X132343128Y-58824297D01*
X132290552Y-58819855D01*
X132238343Y-58812135D01*
X132219134Y-58813087D01*
X132200000Y-58811203D01*
X132156003Y-58815536D01*
X131085244Y-58830408D01*
X131046423Y-58702433D01*
X130965512Y-58551058D01*
X130856623Y-58418377D01*
X130749131Y-58330160D01*
X130899034Y-58180258D01*
X130940477Y-58158106D01*
X131060009Y-58060009D01*
X131158106Y-57940477D01*
X131184268Y-57891532D01*
X131239463Y-57824276D01*
X131310036Y-57692246D01*
X131333146Y-57616059D01*
X131417205Y-57490256D01*
X131495226Y-57301898D01*
X131535000Y-57101939D01*
X131535000Y-57034999D01*
X137583421Y-57034999D01*
X138193465Y-57645044D01*
X138204774Y-57701898D01*
X138282795Y-57890256D01*
X138396063Y-58059774D01*
X138540226Y-58203937D01*
X138709744Y-58317205D01*
X138898102Y-58395226D01*
X139098061Y-58435000D01*
X139301939Y-58435000D01*
X139501898Y-58395226D01*
X139690256Y-58317205D01*
X139859774Y-58203937D01*
X140003937Y-58059774D01*
X140117205Y-57890256D01*
X140195226Y-57701898D01*
X140235000Y-57501939D01*
X140235000Y-57298061D01*
X140195226Y-57098102D01*
X140117205Y-56909744D01*
X140003937Y-56740226D01*
X139859774Y-56596063D01*
X139690256Y-56482795D01*
X139501898Y-56404774D01*
X139445044Y-56393465D01*
X139211579Y-56160000D01*
X153340001Y-56160000D01*
X153340000Y-77840000D01*
G36*
X127504951Y-57485469D02*
G01*
X127471184Y-57513181D01*
X127443471Y-57546949D01*
X127443468Y-57546952D01*
X127360590Y-57647939D01*
X127278412Y-57801685D01*
X127227805Y-57968508D01*
X127210719Y-58141998D01*
X127215001Y-58185477D01*
X127215000Y-59563421D01*
X123118961Y-63659461D01*
X123046260Y-63645000D01*
X122753740Y-63645000D01*
X122466842Y-63702068D01*
X122196589Y-63814010D01*
X121953368Y-63976525D01*
X121746525Y-64183368D01*
X121660000Y-64312862D01*
X121660000Y-56160000D01*
X128830419Y-56160000D01*
X127504951Y-57485469D01*
G37*
X127504951Y-57485469D02*
X127471184Y-57513181D01*
X127443471Y-57546949D01*
X127443468Y-57546952D01*
X127360590Y-57647939D01*
X127278412Y-57801685D01*
X127227805Y-57968508D01*
X127210719Y-58141998D01*
X127215001Y-58185477D01*
X127215000Y-59563421D01*
X123118961Y-63659461D01*
X123046260Y-63645000D01*
X122753740Y-63645000D01*
X122466842Y-63702068D01*
X122196589Y-63814010D01*
X121953368Y-63976525D01*
X121746525Y-64183368D01*
X121660000Y-64312862D01*
X121660000Y-56160000D01*
X128830419Y-56160000D01*
X127504951Y-57485469D01*
M02*
