G04 #@! TF.GenerationSoftware,KiCad,Pcbnew,5.1.5+dfsg1-2build2*
G04 #@! TF.CreationDate,2021-10-19T23:33:07+01:00*
G04 #@! TF.ProjectId,radiation_sensor,72616469-6174-4696-9f6e-5f73656e736f,rev?*
G04 #@! TF.SameCoordinates,Original*
G04 #@! TF.FileFunction,Legend,Bot*
G04 #@! TF.FilePolarity,Positive*
%FSLAX46Y46*%
G04 Gerber Fmt 4.6, Leading zero omitted, Abs format (unit mm)*
G04 Created by KiCad (PCBNEW 5.1.5+dfsg1-2build2) date 2021-10-19 23:33:07*
%MOMM*%
%LPD*%
G04 APERTURE LIST*
%ADD10C,0.150000*%
%ADD11C,0.120000*%
G04 APERTURE END LIST*
D10*
X138547619Y-76947619D02*
X138547619Y-77947619D01*
X138880952Y-77233333D01*
X139214285Y-77947619D01*
X139214285Y-76947619D01*
X140928571Y-76947619D02*
X140452380Y-76947619D01*
X140452380Y-77947619D01*
X141642857Y-76995238D02*
X141547619Y-76947619D01*
X141357142Y-76947619D01*
X141261904Y-76995238D01*
X141214285Y-77090476D01*
X141214285Y-77471428D01*
X141261904Y-77566666D01*
X141357142Y-77614285D01*
X141547619Y-77614285D01*
X141642857Y-77566666D01*
X141690476Y-77471428D01*
X141690476Y-77376190D01*
X141214285Y-77280952D01*
X142023809Y-77614285D02*
X142214285Y-76947619D01*
X142404761Y-77423809D01*
X142595238Y-76947619D01*
X142785714Y-77614285D01*
X143595238Y-76947619D02*
X143595238Y-77471428D01*
X143547619Y-77566666D01*
X143452380Y-77614285D01*
X143261904Y-77614285D01*
X143166666Y-77566666D01*
X143595238Y-76995238D02*
X143500000Y-76947619D01*
X143261904Y-76947619D01*
X143166666Y-76995238D01*
X143119047Y-77090476D01*
X143119047Y-77185714D01*
X143166666Y-77280952D01*
X143261904Y-77328571D01*
X143500000Y-77328571D01*
X143595238Y-77376190D01*
X144071428Y-77614285D02*
X144071428Y-76947619D01*
X144071428Y-77519047D02*
X144119047Y-77566666D01*
X144214285Y-77614285D01*
X144357142Y-77614285D01*
X144452380Y-77566666D01*
X144500000Y-77471428D01*
X144500000Y-76947619D01*
X145404761Y-76947619D02*
X145404761Y-77947619D01*
X145404761Y-76995238D02*
X145309523Y-76947619D01*
X145119047Y-76947619D01*
X145023809Y-76995238D01*
X144976190Y-77042857D01*
X144928571Y-77138095D01*
X144928571Y-77423809D01*
X144976190Y-77519047D01*
X145023809Y-77566666D01*
X145119047Y-77614285D01*
X145309523Y-77614285D01*
X145404761Y-77566666D01*
X146023809Y-76947619D02*
X145928571Y-76995238D01*
X145880952Y-77042857D01*
X145833333Y-77138095D01*
X145833333Y-77423809D01*
X145880952Y-77519047D01*
X145928571Y-77566666D01*
X146023809Y-77614285D01*
X146166666Y-77614285D01*
X146261904Y-77566666D01*
X146309523Y-77519047D01*
X146357142Y-77423809D01*
X146357142Y-77138095D01*
X146309523Y-77042857D01*
X146261904Y-76995238D01*
X146166666Y-76947619D01*
X146023809Y-76947619D01*
X146690476Y-77614285D02*
X146880952Y-76947619D01*
X147071428Y-77423809D01*
X147261904Y-76947619D01*
X147452380Y-77614285D01*
X147785714Y-76995238D02*
X147880952Y-76947619D01*
X148071428Y-76947619D01*
X148166666Y-76995238D01*
X148214285Y-77090476D01*
X148214285Y-77138095D01*
X148166666Y-77233333D01*
X148071428Y-77280952D01*
X147928571Y-77280952D01*
X147833333Y-77328571D01*
X147785714Y-77423809D01*
X147785714Y-77471428D01*
X147833333Y-77566666D01*
X147928571Y-77614285D01*
X148071428Y-77614285D01*
X148166666Y-77566666D01*
X148642857Y-76947619D02*
X148642857Y-77947619D01*
X148738095Y-77328571D02*
X149023809Y-76947619D01*
X149023809Y-77614285D02*
X148642857Y-77233333D01*
X149452380Y-76947619D02*
X149452380Y-77614285D01*
X149452380Y-77947619D02*
X149404761Y-77900000D01*
X149452380Y-77852380D01*
X149500000Y-77900000D01*
X149452380Y-77947619D01*
X149452380Y-77852380D01*
D11*
X131013748Y-63240000D02*
X131536252Y-63240000D01*
X131013748Y-64660000D02*
X131536252Y-64660000D01*
X132810000Y-61128733D02*
X132810000Y-61471267D01*
X131790000Y-61128733D02*
X131790000Y-61471267D01*
X129490000Y-60371267D02*
X129490000Y-60028733D01*
X130510000Y-60371267D02*
X130510000Y-60028733D01*
X134913748Y-60490000D02*
X137686252Y-60490000D01*
X134913748Y-63910000D02*
X137686252Y-63910000D01*
X134621267Y-68660000D02*
X134278733Y-68660000D01*
X134621267Y-67640000D02*
X134278733Y-67640000D01*
X134621267Y-70160000D02*
X134278733Y-70160000D01*
X134621267Y-69140000D02*
X134278733Y-69140000D01*
D10*
X131441666Y-66052380D02*
X131775000Y-65576190D01*
X132013095Y-66052380D02*
X132013095Y-65052380D01*
X131632142Y-65052380D01*
X131536904Y-65100000D01*
X131489285Y-65147619D01*
X131441666Y-65242857D01*
X131441666Y-65385714D01*
X131489285Y-65480952D01*
X131536904Y-65528571D01*
X131632142Y-65576190D01*
X132013095Y-65576190D01*
X130584523Y-65385714D02*
X130584523Y-66052380D01*
X130822619Y-65004761D02*
X131060714Y-65719047D01*
X130441666Y-65719047D01*
X131227142Y-61133333D02*
X131274761Y-61085714D01*
X131322380Y-60942857D01*
X131322380Y-60847619D01*
X131274761Y-60704761D01*
X131179523Y-60609523D01*
X131084285Y-60561904D01*
X130893809Y-60514285D01*
X130750952Y-60514285D01*
X130560476Y-60561904D01*
X130465238Y-60609523D01*
X130370000Y-60704761D01*
X130322380Y-60847619D01*
X130322380Y-60942857D01*
X130370000Y-61085714D01*
X130417619Y-61133333D01*
X130750952Y-61704761D02*
X130703333Y-61609523D01*
X130655714Y-61561904D01*
X130560476Y-61514285D01*
X130512857Y-61514285D01*
X130417619Y-61561904D01*
X130370000Y-61609523D01*
X130322380Y-61704761D01*
X130322380Y-61895238D01*
X130370000Y-61990476D01*
X130417619Y-62038095D01*
X130512857Y-62085714D01*
X130560476Y-62085714D01*
X130655714Y-62038095D01*
X130703333Y-61990476D01*
X130750952Y-61895238D01*
X130750952Y-61704761D01*
X130798571Y-61609523D01*
X130846190Y-61561904D01*
X130941428Y-61514285D01*
X131131904Y-61514285D01*
X131227142Y-61561904D01*
X131274761Y-61609523D01*
X131322380Y-61704761D01*
X131322380Y-61895238D01*
X131274761Y-61990476D01*
X131227142Y-62038095D01*
X131131904Y-62085714D01*
X130941428Y-62085714D01*
X130846190Y-62038095D01*
X130798571Y-61990476D01*
X130750952Y-61895238D01*
X131787142Y-60033333D02*
X131834761Y-59985714D01*
X131882380Y-59842857D01*
X131882380Y-59747619D01*
X131834761Y-59604761D01*
X131739523Y-59509523D01*
X131644285Y-59461904D01*
X131453809Y-59414285D01*
X131310952Y-59414285D01*
X131120476Y-59461904D01*
X131025238Y-59509523D01*
X130930000Y-59604761D01*
X130882380Y-59747619D01*
X130882380Y-59842857D01*
X130930000Y-59985714D01*
X130977619Y-60033333D01*
X130882380Y-60366666D02*
X130882380Y-61033333D01*
X131882380Y-60604761D01*
X136466666Y-65207142D02*
X136514285Y-65254761D01*
X136657142Y-65302380D01*
X136752380Y-65302380D01*
X136895238Y-65254761D01*
X136990476Y-65159523D01*
X137038095Y-65064285D01*
X137085714Y-64873809D01*
X137085714Y-64730952D01*
X137038095Y-64540476D01*
X136990476Y-64445238D01*
X136895238Y-64350000D01*
X136752380Y-64302380D01*
X136657142Y-64302380D01*
X136514285Y-64350000D01*
X136466666Y-64397619D01*
X135561904Y-64302380D02*
X136038095Y-64302380D01*
X136085714Y-64778571D01*
X136038095Y-64730952D01*
X135942857Y-64683333D01*
X135704761Y-64683333D01*
X135609523Y-64730952D01*
X135561904Y-64778571D01*
X135514285Y-64873809D01*
X135514285Y-65111904D01*
X135561904Y-65207142D01*
X135609523Y-65254761D01*
X135704761Y-65302380D01*
X135942857Y-65302380D01*
X136038095Y-65254761D01*
X136085714Y-65207142D01*
X134616666Y-67077142D02*
X134664285Y-67124761D01*
X134807142Y-67172380D01*
X134902380Y-67172380D01*
X135045238Y-67124761D01*
X135140476Y-67029523D01*
X135188095Y-66934285D01*
X135235714Y-66743809D01*
X135235714Y-66600952D01*
X135188095Y-66410476D01*
X135140476Y-66315238D01*
X135045238Y-66220000D01*
X134902380Y-66172380D01*
X134807142Y-66172380D01*
X134664285Y-66220000D01*
X134616666Y-66267619D01*
X133759523Y-66505714D02*
X133759523Y-67172380D01*
X133997619Y-66124761D02*
X134235714Y-66839047D01*
X133616666Y-66839047D01*
X134616666Y-68577142D02*
X134664285Y-68624761D01*
X134807142Y-68672380D01*
X134902380Y-68672380D01*
X135045238Y-68624761D01*
X135140476Y-68529523D01*
X135188095Y-68434285D01*
X135235714Y-68243809D01*
X135235714Y-68100952D01*
X135188095Y-67910476D01*
X135140476Y-67815238D01*
X135045238Y-67720000D01*
X134902380Y-67672380D01*
X134807142Y-67672380D01*
X134664285Y-67720000D01*
X134616666Y-67767619D01*
X133664285Y-68672380D02*
X134235714Y-68672380D01*
X133950000Y-68672380D02*
X133950000Y-67672380D01*
X134045238Y-67815238D01*
X134140476Y-67910476D01*
X134235714Y-67958095D01*
M02*
