%TF.GenerationSoftware,KiCad,Pcbnew,5.1.5+dfsg1-2build2*%
%TF.CreationDate,2021-10-16T12:52:01+01:00*%
%TF.ProjectId,motor_driver_v1,6d6f746f-725f-4647-9269-7665725f7631,rev?*%
%TF.SameCoordinates,Original*%
%TF.FileFunction,Soldermask,Bot*%
%TF.FilePolarity,Negative*%
%FSLAX46Y46*%
G04 Gerber Fmt 4.6, Leading zero omitted, Abs format (unit mm)*
G04 Created by KiCad (PCBNEW 5.1.5+dfsg1-2build2) date 2021-10-16 12:52:01*
%MOMM*%
%LPD*%
G04 APERTURE LIST*
%ADD10O,2.100000X2.005000*%
%ADD11R,2.100000X2.005000*%
%ADD12O,3.600000X3.600000*%
%ADD13C,3.600000*%
%ADD14C,0.900000*%
%ADD15C,6.500000*%
%ADD16R,1.800000X1.800000*%
%ADD17C,1.700000*%
%ADD18R,1.700000X1.700000*%
%ADD19C,3.100000*%
%ADD20R,3.100000X3.100000*%
%ADD21O,1.800000X1.800000*%
%ADD22C,1.624000*%
%ADD23C,0.254000*%
G04 APERTURE END LIST*
D10*
%TO.C,Q5*%
X64211200Y-47726600D03*
X64211200Y-50266600D03*
D11*
X64211200Y-52806600D03*
D12*
X47551200Y-50266600D03*
%TD*%
D10*
%TO.C,Q4*%
X131572000Y-42519600D03*
X131572000Y-39979600D03*
D11*
X131572000Y-37439600D03*
D13*
X148232000Y-39979600D03*
%TD*%
D14*
%TO.C,H4*%
X50211056Y-59516944D03*
X48514000Y-58814000D03*
X46816944Y-59516944D03*
X46114000Y-61214000D03*
X46816944Y-62911056D03*
X48514000Y-63614000D03*
X50211056Y-62911056D03*
X50914000Y-61214000D03*
D15*
X48514000Y-61214000D03*
%TD*%
D14*
%TO.C,H3*%
X50211056Y-28528944D03*
X48514000Y-27826000D03*
X46816944Y-28528944D03*
X46114000Y-30226000D03*
X46816944Y-31923056D03*
X48514000Y-32626000D03*
X50211056Y-31923056D03*
X50914000Y-30226000D03*
D15*
X48514000Y-30226000D03*
%TD*%
D14*
%TO.C,H2*%
X149271056Y-59516944D03*
X147574000Y-58814000D03*
X145876944Y-59516944D03*
X145174000Y-61214000D03*
X145876944Y-62911056D03*
X147574000Y-63614000D03*
X149271056Y-62911056D03*
X149974000Y-61214000D03*
D15*
X147574000Y-61214000D03*
%TD*%
D14*
%TO.C,H1*%
X149271056Y-28528944D03*
X147574000Y-27826000D03*
X145876944Y-28528944D03*
X145174000Y-30226000D03*
X145876944Y-31923056D03*
X147574000Y-32626000D03*
X149271056Y-31923056D03*
X149974000Y-30226000D03*
D15*
X147574000Y-30226000D03*
%TD*%
D16*
%TO.C,J6*%
X82042000Y-60452000D03*
%TD*%
D17*
%TO.C,C5*%
X110744000Y-62912000D03*
D18*
X110744000Y-57912000D03*
%TD*%
D17*
%TO.C,C10*%
X89408000Y-62912000D03*
D18*
X89408000Y-57912000D03*
%TD*%
D10*
%TO.C,Q8*%
X131549000Y-53086000D03*
X131549000Y-50546000D03*
D11*
X131549000Y-48006000D03*
D12*
X148209000Y-50546000D03*
%TD*%
D10*
%TO.C,Q7*%
X118006000Y-48006000D03*
X118006000Y-50546000D03*
D11*
X118006000Y-53086000D03*
D12*
X101346000Y-50546000D03*
%TD*%
D10*
%TO.C,Q6*%
X78079600Y-53035200D03*
X78079600Y-50495200D03*
D11*
X78079600Y-47955200D03*
D12*
X94739600Y-50495200D03*
%TD*%
D10*
%TO.C,Q3*%
X118006000Y-37439600D03*
X118006000Y-39979600D03*
D11*
X118006000Y-42519600D03*
D12*
X101346000Y-39979600D03*
%TD*%
D10*
%TO.C,Q2*%
X78130400Y-42519600D03*
X78130400Y-39979600D03*
D11*
X78130400Y-37439600D03*
D12*
X94790400Y-39979600D03*
%TD*%
D10*
%TO.C,Q1*%
X64208800Y-37211000D03*
X64208800Y-39751000D03*
D11*
X64208800Y-42291000D03*
D12*
X47548800Y-39751000D03*
%TD*%
D19*
%TO.C,J5*%
X97790000Y-60960000D03*
D20*
X102870000Y-60960000D03*
%TD*%
D21*
%TO.C,J4*%
X126492000Y-60452000D03*
X129032000Y-60452000D03*
D16*
X131572000Y-60452000D03*
%TD*%
D19*
%TO.C,J3*%
X127254000Y-30480000D03*
D20*
X122174000Y-30480000D03*
%TD*%
D21*
%TO.C,J2*%
X71628000Y-61976000D03*
X69088000Y-61976000D03*
D16*
X66548000Y-61976000D03*
%TD*%
D19*
%TO.C,J1*%
X73660000Y-30480000D03*
D20*
X68580000Y-30480000D03*
%TD*%
D22*
%TO.C,F2*%
X121920000Y-58928000D03*
X116820000Y-58928000D03*
%TD*%
%TO.C,F1*%
X75164000Y-57658000D03*
X80264000Y-57658000D03*
%TD*%
D23*
G36*
X122936000Y-38555394D02*
G01*
X120941197Y-40550197D01*
X120925403Y-40569443D01*
X120913667Y-40591399D01*
X120906440Y-40615224D01*
X120904000Y-40640000D01*
X120906440Y-40664776D01*
X120913667Y-40688601D01*
X120929400Y-40716200D01*
X121285000Y-41190333D01*
X121285000Y-51308000D01*
X118237000Y-51308000D01*
X118237000Y-49657000D01*
X119634000Y-49657000D01*
X119658776Y-49654560D01*
X119682601Y-49647333D01*
X119704557Y-49635597D01*
X119723803Y-49619803D01*
X119739597Y-49600557D01*
X119751333Y-49578601D01*
X119758560Y-49554776D01*
X119761000Y-49530000D01*
X119761000Y-41783000D01*
X119758560Y-41758224D01*
X119751333Y-41734399D01*
X119739597Y-41712443D01*
X119723803Y-41693197D01*
X118961803Y-40931197D01*
X118942557Y-40915403D01*
X118920601Y-40903667D01*
X118896776Y-40896440D01*
X118872000Y-40894000D01*
X118237000Y-40894000D01*
X118237000Y-39116000D01*
X120142000Y-39116000D01*
X120166776Y-39113560D01*
X120190601Y-39106333D01*
X120212557Y-39094597D01*
X120231803Y-39078803D01*
X121374803Y-37935803D01*
X121390597Y-37916557D01*
X121402333Y-37894601D01*
X121409560Y-37870776D01*
X121412000Y-37846000D01*
X121412000Y-31877000D01*
X122936000Y-31877000D01*
X122936000Y-38555394D01*
G37*
X122936000Y-38555394D02*
X120941197Y-40550197D01*
X120925403Y-40569443D01*
X120913667Y-40591399D01*
X120906440Y-40615224D01*
X120904000Y-40640000D01*
X120906440Y-40664776D01*
X120913667Y-40688601D01*
X120929400Y-40716200D01*
X121285000Y-41190333D01*
X121285000Y-51308000D01*
X118237000Y-51308000D01*
X118237000Y-49657000D01*
X119634000Y-49657000D01*
X119658776Y-49654560D01*
X119682601Y-49647333D01*
X119704557Y-49635597D01*
X119723803Y-49619803D01*
X119739597Y-49600557D01*
X119751333Y-49578601D01*
X119758560Y-49554776D01*
X119761000Y-49530000D01*
X119761000Y-41783000D01*
X119758560Y-41758224D01*
X119751333Y-41734399D01*
X119739597Y-41712443D01*
X119723803Y-41693197D01*
X118961803Y-40931197D01*
X118942557Y-40915403D01*
X118920601Y-40903667D01*
X118896776Y-40896440D01*
X118872000Y-40894000D01*
X118237000Y-40894000D01*
X118237000Y-39116000D01*
X120142000Y-39116000D01*
X120166776Y-39113560D01*
X120190601Y-39106333D01*
X120212557Y-39094597D01*
X120231803Y-39078803D01*
X121374803Y-37935803D01*
X121390597Y-37916557D01*
X121402333Y-37894601D01*
X121409560Y-37870776D01*
X121412000Y-37846000D01*
X121412000Y-31877000D01*
X122936000Y-31877000D01*
X122936000Y-38555394D01*
G36*
X126947394Y-31750000D02*
G01*
X126529197Y-32168197D01*
X126513403Y-32187443D01*
X126501667Y-32209399D01*
X126494440Y-32233224D01*
X126492000Y-32258000D01*
X126492000Y-36322000D01*
X126494440Y-36346776D01*
X126501667Y-36370601D01*
X126513403Y-36392557D01*
X126529197Y-36411803D01*
X129323197Y-39205803D01*
X129342443Y-39221597D01*
X129364399Y-39233333D01*
X129388224Y-39240560D01*
X129413000Y-39243000D01*
X131191000Y-39243000D01*
X131191000Y-40767000D01*
X129921000Y-40767000D01*
X129896224Y-40769440D01*
X129872399Y-40776667D01*
X129850443Y-40788403D01*
X129831197Y-40804197D01*
X129815403Y-40823443D01*
X129803667Y-40845399D01*
X129796440Y-40869224D01*
X129794000Y-40894000D01*
X129794000Y-48768000D01*
X129796440Y-48792776D01*
X129803667Y-48816601D01*
X129815403Y-48838557D01*
X129831197Y-48857803D01*
X130937000Y-49963606D01*
X130937000Y-51308000D01*
X130222376Y-51308000D01*
X128397000Y-49726008D01*
X128397000Y-40386000D01*
X128394560Y-40361224D01*
X128387333Y-40337399D01*
X128375597Y-40315443D01*
X128359803Y-40296197D01*
X124968000Y-36904394D01*
X124968000Y-31680031D01*
X125978872Y-30781478D01*
X126947394Y-31750000D01*
G37*
X126947394Y-31750000D02*
X126529197Y-32168197D01*
X126513403Y-32187443D01*
X126501667Y-32209399D01*
X126494440Y-32233224D01*
X126492000Y-32258000D01*
X126492000Y-36322000D01*
X126494440Y-36346776D01*
X126501667Y-36370601D01*
X126513403Y-36392557D01*
X126529197Y-36411803D01*
X129323197Y-39205803D01*
X129342443Y-39221597D01*
X129364399Y-39233333D01*
X129388224Y-39240560D01*
X129413000Y-39243000D01*
X131191000Y-39243000D01*
X131191000Y-40767000D01*
X129921000Y-40767000D01*
X129896224Y-40769440D01*
X129872399Y-40776667D01*
X129850443Y-40788403D01*
X129831197Y-40804197D01*
X129815403Y-40823443D01*
X129803667Y-40845399D01*
X129796440Y-40869224D01*
X129794000Y-40894000D01*
X129794000Y-48768000D01*
X129796440Y-48792776D01*
X129803667Y-48816601D01*
X129815403Y-48838557D01*
X129831197Y-48857803D01*
X130937000Y-49963606D01*
X130937000Y-51308000D01*
X130222376Y-51308000D01*
X128397000Y-49726008D01*
X128397000Y-40386000D01*
X128394560Y-40361224D01*
X128387333Y-40337399D01*
X128375597Y-40315443D01*
X128359803Y-40296197D01*
X124968000Y-36904394D01*
X124968000Y-31680031D01*
X125978872Y-30781478D01*
X126947394Y-31750000D01*
G36*
X80772000Y-41454606D02*
G01*
X80772000Y-49858394D01*
X79449394Y-51181000D01*
X78740000Y-51181000D01*
X78740000Y-49911000D01*
X78867000Y-49911000D01*
X78891776Y-49908560D01*
X78915601Y-49901333D01*
X78937557Y-49889597D01*
X78956803Y-49873803D01*
X79464803Y-49365803D01*
X79480597Y-49346557D01*
X79492333Y-49324601D01*
X79499560Y-49300776D01*
X79502000Y-49276000D01*
X79502000Y-42037000D01*
X79499560Y-42012224D01*
X79492333Y-41988399D01*
X79480597Y-41966443D01*
X79464803Y-41947197D01*
X78406478Y-40888872D01*
X79253437Y-39936043D01*
X80772000Y-41454606D01*
G37*
X80772000Y-41454606D02*
X80772000Y-49858394D01*
X79449394Y-51181000D01*
X78740000Y-51181000D01*
X78740000Y-49911000D01*
X78867000Y-49911000D01*
X78891776Y-49908560D01*
X78915601Y-49901333D01*
X78937557Y-49889597D01*
X78956803Y-49873803D01*
X79464803Y-49365803D01*
X79480597Y-49346557D01*
X79492333Y-49324601D01*
X79499560Y-49300776D01*
X79502000Y-49276000D01*
X79502000Y-42037000D01*
X79499560Y-42012224D01*
X79492333Y-41988399D01*
X79480597Y-41966443D01*
X79464803Y-41947197D01*
X78406478Y-40888872D01*
X79253437Y-39936043D01*
X80772000Y-41454606D01*
G36*
X74422000Y-36195000D02*
G01*
X74424440Y-36219776D01*
X74431667Y-36243601D01*
X74443403Y-36265557D01*
X74459197Y-36284803D01*
X77470000Y-39295606D01*
X77470000Y-40767000D01*
X76760606Y-40767000D01*
X72898000Y-36904394D01*
X72898000Y-31877000D01*
X74422000Y-31877000D01*
X74422000Y-36195000D01*
G37*
X74422000Y-36195000D02*
X74424440Y-36219776D01*
X74431667Y-36243601D01*
X74443403Y-36265557D01*
X74459197Y-36284803D01*
X77470000Y-39295606D01*
X77470000Y-40767000D01*
X76760606Y-40767000D01*
X72898000Y-36904394D01*
X72898000Y-31877000D01*
X74422000Y-31877000D01*
X74422000Y-36195000D01*
G36*
X69215000Y-36015394D02*
G01*
X64844394Y-40386000D01*
X63500000Y-40386000D01*
X63475224Y-40388440D01*
X63451399Y-40395667D01*
X63429443Y-40407403D01*
X63410197Y-40423197D01*
X62013197Y-41820197D01*
X61997403Y-41839443D01*
X61985667Y-41861399D01*
X61978440Y-41885224D01*
X61976000Y-41910000D01*
X61976000Y-49403000D01*
X61978440Y-49427776D01*
X61985667Y-49451601D01*
X61997403Y-49473557D01*
X62013197Y-49492803D01*
X62032443Y-49508597D01*
X62054399Y-49520333D01*
X62078224Y-49527560D01*
X62103000Y-49530000D01*
X63754000Y-49530000D01*
X63754000Y-50927000D01*
X61520606Y-50927000D01*
X60706000Y-50112394D01*
X60706000Y-41200606D01*
X62790606Y-39116000D01*
X64262000Y-39116000D01*
X64286776Y-39113560D01*
X64310601Y-39106333D01*
X64332557Y-39094597D01*
X64351803Y-39078803D01*
X64367597Y-39059557D01*
X64379333Y-39037601D01*
X64386560Y-39013776D01*
X64389000Y-38989000D01*
X64389000Y-38786257D01*
X67782420Y-35267155D01*
X67797862Y-35247626D01*
X67809197Y-35225460D01*
X67815990Y-35201508D01*
X67818000Y-35179000D01*
X67818000Y-32131000D01*
X69215000Y-32131000D01*
X69215000Y-36015394D01*
G37*
X69215000Y-36015394D02*
X64844394Y-40386000D01*
X63500000Y-40386000D01*
X63475224Y-40388440D01*
X63451399Y-40395667D01*
X63429443Y-40407403D01*
X63410197Y-40423197D01*
X62013197Y-41820197D01*
X61997403Y-41839443D01*
X61985667Y-41861399D01*
X61978440Y-41885224D01*
X61976000Y-41910000D01*
X61976000Y-49403000D01*
X61978440Y-49427776D01*
X61985667Y-49451601D01*
X61997403Y-49473557D01*
X62013197Y-49492803D01*
X62032443Y-49508597D01*
X62054399Y-49520333D01*
X62078224Y-49527560D01*
X62103000Y-49530000D01*
X63754000Y-49530000D01*
X63754000Y-50927000D01*
X61520606Y-50927000D01*
X60706000Y-50112394D01*
X60706000Y-41200606D01*
X62790606Y-39116000D01*
X64262000Y-39116000D01*
X64286776Y-39113560D01*
X64310601Y-39106333D01*
X64332557Y-39094597D01*
X64351803Y-39078803D01*
X64367597Y-39059557D01*
X64379333Y-39037601D01*
X64386560Y-39013776D01*
X64389000Y-38989000D01*
X64389000Y-38786257D01*
X67782420Y-35267155D01*
X67797862Y-35247626D01*
X67809197Y-35225460D01*
X67815990Y-35201508D01*
X67818000Y-35179000D01*
X67818000Y-32131000D01*
X69215000Y-32131000D01*
X69215000Y-36015394D01*
M02*
