%TF.GenerationSoftware,KiCad,Pcbnew,5.1.5+dfsg1-2build2*%
%TF.CreationDate,2021-10-16T12:52:01+01:00*%
%TF.ProjectId,motor_driver_v1,6d6f746f-725f-4647-9269-7665725f7631,rev?*%
%TF.SameCoordinates,Original*%
%TF.FileFunction,Copper,L2,Bot*%
%TF.FilePolarity,Positive*%
%FSLAX46Y46*%
G04 Gerber Fmt 4.6, Leading zero omitted, Abs format (unit mm)*
G04 Created by KiCad (PCBNEW 5.1.5+dfsg1-2build2) date 2021-10-16 12:52:01*
%MOMM*%
%LPD*%
G04 APERTURE LIST*
%TA.AperFunction,ComponentPad*%
%ADD10O,2.000000X1.905000*%
%TD*%
%TA.AperFunction,ComponentPad*%
%ADD11R,2.000000X1.905000*%
%TD*%
%TA.AperFunction,ComponentPad*%
%ADD12O,3.500000X3.500000*%
%TD*%
%TA.AperFunction,ComponentPad*%
%ADD13C,3.500000*%
%TD*%
%TA.AperFunction,ComponentPad*%
%ADD14C,0.800000*%
%TD*%
%TA.AperFunction,ComponentPad*%
%ADD15C,6.400000*%
%TD*%
%TA.AperFunction,ComponentPad*%
%ADD16R,1.700000X1.700000*%
%TD*%
%TA.AperFunction,ComponentPad*%
%ADD17C,1.600000*%
%TD*%
%TA.AperFunction,ComponentPad*%
%ADD18R,1.600000X1.600000*%
%TD*%
%TA.AperFunction,ComponentPad*%
%ADD19C,3.000000*%
%TD*%
%TA.AperFunction,ComponentPad*%
%ADD20R,3.000000X3.000000*%
%TD*%
%TA.AperFunction,ComponentPad*%
%ADD21O,1.700000X1.700000*%
%TD*%
%TA.AperFunction,ComponentPad*%
%ADD22C,1.524000*%
%TD*%
%TA.AperFunction,ViaPad*%
%ADD23C,0.800000*%
%TD*%
%TA.AperFunction,Conductor*%
%ADD24C,1.000000*%
%TD*%
%TA.AperFunction,Conductor*%
%ADD25C,0.500000*%
%TD*%
%TA.AperFunction,Conductor*%
%ADD26C,1.250000*%
%TD*%
%TA.AperFunction,Conductor*%
%ADD27C,1.500000*%
%TD*%
%TA.AperFunction,Conductor*%
%ADD28C,0.750000*%
%TD*%
%TA.AperFunction,Conductor*%
%ADD29C,0.250000*%
%TD*%
%TA.AperFunction,Conductor*%
%ADD30C,0.254000*%
%TD*%
G04 APERTURE END LIST*
D10*
%TO.P,Q5,3*%
%TO.N,GND*%
X64211200Y-47726600D03*
%TO.P,Q5,2*%
%TO.N,Net-(C1-Pad2)*%
X64211200Y-50266600D03*
D11*
%TO.P,Q5,1*%
%TO.N,PWM1*%
X64211200Y-52806600D03*
D12*
%TO.P,Q5,*%
%TO.N,Net-(H6-Pad1)*%
X47551200Y-50266600D03*
%TD*%
D10*
%TO.P,Q4,3*%
%TO.N,Net-(IC4-Pad3)*%
X131572000Y-42519600D03*
%TO.P,Q4,2*%
%TO.N,Net-(C2-Pad1)*%
X131572000Y-39979600D03*
D11*
%TO.P,Q4,1*%
%TO.N,PWM4*%
X131572000Y-37439600D03*
D13*
%TO.P,Q4,*%
%TO.N,Net-(H11-Pad1)*%
X148232000Y-39979600D03*
%TD*%
D14*
%TO.P,H4,1*%
%TO.N,GND*%
X50211056Y-59516944D03*
X48514000Y-58814000D03*
X46816944Y-59516944D03*
X46114000Y-61214000D03*
X46816944Y-62911056D03*
X48514000Y-63614000D03*
X50211056Y-62911056D03*
X50914000Y-61214000D03*
D15*
X48514000Y-61214000D03*
%TD*%
D14*
%TO.P,H3,1*%
%TO.N,GND*%
X50211056Y-28528944D03*
X48514000Y-27826000D03*
X46816944Y-28528944D03*
X46114000Y-30226000D03*
X46816944Y-31923056D03*
X48514000Y-32626000D03*
X50211056Y-31923056D03*
X50914000Y-30226000D03*
D15*
X48514000Y-30226000D03*
%TD*%
D14*
%TO.P,H2,1*%
%TO.N,GND*%
X149271056Y-59516944D03*
X147574000Y-58814000D03*
X145876944Y-59516944D03*
X145174000Y-61214000D03*
X145876944Y-62911056D03*
X147574000Y-63614000D03*
X149271056Y-62911056D03*
X149974000Y-61214000D03*
D15*
X147574000Y-61214000D03*
%TD*%
D14*
%TO.P,H1,1*%
%TO.N,GND*%
X149271056Y-28528944D03*
X147574000Y-27826000D03*
X145876944Y-28528944D03*
X145174000Y-30226000D03*
X145876944Y-31923056D03*
X147574000Y-32626000D03*
X149271056Y-31923056D03*
X149974000Y-30226000D03*
D15*
X147574000Y-30226000D03*
%TD*%
D16*
%TO.P,J6,1*%
%TO.N,+3V3*%
X82042000Y-60452000D03*
%TD*%
D17*
%TO.P,C5,2*%
%TO.N,GND*%
X110744000Y-62912000D03*
D18*
%TO.P,C5,1*%
%TO.N,VCC*%
X110744000Y-57912000D03*
%TD*%
D17*
%TO.P,C10,2*%
%TO.N,GND*%
X89408000Y-62912000D03*
D18*
%TO.P,C10,1*%
%TO.N,VCC*%
X89408000Y-57912000D03*
%TD*%
D10*
%TO.P,Q8,3*%
%TO.N,GND*%
X131549000Y-53086000D03*
%TO.P,Q8,2*%
%TO.N,Net-(C2-Pad1)*%
X131549000Y-50546000D03*
D11*
%TO.P,Q8,1*%
%TO.N,PWM4*%
X131549000Y-48006000D03*
D12*
%TO.P,Q8,*%
%TO.N,Net-(H12-Pad1)*%
X148209000Y-50546000D03*
%TD*%
D10*
%TO.P,Q7,3*%
%TO.N,GND*%
X118006000Y-48006000D03*
%TO.P,Q7,2*%
%TO.N,Net-(C2-Pad2)*%
X118006000Y-50546000D03*
D11*
%TO.P,Q7,1*%
%TO.N,PWM3*%
X118006000Y-53086000D03*
D12*
%TO.P,Q7,*%
%TO.N,Net-(H10-Pad1)*%
X101346000Y-50546000D03*
%TD*%
D10*
%TO.P,Q6,3*%
%TO.N,GND*%
X78079600Y-53035200D03*
%TO.P,Q6,2*%
%TO.N,Net-(C1-Pad1)*%
X78079600Y-50495200D03*
D11*
%TO.P,Q6,1*%
%TO.N,PWM2*%
X78079600Y-47955200D03*
D12*
%TO.P,Q6,*%
%TO.N,Net-(H8-Pad1)*%
X94739600Y-50495200D03*
%TD*%
D10*
%TO.P,Q3,3*%
%TO.N,Net-(IC4-Pad3)*%
X118006000Y-37439600D03*
%TO.P,Q3,2*%
%TO.N,Net-(C2-Pad2)*%
X118006000Y-39979600D03*
D11*
%TO.P,Q3,1*%
%TO.N,PWM3*%
X118006000Y-42519600D03*
D12*
%TO.P,Q3,*%
%TO.N,Net-(H9-Pad1)*%
X101346000Y-39979600D03*
%TD*%
D10*
%TO.P,Q2,3*%
%TO.N,Net-(IC2-Pad3)*%
X78130400Y-42519600D03*
%TO.P,Q2,2*%
%TO.N,Net-(C1-Pad1)*%
X78130400Y-39979600D03*
D11*
%TO.P,Q2,1*%
%TO.N,PWM2*%
X78130400Y-37439600D03*
D12*
%TO.P,Q2,*%
%TO.N,Net-(H7-Pad1)*%
X94790400Y-39979600D03*
%TD*%
D10*
%TO.P,Q1,3*%
%TO.N,Net-(IC2-Pad3)*%
X64208800Y-37211000D03*
%TO.P,Q1,2*%
%TO.N,Net-(C1-Pad2)*%
X64208800Y-39751000D03*
D11*
%TO.P,Q1,1*%
%TO.N,PWM1*%
X64208800Y-42291000D03*
D12*
%TO.P,Q1,*%
%TO.N,Net-(H5-Pad1)*%
X47548800Y-39751000D03*
%TD*%
D19*
%TO.P,J5,2*%
%TO.N,VCC*%
X97790000Y-60960000D03*
D20*
%TO.P,J5,1*%
%TO.N,GND*%
X102870000Y-60960000D03*
%TD*%
D21*
%TO.P,J4,3*%
%TO.N,I_MES2*%
X126492000Y-60452000D03*
%TO.P,J4,2*%
%TO.N,IN4*%
X129032000Y-60452000D03*
D16*
%TO.P,J4,1*%
%TO.N,IN3*%
X131572000Y-60452000D03*
%TD*%
D19*
%TO.P,J3,2*%
%TO.N,Net-(C2-Pad1)*%
X127254000Y-30480000D03*
D20*
%TO.P,J3,1*%
%TO.N,Net-(C2-Pad2)*%
X122174000Y-30480000D03*
%TD*%
D21*
%TO.P,J2,3*%
%TO.N,I_MES1*%
X71628000Y-61976000D03*
%TO.P,J2,2*%
%TO.N,IN2*%
X69088000Y-61976000D03*
D16*
%TO.P,J2,1*%
%TO.N,IN1*%
X66548000Y-61976000D03*
%TD*%
D19*
%TO.P,J1,2*%
%TO.N,Net-(C1-Pad1)*%
X73660000Y-30480000D03*
D20*
%TO.P,J1,1*%
%TO.N,Net-(C1-Pad2)*%
X68580000Y-30480000D03*
%TD*%
D22*
%TO.P,F2,2*%
%TO.N,Net-(F2-Pad2)*%
X121920000Y-58928000D03*
%TO.P,F2,1*%
%TO.N,VCC*%
X116820000Y-58928000D03*
%TD*%
%TO.P,F1,2*%
%TO.N,Net-(F1-Pad2)*%
X75164000Y-57658000D03*
%TO.P,F1,1*%
%TO.N,VCC*%
X80264000Y-57658000D03*
%TD*%
D23*
%TO.N,GND*%
X67310000Y-40005000D03*
X67945000Y-45720000D03*
X71755000Y-44450000D03*
X74295000Y-39370000D03*
X81280000Y-33655000D03*
X61595000Y-54610000D03*
X67945000Y-55245000D03*
X127508000Y-36322000D03*
X133604000Y-32766000D03*
X142240000Y-27940000D03*
X139700000Y-27940000D03*
X137160000Y-27940000D03*
X134620000Y-27940000D03*
X132080000Y-27940000D03*
X132080000Y-30480000D03*
X134620000Y-30480000D03*
X137160000Y-33020000D03*
X137160000Y-30480000D03*
X139700000Y-30480000D03*
X139700000Y-33020000D03*
X142240000Y-33020000D03*
X142240000Y-30480000D03*
X116840000Y-27940000D03*
X116840000Y-30480000D03*
X114300000Y-30480000D03*
X114300000Y-33020000D03*
X111760000Y-33020000D03*
X111760000Y-30480000D03*
X111760000Y-30480000D03*
X114300000Y-27940000D03*
X111760000Y-27940000D03*
X109220000Y-27940000D03*
X109220000Y-30480000D03*
X109220000Y-33020000D03*
X106680000Y-33020000D03*
X106680000Y-30480000D03*
X106680000Y-27940000D03*
X104140000Y-27940000D03*
X104140000Y-30480000D03*
X104140000Y-33020000D03*
X101600000Y-33020000D03*
X104140000Y-30480000D03*
X101600000Y-30480000D03*
X101600000Y-27940000D03*
X99060000Y-30480000D03*
X99060000Y-33020000D03*
X93980000Y-33020000D03*
X96520000Y-33020000D03*
X93980000Y-33020000D03*
X91440000Y-33020000D03*
X86360000Y-33020000D03*
X88900000Y-33020000D03*
X83820000Y-33020000D03*
X83820000Y-30480000D03*
X81280000Y-30480000D03*
X78740000Y-30480000D03*
X78740000Y-27940000D03*
X81280000Y-27940000D03*
X86360000Y-27940000D03*
X86360000Y-30480000D03*
X83820000Y-27940000D03*
X91440000Y-27940000D03*
X88900000Y-30480000D03*
X88900000Y-27940000D03*
X91440000Y-30480000D03*
X93980000Y-27940000D03*
X93980000Y-30480000D03*
X96520000Y-30480000D03*
X96520000Y-27940000D03*
X99060000Y-27940000D03*
X63500000Y-27940000D03*
X63500000Y-30480000D03*
X60960000Y-30480000D03*
X58420000Y-33020000D03*
X58420000Y-30480000D03*
X58420000Y-27940000D03*
X60960000Y-27940000D03*
X53340000Y-27940000D03*
X55880000Y-27940000D03*
X55880000Y-30480000D03*
X53340000Y-30480000D03*
X55880000Y-33020000D03*
X60960000Y-33020000D03*
X63500000Y-33020000D03*
X45720000Y-55880000D03*
X48260000Y-55880000D03*
X50800000Y-55880000D03*
X53340000Y-55880000D03*
X55880000Y-55880000D03*
X58420000Y-55880000D03*
X60960000Y-55880000D03*
X60960000Y-58420000D03*
X58420000Y-58420000D03*
X55880000Y-58420000D03*
X53340000Y-58420000D03*
X53340000Y-60960000D03*
X53340000Y-63500000D03*
X55880000Y-63500000D03*
X55880000Y-60960000D03*
X58420000Y-60960000D03*
X58420000Y-63500000D03*
X63500000Y-63500000D03*
X60960000Y-60960000D03*
X60960000Y-63500000D03*
X63500000Y-60960000D03*
X63500000Y-58420000D03*
X63500000Y-55880000D03*
X73660000Y-63500000D03*
X76200000Y-63500000D03*
X78740000Y-63500000D03*
X81868000Y-62912000D03*
X84408000Y-62912000D03*
X86948000Y-62912000D03*
X86360000Y-60960000D03*
X83820000Y-60960000D03*
X90891010Y-64048990D03*
X93431010Y-64048990D03*
X95971010Y-64048990D03*
X98511010Y-64048990D03*
X101051010Y-64048990D03*
X103591010Y-64048990D03*
X106131010Y-64048990D03*
X114888000Y-62912000D03*
X117428000Y-62912000D03*
X119968000Y-62912000D03*
X122508000Y-62912000D03*
X125048000Y-62912000D03*
X127588000Y-62912000D03*
X130128000Y-62912000D03*
X132668000Y-62912000D03*
X137160000Y-60960000D03*
X137160000Y-63500000D03*
X139700000Y-63500000D03*
X139700000Y-60960000D03*
X142240000Y-60960000D03*
X142240000Y-63500000D03*
X142240000Y-58420000D03*
X139700000Y-58420000D03*
X137160000Y-58420000D03*
X125476000Y-44703999D03*
%TO.N,VCC*%
X74295000Y-42545000D03*
X125130114Y-42268672D03*
%TO.N,PWM2*%
X75565000Y-40640000D03*
%TO.N,IN2*%
X73025000Y-44450000D03*
%TO.N,IN1*%
X70485000Y-44450000D03*
%TO.N,+3V3*%
X126746000Y-56388000D03*
X73914000Y-55880000D03*
%TO.N,I_MES1*%
X71716000Y-53340000D03*
%TO.N,PWM3*%
X118006000Y-42519600D03*
%TO.N,IN4*%
X126746000Y-44704000D03*
%TO.N,IN3*%
X124206000Y-44704000D03*
%TD*%
D24*
%TO.N,GND*%
X67310000Y-45085000D02*
X67945000Y-45720000D01*
X67775001Y-43349999D02*
X67310000Y-43815000D01*
X71755000Y-44091998D02*
X71013001Y-43349999D01*
X71013001Y-43349999D02*
X67775001Y-43349999D01*
X71755000Y-44450000D02*
X71755000Y-44091998D01*
X67310000Y-43815000D02*
X67310000Y-45085000D01*
X67310000Y-40005000D02*
X67310000Y-43815000D01*
X78702498Y-33655000D02*
X81280000Y-33655000D01*
X67945000Y-45720000D02*
X67945000Y-55245000D01*
D25*
X127508000Y-36322000D02*
X131064000Y-32766000D01*
X131064000Y-32766000D02*
X133604000Y-32766000D01*
D24*
%TO.N,VCC*%
X74295000Y-51689000D02*
X75565000Y-52959000D01*
X74295000Y-42545000D02*
X74295000Y-51689000D01*
X75565000Y-52959000D02*
X75565000Y-54610000D01*
X78613000Y-57658000D02*
X80264000Y-57658000D01*
X75565000Y-54610000D02*
X78613000Y-57658000D01*
D26*
X117581999Y-58166001D02*
X116820000Y-58928000D01*
X122383001Y-44498706D02*
X122383001Y-48269997D01*
X119831010Y-55916990D02*
X117581999Y-58166001D01*
X124613035Y-42268672D02*
X122383001Y-44498706D01*
X125130114Y-42268672D02*
X124613035Y-42268672D01*
D27*
X122383001Y-53364999D02*
X119831010Y-55916990D01*
X122383001Y-48269997D02*
X122383001Y-53364999D01*
D28*
%TO.N,PWM1*%
X64208800Y-43993500D02*
X64208800Y-42291000D01*
X65786210Y-51279090D02*
X65786210Y-45570910D01*
X64258700Y-52806600D02*
X65786210Y-51279090D01*
X65786210Y-45570910D02*
X64208800Y-43993500D01*
X64211200Y-52806600D02*
X64258700Y-52806600D01*
%TO.N,PWM2*%
X76329600Y-47955200D02*
X78079600Y-47955200D01*
X75565000Y-47190600D02*
X76329600Y-47955200D01*
X75565000Y-40640000D02*
X75565000Y-47190600D01*
D29*
%TO.N,IN2*%
X73025000Y-46990000D02*
X73025000Y-44450000D01*
D25*
X69088000Y-61976000D02*
X69088000Y-59155962D01*
X69088000Y-59155962D02*
X70866000Y-57377962D01*
X70866000Y-57377962D02*
X70866000Y-49022000D01*
X73025000Y-46863000D02*
X73025000Y-44450000D01*
X70866000Y-49022000D02*
X73025000Y-46863000D01*
%TO.N,IN1*%
X66548000Y-61976000D02*
X66548000Y-60626000D01*
X70085001Y-57168999D02*
X68834000Y-58420000D01*
X70485000Y-44450000D02*
X70085001Y-44849999D01*
X70085001Y-44849999D02*
X70085001Y-57168999D01*
X66548000Y-60626000D02*
X68834000Y-58420000D01*
D24*
%TO.N,+3V3*%
X122743999Y-60390001D02*
X108142001Y-60390001D01*
X126746000Y-56388000D02*
X122743999Y-60390001D01*
X104902000Y-57150000D02*
X93980000Y-57150000D01*
X108142001Y-60390001D02*
X104902000Y-57150000D01*
X92130000Y-57150000D02*
X91368000Y-56388000D01*
X93980000Y-57150000D02*
X92130000Y-57150000D01*
X91368000Y-56388000D02*
X85090000Y-56388000D01*
X73514001Y-58171763D02*
X75794238Y-60452000D01*
X73514001Y-56279999D02*
X73514001Y-58171763D01*
X73914000Y-55880000D02*
X73514001Y-56279999D01*
X81026000Y-60452000D02*
X85090000Y-56388000D01*
X80264000Y-60452000D02*
X82042000Y-60452000D01*
X75794238Y-60452000D02*
X80264000Y-60452000D01*
X80264000Y-60452000D02*
X81026000Y-60452000D01*
X84256000Y-56388000D02*
X85090000Y-56388000D01*
X82042000Y-58602000D02*
X84256000Y-56388000D01*
X82042000Y-60452000D02*
X82042000Y-58602000D01*
D25*
%TO.N,I_MES1*%
X71716000Y-53340000D02*
X71716000Y-58078000D01*
X71628000Y-58166000D02*
X71628000Y-61976000D01*
X71716000Y-58078000D02*
X71628000Y-58166000D01*
D24*
%TO.N,PWM3*%
X117958500Y-53086000D02*
X118006000Y-53086000D01*
X116006000Y-51133500D02*
X117958500Y-53086000D01*
X116006000Y-46472100D02*
X116006000Y-51133500D01*
X118006000Y-44472100D02*
X116006000Y-46472100D01*
X118006000Y-42519600D02*
X118006000Y-44472100D01*
D27*
X118006000Y-53086000D02*
X117807945Y-53086000D01*
%TO.N,PWM4*%
X131572000Y-37439600D02*
X131770055Y-37439600D01*
D28*
X131549000Y-46303500D02*
X133656500Y-44196000D01*
X131549000Y-48006000D02*
X131549000Y-46303500D01*
X133656500Y-44196000D02*
X133731000Y-44196000D01*
X133731000Y-44196000D02*
X135001000Y-42926000D01*
X133322000Y-37439600D02*
X131572000Y-37439600D01*
X135001000Y-39118600D02*
X133322000Y-37439600D01*
X135001000Y-42926000D02*
X135001000Y-39118600D01*
D25*
%TO.N,IN4*%
X126746000Y-44704000D02*
X126746000Y-51054000D01*
X129032000Y-53340000D02*
X129032000Y-60452000D01*
X126746000Y-51054000D02*
X129032000Y-53340000D01*
%TO.N,IN3*%
X129794000Y-57324000D02*
X131572000Y-59102000D01*
X130098990Y-57628990D02*
X131572000Y-59102000D01*
X127871990Y-51190028D02*
X130098990Y-53417028D01*
X127871990Y-44571988D02*
X127871990Y-51190028D01*
X131572000Y-59102000D02*
X131572000Y-60452000D01*
X130098990Y-53417028D02*
X130098990Y-57628990D01*
X127154001Y-43853999D02*
X127871990Y-44571988D01*
X125056001Y-43853999D02*
X127154001Y-43853999D01*
X124206000Y-44704000D02*
X125056001Y-43853999D01*
D27*
%TO.N,Net-(C1-Pad2)*%
X64208800Y-39751000D02*
X64406855Y-39751000D01*
X68580000Y-33480000D02*
X68580000Y-30480000D01*
X68580000Y-35577855D02*
X68580000Y-33480000D01*
X64406855Y-39751000D02*
X68580000Y-35577855D01*
X61341000Y-41496298D02*
X61341000Y-49896400D01*
X61341000Y-49896400D02*
X61711200Y-50266600D01*
X61711200Y-50266600D02*
X64211200Y-50266600D01*
X64208800Y-39751000D02*
X63086298Y-39751000D01*
X63086298Y-39751000D02*
X61341000Y-41496298D01*
%TO.N,Net-(C1-Pad1)*%
X78130400Y-39979600D02*
X77007898Y-39979600D01*
X79202102Y-50495200D02*
X78079600Y-50495200D01*
X80080410Y-49616892D02*
X79202102Y-50495200D01*
X78328455Y-39979600D02*
X80080410Y-41731555D01*
X80080410Y-41731555D02*
X80080410Y-49616892D01*
X78130400Y-39979600D02*
X78328455Y-39979600D01*
X73660000Y-32601320D02*
X73660000Y-30480000D01*
X77007898Y-39979600D02*
X73660000Y-36631702D01*
X73660000Y-36631702D02*
X73660000Y-32601320D01*
%TO.N,Net-(C2-Pad2)*%
X122174000Y-30480000D02*
X122174000Y-32385000D01*
X119128502Y-39979600D02*
X120523000Y-41374098D01*
X118006000Y-39979600D02*
X119128502Y-39979600D01*
X120506000Y-50546000D02*
X118006000Y-50546000D01*
X120523000Y-50529000D02*
X120506000Y-50546000D01*
X120523000Y-41374098D02*
X120523000Y-50529000D01*
X120506000Y-39979600D02*
X118006000Y-39979600D01*
X122174000Y-38311600D02*
X120506000Y-39979600D01*
X122174000Y-30480000D02*
X122174000Y-38311600D01*
%TO.N,Net-(C2-Pad1)*%
X129072000Y-39979600D02*
X131572000Y-39979600D01*
X125754001Y-36661601D02*
X129072000Y-39979600D01*
X125754001Y-31979999D02*
X125754001Y-36661601D01*
X127254000Y-30480000D02*
X125754001Y-31979999D01*
X129072000Y-49191502D02*
X129072000Y-42124000D01*
X130426498Y-50546000D02*
X129072000Y-49191502D01*
X131549000Y-50546000D02*
X130426498Y-50546000D01*
X129072000Y-42124000D02*
X129072000Y-39979600D01*
%TD*%
D30*
%TO.N,GND*%
G36*
X150724001Y-63975572D02*
G01*
X150724000Y-63975582D01*
X150724000Y-64364000D01*
X45364000Y-64364000D01*
X45364000Y-61126000D01*
X65059928Y-61126000D01*
X65059928Y-62826000D01*
X65072188Y-62950482D01*
X65108498Y-63070180D01*
X65167463Y-63180494D01*
X65246815Y-63277185D01*
X65343506Y-63356537D01*
X65453820Y-63415502D01*
X65573518Y-63451812D01*
X65698000Y-63464072D01*
X67398000Y-63464072D01*
X67522482Y-63451812D01*
X67642180Y-63415502D01*
X67752494Y-63356537D01*
X67849185Y-63277185D01*
X67928537Y-63180494D01*
X67987502Y-63070180D01*
X68009513Y-62997620D01*
X68141368Y-63129475D01*
X68384589Y-63291990D01*
X68654842Y-63403932D01*
X68941740Y-63461000D01*
X69234260Y-63461000D01*
X69521158Y-63403932D01*
X69791411Y-63291990D01*
X70034632Y-63129475D01*
X70241475Y-62922632D01*
X70358000Y-62748240D01*
X70474525Y-62922632D01*
X70681368Y-63129475D01*
X70924589Y-63291990D01*
X71194842Y-63403932D01*
X71481740Y-63461000D01*
X71774260Y-63461000D01*
X72061158Y-63403932D01*
X72331411Y-63291990D01*
X72574632Y-63129475D01*
X72781475Y-62922632D01*
X72943990Y-62679411D01*
X73055932Y-62409158D01*
X73113000Y-62122260D01*
X73113000Y-61829740D01*
X73055932Y-61542842D01*
X72943990Y-61272589D01*
X72781475Y-61029368D01*
X72574632Y-60822525D01*
X72513000Y-60781344D01*
X72513000Y-58706757D01*
X72565718Y-58805386D01*
X72707553Y-58978212D01*
X72750861Y-59013754D01*
X74952247Y-61215141D01*
X74987789Y-61258449D01*
X75160615Y-61400284D01*
X75260210Y-61453518D01*
X75357791Y-61505676D01*
X75571739Y-61570577D01*
X75794237Y-61592491D01*
X75849989Y-61587000D01*
X80624317Y-61587000D01*
X80661463Y-61656494D01*
X80740815Y-61753185D01*
X80837506Y-61832537D01*
X80947820Y-61891502D01*
X81067518Y-61927812D01*
X81192000Y-61940072D01*
X82892000Y-61940072D01*
X83016482Y-61927812D01*
X83136180Y-61891502D01*
X83246494Y-61832537D01*
X83343185Y-61753185D01*
X83422537Y-61656494D01*
X83481502Y-61546180D01*
X83517812Y-61426482D01*
X83530072Y-61302000D01*
X83530072Y-60749721D01*
X95655000Y-60749721D01*
X95655000Y-61170279D01*
X95737047Y-61582756D01*
X95897988Y-61971302D01*
X96131637Y-62320983D01*
X96429017Y-62618363D01*
X96778698Y-62852012D01*
X97167244Y-63012953D01*
X97579721Y-63095000D01*
X98000279Y-63095000D01*
X98412756Y-63012953D01*
X98801302Y-62852012D01*
X99150983Y-62618363D01*
X99448363Y-62320983D01*
X99682012Y-61971302D01*
X99842953Y-61582756D01*
X99925000Y-61170279D01*
X99925000Y-60749721D01*
X99842953Y-60337244D01*
X99682012Y-59948698D01*
X99448363Y-59599017D01*
X99150983Y-59301637D01*
X98801302Y-59067988D01*
X98412756Y-58907047D01*
X98000279Y-58825000D01*
X97579721Y-58825000D01*
X97167244Y-58907047D01*
X96778698Y-59067988D01*
X96429017Y-59301637D01*
X96131637Y-59599017D01*
X95897988Y-59948698D01*
X95737047Y-60337244D01*
X95655000Y-60749721D01*
X83530072Y-60749721D01*
X83530072Y-59602000D01*
X83525684Y-59557447D01*
X85560132Y-57523000D01*
X87969928Y-57523000D01*
X87969928Y-58712000D01*
X87982188Y-58836482D01*
X88018498Y-58956180D01*
X88077463Y-59066494D01*
X88156815Y-59163185D01*
X88253506Y-59242537D01*
X88363820Y-59301502D01*
X88483518Y-59337812D01*
X88608000Y-59350072D01*
X90208000Y-59350072D01*
X90332482Y-59337812D01*
X90452180Y-59301502D01*
X90562494Y-59242537D01*
X90659185Y-59163185D01*
X90738537Y-59066494D01*
X90797502Y-58956180D01*
X90833812Y-58836482D01*
X90846072Y-58712000D01*
X90846072Y-57523000D01*
X90897869Y-57523000D01*
X91288008Y-57913140D01*
X91323551Y-57956449D01*
X91471661Y-58078000D01*
X91496377Y-58098284D01*
X91693553Y-58203676D01*
X91907501Y-58268577D01*
X92130000Y-58290491D01*
X92185752Y-58285000D01*
X104431869Y-58285000D01*
X107300010Y-61153142D01*
X107335552Y-61196450D01*
X107508378Y-61338285D01*
X107705554Y-61443677D01*
X107919502Y-61508578D01*
X108086249Y-61525001D01*
X108086258Y-61525001D01*
X108142000Y-61530491D01*
X108197742Y-61525001D01*
X122688248Y-61525001D01*
X122743999Y-61530492D01*
X122799750Y-61525001D01*
X122799751Y-61525001D01*
X122966498Y-61508578D01*
X123180446Y-61443677D01*
X123377622Y-61338285D01*
X123550448Y-61196450D01*
X123585995Y-61153136D01*
X127587988Y-57151144D01*
X127694283Y-57021623D01*
X127799676Y-56824447D01*
X127864577Y-56610499D01*
X127886491Y-56388001D01*
X127864577Y-56165502D01*
X127799676Y-55951554D01*
X127694283Y-55754378D01*
X127552448Y-55581552D01*
X127379622Y-55439717D01*
X127182446Y-55334324D01*
X126968498Y-55269423D01*
X126745999Y-55247509D01*
X126523501Y-55269423D01*
X126309553Y-55334324D01*
X126112377Y-55439717D01*
X125982856Y-55546012D01*
X123188639Y-58340230D01*
X123158005Y-58266273D01*
X123005120Y-58037465D01*
X122810535Y-57842880D01*
X122581727Y-57689995D01*
X122327490Y-57584686D01*
X122057592Y-57531000D01*
X121782408Y-57531000D01*
X121512510Y-57584686D01*
X121258273Y-57689995D01*
X121029465Y-57842880D01*
X120834880Y-58037465D01*
X120681995Y-58266273D01*
X120576686Y-58520510D01*
X120523000Y-58790408D01*
X120523000Y-59065592D01*
X120560676Y-59255001D01*
X118274907Y-59255001D01*
X118516718Y-59013190D01*
X120311290Y-57218619D01*
X120363590Y-57202754D01*
X120604198Y-57074146D01*
X120762243Y-56944442D01*
X123314237Y-54392449D01*
X123367082Y-54349080D01*
X123421576Y-54282680D01*
X123540157Y-54138188D01*
X123553303Y-54113594D01*
X123668765Y-53897580D01*
X123747961Y-53636506D01*
X123768001Y-53433036D01*
X123768001Y-53433027D01*
X123774701Y-53365000D01*
X123768001Y-53296973D01*
X123768001Y-48201960D01*
X123747961Y-47998490D01*
X123668765Y-47737416D01*
X123643001Y-47689215D01*
X123643001Y-45572600D01*
X123715744Y-45621205D01*
X123904102Y-45699226D01*
X124104061Y-45739000D01*
X124307939Y-45739000D01*
X124507898Y-45699226D01*
X124696256Y-45621205D01*
X124865774Y-45507937D01*
X125009937Y-45363774D01*
X125123205Y-45194256D01*
X125201226Y-45005898D01*
X125212535Y-44949043D01*
X125422580Y-44738999D01*
X125711000Y-44738999D01*
X125711000Y-44805939D01*
X125750774Y-45005898D01*
X125828795Y-45194256D01*
X125861000Y-45242454D01*
X125861001Y-51010521D01*
X125856719Y-51054000D01*
X125873805Y-51227490D01*
X125924412Y-51394313D01*
X126006590Y-51548059D01*
X126089468Y-51649046D01*
X126089471Y-51649049D01*
X126117184Y-51682817D01*
X126150951Y-51710529D01*
X128147000Y-53706579D01*
X128147001Y-59257343D01*
X128085368Y-59298525D01*
X127878525Y-59505368D01*
X127762000Y-59679760D01*
X127645475Y-59505368D01*
X127438632Y-59298525D01*
X127195411Y-59136010D01*
X126925158Y-59024068D01*
X126638260Y-58967000D01*
X126345740Y-58967000D01*
X126058842Y-59024068D01*
X125788589Y-59136010D01*
X125545368Y-59298525D01*
X125338525Y-59505368D01*
X125176010Y-59748589D01*
X125064068Y-60018842D01*
X125007000Y-60305740D01*
X125007000Y-60598260D01*
X125064068Y-60885158D01*
X125176010Y-61155411D01*
X125338525Y-61398632D01*
X125545368Y-61605475D01*
X125788589Y-61767990D01*
X126058842Y-61879932D01*
X126345740Y-61937000D01*
X126638260Y-61937000D01*
X126925158Y-61879932D01*
X127195411Y-61767990D01*
X127438632Y-61605475D01*
X127645475Y-61398632D01*
X127762000Y-61224240D01*
X127878525Y-61398632D01*
X128085368Y-61605475D01*
X128328589Y-61767990D01*
X128598842Y-61879932D01*
X128885740Y-61937000D01*
X129178260Y-61937000D01*
X129465158Y-61879932D01*
X129735411Y-61767990D01*
X129978632Y-61605475D01*
X130110487Y-61473620D01*
X130132498Y-61546180D01*
X130191463Y-61656494D01*
X130270815Y-61753185D01*
X130367506Y-61832537D01*
X130477820Y-61891502D01*
X130597518Y-61927812D01*
X130722000Y-61940072D01*
X132422000Y-61940072D01*
X132546482Y-61927812D01*
X132666180Y-61891502D01*
X132776494Y-61832537D01*
X132873185Y-61753185D01*
X132952537Y-61656494D01*
X133011502Y-61546180D01*
X133047812Y-61426482D01*
X133060072Y-61302000D01*
X133060072Y-59602000D01*
X133047812Y-59477518D01*
X133011502Y-59357820D01*
X132952537Y-59247506D01*
X132873185Y-59150815D01*
X132776494Y-59071463D01*
X132666180Y-59012498D01*
X132546482Y-58976188D01*
X132447935Y-58966482D01*
X132444195Y-58928510D01*
X132393589Y-58761687D01*
X132311411Y-58607941D01*
X132272818Y-58560916D01*
X132228532Y-58506953D01*
X132228530Y-58506951D01*
X132200817Y-58473183D01*
X132167050Y-58445471D01*
X130983990Y-57262412D01*
X130983990Y-53460497D01*
X130988271Y-53417028D01*
X130983990Y-53373559D01*
X130983990Y-53373551D01*
X130971185Y-53243538D01*
X130947819Y-53166511D01*
X130920579Y-53076714D01*
X130838401Y-52922969D01*
X130755522Y-52821981D01*
X130755520Y-52821979D01*
X130727807Y-52788211D01*
X130694040Y-52760499D01*
X129560667Y-51627127D01*
X129653310Y-51703157D01*
X129893917Y-51831764D01*
X130154991Y-51910960D01*
X130358461Y-51931000D01*
X130358470Y-51931000D01*
X130426497Y-51937700D01*
X130494524Y-51931000D01*
X130725001Y-51931000D01*
X130891051Y-52019755D01*
X131190296Y-52110530D01*
X131423514Y-52133500D01*
X131674486Y-52133500D01*
X131907704Y-52110530D01*
X132206949Y-52019755D01*
X132482735Y-51872345D01*
X132724463Y-51673963D01*
X132922845Y-51432235D01*
X133070255Y-51156449D01*
X133161030Y-50857204D01*
X133191681Y-50546000D01*
X133168546Y-50311098D01*
X145824000Y-50311098D01*
X145824000Y-50780902D01*
X145915654Y-51241679D01*
X146095440Y-51675721D01*
X146356450Y-52066349D01*
X146688651Y-52398550D01*
X147079279Y-52659560D01*
X147513321Y-52839346D01*
X147974098Y-52931000D01*
X148443902Y-52931000D01*
X148904679Y-52839346D01*
X149338721Y-52659560D01*
X149729349Y-52398550D01*
X150061550Y-52066349D01*
X150322560Y-51675721D01*
X150502346Y-51241679D01*
X150594000Y-50780902D01*
X150594000Y-50311098D01*
X150502346Y-49850321D01*
X150322560Y-49416279D01*
X150061550Y-49025651D01*
X149729349Y-48693450D01*
X149338721Y-48432440D01*
X148904679Y-48252654D01*
X148443902Y-48161000D01*
X147974098Y-48161000D01*
X147513321Y-48252654D01*
X147079279Y-48432440D01*
X146688651Y-48693450D01*
X146356450Y-49025651D01*
X146095440Y-49416279D01*
X145915654Y-49850321D01*
X145824000Y-50311098D01*
X133168546Y-50311098D01*
X133161030Y-50234796D01*
X133070255Y-49935551D01*
X132922845Y-49659765D01*
X132819554Y-49533905D01*
X132903494Y-49489037D01*
X133000185Y-49409685D01*
X133079537Y-49312994D01*
X133138502Y-49202680D01*
X133174812Y-49082982D01*
X133187072Y-48958500D01*
X133187072Y-47053500D01*
X133174812Y-46929018D01*
X133138502Y-46809320D01*
X133079537Y-46699006D01*
X133000185Y-46602315D01*
X132903494Y-46522963D01*
X132808610Y-46472245D01*
X134179194Y-45101661D01*
X134294840Y-45039847D01*
X134448633Y-44913633D01*
X134480261Y-44875094D01*
X135680094Y-43675261D01*
X135718633Y-43643633D01*
X135844847Y-43489840D01*
X135938632Y-43314380D01*
X135996385Y-43123994D01*
X136011000Y-42975608D01*
X136011000Y-42975606D01*
X136015886Y-42926001D01*
X136011000Y-42876396D01*
X136011000Y-39744698D01*
X145847000Y-39744698D01*
X145847000Y-40214502D01*
X145938654Y-40675279D01*
X146118440Y-41109321D01*
X146379450Y-41499949D01*
X146711651Y-41832150D01*
X147102279Y-42093160D01*
X147536321Y-42272946D01*
X147997098Y-42364600D01*
X148466902Y-42364600D01*
X148927679Y-42272946D01*
X149361721Y-42093160D01*
X149752349Y-41832150D01*
X150084550Y-41499949D01*
X150345560Y-41109321D01*
X150525346Y-40675279D01*
X150617000Y-40214502D01*
X150617000Y-39744698D01*
X150525346Y-39283921D01*
X150345560Y-38849879D01*
X150084550Y-38459251D01*
X149752349Y-38127050D01*
X149361721Y-37866040D01*
X148927679Y-37686254D01*
X148466902Y-37594600D01*
X147997098Y-37594600D01*
X147536321Y-37686254D01*
X147102279Y-37866040D01*
X146711651Y-38127050D01*
X146379450Y-38459251D01*
X146118440Y-38849879D01*
X145938654Y-39283921D01*
X145847000Y-39744698D01*
X136011000Y-39744698D01*
X136011000Y-39168208D01*
X136015886Y-39118600D01*
X135996385Y-38920605D01*
X135938632Y-38730220D01*
X135919184Y-38693836D01*
X135844847Y-38554760D01*
X135718633Y-38400967D01*
X135680099Y-38369344D01*
X134071261Y-36760506D01*
X134039633Y-36721967D01*
X133885840Y-36595753D01*
X133710380Y-36501968D01*
X133519994Y-36444215D01*
X133371608Y-36429600D01*
X133322000Y-36424714D01*
X133272392Y-36429600D01*
X133204409Y-36429600D01*
X133197812Y-36362618D01*
X133161502Y-36242920D01*
X133102537Y-36132606D01*
X133023185Y-36035915D01*
X132926494Y-35956563D01*
X132816180Y-35897598D01*
X132696482Y-35861288D01*
X132572000Y-35849028D01*
X130572000Y-35849028D01*
X130447518Y-35861288D01*
X130327820Y-35897598D01*
X130217506Y-35956563D01*
X130120815Y-36035915D01*
X130041463Y-36132606D01*
X129982498Y-36242920D01*
X129946188Y-36362618D01*
X129933928Y-36487100D01*
X129933928Y-38392100D01*
X129946188Y-38516582D01*
X129969855Y-38594600D01*
X129645686Y-38594600D01*
X127139001Y-36087916D01*
X127139001Y-32615000D01*
X127464279Y-32615000D01*
X127876756Y-32532953D01*
X128265302Y-32372012D01*
X128614983Y-32138363D01*
X128912363Y-31840983D01*
X129146012Y-31491302D01*
X129306953Y-31102756D01*
X129389000Y-30690279D01*
X129389000Y-30269721D01*
X129306953Y-29857244D01*
X129146012Y-29468698D01*
X128912363Y-29119017D01*
X128614983Y-28821637D01*
X128265302Y-28587988D01*
X127876756Y-28427047D01*
X127464279Y-28345000D01*
X127043721Y-28345000D01*
X126631244Y-28427047D01*
X126242698Y-28587988D01*
X125893017Y-28821637D01*
X125595637Y-29119017D01*
X125361988Y-29468698D01*
X125201047Y-29857244D01*
X125119000Y-30269721D01*
X125119000Y-30656315D01*
X124822766Y-30952549D01*
X124769920Y-30995919D01*
X124596844Y-31206812D01*
X124572056Y-31253188D01*
X124468237Y-31447419D01*
X124416723Y-31617239D01*
X124389041Y-31708493D01*
X124369001Y-31911963D01*
X124369001Y-31911970D01*
X124362301Y-31979999D01*
X124369001Y-32048028D01*
X124369002Y-36593562D01*
X124362301Y-36661601D01*
X124389041Y-36933108D01*
X124468237Y-37194181D01*
X124596845Y-37434789D01*
X124726549Y-37592834D01*
X124726552Y-37592837D01*
X124769921Y-37645682D01*
X124822765Y-37689050D01*
X127687001Y-40553287D01*
X127687000Y-42192036D01*
X127687001Y-42192046D01*
X127687001Y-43146546D01*
X127648060Y-43114588D01*
X127494314Y-43032410D01*
X127327491Y-42981804D01*
X127197478Y-42968999D01*
X127197470Y-42968999D01*
X127154001Y-42964718D01*
X127110532Y-42968999D01*
X126184479Y-42968999D01*
X126299834Y-42753186D01*
X126371882Y-42515675D01*
X126396210Y-42268672D01*
X126371882Y-42021669D01*
X126299834Y-41784158D01*
X126182834Y-41565267D01*
X126025379Y-41373407D01*
X125833519Y-41215952D01*
X125614628Y-41098952D01*
X125377117Y-41026904D01*
X125192007Y-41008672D01*
X124674917Y-41008672D01*
X124613034Y-41002577D01*
X124551151Y-41008672D01*
X124551142Y-41008672D01*
X124366032Y-41026904D01*
X124128521Y-41098952D01*
X123909630Y-41215952D01*
X123717770Y-41373407D01*
X123678316Y-41421482D01*
X121908000Y-43191799D01*
X121908000Y-41442127D01*
X121914700Y-41374098D01*
X121908000Y-41306069D01*
X121908000Y-41306061D01*
X121887960Y-41102591D01*
X121886857Y-41098953D01*
X121808764Y-40841517D01*
X121761337Y-40752787D01*
X121737010Y-40707275D01*
X123105236Y-39339050D01*
X123158081Y-39295681D01*
X123231343Y-39206412D01*
X123331156Y-39084789D01*
X123350624Y-39048367D01*
X123459764Y-38844181D01*
X123538960Y-38583107D01*
X123559000Y-38379637D01*
X123559000Y-38379628D01*
X123565700Y-38311601D01*
X123559000Y-38243574D01*
X123559000Y-32618072D01*
X123674000Y-32618072D01*
X123798482Y-32605812D01*
X123918180Y-32569502D01*
X124028494Y-32510537D01*
X124125185Y-32431185D01*
X124204537Y-32334494D01*
X124263502Y-32224180D01*
X124299812Y-32104482D01*
X124312072Y-31980000D01*
X124312072Y-28980000D01*
X124299812Y-28855518D01*
X124263502Y-28735820D01*
X124204537Y-28625506D01*
X124125185Y-28528815D01*
X124028494Y-28449463D01*
X123918180Y-28390498D01*
X123798482Y-28354188D01*
X123674000Y-28341928D01*
X120674000Y-28341928D01*
X120549518Y-28354188D01*
X120429820Y-28390498D01*
X120319506Y-28449463D01*
X120222815Y-28528815D01*
X120143463Y-28625506D01*
X120084498Y-28735820D01*
X120048188Y-28855518D01*
X120035928Y-28980000D01*
X120035928Y-31980000D01*
X120048188Y-32104482D01*
X120084498Y-32224180D01*
X120143463Y-32334494D01*
X120222815Y-32431185D01*
X120319506Y-32510537D01*
X120429820Y-32569502D01*
X120549518Y-32605812D01*
X120674000Y-32618072D01*
X120789000Y-32618072D01*
X120789001Y-37737913D01*
X119932315Y-38594600D01*
X119196531Y-38594600D01*
X119153663Y-38590378D01*
X119181463Y-38567563D01*
X119379845Y-38325835D01*
X119527255Y-38050049D01*
X119618030Y-37750804D01*
X119648681Y-37439600D01*
X119618030Y-37128396D01*
X119527255Y-36829151D01*
X119379845Y-36553365D01*
X119181463Y-36311637D01*
X118939735Y-36113255D01*
X118663949Y-35965845D01*
X118364704Y-35875070D01*
X118131486Y-35852100D01*
X117880514Y-35852100D01*
X117647296Y-35875070D01*
X117348051Y-35965845D01*
X117072265Y-36113255D01*
X116830537Y-36311637D01*
X116632155Y-36553365D01*
X116484745Y-36829151D01*
X116393970Y-37128396D01*
X116363319Y-37439600D01*
X116393970Y-37750804D01*
X116484745Y-38050049D01*
X116632155Y-38325835D01*
X116830537Y-38567563D01*
X117003609Y-38709600D01*
X116830537Y-38851637D01*
X116632155Y-39093365D01*
X116484745Y-39369151D01*
X116393970Y-39668396D01*
X116363319Y-39979600D01*
X116393970Y-40290804D01*
X116484745Y-40590049D01*
X116632155Y-40865835D01*
X116735446Y-40991695D01*
X116651506Y-41036563D01*
X116554815Y-41115915D01*
X116475463Y-41212606D01*
X116416498Y-41322920D01*
X116380188Y-41442618D01*
X116367928Y-41567100D01*
X116367928Y-43472100D01*
X116380188Y-43596582D01*
X116416498Y-43716280D01*
X116475463Y-43826594D01*
X116554815Y-43923285D01*
X116651506Y-44002637D01*
X116761820Y-44061602D01*
X116799835Y-44073134D01*
X115242865Y-45630104D01*
X115199551Y-45665651D01*
X115057716Y-45838477D01*
X114952325Y-46035653D01*
X114952324Y-46035654D01*
X114887423Y-46249602D01*
X114865509Y-46472100D01*
X114871000Y-46527852D01*
X114871001Y-51077739D01*
X114865509Y-51133500D01*
X114887423Y-51355998D01*
X114952324Y-51569946D01*
X114994604Y-51649046D01*
X115057717Y-51767123D01*
X115199552Y-51939949D01*
X115242860Y-51975491D01*
X116367928Y-53100560D01*
X116367928Y-54038500D01*
X116380188Y-54162982D01*
X116416498Y-54282680D01*
X116475463Y-54392994D01*
X116554815Y-54489685D01*
X116651506Y-54569037D01*
X116761820Y-54628002D01*
X116881518Y-54664312D01*
X117006000Y-54676572D01*
X119006000Y-54676572D01*
X119124404Y-54664911D01*
X118803558Y-54985757D01*
X118673854Y-55143802D01*
X118545246Y-55384410D01*
X118529381Y-55436710D01*
X116734810Y-57231282D01*
X116359412Y-57606680D01*
X116158273Y-57689995D01*
X115929465Y-57842880D01*
X115734880Y-58037465D01*
X115581995Y-58266273D01*
X115476686Y-58520510D01*
X115423000Y-58790408D01*
X115423000Y-59065592D01*
X115460676Y-59255001D01*
X111875176Y-59255001D01*
X111898494Y-59242537D01*
X111995185Y-59163185D01*
X112074537Y-59066494D01*
X112133502Y-58956180D01*
X112169812Y-58836482D01*
X112182072Y-58712000D01*
X112182072Y-57112000D01*
X112169812Y-56987518D01*
X112133502Y-56867820D01*
X112074537Y-56757506D01*
X111995185Y-56660815D01*
X111898494Y-56581463D01*
X111788180Y-56522498D01*
X111668482Y-56486188D01*
X111544000Y-56473928D01*
X109944000Y-56473928D01*
X109819518Y-56486188D01*
X109699820Y-56522498D01*
X109589506Y-56581463D01*
X109492815Y-56660815D01*
X109413463Y-56757506D01*
X109354498Y-56867820D01*
X109318188Y-56987518D01*
X109305928Y-57112000D01*
X109305928Y-58712000D01*
X109318188Y-58836482D01*
X109354498Y-58956180D01*
X109413463Y-59066494D01*
X109492815Y-59163185D01*
X109589506Y-59242537D01*
X109612824Y-59255001D01*
X108612133Y-59255001D01*
X105743996Y-56386865D01*
X105708449Y-56343551D01*
X105535623Y-56201716D01*
X105338447Y-56096324D01*
X105124499Y-56031423D01*
X104957752Y-56015000D01*
X104957751Y-56015000D01*
X104902000Y-56009509D01*
X104846249Y-56015000D01*
X92600132Y-56015000D01*
X92209995Y-55624864D01*
X92174449Y-55581551D01*
X92001623Y-55439716D01*
X91804447Y-55334324D01*
X91590499Y-55269423D01*
X91423752Y-55253000D01*
X91423751Y-55253000D01*
X91368000Y-55247509D01*
X91312249Y-55253000D01*
X85145751Y-55253000D01*
X85090000Y-55247509D01*
X85034248Y-55253000D01*
X84311752Y-55253000D01*
X84256000Y-55247509D01*
X84200248Y-55253000D01*
X84033501Y-55269423D01*
X83819553Y-55334324D01*
X83622377Y-55439716D01*
X83449551Y-55581551D01*
X83414009Y-55624859D01*
X81637351Y-57401518D01*
X81607314Y-57250510D01*
X81502005Y-56996273D01*
X81349120Y-56767465D01*
X81154535Y-56572880D01*
X80925727Y-56419995D01*
X80671490Y-56314686D01*
X80401592Y-56261000D01*
X80126408Y-56261000D01*
X79856510Y-56314686D01*
X79602273Y-56419995D01*
X79448116Y-56523000D01*
X79083132Y-56523000D01*
X76700000Y-54139869D01*
X76700000Y-53014743D01*
X76705490Y-52958999D01*
X76700000Y-52903255D01*
X76700000Y-52903248D01*
X76685644Y-52757493D01*
X76683577Y-52736500D01*
X76657201Y-52649553D01*
X76618676Y-52522553D01*
X76513284Y-52325377D01*
X76371449Y-52152551D01*
X76328140Y-52117008D01*
X75430000Y-51218869D01*
X75430000Y-48483956D01*
X75580343Y-48634299D01*
X75611967Y-48672833D01*
X75765760Y-48799047D01*
X75896536Y-48868948D01*
X75941220Y-48892832D01*
X76131605Y-48950585D01*
X76329600Y-48970086D01*
X76379208Y-48965200D01*
X76447191Y-48965200D01*
X76453788Y-49032182D01*
X76490098Y-49151880D01*
X76549063Y-49262194D01*
X76628415Y-49358885D01*
X76725106Y-49438237D01*
X76809046Y-49483105D01*
X76705755Y-49608965D01*
X76558345Y-49884751D01*
X76467570Y-50183996D01*
X76436919Y-50495200D01*
X76467570Y-50806404D01*
X76558345Y-51105649D01*
X76705755Y-51381435D01*
X76904137Y-51623163D01*
X77145865Y-51821545D01*
X77421651Y-51968955D01*
X77720896Y-52059730D01*
X77954114Y-52082700D01*
X78205086Y-52082700D01*
X78438304Y-52059730D01*
X78737549Y-51968955D01*
X78903599Y-51880200D01*
X79134073Y-51880200D01*
X79202102Y-51886900D01*
X79270131Y-51880200D01*
X79270139Y-51880200D01*
X79473609Y-51860160D01*
X79734683Y-51780964D01*
X79975290Y-51652357D01*
X80186183Y-51479281D01*
X80229556Y-51426431D01*
X81011641Y-50644346D01*
X81064491Y-50600973D01*
X81237567Y-50390080D01*
X81306936Y-50260298D01*
X92354600Y-50260298D01*
X92354600Y-50730102D01*
X92446254Y-51190879D01*
X92626040Y-51624921D01*
X92887050Y-52015549D01*
X93219251Y-52347750D01*
X93609879Y-52608760D01*
X94043921Y-52788546D01*
X94504698Y-52880200D01*
X94974502Y-52880200D01*
X95435279Y-52788546D01*
X95869321Y-52608760D01*
X96259949Y-52347750D01*
X96592150Y-52015549D01*
X96853160Y-51624921D01*
X97032946Y-51190879D01*
X97124600Y-50730102D01*
X97124600Y-50311098D01*
X98961000Y-50311098D01*
X98961000Y-50780902D01*
X99052654Y-51241679D01*
X99232440Y-51675721D01*
X99493450Y-52066349D01*
X99825651Y-52398550D01*
X100216279Y-52659560D01*
X100650321Y-52839346D01*
X101111098Y-52931000D01*
X101580902Y-52931000D01*
X102041679Y-52839346D01*
X102475721Y-52659560D01*
X102866349Y-52398550D01*
X103198550Y-52066349D01*
X103459560Y-51675721D01*
X103639346Y-51241679D01*
X103731000Y-50780902D01*
X103731000Y-50311098D01*
X103639346Y-49850321D01*
X103459560Y-49416279D01*
X103198550Y-49025651D01*
X102866349Y-48693450D01*
X102475721Y-48432440D01*
X102041679Y-48252654D01*
X101580902Y-48161000D01*
X101111098Y-48161000D01*
X100650321Y-48252654D01*
X100216279Y-48432440D01*
X99825651Y-48693450D01*
X99493450Y-49025651D01*
X99232440Y-49416279D01*
X99052654Y-49850321D01*
X98961000Y-50311098D01*
X97124600Y-50311098D01*
X97124600Y-50260298D01*
X97032946Y-49799521D01*
X96853160Y-49365479D01*
X96592150Y-48974851D01*
X96259949Y-48642650D01*
X95869321Y-48381640D01*
X95435279Y-48201854D01*
X94974502Y-48110200D01*
X94504698Y-48110200D01*
X94043921Y-48201854D01*
X93609879Y-48381640D01*
X93219251Y-48642650D01*
X92887050Y-48974851D01*
X92626040Y-49365479D01*
X92446254Y-49799521D01*
X92354600Y-50260298D01*
X81306936Y-50260298D01*
X81366174Y-50149473D01*
X81445370Y-49888399D01*
X81465410Y-49684929D01*
X81465410Y-49684920D01*
X81472110Y-49616893D01*
X81465410Y-49548866D01*
X81465410Y-41799592D01*
X81472111Y-41731555D01*
X81445370Y-41460048D01*
X81366174Y-41198974D01*
X81237567Y-40958367D01*
X81107862Y-40800321D01*
X81107855Y-40800314D01*
X81064490Y-40747474D01*
X81011651Y-40704110D01*
X80052239Y-39744698D01*
X92405400Y-39744698D01*
X92405400Y-40214502D01*
X92497054Y-40675279D01*
X92676840Y-41109321D01*
X92937850Y-41499949D01*
X93270051Y-41832150D01*
X93660679Y-42093160D01*
X94094721Y-42272946D01*
X94555498Y-42364600D01*
X95025302Y-42364600D01*
X95486079Y-42272946D01*
X95920121Y-42093160D01*
X96310749Y-41832150D01*
X96642950Y-41499949D01*
X96903960Y-41109321D01*
X97083746Y-40675279D01*
X97175400Y-40214502D01*
X97175400Y-39744698D01*
X98961000Y-39744698D01*
X98961000Y-40214502D01*
X99052654Y-40675279D01*
X99232440Y-41109321D01*
X99493450Y-41499949D01*
X99825651Y-41832150D01*
X100216279Y-42093160D01*
X100650321Y-42272946D01*
X101111098Y-42364600D01*
X101580902Y-42364600D01*
X102041679Y-42272946D01*
X102475721Y-42093160D01*
X102866349Y-41832150D01*
X103198550Y-41499949D01*
X103459560Y-41109321D01*
X103639346Y-40675279D01*
X103731000Y-40214502D01*
X103731000Y-39744698D01*
X103639346Y-39283921D01*
X103459560Y-38849879D01*
X103198550Y-38459251D01*
X102866349Y-38127050D01*
X102475721Y-37866040D01*
X102041679Y-37686254D01*
X101580902Y-37594600D01*
X101111098Y-37594600D01*
X100650321Y-37686254D01*
X100216279Y-37866040D01*
X99825651Y-38127050D01*
X99493450Y-38459251D01*
X99232440Y-38849879D01*
X99052654Y-39283921D01*
X98961000Y-39744698D01*
X97175400Y-39744698D01*
X97083746Y-39283921D01*
X96903960Y-38849879D01*
X96642950Y-38459251D01*
X96310749Y-38127050D01*
X95920121Y-37866040D01*
X95486079Y-37686254D01*
X95025302Y-37594600D01*
X94555498Y-37594600D01*
X94094721Y-37686254D01*
X93660679Y-37866040D01*
X93270051Y-38127050D01*
X92937850Y-38459251D01*
X92676840Y-38849879D01*
X92497054Y-39283921D01*
X92405400Y-39744698D01*
X80052239Y-39744698D01*
X79622907Y-39315367D01*
X79504245Y-39093365D01*
X79400954Y-38967505D01*
X79484894Y-38922637D01*
X79581585Y-38843285D01*
X79660937Y-38746594D01*
X79719902Y-38636280D01*
X79756212Y-38516582D01*
X79768472Y-38392100D01*
X79768472Y-36487100D01*
X79756212Y-36362618D01*
X79719902Y-36242920D01*
X79660937Y-36132606D01*
X79581585Y-36035915D01*
X79484894Y-35956563D01*
X79374580Y-35897598D01*
X79254882Y-35861288D01*
X79130400Y-35849028D01*
X77130400Y-35849028D01*
X77005918Y-35861288D01*
X76886220Y-35897598D01*
X76775906Y-35956563D01*
X76679215Y-36035915D01*
X76599863Y-36132606D01*
X76540898Y-36242920D01*
X76504588Y-36362618D01*
X76492328Y-36487100D01*
X76492328Y-37505344D01*
X75045000Y-36058017D01*
X75045000Y-32114346D01*
X75318363Y-31840983D01*
X75552012Y-31491302D01*
X75712953Y-31102756D01*
X75795000Y-30690279D01*
X75795000Y-30269721D01*
X75712953Y-29857244D01*
X75552012Y-29468698D01*
X75318363Y-29119017D01*
X75020983Y-28821637D01*
X74671302Y-28587988D01*
X74282756Y-28427047D01*
X73870279Y-28345000D01*
X73449721Y-28345000D01*
X73037244Y-28427047D01*
X72648698Y-28587988D01*
X72299017Y-28821637D01*
X72001637Y-29119017D01*
X71767988Y-29468698D01*
X71607047Y-29857244D01*
X71525000Y-30269721D01*
X71525000Y-30690279D01*
X71607047Y-31102756D01*
X71767988Y-31491302D01*
X72001637Y-31840983D01*
X72275000Y-32114346D01*
X72275000Y-32669356D01*
X72275001Y-32669366D01*
X72275000Y-36563673D01*
X72268300Y-36631702D01*
X72275000Y-36699731D01*
X72275000Y-36699738D01*
X72287746Y-36829151D01*
X72295040Y-36903209D01*
X72308215Y-36946641D01*
X72374236Y-37164282D01*
X72482057Y-37366000D01*
X72502844Y-37404890D01*
X72612424Y-37538413D01*
X72675919Y-37615782D01*
X72728765Y-37659152D01*
X74905495Y-39835883D01*
X74905226Y-39836063D01*
X74761063Y-39980226D01*
X74647795Y-40149744D01*
X74569774Y-40338102D01*
X74530000Y-40538061D01*
X74530000Y-40741939D01*
X74555000Y-40867624D01*
X74555000Y-41437799D01*
X74517498Y-41426423D01*
X74295000Y-41404509D01*
X74072501Y-41426423D01*
X73858553Y-41491324D01*
X73661377Y-41596716D01*
X73488551Y-41738551D01*
X73346716Y-41911377D01*
X73241324Y-42108554D01*
X73176423Y-42322502D01*
X73160000Y-42489249D01*
X73160000Y-43421576D01*
X73126939Y-43415000D01*
X72923061Y-43415000D01*
X72723102Y-43454774D01*
X72534744Y-43532795D01*
X72365226Y-43646063D01*
X72221063Y-43790226D01*
X72107795Y-43959744D01*
X72029774Y-44148102D01*
X71990000Y-44348061D01*
X71990000Y-44551939D01*
X72029774Y-44751898D01*
X72107795Y-44940256D01*
X72140001Y-44988455D01*
X72140000Y-46496421D01*
X70970001Y-47666421D01*
X70970001Y-45369382D01*
X70975256Y-45367205D01*
X71144774Y-45253937D01*
X71288937Y-45109774D01*
X71402205Y-44940256D01*
X71480226Y-44751898D01*
X71520000Y-44551939D01*
X71520000Y-44348061D01*
X71480226Y-44148102D01*
X71402205Y-43959744D01*
X71288937Y-43790226D01*
X71144774Y-43646063D01*
X70975256Y-43532795D01*
X70786898Y-43454774D01*
X70586939Y-43415000D01*
X70383061Y-43415000D01*
X70183102Y-43454774D01*
X69994744Y-43532795D01*
X69825226Y-43646063D01*
X69681063Y-43790226D01*
X69567795Y-43959744D01*
X69489774Y-44148102D01*
X69478955Y-44202494D01*
X69456184Y-44221182D01*
X69345590Y-44355941D01*
X69263412Y-44509687D01*
X69244513Y-44571988D01*
X69213086Y-44675588D01*
X69212806Y-44676510D01*
X69200001Y-44806523D01*
X69200001Y-44806530D01*
X69195720Y-44849999D01*
X69200001Y-44893468D01*
X69200002Y-56802419D01*
X68213789Y-57788633D01*
X65959057Y-59964459D01*
X65919184Y-59997183D01*
X65868900Y-60058454D01*
X65817504Y-60118853D01*
X65813631Y-60125799D01*
X65808590Y-60131941D01*
X65771224Y-60201849D01*
X65732602Y-60271111D01*
X65730159Y-60278677D01*
X65726412Y-60285687D01*
X65703403Y-60361537D01*
X65679033Y-60437007D01*
X65678113Y-60444906D01*
X65675806Y-60452510D01*
X65672066Y-60490482D01*
X65573518Y-60500188D01*
X65453820Y-60536498D01*
X65343506Y-60595463D01*
X65246815Y-60674815D01*
X65167463Y-60771506D01*
X65108498Y-60881820D01*
X65072188Y-61001518D01*
X65059928Y-61126000D01*
X45364000Y-61126000D01*
X45364000Y-51218538D01*
X45437640Y-51396321D01*
X45698650Y-51786949D01*
X46030851Y-52119150D01*
X46421479Y-52380160D01*
X46855521Y-52559946D01*
X47316298Y-52651600D01*
X47786102Y-52651600D01*
X48246879Y-52559946D01*
X48680921Y-52380160D01*
X49071549Y-52119150D01*
X49403750Y-51786949D01*
X49664760Y-51396321D01*
X49844546Y-50962279D01*
X49936200Y-50501502D01*
X49936200Y-50031698D01*
X49844546Y-49570921D01*
X49664760Y-49136879D01*
X49403750Y-48746251D01*
X49071549Y-48414050D01*
X48680921Y-48153040D01*
X48246879Y-47973254D01*
X47786102Y-47881600D01*
X47316298Y-47881600D01*
X46855521Y-47973254D01*
X46421479Y-48153040D01*
X46030851Y-48414050D01*
X45698650Y-48746251D01*
X45437640Y-49136879D01*
X45364000Y-49314662D01*
X45364000Y-40708732D01*
X45435240Y-40880721D01*
X45696250Y-41271349D01*
X46028451Y-41603550D01*
X46419079Y-41864560D01*
X46853121Y-42044346D01*
X47313898Y-42136000D01*
X47783702Y-42136000D01*
X48244479Y-42044346D01*
X48678521Y-41864560D01*
X49069149Y-41603550D01*
X49176401Y-41496298D01*
X59949300Y-41496298D01*
X59956000Y-41564327D01*
X59956001Y-49828361D01*
X59949300Y-49896400D01*
X59976040Y-50167907D01*
X60055236Y-50428980D01*
X60183844Y-50669588D01*
X60313548Y-50827633D01*
X60313551Y-50827636D01*
X60356920Y-50880481D01*
X60409765Y-50923850D01*
X60683746Y-51197831D01*
X60727119Y-51250681D01*
X60938012Y-51423757D01*
X61178619Y-51552364D01*
X61439693Y-51631560D01*
X61643163Y-51651600D01*
X61643171Y-51651600D01*
X61711200Y-51658300D01*
X61779229Y-51651600D01*
X62609055Y-51651600D01*
X62585388Y-51729618D01*
X62573128Y-51854100D01*
X62573128Y-53759100D01*
X62585388Y-53883582D01*
X62621698Y-54003280D01*
X62680663Y-54113594D01*
X62760015Y-54210285D01*
X62856706Y-54289637D01*
X62967020Y-54348602D01*
X63086718Y-54384912D01*
X63211200Y-54397172D01*
X65211200Y-54397172D01*
X65335682Y-54384912D01*
X65455380Y-54348602D01*
X65565694Y-54289637D01*
X65662385Y-54210285D01*
X65741737Y-54113594D01*
X65800702Y-54003280D01*
X65837012Y-53883582D01*
X65849272Y-53759100D01*
X65849272Y-52644383D01*
X66465304Y-52028351D01*
X66503843Y-51996723D01*
X66630057Y-51842930D01*
X66723842Y-51667470D01*
X66781595Y-51477084D01*
X66796210Y-51328698D01*
X66796210Y-51328696D01*
X66801096Y-51279091D01*
X66796210Y-51229486D01*
X66796210Y-45620518D01*
X66801096Y-45570910D01*
X66781595Y-45372915D01*
X66723842Y-45182530D01*
X66630057Y-45007070D01*
X66503843Y-44853277D01*
X66465309Y-44821654D01*
X65468410Y-43824754D01*
X65563294Y-43774037D01*
X65659985Y-43694685D01*
X65739337Y-43597994D01*
X65798302Y-43487680D01*
X65834612Y-43367982D01*
X65846872Y-43243500D01*
X65846872Y-41338500D01*
X65834612Y-41214018D01*
X65798302Y-41094320D01*
X65739337Y-40984006D01*
X65659985Y-40887315D01*
X65563294Y-40807963D01*
X65479354Y-40763095D01*
X65582645Y-40637235D01*
X65701307Y-40415233D01*
X69511241Y-36605300D01*
X69564080Y-36561936D01*
X69607445Y-36509096D01*
X69607452Y-36509089D01*
X69720172Y-36371739D01*
X69737157Y-36351043D01*
X69865764Y-36110436D01*
X69944960Y-35849362D01*
X69965000Y-35645892D01*
X69965000Y-35645883D01*
X69971700Y-35577856D01*
X69965000Y-35509829D01*
X69965000Y-32618072D01*
X70080000Y-32618072D01*
X70204482Y-32605812D01*
X70324180Y-32569502D01*
X70434494Y-32510537D01*
X70531185Y-32431185D01*
X70610537Y-32334494D01*
X70669502Y-32224180D01*
X70705812Y-32104482D01*
X70718072Y-31980000D01*
X70718072Y-28980000D01*
X70705812Y-28855518D01*
X70669502Y-28735820D01*
X70610537Y-28625506D01*
X70531185Y-28528815D01*
X70434494Y-28449463D01*
X70324180Y-28390498D01*
X70204482Y-28354188D01*
X70080000Y-28341928D01*
X67080000Y-28341928D01*
X66955518Y-28354188D01*
X66835820Y-28390498D01*
X66725506Y-28449463D01*
X66628815Y-28528815D01*
X66549463Y-28625506D01*
X66490498Y-28735820D01*
X66454188Y-28855518D01*
X66441928Y-28980000D01*
X66441928Y-31980000D01*
X66454188Y-32104482D01*
X66490498Y-32224180D01*
X66549463Y-32334494D01*
X66628815Y-32431185D01*
X66725506Y-32510537D01*
X66835820Y-32569502D01*
X66955518Y-32605812D01*
X67080000Y-32618072D01*
X67195000Y-32618072D01*
X67195000Y-33548036D01*
X67195001Y-33548046D01*
X67195000Y-35004169D01*
X65684272Y-36514897D01*
X65582645Y-36324765D01*
X65384263Y-36083037D01*
X65142535Y-35884655D01*
X64866749Y-35737245D01*
X64567504Y-35646470D01*
X64334286Y-35623500D01*
X64083314Y-35623500D01*
X63850096Y-35646470D01*
X63550851Y-35737245D01*
X63275065Y-35884655D01*
X63033337Y-36083037D01*
X62834955Y-36324765D01*
X62687545Y-36600551D01*
X62596770Y-36899796D01*
X62566119Y-37211000D01*
X62596770Y-37522204D01*
X62687545Y-37821449D01*
X62834955Y-38097235D01*
X63033337Y-38338963D01*
X63061137Y-38361778D01*
X63018270Y-38366000D01*
X63018261Y-38366000D01*
X62814791Y-38386040D01*
X62553717Y-38465236D01*
X62313110Y-38593843D01*
X62313108Y-38593844D01*
X62313109Y-38593844D01*
X62155064Y-38723548D01*
X62155062Y-38723550D01*
X62102217Y-38766919D01*
X62058848Y-38819764D01*
X60409765Y-40468848D01*
X60356919Y-40512218D01*
X60313550Y-40565063D01*
X60313548Y-40565065D01*
X60292763Y-40590392D01*
X60183843Y-40723111D01*
X60084934Y-40908157D01*
X60055236Y-40963718D01*
X59978722Y-41215952D01*
X59976040Y-41224792D01*
X59956000Y-41428262D01*
X59956000Y-41428269D01*
X59949300Y-41496298D01*
X49176401Y-41496298D01*
X49401350Y-41271349D01*
X49662360Y-40880721D01*
X49842146Y-40446679D01*
X49933800Y-39985902D01*
X49933800Y-39516098D01*
X49842146Y-39055321D01*
X49662360Y-38621279D01*
X49401350Y-38230651D01*
X49069149Y-37898450D01*
X48678521Y-37637440D01*
X48244479Y-37457654D01*
X47783702Y-37366000D01*
X47313898Y-37366000D01*
X46853121Y-37457654D01*
X46419079Y-37637440D01*
X46028451Y-37898450D01*
X45696250Y-38230651D01*
X45435240Y-38621279D01*
X45364000Y-38793268D01*
X45364000Y-27076000D01*
X150724000Y-27076000D01*
X150724001Y-63975572D01*
G37*
X150724001Y-63975572D02*
X150724000Y-63975582D01*
X150724000Y-64364000D01*
X45364000Y-64364000D01*
X45364000Y-61126000D01*
X65059928Y-61126000D01*
X65059928Y-62826000D01*
X65072188Y-62950482D01*
X65108498Y-63070180D01*
X65167463Y-63180494D01*
X65246815Y-63277185D01*
X65343506Y-63356537D01*
X65453820Y-63415502D01*
X65573518Y-63451812D01*
X65698000Y-63464072D01*
X67398000Y-63464072D01*
X67522482Y-63451812D01*
X67642180Y-63415502D01*
X67752494Y-63356537D01*
X67849185Y-63277185D01*
X67928537Y-63180494D01*
X67987502Y-63070180D01*
X68009513Y-62997620D01*
X68141368Y-63129475D01*
X68384589Y-63291990D01*
X68654842Y-63403932D01*
X68941740Y-63461000D01*
X69234260Y-63461000D01*
X69521158Y-63403932D01*
X69791411Y-63291990D01*
X70034632Y-63129475D01*
X70241475Y-62922632D01*
X70358000Y-62748240D01*
X70474525Y-62922632D01*
X70681368Y-63129475D01*
X70924589Y-63291990D01*
X71194842Y-63403932D01*
X71481740Y-63461000D01*
X71774260Y-63461000D01*
X72061158Y-63403932D01*
X72331411Y-63291990D01*
X72574632Y-63129475D01*
X72781475Y-62922632D01*
X72943990Y-62679411D01*
X73055932Y-62409158D01*
X73113000Y-62122260D01*
X73113000Y-61829740D01*
X73055932Y-61542842D01*
X72943990Y-61272589D01*
X72781475Y-61029368D01*
X72574632Y-60822525D01*
X72513000Y-60781344D01*
X72513000Y-58706757D01*
X72565718Y-58805386D01*
X72707553Y-58978212D01*
X72750861Y-59013754D01*
X74952247Y-61215141D01*
X74987789Y-61258449D01*
X75160615Y-61400284D01*
X75260210Y-61453518D01*
X75357791Y-61505676D01*
X75571739Y-61570577D01*
X75794237Y-61592491D01*
X75849989Y-61587000D01*
X80624317Y-61587000D01*
X80661463Y-61656494D01*
X80740815Y-61753185D01*
X80837506Y-61832537D01*
X80947820Y-61891502D01*
X81067518Y-61927812D01*
X81192000Y-61940072D01*
X82892000Y-61940072D01*
X83016482Y-61927812D01*
X83136180Y-61891502D01*
X83246494Y-61832537D01*
X83343185Y-61753185D01*
X83422537Y-61656494D01*
X83481502Y-61546180D01*
X83517812Y-61426482D01*
X83530072Y-61302000D01*
X83530072Y-60749721D01*
X95655000Y-60749721D01*
X95655000Y-61170279D01*
X95737047Y-61582756D01*
X95897988Y-61971302D01*
X96131637Y-62320983D01*
X96429017Y-62618363D01*
X96778698Y-62852012D01*
X97167244Y-63012953D01*
X97579721Y-63095000D01*
X98000279Y-63095000D01*
X98412756Y-63012953D01*
X98801302Y-62852012D01*
X99150983Y-62618363D01*
X99448363Y-62320983D01*
X99682012Y-61971302D01*
X99842953Y-61582756D01*
X99925000Y-61170279D01*
X99925000Y-60749721D01*
X99842953Y-60337244D01*
X99682012Y-59948698D01*
X99448363Y-59599017D01*
X99150983Y-59301637D01*
X98801302Y-59067988D01*
X98412756Y-58907047D01*
X98000279Y-58825000D01*
X97579721Y-58825000D01*
X97167244Y-58907047D01*
X96778698Y-59067988D01*
X96429017Y-59301637D01*
X96131637Y-59599017D01*
X95897988Y-59948698D01*
X95737047Y-60337244D01*
X95655000Y-60749721D01*
X83530072Y-60749721D01*
X83530072Y-59602000D01*
X83525684Y-59557447D01*
X85560132Y-57523000D01*
X87969928Y-57523000D01*
X87969928Y-58712000D01*
X87982188Y-58836482D01*
X88018498Y-58956180D01*
X88077463Y-59066494D01*
X88156815Y-59163185D01*
X88253506Y-59242537D01*
X88363820Y-59301502D01*
X88483518Y-59337812D01*
X88608000Y-59350072D01*
X90208000Y-59350072D01*
X90332482Y-59337812D01*
X90452180Y-59301502D01*
X90562494Y-59242537D01*
X90659185Y-59163185D01*
X90738537Y-59066494D01*
X90797502Y-58956180D01*
X90833812Y-58836482D01*
X90846072Y-58712000D01*
X90846072Y-57523000D01*
X90897869Y-57523000D01*
X91288008Y-57913140D01*
X91323551Y-57956449D01*
X91471661Y-58078000D01*
X91496377Y-58098284D01*
X91693553Y-58203676D01*
X91907501Y-58268577D01*
X92130000Y-58290491D01*
X92185752Y-58285000D01*
X104431869Y-58285000D01*
X107300010Y-61153142D01*
X107335552Y-61196450D01*
X107508378Y-61338285D01*
X107705554Y-61443677D01*
X107919502Y-61508578D01*
X108086249Y-61525001D01*
X108086258Y-61525001D01*
X108142000Y-61530491D01*
X108197742Y-61525001D01*
X122688248Y-61525001D01*
X122743999Y-61530492D01*
X122799750Y-61525001D01*
X122799751Y-61525001D01*
X122966498Y-61508578D01*
X123180446Y-61443677D01*
X123377622Y-61338285D01*
X123550448Y-61196450D01*
X123585995Y-61153136D01*
X127587988Y-57151144D01*
X127694283Y-57021623D01*
X127799676Y-56824447D01*
X127864577Y-56610499D01*
X127886491Y-56388001D01*
X127864577Y-56165502D01*
X127799676Y-55951554D01*
X127694283Y-55754378D01*
X127552448Y-55581552D01*
X127379622Y-55439717D01*
X127182446Y-55334324D01*
X126968498Y-55269423D01*
X126745999Y-55247509D01*
X126523501Y-55269423D01*
X126309553Y-55334324D01*
X126112377Y-55439717D01*
X125982856Y-55546012D01*
X123188639Y-58340230D01*
X123158005Y-58266273D01*
X123005120Y-58037465D01*
X122810535Y-57842880D01*
X122581727Y-57689995D01*
X122327490Y-57584686D01*
X122057592Y-57531000D01*
X121782408Y-57531000D01*
X121512510Y-57584686D01*
X121258273Y-57689995D01*
X121029465Y-57842880D01*
X120834880Y-58037465D01*
X120681995Y-58266273D01*
X120576686Y-58520510D01*
X120523000Y-58790408D01*
X120523000Y-59065592D01*
X120560676Y-59255001D01*
X118274907Y-59255001D01*
X118516718Y-59013190D01*
X120311290Y-57218619D01*
X120363590Y-57202754D01*
X120604198Y-57074146D01*
X120762243Y-56944442D01*
X123314237Y-54392449D01*
X123367082Y-54349080D01*
X123421576Y-54282680D01*
X123540157Y-54138188D01*
X123553303Y-54113594D01*
X123668765Y-53897580D01*
X123747961Y-53636506D01*
X123768001Y-53433036D01*
X123768001Y-53433027D01*
X123774701Y-53365000D01*
X123768001Y-53296973D01*
X123768001Y-48201960D01*
X123747961Y-47998490D01*
X123668765Y-47737416D01*
X123643001Y-47689215D01*
X123643001Y-45572600D01*
X123715744Y-45621205D01*
X123904102Y-45699226D01*
X124104061Y-45739000D01*
X124307939Y-45739000D01*
X124507898Y-45699226D01*
X124696256Y-45621205D01*
X124865774Y-45507937D01*
X125009937Y-45363774D01*
X125123205Y-45194256D01*
X125201226Y-45005898D01*
X125212535Y-44949043D01*
X125422580Y-44738999D01*
X125711000Y-44738999D01*
X125711000Y-44805939D01*
X125750774Y-45005898D01*
X125828795Y-45194256D01*
X125861000Y-45242454D01*
X125861001Y-51010521D01*
X125856719Y-51054000D01*
X125873805Y-51227490D01*
X125924412Y-51394313D01*
X126006590Y-51548059D01*
X126089468Y-51649046D01*
X126089471Y-51649049D01*
X126117184Y-51682817D01*
X126150951Y-51710529D01*
X128147000Y-53706579D01*
X128147001Y-59257343D01*
X128085368Y-59298525D01*
X127878525Y-59505368D01*
X127762000Y-59679760D01*
X127645475Y-59505368D01*
X127438632Y-59298525D01*
X127195411Y-59136010D01*
X126925158Y-59024068D01*
X126638260Y-58967000D01*
X126345740Y-58967000D01*
X126058842Y-59024068D01*
X125788589Y-59136010D01*
X125545368Y-59298525D01*
X125338525Y-59505368D01*
X125176010Y-59748589D01*
X125064068Y-60018842D01*
X125007000Y-60305740D01*
X125007000Y-60598260D01*
X125064068Y-60885158D01*
X125176010Y-61155411D01*
X125338525Y-61398632D01*
X125545368Y-61605475D01*
X125788589Y-61767990D01*
X126058842Y-61879932D01*
X126345740Y-61937000D01*
X126638260Y-61937000D01*
X126925158Y-61879932D01*
X127195411Y-61767990D01*
X127438632Y-61605475D01*
X127645475Y-61398632D01*
X127762000Y-61224240D01*
X127878525Y-61398632D01*
X128085368Y-61605475D01*
X128328589Y-61767990D01*
X128598842Y-61879932D01*
X128885740Y-61937000D01*
X129178260Y-61937000D01*
X129465158Y-61879932D01*
X129735411Y-61767990D01*
X129978632Y-61605475D01*
X130110487Y-61473620D01*
X130132498Y-61546180D01*
X130191463Y-61656494D01*
X130270815Y-61753185D01*
X130367506Y-61832537D01*
X130477820Y-61891502D01*
X130597518Y-61927812D01*
X130722000Y-61940072D01*
X132422000Y-61940072D01*
X132546482Y-61927812D01*
X132666180Y-61891502D01*
X132776494Y-61832537D01*
X132873185Y-61753185D01*
X132952537Y-61656494D01*
X133011502Y-61546180D01*
X133047812Y-61426482D01*
X133060072Y-61302000D01*
X133060072Y-59602000D01*
X133047812Y-59477518D01*
X133011502Y-59357820D01*
X132952537Y-59247506D01*
X132873185Y-59150815D01*
X132776494Y-59071463D01*
X132666180Y-59012498D01*
X132546482Y-58976188D01*
X132447935Y-58966482D01*
X132444195Y-58928510D01*
X132393589Y-58761687D01*
X132311411Y-58607941D01*
X132272818Y-58560916D01*
X132228532Y-58506953D01*
X132228530Y-58506951D01*
X132200817Y-58473183D01*
X132167050Y-58445471D01*
X130983990Y-57262412D01*
X130983990Y-53460497D01*
X130988271Y-53417028D01*
X130983990Y-53373559D01*
X130983990Y-53373551D01*
X130971185Y-53243538D01*
X130947819Y-53166511D01*
X130920579Y-53076714D01*
X130838401Y-52922969D01*
X130755522Y-52821981D01*
X130755520Y-52821979D01*
X130727807Y-52788211D01*
X130694040Y-52760499D01*
X129560667Y-51627127D01*
X129653310Y-51703157D01*
X129893917Y-51831764D01*
X130154991Y-51910960D01*
X130358461Y-51931000D01*
X130358470Y-51931000D01*
X130426497Y-51937700D01*
X130494524Y-51931000D01*
X130725001Y-51931000D01*
X130891051Y-52019755D01*
X131190296Y-52110530D01*
X131423514Y-52133500D01*
X131674486Y-52133500D01*
X131907704Y-52110530D01*
X132206949Y-52019755D01*
X132482735Y-51872345D01*
X132724463Y-51673963D01*
X132922845Y-51432235D01*
X133070255Y-51156449D01*
X133161030Y-50857204D01*
X133191681Y-50546000D01*
X133168546Y-50311098D01*
X145824000Y-50311098D01*
X145824000Y-50780902D01*
X145915654Y-51241679D01*
X146095440Y-51675721D01*
X146356450Y-52066349D01*
X146688651Y-52398550D01*
X147079279Y-52659560D01*
X147513321Y-52839346D01*
X147974098Y-52931000D01*
X148443902Y-52931000D01*
X148904679Y-52839346D01*
X149338721Y-52659560D01*
X149729349Y-52398550D01*
X150061550Y-52066349D01*
X150322560Y-51675721D01*
X150502346Y-51241679D01*
X150594000Y-50780902D01*
X150594000Y-50311098D01*
X150502346Y-49850321D01*
X150322560Y-49416279D01*
X150061550Y-49025651D01*
X149729349Y-48693450D01*
X149338721Y-48432440D01*
X148904679Y-48252654D01*
X148443902Y-48161000D01*
X147974098Y-48161000D01*
X147513321Y-48252654D01*
X147079279Y-48432440D01*
X146688651Y-48693450D01*
X146356450Y-49025651D01*
X146095440Y-49416279D01*
X145915654Y-49850321D01*
X145824000Y-50311098D01*
X133168546Y-50311098D01*
X133161030Y-50234796D01*
X133070255Y-49935551D01*
X132922845Y-49659765D01*
X132819554Y-49533905D01*
X132903494Y-49489037D01*
X133000185Y-49409685D01*
X133079537Y-49312994D01*
X133138502Y-49202680D01*
X133174812Y-49082982D01*
X133187072Y-48958500D01*
X133187072Y-47053500D01*
X133174812Y-46929018D01*
X133138502Y-46809320D01*
X133079537Y-46699006D01*
X133000185Y-46602315D01*
X132903494Y-46522963D01*
X132808610Y-46472245D01*
X134179194Y-45101661D01*
X134294840Y-45039847D01*
X134448633Y-44913633D01*
X134480261Y-44875094D01*
X135680094Y-43675261D01*
X135718633Y-43643633D01*
X135844847Y-43489840D01*
X135938632Y-43314380D01*
X135996385Y-43123994D01*
X136011000Y-42975608D01*
X136011000Y-42975606D01*
X136015886Y-42926001D01*
X136011000Y-42876396D01*
X136011000Y-39744698D01*
X145847000Y-39744698D01*
X145847000Y-40214502D01*
X145938654Y-40675279D01*
X146118440Y-41109321D01*
X146379450Y-41499949D01*
X146711651Y-41832150D01*
X147102279Y-42093160D01*
X147536321Y-42272946D01*
X147997098Y-42364600D01*
X148466902Y-42364600D01*
X148927679Y-42272946D01*
X149361721Y-42093160D01*
X149752349Y-41832150D01*
X150084550Y-41499949D01*
X150345560Y-41109321D01*
X150525346Y-40675279D01*
X150617000Y-40214502D01*
X150617000Y-39744698D01*
X150525346Y-39283921D01*
X150345560Y-38849879D01*
X150084550Y-38459251D01*
X149752349Y-38127050D01*
X149361721Y-37866040D01*
X148927679Y-37686254D01*
X148466902Y-37594600D01*
X147997098Y-37594600D01*
X147536321Y-37686254D01*
X147102279Y-37866040D01*
X146711651Y-38127050D01*
X146379450Y-38459251D01*
X146118440Y-38849879D01*
X145938654Y-39283921D01*
X145847000Y-39744698D01*
X136011000Y-39744698D01*
X136011000Y-39168208D01*
X136015886Y-39118600D01*
X135996385Y-38920605D01*
X135938632Y-38730220D01*
X135919184Y-38693836D01*
X135844847Y-38554760D01*
X135718633Y-38400967D01*
X135680099Y-38369344D01*
X134071261Y-36760506D01*
X134039633Y-36721967D01*
X133885840Y-36595753D01*
X133710380Y-36501968D01*
X133519994Y-36444215D01*
X133371608Y-36429600D01*
X133322000Y-36424714D01*
X133272392Y-36429600D01*
X133204409Y-36429600D01*
X133197812Y-36362618D01*
X133161502Y-36242920D01*
X133102537Y-36132606D01*
X133023185Y-36035915D01*
X132926494Y-35956563D01*
X132816180Y-35897598D01*
X132696482Y-35861288D01*
X132572000Y-35849028D01*
X130572000Y-35849028D01*
X130447518Y-35861288D01*
X130327820Y-35897598D01*
X130217506Y-35956563D01*
X130120815Y-36035915D01*
X130041463Y-36132606D01*
X129982498Y-36242920D01*
X129946188Y-36362618D01*
X129933928Y-36487100D01*
X129933928Y-38392100D01*
X129946188Y-38516582D01*
X129969855Y-38594600D01*
X129645686Y-38594600D01*
X127139001Y-36087916D01*
X127139001Y-32615000D01*
X127464279Y-32615000D01*
X127876756Y-32532953D01*
X128265302Y-32372012D01*
X128614983Y-32138363D01*
X128912363Y-31840983D01*
X129146012Y-31491302D01*
X129306953Y-31102756D01*
X129389000Y-30690279D01*
X129389000Y-30269721D01*
X129306953Y-29857244D01*
X129146012Y-29468698D01*
X128912363Y-29119017D01*
X128614983Y-28821637D01*
X128265302Y-28587988D01*
X127876756Y-28427047D01*
X127464279Y-28345000D01*
X127043721Y-28345000D01*
X126631244Y-28427047D01*
X126242698Y-28587988D01*
X125893017Y-28821637D01*
X125595637Y-29119017D01*
X125361988Y-29468698D01*
X125201047Y-29857244D01*
X125119000Y-30269721D01*
X125119000Y-30656315D01*
X124822766Y-30952549D01*
X124769920Y-30995919D01*
X124596844Y-31206812D01*
X124572056Y-31253188D01*
X124468237Y-31447419D01*
X124416723Y-31617239D01*
X124389041Y-31708493D01*
X124369001Y-31911963D01*
X124369001Y-31911970D01*
X124362301Y-31979999D01*
X124369001Y-32048028D01*
X124369002Y-36593562D01*
X124362301Y-36661601D01*
X124389041Y-36933108D01*
X124468237Y-37194181D01*
X124596845Y-37434789D01*
X124726549Y-37592834D01*
X124726552Y-37592837D01*
X124769921Y-37645682D01*
X124822765Y-37689050D01*
X127687001Y-40553287D01*
X127687000Y-42192036D01*
X127687001Y-42192046D01*
X127687001Y-43146546D01*
X127648060Y-43114588D01*
X127494314Y-43032410D01*
X127327491Y-42981804D01*
X127197478Y-42968999D01*
X127197470Y-42968999D01*
X127154001Y-42964718D01*
X127110532Y-42968999D01*
X126184479Y-42968999D01*
X126299834Y-42753186D01*
X126371882Y-42515675D01*
X126396210Y-42268672D01*
X126371882Y-42021669D01*
X126299834Y-41784158D01*
X126182834Y-41565267D01*
X126025379Y-41373407D01*
X125833519Y-41215952D01*
X125614628Y-41098952D01*
X125377117Y-41026904D01*
X125192007Y-41008672D01*
X124674917Y-41008672D01*
X124613034Y-41002577D01*
X124551151Y-41008672D01*
X124551142Y-41008672D01*
X124366032Y-41026904D01*
X124128521Y-41098952D01*
X123909630Y-41215952D01*
X123717770Y-41373407D01*
X123678316Y-41421482D01*
X121908000Y-43191799D01*
X121908000Y-41442127D01*
X121914700Y-41374098D01*
X121908000Y-41306069D01*
X121908000Y-41306061D01*
X121887960Y-41102591D01*
X121886857Y-41098953D01*
X121808764Y-40841517D01*
X121761337Y-40752787D01*
X121737010Y-40707275D01*
X123105236Y-39339050D01*
X123158081Y-39295681D01*
X123231343Y-39206412D01*
X123331156Y-39084789D01*
X123350624Y-39048367D01*
X123459764Y-38844181D01*
X123538960Y-38583107D01*
X123559000Y-38379637D01*
X123559000Y-38379628D01*
X123565700Y-38311601D01*
X123559000Y-38243574D01*
X123559000Y-32618072D01*
X123674000Y-32618072D01*
X123798482Y-32605812D01*
X123918180Y-32569502D01*
X124028494Y-32510537D01*
X124125185Y-32431185D01*
X124204537Y-32334494D01*
X124263502Y-32224180D01*
X124299812Y-32104482D01*
X124312072Y-31980000D01*
X124312072Y-28980000D01*
X124299812Y-28855518D01*
X124263502Y-28735820D01*
X124204537Y-28625506D01*
X124125185Y-28528815D01*
X124028494Y-28449463D01*
X123918180Y-28390498D01*
X123798482Y-28354188D01*
X123674000Y-28341928D01*
X120674000Y-28341928D01*
X120549518Y-28354188D01*
X120429820Y-28390498D01*
X120319506Y-28449463D01*
X120222815Y-28528815D01*
X120143463Y-28625506D01*
X120084498Y-28735820D01*
X120048188Y-28855518D01*
X120035928Y-28980000D01*
X120035928Y-31980000D01*
X120048188Y-32104482D01*
X120084498Y-32224180D01*
X120143463Y-32334494D01*
X120222815Y-32431185D01*
X120319506Y-32510537D01*
X120429820Y-32569502D01*
X120549518Y-32605812D01*
X120674000Y-32618072D01*
X120789000Y-32618072D01*
X120789001Y-37737913D01*
X119932315Y-38594600D01*
X119196531Y-38594600D01*
X119153663Y-38590378D01*
X119181463Y-38567563D01*
X119379845Y-38325835D01*
X119527255Y-38050049D01*
X119618030Y-37750804D01*
X119648681Y-37439600D01*
X119618030Y-37128396D01*
X119527255Y-36829151D01*
X119379845Y-36553365D01*
X119181463Y-36311637D01*
X118939735Y-36113255D01*
X118663949Y-35965845D01*
X118364704Y-35875070D01*
X118131486Y-35852100D01*
X117880514Y-35852100D01*
X117647296Y-35875070D01*
X117348051Y-35965845D01*
X117072265Y-36113255D01*
X116830537Y-36311637D01*
X116632155Y-36553365D01*
X116484745Y-36829151D01*
X116393970Y-37128396D01*
X116363319Y-37439600D01*
X116393970Y-37750804D01*
X116484745Y-38050049D01*
X116632155Y-38325835D01*
X116830537Y-38567563D01*
X117003609Y-38709600D01*
X116830537Y-38851637D01*
X116632155Y-39093365D01*
X116484745Y-39369151D01*
X116393970Y-39668396D01*
X116363319Y-39979600D01*
X116393970Y-40290804D01*
X116484745Y-40590049D01*
X116632155Y-40865835D01*
X116735446Y-40991695D01*
X116651506Y-41036563D01*
X116554815Y-41115915D01*
X116475463Y-41212606D01*
X116416498Y-41322920D01*
X116380188Y-41442618D01*
X116367928Y-41567100D01*
X116367928Y-43472100D01*
X116380188Y-43596582D01*
X116416498Y-43716280D01*
X116475463Y-43826594D01*
X116554815Y-43923285D01*
X116651506Y-44002637D01*
X116761820Y-44061602D01*
X116799835Y-44073134D01*
X115242865Y-45630104D01*
X115199551Y-45665651D01*
X115057716Y-45838477D01*
X114952325Y-46035653D01*
X114952324Y-46035654D01*
X114887423Y-46249602D01*
X114865509Y-46472100D01*
X114871000Y-46527852D01*
X114871001Y-51077739D01*
X114865509Y-51133500D01*
X114887423Y-51355998D01*
X114952324Y-51569946D01*
X114994604Y-51649046D01*
X115057717Y-51767123D01*
X115199552Y-51939949D01*
X115242860Y-51975491D01*
X116367928Y-53100560D01*
X116367928Y-54038500D01*
X116380188Y-54162982D01*
X116416498Y-54282680D01*
X116475463Y-54392994D01*
X116554815Y-54489685D01*
X116651506Y-54569037D01*
X116761820Y-54628002D01*
X116881518Y-54664312D01*
X117006000Y-54676572D01*
X119006000Y-54676572D01*
X119124404Y-54664911D01*
X118803558Y-54985757D01*
X118673854Y-55143802D01*
X118545246Y-55384410D01*
X118529381Y-55436710D01*
X116734810Y-57231282D01*
X116359412Y-57606680D01*
X116158273Y-57689995D01*
X115929465Y-57842880D01*
X115734880Y-58037465D01*
X115581995Y-58266273D01*
X115476686Y-58520510D01*
X115423000Y-58790408D01*
X115423000Y-59065592D01*
X115460676Y-59255001D01*
X111875176Y-59255001D01*
X111898494Y-59242537D01*
X111995185Y-59163185D01*
X112074537Y-59066494D01*
X112133502Y-58956180D01*
X112169812Y-58836482D01*
X112182072Y-58712000D01*
X112182072Y-57112000D01*
X112169812Y-56987518D01*
X112133502Y-56867820D01*
X112074537Y-56757506D01*
X111995185Y-56660815D01*
X111898494Y-56581463D01*
X111788180Y-56522498D01*
X111668482Y-56486188D01*
X111544000Y-56473928D01*
X109944000Y-56473928D01*
X109819518Y-56486188D01*
X109699820Y-56522498D01*
X109589506Y-56581463D01*
X109492815Y-56660815D01*
X109413463Y-56757506D01*
X109354498Y-56867820D01*
X109318188Y-56987518D01*
X109305928Y-57112000D01*
X109305928Y-58712000D01*
X109318188Y-58836482D01*
X109354498Y-58956180D01*
X109413463Y-59066494D01*
X109492815Y-59163185D01*
X109589506Y-59242537D01*
X109612824Y-59255001D01*
X108612133Y-59255001D01*
X105743996Y-56386865D01*
X105708449Y-56343551D01*
X105535623Y-56201716D01*
X105338447Y-56096324D01*
X105124499Y-56031423D01*
X104957752Y-56015000D01*
X104957751Y-56015000D01*
X104902000Y-56009509D01*
X104846249Y-56015000D01*
X92600132Y-56015000D01*
X92209995Y-55624864D01*
X92174449Y-55581551D01*
X92001623Y-55439716D01*
X91804447Y-55334324D01*
X91590499Y-55269423D01*
X91423752Y-55253000D01*
X91423751Y-55253000D01*
X91368000Y-55247509D01*
X91312249Y-55253000D01*
X85145751Y-55253000D01*
X85090000Y-55247509D01*
X85034248Y-55253000D01*
X84311752Y-55253000D01*
X84256000Y-55247509D01*
X84200248Y-55253000D01*
X84033501Y-55269423D01*
X83819553Y-55334324D01*
X83622377Y-55439716D01*
X83449551Y-55581551D01*
X83414009Y-55624859D01*
X81637351Y-57401518D01*
X81607314Y-57250510D01*
X81502005Y-56996273D01*
X81349120Y-56767465D01*
X81154535Y-56572880D01*
X80925727Y-56419995D01*
X80671490Y-56314686D01*
X80401592Y-56261000D01*
X80126408Y-56261000D01*
X79856510Y-56314686D01*
X79602273Y-56419995D01*
X79448116Y-56523000D01*
X79083132Y-56523000D01*
X76700000Y-54139869D01*
X76700000Y-53014743D01*
X76705490Y-52958999D01*
X76700000Y-52903255D01*
X76700000Y-52903248D01*
X76685644Y-52757493D01*
X76683577Y-52736500D01*
X76657201Y-52649553D01*
X76618676Y-52522553D01*
X76513284Y-52325377D01*
X76371449Y-52152551D01*
X76328140Y-52117008D01*
X75430000Y-51218869D01*
X75430000Y-48483956D01*
X75580343Y-48634299D01*
X75611967Y-48672833D01*
X75765760Y-48799047D01*
X75896536Y-48868948D01*
X75941220Y-48892832D01*
X76131605Y-48950585D01*
X76329600Y-48970086D01*
X76379208Y-48965200D01*
X76447191Y-48965200D01*
X76453788Y-49032182D01*
X76490098Y-49151880D01*
X76549063Y-49262194D01*
X76628415Y-49358885D01*
X76725106Y-49438237D01*
X76809046Y-49483105D01*
X76705755Y-49608965D01*
X76558345Y-49884751D01*
X76467570Y-50183996D01*
X76436919Y-50495200D01*
X76467570Y-50806404D01*
X76558345Y-51105649D01*
X76705755Y-51381435D01*
X76904137Y-51623163D01*
X77145865Y-51821545D01*
X77421651Y-51968955D01*
X77720896Y-52059730D01*
X77954114Y-52082700D01*
X78205086Y-52082700D01*
X78438304Y-52059730D01*
X78737549Y-51968955D01*
X78903599Y-51880200D01*
X79134073Y-51880200D01*
X79202102Y-51886900D01*
X79270131Y-51880200D01*
X79270139Y-51880200D01*
X79473609Y-51860160D01*
X79734683Y-51780964D01*
X79975290Y-51652357D01*
X80186183Y-51479281D01*
X80229556Y-51426431D01*
X81011641Y-50644346D01*
X81064491Y-50600973D01*
X81237567Y-50390080D01*
X81306936Y-50260298D01*
X92354600Y-50260298D01*
X92354600Y-50730102D01*
X92446254Y-51190879D01*
X92626040Y-51624921D01*
X92887050Y-52015549D01*
X93219251Y-52347750D01*
X93609879Y-52608760D01*
X94043921Y-52788546D01*
X94504698Y-52880200D01*
X94974502Y-52880200D01*
X95435279Y-52788546D01*
X95869321Y-52608760D01*
X96259949Y-52347750D01*
X96592150Y-52015549D01*
X96853160Y-51624921D01*
X97032946Y-51190879D01*
X97124600Y-50730102D01*
X97124600Y-50311098D01*
X98961000Y-50311098D01*
X98961000Y-50780902D01*
X99052654Y-51241679D01*
X99232440Y-51675721D01*
X99493450Y-52066349D01*
X99825651Y-52398550D01*
X100216279Y-52659560D01*
X100650321Y-52839346D01*
X101111098Y-52931000D01*
X101580902Y-52931000D01*
X102041679Y-52839346D01*
X102475721Y-52659560D01*
X102866349Y-52398550D01*
X103198550Y-52066349D01*
X103459560Y-51675721D01*
X103639346Y-51241679D01*
X103731000Y-50780902D01*
X103731000Y-50311098D01*
X103639346Y-49850321D01*
X103459560Y-49416279D01*
X103198550Y-49025651D01*
X102866349Y-48693450D01*
X102475721Y-48432440D01*
X102041679Y-48252654D01*
X101580902Y-48161000D01*
X101111098Y-48161000D01*
X100650321Y-48252654D01*
X100216279Y-48432440D01*
X99825651Y-48693450D01*
X99493450Y-49025651D01*
X99232440Y-49416279D01*
X99052654Y-49850321D01*
X98961000Y-50311098D01*
X97124600Y-50311098D01*
X97124600Y-50260298D01*
X97032946Y-49799521D01*
X96853160Y-49365479D01*
X96592150Y-48974851D01*
X96259949Y-48642650D01*
X95869321Y-48381640D01*
X95435279Y-48201854D01*
X94974502Y-48110200D01*
X94504698Y-48110200D01*
X94043921Y-48201854D01*
X93609879Y-48381640D01*
X93219251Y-48642650D01*
X92887050Y-48974851D01*
X92626040Y-49365479D01*
X92446254Y-49799521D01*
X92354600Y-50260298D01*
X81306936Y-50260298D01*
X81366174Y-50149473D01*
X81445370Y-49888399D01*
X81465410Y-49684929D01*
X81465410Y-49684920D01*
X81472110Y-49616893D01*
X81465410Y-49548866D01*
X81465410Y-41799592D01*
X81472111Y-41731555D01*
X81445370Y-41460048D01*
X81366174Y-41198974D01*
X81237567Y-40958367D01*
X81107862Y-40800321D01*
X81107855Y-40800314D01*
X81064490Y-40747474D01*
X81011651Y-40704110D01*
X80052239Y-39744698D01*
X92405400Y-39744698D01*
X92405400Y-40214502D01*
X92497054Y-40675279D01*
X92676840Y-41109321D01*
X92937850Y-41499949D01*
X93270051Y-41832150D01*
X93660679Y-42093160D01*
X94094721Y-42272946D01*
X94555498Y-42364600D01*
X95025302Y-42364600D01*
X95486079Y-42272946D01*
X95920121Y-42093160D01*
X96310749Y-41832150D01*
X96642950Y-41499949D01*
X96903960Y-41109321D01*
X97083746Y-40675279D01*
X97175400Y-40214502D01*
X97175400Y-39744698D01*
X98961000Y-39744698D01*
X98961000Y-40214502D01*
X99052654Y-40675279D01*
X99232440Y-41109321D01*
X99493450Y-41499949D01*
X99825651Y-41832150D01*
X100216279Y-42093160D01*
X100650321Y-42272946D01*
X101111098Y-42364600D01*
X101580902Y-42364600D01*
X102041679Y-42272946D01*
X102475721Y-42093160D01*
X102866349Y-41832150D01*
X103198550Y-41499949D01*
X103459560Y-41109321D01*
X103639346Y-40675279D01*
X103731000Y-40214502D01*
X103731000Y-39744698D01*
X103639346Y-39283921D01*
X103459560Y-38849879D01*
X103198550Y-38459251D01*
X102866349Y-38127050D01*
X102475721Y-37866040D01*
X102041679Y-37686254D01*
X101580902Y-37594600D01*
X101111098Y-37594600D01*
X100650321Y-37686254D01*
X100216279Y-37866040D01*
X99825651Y-38127050D01*
X99493450Y-38459251D01*
X99232440Y-38849879D01*
X99052654Y-39283921D01*
X98961000Y-39744698D01*
X97175400Y-39744698D01*
X97083746Y-39283921D01*
X96903960Y-38849879D01*
X96642950Y-38459251D01*
X96310749Y-38127050D01*
X95920121Y-37866040D01*
X95486079Y-37686254D01*
X95025302Y-37594600D01*
X94555498Y-37594600D01*
X94094721Y-37686254D01*
X93660679Y-37866040D01*
X93270051Y-38127050D01*
X92937850Y-38459251D01*
X92676840Y-38849879D01*
X92497054Y-39283921D01*
X92405400Y-39744698D01*
X80052239Y-39744698D01*
X79622907Y-39315367D01*
X79504245Y-39093365D01*
X79400954Y-38967505D01*
X79484894Y-38922637D01*
X79581585Y-38843285D01*
X79660937Y-38746594D01*
X79719902Y-38636280D01*
X79756212Y-38516582D01*
X79768472Y-38392100D01*
X79768472Y-36487100D01*
X79756212Y-36362618D01*
X79719902Y-36242920D01*
X79660937Y-36132606D01*
X79581585Y-36035915D01*
X79484894Y-35956563D01*
X79374580Y-35897598D01*
X79254882Y-35861288D01*
X79130400Y-35849028D01*
X77130400Y-35849028D01*
X77005918Y-35861288D01*
X76886220Y-35897598D01*
X76775906Y-35956563D01*
X76679215Y-36035915D01*
X76599863Y-36132606D01*
X76540898Y-36242920D01*
X76504588Y-36362618D01*
X76492328Y-36487100D01*
X76492328Y-37505344D01*
X75045000Y-36058017D01*
X75045000Y-32114346D01*
X75318363Y-31840983D01*
X75552012Y-31491302D01*
X75712953Y-31102756D01*
X75795000Y-30690279D01*
X75795000Y-30269721D01*
X75712953Y-29857244D01*
X75552012Y-29468698D01*
X75318363Y-29119017D01*
X75020983Y-28821637D01*
X74671302Y-28587988D01*
X74282756Y-28427047D01*
X73870279Y-28345000D01*
X73449721Y-28345000D01*
X73037244Y-28427047D01*
X72648698Y-28587988D01*
X72299017Y-28821637D01*
X72001637Y-29119017D01*
X71767988Y-29468698D01*
X71607047Y-29857244D01*
X71525000Y-30269721D01*
X71525000Y-30690279D01*
X71607047Y-31102756D01*
X71767988Y-31491302D01*
X72001637Y-31840983D01*
X72275000Y-32114346D01*
X72275000Y-32669356D01*
X72275001Y-32669366D01*
X72275000Y-36563673D01*
X72268300Y-36631702D01*
X72275000Y-36699731D01*
X72275000Y-36699738D01*
X72287746Y-36829151D01*
X72295040Y-36903209D01*
X72308215Y-36946641D01*
X72374236Y-37164282D01*
X72482057Y-37366000D01*
X72502844Y-37404890D01*
X72612424Y-37538413D01*
X72675919Y-37615782D01*
X72728765Y-37659152D01*
X74905495Y-39835883D01*
X74905226Y-39836063D01*
X74761063Y-39980226D01*
X74647795Y-40149744D01*
X74569774Y-40338102D01*
X74530000Y-40538061D01*
X74530000Y-40741939D01*
X74555000Y-40867624D01*
X74555000Y-41437799D01*
X74517498Y-41426423D01*
X74295000Y-41404509D01*
X74072501Y-41426423D01*
X73858553Y-41491324D01*
X73661377Y-41596716D01*
X73488551Y-41738551D01*
X73346716Y-41911377D01*
X73241324Y-42108554D01*
X73176423Y-42322502D01*
X73160000Y-42489249D01*
X73160000Y-43421576D01*
X73126939Y-43415000D01*
X72923061Y-43415000D01*
X72723102Y-43454774D01*
X72534744Y-43532795D01*
X72365226Y-43646063D01*
X72221063Y-43790226D01*
X72107795Y-43959744D01*
X72029774Y-44148102D01*
X71990000Y-44348061D01*
X71990000Y-44551939D01*
X72029774Y-44751898D01*
X72107795Y-44940256D01*
X72140001Y-44988455D01*
X72140000Y-46496421D01*
X70970001Y-47666421D01*
X70970001Y-45369382D01*
X70975256Y-45367205D01*
X71144774Y-45253937D01*
X71288937Y-45109774D01*
X71402205Y-44940256D01*
X71480226Y-44751898D01*
X71520000Y-44551939D01*
X71520000Y-44348061D01*
X71480226Y-44148102D01*
X71402205Y-43959744D01*
X71288937Y-43790226D01*
X71144774Y-43646063D01*
X70975256Y-43532795D01*
X70786898Y-43454774D01*
X70586939Y-43415000D01*
X70383061Y-43415000D01*
X70183102Y-43454774D01*
X69994744Y-43532795D01*
X69825226Y-43646063D01*
X69681063Y-43790226D01*
X69567795Y-43959744D01*
X69489774Y-44148102D01*
X69478955Y-44202494D01*
X69456184Y-44221182D01*
X69345590Y-44355941D01*
X69263412Y-44509687D01*
X69244513Y-44571988D01*
X69213086Y-44675588D01*
X69212806Y-44676510D01*
X69200001Y-44806523D01*
X69200001Y-44806530D01*
X69195720Y-44849999D01*
X69200001Y-44893468D01*
X69200002Y-56802419D01*
X68213789Y-57788633D01*
X65959057Y-59964459D01*
X65919184Y-59997183D01*
X65868900Y-60058454D01*
X65817504Y-60118853D01*
X65813631Y-60125799D01*
X65808590Y-60131941D01*
X65771224Y-60201849D01*
X65732602Y-60271111D01*
X65730159Y-60278677D01*
X65726412Y-60285687D01*
X65703403Y-60361537D01*
X65679033Y-60437007D01*
X65678113Y-60444906D01*
X65675806Y-60452510D01*
X65672066Y-60490482D01*
X65573518Y-60500188D01*
X65453820Y-60536498D01*
X65343506Y-60595463D01*
X65246815Y-60674815D01*
X65167463Y-60771506D01*
X65108498Y-60881820D01*
X65072188Y-61001518D01*
X65059928Y-61126000D01*
X45364000Y-61126000D01*
X45364000Y-51218538D01*
X45437640Y-51396321D01*
X45698650Y-51786949D01*
X46030851Y-52119150D01*
X46421479Y-52380160D01*
X46855521Y-52559946D01*
X47316298Y-52651600D01*
X47786102Y-52651600D01*
X48246879Y-52559946D01*
X48680921Y-52380160D01*
X49071549Y-52119150D01*
X49403750Y-51786949D01*
X49664760Y-51396321D01*
X49844546Y-50962279D01*
X49936200Y-50501502D01*
X49936200Y-50031698D01*
X49844546Y-49570921D01*
X49664760Y-49136879D01*
X49403750Y-48746251D01*
X49071549Y-48414050D01*
X48680921Y-48153040D01*
X48246879Y-47973254D01*
X47786102Y-47881600D01*
X47316298Y-47881600D01*
X46855521Y-47973254D01*
X46421479Y-48153040D01*
X46030851Y-48414050D01*
X45698650Y-48746251D01*
X45437640Y-49136879D01*
X45364000Y-49314662D01*
X45364000Y-40708732D01*
X45435240Y-40880721D01*
X45696250Y-41271349D01*
X46028451Y-41603550D01*
X46419079Y-41864560D01*
X46853121Y-42044346D01*
X47313898Y-42136000D01*
X47783702Y-42136000D01*
X48244479Y-42044346D01*
X48678521Y-41864560D01*
X49069149Y-41603550D01*
X49176401Y-41496298D01*
X59949300Y-41496298D01*
X59956000Y-41564327D01*
X59956001Y-49828361D01*
X59949300Y-49896400D01*
X59976040Y-50167907D01*
X60055236Y-50428980D01*
X60183844Y-50669588D01*
X60313548Y-50827633D01*
X60313551Y-50827636D01*
X60356920Y-50880481D01*
X60409765Y-50923850D01*
X60683746Y-51197831D01*
X60727119Y-51250681D01*
X60938012Y-51423757D01*
X61178619Y-51552364D01*
X61439693Y-51631560D01*
X61643163Y-51651600D01*
X61643171Y-51651600D01*
X61711200Y-51658300D01*
X61779229Y-51651600D01*
X62609055Y-51651600D01*
X62585388Y-51729618D01*
X62573128Y-51854100D01*
X62573128Y-53759100D01*
X62585388Y-53883582D01*
X62621698Y-54003280D01*
X62680663Y-54113594D01*
X62760015Y-54210285D01*
X62856706Y-54289637D01*
X62967020Y-54348602D01*
X63086718Y-54384912D01*
X63211200Y-54397172D01*
X65211200Y-54397172D01*
X65335682Y-54384912D01*
X65455380Y-54348602D01*
X65565694Y-54289637D01*
X65662385Y-54210285D01*
X65741737Y-54113594D01*
X65800702Y-54003280D01*
X65837012Y-53883582D01*
X65849272Y-53759100D01*
X65849272Y-52644383D01*
X66465304Y-52028351D01*
X66503843Y-51996723D01*
X66630057Y-51842930D01*
X66723842Y-51667470D01*
X66781595Y-51477084D01*
X66796210Y-51328698D01*
X66796210Y-51328696D01*
X66801096Y-51279091D01*
X66796210Y-51229486D01*
X66796210Y-45620518D01*
X66801096Y-45570910D01*
X66781595Y-45372915D01*
X66723842Y-45182530D01*
X66630057Y-45007070D01*
X66503843Y-44853277D01*
X66465309Y-44821654D01*
X65468410Y-43824754D01*
X65563294Y-43774037D01*
X65659985Y-43694685D01*
X65739337Y-43597994D01*
X65798302Y-43487680D01*
X65834612Y-43367982D01*
X65846872Y-43243500D01*
X65846872Y-41338500D01*
X65834612Y-41214018D01*
X65798302Y-41094320D01*
X65739337Y-40984006D01*
X65659985Y-40887315D01*
X65563294Y-40807963D01*
X65479354Y-40763095D01*
X65582645Y-40637235D01*
X65701307Y-40415233D01*
X69511241Y-36605300D01*
X69564080Y-36561936D01*
X69607445Y-36509096D01*
X69607452Y-36509089D01*
X69720172Y-36371739D01*
X69737157Y-36351043D01*
X69865764Y-36110436D01*
X69944960Y-35849362D01*
X69965000Y-35645892D01*
X69965000Y-35645883D01*
X69971700Y-35577856D01*
X69965000Y-35509829D01*
X69965000Y-32618072D01*
X70080000Y-32618072D01*
X70204482Y-32605812D01*
X70324180Y-32569502D01*
X70434494Y-32510537D01*
X70531185Y-32431185D01*
X70610537Y-32334494D01*
X70669502Y-32224180D01*
X70705812Y-32104482D01*
X70718072Y-31980000D01*
X70718072Y-28980000D01*
X70705812Y-28855518D01*
X70669502Y-28735820D01*
X70610537Y-28625506D01*
X70531185Y-28528815D01*
X70434494Y-28449463D01*
X70324180Y-28390498D01*
X70204482Y-28354188D01*
X70080000Y-28341928D01*
X67080000Y-28341928D01*
X66955518Y-28354188D01*
X66835820Y-28390498D01*
X66725506Y-28449463D01*
X66628815Y-28528815D01*
X66549463Y-28625506D01*
X66490498Y-28735820D01*
X66454188Y-28855518D01*
X66441928Y-28980000D01*
X66441928Y-31980000D01*
X66454188Y-32104482D01*
X66490498Y-32224180D01*
X66549463Y-32334494D01*
X66628815Y-32431185D01*
X66725506Y-32510537D01*
X66835820Y-32569502D01*
X66955518Y-32605812D01*
X67080000Y-32618072D01*
X67195000Y-32618072D01*
X67195000Y-33548036D01*
X67195001Y-33548046D01*
X67195000Y-35004169D01*
X65684272Y-36514897D01*
X65582645Y-36324765D01*
X65384263Y-36083037D01*
X65142535Y-35884655D01*
X64866749Y-35737245D01*
X64567504Y-35646470D01*
X64334286Y-35623500D01*
X64083314Y-35623500D01*
X63850096Y-35646470D01*
X63550851Y-35737245D01*
X63275065Y-35884655D01*
X63033337Y-36083037D01*
X62834955Y-36324765D01*
X62687545Y-36600551D01*
X62596770Y-36899796D01*
X62566119Y-37211000D01*
X62596770Y-37522204D01*
X62687545Y-37821449D01*
X62834955Y-38097235D01*
X63033337Y-38338963D01*
X63061137Y-38361778D01*
X63018270Y-38366000D01*
X63018261Y-38366000D01*
X62814791Y-38386040D01*
X62553717Y-38465236D01*
X62313110Y-38593843D01*
X62313108Y-38593844D01*
X62313109Y-38593844D01*
X62155064Y-38723548D01*
X62155062Y-38723550D01*
X62102217Y-38766919D01*
X62058848Y-38819764D01*
X60409765Y-40468848D01*
X60356919Y-40512218D01*
X60313550Y-40565063D01*
X60313548Y-40565065D01*
X60292763Y-40590392D01*
X60183843Y-40723111D01*
X60084934Y-40908157D01*
X60055236Y-40963718D01*
X59978722Y-41215952D01*
X59976040Y-41224792D01*
X59956000Y-41428262D01*
X59956000Y-41428269D01*
X59949300Y-41496298D01*
X49176401Y-41496298D01*
X49401350Y-41271349D01*
X49662360Y-40880721D01*
X49842146Y-40446679D01*
X49933800Y-39985902D01*
X49933800Y-39516098D01*
X49842146Y-39055321D01*
X49662360Y-38621279D01*
X49401350Y-38230651D01*
X49069149Y-37898450D01*
X48678521Y-37637440D01*
X48244479Y-37457654D01*
X47783702Y-37366000D01*
X47313898Y-37366000D01*
X46853121Y-37457654D01*
X46419079Y-37637440D01*
X46028451Y-37898450D01*
X45696250Y-38230651D01*
X45435240Y-38621279D01*
X45364000Y-38793268D01*
X45364000Y-27076000D01*
X150724000Y-27076000D01*
X150724001Y-63975572D01*
G36*
X119138001Y-49161000D02*
G01*
X118829999Y-49161000D01*
X118663949Y-49072245D01*
X118364704Y-48981470D01*
X118131486Y-48958500D01*
X117880514Y-48958500D01*
X117647296Y-48981470D01*
X117348051Y-49072245D01*
X117141000Y-49182916D01*
X117141000Y-46942231D01*
X118769141Y-45314091D01*
X118812449Y-45278549D01*
X118954284Y-45105723D01*
X119059676Y-44908547D01*
X119114993Y-44726194D01*
X119124577Y-44694600D01*
X119138000Y-44558309D01*
X119138001Y-49161000D01*
G37*
X119138001Y-49161000D02*
X118829999Y-49161000D01*
X118663949Y-49072245D01*
X118364704Y-48981470D01*
X118131486Y-48958500D01*
X117880514Y-48958500D01*
X117647296Y-48981470D01*
X117348051Y-49072245D01*
X117141000Y-49182916D01*
X117141000Y-46942231D01*
X118769141Y-45314091D01*
X118812449Y-45278549D01*
X118954284Y-45105723D01*
X119059676Y-44908547D01*
X119114993Y-44726194D01*
X119124577Y-44694600D01*
X119138000Y-44558309D01*
X119138001Y-49161000D01*
G36*
X62757615Y-43694685D02*
G01*
X62854306Y-43774037D01*
X62964620Y-43833002D01*
X63084318Y-43869312D01*
X63198800Y-43880587D01*
X63198800Y-43943892D01*
X63193914Y-43993500D01*
X63213415Y-44191494D01*
X63265650Y-44363688D01*
X63271168Y-44381879D01*
X63364953Y-44557340D01*
X63491167Y-44711133D01*
X63529706Y-44742761D01*
X64776211Y-45989267D01*
X64776210Y-48764652D01*
X64569904Y-48702070D01*
X64336686Y-48679100D01*
X64085714Y-48679100D01*
X63852496Y-48702070D01*
X63553251Y-48792845D01*
X63387201Y-48881600D01*
X62726000Y-48881600D01*
X62726000Y-43656162D01*
X62757615Y-43694685D01*
G37*
X62757615Y-43694685D02*
X62854306Y-43774037D01*
X62964620Y-43833002D01*
X63084318Y-43869312D01*
X63198800Y-43880587D01*
X63198800Y-43943892D01*
X63193914Y-43993500D01*
X63213415Y-44191494D01*
X63265650Y-44363688D01*
X63271168Y-44381879D01*
X63364953Y-44557340D01*
X63491167Y-44711133D01*
X63529706Y-44742761D01*
X64776211Y-45989267D01*
X64776210Y-48764652D01*
X64569904Y-48702070D01*
X64336686Y-48679100D01*
X64085714Y-48679100D01*
X63852496Y-48702070D01*
X63553251Y-48792845D01*
X63387201Y-48881600D01*
X62726000Y-48881600D01*
X62726000Y-43656162D01*
X62757615Y-43694685D01*
%TD*%
M02*
