%TF.GenerationSoftware,KiCad,Pcbnew,5.1.5+dfsg1-2build2*%
%TF.CreationDate,2021-10-16T12:52:01+01:00*%
%TF.ProjectId,motor_driver_v1,6d6f746f-725f-4647-9269-7665725f7631,rev?*%
%TF.SameCoordinates,Original*%
%TF.FileFunction,Copper,L1,Top*%
%TF.FilePolarity,Positive*%
%FSLAX46Y46*%
G04 Gerber Fmt 4.6, Leading zero omitted, Abs format (unit mm)*
G04 Created by KiCad (PCBNEW 5.1.5+dfsg1-2build2) date 2021-10-16 12:52:01*
%MOMM*%
%LPD*%
G04 APERTURE LIST*
%TA.AperFunction,ComponentPad*%
%ADD10O,2.000000X1.905000*%
%TD*%
%TA.AperFunction,ComponentPad*%
%ADD11R,2.000000X1.905000*%
%TD*%
%TA.AperFunction,ComponentPad*%
%ADD12O,3.500000X3.500000*%
%TD*%
%TA.AperFunction,ComponentPad*%
%ADD13C,3.500000*%
%TD*%
%TA.AperFunction,ComponentPad*%
%ADD14C,0.800000*%
%TD*%
%TA.AperFunction,ComponentPad*%
%ADD15C,6.400000*%
%TD*%
%TA.AperFunction,SMDPad,CuDef*%
%ADD16R,0.650000X1.528000*%
%TD*%
%TA.AperFunction,ComponentPad*%
%ADD17R,1.700000X1.700000*%
%TD*%
%TA.AperFunction,SMDPad,CuDef*%
%ADD18C,0.100000*%
%TD*%
%TA.AperFunction,ComponentPad*%
%ADD19C,1.600000*%
%TD*%
%TA.AperFunction,ComponentPad*%
%ADD20R,1.600000X1.600000*%
%TD*%
%TA.AperFunction,ComponentPad*%
%ADD21C,3.000000*%
%TD*%
%TA.AperFunction,ComponentPad*%
%ADD22R,3.000000X3.000000*%
%TD*%
%TA.AperFunction,ComponentPad*%
%ADD23O,1.700000X1.700000*%
%TD*%
%TA.AperFunction,SMDPad,CuDef*%
%ADD24R,0.650000X1.500000*%
%TD*%
%TA.AperFunction,ComponentPad*%
%ADD25C,1.524000*%
%TD*%
%TA.AperFunction,ViaPad*%
%ADD26C,0.800000*%
%TD*%
%TA.AperFunction,Conductor*%
%ADD27C,1.000000*%
%TD*%
%TA.AperFunction,Conductor*%
%ADD28C,0.500000*%
%TD*%
%TA.AperFunction,Conductor*%
%ADD29C,1.250000*%
%TD*%
%TA.AperFunction,Conductor*%
%ADD30C,1.500000*%
%TD*%
%TA.AperFunction,Conductor*%
%ADD31C,0.750000*%
%TD*%
%TA.AperFunction,Conductor*%
%ADD32C,0.250000*%
%TD*%
%TA.AperFunction,Conductor*%
%ADD33C,0.254000*%
%TD*%
%TA.AperFunction,NonConductor*%
%ADD34C,0.254000*%
%TD*%
G04 APERTURE END LIST*
D10*
%TO.P,Q5,3*%
%TO.N,GND*%
X64211200Y-47726600D03*
%TO.P,Q5,2*%
%TO.N,Net-(C1-Pad2)*%
X64211200Y-50266600D03*
D11*
%TO.P,Q5,1*%
%TO.N,PWM1*%
X64211200Y-52806600D03*
D12*
%TO.P,Q5,*%
%TO.N,Net-(H6-Pad1)*%
X47551200Y-50266600D03*
%TD*%
D10*
%TO.P,Q4,3*%
%TO.N,Net-(IC4-Pad3)*%
X131572000Y-42519600D03*
%TO.P,Q4,2*%
%TO.N,Net-(C2-Pad1)*%
X131572000Y-39979600D03*
D11*
%TO.P,Q4,1*%
%TO.N,PWM4*%
X131572000Y-37439600D03*
D13*
%TO.P,Q4,*%
%TO.N,Net-(H11-Pad1)*%
X148232000Y-39979600D03*
%TD*%
D14*
%TO.P,H4,1*%
%TO.N,GND*%
X50211056Y-59516944D03*
X48514000Y-58814000D03*
X46816944Y-59516944D03*
X46114000Y-61214000D03*
X46816944Y-62911056D03*
X48514000Y-63614000D03*
X50211056Y-62911056D03*
X50914000Y-61214000D03*
D15*
X48514000Y-61214000D03*
%TD*%
D14*
%TO.P,H3,1*%
%TO.N,GND*%
X50211056Y-28528944D03*
X48514000Y-27826000D03*
X46816944Y-28528944D03*
X46114000Y-30226000D03*
X46816944Y-31923056D03*
X48514000Y-32626000D03*
X50211056Y-31923056D03*
X50914000Y-30226000D03*
D15*
X48514000Y-30226000D03*
%TD*%
D14*
%TO.P,H2,1*%
%TO.N,GND*%
X149271056Y-59516944D03*
X147574000Y-58814000D03*
X145876944Y-59516944D03*
X145174000Y-61214000D03*
X145876944Y-62911056D03*
X147574000Y-63614000D03*
X149271056Y-62911056D03*
X149974000Y-61214000D03*
D15*
X147574000Y-61214000D03*
%TD*%
D14*
%TO.P,H1,1*%
%TO.N,GND*%
X149271056Y-28528944D03*
X147574000Y-27826000D03*
X145876944Y-28528944D03*
X145174000Y-30226000D03*
X145876944Y-31923056D03*
X147574000Y-32626000D03*
X149271056Y-31923056D03*
X149974000Y-30226000D03*
D15*
X147574000Y-30226000D03*
%TD*%
D16*
%TO.P,IC4,8*%
%TO.N,+3V3*%
X126873000Y-55035000D03*
%TO.P,IC4,7*%
%TO.N,I_MES2*%
X125603000Y-55035000D03*
%TO.P,IC4,6*%
%TO.N,GND*%
X124333000Y-55035000D03*
%TO.P,IC4,5*%
X123063000Y-55035000D03*
%TO.P,IC4,4*%
%TO.N,Net-(IC4-Pad3)*%
X123063000Y-49613000D03*
%TO.P,IC4,3*%
X124333000Y-49613000D03*
%TO.P,IC4,2*%
%TO.N,Net-(F2-Pad2)*%
X125603000Y-49613000D03*
%TO.P,IC4,1*%
X126873000Y-49613000D03*
%TD*%
D17*
%TO.P,J6,1*%
%TO.N,+3V3*%
X82042000Y-60452000D03*
%TD*%
%TA.AperFunction,SMDPad,CuDef*%
D18*
%TO.P,R4,2*%
%TO.N,GND*%
G36*
X120275779Y-43771144D02*
G01*
X120298834Y-43774563D01*
X120321443Y-43780227D01*
X120343387Y-43788079D01*
X120364457Y-43798044D01*
X120384448Y-43810026D01*
X120403168Y-43823910D01*
X120420438Y-43839562D01*
X120436090Y-43856832D01*
X120449974Y-43875552D01*
X120461956Y-43895543D01*
X120471921Y-43916613D01*
X120479773Y-43938557D01*
X120485437Y-43961166D01*
X120488856Y-43984221D01*
X120490000Y-44007500D01*
X120490000Y-44582500D01*
X120488856Y-44605779D01*
X120485437Y-44628834D01*
X120479773Y-44651443D01*
X120471921Y-44673387D01*
X120461956Y-44694457D01*
X120449974Y-44714448D01*
X120436090Y-44733168D01*
X120420438Y-44750438D01*
X120403168Y-44766090D01*
X120384448Y-44779974D01*
X120364457Y-44791956D01*
X120343387Y-44801921D01*
X120321443Y-44809773D01*
X120298834Y-44815437D01*
X120275779Y-44818856D01*
X120252500Y-44820000D01*
X119777500Y-44820000D01*
X119754221Y-44818856D01*
X119731166Y-44815437D01*
X119708557Y-44809773D01*
X119686613Y-44801921D01*
X119665543Y-44791956D01*
X119645552Y-44779974D01*
X119626832Y-44766090D01*
X119609562Y-44750438D01*
X119593910Y-44733168D01*
X119580026Y-44714448D01*
X119568044Y-44694457D01*
X119558079Y-44673387D01*
X119550227Y-44651443D01*
X119544563Y-44628834D01*
X119541144Y-44605779D01*
X119540000Y-44582500D01*
X119540000Y-44007500D01*
X119541144Y-43984221D01*
X119544563Y-43961166D01*
X119550227Y-43938557D01*
X119558079Y-43916613D01*
X119568044Y-43895543D01*
X119580026Y-43875552D01*
X119593910Y-43856832D01*
X119609562Y-43839562D01*
X119626832Y-43823910D01*
X119645552Y-43810026D01*
X119665543Y-43798044D01*
X119686613Y-43788079D01*
X119708557Y-43780227D01*
X119731166Y-43774563D01*
X119754221Y-43771144D01*
X119777500Y-43770000D01*
X120252500Y-43770000D01*
X120275779Y-43771144D01*
G37*
%TD.AperFunction*%
%TA.AperFunction,SMDPad,CuDef*%
%TO.P,R4,1*%
%TO.N,PWM3*%
G36*
X120275779Y-42021144D02*
G01*
X120298834Y-42024563D01*
X120321443Y-42030227D01*
X120343387Y-42038079D01*
X120364457Y-42048044D01*
X120384448Y-42060026D01*
X120403168Y-42073910D01*
X120420438Y-42089562D01*
X120436090Y-42106832D01*
X120449974Y-42125552D01*
X120461956Y-42145543D01*
X120471921Y-42166613D01*
X120479773Y-42188557D01*
X120485437Y-42211166D01*
X120488856Y-42234221D01*
X120490000Y-42257500D01*
X120490000Y-42832500D01*
X120488856Y-42855779D01*
X120485437Y-42878834D01*
X120479773Y-42901443D01*
X120471921Y-42923387D01*
X120461956Y-42944457D01*
X120449974Y-42964448D01*
X120436090Y-42983168D01*
X120420438Y-43000438D01*
X120403168Y-43016090D01*
X120384448Y-43029974D01*
X120364457Y-43041956D01*
X120343387Y-43051921D01*
X120321443Y-43059773D01*
X120298834Y-43065437D01*
X120275779Y-43068856D01*
X120252500Y-43070000D01*
X119777500Y-43070000D01*
X119754221Y-43068856D01*
X119731166Y-43065437D01*
X119708557Y-43059773D01*
X119686613Y-43051921D01*
X119665543Y-43041956D01*
X119645552Y-43029974D01*
X119626832Y-43016090D01*
X119609562Y-43000438D01*
X119593910Y-42983168D01*
X119580026Y-42964448D01*
X119568044Y-42944457D01*
X119558079Y-42923387D01*
X119550227Y-42901443D01*
X119544563Y-42878834D01*
X119541144Y-42855779D01*
X119540000Y-42832500D01*
X119540000Y-42257500D01*
X119541144Y-42234221D01*
X119544563Y-42211166D01*
X119550227Y-42188557D01*
X119558079Y-42166613D01*
X119568044Y-42145543D01*
X119580026Y-42125552D01*
X119593910Y-42106832D01*
X119609562Y-42089562D01*
X119626832Y-42073910D01*
X119645552Y-42060026D01*
X119665543Y-42048044D01*
X119686613Y-42038079D01*
X119708557Y-42030227D01*
X119731166Y-42024563D01*
X119754221Y-42021144D01*
X119777500Y-42020000D01*
X120252500Y-42020000D01*
X120275779Y-42021144D01*
G37*
%TD.AperFunction*%
%TD*%
%TA.AperFunction,SMDPad,CuDef*%
%TO.P,R3,2*%
%TO.N,GND*%
G36*
X80165779Y-33181144D02*
G01*
X80188834Y-33184563D01*
X80211443Y-33190227D01*
X80233387Y-33198079D01*
X80254457Y-33208044D01*
X80274448Y-33220026D01*
X80293168Y-33233910D01*
X80310438Y-33249562D01*
X80326090Y-33266832D01*
X80339974Y-33285552D01*
X80351956Y-33305543D01*
X80361921Y-33326613D01*
X80369773Y-33348557D01*
X80375437Y-33371166D01*
X80378856Y-33394221D01*
X80380000Y-33417500D01*
X80380000Y-33892500D01*
X80378856Y-33915779D01*
X80375437Y-33938834D01*
X80369773Y-33961443D01*
X80361921Y-33983387D01*
X80351956Y-34004457D01*
X80339974Y-34024448D01*
X80326090Y-34043168D01*
X80310438Y-34060438D01*
X80293168Y-34076090D01*
X80274448Y-34089974D01*
X80254457Y-34101956D01*
X80233387Y-34111921D01*
X80211443Y-34119773D01*
X80188834Y-34125437D01*
X80165779Y-34128856D01*
X80142500Y-34130000D01*
X79567500Y-34130000D01*
X79544221Y-34128856D01*
X79521166Y-34125437D01*
X79498557Y-34119773D01*
X79476613Y-34111921D01*
X79455543Y-34101956D01*
X79435552Y-34089974D01*
X79416832Y-34076090D01*
X79399562Y-34060438D01*
X79383910Y-34043168D01*
X79370026Y-34024448D01*
X79358044Y-34004457D01*
X79348079Y-33983387D01*
X79340227Y-33961443D01*
X79334563Y-33938834D01*
X79331144Y-33915779D01*
X79330000Y-33892500D01*
X79330000Y-33417500D01*
X79331144Y-33394221D01*
X79334563Y-33371166D01*
X79340227Y-33348557D01*
X79348079Y-33326613D01*
X79358044Y-33305543D01*
X79370026Y-33285552D01*
X79383910Y-33266832D01*
X79399562Y-33249562D01*
X79416832Y-33233910D01*
X79435552Y-33220026D01*
X79455543Y-33208044D01*
X79476613Y-33198079D01*
X79498557Y-33190227D01*
X79521166Y-33184563D01*
X79544221Y-33181144D01*
X79567500Y-33180000D01*
X80142500Y-33180000D01*
X80165779Y-33181144D01*
G37*
%TD.AperFunction*%
%TA.AperFunction,SMDPad,CuDef*%
%TO.P,R3,1*%
%TO.N,PWM2*%
G36*
X78415779Y-33181144D02*
G01*
X78438834Y-33184563D01*
X78461443Y-33190227D01*
X78483387Y-33198079D01*
X78504457Y-33208044D01*
X78524448Y-33220026D01*
X78543168Y-33233910D01*
X78560438Y-33249562D01*
X78576090Y-33266832D01*
X78589974Y-33285552D01*
X78601956Y-33305543D01*
X78611921Y-33326613D01*
X78619773Y-33348557D01*
X78625437Y-33371166D01*
X78628856Y-33394221D01*
X78630000Y-33417500D01*
X78630000Y-33892500D01*
X78628856Y-33915779D01*
X78625437Y-33938834D01*
X78619773Y-33961443D01*
X78611921Y-33983387D01*
X78601956Y-34004457D01*
X78589974Y-34024448D01*
X78576090Y-34043168D01*
X78560438Y-34060438D01*
X78543168Y-34076090D01*
X78524448Y-34089974D01*
X78504457Y-34101956D01*
X78483387Y-34111921D01*
X78461443Y-34119773D01*
X78438834Y-34125437D01*
X78415779Y-34128856D01*
X78392500Y-34130000D01*
X77817500Y-34130000D01*
X77794221Y-34128856D01*
X77771166Y-34125437D01*
X77748557Y-34119773D01*
X77726613Y-34111921D01*
X77705543Y-34101956D01*
X77685552Y-34089974D01*
X77666832Y-34076090D01*
X77649562Y-34060438D01*
X77633910Y-34043168D01*
X77620026Y-34024448D01*
X77608044Y-34004457D01*
X77598079Y-33983387D01*
X77590227Y-33961443D01*
X77584563Y-33938834D01*
X77581144Y-33915779D01*
X77580000Y-33892500D01*
X77580000Y-33417500D01*
X77581144Y-33394221D01*
X77584563Y-33371166D01*
X77590227Y-33348557D01*
X77598079Y-33326613D01*
X77608044Y-33305543D01*
X77620026Y-33285552D01*
X77633910Y-33266832D01*
X77649562Y-33249562D01*
X77666832Y-33233910D01*
X77685552Y-33220026D01*
X77705543Y-33208044D01*
X77726613Y-33198079D01*
X77748557Y-33190227D01*
X77771166Y-33184563D01*
X77794221Y-33181144D01*
X77817500Y-33180000D01*
X78392500Y-33180000D01*
X78415779Y-33181144D01*
G37*
%TD.AperFunction*%
%TD*%
%TA.AperFunction,SMDPad,CuDef*%
%TO.P,R2,2*%
%TO.N,GND*%
G36*
X66808779Y-43517144D02*
G01*
X66831834Y-43520563D01*
X66854443Y-43526227D01*
X66876387Y-43534079D01*
X66897457Y-43544044D01*
X66917448Y-43556026D01*
X66936168Y-43569910D01*
X66953438Y-43585562D01*
X66969090Y-43602832D01*
X66982974Y-43621552D01*
X66994956Y-43641543D01*
X67004921Y-43662613D01*
X67012773Y-43684557D01*
X67018437Y-43707166D01*
X67021856Y-43730221D01*
X67023000Y-43753500D01*
X67023000Y-44328500D01*
X67021856Y-44351779D01*
X67018437Y-44374834D01*
X67012773Y-44397443D01*
X67004921Y-44419387D01*
X66994956Y-44440457D01*
X66982974Y-44460448D01*
X66969090Y-44479168D01*
X66953438Y-44496438D01*
X66936168Y-44512090D01*
X66917448Y-44525974D01*
X66897457Y-44537956D01*
X66876387Y-44547921D01*
X66854443Y-44555773D01*
X66831834Y-44561437D01*
X66808779Y-44564856D01*
X66785500Y-44566000D01*
X66310500Y-44566000D01*
X66287221Y-44564856D01*
X66264166Y-44561437D01*
X66241557Y-44555773D01*
X66219613Y-44547921D01*
X66198543Y-44537956D01*
X66178552Y-44525974D01*
X66159832Y-44512090D01*
X66142562Y-44496438D01*
X66126910Y-44479168D01*
X66113026Y-44460448D01*
X66101044Y-44440457D01*
X66091079Y-44419387D01*
X66083227Y-44397443D01*
X66077563Y-44374834D01*
X66074144Y-44351779D01*
X66073000Y-44328500D01*
X66073000Y-43753500D01*
X66074144Y-43730221D01*
X66077563Y-43707166D01*
X66083227Y-43684557D01*
X66091079Y-43662613D01*
X66101044Y-43641543D01*
X66113026Y-43621552D01*
X66126910Y-43602832D01*
X66142562Y-43585562D01*
X66159832Y-43569910D01*
X66178552Y-43556026D01*
X66198543Y-43544044D01*
X66219613Y-43534079D01*
X66241557Y-43526227D01*
X66264166Y-43520563D01*
X66287221Y-43517144D01*
X66310500Y-43516000D01*
X66785500Y-43516000D01*
X66808779Y-43517144D01*
G37*
%TD.AperFunction*%
%TA.AperFunction,SMDPad,CuDef*%
%TO.P,R2,1*%
%TO.N,PWM1*%
G36*
X66808779Y-41767144D02*
G01*
X66831834Y-41770563D01*
X66854443Y-41776227D01*
X66876387Y-41784079D01*
X66897457Y-41794044D01*
X66917448Y-41806026D01*
X66936168Y-41819910D01*
X66953438Y-41835562D01*
X66969090Y-41852832D01*
X66982974Y-41871552D01*
X66994956Y-41891543D01*
X67004921Y-41912613D01*
X67012773Y-41934557D01*
X67018437Y-41957166D01*
X67021856Y-41980221D01*
X67023000Y-42003500D01*
X67023000Y-42578500D01*
X67021856Y-42601779D01*
X67018437Y-42624834D01*
X67012773Y-42647443D01*
X67004921Y-42669387D01*
X66994956Y-42690457D01*
X66982974Y-42710448D01*
X66969090Y-42729168D01*
X66953438Y-42746438D01*
X66936168Y-42762090D01*
X66917448Y-42775974D01*
X66897457Y-42787956D01*
X66876387Y-42797921D01*
X66854443Y-42805773D01*
X66831834Y-42811437D01*
X66808779Y-42814856D01*
X66785500Y-42816000D01*
X66310500Y-42816000D01*
X66287221Y-42814856D01*
X66264166Y-42811437D01*
X66241557Y-42805773D01*
X66219613Y-42797921D01*
X66198543Y-42787956D01*
X66178552Y-42775974D01*
X66159832Y-42762090D01*
X66142562Y-42746438D01*
X66126910Y-42729168D01*
X66113026Y-42710448D01*
X66101044Y-42690457D01*
X66091079Y-42669387D01*
X66083227Y-42647443D01*
X66077563Y-42624834D01*
X66074144Y-42601779D01*
X66073000Y-42578500D01*
X66073000Y-42003500D01*
X66074144Y-41980221D01*
X66077563Y-41957166D01*
X66083227Y-41934557D01*
X66091079Y-41912613D01*
X66101044Y-41891543D01*
X66113026Y-41871552D01*
X66126910Y-41852832D01*
X66142562Y-41835562D01*
X66159832Y-41819910D01*
X66178552Y-41806026D01*
X66198543Y-41794044D01*
X66219613Y-41784079D01*
X66241557Y-41776227D01*
X66264166Y-41770563D01*
X66287221Y-41767144D01*
X66310500Y-41766000D01*
X66785500Y-41766000D01*
X66808779Y-41767144D01*
G37*
%TD.AperFunction*%
%TD*%
%TA.AperFunction,SMDPad,CuDef*%
%TO.P,R1,2*%
%TO.N,GND*%
G36*
X133660779Y-33181144D02*
G01*
X133683834Y-33184563D01*
X133706443Y-33190227D01*
X133728387Y-33198079D01*
X133749457Y-33208044D01*
X133769448Y-33220026D01*
X133788168Y-33233910D01*
X133805438Y-33249562D01*
X133821090Y-33266832D01*
X133834974Y-33285552D01*
X133846956Y-33305543D01*
X133856921Y-33326613D01*
X133864773Y-33348557D01*
X133870437Y-33371166D01*
X133873856Y-33394221D01*
X133875000Y-33417500D01*
X133875000Y-33892500D01*
X133873856Y-33915779D01*
X133870437Y-33938834D01*
X133864773Y-33961443D01*
X133856921Y-33983387D01*
X133846956Y-34004457D01*
X133834974Y-34024448D01*
X133821090Y-34043168D01*
X133805438Y-34060438D01*
X133788168Y-34076090D01*
X133769448Y-34089974D01*
X133749457Y-34101956D01*
X133728387Y-34111921D01*
X133706443Y-34119773D01*
X133683834Y-34125437D01*
X133660779Y-34128856D01*
X133637500Y-34130000D01*
X133062500Y-34130000D01*
X133039221Y-34128856D01*
X133016166Y-34125437D01*
X132993557Y-34119773D01*
X132971613Y-34111921D01*
X132950543Y-34101956D01*
X132930552Y-34089974D01*
X132911832Y-34076090D01*
X132894562Y-34060438D01*
X132878910Y-34043168D01*
X132865026Y-34024448D01*
X132853044Y-34004457D01*
X132843079Y-33983387D01*
X132835227Y-33961443D01*
X132829563Y-33938834D01*
X132826144Y-33915779D01*
X132825000Y-33892500D01*
X132825000Y-33417500D01*
X132826144Y-33394221D01*
X132829563Y-33371166D01*
X132835227Y-33348557D01*
X132843079Y-33326613D01*
X132853044Y-33305543D01*
X132865026Y-33285552D01*
X132878910Y-33266832D01*
X132894562Y-33249562D01*
X132911832Y-33233910D01*
X132930552Y-33220026D01*
X132950543Y-33208044D01*
X132971613Y-33198079D01*
X132993557Y-33190227D01*
X133016166Y-33184563D01*
X133039221Y-33181144D01*
X133062500Y-33180000D01*
X133637500Y-33180000D01*
X133660779Y-33181144D01*
G37*
%TD.AperFunction*%
%TA.AperFunction,SMDPad,CuDef*%
%TO.P,R1,1*%
%TO.N,PWM4*%
G36*
X131910779Y-33181144D02*
G01*
X131933834Y-33184563D01*
X131956443Y-33190227D01*
X131978387Y-33198079D01*
X131999457Y-33208044D01*
X132019448Y-33220026D01*
X132038168Y-33233910D01*
X132055438Y-33249562D01*
X132071090Y-33266832D01*
X132084974Y-33285552D01*
X132096956Y-33305543D01*
X132106921Y-33326613D01*
X132114773Y-33348557D01*
X132120437Y-33371166D01*
X132123856Y-33394221D01*
X132125000Y-33417500D01*
X132125000Y-33892500D01*
X132123856Y-33915779D01*
X132120437Y-33938834D01*
X132114773Y-33961443D01*
X132106921Y-33983387D01*
X132096956Y-34004457D01*
X132084974Y-34024448D01*
X132071090Y-34043168D01*
X132055438Y-34060438D01*
X132038168Y-34076090D01*
X132019448Y-34089974D01*
X131999457Y-34101956D01*
X131978387Y-34111921D01*
X131956443Y-34119773D01*
X131933834Y-34125437D01*
X131910779Y-34128856D01*
X131887500Y-34130000D01*
X131312500Y-34130000D01*
X131289221Y-34128856D01*
X131266166Y-34125437D01*
X131243557Y-34119773D01*
X131221613Y-34111921D01*
X131200543Y-34101956D01*
X131180552Y-34089974D01*
X131161832Y-34076090D01*
X131144562Y-34060438D01*
X131128910Y-34043168D01*
X131115026Y-34024448D01*
X131103044Y-34004457D01*
X131093079Y-33983387D01*
X131085227Y-33961443D01*
X131079563Y-33938834D01*
X131076144Y-33915779D01*
X131075000Y-33892500D01*
X131075000Y-33417500D01*
X131076144Y-33394221D01*
X131079563Y-33371166D01*
X131085227Y-33348557D01*
X131093079Y-33326613D01*
X131103044Y-33305543D01*
X131115026Y-33285552D01*
X131128910Y-33266832D01*
X131144562Y-33249562D01*
X131161832Y-33233910D01*
X131180552Y-33220026D01*
X131200543Y-33208044D01*
X131221613Y-33198079D01*
X131243557Y-33190227D01*
X131266166Y-33184563D01*
X131289221Y-33181144D01*
X131312500Y-33180000D01*
X131887500Y-33180000D01*
X131910779Y-33181144D01*
G37*
%TD.AperFunction*%
%TD*%
D19*
%TO.P,C5,2*%
%TO.N,GND*%
X110744000Y-62912000D03*
D20*
%TO.P,C5,1*%
%TO.N,VCC*%
X110744000Y-57912000D03*
%TD*%
D19*
%TO.P,C10,2*%
%TO.N,GND*%
X89408000Y-62912000D03*
D20*
%TO.P,C10,1*%
%TO.N,VCC*%
X89408000Y-57912000D03*
%TD*%
D10*
%TO.P,Q8,3*%
%TO.N,GND*%
X131549000Y-53086000D03*
%TO.P,Q8,2*%
%TO.N,Net-(C2-Pad1)*%
X131549000Y-50546000D03*
D11*
%TO.P,Q8,1*%
%TO.N,PWM4*%
X131549000Y-48006000D03*
D12*
%TO.P,Q8,*%
%TO.N,Net-(H12-Pad1)*%
X148209000Y-50546000D03*
%TD*%
D10*
%TO.P,Q7,3*%
%TO.N,GND*%
X118006000Y-48006000D03*
%TO.P,Q7,2*%
%TO.N,Net-(C2-Pad2)*%
X118006000Y-50546000D03*
D11*
%TO.P,Q7,1*%
%TO.N,PWM3*%
X118006000Y-53086000D03*
D12*
%TO.P,Q7,*%
%TO.N,Net-(H10-Pad1)*%
X101346000Y-50546000D03*
%TD*%
D10*
%TO.P,Q6,3*%
%TO.N,GND*%
X78079600Y-53035200D03*
%TO.P,Q6,2*%
%TO.N,Net-(C1-Pad1)*%
X78079600Y-50495200D03*
D11*
%TO.P,Q6,1*%
%TO.N,PWM2*%
X78079600Y-47955200D03*
D12*
%TO.P,Q6,*%
%TO.N,Net-(H8-Pad1)*%
X94739600Y-50495200D03*
%TD*%
D10*
%TO.P,Q3,3*%
%TO.N,Net-(IC4-Pad3)*%
X118006000Y-37439600D03*
%TO.P,Q3,2*%
%TO.N,Net-(C2-Pad2)*%
X118006000Y-39979600D03*
D11*
%TO.P,Q3,1*%
%TO.N,PWM3*%
X118006000Y-42519600D03*
D12*
%TO.P,Q3,*%
%TO.N,Net-(H9-Pad1)*%
X101346000Y-39979600D03*
%TD*%
D10*
%TO.P,Q2,3*%
%TO.N,Net-(IC2-Pad3)*%
X78130400Y-42519600D03*
%TO.P,Q2,2*%
%TO.N,Net-(C1-Pad1)*%
X78130400Y-39979600D03*
D11*
%TO.P,Q2,1*%
%TO.N,PWM2*%
X78130400Y-37439600D03*
D12*
%TO.P,Q2,*%
%TO.N,Net-(H7-Pad1)*%
X94790400Y-39979600D03*
%TD*%
D10*
%TO.P,Q1,3*%
%TO.N,Net-(IC2-Pad3)*%
X64208800Y-37211000D03*
%TO.P,Q1,2*%
%TO.N,Net-(C1-Pad2)*%
X64208800Y-39751000D03*
D11*
%TO.P,Q1,1*%
%TO.N,PWM1*%
X64208800Y-42291000D03*
D12*
%TO.P,Q1,*%
%TO.N,Net-(H5-Pad1)*%
X47548800Y-39751000D03*
%TD*%
D21*
%TO.P,J5,2*%
%TO.N,VCC*%
X97790000Y-60960000D03*
D22*
%TO.P,J5,1*%
%TO.N,GND*%
X102870000Y-60960000D03*
%TD*%
D23*
%TO.P,J4,3*%
%TO.N,I_MES2*%
X126492000Y-60452000D03*
%TO.P,J4,2*%
%TO.N,IN4*%
X129032000Y-60452000D03*
D17*
%TO.P,J4,1*%
%TO.N,IN3*%
X131572000Y-60452000D03*
%TD*%
D21*
%TO.P,J3,2*%
%TO.N,Net-(C2-Pad1)*%
X127254000Y-30480000D03*
D22*
%TO.P,J3,1*%
%TO.N,Net-(C2-Pad2)*%
X122174000Y-30480000D03*
%TD*%
D23*
%TO.P,J2,3*%
%TO.N,I_MES1*%
X71628000Y-61976000D03*
%TO.P,J2,2*%
%TO.N,IN2*%
X69088000Y-61976000D03*
D17*
%TO.P,J2,1*%
%TO.N,IN1*%
X66548000Y-61976000D03*
%TD*%
D21*
%TO.P,J1,2*%
%TO.N,Net-(C1-Pad1)*%
X73660000Y-30480000D03*
D22*
%TO.P,J1,1*%
%TO.N,Net-(C1-Pad2)*%
X68580000Y-30480000D03*
%TD*%
D24*
%TO.P,IC3,8*%
%TO.N,Net-(IC3-Pad8)*%
X122936000Y-40607000D03*
%TO.P,IC3,7*%
%TO.N,PWM3*%
X124206000Y-40607000D03*
%TO.P,IC3,6*%
%TO.N,VCC*%
X125476000Y-40607000D03*
%TO.P,IC3,5*%
%TO.N,PWM4*%
X126746000Y-40607000D03*
%TO.P,IC3,4*%
%TO.N,IN4*%
X126746000Y-46007000D03*
%TO.P,IC3,3*%
%TO.N,GND*%
X125476000Y-46007000D03*
%TO.P,IC3,2*%
%TO.N,IN3*%
X124206000Y-46007000D03*
%TO.P,IC3,1*%
%TO.N,Net-(IC3-Pad1)*%
X122936000Y-46007000D03*
%TD*%
D16*
%TO.P,IC2,8*%
%TO.N,+3V3*%
X73025000Y-55035000D03*
%TO.P,IC2,7*%
%TO.N,I_MES1*%
X71755000Y-55035000D03*
%TO.P,IC2,6*%
%TO.N,GND*%
X70485000Y-55035000D03*
%TO.P,IC2,5*%
X69215000Y-55035000D03*
%TO.P,IC2,4*%
%TO.N,Net-(IC2-Pad3)*%
X69215000Y-49613000D03*
%TO.P,IC2,3*%
X70485000Y-49613000D03*
%TO.P,IC2,2*%
%TO.N,Net-(F1-Pad2)*%
X71755000Y-49613000D03*
%TO.P,IC2,1*%
X73025000Y-49613000D03*
%TD*%
D24*
%TO.P,IC1,8*%
%TO.N,Net-(IC1-Pad8)*%
X69215000Y-40480000D03*
%TO.P,IC1,7*%
%TO.N,PWM1*%
X70485000Y-40480000D03*
%TO.P,IC1,6*%
%TO.N,VCC*%
X71755000Y-40480000D03*
%TO.P,IC1,5*%
%TO.N,PWM2*%
X73025000Y-40480000D03*
%TO.P,IC1,4*%
%TO.N,IN2*%
X73025000Y-45880000D03*
%TO.P,IC1,3*%
%TO.N,GND*%
X71755000Y-45880000D03*
%TO.P,IC1,2*%
%TO.N,IN1*%
X70485000Y-45880000D03*
%TO.P,IC1,1*%
%TO.N,Net-(IC1-Pad1)*%
X69215000Y-45880000D03*
%TD*%
D25*
%TO.P,F2,2*%
%TO.N,Net-(F2-Pad2)*%
X121920000Y-58928000D03*
%TO.P,F2,1*%
%TO.N,VCC*%
X116820000Y-58928000D03*
%TD*%
%TO.P,F1,2*%
%TO.N,Net-(F1-Pad2)*%
X75164000Y-57658000D03*
%TO.P,F1,1*%
%TO.N,VCC*%
X80264000Y-57658000D03*
%TD*%
%TA.AperFunction,SMDPad,CuDef*%
D18*
%TO.P,C9,2*%
%TO.N,GND*%
G36*
X128784779Y-56090144D02*
G01*
X128807834Y-56093563D01*
X128830443Y-56099227D01*
X128852387Y-56107079D01*
X128873457Y-56117044D01*
X128893448Y-56129026D01*
X128912168Y-56142910D01*
X128929438Y-56158562D01*
X128945090Y-56175832D01*
X128958974Y-56194552D01*
X128970956Y-56214543D01*
X128980921Y-56235613D01*
X128988773Y-56257557D01*
X128994437Y-56280166D01*
X128997856Y-56303221D01*
X128999000Y-56326500D01*
X128999000Y-56901500D01*
X128997856Y-56924779D01*
X128994437Y-56947834D01*
X128988773Y-56970443D01*
X128980921Y-56992387D01*
X128970956Y-57013457D01*
X128958974Y-57033448D01*
X128945090Y-57052168D01*
X128929438Y-57069438D01*
X128912168Y-57085090D01*
X128893448Y-57098974D01*
X128873457Y-57110956D01*
X128852387Y-57120921D01*
X128830443Y-57128773D01*
X128807834Y-57134437D01*
X128784779Y-57137856D01*
X128761500Y-57139000D01*
X128286500Y-57139000D01*
X128263221Y-57137856D01*
X128240166Y-57134437D01*
X128217557Y-57128773D01*
X128195613Y-57120921D01*
X128174543Y-57110956D01*
X128154552Y-57098974D01*
X128135832Y-57085090D01*
X128118562Y-57069438D01*
X128102910Y-57052168D01*
X128089026Y-57033448D01*
X128077044Y-57013457D01*
X128067079Y-56992387D01*
X128059227Y-56970443D01*
X128053563Y-56947834D01*
X128050144Y-56924779D01*
X128049000Y-56901500D01*
X128049000Y-56326500D01*
X128050144Y-56303221D01*
X128053563Y-56280166D01*
X128059227Y-56257557D01*
X128067079Y-56235613D01*
X128077044Y-56214543D01*
X128089026Y-56194552D01*
X128102910Y-56175832D01*
X128118562Y-56158562D01*
X128135832Y-56142910D01*
X128154552Y-56129026D01*
X128174543Y-56117044D01*
X128195613Y-56107079D01*
X128217557Y-56099227D01*
X128240166Y-56093563D01*
X128263221Y-56090144D01*
X128286500Y-56089000D01*
X128761500Y-56089000D01*
X128784779Y-56090144D01*
G37*
%TD.AperFunction*%
%TA.AperFunction,SMDPad,CuDef*%
%TO.P,C9,1*%
%TO.N,+3V3*%
G36*
X128784779Y-54340144D02*
G01*
X128807834Y-54343563D01*
X128830443Y-54349227D01*
X128852387Y-54357079D01*
X128873457Y-54367044D01*
X128893448Y-54379026D01*
X128912168Y-54392910D01*
X128929438Y-54408562D01*
X128945090Y-54425832D01*
X128958974Y-54444552D01*
X128970956Y-54464543D01*
X128980921Y-54485613D01*
X128988773Y-54507557D01*
X128994437Y-54530166D01*
X128997856Y-54553221D01*
X128999000Y-54576500D01*
X128999000Y-55151500D01*
X128997856Y-55174779D01*
X128994437Y-55197834D01*
X128988773Y-55220443D01*
X128980921Y-55242387D01*
X128970956Y-55263457D01*
X128958974Y-55283448D01*
X128945090Y-55302168D01*
X128929438Y-55319438D01*
X128912168Y-55335090D01*
X128893448Y-55348974D01*
X128873457Y-55360956D01*
X128852387Y-55370921D01*
X128830443Y-55378773D01*
X128807834Y-55384437D01*
X128784779Y-55387856D01*
X128761500Y-55389000D01*
X128286500Y-55389000D01*
X128263221Y-55387856D01*
X128240166Y-55384437D01*
X128217557Y-55378773D01*
X128195613Y-55370921D01*
X128174543Y-55360956D01*
X128154552Y-55348974D01*
X128135832Y-55335090D01*
X128118562Y-55319438D01*
X128102910Y-55302168D01*
X128089026Y-55283448D01*
X128077044Y-55263457D01*
X128067079Y-55242387D01*
X128059227Y-55220443D01*
X128053563Y-55197834D01*
X128050144Y-55174779D01*
X128049000Y-55151500D01*
X128049000Y-54576500D01*
X128050144Y-54553221D01*
X128053563Y-54530166D01*
X128059227Y-54507557D01*
X128067079Y-54485613D01*
X128077044Y-54464543D01*
X128089026Y-54444552D01*
X128102910Y-54425832D01*
X128118562Y-54408562D01*
X128135832Y-54392910D01*
X128154552Y-54379026D01*
X128174543Y-54367044D01*
X128195613Y-54357079D01*
X128217557Y-54349227D01*
X128240166Y-54343563D01*
X128263221Y-54340144D01*
X128286500Y-54339000D01*
X128761500Y-54339000D01*
X128784779Y-54340144D01*
G37*
%TD.AperFunction*%
%TD*%
%TA.AperFunction,SMDPad,CuDef*%
%TO.P,C8,2*%
%TO.N,GND*%
G36*
X127790779Y-38134144D02*
G01*
X127813834Y-38137563D01*
X127836443Y-38143227D01*
X127858387Y-38151079D01*
X127879457Y-38161044D01*
X127899448Y-38173026D01*
X127918168Y-38186910D01*
X127935438Y-38202562D01*
X127951090Y-38219832D01*
X127964974Y-38238552D01*
X127976956Y-38258543D01*
X127986921Y-38279613D01*
X127994773Y-38301557D01*
X128000437Y-38324166D01*
X128003856Y-38347221D01*
X128005000Y-38370500D01*
X128005000Y-38845500D01*
X128003856Y-38868779D01*
X128000437Y-38891834D01*
X127994773Y-38914443D01*
X127986921Y-38936387D01*
X127976956Y-38957457D01*
X127964974Y-38977448D01*
X127951090Y-38996168D01*
X127935438Y-39013438D01*
X127918168Y-39029090D01*
X127899448Y-39042974D01*
X127879457Y-39054956D01*
X127858387Y-39064921D01*
X127836443Y-39072773D01*
X127813834Y-39078437D01*
X127790779Y-39081856D01*
X127767500Y-39083000D01*
X127192500Y-39083000D01*
X127169221Y-39081856D01*
X127146166Y-39078437D01*
X127123557Y-39072773D01*
X127101613Y-39064921D01*
X127080543Y-39054956D01*
X127060552Y-39042974D01*
X127041832Y-39029090D01*
X127024562Y-39013438D01*
X127008910Y-38996168D01*
X126995026Y-38977448D01*
X126983044Y-38957457D01*
X126973079Y-38936387D01*
X126965227Y-38914443D01*
X126959563Y-38891834D01*
X126956144Y-38868779D01*
X126955000Y-38845500D01*
X126955000Y-38370500D01*
X126956144Y-38347221D01*
X126959563Y-38324166D01*
X126965227Y-38301557D01*
X126973079Y-38279613D01*
X126983044Y-38258543D01*
X126995026Y-38238552D01*
X127008910Y-38219832D01*
X127024562Y-38202562D01*
X127041832Y-38186910D01*
X127060552Y-38173026D01*
X127080543Y-38161044D01*
X127101613Y-38151079D01*
X127123557Y-38143227D01*
X127146166Y-38137563D01*
X127169221Y-38134144D01*
X127192500Y-38133000D01*
X127767500Y-38133000D01*
X127790779Y-38134144D01*
G37*
%TD.AperFunction*%
%TA.AperFunction,SMDPad,CuDef*%
%TO.P,C8,1*%
%TO.N,VCC*%
G36*
X126040779Y-38134144D02*
G01*
X126063834Y-38137563D01*
X126086443Y-38143227D01*
X126108387Y-38151079D01*
X126129457Y-38161044D01*
X126149448Y-38173026D01*
X126168168Y-38186910D01*
X126185438Y-38202562D01*
X126201090Y-38219832D01*
X126214974Y-38238552D01*
X126226956Y-38258543D01*
X126236921Y-38279613D01*
X126244773Y-38301557D01*
X126250437Y-38324166D01*
X126253856Y-38347221D01*
X126255000Y-38370500D01*
X126255000Y-38845500D01*
X126253856Y-38868779D01*
X126250437Y-38891834D01*
X126244773Y-38914443D01*
X126236921Y-38936387D01*
X126226956Y-38957457D01*
X126214974Y-38977448D01*
X126201090Y-38996168D01*
X126185438Y-39013438D01*
X126168168Y-39029090D01*
X126149448Y-39042974D01*
X126129457Y-39054956D01*
X126108387Y-39064921D01*
X126086443Y-39072773D01*
X126063834Y-39078437D01*
X126040779Y-39081856D01*
X126017500Y-39083000D01*
X125442500Y-39083000D01*
X125419221Y-39081856D01*
X125396166Y-39078437D01*
X125373557Y-39072773D01*
X125351613Y-39064921D01*
X125330543Y-39054956D01*
X125310552Y-39042974D01*
X125291832Y-39029090D01*
X125274562Y-39013438D01*
X125258910Y-38996168D01*
X125245026Y-38977448D01*
X125233044Y-38957457D01*
X125223079Y-38936387D01*
X125215227Y-38914443D01*
X125209563Y-38891834D01*
X125206144Y-38868779D01*
X125205000Y-38845500D01*
X125205000Y-38370500D01*
X125206144Y-38347221D01*
X125209563Y-38324166D01*
X125215227Y-38301557D01*
X125223079Y-38279613D01*
X125233044Y-38258543D01*
X125245026Y-38238552D01*
X125258910Y-38219832D01*
X125274562Y-38202562D01*
X125291832Y-38186910D01*
X125310552Y-38173026D01*
X125330543Y-38161044D01*
X125351613Y-38151079D01*
X125373557Y-38143227D01*
X125396166Y-38137563D01*
X125419221Y-38134144D01*
X125442500Y-38133000D01*
X126017500Y-38133000D01*
X126040779Y-38134144D01*
G37*
%TD.AperFunction*%
%TD*%
%TA.AperFunction,SMDPad,CuDef*%
%TO.P,C7,2*%
%TO.N,GND*%
G36*
X122625779Y-38134144D02*
G01*
X122648834Y-38137563D01*
X122671443Y-38143227D01*
X122693387Y-38151079D01*
X122714457Y-38161044D01*
X122734448Y-38173026D01*
X122753168Y-38186910D01*
X122770438Y-38202562D01*
X122786090Y-38219832D01*
X122799974Y-38238552D01*
X122811956Y-38258543D01*
X122821921Y-38279613D01*
X122829773Y-38301557D01*
X122835437Y-38324166D01*
X122838856Y-38347221D01*
X122840000Y-38370500D01*
X122840000Y-38845500D01*
X122838856Y-38868779D01*
X122835437Y-38891834D01*
X122829773Y-38914443D01*
X122821921Y-38936387D01*
X122811956Y-38957457D01*
X122799974Y-38977448D01*
X122786090Y-38996168D01*
X122770438Y-39013438D01*
X122753168Y-39029090D01*
X122734448Y-39042974D01*
X122714457Y-39054956D01*
X122693387Y-39064921D01*
X122671443Y-39072773D01*
X122648834Y-39078437D01*
X122625779Y-39081856D01*
X122602500Y-39083000D01*
X122027500Y-39083000D01*
X122004221Y-39081856D01*
X121981166Y-39078437D01*
X121958557Y-39072773D01*
X121936613Y-39064921D01*
X121915543Y-39054956D01*
X121895552Y-39042974D01*
X121876832Y-39029090D01*
X121859562Y-39013438D01*
X121843910Y-38996168D01*
X121830026Y-38977448D01*
X121818044Y-38957457D01*
X121808079Y-38936387D01*
X121800227Y-38914443D01*
X121794563Y-38891834D01*
X121791144Y-38868779D01*
X121790000Y-38845500D01*
X121790000Y-38370500D01*
X121791144Y-38347221D01*
X121794563Y-38324166D01*
X121800227Y-38301557D01*
X121808079Y-38279613D01*
X121818044Y-38258543D01*
X121830026Y-38238552D01*
X121843910Y-38219832D01*
X121859562Y-38202562D01*
X121876832Y-38186910D01*
X121895552Y-38173026D01*
X121915543Y-38161044D01*
X121936613Y-38151079D01*
X121958557Y-38143227D01*
X121981166Y-38137563D01*
X122004221Y-38134144D01*
X122027500Y-38133000D01*
X122602500Y-38133000D01*
X122625779Y-38134144D01*
G37*
%TD.AperFunction*%
%TA.AperFunction,SMDPad,CuDef*%
%TO.P,C7,1*%
%TO.N,VCC*%
G36*
X124375779Y-38134144D02*
G01*
X124398834Y-38137563D01*
X124421443Y-38143227D01*
X124443387Y-38151079D01*
X124464457Y-38161044D01*
X124484448Y-38173026D01*
X124503168Y-38186910D01*
X124520438Y-38202562D01*
X124536090Y-38219832D01*
X124549974Y-38238552D01*
X124561956Y-38258543D01*
X124571921Y-38279613D01*
X124579773Y-38301557D01*
X124585437Y-38324166D01*
X124588856Y-38347221D01*
X124590000Y-38370500D01*
X124590000Y-38845500D01*
X124588856Y-38868779D01*
X124585437Y-38891834D01*
X124579773Y-38914443D01*
X124571921Y-38936387D01*
X124561956Y-38957457D01*
X124549974Y-38977448D01*
X124536090Y-38996168D01*
X124520438Y-39013438D01*
X124503168Y-39029090D01*
X124484448Y-39042974D01*
X124464457Y-39054956D01*
X124443387Y-39064921D01*
X124421443Y-39072773D01*
X124398834Y-39078437D01*
X124375779Y-39081856D01*
X124352500Y-39083000D01*
X123777500Y-39083000D01*
X123754221Y-39081856D01*
X123731166Y-39078437D01*
X123708557Y-39072773D01*
X123686613Y-39064921D01*
X123665543Y-39054956D01*
X123645552Y-39042974D01*
X123626832Y-39029090D01*
X123609562Y-39013438D01*
X123593910Y-38996168D01*
X123580026Y-38977448D01*
X123568044Y-38957457D01*
X123558079Y-38936387D01*
X123550227Y-38914443D01*
X123544563Y-38891834D01*
X123541144Y-38868779D01*
X123540000Y-38845500D01*
X123540000Y-38370500D01*
X123541144Y-38347221D01*
X123544563Y-38324166D01*
X123550227Y-38301557D01*
X123558079Y-38279613D01*
X123568044Y-38258543D01*
X123580026Y-38238552D01*
X123593910Y-38219832D01*
X123609562Y-38202562D01*
X123626832Y-38186910D01*
X123645552Y-38173026D01*
X123665543Y-38161044D01*
X123686613Y-38151079D01*
X123708557Y-38143227D01*
X123731166Y-38137563D01*
X123754221Y-38134144D01*
X123777500Y-38133000D01*
X124352500Y-38133000D01*
X124375779Y-38134144D01*
G37*
%TD.AperFunction*%
%TD*%
%TA.AperFunction,SMDPad,CuDef*%
%TO.P,C6,2*%
%TO.N,GND*%
G36*
X73412779Y-58263144D02*
G01*
X73435834Y-58266563D01*
X73458443Y-58272227D01*
X73480387Y-58280079D01*
X73501457Y-58290044D01*
X73521448Y-58302026D01*
X73540168Y-58315910D01*
X73557438Y-58331562D01*
X73573090Y-58348832D01*
X73586974Y-58367552D01*
X73598956Y-58387543D01*
X73608921Y-58408613D01*
X73616773Y-58430557D01*
X73622437Y-58453166D01*
X73625856Y-58476221D01*
X73627000Y-58499500D01*
X73627000Y-59074500D01*
X73625856Y-59097779D01*
X73622437Y-59120834D01*
X73616773Y-59143443D01*
X73608921Y-59165387D01*
X73598956Y-59186457D01*
X73586974Y-59206448D01*
X73573090Y-59225168D01*
X73557438Y-59242438D01*
X73540168Y-59258090D01*
X73521448Y-59271974D01*
X73501457Y-59283956D01*
X73480387Y-59293921D01*
X73458443Y-59301773D01*
X73435834Y-59307437D01*
X73412779Y-59310856D01*
X73389500Y-59312000D01*
X72914500Y-59312000D01*
X72891221Y-59310856D01*
X72868166Y-59307437D01*
X72845557Y-59301773D01*
X72823613Y-59293921D01*
X72802543Y-59283956D01*
X72782552Y-59271974D01*
X72763832Y-59258090D01*
X72746562Y-59242438D01*
X72730910Y-59225168D01*
X72717026Y-59206448D01*
X72705044Y-59186457D01*
X72695079Y-59165387D01*
X72687227Y-59143443D01*
X72681563Y-59120834D01*
X72678144Y-59097779D01*
X72677000Y-59074500D01*
X72677000Y-58499500D01*
X72678144Y-58476221D01*
X72681563Y-58453166D01*
X72687227Y-58430557D01*
X72695079Y-58408613D01*
X72705044Y-58387543D01*
X72717026Y-58367552D01*
X72730910Y-58348832D01*
X72746562Y-58331562D01*
X72763832Y-58315910D01*
X72782552Y-58302026D01*
X72802543Y-58290044D01*
X72823613Y-58280079D01*
X72845557Y-58272227D01*
X72868166Y-58266563D01*
X72891221Y-58263144D01*
X72914500Y-58262000D01*
X73389500Y-58262000D01*
X73412779Y-58263144D01*
G37*
%TD.AperFunction*%
%TA.AperFunction,SMDPad,CuDef*%
%TO.P,C6,1*%
%TO.N,+3V3*%
G36*
X73412779Y-56513144D02*
G01*
X73435834Y-56516563D01*
X73458443Y-56522227D01*
X73480387Y-56530079D01*
X73501457Y-56540044D01*
X73521448Y-56552026D01*
X73540168Y-56565910D01*
X73557438Y-56581562D01*
X73573090Y-56598832D01*
X73586974Y-56617552D01*
X73598956Y-56637543D01*
X73608921Y-56658613D01*
X73616773Y-56680557D01*
X73622437Y-56703166D01*
X73625856Y-56726221D01*
X73627000Y-56749500D01*
X73627000Y-57324500D01*
X73625856Y-57347779D01*
X73622437Y-57370834D01*
X73616773Y-57393443D01*
X73608921Y-57415387D01*
X73598956Y-57436457D01*
X73586974Y-57456448D01*
X73573090Y-57475168D01*
X73557438Y-57492438D01*
X73540168Y-57508090D01*
X73521448Y-57521974D01*
X73501457Y-57533956D01*
X73480387Y-57543921D01*
X73458443Y-57551773D01*
X73435834Y-57557437D01*
X73412779Y-57560856D01*
X73389500Y-57562000D01*
X72914500Y-57562000D01*
X72891221Y-57560856D01*
X72868166Y-57557437D01*
X72845557Y-57551773D01*
X72823613Y-57543921D01*
X72802543Y-57533956D01*
X72782552Y-57521974D01*
X72763832Y-57508090D01*
X72746562Y-57492438D01*
X72730910Y-57475168D01*
X72717026Y-57456448D01*
X72705044Y-57436457D01*
X72695079Y-57415387D01*
X72687227Y-57393443D01*
X72681563Y-57370834D01*
X72678144Y-57347779D01*
X72677000Y-57324500D01*
X72677000Y-56749500D01*
X72678144Y-56726221D01*
X72681563Y-56703166D01*
X72687227Y-56680557D01*
X72695079Y-56658613D01*
X72705044Y-56637543D01*
X72717026Y-56617552D01*
X72730910Y-56598832D01*
X72746562Y-56581562D01*
X72763832Y-56565910D01*
X72782552Y-56552026D01*
X72802543Y-56540044D01*
X72823613Y-56530079D01*
X72845557Y-56522227D01*
X72868166Y-56516563D01*
X72891221Y-56513144D01*
X72914500Y-56512000D01*
X73389500Y-56512000D01*
X73412779Y-56513144D01*
G37*
%TD.AperFunction*%
%TD*%
%TA.AperFunction,SMDPad,CuDef*%
%TO.P,C4,2*%
%TO.N,GND*%
G36*
X73942779Y-38134144D02*
G01*
X73965834Y-38137563D01*
X73988443Y-38143227D01*
X74010387Y-38151079D01*
X74031457Y-38161044D01*
X74051448Y-38173026D01*
X74070168Y-38186910D01*
X74087438Y-38202562D01*
X74103090Y-38219832D01*
X74116974Y-38238552D01*
X74128956Y-38258543D01*
X74138921Y-38279613D01*
X74146773Y-38301557D01*
X74152437Y-38324166D01*
X74155856Y-38347221D01*
X74157000Y-38370500D01*
X74157000Y-38845500D01*
X74155856Y-38868779D01*
X74152437Y-38891834D01*
X74146773Y-38914443D01*
X74138921Y-38936387D01*
X74128956Y-38957457D01*
X74116974Y-38977448D01*
X74103090Y-38996168D01*
X74087438Y-39013438D01*
X74070168Y-39029090D01*
X74051448Y-39042974D01*
X74031457Y-39054956D01*
X74010387Y-39064921D01*
X73988443Y-39072773D01*
X73965834Y-39078437D01*
X73942779Y-39081856D01*
X73919500Y-39083000D01*
X73344500Y-39083000D01*
X73321221Y-39081856D01*
X73298166Y-39078437D01*
X73275557Y-39072773D01*
X73253613Y-39064921D01*
X73232543Y-39054956D01*
X73212552Y-39042974D01*
X73193832Y-39029090D01*
X73176562Y-39013438D01*
X73160910Y-38996168D01*
X73147026Y-38977448D01*
X73135044Y-38957457D01*
X73125079Y-38936387D01*
X73117227Y-38914443D01*
X73111563Y-38891834D01*
X73108144Y-38868779D01*
X73107000Y-38845500D01*
X73107000Y-38370500D01*
X73108144Y-38347221D01*
X73111563Y-38324166D01*
X73117227Y-38301557D01*
X73125079Y-38279613D01*
X73135044Y-38258543D01*
X73147026Y-38238552D01*
X73160910Y-38219832D01*
X73176562Y-38202562D01*
X73193832Y-38186910D01*
X73212552Y-38173026D01*
X73232543Y-38161044D01*
X73253613Y-38151079D01*
X73275557Y-38143227D01*
X73298166Y-38137563D01*
X73321221Y-38134144D01*
X73344500Y-38133000D01*
X73919500Y-38133000D01*
X73942779Y-38134144D01*
G37*
%TD.AperFunction*%
%TA.AperFunction,SMDPad,CuDef*%
%TO.P,C4,1*%
%TO.N,VCC*%
G36*
X72192779Y-38134144D02*
G01*
X72215834Y-38137563D01*
X72238443Y-38143227D01*
X72260387Y-38151079D01*
X72281457Y-38161044D01*
X72301448Y-38173026D01*
X72320168Y-38186910D01*
X72337438Y-38202562D01*
X72353090Y-38219832D01*
X72366974Y-38238552D01*
X72378956Y-38258543D01*
X72388921Y-38279613D01*
X72396773Y-38301557D01*
X72402437Y-38324166D01*
X72405856Y-38347221D01*
X72407000Y-38370500D01*
X72407000Y-38845500D01*
X72405856Y-38868779D01*
X72402437Y-38891834D01*
X72396773Y-38914443D01*
X72388921Y-38936387D01*
X72378956Y-38957457D01*
X72366974Y-38977448D01*
X72353090Y-38996168D01*
X72337438Y-39013438D01*
X72320168Y-39029090D01*
X72301448Y-39042974D01*
X72281457Y-39054956D01*
X72260387Y-39064921D01*
X72238443Y-39072773D01*
X72215834Y-39078437D01*
X72192779Y-39081856D01*
X72169500Y-39083000D01*
X71594500Y-39083000D01*
X71571221Y-39081856D01*
X71548166Y-39078437D01*
X71525557Y-39072773D01*
X71503613Y-39064921D01*
X71482543Y-39054956D01*
X71462552Y-39042974D01*
X71443832Y-39029090D01*
X71426562Y-39013438D01*
X71410910Y-38996168D01*
X71397026Y-38977448D01*
X71385044Y-38957457D01*
X71375079Y-38936387D01*
X71367227Y-38914443D01*
X71361563Y-38891834D01*
X71358144Y-38868779D01*
X71357000Y-38845500D01*
X71357000Y-38370500D01*
X71358144Y-38347221D01*
X71361563Y-38324166D01*
X71367227Y-38301557D01*
X71375079Y-38279613D01*
X71385044Y-38258543D01*
X71397026Y-38238552D01*
X71410910Y-38219832D01*
X71426562Y-38202562D01*
X71443832Y-38186910D01*
X71462552Y-38173026D01*
X71482543Y-38161044D01*
X71503613Y-38151079D01*
X71525557Y-38143227D01*
X71548166Y-38137563D01*
X71571221Y-38134144D01*
X71594500Y-38133000D01*
X72169500Y-38133000D01*
X72192779Y-38134144D01*
G37*
%TD.AperFunction*%
%TD*%
%TA.AperFunction,SMDPad,CuDef*%
%TO.P,C3,2*%
%TO.N,GND*%
G36*
X68777779Y-38134144D02*
G01*
X68800834Y-38137563D01*
X68823443Y-38143227D01*
X68845387Y-38151079D01*
X68866457Y-38161044D01*
X68886448Y-38173026D01*
X68905168Y-38186910D01*
X68922438Y-38202562D01*
X68938090Y-38219832D01*
X68951974Y-38238552D01*
X68963956Y-38258543D01*
X68973921Y-38279613D01*
X68981773Y-38301557D01*
X68987437Y-38324166D01*
X68990856Y-38347221D01*
X68992000Y-38370500D01*
X68992000Y-38845500D01*
X68990856Y-38868779D01*
X68987437Y-38891834D01*
X68981773Y-38914443D01*
X68973921Y-38936387D01*
X68963956Y-38957457D01*
X68951974Y-38977448D01*
X68938090Y-38996168D01*
X68922438Y-39013438D01*
X68905168Y-39029090D01*
X68886448Y-39042974D01*
X68866457Y-39054956D01*
X68845387Y-39064921D01*
X68823443Y-39072773D01*
X68800834Y-39078437D01*
X68777779Y-39081856D01*
X68754500Y-39083000D01*
X68179500Y-39083000D01*
X68156221Y-39081856D01*
X68133166Y-39078437D01*
X68110557Y-39072773D01*
X68088613Y-39064921D01*
X68067543Y-39054956D01*
X68047552Y-39042974D01*
X68028832Y-39029090D01*
X68011562Y-39013438D01*
X67995910Y-38996168D01*
X67982026Y-38977448D01*
X67970044Y-38957457D01*
X67960079Y-38936387D01*
X67952227Y-38914443D01*
X67946563Y-38891834D01*
X67943144Y-38868779D01*
X67942000Y-38845500D01*
X67942000Y-38370500D01*
X67943144Y-38347221D01*
X67946563Y-38324166D01*
X67952227Y-38301557D01*
X67960079Y-38279613D01*
X67970044Y-38258543D01*
X67982026Y-38238552D01*
X67995910Y-38219832D01*
X68011562Y-38202562D01*
X68028832Y-38186910D01*
X68047552Y-38173026D01*
X68067543Y-38161044D01*
X68088613Y-38151079D01*
X68110557Y-38143227D01*
X68133166Y-38137563D01*
X68156221Y-38134144D01*
X68179500Y-38133000D01*
X68754500Y-38133000D01*
X68777779Y-38134144D01*
G37*
%TD.AperFunction*%
%TA.AperFunction,SMDPad,CuDef*%
%TO.P,C3,1*%
%TO.N,VCC*%
G36*
X70527779Y-38134144D02*
G01*
X70550834Y-38137563D01*
X70573443Y-38143227D01*
X70595387Y-38151079D01*
X70616457Y-38161044D01*
X70636448Y-38173026D01*
X70655168Y-38186910D01*
X70672438Y-38202562D01*
X70688090Y-38219832D01*
X70701974Y-38238552D01*
X70713956Y-38258543D01*
X70723921Y-38279613D01*
X70731773Y-38301557D01*
X70737437Y-38324166D01*
X70740856Y-38347221D01*
X70742000Y-38370500D01*
X70742000Y-38845500D01*
X70740856Y-38868779D01*
X70737437Y-38891834D01*
X70731773Y-38914443D01*
X70723921Y-38936387D01*
X70713956Y-38957457D01*
X70701974Y-38977448D01*
X70688090Y-38996168D01*
X70672438Y-39013438D01*
X70655168Y-39029090D01*
X70636448Y-39042974D01*
X70616457Y-39054956D01*
X70595387Y-39064921D01*
X70573443Y-39072773D01*
X70550834Y-39078437D01*
X70527779Y-39081856D01*
X70504500Y-39083000D01*
X69929500Y-39083000D01*
X69906221Y-39081856D01*
X69883166Y-39078437D01*
X69860557Y-39072773D01*
X69838613Y-39064921D01*
X69817543Y-39054956D01*
X69797552Y-39042974D01*
X69778832Y-39029090D01*
X69761562Y-39013438D01*
X69745910Y-38996168D01*
X69732026Y-38977448D01*
X69720044Y-38957457D01*
X69710079Y-38936387D01*
X69702227Y-38914443D01*
X69696563Y-38891834D01*
X69693144Y-38868779D01*
X69692000Y-38845500D01*
X69692000Y-38370500D01*
X69693144Y-38347221D01*
X69696563Y-38324166D01*
X69702227Y-38301557D01*
X69710079Y-38279613D01*
X69720044Y-38258543D01*
X69732026Y-38238552D01*
X69745910Y-38219832D01*
X69761562Y-38202562D01*
X69778832Y-38186910D01*
X69797552Y-38173026D01*
X69817543Y-38161044D01*
X69838613Y-38151079D01*
X69860557Y-38143227D01*
X69883166Y-38137563D01*
X69906221Y-38134144D01*
X69929500Y-38133000D01*
X70504500Y-38133000D01*
X70527779Y-38134144D01*
G37*
%TD.AperFunction*%
%TD*%
%TA.AperFunction,SMDPad,CuDef*%
%TO.P,C2,2*%
%TO.N,Net-(C2-Pad2)*%
G36*
X123995642Y-34734174D02*
G01*
X124019303Y-34737684D01*
X124042507Y-34743496D01*
X124065029Y-34751554D01*
X124086653Y-34761782D01*
X124107170Y-34774079D01*
X124126383Y-34788329D01*
X124144107Y-34804393D01*
X124160171Y-34822117D01*
X124174421Y-34841330D01*
X124186718Y-34861847D01*
X124196946Y-34883471D01*
X124205004Y-34905993D01*
X124210816Y-34929197D01*
X124214326Y-34952858D01*
X124215500Y-34976750D01*
X124215500Y-35889250D01*
X124214326Y-35913142D01*
X124210816Y-35936803D01*
X124205004Y-35960007D01*
X124196946Y-35982529D01*
X124186718Y-36004153D01*
X124174421Y-36024670D01*
X124160171Y-36043883D01*
X124144107Y-36061607D01*
X124126383Y-36077671D01*
X124107170Y-36091921D01*
X124086653Y-36104218D01*
X124065029Y-36114446D01*
X124042507Y-36122504D01*
X124019303Y-36128316D01*
X123995642Y-36131826D01*
X123971750Y-36133000D01*
X123484250Y-36133000D01*
X123460358Y-36131826D01*
X123436697Y-36128316D01*
X123413493Y-36122504D01*
X123390971Y-36114446D01*
X123369347Y-36104218D01*
X123348830Y-36091921D01*
X123329617Y-36077671D01*
X123311893Y-36061607D01*
X123295829Y-36043883D01*
X123281579Y-36024670D01*
X123269282Y-36004153D01*
X123259054Y-35982529D01*
X123250996Y-35960007D01*
X123245184Y-35936803D01*
X123241674Y-35913142D01*
X123240500Y-35889250D01*
X123240500Y-34976750D01*
X123241674Y-34952858D01*
X123245184Y-34929197D01*
X123250996Y-34905993D01*
X123259054Y-34883471D01*
X123269282Y-34861847D01*
X123281579Y-34841330D01*
X123295829Y-34822117D01*
X123311893Y-34804393D01*
X123329617Y-34788329D01*
X123348830Y-34774079D01*
X123369347Y-34761782D01*
X123390971Y-34751554D01*
X123413493Y-34743496D01*
X123436697Y-34737684D01*
X123460358Y-34734174D01*
X123484250Y-34733000D01*
X123971750Y-34733000D01*
X123995642Y-34734174D01*
G37*
%TD.AperFunction*%
%TA.AperFunction,SMDPad,CuDef*%
%TO.P,C2,1*%
%TO.N,Net-(C2-Pad1)*%
G36*
X125870642Y-34734174D02*
G01*
X125894303Y-34737684D01*
X125917507Y-34743496D01*
X125940029Y-34751554D01*
X125961653Y-34761782D01*
X125982170Y-34774079D01*
X126001383Y-34788329D01*
X126019107Y-34804393D01*
X126035171Y-34822117D01*
X126049421Y-34841330D01*
X126061718Y-34861847D01*
X126071946Y-34883471D01*
X126080004Y-34905993D01*
X126085816Y-34929197D01*
X126089326Y-34952858D01*
X126090500Y-34976750D01*
X126090500Y-35889250D01*
X126089326Y-35913142D01*
X126085816Y-35936803D01*
X126080004Y-35960007D01*
X126071946Y-35982529D01*
X126061718Y-36004153D01*
X126049421Y-36024670D01*
X126035171Y-36043883D01*
X126019107Y-36061607D01*
X126001383Y-36077671D01*
X125982170Y-36091921D01*
X125961653Y-36104218D01*
X125940029Y-36114446D01*
X125917507Y-36122504D01*
X125894303Y-36128316D01*
X125870642Y-36131826D01*
X125846750Y-36133000D01*
X125359250Y-36133000D01*
X125335358Y-36131826D01*
X125311697Y-36128316D01*
X125288493Y-36122504D01*
X125265971Y-36114446D01*
X125244347Y-36104218D01*
X125223830Y-36091921D01*
X125204617Y-36077671D01*
X125186893Y-36061607D01*
X125170829Y-36043883D01*
X125156579Y-36024670D01*
X125144282Y-36004153D01*
X125134054Y-35982529D01*
X125125996Y-35960007D01*
X125120184Y-35936803D01*
X125116674Y-35913142D01*
X125115500Y-35889250D01*
X125115500Y-34976750D01*
X125116674Y-34952858D01*
X125120184Y-34929197D01*
X125125996Y-34905993D01*
X125134054Y-34883471D01*
X125144282Y-34861847D01*
X125156579Y-34841330D01*
X125170829Y-34822117D01*
X125186893Y-34804393D01*
X125204617Y-34788329D01*
X125223830Y-34774079D01*
X125244347Y-34761782D01*
X125265971Y-34751554D01*
X125288493Y-34743496D01*
X125311697Y-34737684D01*
X125335358Y-34734174D01*
X125359250Y-34733000D01*
X125846750Y-34733000D01*
X125870642Y-34734174D01*
G37*
%TD.AperFunction*%
%TD*%
%TA.AperFunction,SMDPad,CuDef*%
%TO.P,C1,2*%
%TO.N,Net-(C1-Pad2)*%
G36*
X70782642Y-34861174D02*
G01*
X70806303Y-34864684D01*
X70829507Y-34870496D01*
X70852029Y-34878554D01*
X70873653Y-34888782D01*
X70894170Y-34901079D01*
X70913383Y-34915329D01*
X70931107Y-34931393D01*
X70947171Y-34949117D01*
X70961421Y-34968330D01*
X70973718Y-34988847D01*
X70983946Y-35010471D01*
X70992004Y-35032993D01*
X70997816Y-35056197D01*
X71001326Y-35079858D01*
X71002500Y-35103750D01*
X71002500Y-36016250D01*
X71001326Y-36040142D01*
X70997816Y-36063803D01*
X70992004Y-36087007D01*
X70983946Y-36109529D01*
X70973718Y-36131153D01*
X70961421Y-36151670D01*
X70947171Y-36170883D01*
X70931107Y-36188607D01*
X70913383Y-36204671D01*
X70894170Y-36218921D01*
X70873653Y-36231218D01*
X70852029Y-36241446D01*
X70829507Y-36249504D01*
X70806303Y-36255316D01*
X70782642Y-36258826D01*
X70758750Y-36260000D01*
X70271250Y-36260000D01*
X70247358Y-36258826D01*
X70223697Y-36255316D01*
X70200493Y-36249504D01*
X70177971Y-36241446D01*
X70156347Y-36231218D01*
X70135830Y-36218921D01*
X70116617Y-36204671D01*
X70098893Y-36188607D01*
X70082829Y-36170883D01*
X70068579Y-36151670D01*
X70056282Y-36131153D01*
X70046054Y-36109529D01*
X70037996Y-36087007D01*
X70032184Y-36063803D01*
X70028674Y-36040142D01*
X70027500Y-36016250D01*
X70027500Y-35103750D01*
X70028674Y-35079858D01*
X70032184Y-35056197D01*
X70037996Y-35032993D01*
X70046054Y-35010471D01*
X70056282Y-34988847D01*
X70068579Y-34968330D01*
X70082829Y-34949117D01*
X70098893Y-34931393D01*
X70116617Y-34915329D01*
X70135830Y-34901079D01*
X70156347Y-34888782D01*
X70177971Y-34878554D01*
X70200493Y-34870496D01*
X70223697Y-34864684D01*
X70247358Y-34861174D01*
X70271250Y-34860000D01*
X70758750Y-34860000D01*
X70782642Y-34861174D01*
G37*
%TD.AperFunction*%
%TA.AperFunction,SMDPad,CuDef*%
%TO.P,C1,1*%
%TO.N,Net-(C1-Pad1)*%
G36*
X72657642Y-34861174D02*
G01*
X72681303Y-34864684D01*
X72704507Y-34870496D01*
X72727029Y-34878554D01*
X72748653Y-34888782D01*
X72769170Y-34901079D01*
X72788383Y-34915329D01*
X72806107Y-34931393D01*
X72822171Y-34949117D01*
X72836421Y-34968330D01*
X72848718Y-34988847D01*
X72858946Y-35010471D01*
X72867004Y-35032993D01*
X72872816Y-35056197D01*
X72876326Y-35079858D01*
X72877500Y-35103750D01*
X72877500Y-36016250D01*
X72876326Y-36040142D01*
X72872816Y-36063803D01*
X72867004Y-36087007D01*
X72858946Y-36109529D01*
X72848718Y-36131153D01*
X72836421Y-36151670D01*
X72822171Y-36170883D01*
X72806107Y-36188607D01*
X72788383Y-36204671D01*
X72769170Y-36218921D01*
X72748653Y-36231218D01*
X72727029Y-36241446D01*
X72704507Y-36249504D01*
X72681303Y-36255316D01*
X72657642Y-36258826D01*
X72633750Y-36260000D01*
X72146250Y-36260000D01*
X72122358Y-36258826D01*
X72098697Y-36255316D01*
X72075493Y-36249504D01*
X72052971Y-36241446D01*
X72031347Y-36231218D01*
X72010830Y-36218921D01*
X71991617Y-36204671D01*
X71973893Y-36188607D01*
X71957829Y-36170883D01*
X71943579Y-36151670D01*
X71931282Y-36131153D01*
X71921054Y-36109529D01*
X71912996Y-36087007D01*
X71907184Y-36063803D01*
X71903674Y-36040142D01*
X71902500Y-36016250D01*
X71902500Y-35103750D01*
X71903674Y-35079858D01*
X71907184Y-35056197D01*
X71912996Y-35032993D01*
X71921054Y-35010471D01*
X71931282Y-34988847D01*
X71943579Y-34968330D01*
X71957829Y-34949117D01*
X71973893Y-34931393D01*
X71991617Y-34915329D01*
X72010830Y-34901079D01*
X72031347Y-34888782D01*
X72052971Y-34878554D01*
X72075493Y-34870496D01*
X72098697Y-34864684D01*
X72122358Y-34861174D01*
X72146250Y-34860000D01*
X72633750Y-34860000D01*
X72657642Y-34861174D01*
G37*
%TD.AperFunction*%
%TD*%
D26*
%TO.N,GND*%
X67310000Y-40005000D03*
X67945000Y-45720000D03*
X71755000Y-44450000D03*
X74295000Y-39370000D03*
X81280000Y-33655000D03*
X61595000Y-54610000D03*
X67945000Y-55245000D03*
X127508000Y-36322000D03*
X133604000Y-32766000D03*
X142240000Y-27940000D03*
X139700000Y-27940000D03*
X137160000Y-27940000D03*
X134620000Y-27940000D03*
X132080000Y-27940000D03*
X132080000Y-30480000D03*
X134620000Y-30480000D03*
X137160000Y-33020000D03*
X137160000Y-30480000D03*
X139700000Y-30480000D03*
X139700000Y-33020000D03*
X142240000Y-33020000D03*
X142240000Y-30480000D03*
X116840000Y-27940000D03*
X116840000Y-30480000D03*
X114300000Y-30480000D03*
X114300000Y-33020000D03*
X111760000Y-33020000D03*
X111760000Y-30480000D03*
X111760000Y-30480000D03*
X114300000Y-27940000D03*
X111760000Y-27940000D03*
X109220000Y-27940000D03*
X109220000Y-30480000D03*
X109220000Y-33020000D03*
X106680000Y-33020000D03*
X106680000Y-30480000D03*
X106680000Y-27940000D03*
X104140000Y-27940000D03*
X104140000Y-30480000D03*
X104140000Y-33020000D03*
X101600000Y-33020000D03*
X104140000Y-30480000D03*
X101600000Y-30480000D03*
X101600000Y-27940000D03*
X99060000Y-30480000D03*
X99060000Y-33020000D03*
X93980000Y-33020000D03*
X96520000Y-33020000D03*
X93980000Y-33020000D03*
X91440000Y-33020000D03*
X86360000Y-33020000D03*
X88900000Y-33020000D03*
X83820000Y-33020000D03*
X83820000Y-30480000D03*
X81280000Y-30480000D03*
X78740000Y-30480000D03*
X78740000Y-27940000D03*
X81280000Y-27940000D03*
X86360000Y-27940000D03*
X86360000Y-30480000D03*
X83820000Y-27940000D03*
X91440000Y-27940000D03*
X88900000Y-30480000D03*
X88900000Y-27940000D03*
X91440000Y-30480000D03*
X93980000Y-27940000D03*
X93980000Y-30480000D03*
X96520000Y-30480000D03*
X96520000Y-27940000D03*
X99060000Y-27940000D03*
X63500000Y-27940000D03*
X63500000Y-30480000D03*
X60960000Y-30480000D03*
X58420000Y-33020000D03*
X58420000Y-30480000D03*
X58420000Y-27940000D03*
X60960000Y-27940000D03*
X53340000Y-27940000D03*
X55880000Y-27940000D03*
X55880000Y-30480000D03*
X53340000Y-30480000D03*
X55880000Y-33020000D03*
X60960000Y-33020000D03*
X63500000Y-33020000D03*
X45720000Y-55880000D03*
X48260000Y-55880000D03*
X50800000Y-55880000D03*
X53340000Y-55880000D03*
X55880000Y-55880000D03*
X58420000Y-55880000D03*
X60960000Y-55880000D03*
X60960000Y-58420000D03*
X58420000Y-58420000D03*
X55880000Y-58420000D03*
X53340000Y-58420000D03*
X53340000Y-60960000D03*
X53340000Y-63500000D03*
X55880000Y-63500000D03*
X55880000Y-60960000D03*
X58420000Y-60960000D03*
X58420000Y-63500000D03*
X63500000Y-63500000D03*
X60960000Y-60960000D03*
X60960000Y-63500000D03*
X63500000Y-60960000D03*
X63500000Y-58420000D03*
X63500000Y-55880000D03*
X73660000Y-63500000D03*
X76200000Y-63500000D03*
X78740000Y-63500000D03*
X81868000Y-62912000D03*
X84408000Y-62912000D03*
X86948000Y-62912000D03*
X86360000Y-60960000D03*
X83820000Y-60960000D03*
X90891010Y-64048990D03*
X93431010Y-64048990D03*
X95971010Y-64048990D03*
X98511010Y-64048990D03*
X101051010Y-64048990D03*
X103591010Y-64048990D03*
X106131010Y-64048990D03*
X114888000Y-62912000D03*
X117428000Y-62912000D03*
X119968000Y-62912000D03*
X122508000Y-62912000D03*
X125048000Y-62912000D03*
X127588000Y-62912000D03*
X130128000Y-62912000D03*
X132668000Y-62912000D03*
X137160000Y-60960000D03*
X137160000Y-63500000D03*
X139700000Y-63500000D03*
X139700000Y-60960000D03*
X142240000Y-60960000D03*
X142240000Y-63500000D03*
X142240000Y-58420000D03*
X139700000Y-58420000D03*
X137160000Y-58420000D03*
X125476000Y-44703999D03*
%TO.N,VCC*%
X74295000Y-42545000D03*
X125130114Y-42268672D03*
%TO.N,PWM2*%
X75565000Y-40640000D03*
%TO.N,IN2*%
X73025000Y-44450000D03*
%TO.N,IN1*%
X70485000Y-44450000D03*
%TO.N,+3V3*%
X126746000Y-56388000D03*
X73914000Y-55880000D03*
%TO.N,I_MES1*%
X71716000Y-53340000D03*
%TO.N,PWM3*%
X118006000Y-42519600D03*
%TO.N,IN4*%
X126746000Y-44704000D03*
%TO.N,IN3*%
X124206000Y-44704000D03*
%TD*%
D27*
%TO.N,GND*%
X73152000Y-58787000D02*
X72677000Y-58787000D01*
X68467000Y-38133000D02*
X68467000Y-38608000D01*
X69167010Y-37432990D02*
X68467000Y-38133000D01*
X72557830Y-37432990D02*
X69167010Y-37432990D01*
X73632000Y-38507160D02*
X72557830Y-37432990D01*
X73632000Y-38608000D02*
X73632000Y-38507160D01*
X68467000Y-38848000D02*
X67310000Y-40005000D01*
X68467000Y-38608000D02*
X68467000Y-38848000D01*
X71755000Y-45880000D02*
X71755000Y-44450000D01*
X73632000Y-38707000D02*
X74295000Y-39370000D01*
X73632000Y-38608000D02*
X73632000Y-38707000D01*
X81280000Y-33655000D02*
X79855000Y-33655000D01*
X69005000Y-55245000D02*
X69215000Y-55035000D01*
X67945000Y-55245000D02*
X69005000Y-55245000D01*
X78079600Y-53035200D02*
X78079600Y-56906162D01*
X78079600Y-60934600D02*
X78079600Y-56906162D01*
D28*
X125476000Y-46007000D02*
X125476000Y-44757000D01*
X120490000Y-44295000D02*
X120015000Y-44295000D01*
X120931001Y-43853999D02*
X120490000Y-44295000D01*
X125476000Y-44757000D02*
X124572999Y-43853999D01*
X122315000Y-38133000D02*
X123364000Y-37084000D01*
X122315000Y-38608000D02*
X122315000Y-38133000D01*
X123364000Y-37084000D02*
X126492000Y-37084000D01*
X127480000Y-38072000D02*
X127480000Y-38608000D01*
X126492000Y-37084000D02*
X127480000Y-38072000D01*
X126746000Y-37084000D02*
X127508000Y-36322000D01*
X126492000Y-37084000D02*
X126746000Y-37084000D01*
X133604000Y-33401000D02*
X133350000Y-33655000D01*
X133604000Y-32766000D02*
X133604000Y-33401000D01*
X121188316Y-43853999D02*
X121158000Y-43884315D01*
X121246001Y-43853999D02*
X121188316Y-43853999D01*
X124572999Y-43853999D02*
X121246001Y-43853999D01*
X121246001Y-43853999D02*
X120931001Y-43853999D01*
D29*
X123063000Y-55035000D02*
X124333000Y-55035000D01*
X120284762Y-62912000D02*
X119968000Y-62912000D01*
X124333000Y-58863762D02*
X120284762Y-62912000D01*
X124333000Y-55035000D02*
X124333000Y-58863762D01*
D30*
X109607010Y-64048990D02*
X106131010Y-64048990D01*
X102870000Y-63960000D02*
X102870000Y-60960000D01*
X102958990Y-64048990D02*
X102870000Y-63960000D01*
X110744000Y-62912000D02*
X109607010Y-64048990D01*
X90544990Y-64048990D02*
X89408000Y-62912000D01*
X102958990Y-64048990D02*
X101051010Y-64048990D01*
X89408000Y-62912000D02*
X86948000Y-62912000D01*
X79930000Y-62912000D02*
X77978000Y-60960000D01*
D27*
X77978000Y-60960000D02*
X78079600Y-60934600D01*
D30*
X78079600Y-60858400D02*
X77978000Y-60960000D01*
X78079600Y-53035200D02*
X78079600Y-60858400D01*
X73152000Y-59312000D02*
X73152000Y-58787000D01*
X74698400Y-60858400D02*
X73152000Y-59312000D01*
X78079600Y-60858400D02*
X74698400Y-60858400D01*
X73152000Y-58787000D02*
X70703000Y-58787000D01*
X64409255Y-47726600D02*
X64211200Y-47726600D01*
X69966000Y-55554000D02*
X69850000Y-55438000D01*
X69966000Y-58050000D02*
X69966000Y-55554000D01*
X70703000Y-58787000D02*
X69966000Y-58050000D01*
X119380000Y-48006000D02*
X119888000Y-48514000D01*
X118006000Y-48006000D02*
X119380000Y-48006000D01*
D29*
X111875370Y-62912000D02*
X110744000Y-62912000D01*
X119888000Y-58208762D02*
X115184762Y-62912000D01*
X115184762Y-62912000D02*
X114888000Y-62912000D01*
X119888000Y-48514000D02*
X119888000Y-58208762D01*
X131549000Y-55288500D02*
X131549000Y-53086000D01*
X130223500Y-56614000D02*
X131549000Y-55288500D01*
X128524000Y-56614000D02*
X130223500Y-56614000D01*
D30*
X134049000Y-53086000D02*
X134366000Y-53403000D01*
X131549000Y-53086000D02*
X134049000Y-53086000D01*
X133430000Y-62912000D02*
X132668000Y-62912000D01*
X134366000Y-61976000D02*
X133430000Y-62912000D01*
X134366000Y-53403000D02*
X134366000Y-61976000D01*
X81868000Y-62912000D02*
X79930000Y-62912000D01*
X84408000Y-62912000D02*
X81868000Y-62912000D01*
X86948000Y-62912000D02*
X84408000Y-62912000D01*
X90891010Y-64048990D02*
X90544990Y-64048990D01*
X93431010Y-64048990D02*
X90891010Y-64048990D01*
X95971010Y-64048990D02*
X93431010Y-64048990D01*
X98511010Y-64048990D02*
X95971010Y-64048990D01*
X101051010Y-64048990D02*
X98511010Y-64048990D01*
X103591010Y-64048990D02*
X102958990Y-64048990D01*
X106131010Y-64048990D02*
X103591010Y-64048990D01*
D29*
X114888000Y-62912000D02*
X111875370Y-62912000D01*
X117428000Y-62912000D02*
X111875370Y-62912000D01*
X119968000Y-62912000D02*
X117428000Y-62912000D01*
D30*
X122508000Y-62912000D02*
X120284762Y-62912000D01*
X125048000Y-62912000D02*
X122508000Y-62912000D01*
X127588000Y-62912000D02*
X125048000Y-62912000D01*
X130128000Y-62912000D02*
X127588000Y-62912000D01*
X132668000Y-62912000D02*
X130128000Y-62912000D01*
X67945000Y-53604018D02*
X66550490Y-52209508D01*
X67945000Y-55245000D02*
X67945000Y-53604018D01*
X66550490Y-49867835D02*
X64409255Y-47726600D01*
X66550490Y-52209508D02*
X66550490Y-49867835D01*
X67945000Y-55245000D02*
X69596000Y-55245000D01*
D31*
X67945000Y-45438000D02*
X66548000Y-44041000D01*
X67945000Y-45720000D02*
X67945000Y-45438000D01*
X125476000Y-46007000D02*
X125476000Y-44703999D01*
%TO.N,VCC*%
X71755000Y-38735000D02*
X71882000Y-38608000D01*
X71755000Y-40640000D02*
X71755000Y-38735000D01*
X70217000Y-38608000D02*
X71882000Y-38608000D01*
D27*
X72070000Y-42545000D02*
X74295000Y-42545000D01*
X71755000Y-42230000D02*
X72070000Y-42545000D01*
X71755000Y-40480000D02*
X71755000Y-42230000D01*
X125476000Y-38862000D02*
X125730000Y-38608000D01*
X125476000Y-40607000D02*
X125476000Y-38862000D01*
X125730000Y-38608000D02*
X124065000Y-38608000D01*
D28*
X125476000Y-41922786D02*
X125130114Y-42268672D01*
X125476000Y-40607000D02*
X125476000Y-41922786D01*
D27*
X125476000Y-42099072D02*
X125218257Y-42356815D01*
X125476000Y-40607000D02*
X125476000Y-42099072D01*
D30*
X80518000Y-57912000D02*
X80264000Y-57658000D01*
X89408000Y-57912000D02*
X80518000Y-57912000D01*
X111760000Y-58928000D02*
X110744000Y-57912000D01*
X116820000Y-58928000D02*
X111760000Y-58928000D01*
X100838000Y-57912000D02*
X97790000Y-60960000D01*
X110744000Y-57912000D02*
X100838000Y-57912000D01*
X89408000Y-60212000D02*
X89408000Y-57912000D01*
X90156000Y-60960000D02*
X89408000Y-60212000D01*
X97790000Y-60960000D02*
X90156000Y-60960000D01*
%TO.N,Net-(F1-Pad2)*%
X75925999Y-50688999D02*
X74850000Y-49613000D01*
X75925999Y-56896001D02*
X75925999Y-50688999D01*
X74850000Y-49613000D02*
X73025000Y-49613000D01*
X75164000Y-57658000D02*
X75925999Y-56896001D01*
%TO.N,Net-(F2-Pad2)*%
X126873000Y-52666998D02*
X126873000Y-50419000D01*
X126218999Y-53320999D02*
X126873000Y-52666998D01*
X121487990Y-53772010D02*
X121920000Y-53340000D01*
X121487990Y-57418360D02*
X121487990Y-53772010D01*
X121920000Y-57850370D02*
X121487990Y-57418360D01*
X121920000Y-58928000D02*
X121920000Y-57850370D01*
X121977999Y-53320999D02*
X126218999Y-53320999D01*
X121958998Y-53340000D02*
X121977999Y-53320999D01*
X121920000Y-53340000D02*
X121958998Y-53340000D01*
D31*
%TO.N,PWM1*%
X70485000Y-40640000D02*
X70485000Y-41480002D01*
X69674002Y-42291000D02*
X66548000Y-42291000D01*
X70485000Y-41480002D02*
X69674002Y-42291000D01*
X66548000Y-42291000D02*
X64208800Y-42291000D01*
D27*
%TO.N,PWM2*%
X78130400Y-33680400D02*
X78105000Y-33655000D01*
X78130400Y-37439600D02*
X78130400Y-33680400D01*
D31*
X73025000Y-40640000D02*
X75565000Y-40640000D01*
X75565000Y-40005000D02*
X75565000Y-40640000D01*
X78130400Y-37439600D02*
X75565000Y-40005000D01*
D32*
%TO.N,IN2*%
X73025000Y-45880000D02*
X73025000Y-44450000D01*
%TO.N,IN1*%
X70485000Y-45880000D02*
X70485000Y-44450000D01*
D27*
%TO.N,+3V3*%
X73152000Y-55162000D02*
X73025000Y-55035000D01*
D28*
X127044000Y-54864000D02*
X126873000Y-55035000D01*
X128524000Y-54864000D02*
X127044000Y-54864000D01*
D27*
X126873000Y-56261000D02*
X126746000Y-56388000D01*
X126873000Y-55035000D02*
X126873000Y-56261000D01*
X73152000Y-57037000D02*
X73152000Y-55162000D01*
D28*
X73069000Y-55035000D02*
X73914000Y-55880000D01*
X73025000Y-55035000D02*
X73069000Y-55035000D01*
D32*
%TO.N,I_MES1*%
X71755000Y-56309364D02*
X71857818Y-56412182D01*
X71755000Y-55035000D02*
X71755000Y-56309364D01*
D28*
X71755000Y-53379000D02*
X71716000Y-53340000D01*
X71755000Y-55035000D02*
X71755000Y-53379000D01*
D30*
%TO.N,Net-(IC4-Pad3)*%
X130175000Y-43869100D02*
X130175000Y-45720000D01*
X131524500Y-42519600D02*
X130175000Y-43869100D01*
X131572000Y-42519600D02*
X131524500Y-42519600D01*
X122002001Y-47707001D02*
X120650000Y-46355000D01*
X130175000Y-45720000D02*
X128187999Y-47707001D01*
D29*
X120650000Y-46355000D02*
X120117490Y-46228490D01*
D30*
X118006000Y-37439600D02*
X117807945Y-37439600D01*
D32*
X123589501Y-47707001D02*
X123589501Y-49257499D01*
D30*
X128187999Y-47707001D02*
X123589501Y-47707001D01*
X123589501Y-47707001D02*
X122002001Y-47707001D01*
X114681000Y-38264600D02*
X115506000Y-37439600D01*
X115506000Y-37439600D02*
X118006000Y-37439600D01*
X114681000Y-43561000D02*
X114681000Y-38264600D01*
X117223490Y-46103490D02*
X114681000Y-43561000D01*
X120398490Y-46103490D02*
X117223490Y-46103490D01*
X120650000Y-46355000D02*
X120398490Y-46103490D01*
D27*
%TO.N,PWM3*%
X120006000Y-42519600D02*
X118006000Y-42519600D01*
X123358402Y-42519600D02*
X120006000Y-42519600D01*
X124206000Y-41672002D02*
X123358402Y-42519600D01*
X124206000Y-40607000D02*
X124206000Y-41672002D01*
%TO.N,PWM4*%
X128237000Y-40607000D02*
X128270000Y-40640000D01*
X126746000Y-40607000D02*
X128237000Y-40607000D01*
X131600000Y-37411600D02*
X131572000Y-37439600D01*
X131600000Y-33655000D02*
X131600000Y-37411600D01*
X128705010Y-38306590D02*
X129572000Y-37439600D01*
X128705010Y-40138990D02*
X128705010Y-38306590D01*
X129572000Y-37439600D02*
X131572000Y-37439600D01*
X128237000Y-40607000D02*
X128705010Y-40138990D01*
D28*
%TO.N,IN4*%
X126746000Y-46007000D02*
X126746000Y-44704000D01*
D32*
%TO.N,IN3*%
X124206000Y-46007000D02*
X124206000Y-44704000D01*
D28*
%TO.N,I_MES2*%
X125603000Y-59563000D02*
X126492000Y-60452000D01*
X125603000Y-55035000D02*
X125603000Y-59563000D01*
D31*
%TO.N,Net-(C1-Pad2)*%
X64208800Y-39751000D02*
X64256300Y-39751000D01*
D30*
X70027500Y-35560000D02*
X70515000Y-35560000D01*
X64208800Y-39751000D02*
X64406855Y-39751000D01*
D27*
X68580000Y-32980000D02*
X68580000Y-30480000D01*
D30*
X68580000Y-35542145D02*
X68580000Y-30480000D01*
D27*
X68580000Y-35427300D02*
X68580000Y-32980000D01*
D30*
X68597855Y-35560000D02*
X68580000Y-35542145D01*
D27*
X69215000Y-35560000D02*
X68580000Y-34925000D01*
X68580000Y-34925000D02*
X68580000Y-30480000D01*
X70515000Y-35560000D02*
X69215000Y-35560000D01*
D30*
X68597855Y-35560000D02*
X70027500Y-35560000D01*
D27*
%TO.N,Net-(C1-Pad1)*%
X78130400Y-39979600D02*
X77457898Y-39979600D01*
X73660000Y-32601320D02*
X73660000Y-30480000D01*
D30*
X73660000Y-30480000D02*
X73660000Y-33020000D01*
X73660000Y-33020000D02*
X73660000Y-34290000D01*
X73660000Y-34290000D02*
X72390000Y-35560000D01*
%TO.N,Net-(C2-Pad2)*%
X118006000Y-39979600D02*
X118204055Y-39979600D01*
X122174000Y-33879000D02*
X122174000Y-30480000D01*
X123728000Y-35433000D02*
X122174000Y-33879000D01*
%TO.N,Net-(C2-Pad1)*%
X125603000Y-32131000D02*
X127254000Y-30480000D01*
X125603000Y-35433000D02*
X125603000Y-32131000D01*
D29*
%TO.N,Net-(IC2-Pad3)*%
X64208800Y-37211000D02*
X64187522Y-37211000D01*
D30*
X64208800Y-37211000D02*
X64208800Y-37544879D01*
X78082900Y-42519600D02*
X78130400Y-42519600D01*
X75630400Y-44972100D02*
X78082900Y-42519600D01*
X75630400Y-46059602D02*
X75630400Y-44972100D01*
X74065002Y-47625000D02*
X75630400Y-46059602D01*
X69215000Y-49613000D02*
X69215000Y-48260000D01*
X74020003Y-47580001D02*
X74065002Y-47625000D01*
X69894999Y-47580001D02*
X74020003Y-47580001D01*
X69215000Y-48260000D02*
X69894999Y-47580001D01*
X61708800Y-37211000D02*
X60579000Y-38340800D01*
X64208800Y-37211000D02*
X61708800Y-37211000D01*
X60579000Y-38340800D02*
X60579000Y-44704000D01*
X69894999Y-47580001D02*
X67818000Y-47625000D01*
X67691000Y-47625000D02*
X67818000Y-47625000D01*
X60833000Y-44958000D02*
X65024000Y-44958000D01*
X65024000Y-44958000D02*
X67691000Y-47625000D01*
X60579000Y-44704000D02*
X60833000Y-44958000D01*
%TD*%
D33*
%TO.N,Net-(H9-Pad1)*%
G36*
X104775000Y-44831000D02*
G01*
X98679000Y-44831000D01*
X98679000Y-34925000D01*
X104775000Y-34925000D01*
X104775000Y-44831000D01*
G37*
X104775000Y-44831000D02*
X98679000Y-44831000D01*
X98679000Y-34925000D01*
X104775000Y-34925000D01*
X104775000Y-44831000D01*
%TO.N,Net-(H8-Pad1)*%
G36*
X97663000Y-55499000D02*
G01*
X91313000Y-55499000D01*
X91313000Y-45593000D01*
X97663000Y-45593000D01*
X97663000Y-55499000D01*
G37*
X97663000Y-55499000D02*
X91313000Y-55499000D01*
X91313000Y-45593000D01*
X97663000Y-45593000D01*
X97663000Y-55499000D01*
%TO.N,Net-(H10-Pad1)*%
G36*
X104775000Y-55499000D02*
G01*
X98679000Y-55499000D01*
X98679000Y-45593000D01*
X104775000Y-45593000D01*
X104775000Y-55499000D01*
G37*
X104775000Y-55499000D02*
X98679000Y-55499000D01*
X98679000Y-45593000D01*
X104775000Y-45593000D01*
X104775000Y-55499000D01*
%TO.N,Net-(H5-Pad1)*%
G36*
X50927000Y-44577000D02*
G01*
X45364000Y-44577000D01*
X45364000Y-34925000D01*
X50927000Y-34925000D01*
X50927000Y-44577000D01*
G37*
X50927000Y-44577000D02*
X45364000Y-44577000D01*
X45364000Y-34925000D01*
X50927000Y-34925000D01*
X50927000Y-44577000D01*
%TO.N,Net-(H6-Pad1)*%
G36*
X50927000Y-54849985D02*
G01*
X50901939Y-54845000D01*
X50698061Y-54845000D01*
X50498102Y-54884774D01*
X50309744Y-54962795D01*
X50140226Y-55076063D01*
X49996063Y-55220226D01*
X49979510Y-55245000D01*
X49080490Y-55245000D01*
X49063937Y-55220226D01*
X48919774Y-55076063D01*
X48750256Y-54962795D01*
X48561898Y-54884774D01*
X48361939Y-54845000D01*
X48158061Y-54845000D01*
X47958102Y-54884774D01*
X47769744Y-54962795D01*
X47600226Y-55076063D01*
X47456063Y-55220226D01*
X47439510Y-55245000D01*
X46540490Y-55245000D01*
X46523937Y-55220226D01*
X46379774Y-55076063D01*
X46210256Y-54962795D01*
X46021898Y-54884774D01*
X45821939Y-54845000D01*
X45618061Y-54845000D01*
X45418102Y-54884774D01*
X45364000Y-54907184D01*
X45364000Y-45339000D01*
X50927000Y-45339000D01*
X50927000Y-54849985D01*
G37*
X50927000Y-54849985D02*
X50901939Y-54845000D01*
X50698061Y-54845000D01*
X50498102Y-54884774D01*
X50309744Y-54962795D01*
X50140226Y-55076063D01*
X49996063Y-55220226D01*
X49979510Y-55245000D01*
X49080490Y-55245000D01*
X49063937Y-55220226D01*
X48919774Y-55076063D01*
X48750256Y-54962795D01*
X48561898Y-54884774D01*
X48361939Y-54845000D01*
X48158061Y-54845000D01*
X47958102Y-54884774D01*
X47769744Y-54962795D01*
X47600226Y-55076063D01*
X47456063Y-55220226D01*
X47439510Y-55245000D01*
X46540490Y-55245000D01*
X46523937Y-55220226D01*
X46379774Y-55076063D01*
X46210256Y-54962795D01*
X46021898Y-54884774D01*
X45821939Y-54845000D01*
X45618061Y-54845000D01*
X45418102Y-54884774D01*
X45364000Y-54907184D01*
X45364000Y-45339000D01*
X50927000Y-45339000D01*
X50927000Y-54849985D01*
%TO.N,Net-(H11-Pad1)*%
G36*
X150724000Y-44831000D02*
G01*
X144907000Y-44831000D01*
X144907000Y-35179000D01*
X150724000Y-35179000D01*
X150724000Y-44831000D01*
G37*
X150724000Y-44831000D02*
X144907000Y-44831000D01*
X144907000Y-35179000D01*
X150724000Y-35179000D01*
X150724000Y-44831000D01*
%TO.N,Net-(H12-Pad1)*%
G36*
X150724001Y-55245000D02*
G01*
X144907000Y-55245000D01*
X144907000Y-45847000D01*
X150724001Y-45847000D01*
X150724001Y-55245000D01*
G37*
X150724001Y-55245000D02*
X144907000Y-55245000D01*
X144907000Y-45847000D01*
X150724001Y-45847000D01*
X150724001Y-55245000D01*
%TO.N,Net-(H7-Pad1)*%
G36*
X97663000Y-44831000D02*
G01*
X91313000Y-44831000D01*
X91313000Y-34925000D01*
X97663000Y-34925000D01*
X97663000Y-44831000D01*
G37*
X97663000Y-44831000D02*
X91313000Y-44831000D01*
X91313000Y-34925000D01*
X97663000Y-34925000D01*
X97663000Y-44831000D01*
%TO.N,Net-(F2-Pad2)*%
G36*
X127509969Y-50546000D02*
G01*
X125287499Y-50546000D01*
X125289021Y-50448592D01*
X125296072Y-50377000D01*
X125296072Y-49997343D01*
X125310218Y-49092001D01*
X127532688Y-49092001D01*
X127509969Y-50546000D01*
G37*
X127509969Y-50546000D02*
X125287499Y-50546000D01*
X125289021Y-50448592D01*
X125296072Y-50377000D01*
X125296072Y-49997343D01*
X125310218Y-49092001D01*
X127532688Y-49092001D01*
X127509969Y-50546000D01*
%TO.N,Net-(IC4-Pad3)*%
G36*
X124650500Y-48741657D02*
G01*
X124639928Y-48849000D01*
X124639928Y-50355500D01*
X122666852Y-50355500D01*
X122681112Y-48323500D01*
X124650500Y-48323500D01*
X124650500Y-48741657D01*
G37*
X124650500Y-48741657D02*
X124639928Y-48849000D01*
X124639928Y-50355500D01*
X122666852Y-50355500D01*
X122681112Y-48323500D01*
X124650500Y-48323500D01*
X124650500Y-48741657D01*
%TO.N,Net-(IC2-Pad3)*%
G36*
X70860819Y-48566803D02*
G01*
X70840498Y-48604820D01*
X70804188Y-48724518D01*
X70791928Y-48849000D01*
X70791928Y-50292000D01*
X68769065Y-50292000D01*
X68740202Y-47752000D01*
X70851560Y-47752000D01*
X70860819Y-48566803D01*
G37*
X70860819Y-48566803D02*
X70840498Y-48604820D01*
X70804188Y-48724518D01*
X70791928Y-48849000D01*
X70791928Y-50292000D01*
X68769065Y-50292000D01*
X68740202Y-47752000D01*
X70851560Y-47752000D01*
X70860819Y-48566803D01*
%TO.N,Net-(F1-Pad2)*%
G36*
X73533000Y-50292000D02*
G01*
X71501000Y-50292000D01*
X71501000Y-48965001D01*
X73533000Y-48965001D01*
X73533000Y-50292000D01*
G37*
X73533000Y-50292000D02*
X71501000Y-50292000D01*
X71501000Y-48965001D01*
X73533000Y-48965001D01*
X73533000Y-50292000D01*
D34*
G36*
X113157000Y-44196000D02*
G01*
X113159440Y-44220776D01*
X113166667Y-44244601D01*
X113178403Y-44266557D01*
X113194197Y-44285803D01*
X116242197Y-47333803D01*
X116261443Y-47349597D01*
X116283399Y-47361333D01*
X116307224Y-47368560D01*
X116332000Y-47371000D01*
X116497868Y-47371000D01*
X116484745Y-47395551D01*
X116393970Y-47694796D01*
X116363319Y-48006000D01*
X116393970Y-48317204D01*
X116484745Y-48616449D01*
X116632155Y-48892235D01*
X116830537Y-49133963D01*
X117003609Y-49276000D01*
X116830537Y-49418037D01*
X116632155Y-49659765D01*
X116484745Y-49935551D01*
X116393970Y-50234796D01*
X116363319Y-50546000D01*
X116393970Y-50857204D01*
X116484745Y-51156449D01*
X116632155Y-51432235D01*
X116735446Y-51558095D01*
X116651506Y-51602963D01*
X116554815Y-51682315D01*
X116475463Y-51779006D01*
X116416498Y-51889320D01*
X116380188Y-52009018D01*
X116367928Y-52133500D01*
X116367928Y-54038500D01*
X116380188Y-54162982D01*
X116416498Y-54282680D01*
X116475463Y-54392994D01*
X116554815Y-54489685D01*
X116651506Y-54569037D01*
X116761820Y-54628002D01*
X116881518Y-54664312D01*
X117006000Y-54676572D01*
X118628001Y-54676572D01*
X118628001Y-56769000D01*
X112080681Y-56769000D01*
X112074537Y-56757506D01*
X111995185Y-56660815D01*
X111898494Y-56581463D01*
X111788180Y-56522498D01*
X111668482Y-56486188D01*
X111544000Y-56473928D01*
X109944000Y-56473928D01*
X109819518Y-56486188D01*
X109699820Y-56522498D01*
X109691397Y-56527000D01*
X105791000Y-56527000D01*
X105791000Y-34163000D01*
X113157000Y-34163000D01*
X113157000Y-44196000D01*
G37*
X113157000Y-44196000D02*
X113159440Y-44220776D01*
X113166667Y-44244601D01*
X113178403Y-44266557D01*
X113194197Y-44285803D01*
X116242197Y-47333803D01*
X116261443Y-47349597D01*
X116283399Y-47361333D01*
X116307224Y-47368560D01*
X116332000Y-47371000D01*
X116497868Y-47371000D01*
X116484745Y-47395551D01*
X116393970Y-47694796D01*
X116363319Y-48006000D01*
X116393970Y-48317204D01*
X116484745Y-48616449D01*
X116632155Y-48892235D01*
X116830537Y-49133963D01*
X117003609Y-49276000D01*
X116830537Y-49418037D01*
X116632155Y-49659765D01*
X116484745Y-49935551D01*
X116393970Y-50234796D01*
X116363319Y-50546000D01*
X116393970Y-50857204D01*
X116484745Y-51156449D01*
X116632155Y-51432235D01*
X116735446Y-51558095D01*
X116651506Y-51602963D01*
X116554815Y-51682315D01*
X116475463Y-51779006D01*
X116416498Y-51889320D01*
X116380188Y-52009018D01*
X116367928Y-52133500D01*
X116367928Y-54038500D01*
X116380188Y-54162982D01*
X116416498Y-54282680D01*
X116475463Y-54392994D01*
X116554815Y-54489685D01*
X116651506Y-54569037D01*
X116761820Y-54628002D01*
X116881518Y-54664312D01*
X117006000Y-54676572D01*
X118628001Y-54676572D01*
X118628001Y-56769000D01*
X112080681Y-56769000D01*
X112074537Y-56757506D01*
X111995185Y-56660815D01*
X111898494Y-56581463D01*
X111788180Y-56522498D01*
X111668482Y-56486188D01*
X111544000Y-56473928D01*
X109944000Y-56473928D01*
X109819518Y-56486188D01*
X109699820Y-56522498D01*
X109691397Y-56527000D01*
X105791000Y-56527000D01*
X105791000Y-34163000D01*
X113157000Y-34163000D01*
X113157000Y-44196000D01*
D33*
%TO.N,GND*%
G36*
X143637000Y-56388000D02*
G01*
X143639440Y-56412776D01*
X143646667Y-56436601D01*
X143658403Y-56458557D01*
X143674197Y-56477803D01*
X143693443Y-56493597D01*
X143715399Y-56505333D01*
X143739224Y-56512560D01*
X143764000Y-56515000D01*
X150724001Y-56515000D01*
X150724001Y-63975572D01*
X150724000Y-63975582D01*
X150724000Y-64364000D01*
X100711000Y-64364000D01*
X100711000Y-59997686D01*
X101411686Y-59297000D01*
X109691397Y-59297000D01*
X109699820Y-59301502D01*
X109819518Y-59337812D01*
X109944000Y-59350072D01*
X110223387Y-59350072D01*
X110732550Y-59859236D01*
X110775919Y-59912081D01*
X110828764Y-59955450D01*
X110828766Y-59955452D01*
X110831799Y-59957941D01*
X110986812Y-60085157D01*
X111123178Y-60158046D01*
X111227419Y-60213764D01*
X111488492Y-60292960D01*
X111511892Y-60295265D01*
X111691963Y-60313000D01*
X111691971Y-60313000D01*
X111760000Y-60319700D01*
X111828029Y-60313000D01*
X116622080Y-60313000D01*
X116682408Y-60325000D01*
X116957592Y-60325000D01*
X117227490Y-60271314D01*
X117481727Y-60166005D01*
X117710535Y-60013120D01*
X117905120Y-59818535D01*
X118058005Y-59589727D01*
X118163314Y-59335490D01*
X118217000Y-59065592D01*
X118217000Y-58790408D01*
X118163314Y-58520510D01*
X118058005Y-58266273D01*
X117905120Y-58037465D01*
X117710535Y-57842880D01*
X117481727Y-57689995D01*
X117227490Y-57584686D01*
X116957592Y-57531000D01*
X116682408Y-57531000D01*
X116622080Y-57543000D01*
X112333686Y-57543000D01*
X112182072Y-57391387D01*
X112182072Y-57112000D01*
X112169812Y-56987518D01*
X112133502Y-56867820D01*
X112074537Y-56757506D01*
X111995185Y-56660815D01*
X111898494Y-56581463D01*
X111788180Y-56522498D01*
X111763462Y-56515000D01*
X120102990Y-56515000D01*
X120102990Y-57350331D01*
X120096290Y-57418360D01*
X120102990Y-57486389D01*
X120102990Y-57486396D01*
X120112671Y-57584686D01*
X120123030Y-57689867D01*
X120169446Y-57842880D01*
X120202226Y-57950940D01*
X120330833Y-58191547D01*
X120503909Y-58402440D01*
X120535000Y-58427956D01*
X120535000Y-58730080D01*
X120523000Y-58790408D01*
X120523000Y-59065592D01*
X120576686Y-59335490D01*
X120681995Y-59589727D01*
X120834880Y-59818535D01*
X121029465Y-60013120D01*
X121258273Y-60166005D01*
X121512510Y-60271314D01*
X121782408Y-60325000D01*
X122057592Y-60325000D01*
X122327490Y-60271314D01*
X122581727Y-60166005D01*
X122810535Y-60013120D01*
X123005120Y-59818535D01*
X123158005Y-59589727D01*
X123263314Y-59335490D01*
X123317000Y-59065592D01*
X123317000Y-58790408D01*
X123305000Y-58730080D01*
X123305000Y-57918396D01*
X123311700Y-57850369D01*
X123305000Y-57782342D01*
X123305000Y-57782333D01*
X123284960Y-57578863D01*
X123205764Y-57317789D01*
X123077157Y-57077182D01*
X122904081Y-56866289D01*
X122872990Y-56840773D01*
X122872990Y-54705999D01*
X124639928Y-54705999D01*
X124639928Y-55799000D01*
X124652188Y-55923482D01*
X124688498Y-56043180D01*
X124718000Y-56098374D01*
X124718001Y-59519521D01*
X124713719Y-59563000D01*
X124730805Y-59736490D01*
X124781412Y-59903313D01*
X124863590Y-60057059D01*
X124946468Y-60158046D01*
X124946471Y-60158049D01*
X124974184Y-60191817D01*
X125007951Y-60219529D01*
X125021461Y-60233039D01*
X125007000Y-60305740D01*
X125007000Y-60598260D01*
X125064068Y-60885158D01*
X125176010Y-61155411D01*
X125338525Y-61398632D01*
X125545368Y-61605475D01*
X125788589Y-61767990D01*
X126058842Y-61879932D01*
X126345740Y-61937000D01*
X126638260Y-61937000D01*
X126925158Y-61879932D01*
X127195411Y-61767990D01*
X127438632Y-61605475D01*
X127645475Y-61398632D01*
X127762000Y-61224240D01*
X127878525Y-61398632D01*
X128085368Y-61605475D01*
X128328589Y-61767990D01*
X128598842Y-61879932D01*
X128885740Y-61937000D01*
X129178260Y-61937000D01*
X129465158Y-61879932D01*
X129735411Y-61767990D01*
X129978632Y-61605475D01*
X130110487Y-61473620D01*
X130132498Y-61546180D01*
X130191463Y-61656494D01*
X130270815Y-61753185D01*
X130367506Y-61832537D01*
X130477820Y-61891502D01*
X130597518Y-61927812D01*
X130722000Y-61940072D01*
X132422000Y-61940072D01*
X132546482Y-61927812D01*
X132666180Y-61891502D01*
X132776494Y-61832537D01*
X132873185Y-61753185D01*
X132952537Y-61656494D01*
X133011502Y-61546180D01*
X133047812Y-61426482D01*
X133060072Y-61302000D01*
X133060072Y-59602000D01*
X133047812Y-59477518D01*
X133011502Y-59357820D01*
X132952537Y-59247506D01*
X132873185Y-59150815D01*
X132776494Y-59071463D01*
X132666180Y-59012498D01*
X132546482Y-58976188D01*
X132422000Y-58963928D01*
X130722000Y-58963928D01*
X130597518Y-58976188D01*
X130477820Y-59012498D01*
X130367506Y-59071463D01*
X130270815Y-59150815D01*
X130191463Y-59247506D01*
X130132498Y-59357820D01*
X130110487Y-59430380D01*
X129978632Y-59298525D01*
X129735411Y-59136010D01*
X129465158Y-59024068D01*
X129178260Y-58967000D01*
X128885740Y-58967000D01*
X128598842Y-59024068D01*
X128328589Y-59136010D01*
X128085368Y-59298525D01*
X127878525Y-59505368D01*
X127762000Y-59679760D01*
X127645475Y-59505368D01*
X127438632Y-59298525D01*
X127195411Y-59136010D01*
X126925158Y-59024068D01*
X126638260Y-58967000D01*
X126488000Y-58967000D01*
X126488000Y-57495807D01*
X126523502Y-57506577D01*
X126746000Y-57528491D01*
X126968498Y-57506577D01*
X127182446Y-57441676D01*
X127379622Y-57336283D01*
X127509143Y-57229988D01*
X127636135Y-57102996D01*
X127679449Y-57067449D01*
X127821284Y-56894623D01*
X127926676Y-56697447D01*
X127991577Y-56483499D01*
X128008000Y-56316752D01*
X128013491Y-56261001D01*
X128008000Y-56205249D01*
X128008000Y-55977582D01*
X128115684Y-56010248D01*
X128286500Y-56027072D01*
X128761500Y-56027072D01*
X128932316Y-56010248D01*
X129096567Y-55960423D01*
X129247942Y-55879512D01*
X129380623Y-55770623D01*
X129489512Y-55637942D01*
X129570423Y-55486567D01*
X129620248Y-55322316D01*
X129637072Y-55151500D01*
X129637072Y-54576500D01*
X129620248Y-54405684D01*
X129570423Y-54241433D01*
X129489512Y-54090058D01*
X129395086Y-53975000D01*
X129540000Y-53975000D01*
X129564776Y-53972560D01*
X129588601Y-53965333D01*
X129610557Y-53953597D01*
X129629803Y-53937803D01*
X129645597Y-53918557D01*
X129657333Y-53896601D01*
X129664560Y-53872776D01*
X129667000Y-53848000D01*
X129667000Y-52451000D01*
X133096000Y-52451000D01*
X133120776Y-52448560D01*
X133144601Y-52441333D01*
X133166557Y-52429597D01*
X133185803Y-52413803D01*
X133201597Y-52394557D01*
X133213333Y-52372601D01*
X133220560Y-52348776D01*
X133223000Y-52324000D01*
X133223000Y-33655000D01*
X143637000Y-33655000D01*
X143637000Y-56388000D01*
G37*
X143637000Y-56388000D02*
X143639440Y-56412776D01*
X143646667Y-56436601D01*
X143658403Y-56458557D01*
X143674197Y-56477803D01*
X143693443Y-56493597D01*
X143715399Y-56505333D01*
X143739224Y-56512560D01*
X143764000Y-56515000D01*
X150724001Y-56515000D01*
X150724001Y-63975572D01*
X150724000Y-63975582D01*
X150724000Y-64364000D01*
X100711000Y-64364000D01*
X100711000Y-59997686D01*
X101411686Y-59297000D01*
X109691397Y-59297000D01*
X109699820Y-59301502D01*
X109819518Y-59337812D01*
X109944000Y-59350072D01*
X110223387Y-59350072D01*
X110732550Y-59859236D01*
X110775919Y-59912081D01*
X110828764Y-59955450D01*
X110828766Y-59955452D01*
X110831799Y-59957941D01*
X110986812Y-60085157D01*
X111123178Y-60158046D01*
X111227419Y-60213764D01*
X111488492Y-60292960D01*
X111511892Y-60295265D01*
X111691963Y-60313000D01*
X111691971Y-60313000D01*
X111760000Y-60319700D01*
X111828029Y-60313000D01*
X116622080Y-60313000D01*
X116682408Y-60325000D01*
X116957592Y-60325000D01*
X117227490Y-60271314D01*
X117481727Y-60166005D01*
X117710535Y-60013120D01*
X117905120Y-59818535D01*
X118058005Y-59589727D01*
X118163314Y-59335490D01*
X118217000Y-59065592D01*
X118217000Y-58790408D01*
X118163314Y-58520510D01*
X118058005Y-58266273D01*
X117905120Y-58037465D01*
X117710535Y-57842880D01*
X117481727Y-57689995D01*
X117227490Y-57584686D01*
X116957592Y-57531000D01*
X116682408Y-57531000D01*
X116622080Y-57543000D01*
X112333686Y-57543000D01*
X112182072Y-57391387D01*
X112182072Y-57112000D01*
X112169812Y-56987518D01*
X112133502Y-56867820D01*
X112074537Y-56757506D01*
X111995185Y-56660815D01*
X111898494Y-56581463D01*
X111788180Y-56522498D01*
X111763462Y-56515000D01*
X120102990Y-56515000D01*
X120102990Y-57350331D01*
X120096290Y-57418360D01*
X120102990Y-57486389D01*
X120102990Y-57486396D01*
X120112671Y-57584686D01*
X120123030Y-57689867D01*
X120169446Y-57842880D01*
X120202226Y-57950940D01*
X120330833Y-58191547D01*
X120503909Y-58402440D01*
X120535000Y-58427956D01*
X120535000Y-58730080D01*
X120523000Y-58790408D01*
X120523000Y-59065592D01*
X120576686Y-59335490D01*
X120681995Y-59589727D01*
X120834880Y-59818535D01*
X121029465Y-60013120D01*
X121258273Y-60166005D01*
X121512510Y-60271314D01*
X121782408Y-60325000D01*
X122057592Y-60325000D01*
X122327490Y-60271314D01*
X122581727Y-60166005D01*
X122810535Y-60013120D01*
X123005120Y-59818535D01*
X123158005Y-59589727D01*
X123263314Y-59335490D01*
X123317000Y-59065592D01*
X123317000Y-58790408D01*
X123305000Y-58730080D01*
X123305000Y-57918396D01*
X123311700Y-57850369D01*
X123305000Y-57782342D01*
X123305000Y-57782333D01*
X123284960Y-57578863D01*
X123205764Y-57317789D01*
X123077157Y-57077182D01*
X122904081Y-56866289D01*
X122872990Y-56840773D01*
X122872990Y-54705999D01*
X124639928Y-54705999D01*
X124639928Y-55799000D01*
X124652188Y-55923482D01*
X124688498Y-56043180D01*
X124718000Y-56098374D01*
X124718001Y-59519521D01*
X124713719Y-59563000D01*
X124730805Y-59736490D01*
X124781412Y-59903313D01*
X124863590Y-60057059D01*
X124946468Y-60158046D01*
X124946471Y-60158049D01*
X124974184Y-60191817D01*
X125007951Y-60219529D01*
X125021461Y-60233039D01*
X125007000Y-60305740D01*
X125007000Y-60598260D01*
X125064068Y-60885158D01*
X125176010Y-61155411D01*
X125338525Y-61398632D01*
X125545368Y-61605475D01*
X125788589Y-61767990D01*
X126058842Y-61879932D01*
X126345740Y-61937000D01*
X126638260Y-61937000D01*
X126925158Y-61879932D01*
X127195411Y-61767990D01*
X127438632Y-61605475D01*
X127645475Y-61398632D01*
X127762000Y-61224240D01*
X127878525Y-61398632D01*
X128085368Y-61605475D01*
X128328589Y-61767990D01*
X128598842Y-61879932D01*
X128885740Y-61937000D01*
X129178260Y-61937000D01*
X129465158Y-61879932D01*
X129735411Y-61767990D01*
X129978632Y-61605475D01*
X130110487Y-61473620D01*
X130132498Y-61546180D01*
X130191463Y-61656494D01*
X130270815Y-61753185D01*
X130367506Y-61832537D01*
X130477820Y-61891502D01*
X130597518Y-61927812D01*
X130722000Y-61940072D01*
X132422000Y-61940072D01*
X132546482Y-61927812D01*
X132666180Y-61891502D01*
X132776494Y-61832537D01*
X132873185Y-61753185D01*
X132952537Y-61656494D01*
X133011502Y-61546180D01*
X133047812Y-61426482D01*
X133060072Y-61302000D01*
X133060072Y-59602000D01*
X133047812Y-59477518D01*
X133011502Y-59357820D01*
X132952537Y-59247506D01*
X132873185Y-59150815D01*
X132776494Y-59071463D01*
X132666180Y-59012498D01*
X132546482Y-58976188D01*
X132422000Y-58963928D01*
X130722000Y-58963928D01*
X130597518Y-58976188D01*
X130477820Y-59012498D01*
X130367506Y-59071463D01*
X130270815Y-59150815D01*
X130191463Y-59247506D01*
X130132498Y-59357820D01*
X130110487Y-59430380D01*
X129978632Y-59298525D01*
X129735411Y-59136010D01*
X129465158Y-59024068D01*
X129178260Y-58967000D01*
X128885740Y-58967000D01*
X128598842Y-59024068D01*
X128328589Y-59136010D01*
X128085368Y-59298525D01*
X127878525Y-59505368D01*
X127762000Y-59679760D01*
X127645475Y-59505368D01*
X127438632Y-59298525D01*
X127195411Y-59136010D01*
X126925158Y-59024068D01*
X126638260Y-58967000D01*
X126488000Y-58967000D01*
X126488000Y-57495807D01*
X126523502Y-57506577D01*
X126746000Y-57528491D01*
X126968498Y-57506577D01*
X127182446Y-57441676D01*
X127379622Y-57336283D01*
X127509143Y-57229988D01*
X127636135Y-57102996D01*
X127679449Y-57067449D01*
X127821284Y-56894623D01*
X127926676Y-56697447D01*
X127991577Y-56483499D01*
X128008000Y-56316752D01*
X128013491Y-56261001D01*
X128008000Y-56205249D01*
X128008000Y-55977582D01*
X128115684Y-56010248D01*
X128286500Y-56027072D01*
X128761500Y-56027072D01*
X128932316Y-56010248D01*
X129096567Y-55960423D01*
X129247942Y-55879512D01*
X129380623Y-55770623D01*
X129489512Y-55637942D01*
X129570423Y-55486567D01*
X129620248Y-55322316D01*
X129637072Y-55151500D01*
X129637072Y-54576500D01*
X129620248Y-54405684D01*
X129570423Y-54241433D01*
X129489512Y-54090058D01*
X129395086Y-53975000D01*
X129540000Y-53975000D01*
X129564776Y-53972560D01*
X129588601Y-53965333D01*
X129610557Y-53953597D01*
X129629803Y-53937803D01*
X129645597Y-53918557D01*
X129657333Y-53896601D01*
X129664560Y-53872776D01*
X129667000Y-53848000D01*
X129667000Y-52451000D01*
X133096000Y-52451000D01*
X133120776Y-52448560D01*
X133144601Y-52441333D01*
X133166557Y-52429597D01*
X133185803Y-52413803D01*
X133201597Y-52394557D01*
X133213333Y-52372601D01*
X133220560Y-52348776D01*
X133223000Y-52324000D01*
X133223000Y-33655000D01*
X143637000Y-33655000D01*
X143637000Y-56388000D01*
G36*
X90297000Y-55753000D02*
G01*
X77310999Y-55753000D01*
X77310999Y-51909811D01*
X77421651Y-51968955D01*
X77720896Y-52059730D01*
X77954114Y-52082700D01*
X78205086Y-52082700D01*
X78438304Y-52059730D01*
X78737549Y-51968955D01*
X79013335Y-51821545D01*
X79255063Y-51623163D01*
X79453445Y-51381435D01*
X79600855Y-51105649D01*
X79691630Y-50806404D01*
X79722281Y-50495200D01*
X79691630Y-50183996D01*
X79600855Y-49884751D01*
X79453445Y-49608965D01*
X79350154Y-49483105D01*
X79434094Y-49438237D01*
X79530785Y-49358885D01*
X79610137Y-49262194D01*
X79669102Y-49151880D01*
X79705412Y-49032182D01*
X79717672Y-48907700D01*
X79717672Y-47002700D01*
X79705412Y-46878218D01*
X79669102Y-46758520D01*
X79610137Y-46648206D01*
X79530785Y-46551515D01*
X79434094Y-46472163D01*
X79323780Y-46413198D01*
X79204082Y-46376888D01*
X79079600Y-46364628D01*
X77079600Y-46364628D01*
X76982285Y-46374212D01*
X76995360Y-46331109D01*
X77015400Y-46127639D01*
X77015400Y-46127630D01*
X77022100Y-46059603D01*
X77015400Y-45991576D01*
X77015400Y-45545785D01*
X78475739Y-44085446D01*
X78489104Y-44084130D01*
X78788349Y-43993355D01*
X79064135Y-43845945D01*
X79305863Y-43647563D01*
X79504245Y-43405835D01*
X79651655Y-43130049D01*
X79742430Y-42830804D01*
X79773081Y-42519600D01*
X79742430Y-42208396D01*
X79651655Y-41909151D01*
X79504245Y-41633365D01*
X79305863Y-41391637D01*
X79132791Y-41249600D01*
X79305863Y-41107563D01*
X79504245Y-40865835D01*
X79651655Y-40590049D01*
X79742430Y-40290804D01*
X79773081Y-39979600D01*
X79742430Y-39668396D01*
X79651655Y-39369151D01*
X79504245Y-39093365D01*
X79400954Y-38967505D01*
X79484894Y-38922637D01*
X79581585Y-38843285D01*
X79660937Y-38746594D01*
X79719902Y-38636280D01*
X79756212Y-38516582D01*
X79768472Y-38392100D01*
X79768472Y-36487100D01*
X79756212Y-36362618D01*
X79719902Y-36242920D01*
X79660937Y-36132606D01*
X79581585Y-36035915D01*
X79484894Y-35956563D01*
X79374580Y-35897598D01*
X79265400Y-35864479D01*
X79265400Y-34163000D01*
X90297000Y-34163000D01*
X90297000Y-55753000D01*
G37*
X90297000Y-55753000D02*
X77310999Y-55753000D01*
X77310999Y-51909811D01*
X77421651Y-51968955D01*
X77720896Y-52059730D01*
X77954114Y-52082700D01*
X78205086Y-52082700D01*
X78438304Y-52059730D01*
X78737549Y-51968955D01*
X79013335Y-51821545D01*
X79255063Y-51623163D01*
X79453445Y-51381435D01*
X79600855Y-51105649D01*
X79691630Y-50806404D01*
X79722281Y-50495200D01*
X79691630Y-50183996D01*
X79600855Y-49884751D01*
X79453445Y-49608965D01*
X79350154Y-49483105D01*
X79434094Y-49438237D01*
X79530785Y-49358885D01*
X79610137Y-49262194D01*
X79669102Y-49151880D01*
X79705412Y-49032182D01*
X79717672Y-48907700D01*
X79717672Y-47002700D01*
X79705412Y-46878218D01*
X79669102Y-46758520D01*
X79610137Y-46648206D01*
X79530785Y-46551515D01*
X79434094Y-46472163D01*
X79323780Y-46413198D01*
X79204082Y-46376888D01*
X79079600Y-46364628D01*
X77079600Y-46364628D01*
X76982285Y-46374212D01*
X76995360Y-46331109D01*
X77015400Y-46127639D01*
X77015400Y-46127630D01*
X77022100Y-46059603D01*
X77015400Y-45991576D01*
X77015400Y-45545785D01*
X78475739Y-44085446D01*
X78489104Y-44084130D01*
X78788349Y-43993355D01*
X79064135Y-43845945D01*
X79305863Y-43647563D01*
X79504245Y-43405835D01*
X79651655Y-43130049D01*
X79742430Y-42830804D01*
X79773081Y-42519600D01*
X79742430Y-42208396D01*
X79651655Y-41909151D01*
X79504245Y-41633365D01*
X79305863Y-41391637D01*
X79132791Y-41249600D01*
X79305863Y-41107563D01*
X79504245Y-40865835D01*
X79651655Y-40590049D01*
X79742430Y-40290804D01*
X79773081Y-39979600D01*
X79742430Y-39668396D01*
X79651655Y-39369151D01*
X79504245Y-39093365D01*
X79400954Y-38967505D01*
X79484894Y-38922637D01*
X79581585Y-38843285D01*
X79660937Y-38746594D01*
X79719902Y-38636280D01*
X79756212Y-38516582D01*
X79768472Y-38392100D01*
X79768472Y-36487100D01*
X79756212Y-36362618D01*
X79719902Y-36242920D01*
X79660937Y-36132606D01*
X79581585Y-36035915D01*
X79484894Y-35956563D01*
X79374580Y-35897598D01*
X79265400Y-35864479D01*
X79265400Y-34163000D01*
X90297000Y-34163000D01*
X90297000Y-55753000D01*
G36*
X150724000Y-33909000D02*
G01*
X132761447Y-33909000D01*
X132763072Y-33892500D01*
X132763072Y-33417500D01*
X132746248Y-33246684D01*
X132696423Y-33082433D01*
X132615512Y-32931058D01*
X132506623Y-32798377D01*
X132373942Y-32689488D01*
X132222567Y-32608577D01*
X132058316Y-32558752D01*
X131887500Y-32541928D01*
X131840645Y-32541928D01*
X131822498Y-32536423D01*
X131600000Y-32514509D01*
X131377501Y-32536423D01*
X131359354Y-32541928D01*
X131312500Y-32541928D01*
X131141684Y-32558752D01*
X130977433Y-32608577D01*
X130826058Y-32689488D01*
X130693377Y-32798377D01*
X130584488Y-32931058D01*
X130503577Y-33082433D01*
X130453752Y-33246684D01*
X130436928Y-33417500D01*
X130436928Y-33892500D01*
X130438553Y-33909000D01*
X126988000Y-33909000D01*
X126988000Y-32704685D01*
X127077685Y-32615000D01*
X127464279Y-32615000D01*
X127876756Y-32532953D01*
X128265302Y-32372012D01*
X128614983Y-32138363D01*
X128912363Y-31840983D01*
X129146012Y-31491302D01*
X129306953Y-31102756D01*
X129389000Y-30690279D01*
X129389000Y-30269721D01*
X129306953Y-29857244D01*
X129146012Y-29468698D01*
X128912363Y-29119017D01*
X128614983Y-28821637D01*
X128265302Y-28587988D01*
X127876756Y-28427047D01*
X127464279Y-28345000D01*
X127043721Y-28345000D01*
X126631244Y-28427047D01*
X126242698Y-28587988D01*
X125893017Y-28821637D01*
X125595637Y-29119017D01*
X125361988Y-29468698D01*
X125201047Y-29857244D01*
X125119000Y-30269721D01*
X125119000Y-30656315D01*
X124671764Y-31103551D01*
X124618920Y-31146919D01*
X124575551Y-31199764D01*
X124575548Y-31199767D01*
X124445844Y-31357812D01*
X124317236Y-31598420D01*
X124312072Y-31615443D01*
X124312072Y-28980000D01*
X124299812Y-28855518D01*
X124263502Y-28735820D01*
X124204537Y-28625506D01*
X124125185Y-28528815D01*
X124028494Y-28449463D01*
X123918180Y-28390498D01*
X123798482Y-28354188D01*
X123674000Y-28341928D01*
X120674000Y-28341928D01*
X120549518Y-28354188D01*
X120429820Y-28390498D01*
X120319506Y-28449463D01*
X120222815Y-28528815D01*
X120143463Y-28625506D01*
X120084498Y-28735820D01*
X120048188Y-28855518D01*
X120035928Y-28980000D01*
X120035928Y-31980000D01*
X120048188Y-32104482D01*
X120084498Y-32224180D01*
X120143463Y-32334494D01*
X120222815Y-32431185D01*
X120319506Y-32510537D01*
X120429820Y-32569502D01*
X120549518Y-32605812D01*
X120674000Y-32618072D01*
X120789000Y-32618072D01*
X120789000Y-33810971D01*
X120782300Y-33879000D01*
X120785255Y-33909000D01*
X79266447Y-33909000D01*
X79268072Y-33892500D01*
X79268072Y-33709021D01*
X79270891Y-33680399D01*
X79268072Y-33651777D01*
X79268072Y-33417500D01*
X79251248Y-33246684D01*
X79201423Y-33082433D01*
X79120512Y-32931058D01*
X79011623Y-32798377D01*
X78878942Y-32689488D01*
X78727567Y-32608577D01*
X78563316Y-32558752D01*
X78392500Y-32541928D01*
X78345645Y-32541928D01*
X78327498Y-32536423D01*
X78105000Y-32514509D01*
X77882502Y-32536423D01*
X77864355Y-32541928D01*
X77817500Y-32541928D01*
X77646684Y-32558752D01*
X77482433Y-32608577D01*
X77331058Y-32689488D01*
X77198377Y-32798377D01*
X77089488Y-32931058D01*
X77008577Y-33082433D01*
X76958752Y-33246684D01*
X76941928Y-33417500D01*
X76941928Y-33892500D01*
X76943553Y-33909000D01*
X75045000Y-33909000D01*
X75045000Y-32114346D01*
X75318363Y-31840983D01*
X75552012Y-31491302D01*
X75712953Y-31102756D01*
X75795000Y-30690279D01*
X75795000Y-30269721D01*
X75712953Y-29857244D01*
X75552012Y-29468698D01*
X75318363Y-29119017D01*
X75020983Y-28821637D01*
X74671302Y-28587988D01*
X74282756Y-28427047D01*
X73870279Y-28345000D01*
X73449721Y-28345000D01*
X73037244Y-28427047D01*
X72648698Y-28587988D01*
X72299017Y-28821637D01*
X72001637Y-29119017D01*
X71767988Y-29468698D01*
X71607047Y-29857244D01*
X71525000Y-30269721D01*
X71525000Y-30690279D01*
X71607047Y-31102756D01*
X71767988Y-31491302D01*
X72001637Y-31840983D01*
X72275001Y-32114347D01*
X72275001Y-32951954D01*
X72275000Y-32951964D01*
X72275000Y-33716314D01*
X72082314Y-33909000D01*
X69965000Y-33909000D01*
X69965000Y-32618072D01*
X70080000Y-32618072D01*
X70204482Y-32605812D01*
X70324180Y-32569502D01*
X70434494Y-32510537D01*
X70531185Y-32431185D01*
X70610537Y-32334494D01*
X70669502Y-32224180D01*
X70705812Y-32104482D01*
X70718072Y-31980000D01*
X70718072Y-28980000D01*
X70705812Y-28855518D01*
X70669502Y-28735820D01*
X70610537Y-28625506D01*
X70531185Y-28528815D01*
X70434494Y-28449463D01*
X70324180Y-28390498D01*
X70204482Y-28354188D01*
X70080000Y-28341928D01*
X67080000Y-28341928D01*
X66955518Y-28354188D01*
X66835820Y-28390498D01*
X66725506Y-28449463D01*
X66628815Y-28528815D01*
X66549463Y-28625506D01*
X66490498Y-28735820D01*
X66454188Y-28855518D01*
X66441928Y-28980000D01*
X66441928Y-31980000D01*
X66454188Y-32104482D01*
X66490498Y-32224180D01*
X66549463Y-32334494D01*
X66628815Y-32431185D01*
X66725506Y-32510537D01*
X66835820Y-32569502D01*
X66955518Y-32605812D01*
X67080000Y-32618072D01*
X67195001Y-32618072D01*
X67195001Y-33909000D01*
X58928000Y-33909000D01*
X58903224Y-33911440D01*
X58879399Y-33918667D01*
X58857443Y-33930403D01*
X58838197Y-33946197D01*
X58822403Y-33965443D01*
X58810667Y-33987399D01*
X58803440Y-34011224D01*
X58801000Y-34036000D01*
X58801000Y-46228000D01*
X58803440Y-46252776D01*
X58810667Y-46276601D01*
X58822403Y-46298557D01*
X58838197Y-46317803D01*
X58857443Y-46333597D01*
X58879399Y-46345333D01*
X58903224Y-46352560D01*
X58928000Y-46355000D01*
X64462315Y-46355000D01*
X66663550Y-48556236D01*
X66706919Y-48609081D01*
X66759764Y-48652450D01*
X66759766Y-48652452D01*
X66765789Y-48657395D01*
X67437000Y-49328606D01*
X67437000Y-51308000D01*
X67439440Y-51332776D01*
X67446667Y-51356601D01*
X67458403Y-51378557D01*
X67474197Y-51397803D01*
X67493443Y-51413597D01*
X67515399Y-51425333D01*
X67539224Y-51432560D01*
X67564000Y-51435000D01*
X68072000Y-51435000D01*
X68072000Y-51816000D01*
X68074440Y-51840776D01*
X68081667Y-51864601D01*
X68093403Y-51886557D01*
X68109197Y-51905803D01*
X68128443Y-51921597D01*
X68150399Y-51933333D01*
X68174224Y-51940560D01*
X68199000Y-51943000D01*
X70993000Y-51943000D01*
X70993000Y-52599289D01*
X70912063Y-52680226D01*
X70798795Y-52849744D01*
X70720774Y-53038102D01*
X70681000Y-53238061D01*
X70681000Y-53441939D01*
X70720774Y-53641898D01*
X70798795Y-53830256D01*
X70870001Y-53936823D01*
X70870001Y-53971625D01*
X70840498Y-54026820D01*
X70804188Y-54146518D01*
X70791928Y-54271000D01*
X70791928Y-55799000D01*
X70804188Y-55923482D01*
X70840498Y-56043180D01*
X70899463Y-56153494D01*
X70978815Y-56250185D01*
X70993000Y-56261826D01*
X70993000Y-56292348D01*
X70991324Y-56309364D01*
X70993000Y-56326381D01*
X70993000Y-56388000D01*
X70995440Y-56412776D01*
X71002667Y-56436601D01*
X71004124Y-56439328D01*
X71005998Y-56458350D01*
X71015580Y-56489939D01*
X71049454Y-56601610D01*
X71120026Y-56733640D01*
X71172193Y-56797205D01*
X71215000Y-56849365D01*
X71243998Y-56873163D01*
X71346816Y-56975981D01*
X71433543Y-57047156D01*
X71565572Y-57117728D01*
X71708833Y-57161185D01*
X71857818Y-57175859D01*
X72006804Y-57161185D01*
X72023249Y-57156197D01*
X72033423Y-57259498D01*
X72038928Y-57277645D01*
X72038928Y-57324500D01*
X72055752Y-57495316D01*
X72105577Y-57659567D01*
X72186488Y-57810942D01*
X72295377Y-57943623D01*
X72428058Y-58052512D01*
X72579433Y-58133423D01*
X72743684Y-58183248D01*
X72914500Y-58200072D01*
X73389500Y-58200072D01*
X73560316Y-58183248D01*
X73724567Y-58133423D01*
X73826301Y-58079046D01*
X73925995Y-58319727D01*
X74078880Y-58548535D01*
X74273465Y-58743120D01*
X74502273Y-58896005D01*
X74756510Y-59001314D01*
X75026408Y-59055000D01*
X75301592Y-59055000D01*
X75571490Y-59001314D01*
X75825727Y-58896005D01*
X76054535Y-58743120D01*
X76249120Y-58548535D01*
X76283292Y-58497393D01*
X76857234Y-57923451D01*
X76910079Y-57880082D01*
X77083156Y-57669189D01*
X77211763Y-57428582D01*
X77290959Y-57167508D01*
X77310999Y-56964038D01*
X77310999Y-56964029D01*
X77317699Y-56896002D01*
X77310999Y-56827975D01*
X77310999Y-56515000D01*
X79460088Y-56515000D01*
X79373465Y-56572880D01*
X79178880Y-56767465D01*
X79025995Y-56996273D01*
X78920686Y-57250510D01*
X78867000Y-57520408D01*
X78867000Y-57795592D01*
X78920686Y-58065490D01*
X79025995Y-58319727D01*
X79178880Y-58548535D01*
X79373465Y-58743120D01*
X79424607Y-58777292D01*
X79490546Y-58843231D01*
X79533919Y-58896081D01*
X79744812Y-59069157D01*
X79985419Y-59197764D01*
X80246493Y-59276960D01*
X80449963Y-59297000D01*
X80449973Y-59297000D01*
X80517999Y-59303700D01*
X80586026Y-59297000D01*
X80635007Y-59297000D01*
X80602498Y-59357820D01*
X80566188Y-59477518D01*
X80553928Y-59602000D01*
X80553928Y-61302000D01*
X80566188Y-61426482D01*
X80602498Y-61546180D01*
X80661463Y-61656494D01*
X80740815Y-61753185D01*
X80837506Y-61832537D01*
X80947820Y-61891502D01*
X81067518Y-61927812D01*
X81192000Y-61940072D01*
X82892000Y-61940072D01*
X83016482Y-61927812D01*
X83136180Y-61891502D01*
X83246494Y-61832537D01*
X83343185Y-61753185D01*
X83422537Y-61656494D01*
X83481502Y-61546180D01*
X83517812Y-61426482D01*
X83530072Y-61302000D01*
X83530072Y-59602000D01*
X83517812Y-59477518D01*
X83481502Y-59357820D01*
X83448993Y-59297000D01*
X88023000Y-59297000D01*
X88023000Y-60143970D01*
X88016300Y-60212000D01*
X88023000Y-60280029D01*
X88023000Y-60280036D01*
X88033298Y-60384589D01*
X88043040Y-60483507D01*
X88077002Y-60595463D01*
X88122236Y-60744580D01*
X88237381Y-60960000D01*
X88250844Y-60985188D01*
X88366406Y-61126000D01*
X88423919Y-61196080D01*
X88476765Y-61239450D01*
X89128546Y-61891231D01*
X89171919Y-61944081D01*
X89382812Y-62117157D01*
X89623419Y-62245764D01*
X89884493Y-62324960D01*
X90087963Y-62345000D01*
X90087971Y-62345000D01*
X90156000Y-62351700D01*
X90224029Y-62345000D01*
X96155654Y-62345000D01*
X96429017Y-62618363D01*
X96778698Y-62852012D01*
X97167244Y-63012953D01*
X97579721Y-63095000D01*
X98000279Y-63095000D01*
X98412756Y-63012953D01*
X98801302Y-62852012D01*
X99150983Y-62618363D01*
X99448363Y-62320983D01*
X99682012Y-61971302D01*
X99842953Y-61582756D01*
X99925000Y-61170279D01*
X99925000Y-60783685D01*
X100457000Y-60251685D01*
X100457000Y-64364000D01*
X45364000Y-64364000D01*
X45364000Y-61126000D01*
X65059928Y-61126000D01*
X65059928Y-62826000D01*
X65072188Y-62950482D01*
X65108498Y-63070180D01*
X65167463Y-63180494D01*
X65246815Y-63277185D01*
X65343506Y-63356537D01*
X65453820Y-63415502D01*
X65573518Y-63451812D01*
X65698000Y-63464072D01*
X67398000Y-63464072D01*
X67522482Y-63451812D01*
X67642180Y-63415502D01*
X67752494Y-63356537D01*
X67849185Y-63277185D01*
X67928537Y-63180494D01*
X67987502Y-63070180D01*
X68009513Y-62997620D01*
X68141368Y-63129475D01*
X68384589Y-63291990D01*
X68654842Y-63403932D01*
X68941740Y-63461000D01*
X69234260Y-63461000D01*
X69521158Y-63403932D01*
X69791411Y-63291990D01*
X70034632Y-63129475D01*
X70241475Y-62922632D01*
X70358000Y-62748240D01*
X70474525Y-62922632D01*
X70681368Y-63129475D01*
X70924589Y-63291990D01*
X71194842Y-63403932D01*
X71481740Y-63461000D01*
X71774260Y-63461000D01*
X72061158Y-63403932D01*
X72331411Y-63291990D01*
X72574632Y-63129475D01*
X72781475Y-62922632D01*
X72943990Y-62679411D01*
X73055932Y-62409158D01*
X73113000Y-62122260D01*
X73113000Y-61829740D01*
X73055932Y-61542842D01*
X72943990Y-61272589D01*
X72781475Y-61029368D01*
X72574632Y-60822525D01*
X72331411Y-60660010D01*
X72061158Y-60548068D01*
X71774260Y-60491000D01*
X71481740Y-60491000D01*
X71194842Y-60548068D01*
X70924589Y-60660010D01*
X70681368Y-60822525D01*
X70474525Y-61029368D01*
X70358000Y-61203760D01*
X70241475Y-61029368D01*
X70034632Y-60822525D01*
X69791411Y-60660010D01*
X69521158Y-60548068D01*
X69234260Y-60491000D01*
X68941740Y-60491000D01*
X68654842Y-60548068D01*
X68384589Y-60660010D01*
X68141368Y-60822525D01*
X68009513Y-60954380D01*
X67987502Y-60881820D01*
X67928537Y-60771506D01*
X67849185Y-60674815D01*
X67752494Y-60595463D01*
X67642180Y-60536498D01*
X67522482Y-60500188D01*
X67398000Y-60487928D01*
X65698000Y-60487928D01*
X65573518Y-60500188D01*
X65453820Y-60536498D01*
X65343506Y-60595463D01*
X65246815Y-60674815D01*
X65167463Y-60771506D01*
X65108498Y-60881820D01*
X65072188Y-61001518D01*
X65059928Y-61126000D01*
X45364000Y-61126000D01*
X45364000Y-56007000D01*
X51816000Y-56007000D01*
X51840776Y-56004560D01*
X51864601Y-55997333D01*
X51886557Y-55985597D01*
X51905803Y-55969803D01*
X51921597Y-55950557D01*
X51933333Y-55928601D01*
X51940560Y-55904776D01*
X51943000Y-55880000D01*
X51943000Y-50266600D01*
X62568519Y-50266600D01*
X62599170Y-50577804D01*
X62689945Y-50877049D01*
X62837355Y-51152835D01*
X62940646Y-51278695D01*
X62856706Y-51323563D01*
X62760015Y-51402915D01*
X62680663Y-51499606D01*
X62621698Y-51609920D01*
X62585388Y-51729618D01*
X62573128Y-51854100D01*
X62573128Y-53759100D01*
X62585388Y-53883582D01*
X62621698Y-54003280D01*
X62680663Y-54113594D01*
X62760015Y-54210285D01*
X62856706Y-54289637D01*
X62967020Y-54348602D01*
X63086718Y-54384912D01*
X63211200Y-54397172D01*
X65211200Y-54397172D01*
X65335682Y-54384912D01*
X65455380Y-54348602D01*
X65565694Y-54289637D01*
X65662385Y-54210285D01*
X65741737Y-54113594D01*
X65800702Y-54003280D01*
X65837012Y-53883582D01*
X65849272Y-53759100D01*
X65849272Y-51854100D01*
X65837012Y-51729618D01*
X65800702Y-51609920D01*
X65741737Y-51499606D01*
X65662385Y-51402915D01*
X65565694Y-51323563D01*
X65481754Y-51278695D01*
X65585045Y-51152835D01*
X65732455Y-50877049D01*
X65823230Y-50577804D01*
X65853881Y-50266600D01*
X65823230Y-49955396D01*
X65732455Y-49656151D01*
X65585045Y-49380365D01*
X65386663Y-49138637D01*
X65144935Y-48940255D01*
X64869149Y-48792845D01*
X64569904Y-48702070D01*
X64336686Y-48679100D01*
X64085714Y-48679100D01*
X63852496Y-48702070D01*
X63553251Y-48792845D01*
X63277465Y-48940255D01*
X63035737Y-49138637D01*
X62837355Y-49380365D01*
X62689945Y-49656151D01*
X62599170Y-49955396D01*
X62568519Y-50266600D01*
X51943000Y-50266600D01*
X51943000Y-34036000D01*
X51940560Y-34011224D01*
X51933333Y-33987399D01*
X51921597Y-33965443D01*
X51905803Y-33946197D01*
X51886557Y-33930403D01*
X51864601Y-33918667D01*
X51840776Y-33911440D01*
X51816000Y-33909000D01*
X45364000Y-33909000D01*
X45364000Y-27076000D01*
X150724000Y-27076000D01*
X150724000Y-33909000D01*
G37*
X150724000Y-33909000D02*
X132761447Y-33909000D01*
X132763072Y-33892500D01*
X132763072Y-33417500D01*
X132746248Y-33246684D01*
X132696423Y-33082433D01*
X132615512Y-32931058D01*
X132506623Y-32798377D01*
X132373942Y-32689488D01*
X132222567Y-32608577D01*
X132058316Y-32558752D01*
X131887500Y-32541928D01*
X131840645Y-32541928D01*
X131822498Y-32536423D01*
X131600000Y-32514509D01*
X131377501Y-32536423D01*
X131359354Y-32541928D01*
X131312500Y-32541928D01*
X131141684Y-32558752D01*
X130977433Y-32608577D01*
X130826058Y-32689488D01*
X130693377Y-32798377D01*
X130584488Y-32931058D01*
X130503577Y-33082433D01*
X130453752Y-33246684D01*
X130436928Y-33417500D01*
X130436928Y-33892500D01*
X130438553Y-33909000D01*
X126988000Y-33909000D01*
X126988000Y-32704685D01*
X127077685Y-32615000D01*
X127464279Y-32615000D01*
X127876756Y-32532953D01*
X128265302Y-32372012D01*
X128614983Y-32138363D01*
X128912363Y-31840983D01*
X129146012Y-31491302D01*
X129306953Y-31102756D01*
X129389000Y-30690279D01*
X129389000Y-30269721D01*
X129306953Y-29857244D01*
X129146012Y-29468698D01*
X128912363Y-29119017D01*
X128614983Y-28821637D01*
X128265302Y-28587988D01*
X127876756Y-28427047D01*
X127464279Y-28345000D01*
X127043721Y-28345000D01*
X126631244Y-28427047D01*
X126242698Y-28587988D01*
X125893017Y-28821637D01*
X125595637Y-29119017D01*
X125361988Y-29468698D01*
X125201047Y-29857244D01*
X125119000Y-30269721D01*
X125119000Y-30656315D01*
X124671764Y-31103551D01*
X124618920Y-31146919D01*
X124575551Y-31199764D01*
X124575548Y-31199767D01*
X124445844Y-31357812D01*
X124317236Y-31598420D01*
X124312072Y-31615443D01*
X124312072Y-28980000D01*
X124299812Y-28855518D01*
X124263502Y-28735820D01*
X124204537Y-28625506D01*
X124125185Y-28528815D01*
X124028494Y-28449463D01*
X123918180Y-28390498D01*
X123798482Y-28354188D01*
X123674000Y-28341928D01*
X120674000Y-28341928D01*
X120549518Y-28354188D01*
X120429820Y-28390498D01*
X120319506Y-28449463D01*
X120222815Y-28528815D01*
X120143463Y-28625506D01*
X120084498Y-28735820D01*
X120048188Y-28855518D01*
X120035928Y-28980000D01*
X120035928Y-31980000D01*
X120048188Y-32104482D01*
X120084498Y-32224180D01*
X120143463Y-32334494D01*
X120222815Y-32431185D01*
X120319506Y-32510537D01*
X120429820Y-32569502D01*
X120549518Y-32605812D01*
X120674000Y-32618072D01*
X120789000Y-32618072D01*
X120789000Y-33810971D01*
X120782300Y-33879000D01*
X120785255Y-33909000D01*
X79266447Y-33909000D01*
X79268072Y-33892500D01*
X79268072Y-33709021D01*
X79270891Y-33680399D01*
X79268072Y-33651777D01*
X79268072Y-33417500D01*
X79251248Y-33246684D01*
X79201423Y-33082433D01*
X79120512Y-32931058D01*
X79011623Y-32798377D01*
X78878942Y-32689488D01*
X78727567Y-32608577D01*
X78563316Y-32558752D01*
X78392500Y-32541928D01*
X78345645Y-32541928D01*
X78327498Y-32536423D01*
X78105000Y-32514509D01*
X77882502Y-32536423D01*
X77864355Y-32541928D01*
X77817500Y-32541928D01*
X77646684Y-32558752D01*
X77482433Y-32608577D01*
X77331058Y-32689488D01*
X77198377Y-32798377D01*
X77089488Y-32931058D01*
X77008577Y-33082433D01*
X76958752Y-33246684D01*
X76941928Y-33417500D01*
X76941928Y-33892500D01*
X76943553Y-33909000D01*
X75045000Y-33909000D01*
X75045000Y-32114346D01*
X75318363Y-31840983D01*
X75552012Y-31491302D01*
X75712953Y-31102756D01*
X75795000Y-30690279D01*
X75795000Y-30269721D01*
X75712953Y-29857244D01*
X75552012Y-29468698D01*
X75318363Y-29119017D01*
X75020983Y-28821637D01*
X74671302Y-28587988D01*
X74282756Y-28427047D01*
X73870279Y-28345000D01*
X73449721Y-28345000D01*
X73037244Y-28427047D01*
X72648698Y-28587988D01*
X72299017Y-28821637D01*
X72001637Y-29119017D01*
X71767988Y-29468698D01*
X71607047Y-29857244D01*
X71525000Y-30269721D01*
X71525000Y-30690279D01*
X71607047Y-31102756D01*
X71767988Y-31491302D01*
X72001637Y-31840983D01*
X72275001Y-32114347D01*
X72275001Y-32951954D01*
X72275000Y-32951964D01*
X72275000Y-33716314D01*
X72082314Y-33909000D01*
X69965000Y-33909000D01*
X69965000Y-32618072D01*
X70080000Y-32618072D01*
X70204482Y-32605812D01*
X70324180Y-32569502D01*
X70434494Y-32510537D01*
X70531185Y-32431185D01*
X70610537Y-32334494D01*
X70669502Y-32224180D01*
X70705812Y-32104482D01*
X70718072Y-31980000D01*
X70718072Y-28980000D01*
X70705812Y-28855518D01*
X70669502Y-28735820D01*
X70610537Y-28625506D01*
X70531185Y-28528815D01*
X70434494Y-28449463D01*
X70324180Y-28390498D01*
X70204482Y-28354188D01*
X70080000Y-28341928D01*
X67080000Y-28341928D01*
X66955518Y-28354188D01*
X66835820Y-28390498D01*
X66725506Y-28449463D01*
X66628815Y-28528815D01*
X66549463Y-28625506D01*
X66490498Y-28735820D01*
X66454188Y-28855518D01*
X66441928Y-28980000D01*
X66441928Y-31980000D01*
X66454188Y-32104482D01*
X66490498Y-32224180D01*
X66549463Y-32334494D01*
X66628815Y-32431185D01*
X66725506Y-32510537D01*
X66835820Y-32569502D01*
X66955518Y-32605812D01*
X67080000Y-32618072D01*
X67195001Y-32618072D01*
X67195001Y-33909000D01*
X58928000Y-33909000D01*
X58903224Y-33911440D01*
X58879399Y-33918667D01*
X58857443Y-33930403D01*
X58838197Y-33946197D01*
X58822403Y-33965443D01*
X58810667Y-33987399D01*
X58803440Y-34011224D01*
X58801000Y-34036000D01*
X58801000Y-46228000D01*
X58803440Y-46252776D01*
X58810667Y-46276601D01*
X58822403Y-46298557D01*
X58838197Y-46317803D01*
X58857443Y-46333597D01*
X58879399Y-46345333D01*
X58903224Y-46352560D01*
X58928000Y-46355000D01*
X64462315Y-46355000D01*
X66663550Y-48556236D01*
X66706919Y-48609081D01*
X66759764Y-48652450D01*
X66759766Y-48652452D01*
X66765789Y-48657395D01*
X67437000Y-49328606D01*
X67437000Y-51308000D01*
X67439440Y-51332776D01*
X67446667Y-51356601D01*
X67458403Y-51378557D01*
X67474197Y-51397803D01*
X67493443Y-51413597D01*
X67515399Y-51425333D01*
X67539224Y-51432560D01*
X67564000Y-51435000D01*
X68072000Y-51435000D01*
X68072000Y-51816000D01*
X68074440Y-51840776D01*
X68081667Y-51864601D01*
X68093403Y-51886557D01*
X68109197Y-51905803D01*
X68128443Y-51921597D01*
X68150399Y-51933333D01*
X68174224Y-51940560D01*
X68199000Y-51943000D01*
X70993000Y-51943000D01*
X70993000Y-52599289D01*
X70912063Y-52680226D01*
X70798795Y-52849744D01*
X70720774Y-53038102D01*
X70681000Y-53238061D01*
X70681000Y-53441939D01*
X70720774Y-53641898D01*
X70798795Y-53830256D01*
X70870001Y-53936823D01*
X70870001Y-53971625D01*
X70840498Y-54026820D01*
X70804188Y-54146518D01*
X70791928Y-54271000D01*
X70791928Y-55799000D01*
X70804188Y-55923482D01*
X70840498Y-56043180D01*
X70899463Y-56153494D01*
X70978815Y-56250185D01*
X70993000Y-56261826D01*
X70993000Y-56292348D01*
X70991324Y-56309364D01*
X70993000Y-56326381D01*
X70993000Y-56388000D01*
X70995440Y-56412776D01*
X71002667Y-56436601D01*
X71004124Y-56439328D01*
X71005998Y-56458350D01*
X71015580Y-56489939D01*
X71049454Y-56601610D01*
X71120026Y-56733640D01*
X71172193Y-56797205D01*
X71215000Y-56849365D01*
X71243998Y-56873163D01*
X71346816Y-56975981D01*
X71433543Y-57047156D01*
X71565572Y-57117728D01*
X71708833Y-57161185D01*
X71857818Y-57175859D01*
X72006804Y-57161185D01*
X72023249Y-57156197D01*
X72033423Y-57259498D01*
X72038928Y-57277645D01*
X72038928Y-57324500D01*
X72055752Y-57495316D01*
X72105577Y-57659567D01*
X72186488Y-57810942D01*
X72295377Y-57943623D01*
X72428058Y-58052512D01*
X72579433Y-58133423D01*
X72743684Y-58183248D01*
X72914500Y-58200072D01*
X73389500Y-58200072D01*
X73560316Y-58183248D01*
X73724567Y-58133423D01*
X73826301Y-58079046D01*
X73925995Y-58319727D01*
X74078880Y-58548535D01*
X74273465Y-58743120D01*
X74502273Y-58896005D01*
X74756510Y-59001314D01*
X75026408Y-59055000D01*
X75301592Y-59055000D01*
X75571490Y-59001314D01*
X75825727Y-58896005D01*
X76054535Y-58743120D01*
X76249120Y-58548535D01*
X76283292Y-58497393D01*
X76857234Y-57923451D01*
X76910079Y-57880082D01*
X77083156Y-57669189D01*
X77211763Y-57428582D01*
X77290959Y-57167508D01*
X77310999Y-56964038D01*
X77310999Y-56964029D01*
X77317699Y-56896002D01*
X77310999Y-56827975D01*
X77310999Y-56515000D01*
X79460088Y-56515000D01*
X79373465Y-56572880D01*
X79178880Y-56767465D01*
X79025995Y-56996273D01*
X78920686Y-57250510D01*
X78867000Y-57520408D01*
X78867000Y-57795592D01*
X78920686Y-58065490D01*
X79025995Y-58319727D01*
X79178880Y-58548535D01*
X79373465Y-58743120D01*
X79424607Y-58777292D01*
X79490546Y-58843231D01*
X79533919Y-58896081D01*
X79744812Y-59069157D01*
X79985419Y-59197764D01*
X80246493Y-59276960D01*
X80449963Y-59297000D01*
X80449973Y-59297000D01*
X80517999Y-59303700D01*
X80586026Y-59297000D01*
X80635007Y-59297000D01*
X80602498Y-59357820D01*
X80566188Y-59477518D01*
X80553928Y-59602000D01*
X80553928Y-61302000D01*
X80566188Y-61426482D01*
X80602498Y-61546180D01*
X80661463Y-61656494D01*
X80740815Y-61753185D01*
X80837506Y-61832537D01*
X80947820Y-61891502D01*
X81067518Y-61927812D01*
X81192000Y-61940072D01*
X82892000Y-61940072D01*
X83016482Y-61927812D01*
X83136180Y-61891502D01*
X83246494Y-61832537D01*
X83343185Y-61753185D01*
X83422537Y-61656494D01*
X83481502Y-61546180D01*
X83517812Y-61426482D01*
X83530072Y-61302000D01*
X83530072Y-59602000D01*
X83517812Y-59477518D01*
X83481502Y-59357820D01*
X83448993Y-59297000D01*
X88023000Y-59297000D01*
X88023000Y-60143970D01*
X88016300Y-60212000D01*
X88023000Y-60280029D01*
X88023000Y-60280036D01*
X88033298Y-60384589D01*
X88043040Y-60483507D01*
X88077002Y-60595463D01*
X88122236Y-60744580D01*
X88237381Y-60960000D01*
X88250844Y-60985188D01*
X88366406Y-61126000D01*
X88423919Y-61196080D01*
X88476765Y-61239450D01*
X89128546Y-61891231D01*
X89171919Y-61944081D01*
X89382812Y-62117157D01*
X89623419Y-62245764D01*
X89884493Y-62324960D01*
X90087963Y-62345000D01*
X90087971Y-62345000D01*
X90156000Y-62351700D01*
X90224029Y-62345000D01*
X96155654Y-62345000D01*
X96429017Y-62618363D01*
X96778698Y-62852012D01*
X97167244Y-63012953D01*
X97579721Y-63095000D01*
X98000279Y-63095000D01*
X98412756Y-63012953D01*
X98801302Y-62852012D01*
X99150983Y-62618363D01*
X99448363Y-62320983D01*
X99682012Y-61971302D01*
X99842953Y-61582756D01*
X99925000Y-61170279D01*
X99925000Y-60783685D01*
X100457000Y-60251685D01*
X100457000Y-64364000D01*
X45364000Y-64364000D01*
X45364000Y-61126000D01*
X65059928Y-61126000D01*
X65059928Y-62826000D01*
X65072188Y-62950482D01*
X65108498Y-63070180D01*
X65167463Y-63180494D01*
X65246815Y-63277185D01*
X65343506Y-63356537D01*
X65453820Y-63415502D01*
X65573518Y-63451812D01*
X65698000Y-63464072D01*
X67398000Y-63464072D01*
X67522482Y-63451812D01*
X67642180Y-63415502D01*
X67752494Y-63356537D01*
X67849185Y-63277185D01*
X67928537Y-63180494D01*
X67987502Y-63070180D01*
X68009513Y-62997620D01*
X68141368Y-63129475D01*
X68384589Y-63291990D01*
X68654842Y-63403932D01*
X68941740Y-63461000D01*
X69234260Y-63461000D01*
X69521158Y-63403932D01*
X69791411Y-63291990D01*
X70034632Y-63129475D01*
X70241475Y-62922632D01*
X70358000Y-62748240D01*
X70474525Y-62922632D01*
X70681368Y-63129475D01*
X70924589Y-63291990D01*
X71194842Y-63403932D01*
X71481740Y-63461000D01*
X71774260Y-63461000D01*
X72061158Y-63403932D01*
X72331411Y-63291990D01*
X72574632Y-63129475D01*
X72781475Y-62922632D01*
X72943990Y-62679411D01*
X73055932Y-62409158D01*
X73113000Y-62122260D01*
X73113000Y-61829740D01*
X73055932Y-61542842D01*
X72943990Y-61272589D01*
X72781475Y-61029368D01*
X72574632Y-60822525D01*
X72331411Y-60660010D01*
X72061158Y-60548068D01*
X71774260Y-60491000D01*
X71481740Y-60491000D01*
X71194842Y-60548068D01*
X70924589Y-60660010D01*
X70681368Y-60822525D01*
X70474525Y-61029368D01*
X70358000Y-61203760D01*
X70241475Y-61029368D01*
X70034632Y-60822525D01*
X69791411Y-60660010D01*
X69521158Y-60548068D01*
X69234260Y-60491000D01*
X68941740Y-60491000D01*
X68654842Y-60548068D01*
X68384589Y-60660010D01*
X68141368Y-60822525D01*
X68009513Y-60954380D01*
X67987502Y-60881820D01*
X67928537Y-60771506D01*
X67849185Y-60674815D01*
X67752494Y-60595463D01*
X67642180Y-60536498D01*
X67522482Y-60500188D01*
X67398000Y-60487928D01*
X65698000Y-60487928D01*
X65573518Y-60500188D01*
X65453820Y-60536498D01*
X65343506Y-60595463D01*
X65246815Y-60674815D01*
X65167463Y-60771506D01*
X65108498Y-60881820D01*
X65072188Y-61001518D01*
X65059928Y-61126000D01*
X45364000Y-61126000D01*
X45364000Y-56007000D01*
X51816000Y-56007000D01*
X51840776Y-56004560D01*
X51864601Y-55997333D01*
X51886557Y-55985597D01*
X51905803Y-55969803D01*
X51921597Y-55950557D01*
X51933333Y-55928601D01*
X51940560Y-55904776D01*
X51943000Y-55880000D01*
X51943000Y-50266600D01*
X62568519Y-50266600D01*
X62599170Y-50577804D01*
X62689945Y-50877049D01*
X62837355Y-51152835D01*
X62940646Y-51278695D01*
X62856706Y-51323563D01*
X62760015Y-51402915D01*
X62680663Y-51499606D01*
X62621698Y-51609920D01*
X62585388Y-51729618D01*
X62573128Y-51854100D01*
X62573128Y-53759100D01*
X62585388Y-53883582D01*
X62621698Y-54003280D01*
X62680663Y-54113594D01*
X62760015Y-54210285D01*
X62856706Y-54289637D01*
X62967020Y-54348602D01*
X63086718Y-54384912D01*
X63211200Y-54397172D01*
X65211200Y-54397172D01*
X65335682Y-54384912D01*
X65455380Y-54348602D01*
X65565694Y-54289637D01*
X65662385Y-54210285D01*
X65741737Y-54113594D01*
X65800702Y-54003280D01*
X65837012Y-53883582D01*
X65849272Y-53759100D01*
X65849272Y-51854100D01*
X65837012Y-51729618D01*
X65800702Y-51609920D01*
X65741737Y-51499606D01*
X65662385Y-51402915D01*
X65565694Y-51323563D01*
X65481754Y-51278695D01*
X65585045Y-51152835D01*
X65732455Y-50877049D01*
X65823230Y-50577804D01*
X65853881Y-50266600D01*
X65823230Y-49955396D01*
X65732455Y-49656151D01*
X65585045Y-49380365D01*
X65386663Y-49138637D01*
X65144935Y-48940255D01*
X64869149Y-48792845D01*
X64569904Y-48702070D01*
X64336686Y-48679100D01*
X64085714Y-48679100D01*
X63852496Y-48702070D01*
X63553251Y-48792845D01*
X63277465Y-48940255D01*
X63035737Y-49138637D01*
X62837355Y-49380365D01*
X62689945Y-49656151D01*
X62599170Y-49955396D01*
X62568519Y-50266600D01*
X51943000Y-50266600D01*
X51943000Y-34036000D01*
X51940560Y-34011224D01*
X51933333Y-33987399D01*
X51921597Y-33965443D01*
X51905803Y-33946197D01*
X51886557Y-33930403D01*
X51864601Y-33918667D01*
X51840776Y-33911440D01*
X51816000Y-33909000D01*
X45364000Y-33909000D01*
X45364000Y-27076000D01*
X150724000Y-27076000D01*
X150724000Y-33909000D01*
%TD*%
M02*
