%TF.GenerationSoftware,KiCad,Pcbnew,5.1.5+dfsg1-2build2*%
%TF.CreationDate,2021-10-16T12:52:01+01:00*%
%TF.ProjectId,motor_driver_v1,6d6f746f-725f-4647-9269-7665725f7631,rev?*%
%TF.SameCoordinates,Original*%
%TF.FileFunction,Legend,Top*%
%TF.FilePolarity,Positive*%
%FSLAX46Y46*%
G04 Gerber Fmt 4.6, Leading zero omitted, Abs format (unit mm)*
G04 Created by KiCad (PCBNEW 5.1.5+dfsg1-2build2) date 2021-10-16 12:52:01*
%MOMM*%
%LPD*%
G04 APERTURE LIST*
%ADD10C,0.120000*%
%ADD11C,0.200000*%
%ADD12C,0.150000*%
%ADD13C,0.254000*%
G04 APERTURE END LIST*
D10*
%TO.C,Q5*%
X60521200Y-47726600D02*
X63061200Y-47726600D01*
X60521200Y-50266600D02*
X63061200Y-50266600D01*
X60521200Y-52806600D02*
X63061200Y-52806600D01*
X44631200Y-45146600D02*
X60521200Y-45146600D01*
X44631200Y-55386600D02*
X60521200Y-55386600D01*
X44631200Y-55386600D02*
X44631200Y-45146600D01*
X60521200Y-55386600D02*
X60521200Y-45146600D01*
%TO.C,Q4*%
X135262000Y-42519600D02*
X132722000Y-42519600D01*
X135262000Y-39979600D02*
X132722000Y-39979600D01*
X135262000Y-37439600D02*
X132722000Y-37439600D01*
X151152000Y-45099600D02*
X135262000Y-45099600D01*
X151152000Y-34859600D02*
X135262000Y-34859600D01*
X151152000Y-34859600D02*
X151152000Y-45099600D01*
X135262000Y-34859600D02*
X135262000Y-45099600D01*
D11*
%TO.C,IC4*%
X127548000Y-48849000D02*
X127548000Y-50376000D01*
X122516000Y-50726000D02*
X127420000Y-50726000D01*
X122516000Y-53922000D02*
X122516000Y-50726000D01*
X127420000Y-53922000D02*
X122516000Y-53922000D01*
X127420000Y-50726000D02*
X127420000Y-53922000D01*
D10*
%TO.C,J6*%
X80712000Y-59122000D02*
X82042000Y-59122000D01*
X80712000Y-60452000D02*
X80712000Y-59122000D01*
X80712000Y-61722000D02*
X83372000Y-61722000D01*
X83372000Y-61722000D02*
X83372000Y-61782000D01*
X80712000Y-61722000D02*
X80712000Y-61782000D01*
X80712000Y-61782000D02*
X83372000Y-61782000D01*
%TO.C,R4*%
X119505000Y-43248733D02*
X119505000Y-43591267D01*
X120525000Y-43248733D02*
X120525000Y-43591267D01*
%TO.C,R3*%
X78808733Y-34165000D02*
X79151267Y-34165000D01*
X78808733Y-33145000D02*
X79151267Y-33145000D01*
%TO.C,R2*%
X66038000Y-42994733D02*
X66038000Y-43337267D01*
X67058000Y-42994733D02*
X67058000Y-43337267D01*
%TO.C,R1*%
X132303733Y-34165000D02*
X132646267Y-34165000D01*
X132303733Y-33145000D02*
X132646267Y-33145000D01*
%TO.C,C5*%
X113459000Y-56402302D02*
X112659000Y-56402302D01*
X113059000Y-56002302D02*
X113059000Y-56802302D01*
X111277000Y-64493000D02*
X110211000Y-64493000D01*
X111512000Y-64453000D02*
X109976000Y-64453000D01*
X111692000Y-64413000D02*
X109796000Y-64413000D01*
X111842000Y-64373000D02*
X109646000Y-64373000D01*
X111973000Y-64333000D02*
X109515000Y-64333000D01*
X112090000Y-64293000D02*
X109398000Y-64293000D01*
X112197000Y-64253000D02*
X109291000Y-64253000D01*
X112296000Y-64213000D02*
X109192000Y-64213000D01*
X112389000Y-64173000D02*
X109099000Y-64173000D01*
X112475000Y-64133000D02*
X109013000Y-64133000D01*
X112557000Y-64093000D02*
X108931000Y-64093000D01*
X112634000Y-64053000D02*
X108854000Y-64053000D01*
X112708000Y-64013000D02*
X108780000Y-64013000D01*
X112778000Y-63973000D02*
X108710000Y-63973000D01*
X109704000Y-63933000D02*
X108642000Y-63933000D01*
X112846000Y-63933000D02*
X111784000Y-63933000D01*
X109704000Y-63893000D02*
X108578000Y-63893000D01*
X112910000Y-63893000D02*
X111784000Y-63893000D01*
X109704000Y-63853000D02*
X108516000Y-63853000D01*
X112972000Y-63853000D02*
X111784000Y-63853000D01*
X109704000Y-63813000D02*
X108457000Y-63813000D01*
X113031000Y-63813000D02*
X111784000Y-63813000D01*
X109704000Y-63773000D02*
X108399000Y-63773000D01*
X113089000Y-63773000D02*
X111784000Y-63773000D01*
X109704000Y-63733000D02*
X108344000Y-63733000D01*
X113144000Y-63733000D02*
X111784000Y-63733000D01*
X109704000Y-63693000D02*
X108290000Y-63693000D01*
X113198000Y-63693000D02*
X111784000Y-63693000D01*
X109704000Y-63653000D02*
X108239000Y-63653000D01*
X113249000Y-63653000D02*
X111784000Y-63653000D01*
X109704000Y-63613000D02*
X108188000Y-63613000D01*
X113300000Y-63613000D02*
X111784000Y-63613000D01*
X109704000Y-63573000D02*
X108140000Y-63573000D01*
X113348000Y-63573000D02*
X111784000Y-63573000D01*
X109704000Y-63533000D02*
X108093000Y-63533000D01*
X113395000Y-63533000D02*
X111784000Y-63533000D01*
X109704000Y-63493000D02*
X108047000Y-63493000D01*
X113441000Y-63493000D02*
X111784000Y-63493000D01*
X109704000Y-63453000D02*
X108003000Y-63453000D01*
X113485000Y-63453000D02*
X111784000Y-63453000D01*
X109704000Y-63413000D02*
X107960000Y-63413000D01*
X113528000Y-63413000D02*
X111784000Y-63413000D01*
X109704000Y-63373000D02*
X107918000Y-63373000D01*
X113570000Y-63373000D02*
X111784000Y-63373000D01*
X109704000Y-63333000D02*
X107877000Y-63333000D01*
X113611000Y-63333000D02*
X111784000Y-63333000D01*
X109704000Y-63293000D02*
X107837000Y-63293000D01*
X113651000Y-63293000D02*
X111784000Y-63293000D01*
X109704000Y-63253000D02*
X107799000Y-63253000D01*
X113689000Y-63253000D02*
X111784000Y-63253000D01*
X109704000Y-63213000D02*
X107761000Y-63213000D01*
X113727000Y-63213000D02*
X111784000Y-63213000D01*
X109704000Y-63173000D02*
X107725000Y-63173000D01*
X113763000Y-63173000D02*
X111784000Y-63173000D01*
X109704000Y-63133000D02*
X107689000Y-63133000D01*
X113799000Y-63133000D02*
X111784000Y-63133000D01*
X109704000Y-63093000D02*
X107654000Y-63093000D01*
X113834000Y-63093000D02*
X111784000Y-63093000D01*
X109704000Y-63053000D02*
X107620000Y-63053000D01*
X113868000Y-63053000D02*
X111784000Y-63053000D01*
X109704000Y-63013000D02*
X107588000Y-63013000D01*
X113900000Y-63013000D02*
X111784000Y-63013000D01*
X109704000Y-62973000D02*
X107555000Y-62973000D01*
X113933000Y-62973000D02*
X111784000Y-62973000D01*
X109704000Y-62933000D02*
X107524000Y-62933000D01*
X113964000Y-62933000D02*
X111784000Y-62933000D01*
X109704000Y-62893000D02*
X107494000Y-62893000D01*
X113994000Y-62893000D02*
X111784000Y-62893000D01*
X109704000Y-62853000D02*
X107464000Y-62853000D01*
X114024000Y-62853000D02*
X111784000Y-62853000D01*
X109704000Y-62813000D02*
X107435000Y-62813000D01*
X114053000Y-62813000D02*
X111784000Y-62813000D01*
X109704000Y-62773000D02*
X107406000Y-62773000D01*
X114082000Y-62773000D02*
X111784000Y-62773000D01*
X109704000Y-62733000D02*
X107379000Y-62733000D01*
X114109000Y-62733000D02*
X111784000Y-62733000D01*
X109704000Y-62693000D02*
X107352000Y-62693000D01*
X114136000Y-62693000D02*
X111784000Y-62693000D01*
X109704000Y-62653000D02*
X107326000Y-62653000D01*
X114162000Y-62653000D02*
X111784000Y-62653000D01*
X109704000Y-62613000D02*
X107300000Y-62613000D01*
X114188000Y-62613000D02*
X111784000Y-62613000D01*
X109704000Y-62573000D02*
X107275000Y-62573000D01*
X114213000Y-62573000D02*
X111784000Y-62573000D01*
X109704000Y-62533000D02*
X107251000Y-62533000D01*
X114237000Y-62533000D02*
X111784000Y-62533000D01*
X109704000Y-62493000D02*
X107227000Y-62493000D01*
X114261000Y-62493000D02*
X111784000Y-62493000D01*
X109704000Y-62453000D02*
X107204000Y-62453000D01*
X114284000Y-62453000D02*
X111784000Y-62453000D01*
X109704000Y-62413000D02*
X107182000Y-62413000D01*
X114306000Y-62413000D02*
X111784000Y-62413000D01*
X109704000Y-62373000D02*
X107160000Y-62373000D01*
X114328000Y-62373000D02*
X111784000Y-62373000D01*
X109704000Y-62333000D02*
X107138000Y-62333000D01*
X114350000Y-62333000D02*
X111784000Y-62333000D01*
X109704000Y-62293000D02*
X107117000Y-62293000D01*
X114371000Y-62293000D02*
X111784000Y-62293000D01*
X109704000Y-62253000D02*
X107097000Y-62253000D01*
X114391000Y-62253000D02*
X111784000Y-62253000D01*
X109704000Y-62213000D02*
X107078000Y-62213000D01*
X114410000Y-62213000D02*
X111784000Y-62213000D01*
X109704000Y-62173000D02*
X107058000Y-62173000D01*
X114430000Y-62173000D02*
X111784000Y-62173000D01*
X109704000Y-62133000D02*
X107040000Y-62133000D01*
X114448000Y-62133000D02*
X111784000Y-62133000D01*
X109704000Y-62093000D02*
X107022000Y-62093000D01*
X114466000Y-62093000D02*
X111784000Y-62093000D01*
X109704000Y-62053000D02*
X107004000Y-62053000D01*
X114484000Y-62053000D02*
X111784000Y-62053000D01*
X109704000Y-62013000D02*
X106987000Y-62013000D01*
X114501000Y-62013000D02*
X111784000Y-62013000D01*
X109704000Y-61973000D02*
X106970000Y-61973000D01*
X114518000Y-61973000D02*
X111784000Y-61973000D01*
X109704000Y-61933000D02*
X106954000Y-61933000D01*
X114534000Y-61933000D02*
X111784000Y-61933000D01*
X109704000Y-61893000D02*
X106939000Y-61893000D01*
X114549000Y-61893000D02*
X111784000Y-61893000D01*
X114565000Y-61853000D02*
X106923000Y-61853000D01*
X114579000Y-61813000D02*
X106909000Y-61813000D01*
X114594000Y-61773000D02*
X106894000Y-61773000D01*
X114607000Y-61733000D02*
X106881000Y-61733000D01*
X114621000Y-61693000D02*
X106867000Y-61693000D01*
X114633000Y-61653000D02*
X106855000Y-61653000D01*
X114646000Y-61613000D02*
X106842000Y-61613000D01*
X114658000Y-61573000D02*
X106830000Y-61573000D01*
X114669000Y-61533000D02*
X106819000Y-61533000D01*
X114680000Y-61493000D02*
X106808000Y-61493000D01*
X114691000Y-61453000D02*
X106797000Y-61453000D01*
X114701000Y-61413000D02*
X106787000Y-61413000D01*
X114711000Y-61373000D02*
X106777000Y-61373000D01*
X114720000Y-61333000D02*
X106768000Y-61333000D01*
X114729000Y-61293000D02*
X106759000Y-61293000D01*
X114738000Y-61253000D02*
X106750000Y-61253000D01*
X114746000Y-61213000D02*
X106742000Y-61213000D01*
X114754000Y-61173000D02*
X106734000Y-61173000D01*
X114761000Y-61133000D02*
X106727000Y-61133000D01*
X114768000Y-61092000D02*
X106720000Y-61092000D01*
X114774000Y-61052000D02*
X106714000Y-61052000D01*
X114781000Y-61012000D02*
X106707000Y-61012000D01*
X114786000Y-60972000D02*
X106702000Y-60972000D01*
X114792000Y-60932000D02*
X106696000Y-60932000D01*
X114796000Y-60892000D02*
X106692000Y-60892000D01*
X114801000Y-60852000D02*
X106687000Y-60852000D01*
X114805000Y-60812000D02*
X106683000Y-60812000D01*
X114809000Y-60772000D02*
X106679000Y-60772000D01*
X114812000Y-60732000D02*
X106676000Y-60732000D01*
X114815000Y-60692000D02*
X106673000Y-60692000D01*
X114818000Y-60652000D02*
X106670000Y-60652000D01*
X114820000Y-60612000D02*
X106668000Y-60612000D01*
X114821000Y-60572000D02*
X106667000Y-60572000D01*
X114823000Y-60532000D02*
X106665000Y-60532000D01*
X114824000Y-60492000D02*
X106664000Y-60492000D01*
X114824000Y-60452000D02*
X106664000Y-60452000D01*
X114824000Y-60412000D02*
X106664000Y-60412000D01*
X114864000Y-60412000D02*
G75*
G03X114864000Y-60412000I-4120000J0D01*
G01*
%TO.C,C10*%
X92123000Y-56402302D02*
X91323000Y-56402302D01*
X91723000Y-56002302D02*
X91723000Y-56802302D01*
X89941000Y-64493000D02*
X88875000Y-64493000D01*
X90176000Y-64453000D02*
X88640000Y-64453000D01*
X90356000Y-64413000D02*
X88460000Y-64413000D01*
X90506000Y-64373000D02*
X88310000Y-64373000D01*
X90637000Y-64333000D02*
X88179000Y-64333000D01*
X90754000Y-64293000D02*
X88062000Y-64293000D01*
X90861000Y-64253000D02*
X87955000Y-64253000D01*
X90960000Y-64213000D02*
X87856000Y-64213000D01*
X91053000Y-64173000D02*
X87763000Y-64173000D01*
X91139000Y-64133000D02*
X87677000Y-64133000D01*
X91221000Y-64093000D02*
X87595000Y-64093000D01*
X91298000Y-64053000D02*
X87518000Y-64053000D01*
X91372000Y-64013000D02*
X87444000Y-64013000D01*
X91442000Y-63973000D02*
X87374000Y-63973000D01*
X88368000Y-63933000D02*
X87306000Y-63933000D01*
X91510000Y-63933000D02*
X90448000Y-63933000D01*
X88368000Y-63893000D02*
X87242000Y-63893000D01*
X91574000Y-63893000D02*
X90448000Y-63893000D01*
X88368000Y-63853000D02*
X87180000Y-63853000D01*
X91636000Y-63853000D02*
X90448000Y-63853000D01*
X88368000Y-63813000D02*
X87121000Y-63813000D01*
X91695000Y-63813000D02*
X90448000Y-63813000D01*
X88368000Y-63773000D02*
X87063000Y-63773000D01*
X91753000Y-63773000D02*
X90448000Y-63773000D01*
X88368000Y-63733000D02*
X87008000Y-63733000D01*
X91808000Y-63733000D02*
X90448000Y-63733000D01*
X88368000Y-63693000D02*
X86954000Y-63693000D01*
X91862000Y-63693000D02*
X90448000Y-63693000D01*
X88368000Y-63653000D02*
X86903000Y-63653000D01*
X91913000Y-63653000D02*
X90448000Y-63653000D01*
X88368000Y-63613000D02*
X86852000Y-63613000D01*
X91964000Y-63613000D02*
X90448000Y-63613000D01*
X88368000Y-63573000D02*
X86804000Y-63573000D01*
X92012000Y-63573000D02*
X90448000Y-63573000D01*
X88368000Y-63533000D02*
X86757000Y-63533000D01*
X92059000Y-63533000D02*
X90448000Y-63533000D01*
X88368000Y-63493000D02*
X86711000Y-63493000D01*
X92105000Y-63493000D02*
X90448000Y-63493000D01*
X88368000Y-63453000D02*
X86667000Y-63453000D01*
X92149000Y-63453000D02*
X90448000Y-63453000D01*
X88368000Y-63413000D02*
X86624000Y-63413000D01*
X92192000Y-63413000D02*
X90448000Y-63413000D01*
X88368000Y-63373000D02*
X86582000Y-63373000D01*
X92234000Y-63373000D02*
X90448000Y-63373000D01*
X88368000Y-63333000D02*
X86541000Y-63333000D01*
X92275000Y-63333000D02*
X90448000Y-63333000D01*
X88368000Y-63293000D02*
X86501000Y-63293000D01*
X92315000Y-63293000D02*
X90448000Y-63293000D01*
X88368000Y-63253000D02*
X86463000Y-63253000D01*
X92353000Y-63253000D02*
X90448000Y-63253000D01*
X88368000Y-63213000D02*
X86425000Y-63213000D01*
X92391000Y-63213000D02*
X90448000Y-63213000D01*
X88368000Y-63173000D02*
X86389000Y-63173000D01*
X92427000Y-63173000D02*
X90448000Y-63173000D01*
X88368000Y-63133000D02*
X86353000Y-63133000D01*
X92463000Y-63133000D02*
X90448000Y-63133000D01*
X88368000Y-63093000D02*
X86318000Y-63093000D01*
X92498000Y-63093000D02*
X90448000Y-63093000D01*
X88368000Y-63053000D02*
X86284000Y-63053000D01*
X92532000Y-63053000D02*
X90448000Y-63053000D01*
X88368000Y-63013000D02*
X86252000Y-63013000D01*
X92564000Y-63013000D02*
X90448000Y-63013000D01*
X88368000Y-62973000D02*
X86219000Y-62973000D01*
X92597000Y-62973000D02*
X90448000Y-62973000D01*
X88368000Y-62933000D02*
X86188000Y-62933000D01*
X92628000Y-62933000D02*
X90448000Y-62933000D01*
X88368000Y-62893000D02*
X86158000Y-62893000D01*
X92658000Y-62893000D02*
X90448000Y-62893000D01*
X88368000Y-62853000D02*
X86128000Y-62853000D01*
X92688000Y-62853000D02*
X90448000Y-62853000D01*
X88368000Y-62813000D02*
X86099000Y-62813000D01*
X92717000Y-62813000D02*
X90448000Y-62813000D01*
X88368000Y-62773000D02*
X86070000Y-62773000D01*
X92746000Y-62773000D02*
X90448000Y-62773000D01*
X88368000Y-62733000D02*
X86043000Y-62733000D01*
X92773000Y-62733000D02*
X90448000Y-62733000D01*
X88368000Y-62693000D02*
X86016000Y-62693000D01*
X92800000Y-62693000D02*
X90448000Y-62693000D01*
X88368000Y-62653000D02*
X85990000Y-62653000D01*
X92826000Y-62653000D02*
X90448000Y-62653000D01*
X88368000Y-62613000D02*
X85964000Y-62613000D01*
X92852000Y-62613000D02*
X90448000Y-62613000D01*
X88368000Y-62573000D02*
X85939000Y-62573000D01*
X92877000Y-62573000D02*
X90448000Y-62573000D01*
X88368000Y-62533000D02*
X85915000Y-62533000D01*
X92901000Y-62533000D02*
X90448000Y-62533000D01*
X88368000Y-62493000D02*
X85891000Y-62493000D01*
X92925000Y-62493000D02*
X90448000Y-62493000D01*
X88368000Y-62453000D02*
X85868000Y-62453000D01*
X92948000Y-62453000D02*
X90448000Y-62453000D01*
X88368000Y-62413000D02*
X85846000Y-62413000D01*
X92970000Y-62413000D02*
X90448000Y-62413000D01*
X88368000Y-62373000D02*
X85824000Y-62373000D01*
X92992000Y-62373000D02*
X90448000Y-62373000D01*
X88368000Y-62333000D02*
X85802000Y-62333000D01*
X93014000Y-62333000D02*
X90448000Y-62333000D01*
X88368000Y-62293000D02*
X85781000Y-62293000D01*
X93035000Y-62293000D02*
X90448000Y-62293000D01*
X88368000Y-62253000D02*
X85761000Y-62253000D01*
X93055000Y-62253000D02*
X90448000Y-62253000D01*
X88368000Y-62213000D02*
X85742000Y-62213000D01*
X93074000Y-62213000D02*
X90448000Y-62213000D01*
X88368000Y-62173000D02*
X85722000Y-62173000D01*
X93094000Y-62173000D02*
X90448000Y-62173000D01*
X88368000Y-62133000D02*
X85704000Y-62133000D01*
X93112000Y-62133000D02*
X90448000Y-62133000D01*
X88368000Y-62093000D02*
X85686000Y-62093000D01*
X93130000Y-62093000D02*
X90448000Y-62093000D01*
X88368000Y-62053000D02*
X85668000Y-62053000D01*
X93148000Y-62053000D02*
X90448000Y-62053000D01*
X88368000Y-62013000D02*
X85651000Y-62013000D01*
X93165000Y-62013000D02*
X90448000Y-62013000D01*
X88368000Y-61973000D02*
X85634000Y-61973000D01*
X93182000Y-61973000D02*
X90448000Y-61973000D01*
X88368000Y-61933000D02*
X85618000Y-61933000D01*
X93198000Y-61933000D02*
X90448000Y-61933000D01*
X88368000Y-61893000D02*
X85603000Y-61893000D01*
X93213000Y-61893000D02*
X90448000Y-61893000D01*
X93229000Y-61853000D02*
X85587000Y-61853000D01*
X93243000Y-61813000D02*
X85573000Y-61813000D01*
X93258000Y-61773000D02*
X85558000Y-61773000D01*
X93271000Y-61733000D02*
X85545000Y-61733000D01*
X93285000Y-61693000D02*
X85531000Y-61693000D01*
X93297000Y-61653000D02*
X85519000Y-61653000D01*
X93310000Y-61613000D02*
X85506000Y-61613000D01*
X93322000Y-61573000D02*
X85494000Y-61573000D01*
X93333000Y-61533000D02*
X85483000Y-61533000D01*
X93344000Y-61493000D02*
X85472000Y-61493000D01*
X93355000Y-61453000D02*
X85461000Y-61453000D01*
X93365000Y-61413000D02*
X85451000Y-61413000D01*
X93375000Y-61373000D02*
X85441000Y-61373000D01*
X93384000Y-61333000D02*
X85432000Y-61333000D01*
X93393000Y-61293000D02*
X85423000Y-61293000D01*
X93402000Y-61253000D02*
X85414000Y-61253000D01*
X93410000Y-61213000D02*
X85406000Y-61213000D01*
X93418000Y-61173000D02*
X85398000Y-61173000D01*
X93425000Y-61133000D02*
X85391000Y-61133000D01*
X93432000Y-61092000D02*
X85384000Y-61092000D01*
X93438000Y-61052000D02*
X85378000Y-61052000D01*
X93445000Y-61012000D02*
X85371000Y-61012000D01*
X93450000Y-60972000D02*
X85366000Y-60972000D01*
X93456000Y-60932000D02*
X85360000Y-60932000D01*
X93460000Y-60892000D02*
X85356000Y-60892000D01*
X93465000Y-60852000D02*
X85351000Y-60852000D01*
X93469000Y-60812000D02*
X85347000Y-60812000D01*
X93473000Y-60772000D02*
X85343000Y-60772000D01*
X93476000Y-60732000D02*
X85340000Y-60732000D01*
X93479000Y-60692000D02*
X85337000Y-60692000D01*
X93482000Y-60652000D02*
X85334000Y-60652000D01*
X93484000Y-60612000D02*
X85332000Y-60612000D01*
X93485000Y-60572000D02*
X85331000Y-60572000D01*
X93487000Y-60532000D02*
X85329000Y-60532000D01*
X93488000Y-60492000D02*
X85328000Y-60492000D01*
X93488000Y-60452000D02*
X85328000Y-60452000D01*
X93488000Y-60412000D02*
X85328000Y-60412000D01*
X93528000Y-60412000D02*
G75*
G03X93528000Y-60412000I-4120000J0D01*
G01*
%TO.C,Q8*%
X135239000Y-53086000D02*
X132699000Y-53086000D01*
X135239000Y-50546000D02*
X132699000Y-50546000D01*
X135239000Y-48006000D02*
X132699000Y-48006000D01*
X151129000Y-55666000D02*
X135239000Y-55666000D01*
X151129000Y-45426000D02*
X135239000Y-45426000D01*
X151129000Y-45426000D02*
X151129000Y-55666000D01*
X135239000Y-45426000D02*
X135239000Y-55666000D01*
%TO.C,Q7*%
X114316000Y-48006000D02*
X116856000Y-48006000D01*
X114316000Y-50546000D02*
X116856000Y-50546000D01*
X114316000Y-53086000D02*
X116856000Y-53086000D01*
X98426000Y-45426000D02*
X114316000Y-45426000D01*
X98426000Y-55666000D02*
X114316000Y-55666000D01*
X98426000Y-55666000D02*
X98426000Y-45426000D01*
X114316000Y-55666000D02*
X114316000Y-45426000D01*
%TO.C,Q6*%
X81769600Y-53035200D02*
X79229600Y-53035200D01*
X81769600Y-50495200D02*
X79229600Y-50495200D01*
X81769600Y-47955200D02*
X79229600Y-47955200D01*
X97659600Y-55615200D02*
X81769600Y-55615200D01*
X97659600Y-45375200D02*
X81769600Y-45375200D01*
X97659600Y-45375200D02*
X97659600Y-55615200D01*
X81769600Y-45375200D02*
X81769600Y-55615200D01*
%TO.C,Q3*%
X114316000Y-37439600D02*
X116856000Y-37439600D01*
X114316000Y-39979600D02*
X116856000Y-39979600D01*
X114316000Y-42519600D02*
X116856000Y-42519600D01*
X98426000Y-34859600D02*
X114316000Y-34859600D01*
X98426000Y-45099600D02*
X114316000Y-45099600D01*
X98426000Y-45099600D02*
X98426000Y-34859600D01*
X114316000Y-45099600D02*
X114316000Y-34859600D01*
%TO.C,Q2*%
X81820400Y-42519600D02*
X79280400Y-42519600D01*
X81820400Y-39979600D02*
X79280400Y-39979600D01*
X81820400Y-37439600D02*
X79280400Y-37439600D01*
X97710400Y-45099600D02*
X81820400Y-45099600D01*
X97710400Y-34859600D02*
X81820400Y-34859600D01*
X97710400Y-34859600D02*
X97710400Y-45099600D01*
X81820400Y-34859600D02*
X81820400Y-45099600D01*
%TO.C,Q1*%
X60518800Y-37211000D02*
X63058800Y-37211000D01*
X60518800Y-39751000D02*
X63058800Y-39751000D01*
X60518800Y-42291000D02*
X63058800Y-42291000D01*
X44628800Y-34631000D02*
X60518800Y-34631000D01*
X44628800Y-44871000D02*
X60518800Y-44871000D01*
X44628800Y-44871000D02*
X44628800Y-34631000D01*
X60518800Y-44871000D02*
X60518800Y-34631000D01*
%TO.C,J5*%
X105410000Y-57150000D02*
X95250000Y-57150000D01*
X105410000Y-64770000D02*
X105410000Y-57150000D01*
X95250000Y-64770000D02*
X105410000Y-64770000D01*
X95250000Y-57150000D02*
X95250000Y-64770000D01*
X95250000Y-58420000D02*
X105410000Y-58420000D01*
%TO.C,J4*%
X132902000Y-59122000D02*
X132902000Y-60452000D01*
X131572000Y-59122000D02*
X132902000Y-59122000D01*
X130302000Y-59122000D02*
X130302000Y-61782000D01*
X130302000Y-61782000D02*
X125162000Y-61782000D01*
X130302000Y-59122000D02*
X125162000Y-59122000D01*
X125162000Y-59122000D02*
X125162000Y-61782000D01*
%TO.C,J3*%
X119634000Y-34290000D02*
X129794000Y-34290000D01*
X119634000Y-26670000D02*
X119634000Y-34290000D01*
X129794000Y-26670000D02*
X119634000Y-26670000D01*
X129794000Y-34290000D02*
X129794000Y-26670000D01*
X129794000Y-33020000D02*
X119634000Y-33020000D01*
%TO.C,J2*%
X65218000Y-63306000D02*
X65218000Y-61976000D01*
X66548000Y-63306000D02*
X65218000Y-63306000D01*
X67818000Y-63306000D02*
X67818000Y-60646000D01*
X67818000Y-60646000D02*
X72958000Y-60646000D01*
X67818000Y-63306000D02*
X72958000Y-63306000D01*
X72958000Y-63306000D02*
X72958000Y-60646000D01*
%TO.C,J1*%
X66040000Y-34290000D02*
X76200000Y-34290000D01*
X66040000Y-26670000D02*
X66040000Y-34290000D01*
X76200000Y-26670000D02*
X66040000Y-26670000D01*
X76200000Y-34290000D02*
X76200000Y-26670000D01*
X76200000Y-33020000D02*
X66040000Y-33020000D01*
D11*
%TO.C,IC3*%
X122261000Y-46757000D02*
X122261000Y-45257000D01*
X127291000Y-44907000D02*
X122391000Y-44907000D01*
X127291000Y-41707000D02*
X127291000Y-44907000D01*
X122391000Y-41707000D02*
X127291000Y-41707000D01*
X122391000Y-44907000D02*
X122391000Y-41707000D01*
%TO.C,IC2*%
X73700000Y-48849000D02*
X73700000Y-50376000D01*
X68668000Y-50726000D02*
X73572000Y-50726000D01*
X68668000Y-53922000D02*
X68668000Y-50726000D01*
X73572000Y-53922000D02*
X68668000Y-53922000D01*
X73572000Y-50726000D02*
X73572000Y-53922000D01*
%TO.C,IC1*%
X68540000Y-46630000D02*
X68540000Y-45130000D01*
X73570000Y-44780000D02*
X68670000Y-44780000D01*
X73570000Y-41580000D02*
X73570000Y-44780000D01*
X68670000Y-41580000D02*
X73570000Y-41580000D01*
X68670000Y-44780000D02*
X68670000Y-41580000D01*
D10*
%TO.C,C9*%
X128014000Y-55567733D02*
X128014000Y-55910267D01*
X129034000Y-55567733D02*
X129034000Y-55910267D01*
%TO.C,C8*%
X126433733Y-39118000D02*
X126776267Y-39118000D01*
X126433733Y-38098000D02*
X126776267Y-38098000D01*
%TO.C,C7*%
X123361267Y-38098000D02*
X123018733Y-38098000D01*
X123361267Y-39118000D02*
X123018733Y-39118000D01*
%TO.C,C6*%
X72642000Y-57740733D02*
X72642000Y-58083267D01*
X73662000Y-57740733D02*
X73662000Y-58083267D01*
%TO.C,C4*%
X72585733Y-39118000D02*
X72928267Y-39118000D01*
X72585733Y-38098000D02*
X72928267Y-38098000D01*
%TO.C,C3*%
X69513267Y-38098000D02*
X69170733Y-38098000D01*
X69513267Y-39118000D02*
X69170733Y-39118000D01*
%TO.C,C2*%
X124924078Y-34723000D02*
X124406922Y-34723000D01*
X124924078Y-36143000D02*
X124406922Y-36143000D01*
%TO.C,C1*%
X71711078Y-34850000D02*
X71193922Y-34850000D01*
X71711078Y-36270000D02*
X71193922Y-36270000D01*
%TO.C,Q5*%
D12*
X55149761Y-50712619D02*
X55054523Y-50665000D01*
X54959285Y-50569761D01*
X54816428Y-50426904D01*
X54721190Y-50379285D01*
X54625952Y-50379285D01*
X54673571Y-50617380D02*
X54578333Y-50569761D01*
X54483095Y-50474523D01*
X54435476Y-50284047D01*
X54435476Y-49950714D01*
X54483095Y-49760238D01*
X54578333Y-49665000D01*
X54673571Y-49617380D01*
X54864047Y-49617380D01*
X54959285Y-49665000D01*
X55054523Y-49760238D01*
X55102142Y-49950714D01*
X55102142Y-50284047D01*
X55054523Y-50474523D01*
X54959285Y-50569761D01*
X54864047Y-50617380D01*
X54673571Y-50617380D01*
X56006904Y-49617380D02*
X55530714Y-49617380D01*
X55483095Y-50093571D01*
X55530714Y-50045952D01*
X55625952Y-49998333D01*
X55864047Y-49998333D01*
X55959285Y-50045952D01*
X56006904Y-50093571D01*
X56054523Y-50188809D01*
X56054523Y-50426904D01*
X56006904Y-50522142D01*
X55959285Y-50569761D01*
X55864047Y-50617380D01*
X55625952Y-50617380D01*
X55530714Y-50569761D01*
X55483095Y-50522142D01*
%TO.C,Q4*%
X140112761Y-40933619D02*
X140017523Y-40886000D01*
X139922285Y-40790761D01*
X139779428Y-40647904D01*
X139684190Y-40600285D01*
X139588952Y-40600285D01*
X139636571Y-40838380D02*
X139541333Y-40790761D01*
X139446095Y-40695523D01*
X139398476Y-40505047D01*
X139398476Y-40171714D01*
X139446095Y-39981238D01*
X139541333Y-39886000D01*
X139636571Y-39838380D01*
X139827047Y-39838380D01*
X139922285Y-39886000D01*
X140017523Y-39981238D01*
X140065142Y-40171714D01*
X140065142Y-40505047D01*
X140017523Y-40695523D01*
X139922285Y-40790761D01*
X139827047Y-40838380D01*
X139636571Y-40838380D01*
X140922285Y-40171714D02*
X140922285Y-40838380D01*
X140684190Y-39790761D02*
X140446095Y-40505047D01*
X141065142Y-40505047D01*
%TO.C,H4*%
X47752095Y-57466380D02*
X47752095Y-56466380D01*
X47752095Y-56942571D02*
X48323523Y-56942571D01*
X48323523Y-57466380D02*
X48323523Y-56466380D01*
X49228285Y-56799714D02*
X49228285Y-57466380D01*
X48990190Y-56418761D02*
X48752095Y-57133047D01*
X49371142Y-57133047D01*
%TO.C,H3*%
X47752095Y-26478380D02*
X47752095Y-25478380D01*
X47752095Y-25954571D02*
X48323523Y-25954571D01*
X48323523Y-26478380D02*
X48323523Y-25478380D01*
X48704476Y-25478380D02*
X49323523Y-25478380D01*
X48990190Y-25859333D01*
X49133047Y-25859333D01*
X49228285Y-25906952D01*
X49275904Y-25954571D01*
X49323523Y-26049809D01*
X49323523Y-26287904D01*
X49275904Y-26383142D01*
X49228285Y-26430761D01*
X49133047Y-26478380D01*
X48847333Y-26478380D01*
X48752095Y-26430761D01*
X48704476Y-26383142D01*
%TO.C,H2*%
X146812095Y-57466380D02*
X146812095Y-56466380D01*
X146812095Y-56942571D02*
X147383523Y-56942571D01*
X147383523Y-57466380D02*
X147383523Y-56466380D01*
X147812095Y-56561619D02*
X147859714Y-56514000D01*
X147954952Y-56466380D01*
X148193047Y-56466380D01*
X148288285Y-56514000D01*
X148335904Y-56561619D01*
X148383523Y-56656857D01*
X148383523Y-56752095D01*
X148335904Y-56894952D01*
X147764476Y-57466380D01*
X148383523Y-57466380D01*
%TO.C,H1*%
X146812095Y-26478380D02*
X146812095Y-25478380D01*
X146812095Y-25954571D02*
X147383523Y-25954571D01*
X147383523Y-26478380D02*
X147383523Y-25478380D01*
X148383523Y-26478380D02*
X147812095Y-26478380D01*
X148097809Y-26478380D02*
X148097809Y-25478380D01*
X148002571Y-25621238D01*
X147907333Y-25716476D01*
X147812095Y-25764095D01*
%TO.C,IC4*%
D13*
X125542523Y-53563761D02*
X124272523Y-53563761D01*
X125421571Y-52233285D02*
X125482047Y-52293761D01*
X125542523Y-52475190D01*
X125542523Y-52596142D01*
X125482047Y-52777571D01*
X125361095Y-52898523D01*
X125240142Y-52959000D01*
X124998238Y-53019476D01*
X124816809Y-53019476D01*
X124574904Y-52959000D01*
X124453952Y-52898523D01*
X124333000Y-52777571D01*
X124272523Y-52596142D01*
X124272523Y-52475190D01*
X124333000Y-52293761D01*
X124393476Y-52233285D01*
X124695857Y-51144714D02*
X125542523Y-51144714D01*
X124212047Y-51447095D02*
X125119190Y-51749476D01*
X125119190Y-50963285D01*
%TO.C,J6*%
D12*
X81708666Y-57574380D02*
X81708666Y-58288666D01*
X81661047Y-58431523D01*
X81565809Y-58526761D01*
X81422952Y-58574380D01*
X81327714Y-58574380D01*
X82613428Y-57574380D02*
X82422952Y-57574380D01*
X82327714Y-57622000D01*
X82280095Y-57669619D01*
X82184857Y-57812476D01*
X82137238Y-58002952D01*
X82137238Y-58383904D01*
X82184857Y-58479142D01*
X82232476Y-58526761D01*
X82327714Y-58574380D01*
X82518190Y-58574380D01*
X82613428Y-58526761D01*
X82661047Y-58479142D01*
X82708666Y-58383904D01*
X82708666Y-58145809D01*
X82661047Y-58050571D01*
X82613428Y-58002952D01*
X82518190Y-57955333D01*
X82327714Y-57955333D01*
X82232476Y-58002952D01*
X82184857Y-58050571D01*
X82137238Y-58145809D01*
%TO.C,R4*%
X121897380Y-43586666D02*
X121421190Y-43920000D01*
X121897380Y-44158095D02*
X120897380Y-44158095D01*
X120897380Y-43777142D01*
X120945000Y-43681904D01*
X120992619Y-43634285D01*
X121087857Y-43586666D01*
X121230714Y-43586666D01*
X121325952Y-43634285D01*
X121373571Y-43681904D01*
X121421190Y-43777142D01*
X121421190Y-44158095D01*
X121230714Y-42729523D02*
X121897380Y-42729523D01*
X120849761Y-42967619D02*
X121564047Y-43205714D01*
X121564047Y-42586666D01*
%TO.C,R3*%
X78813333Y-32677380D02*
X78480000Y-32201190D01*
X78241904Y-32677380D02*
X78241904Y-31677380D01*
X78622857Y-31677380D01*
X78718095Y-31725000D01*
X78765714Y-31772619D01*
X78813333Y-31867857D01*
X78813333Y-32010714D01*
X78765714Y-32105952D01*
X78718095Y-32153571D01*
X78622857Y-32201190D01*
X78241904Y-32201190D01*
X79146666Y-31677380D02*
X79765714Y-31677380D01*
X79432380Y-32058333D01*
X79575238Y-32058333D01*
X79670476Y-32105952D01*
X79718095Y-32153571D01*
X79765714Y-32248809D01*
X79765714Y-32486904D01*
X79718095Y-32582142D01*
X79670476Y-32629761D01*
X79575238Y-32677380D01*
X79289523Y-32677380D01*
X79194285Y-32629761D01*
X79146666Y-32582142D01*
%TO.C,R2*%
X68430380Y-43332666D02*
X67954190Y-43666000D01*
X68430380Y-43904095D02*
X67430380Y-43904095D01*
X67430380Y-43523142D01*
X67478000Y-43427904D01*
X67525619Y-43380285D01*
X67620857Y-43332666D01*
X67763714Y-43332666D01*
X67858952Y-43380285D01*
X67906571Y-43427904D01*
X67954190Y-43523142D01*
X67954190Y-43904095D01*
X67525619Y-42951714D02*
X67478000Y-42904095D01*
X67430380Y-42808857D01*
X67430380Y-42570761D01*
X67478000Y-42475523D01*
X67525619Y-42427904D01*
X67620857Y-42380285D01*
X67716095Y-42380285D01*
X67858952Y-42427904D01*
X68430380Y-42999333D01*
X68430380Y-42380285D01*
%TO.C,R1*%
X132308333Y-32677380D02*
X131975000Y-32201190D01*
X131736904Y-32677380D02*
X131736904Y-31677380D01*
X132117857Y-31677380D01*
X132213095Y-31725000D01*
X132260714Y-31772619D01*
X132308333Y-31867857D01*
X132308333Y-32010714D01*
X132260714Y-32105952D01*
X132213095Y-32153571D01*
X132117857Y-32201190D01*
X131736904Y-32201190D01*
X133260714Y-32677380D02*
X132689285Y-32677380D01*
X132975000Y-32677380D02*
X132975000Y-31677380D01*
X132879761Y-31820238D01*
X132784523Y-31915476D01*
X132689285Y-31963095D01*
%TO.C,C5*%
X116351142Y-60578666D02*
X116398761Y-60626285D01*
X116446380Y-60769142D01*
X116446380Y-60864380D01*
X116398761Y-61007238D01*
X116303523Y-61102476D01*
X116208285Y-61150095D01*
X116017809Y-61197714D01*
X115874952Y-61197714D01*
X115684476Y-61150095D01*
X115589238Y-61102476D01*
X115494000Y-61007238D01*
X115446380Y-60864380D01*
X115446380Y-60769142D01*
X115494000Y-60626285D01*
X115541619Y-60578666D01*
X115446380Y-59673904D02*
X115446380Y-60150095D01*
X115922571Y-60197714D01*
X115874952Y-60150095D01*
X115827333Y-60054857D01*
X115827333Y-59816761D01*
X115874952Y-59721523D01*
X115922571Y-59673904D01*
X116017809Y-59626285D01*
X116255904Y-59626285D01*
X116351142Y-59673904D01*
X116398761Y-59721523D01*
X116446380Y-59816761D01*
X116446380Y-60054857D01*
X116398761Y-60150095D01*
X116351142Y-60197714D01*
%TO.C,C10*%
X95015142Y-61054857D02*
X95062761Y-61102476D01*
X95110380Y-61245333D01*
X95110380Y-61340571D01*
X95062761Y-61483428D01*
X94967523Y-61578666D01*
X94872285Y-61626285D01*
X94681809Y-61673904D01*
X94538952Y-61673904D01*
X94348476Y-61626285D01*
X94253238Y-61578666D01*
X94158000Y-61483428D01*
X94110380Y-61340571D01*
X94110380Y-61245333D01*
X94158000Y-61102476D01*
X94205619Y-61054857D01*
X95110380Y-60102476D02*
X95110380Y-60673904D01*
X95110380Y-60388190D02*
X94110380Y-60388190D01*
X94253238Y-60483428D01*
X94348476Y-60578666D01*
X94396095Y-60673904D01*
X94110380Y-59483428D02*
X94110380Y-59388190D01*
X94158000Y-59292952D01*
X94205619Y-59245333D01*
X94300857Y-59197714D01*
X94491333Y-59150095D01*
X94729428Y-59150095D01*
X94919904Y-59197714D01*
X95015142Y-59245333D01*
X95062761Y-59292952D01*
X95110380Y-59388190D01*
X95110380Y-59483428D01*
X95062761Y-59578666D01*
X95015142Y-59626285D01*
X94919904Y-59673904D01*
X94729428Y-59721523D01*
X94491333Y-59721523D01*
X94300857Y-59673904D01*
X94205619Y-59626285D01*
X94158000Y-59578666D01*
X94110380Y-59483428D01*
%TO.C,Q8*%
X140239761Y-51093619D02*
X140144523Y-51046000D01*
X140049285Y-50950761D01*
X139906428Y-50807904D01*
X139811190Y-50760285D01*
X139715952Y-50760285D01*
X139763571Y-50998380D02*
X139668333Y-50950761D01*
X139573095Y-50855523D01*
X139525476Y-50665047D01*
X139525476Y-50331714D01*
X139573095Y-50141238D01*
X139668333Y-50046000D01*
X139763571Y-49998380D01*
X139954047Y-49998380D01*
X140049285Y-50046000D01*
X140144523Y-50141238D01*
X140192142Y-50331714D01*
X140192142Y-50665047D01*
X140144523Y-50855523D01*
X140049285Y-50950761D01*
X139954047Y-50998380D01*
X139763571Y-50998380D01*
X140763571Y-50426952D02*
X140668333Y-50379333D01*
X140620714Y-50331714D01*
X140573095Y-50236476D01*
X140573095Y-50188857D01*
X140620714Y-50093619D01*
X140668333Y-50046000D01*
X140763571Y-49998380D01*
X140954047Y-49998380D01*
X141049285Y-50046000D01*
X141096904Y-50093619D01*
X141144523Y-50188857D01*
X141144523Y-50236476D01*
X141096904Y-50331714D01*
X141049285Y-50379333D01*
X140954047Y-50426952D01*
X140763571Y-50426952D01*
X140668333Y-50474571D01*
X140620714Y-50522190D01*
X140573095Y-50617428D01*
X140573095Y-50807904D01*
X140620714Y-50903142D01*
X140668333Y-50950761D01*
X140763571Y-50998380D01*
X140954047Y-50998380D01*
X141049285Y-50950761D01*
X141096904Y-50903142D01*
X141144523Y-50807904D01*
X141144523Y-50617428D01*
X141096904Y-50522190D01*
X141049285Y-50474571D01*
X140954047Y-50426952D01*
%TO.C,Q7*%
X86264761Y-51347619D02*
X86169523Y-51300000D01*
X86074285Y-51204761D01*
X85931428Y-51061904D01*
X85836190Y-51014285D01*
X85740952Y-51014285D01*
X85788571Y-51252380D02*
X85693333Y-51204761D01*
X85598095Y-51109523D01*
X85550476Y-50919047D01*
X85550476Y-50585714D01*
X85598095Y-50395238D01*
X85693333Y-50300000D01*
X85788571Y-50252380D01*
X85979047Y-50252380D01*
X86074285Y-50300000D01*
X86169523Y-50395238D01*
X86217142Y-50585714D01*
X86217142Y-50919047D01*
X86169523Y-51109523D01*
X86074285Y-51204761D01*
X85979047Y-51252380D01*
X85788571Y-51252380D01*
X86550476Y-50252380D02*
X87217142Y-50252380D01*
X86788571Y-51252380D01*
%TO.C,Q6*%
X109124761Y-50712619D02*
X109029523Y-50665000D01*
X108934285Y-50569761D01*
X108791428Y-50426904D01*
X108696190Y-50379285D01*
X108600952Y-50379285D01*
X108648571Y-50617380D02*
X108553333Y-50569761D01*
X108458095Y-50474523D01*
X108410476Y-50284047D01*
X108410476Y-49950714D01*
X108458095Y-49760238D01*
X108553333Y-49665000D01*
X108648571Y-49617380D01*
X108839047Y-49617380D01*
X108934285Y-49665000D01*
X109029523Y-49760238D01*
X109077142Y-49950714D01*
X109077142Y-50284047D01*
X109029523Y-50474523D01*
X108934285Y-50569761D01*
X108839047Y-50617380D01*
X108648571Y-50617380D01*
X109934285Y-49617380D02*
X109743809Y-49617380D01*
X109648571Y-49665000D01*
X109600952Y-49712619D01*
X109505714Y-49855476D01*
X109458095Y-50045952D01*
X109458095Y-50426904D01*
X109505714Y-50522142D01*
X109553333Y-50569761D01*
X109648571Y-50617380D01*
X109839047Y-50617380D01*
X109934285Y-50569761D01*
X109981904Y-50522142D01*
X110029523Y-50426904D01*
X110029523Y-50188809D01*
X109981904Y-50093571D01*
X109934285Y-50045952D01*
X109839047Y-49998333D01*
X109648571Y-49998333D01*
X109553333Y-50045952D01*
X109505714Y-50093571D01*
X109458095Y-50188809D01*
%TO.C,Q3*%
X86264761Y-40552619D02*
X86169523Y-40505000D01*
X86074285Y-40409761D01*
X85931428Y-40266904D01*
X85836190Y-40219285D01*
X85740952Y-40219285D01*
X85788571Y-40457380D02*
X85693333Y-40409761D01*
X85598095Y-40314523D01*
X85550476Y-40124047D01*
X85550476Y-39790714D01*
X85598095Y-39600238D01*
X85693333Y-39505000D01*
X85788571Y-39457380D01*
X85979047Y-39457380D01*
X86074285Y-39505000D01*
X86169523Y-39600238D01*
X86217142Y-39790714D01*
X86217142Y-40124047D01*
X86169523Y-40314523D01*
X86074285Y-40409761D01*
X85979047Y-40457380D01*
X85788571Y-40457380D01*
X86550476Y-39457380D02*
X87169523Y-39457380D01*
X86836190Y-39838333D01*
X86979047Y-39838333D01*
X87074285Y-39885952D01*
X87121904Y-39933571D01*
X87169523Y-40028809D01*
X87169523Y-40266904D01*
X87121904Y-40362142D01*
X87074285Y-40409761D01*
X86979047Y-40457380D01*
X86693333Y-40457380D01*
X86598095Y-40409761D01*
X86550476Y-40362142D01*
%TO.C,Q2*%
X109124761Y-40552619D02*
X109029523Y-40505000D01*
X108934285Y-40409761D01*
X108791428Y-40266904D01*
X108696190Y-40219285D01*
X108600952Y-40219285D01*
X108648571Y-40457380D02*
X108553333Y-40409761D01*
X108458095Y-40314523D01*
X108410476Y-40124047D01*
X108410476Y-39790714D01*
X108458095Y-39600238D01*
X108553333Y-39505000D01*
X108648571Y-39457380D01*
X108839047Y-39457380D01*
X108934285Y-39505000D01*
X109029523Y-39600238D01*
X109077142Y-39790714D01*
X109077142Y-40124047D01*
X109029523Y-40314523D01*
X108934285Y-40409761D01*
X108839047Y-40457380D01*
X108648571Y-40457380D01*
X109458095Y-39552619D02*
X109505714Y-39505000D01*
X109600952Y-39457380D01*
X109839047Y-39457380D01*
X109934285Y-39505000D01*
X109981904Y-39552619D01*
X110029523Y-39647857D01*
X110029523Y-39743095D01*
X109981904Y-39885952D01*
X109410476Y-40457380D01*
X110029523Y-40457380D01*
%TO.C,Q1*%
X54514761Y-40298619D02*
X54419523Y-40251000D01*
X54324285Y-40155761D01*
X54181428Y-40012904D01*
X54086190Y-39965285D01*
X53990952Y-39965285D01*
X54038571Y-40203380D02*
X53943333Y-40155761D01*
X53848095Y-40060523D01*
X53800476Y-39870047D01*
X53800476Y-39536714D01*
X53848095Y-39346238D01*
X53943333Y-39251000D01*
X54038571Y-39203380D01*
X54229047Y-39203380D01*
X54324285Y-39251000D01*
X54419523Y-39346238D01*
X54467142Y-39536714D01*
X54467142Y-39870047D01*
X54419523Y-40060523D01*
X54324285Y-40155761D01*
X54229047Y-40203380D01*
X54038571Y-40203380D01*
X55419523Y-40203380D02*
X54848095Y-40203380D01*
X55133809Y-40203380D02*
X55133809Y-39203380D01*
X55038571Y-39346238D01*
X54943333Y-39441476D01*
X54848095Y-39489095D01*
%TO.C,J5*%
X99996666Y-62317380D02*
X99996666Y-63031666D01*
X99949047Y-63174523D01*
X99853809Y-63269761D01*
X99710952Y-63317380D01*
X99615714Y-63317380D01*
X100949047Y-62317380D02*
X100472857Y-62317380D01*
X100425238Y-62793571D01*
X100472857Y-62745952D01*
X100568095Y-62698333D01*
X100806190Y-62698333D01*
X100901428Y-62745952D01*
X100949047Y-62793571D01*
X100996666Y-62888809D01*
X100996666Y-63126904D01*
X100949047Y-63222142D01*
X100901428Y-63269761D01*
X100806190Y-63317380D01*
X100568095Y-63317380D01*
X100472857Y-63269761D01*
X100425238Y-63222142D01*
%TO.C,J4*%
X133354380Y-60785333D02*
X134068666Y-60785333D01*
X134211523Y-60832952D01*
X134306761Y-60928190D01*
X134354380Y-61071047D01*
X134354380Y-61166285D01*
X133687714Y-59880571D02*
X134354380Y-59880571D01*
X133306761Y-60118666D02*
X134021047Y-60356761D01*
X134021047Y-59737714D01*
%TO.C,J3*%
X130730666Y-29424380D02*
X130730666Y-30138666D01*
X130683047Y-30281523D01*
X130587809Y-30376761D01*
X130444952Y-30424380D01*
X130349714Y-30424380D01*
X131111619Y-29424380D02*
X131730666Y-29424380D01*
X131397333Y-29805333D01*
X131540190Y-29805333D01*
X131635428Y-29852952D01*
X131683047Y-29900571D01*
X131730666Y-29995809D01*
X131730666Y-30233904D01*
X131683047Y-30329142D01*
X131635428Y-30376761D01*
X131540190Y-30424380D01*
X131254476Y-30424380D01*
X131159238Y-30376761D01*
X131111619Y-30329142D01*
%TO.C,J2*%
X63670380Y-62309333D02*
X64384666Y-62309333D01*
X64527523Y-62356952D01*
X64622761Y-62452190D01*
X64670380Y-62595047D01*
X64670380Y-62690285D01*
X63765619Y-61880761D02*
X63718000Y-61833142D01*
X63670380Y-61737904D01*
X63670380Y-61499809D01*
X63718000Y-61404571D01*
X63765619Y-61356952D01*
X63860857Y-61309333D01*
X63956095Y-61309333D01*
X64098952Y-61356952D01*
X64670380Y-61928380D01*
X64670380Y-61309333D01*
%TO.C,J1*%
X77390666Y-29932380D02*
X77390666Y-30646666D01*
X77343047Y-30789523D01*
X77247809Y-30884761D01*
X77104952Y-30932380D01*
X77009714Y-30932380D01*
X78390666Y-30932380D02*
X77819238Y-30932380D01*
X78104952Y-30932380D02*
X78104952Y-29932380D01*
X78009714Y-30075238D01*
X77914476Y-30170476D01*
X77819238Y-30218095D01*
%TO.C,IC3*%
D13*
X125415523Y-44546761D02*
X124145523Y-44546761D01*
X125294571Y-43216285D02*
X125355047Y-43276761D01*
X125415523Y-43458190D01*
X125415523Y-43579142D01*
X125355047Y-43760571D01*
X125234095Y-43881523D01*
X125113142Y-43942000D01*
X124871238Y-44002476D01*
X124689809Y-44002476D01*
X124447904Y-43942000D01*
X124326952Y-43881523D01*
X124206000Y-43760571D01*
X124145523Y-43579142D01*
X124145523Y-43458190D01*
X124206000Y-43276761D01*
X124266476Y-43216285D01*
X124145523Y-42792952D02*
X124145523Y-42006761D01*
X124629333Y-42430095D01*
X124629333Y-42248666D01*
X124689809Y-42127714D01*
X124750285Y-42067238D01*
X124871238Y-42006761D01*
X125173619Y-42006761D01*
X125294571Y-42067238D01*
X125355047Y-42127714D01*
X125415523Y-42248666D01*
X125415523Y-42611523D01*
X125355047Y-42732476D01*
X125294571Y-42792952D01*
%TO.C,IC2*%
X71694523Y-53563761D02*
X70424523Y-53563761D01*
X71573571Y-52233285D02*
X71634047Y-52293761D01*
X71694523Y-52475190D01*
X71694523Y-52596142D01*
X71634047Y-52777571D01*
X71513095Y-52898523D01*
X71392142Y-52959000D01*
X71150238Y-53019476D01*
X70968809Y-53019476D01*
X70726904Y-52959000D01*
X70605952Y-52898523D01*
X70485000Y-52777571D01*
X70424523Y-52596142D01*
X70424523Y-52475190D01*
X70485000Y-52293761D01*
X70545476Y-52233285D01*
X70545476Y-51749476D02*
X70485000Y-51689000D01*
X70424523Y-51568047D01*
X70424523Y-51265666D01*
X70485000Y-51144714D01*
X70545476Y-51084238D01*
X70666428Y-51023761D01*
X70787380Y-51023761D01*
X70968809Y-51084238D01*
X71694523Y-51809952D01*
X71694523Y-51023761D01*
%TO.C,IC1*%
X71694523Y-44419761D02*
X70424523Y-44419761D01*
X71573571Y-43089285D02*
X71634047Y-43149761D01*
X71694523Y-43331190D01*
X71694523Y-43452142D01*
X71634047Y-43633571D01*
X71513095Y-43754523D01*
X71392142Y-43815000D01*
X71150238Y-43875476D01*
X70968809Y-43875476D01*
X70726904Y-43815000D01*
X70605952Y-43754523D01*
X70485000Y-43633571D01*
X70424523Y-43452142D01*
X70424523Y-43331190D01*
X70485000Y-43149761D01*
X70545476Y-43089285D01*
X71694523Y-41879761D02*
X71694523Y-42605476D01*
X71694523Y-42242619D02*
X70424523Y-42242619D01*
X70605952Y-42363571D01*
X70726904Y-42484523D01*
X70787380Y-42605476D01*
%TO.C,F2*%
D12*
X119026666Y-57586571D02*
X118693333Y-57586571D01*
X118693333Y-58110380D02*
X118693333Y-57110380D01*
X119169523Y-57110380D01*
X119502857Y-57205619D02*
X119550476Y-57158000D01*
X119645714Y-57110380D01*
X119883809Y-57110380D01*
X119979047Y-57158000D01*
X120026666Y-57205619D01*
X120074285Y-57300857D01*
X120074285Y-57396095D01*
X120026666Y-57538952D01*
X119455238Y-58110380D01*
X120074285Y-58110380D01*
%TO.C,F1*%
X77390666Y-58856571D02*
X77057333Y-58856571D01*
X77057333Y-59380380D02*
X77057333Y-58380380D01*
X77533523Y-58380380D01*
X78438285Y-59380380D02*
X77866857Y-59380380D01*
X78152571Y-59380380D02*
X78152571Y-58380380D01*
X78057333Y-58523238D01*
X77962095Y-58618476D01*
X77866857Y-58666095D01*
%TO.C,C9*%
X130311142Y-55905666D02*
X130358761Y-55953285D01*
X130406380Y-56096142D01*
X130406380Y-56191380D01*
X130358761Y-56334238D01*
X130263523Y-56429476D01*
X130168285Y-56477095D01*
X129977809Y-56524714D01*
X129834952Y-56524714D01*
X129644476Y-56477095D01*
X129549238Y-56429476D01*
X129454000Y-56334238D01*
X129406380Y-56191380D01*
X129406380Y-56096142D01*
X129454000Y-55953285D01*
X129501619Y-55905666D01*
X130406380Y-55429476D02*
X130406380Y-55239000D01*
X130358761Y-55143761D01*
X130311142Y-55096142D01*
X130168285Y-55000904D01*
X129977809Y-54953285D01*
X129596857Y-54953285D01*
X129501619Y-55000904D01*
X129454000Y-55048523D01*
X129406380Y-55143761D01*
X129406380Y-55334238D01*
X129454000Y-55429476D01*
X129501619Y-55477095D01*
X129596857Y-55524714D01*
X129834952Y-55524714D01*
X129930190Y-55477095D01*
X129977809Y-55429476D01*
X130025428Y-55334238D01*
X130025428Y-55143761D01*
X129977809Y-55048523D01*
X129930190Y-55000904D01*
X129834952Y-54953285D01*
%TO.C,C8*%
X126438333Y-37535142D02*
X126390714Y-37582761D01*
X126247857Y-37630380D01*
X126152619Y-37630380D01*
X126009761Y-37582761D01*
X125914523Y-37487523D01*
X125866904Y-37392285D01*
X125819285Y-37201809D01*
X125819285Y-37058952D01*
X125866904Y-36868476D01*
X125914523Y-36773238D01*
X126009761Y-36678000D01*
X126152619Y-36630380D01*
X126247857Y-36630380D01*
X126390714Y-36678000D01*
X126438333Y-36725619D01*
X127009761Y-37058952D02*
X126914523Y-37011333D01*
X126866904Y-36963714D01*
X126819285Y-36868476D01*
X126819285Y-36820857D01*
X126866904Y-36725619D01*
X126914523Y-36678000D01*
X127009761Y-36630380D01*
X127200238Y-36630380D01*
X127295476Y-36678000D01*
X127343095Y-36725619D01*
X127390714Y-36820857D01*
X127390714Y-36868476D01*
X127343095Y-36963714D01*
X127295476Y-37011333D01*
X127200238Y-37058952D01*
X127009761Y-37058952D01*
X126914523Y-37106571D01*
X126866904Y-37154190D01*
X126819285Y-37249428D01*
X126819285Y-37439904D01*
X126866904Y-37535142D01*
X126914523Y-37582761D01*
X127009761Y-37630380D01*
X127200238Y-37630380D01*
X127295476Y-37582761D01*
X127343095Y-37535142D01*
X127390714Y-37439904D01*
X127390714Y-37249428D01*
X127343095Y-37154190D01*
X127295476Y-37106571D01*
X127200238Y-37058952D01*
%TO.C,C7*%
X123023333Y-40395142D02*
X122975714Y-40442761D01*
X122832857Y-40490380D01*
X122737619Y-40490380D01*
X122594761Y-40442761D01*
X122499523Y-40347523D01*
X122451904Y-40252285D01*
X122404285Y-40061809D01*
X122404285Y-39918952D01*
X122451904Y-39728476D01*
X122499523Y-39633238D01*
X122594761Y-39538000D01*
X122737619Y-39490380D01*
X122832857Y-39490380D01*
X122975714Y-39538000D01*
X123023333Y-39585619D01*
X123356666Y-39490380D02*
X124023333Y-39490380D01*
X123594761Y-40490380D01*
%TO.C,C6*%
X74939142Y-58078666D02*
X74986761Y-58126285D01*
X75034380Y-58269142D01*
X75034380Y-58364380D01*
X74986761Y-58507238D01*
X74891523Y-58602476D01*
X74796285Y-58650095D01*
X74605809Y-58697714D01*
X74462952Y-58697714D01*
X74272476Y-58650095D01*
X74177238Y-58602476D01*
X74082000Y-58507238D01*
X74034380Y-58364380D01*
X74034380Y-58269142D01*
X74082000Y-58126285D01*
X74129619Y-58078666D01*
X74034380Y-57221523D02*
X74034380Y-57412000D01*
X74082000Y-57507238D01*
X74129619Y-57554857D01*
X74272476Y-57650095D01*
X74462952Y-57697714D01*
X74843904Y-57697714D01*
X74939142Y-57650095D01*
X74986761Y-57602476D01*
X75034380Y-57507238D01*
X75034380Y-57316761D01*
X74986761Y-57221523D01*
X74939142Y-57173904D01*
X74843904Y-57126285D01*
X74605809Y-57126285D01*
X74510571Y-57173904D01*
X74462952Y-57221523D01*
X74415333Y-57316761D01*
X74415333Y-57507238D01*
X74462952Y-57602476D01*
X74510571Y-57650095D01*
X74605809Y-57697714D01*
%TO.C,C4*%
X72590333Y-37535142D02*
X72542714Y-37582761D01*
X72399857Y-37630380D01*
X72304619Y-37630380D01*
X72161761Y-37582761D01*
X72066523Y-37487523D01*
X72018904Y-37392285D01*
X71971285Y-37201809D01*
X71971285Y-37058952D01*
X72018904Y-36868476D01*
X72066523Y-36773238D01*
X72161761Y-36678000D01*
X72304619Y-36630380D01*
X72399857Y-36630380D01*
X72542714Y-36678000D01*
X72590333Y-36725619D01*
X73447476Y-36963714D02*
X73447476Y-37630380D01*
X73209380Y-36582761D02*
X72971285Y-37297047D01*
X73590333Y-37297047D01*
%TO.C,C3*%
X69175333Y-37695142D02*
X69127714Y-37742761D01*
X68984857Y-37790380D01*
X68889619Y-37790380D01*
X68746761Y-37742761D01*
X68651523Y-37647523D01*
X68603904Y-37552285D01*
X68556285Y-37361809D01*
X68556285Y-37218952D01*
X68603904Y-37028476D01*
X68651523Y-36933238D01*
X68746761Y-36838000D01*
X68889619Y-36790380D01*
X68984857Y-36790380D01*
X69127714Y-36838000D01*
X69175333Y-36885619D01*
X69508666Y-36790380D02*
X70127714Y-36790380D01*
X69794380Y-37171333D01*
X69937238Y-37171333D01*
X70032476Y-37218952D01*
X70080095Y-37266571D01*
X70127714Y-37361809D01*
X70127714Y-37599904D01*
X70080095Y-37695142D01*
X70032476Y-37742761D01*
X69937238Y-37790380D01*
X69651523Y-37790380D01*
X69556285Y-37742761D01*
X69508666Y-37695142D01*
%TO.C,C2*%
X124498833Y-37440142D02*
X124451214Y-37487761D01*
X124308357Y-37535380D01*
X124213119Y-37535380D01*
X124070261Y-37487761D01*
X123975023Y-37392523D01*
X123927404Y-37297285D01*
X123879785Y-37106809D01*
X123879785Y-36963952D01*
X123927404Y-36773476D01*
X123975023Y-36678238D01*
X124070261Y-36583000D01*
X124213119Y-36535380D01*
X124308357Y-36535380D01*
X124451214Y-36583000D01*
X124498833Y-36630619D01*
X124879785Y-36630619D02*
X124927404Y-36583000D01*
X125022642Y-36535380D01*
X125260738Y-36535380D01*
X125355976Y-36583000D01*
X125403595Y-36630619D01*
X125451214Y-36725857D01*
X125451214Y-36821095D01*
X125403595Y-36963952D01*
X124832166Y-37535380D01*
X125451214Y-37535380D01*
%TO.C,C1*%
X74001333Y-35917142D02*
X73953714Y-35964761D01*
X73810857Y-36012380D01*
X73715619Y-36012380D01*
X73572761Y-35964761D01*
X73477523Y-35869523D01*
X73429904Y-35774285D01*
X73382285Y-35583809D01*
X73382285Y-35440952D01*
X73429904Y-35250476D01*
X73477523Y-35155238D01*
X73572761Y-35060000D01*
X73715619Y-35012380D01*
X73810857Y-35012380D01*
X73953714Y-35060000D01*
X74001333Y-35107619D01*
X74953714Y-36012380D02*
X74382285Y-36012380D01*
X74668000Y-36012380D02*
X74668000Y-35012380D01*
X74572761Y-35155238D01*
X74477523Y-35250476D01*
X74382285Y-35298095D01*
%TD*%
M02*
